<svg width="24" height="23" viewBox="0 0 24 23" fill="none" xmlns="http://www.w3.org/2000/svg">
<g clip-path="url(#clip0_13_321)">
<path d="M24 17.2673C24 17.766 23.9987 18.266 23.996 18.7653C23.9934 19.3105 23.8265 19.8039 23.5281 20.1922C23.2303 20.5811 22.8029 20.861 22.2938 20.9867C22.1176 21.0299 21.9515 21.0306 21.8026 21.0312H21.8019C21.2409 21.0319 20.68 21.0326 20.119 21.0326C19.7341 21.0326 19.35 21.0326 18.9658 21.0319H18.9651C18.7969 21.0312 18.6447 21.0027 18.5131 20.9368H18.5125C18.3809 20.8703 18.2745 20.762 18.2154 20.6263C18.1768 20.5366 18.1582 20.4395 18.1562 20.3378V20.3225C18.1562 20.2194 18.1748 20.119 18.214 20.0286C18.2539 19.9375 18.3137 19.857 18.3888 19.7932C18.5404 19.6656 18.7438 19.6084 18.9698 19.6077C19.2748 19.6064 19.5786 19.6064 19.883 19.6064C20.22 19.6064 20.5563 19.607 20.8927 19.607C21.1638 19.607 21.435 19.6064 21.7062 19.6057C21.9262 19.6051 22.0951 19.5585 22.2187 19.482C22.3436 19.4036 22.4287 19.2985 22.4845 19.1443C22.5211 19.0426 22.5417 18.9182 22.5417 18.7726C22.5437 14.5007 22.5417 10.2294 22.547 5.95745V5.95612C22.547 5.9016 22.5417 5.86303 22.5377 5.85173C22.5311 5.84907 22.4985 5.84308 22.452 5.84375H22.4407C21.9694 5.84973 21.4982 5.85106 21.0276 5.85106C20.4945 5.85106 19.9621 5.84907 19.4297 5.84774C19.2396 5.84774 19.0661 5.80253 18.9266 5.70479C18.7856 5.60638 18.6919 5.45545 18.6587 5.28324C18.6481 5.23205 18.6427 5.18019 18.6427 5.12899V5.12633C18.6427 4.93418 18.7205 4.75465 18.8548 4.62699C18.9219 4.56316 19.003 4.5133 19.0921 4.47872C19.1818 4.44481 19.2808 4.4262 19.3839 4.42553C19.7368 4.42221 20.0904 4.42154 20.4433 4.42154C20.8435 4.42154 21.2429 4.42287 21.6431 4.42287C21.6683 4.42287 21.6956 4.42221 21.7235 4.42221C21.8824 4.42221 22.0425 4.42021 22.2041 4.42021C22.3097 4.42021 22.4161 4.42154 22.5224 4.4242H22.5437C22.5437 4.42021 22.5437 4.41622 22.5437 4.41223V4.40957C22.5424 4.24269 22.5417 4.07513 22.5417 3.90824C22.5417 3.6496 22.543 3.39162 22.543 3.13497C22.543 2.79721 22.541 2.45944 22.5344 2.12301C22.5304 1.94016 22.4573 1.78324 22.3363 1.66423C22.2154 1.54588 22.0472 1.46875 21.8578 1.45944C21.7501 1.45412 21.6411 1.45279 21.5301 1.45279C21.4769 1.45279 21.4244 1.45279 21.3706 1.45346V1.32048H21.2709V1.25399H21.2702V1.31915H21.1712V1.32048V1.35173L21.1705 1.35372L21.1685 1.45346H7.69625C5.91958 1.45346 4.14357 1.45346 2.3669 1.4508H2.36225C2.20804 1.4508 2.07046 1.4621 1.95547 1.49734C1.83915 1.53258 1.7461 1.58577 1.65504 1.68551C1.59322 1.75465 1.54603 1.82513 1.51412 1.90027C1.48222 1.97473 1.4656 2.04987 1.46494 2.13697C1.46361 2.89162 1.4656 3.64694 1.46095 4.40293V4.40559C1.46095 4.41223 1.46095 4.41822 1.46162 4.42354C1.46228 4.43816 1.46361 4.44814 1.46427 4.45279V4.45479L1.45962 4.45678L1.46494 4.45545L1.46228 4.4242H1.46427C1.49751 4.42088 1.52941 4.42021 1.55866 4.42021C1.60718 4.42021 1.65038 4.42221 1.68694 4.42221H1.70223C6.66933 4.42221 11.6358 4.42221 16.6029 4.42287C16.652 4.42287 16.7052 4.42154 16.7604 4.42154C16.8089 4.42154 16.8601 4.42221 16.9133 4.42553C17.1054 4.43683 17.2795 4.51529 17.4071 4.63963C17.4709 4.70213 17.5228 4.77593 17.5587 4.85838C17.5946 4.94016 17.6158 5.03058 17.6171 5.12566V5.13697C17.6171 5.32846 17.5381 5.50332 17.4084 5.62965L17.4058 5.63231C17.2755 5.75864 17.0974 5.83644 16.9006 5.84641C16.8501 5.84907 16.8009 5.84973 16.7537 5.84973C16.6979 5.84973 16.6441 5.84907 16.5916 5.84907H1.64174C1.56265 5.84907 1.50216 5.84907 1.46494 5.85239C1.46294 5.89096 1.46228 5.95213 1.46228 6.03058V6.06317C1.46228 6.24269 1.46361 6.42287 1.46361 6.60505C1.46361 6.73803 1.46294 6.87101 1.46029 7.00465C1.4563 7.22473 1.39182 7.42354 1.26421 7.57181C1.13659 7.72207 0.947159 7.80652 0.741775 7.80785H0.73114C0.529744 7.80785 0.340312 7.72872 0.210037 7.58178C0.0797607 7.43484 0.0132935 7.23404 0.0126288 7.01064C0.00864074 6.07646 0 5.14162 0 4.20612C0 3.52992 0.00398804 2.85439 0.0186108 2.17819C0.0312396 1.53989 0.279163 0.989362 0.68993 0.604388C1.10003 0.21875 1.66833 0.00132979 2.30641 0.00132979C5.56996 0 8.8335 0 12.097 0C15.3606 0 18.4885 0 21.6843 0.00132979H21.6869C22.3609 0.000664894 22.9445 0.236702 23.3546 0.652925C23.766 1.06915 23.9967 1.66024 23.9967 2.34109C23.998 4.27128 23.9987 6.20146 23.9987 8.13165C23.9987 10.4488 23.998 12.7653 23.998 15.0818C23.998 15.8098 24 16.5386 24 17.2673Z" fill="white"/>
<path d="M21.3719 1.3204V1.35364H21.2722V1.3204L21.2716 1.35364H21.1719V1.35165L21.1725 1.3204V1.3184L21.2716 1.31907V1.25391H21.2722V1.31973L21.3719 1.3204Z" fill="white"/>
<path d="M1.46534 4.45483V4.45563L1.45898 4.45724L1.46534 4.45483Z" fill="white"/>
<path d="M1.46426 4.45483V4.45284C1.46293 4.44819 1.4616 4.43821 1.46094 4.42358H1.4636L1.4616 4.42425L1.46426 4.45483Z" fill="white"/>
<path d="M21.372 1.3206V1.45358H21.1699L21.1719 1.35384V1.35185L21.1726 1.3206V1.3186L21.2716 1.31927L21.2723 1.31993L21.372 1.3206Z" fill="white"/>
<path d="M21.372 1.3204V1.45337H21.1699L21.1719 1.35364V1.35165L21.1726 1.3204V1.3184L21.2716 1.31907V1.25391H21.2723V1.31973L21.372 1.3204Z" fill="white"/>
<path d="M17.1521 17.6284L17.1481 17.6324L17.1495 17.6344L17.1528 17.6291H17.1521V17.6284ZM12.2209 20.0659V20.0639L12.2109 20.0679V20.0719H12.2123L12.2229 20.0699L12.2209 20.0659ZM12.2209 20.0659V20.0639L12.2109 20.0679V20.0719H12.2123L12.2229 20.0699L12.2209 20.0659ZM17.1521 17.6284L17.1481 17.6324L17.1495 17.6344L17.1528 17.6291H17.1521V17.6284ZM17.1521 17.6284L17.1481 17.6324L17.1495 17.6344L17.1528 17.6291H17.1521V17.6284ZM12.2209 20.0659V20.0639L12.2109 20.0679V20.0719H12.2123L12.2229 20.0699L12.2209 20.0659ZM17.1521 17.6284L17.1481 17.6324L17.1495 17.6344L17.1528 17.6291H17.1521V17.6284ZM12.2209 20.0659V20.0639L12.2109 20.0679V20.0719H12.2123L12.2229 20.0699L12.2209 20.0659ZM12.2209 20.0659V20.0639L12.2109 20.0679V20.0719H12.2123L12.2229 20.0699L12.2209 20.0659ZM17.1521 17.6284L17.1481 17.6324L17.1495 17.6344L17.1528 17.6291H17.1521V17.6284ZM17.1521 17.6284L17.1481 17.6324L17.1495 17.6344L17.1528 17.6291H17.1521V17.6284ZM12.2209 20.0659V20.0639L12.2109 20.0679V20.0719H12.2123L12.2229 20.0699L12.2209 20.0659Z" fill="white"/>
<path d="M17.1521 17.6284L17.1481 17.6324L17.1495 17.6344L17.1528 17.6291H17.1521V17.6284ZM12.2209 20.0659V20.0639L12.2109 20.0679V20.0719H12.2123L12.2229 20.0699L12.2209 20.0659ZM17.1521 17.6284L17.1481 17.6324L17.1495 17.6344L17.1528 17.6291H17.1521V17.6284ZM12.2209 20.0659V20.0639L12.2109 20.0679V20.0719H12.2123L12.2229 20.0699L12.2209 20.0659ZM17.1521 17.6284L17.1481 17.6324L17.1495 17.6344L17.1528 17.6291H17.1521V17.6284ZM12.2209 20.0659V20.0639L12.2109 20.0679V20.0719H12.2123L12.2229 20.0699L12.2209 20.0659ZM17.1521 17.6284L17.1481 17.6324L17.1495 17.6344L17.1528 17.6291H17.1521V17.6284ZM12.2209 20.0659V20.0639L12.2109 20.0679V20.0719H12.2123L12.2229 20.0699L12.2209 20.0659Z" fill="white"/>
<path d="M17.1521 17.6284L17.1481 17.6324L17.1495 17.6344L17.1528 17.6291H17.1521V17.6284ZM12.2209 20.0659V20.0639L12.2109 20.0679V20.0719H12.2123L12.2229 20.0699L12.2209 20.0659ZM17.1521 17.6284L17.1481 17.6324L17.1495 17.6344L17.1528 17.6291H17.1521V17.6284ZM12.2209 20.0659V20.0639L12.2109 20.0679V20.0719H12.2123L12.2229 20.0699L12.2209 20.0659ZM17.1521 17.6284L17.1481 17.6324L17.1495 17.6344L17.1528 17.6291H17.1521V17.6284ZM12.2209 20.0659V20.0639L12.2109 20.0679V20.0719H12.2123L12.2229 20.0699L12.2209 20.0659ZM17.1521 17.6284L17.1481 17.6324L17.1495 17.6344L17.1528 17.6291H17.1521V17.6284ZM12.2209 20.0659V20.0639L12.2109 20.0679V20.0719H12.2123L12.2229 20.0699L12.2209 20.0659Z" fill="white"/>
<path d="M18.955 17.3013C18.868 17.1836 18.7476 17.0779 18.5981 16.9788C17.6509 16.3511 16.7018 15.7261 15.754 15.1005C14.6539 14.3751 13.5559 13.645 12.4499 12.9243C12.285 12.8166 12.1122 12.7581 11.9441 12.7581H11.9381C11.7513 12.7581 11.5765 12.8358 11.4542 12.9741C11.3306 13.1131 11.2628 13.3006 11.2481 13.514C11.2269 13.8312 11.2116 14.1457 11.1936 14.4589C11.1411 15.3784 11.0913 16.2966 11.0348 17.2135C10.959 18.4529 10.8786 19.6929 10.7995 20.9329V20.9436C10.7988 20.9582 10.7988 20.9715 10.7988 20.9835C10.7988 21.2155 10.8493 21.419 10.9677 21.5745H10.967C11.0261 21.6523 11.1026 21.7148 11.191 21.7567H11.1916C11.2774 21.7966 11.3718 21.8166 11.4708 21.8166H11.4761C11.6357 21.8166 11.8018 21.7694 11.974 21.6836C12.4851 21.4303 13.0016 21.1796 13.5114 20.911H13.512C13.5266 20.9023 13.5393 20.8964 13.5492 20.893C13.5559 20.9043 13.5645 20.9203 13.5732 20.9389H13.5738C13.8251 21.4668 14.0896 21.9848 14.3522 22.5027C14.4259 22.6483 14.5084 22.7694 14.618 22.8591C14.7277 22.9515 14.8646 23.0001 15.0082 23.0001H15.0115C15.1524 23.0001 15.2913 22.9595 15.4402 22.8937C16.0949 22.6078 16.745 22.3132 17.3957 22.024H17.3964C17.5552 21.9522 17.6875 21.8678 17.7872 21.7527C17.7872 21.7527 17.7874 21.7523 17.7879 21.7514C17.8889 21.6357 17.9421 21.4908 17.9421 21.3385V21.3352C17.9414 21.1783 17.8916 21.0214 17.8105 20.8558C17.5459 20.3212 17.284 19.782 17.0029 19.2507H17.0022C16.9883 19.2241 16.9796 19.2029 16.975 19.1889C16.975 19.1876 16.975 19.1862 16.9736 19.1849C16.9876 19.1756 17.0115 19.1616 17.0434 19.1464C17.536 18.915 18.0145 18.6636 18.4944 18.4249C18.6719 18.3358 18.8161 18.2361 18.9218 18.1164C19.0261 17.9981 19.0933 17.8531 19.0933 17.6969V17.6949C19.0933 17.5533 19.0394 17.419 18.953 17.3013H18.955ZM17.1531 17.6284H17.1538L17.1504 17.6344L17.1491 17.6324L17.1531 17.6284ZM12.2133 20.0719H12.2126V20.0679L12.2212 20.0639V20.0659L12.2239 20.0699L12.2133 20.0719ZM15.4522 19.3305C15.7167 19.8638 15.9793 20.4017 16.2571 20.9336H16.2578C16.2631 20.9436 16.2671 20.9522 16.2704 20.9602C16.2624 20.9642 16.2531 20.9682 16.2432 20.9722C15.9633 21.0845 15.6835 21.2055 15.411 21.3432H15.4103C15.3964 21.3511 15.3837 21.3565 15.3744 21.3598C15.3691 21.3511 15.3625 21.3392 15.3558 21.3245H15.3552C15.1072 20.8046 14.8454 20.2953 14.5888 19.7853C14.5057 19.6204 14.4226 19.4868 14.3123 19.3851C14.2584 19.3352 14.196 19.2933 14.1255 19.2647C14.1248 19.2647 14.1249 19.264 14.1242 19.264C14.0544 19.2361 13.98 19.2228 13.9055 19.2228H13.9048C13.8184 19.2235 13.732 19.2394 13.6436 19.2674C13.5552 19.296 13.4642 19.3352 13.3665 19.3837C13.0135 19.5586 12.6619 19.7368 12.311 19.9116C12.3116 19.8897 12.3116 19.8691 12.3116 19.8498C12.3116 19.8152 12.311 19.782 12.311 19.7514V19.7461C12.3907 18.4841 12.4718 17.2215 12.5496 15.9589C12.5742 15.5539 12.5954 15.149 12.6101 14.7428C14.0524 15.6989 15.4967 16.6517 16.9431 17.6011C16.5788 17.778 16.2152 17.9582 15.853 18.141C15.6935 18.2222 15.5619 18.3086 15.4642 18.4216C15.4156 18.4781 15.3764 18.542 15.3505 18.6118H15.3498C15.3226 18.6823 15.31 18.7567 15.31 18.8319C15.3113 18.9961 15.3665 19.1563 15.4529 19.3305H15.4522Z" fill="white"/>
<path d="M10.1694 20.3385L10.2691 20.3431C10.2644 20.5313 10.1886 20.7048 10.0604 20.8285C9.93142 20.9528 9.75395 21.024 9.55854 21.0293C9.42693 21.0333 9.29732 21.0339 9.16771 21.0339C9.01284 21.0339 8.8593 21.0326 8.70709 21.0326H8.69313C7.45019 21.0326 6.20859 21.0233 4.96831 21.0233C4.08496 21.0233 3.20094 21.028 2.31892 21.0446H2.27705C1.7041 21.0446 1.13846 20.8278 0.712408 20.4289C0.287017 20.0306 0.00519588 19.4442 0.00586055 18.7327V18.7261C0.00918391 17.4482 0.00984858 16.1702 0.00984858 14.8917C0.00984858 13.4249 0.00918391 11.9588 0.00918391 10.4921V9.76998C0.00918391 9.67689 0.0105133 9.5725 0.0297888 9.46213C0.061693 9.28195 0.142783 9.12437 0.267077 9.01067C0.391371 8.89697 0.555545 8.83447 0.729689 8.83447H0.732348C0.73833 8.83447 0.747635 8.83447 0.75827 8.83447H0.763587C0.851989 8.8378 0.937067 8.85708 1.01483 8.88966C1.09459 8.92357 1.16704 8.97144 1.22886 9.03195C1.35116 9.15296 1.42959 9.31719 1.45285 9.50269C1.46149 9.57184 1.46282 9.637 1.46282 9.69684C1.46282 9.73274 1.46216 9.76599 1.46216 9.79724V9.80322C1.46282 11.2952 1.46282 12.7873 1.46282 14.2793V14.3917C1.46282 15.2148 1.46216 16.0373 1.46216 16.8604C1.46216 17.4847 1.46282 18.1084 1.46349 18.7321C1.46349 18.8531 1.47545 18.9581 1.49606 19.0492C1.51733 19.1403 1.54857 19.2175 1.58645 19.28C1.62567 19.3444 1.67153 19.397 1.72736 19.4409C1.78386 19.4841 1.85033 19.52 1.93208 19.5479H1.93275C2.03976 19.5845 2.17402 19.6051 2.33354 19.6051C3.48874 19.6051 4.64328 19.6051 5.79782 19.6051H7.67153C8.21324 19.6051 8.75561 19.6051 9.29732 19.6057C9.33853 19.6057 9.3824 19.6044 9.42959 19.6044C9.48874 19.6044 9.55255 19.6057 9.62035 19.6144C9.71207 19.6264 9.79782 19.6543 9.87558 19.6948C9.95269 19.7354 10.0218 19.7893 10.0796 19.8518C10.1953 19.9768 10.2697 20.1423 10.2697 20.3225H10.17V20.3371L10.1694 20.3385Z" fill="white"/>
<path d="M10.2683 20.3237V20.3284L10.2677 20.3404V20.343L10.168 20.3384L10.1686 20.3237H10.2683Z" fill="white"/>
<path d="M12.7141 8.56781C12.7141 8.74202 12.6516 8.90624 12.5433 9.03191H12.5426C12.4336 9.15757 12.2787 9.24601 12.0999 9.27127H12.1006C12.0301 9.28124 11.9643 9.28257 11.9058 9.28257C11.868 9.28257 11.8321 9.28191 11.7988 9.28191C10.3233 9.28191 8.84769 9.28257 7.37212 9.28257C6.37046 9.28257 5.36813 9.28191 4.36647 9.28191C4.17637 9.28191 4.00621 9.25465 3.86065 9.19082C3.71509 9.12832 3.59279 9.02393 3.52167 8.88364H3.52233C3.47448 8.79122 3.45121 8.68749 3.44922 8.58045V8.56183C3.44922 8.45478 3.46982 8.35039 3.51569 8.25598C3.56221 8.16156 3.63267 8.08178 3.71841 8.02194H3.71908C3.80482 7.96276 3.90319 7.92087 4.01153 7.89428C4.12054 7.86768 4.24084 7.85638 4.36979 7.85571H10.1292C10.7287 7.85571 11.3276 7.85571 11.9271 7.85704C12.1232 7.85704 12.3027 7.90425 12.4436 8.00797C12.5865 8.11303 12.6769 8.27194 12.7048 8.45146C12.7108 8.49002 12.7141 8.52925 12.7141 8.56781Z" fill="white"/>
<path d="M8.78654 11.9781V11.9993C8.78654 12.1004 8.76926 12.1981 8.7327 12.2886C8.69548 12.3783 8.63898 12.4588 8.56653 12.5233C8.49408 12.5878 8.40768 12.6356 8.31263 12.6662C8.21758 12.6975 8.11389 12.7121 8.00422 12.7121C7.38275 12.7141 6.76195 12.7154 6.14114 12.7154C5.52034 12.7154 4.86165 12.7141 4.22157 12.7121C4.01087 12.7114 3.81811 12.639 3.6772 12.5113C3.53563 12.3843 3.44922 12.2015 3.44922 12.0013V11.9827V11.9807C3.45454 11.7833 3.53563 11.6017 3.6772 11.4781C3.81811 11.3537 4.00754 11.2912 4.21492 11.2906C4.48013 11.2892 4.74666 11.2886 5.01186 11.2886C5.37411 11.2886 5.73636 11.2899 6.09794 11.2899H6.13184C6.50206 11.2892 6.87228 11.2892 7.24317 11.2892C7.49442 11.2892 7.74633 11.2892 7.99824 11.2899C8.16042 11.2906 8.30864 11.3205 8.43626 11.3876C8.56587 11.4548 8.66823 11.5618 8.72606 11.6948C8.76394 11.7826 8.78322 11.8783 8.78654 11.9781Z" fill="white"/>
</g>
<defs>
<clipPath id="clip0_13_321">
<rect width="24" height="23" fill="white"/>
</clipPath>
</defs>
</svg>
