<svg xmlns="http://www.w3.org/2000/svg" xmlns:xlink="http://www.w3.org/1999/xlink" width="1080" zoomAndPan="magnify" viewBox="0 0 810 809.999993" height="1080" preserveAspectRatio="xMidYMid meet" version="1.2"><defs><clipPath id="977d8a5003"><path d="M 385 469 L 425 469 L 425 573.082031 L 385 573.082031 Z M 385 469 "/></clipPath><clipPath id="fde96df6bf"><path d="M 210.25 183.832031 L 599.5 183.832031 L 599.5 573.082031 L 210.25 573.082031 Z M 210.25 183.832031 "/></clipPath></defs><g id="b4cd459b9f"><g clip-rule="nonzero" clip-path="url(#977d8a5003)"><path style=" stroke:none;fill-rule:nonzero;fill:#000000;fill-opacity:1;" d="M 417.851562 469.28125 L 391.902344 469.28125 C 388.269531 469.28125 385.414062 472.136719 385.414062 475.769531 L 385.414062 573.082031 L 424.339844 573.082031 L 424.339844 475.769531 C 424.339844 472.136719 421.484375 469.28125 417.851562 469.28125 Z M 417.851562 469.28125 "/></g><g clip-rule="nonzero" clip-path="url(#fde96df6bf)"><path style=" stroke:none;fill-rule:nonzero;fill:#000000;fill-opacity:1;" d="M 586.527344 547.132812 L 489.214844 547.132812 L 489.214844 203.296875 C 489.214844 192.527344 480.519531 183.832031 469.75 183.832031 L 340 183.832031 C 329.230469 183.832031 320.539062 192.527344 320.539062 203.296875 L 320.539062 547.132812 L 223.226562 547.132812 C 216.089844 547.132812 210.25 552.972656 210.25 560.109375 C 210.25 567.242188 216.089844 573.082031 223.226562 573.082031 L 359.464844 573.082031 L 359.464844 475.769531 C 359.464844 457.863281 373.996094 443.332031 391.902344 443.332031 L 417.851562 443.332031 C 435.757812 443.332031 450.289062 457.863281 450.289062 475.769531 L 450.289062 573.082031 L 586.527344 573.082031 C 593.660156 573.082031 599.5 567.242188 599.5 560.109375 C 599.5 552.972656 593.660156 547.132812 586.527344 547.132812 Z M 375.683594 365.484375 L 369.195312 365.484375 C 362.058594 365.484375 356.21875 359.644531 356.21875 352.507812 C 356.21875 345.371094 362.058594 339.53125 369.195312 339.53125 L 375.683594 339.53125 C 382.816406 339.53125 388.65625 345.371094 388.65625 352.507812 C 388.65625 359.644531 382.816406 365.484375 375.683594 365.484375 Z M 375.683594 313.582031 L 369.195312 313.582031 C 362.058594 313.582031 356.21875 307.746094 356.21875 300.609375 C 356.21875 293.472656 362.058594 287.632812 369.195312 287.632812 L 375.683594 287.632812 C 382.816406 287.632812 388.65625 293.472656 388.65625 300.609375 C 388.65625 307.746094 382.816406 313.582031 375.683594 313.582031 Z M 375.683594 261.683594 L 369.195312 261.683594 C 362.058594 261.683594 356.21875 255.84375 356.21875 248.707031 C 356.21875 241.570312 362.058594 235.734375 369.195312 235.734375 L 375.683594 235.734375 C 382.816406 235.734375 388.65625 241.570312 388.65625 248.707031 C 388.65625 255.84375 382.816406 261.683594 375.683594 261.683594 Z M 440.558594 365.484375 L 434.070312 365.484375 C 426.933594 365.484375 421.09375 359.644531 421.09375 352.507812 C 421.09375 345.371094 426.933594 339.53125 434.070312 339.53125 L 440.558594 339.53125 C 447.691406 339.53125 453.53125 345.371094 453.53125 352.507812 C 453.53125 359.644531 447.691406 365.484375 440.558594 365.484375 Z M 440.558594 313.582031 L 434.070312 313.582031 C 426.933594 313.582031 421.09375 307.746094 421.09375 300.609375 C 421.09375 293.472656 426.933594 287.632812 434.070312 287.632812 L 440.558594 287.632812 C 447.691406 287.632812 453.53125 293.472656 453.53125 300.609375 C 453.53125 307.746094 447.691406 313.582031 440.558594 313.582031 Z M 440.558594 261.683594 L 434.070312 261.683594 C 426.933594 261.683594 421.09375 255.84375 421.09375 248.707031 C 421.09375 241.570312 426.933594 235.734375 434.070312 235.734375 L 440.558594 235.734375 C 447.691406 235.734375 453.53125 241.570312 453.53125 248.707031 C 453.53125 255.84375 447.691406 261.683594 440.558594 261.683594 Z M 440.558594 261.683594 "/></g><path style=" stroke:none;fill-rule:nonzero;fill:#000000;fill-opacity:1;" d="M 573.550781 339.53125 C 573.550781 334.082031 570.175781 329.152344 564.988281 327.335938 L 515.164062 309.171875 L 515.164062 378.457031 L 524.894531 378.457031 C 532.03125 378.457031 537.871094 384.296875 537.871094 391.433594 C 537.871094 398.570312 532.03125 404.40625 524.894531 404.40625 L 515.164062 404.40625 L 515.164062 430.359375 L 524.894531 430.359375 C 532.03125 430.359375 537.871094 436.195312 537.871094 443.332031 C 537.871094 450.46875 532.03125 456.308594 524.894531 456.308594 L 515.164062 456.308594 L 515.164062 482.257812 L 524.894531 482.257812 C 532.03125 482.257812 537.871094 488.097656 537.871094 495.234375 C 537.871094 502.371094 532.03125 508.207031 524.894531 508.207031 L 515.164062 508.207031 L 515.164062 521.183594 L 573.550781 521.183594 Z M 573.550781 339.53125 "/><path style=" stroke:none;fill-rule:nonzero;fill:#000000;fill-opacity:1;" d="M 294.589844 443.332031 L 284.855469 443.332031 C 277.71875 443.332031 271.882812 437.496094 271.882812 430.359375 C 271.882812 423.222656 277.71875 417.382812 284.855469 417.382812 L 294.589844 417.382812 L 294.589844 391.433594 L 284.855469 391.433594 C 277.71875 391.433594 271.882812 385.59375 271.882812 378.457031 C 271.882812 371.320312 277.71875 365.484375 284.855469 365.484375 L 294.589844 365.484375 L 294.589844 339.53125 L 284.855469 339.53125 C 277.71875 339.53125 271.882812 333.695312 271.882812 326.558594 C 271.882812 319.421875 277.71875 313.582031 284.855469 313.582031 L 294.589844 313.582031 L 294.589844 244.296875 L 244.765625 262.460938 C 239.574219 264.277344 236.199219 269.207031 236.199219 274.65625 L 236.199219 521.183594 L 294.589844 521.183594 Z M 294.589844 443.332031 "/></g></svg>