<svg xmlns="http://www.w3.org/2000/svg" xmlns:xlink="http://www.w3.org/1999/xlink" width="1080" zoomAndPan="magnify" viewBox="0 0 810 809.999993" height="1080" preserveAspectRatio="xMidYMid meet" version="1.2"><defs><clipPath id="4f8c998265"><path d="M 180.515625 184.632812 L 629.765625 184.632812 L 629.765625 625.632812 L 180.515625 625.632812 Z M 180.515625 184.632812 "/></clipPath></defs><g id="3cc8569256"><g clip-rule="nonzero" clip-path="url(#4f8c998265)"><path style=" stroke:none;fill-rule:evenodd;fill:#000000;fill-opacity:1;" d="M 493.046875 393.941406 C 490.871094 386.425781 487.761719 379.308594 483.847656 372.722656 C 495.636719 365.398438 509.542969 361.167969 524.441406 361.167969 C 550.519531 361.167969 573.570312 374.121094 587.503906 393.941406 Z M 524.441406 352.113281 C 502.992188 352.113281 485.507812 334.605469 485.507812 313.160156 C 485.507812 291.710938 502.992188 274.207031 524.441406 274.207031 C 545.910156 274.207031 563.394531 291.710938 563.394531 313.160156 C 563.394531 334.605469 545.910156 352.113281 524.441406 352.113281 Z M 222.738281 393.941406 C 236.679688 374.121094 259.722656 361.167969 285.789062 361.167969 C 300.691406 361.167969 314.605469 365.398438 326.394531 372.722656 C 322.476562 379.308594 319.367188 386.425781 317.1875 393.941406 Z M 285.789062 352.113281 C 264.339844 352.113281 246.855469 334.605469 246.855469 313.160156 C 246.855469 291.710938 264.339844 274.207031 285.789062 274.207031 C 307.257812 274.207031 324.742188 291.710938 324.742188 313.160156 C 324.742188 334.605469 307.257812 352.113281 285.789062 352.113281 Z M 477.839844 393.941406 L 332.398438 393.941406 C 342.925781 363.917969 371.503906 342.382812 405.113281 342.382812 C 438.742188 342.382812 467.328125 363.917969 477.839844 393.941406 Z M 405.113281 333.328125 C 383.664062 333.328125 366.179688 315.824219 366.179688 294.375 C 366.179688 272.925781 383.664062 255.421875 405.113281 255.421875 C 426.585938 255.421875 444.070312 272.925781 444.070312 294.375 C 444.070312 315.824219 426.585938 333.328125 405.113281 333.328125 Z M 605.925781 437.414062 L 605.925781 451.925781 L 572.664062 464.726562 C 568.449219 482.453125 561.394531 499.355469 551.875 514.894531 L 566.316406 547.5 L 527.910156 585.902344 L 495.304688 571.460938 C 479.820312 581.035156 462.859375 588.035156 445.136719 592.25 L 432.332031 625.511719 L 378.007812 625.511719 L 365.203125 592.25 C 347.421875 588.035156 330.519531 580.980469 314.980469 571.460938 L 282.375 585.902344 L 243.96875 547.5 L 258.464844 514.894531 C 248.890625 499.410156 241.890625 482.453125 237.621094 464.726562 L 204.359375 451.925781 L 204.359375 437.414062 L 311.222656 437.414062 C 317.417969 483.777344 357.085938 519.542969 405.140625 519.542969 C 453.199219 519.542969 492.914062 483.777344 499.113281 437.414062 Z M 197.203125 393.941406 C 197.144531 393.5625 197.113281 393.171875 197.113281 392.777344 C 197.113281 277.964844 290.328125 184.753906 405.140625 184.753906 C 519.957031 184.753906 613.171875 277.964844 613.171875 392.777344 C 613.171875 393.171875 613.140625 393.5625 613.078125 393.941406 L 598.773438 393.941406 C 598.710938 393.5625 598.679688 393.171875 598.679688 392.777344 C 598.679688 285.964844 511.957031 199.246094 405.140625 199.246094 C 298.324219 199.246094 211.601562 285.964844 211.601562 392.777344 C 211.601562 393.171875 211.570312 393.5625 211.511719 393.941406 Z M 187.761719 422.921875 C 183.765625 422.921875 180.515625 419.675781 180.515625 415.679688 C 180.515625 411.679688 183.765625 408.433594 187.761719 408.433594 L 622.519531 408.433594 C 626.519531 408.433594 629.765625 411.679688 629.765625 415.679688 C 629.765625 419.675781 626.519531 422.921875 622.519531 422.921875 Z M 187.761719 422.921875 "/></g></g></svg>