<svg width="27" height="27" viewBox="0 0 27 27" fill="none" xmlns="http://www.w3.org/2000/svg">
<path d="M23.9454 9.65574L23.4874 9.39642C23.4163 9.35615 23.3813 9.33595 23.347 9.315C23.0055 9.10679 22.7177 8.8191 22.5076 8.47491C22.4865 8.44028 22.4666 8.40396 22.4258 8.33218C22.3852 8.26049 22.3646 8.22417 22.3456 8.1882C22.1572 7.83012 22.0553 7.43107 22.0492 7.02492C22.0486 6.98408 22.0487 6.94236 22.0501 6.85942L22.0591 6.31813C22.0734 5.45191 22.0806 5.01746 21.961 4.62757C21.8547 4.28124 21.677 3.96225 21.4397 3.69155C21.1714 3.38556 20.8001 3.16725 20.0567 2.7312L19.4392 2.36899C18.6979 1.93416 18.3271 1.71666 17.9335 1.63375C17.5853 1.56039 17.226 1.56379 16.8791 1.64307C16.4875 1.73255 16.1213 1.95571 15.3895 2.40178L15.3853 2.4038L14.9428 2.67347C14.8729 2.71611 14.8375 2.7376 14.8024 2.75744C14.4544 2.95438 14.0659 3.06327 13.668 3.07627C13.6279 3.07758 13.5871 3.07758 13.5055 3.07758C13.4244 3.07758 13.3819 3.07758 13.3419 3.07627C12.9431 3.06322 12.5538 2.95373 12.2053 2.75598C12.1701 2.73605 12.1354 2.71439 12.0653 2.67155L11.62 2.39945C10.8831 1.94916 10.5142 1.72367 10.1204 1.63375C9.77206 1.55419 9.41151 1.55199 9.06204 1.62629C8.66745 1.71018 8.29657 1.92929 7.5548 2.3675L7.5515 2.36899L6.94169 2.72926L6.93494 2.73346C6.19985 3.16773 5.83142 3.38539 5.56542 3.69013C5.32938 3.96056 5.15294 4.27905 5.04734 4.62446C4.92798 5.01489 4.93434 5.45027 4.94872 6.32056L4.95766 6.86109C4.95901 6.94295 4.96136 6.98362 4.96077 7.02388C4.95485 7.43087 4.85159 7.83073 4.66263 8.18945C4.64394 8.22492 4.6238 8.2604 4.58359 8.33126C4.54335 8.40217 4.52386 8.43744 4.50299 8.47166C4.29201 8.81769 4.00286 9.10705 3.65922 9.31562C3.62523 9.33626 3.58941 9.3561 3.51902 9.3958L3.06689 9.65084C2.31464 10.0752 1.9386 10.2875 1.66498 10.5897C1.42292 10.8571 1.24006 11.1742 1.12843 11.5195C1.00226 11.9099 1.00236 12.3476 1.00432 13.2231L1.00591 13.9386C1.00786 14.8081 1.01052 15.2426 1.13697 15.6304C1.24885 15.9734 1.43038 16.2886 1.67108 16.5544C1.94316 16.8547 2.31546 17.0658 3.062 17.4885L3.5101 17.7422C3.58636 17.7854 3.62474 17.8067 3.66151 17.8293C4.00204 18.038 4.28892 18.3266 4.49811 18.6706C4.52071 18.7078 4.5424 18.7464 4.58579 18.8235C4.62863 18.8997 4.65055 18.9378 4.67037 18.976C4.85378 19.3294 4.95198 19.7222 4.95868 20.1218C4.9594 20.165 4.95878 20.2087 4.95733 20.2965L4.94872 20.8152C4.93424 21.6885 4.92793 22.1256 5.048 22.5171C5.15422 22.8635 5.33176 23.1824 5.56908 23.4531C5.83734 23.7592 6.20924 23.9773 6.95268 24.4134L7.57005 24.7755C8.3114 25.2103 8.68194 25.4276 9.07552 25.5105C9.42372 25.5838 9.78325 25.581 10.1302 25.5017C10.5223 25.4121 10.8897 25.1882 11.6237 24.7408L12.0661 24.4712C12.1361 24.4285 12.1716 24.4071 12.2066 24.3873C12.5546 24.1903 12.9427 24.0809 13.3407 24.0679C13.3808 24.0666 13.4216 24.0666 13.5031 24.0666C13.5849 24.0666 13.6257 24.0666 13.6659 24.0679C14.0647 24.0809 14.4551 24.1908 14.8036 24.3885C14.8343 24.4059 14.865 24.4247 14.919 24.4577L15.3893 24.7451C16.1263 25.1955 16.4945 25.4203 16.8883 25.5102C17.2366 25.5898 17.5975 25.593 17.9469 25.5187C18.3414 25.4349 18.7131 25.2153 19.4544 24.7773L20.0734 24.4117C20.809 23.9771 21.1778 23.7592 21.4439 23.4544C21.6799 23.184 21.8566 22.8656 21.9622 22.5202C22.0807 22.1326 22.0735 21.7006 22.0594 20.8428L22.0501 20.2834C22.0488 20.2016 22.0486 20.1609 22.0492 20.1206C22.0551 19.7136 22.1567 19.3135 22.3456 18.9548C22.3643 18.9193 22.3846 18.8836 22.4247 18.8129C22.4649 18.742 22.4857 18.7067 22.5066 18.6725C22.7176 18.3264 23.007 18.0368 23.3507 17.8283C23.3842 17.8079 23.4188 17.7884 23.4875 17.7496L23.4899 17.7485L23.942 17.4935C24.6943 17.0691 25.071 16.8566 25.3446 16.5544C25.5867 16.287 25.7693 15.9704 25.8809 15.625C26.0064 15.2369 26.0054 14.8017 26.0035 13.9365L26.0018 13.2057C25.9999 12.3361 25.9989 11.9016 25.8724 11.5139C25.7605 11.1709 25.578 10.8556 25.3373 10.5899C25.0655 10.2898 24.6926 10.0787 23.9475 9.65682L23.9454 9.65574Z" stroke="white" stroke-width="2" stroke-linecap="round" stroke-linejoin="round"/>
<path d="M8.50235 13.5724C8.50235 16.3843 10.7418 18.6638 13.5043 18.6638C16.2668 18.6638 18.5062 16.3843 18.5062 13.5724C18.5062 10.7604 16.2668 8.48093 13.5043 8.48093C10.7418 8.48093 8.50235 10.7604 8.50235 13.5724Z" stroke="white" stroke-width="2" stroke-linecap="round" stroke-linejoin="round"/>
</svg>
