<svg width="20" height="20" viewBox="0 0 20 20" fill="none" xmlns="http://www.w3.org/2000/svg">
<path fill-rule="evenodd" clip-rule="evenodd" d="M2.38254 13.1551C2.2595 13.086 2.14083 13.0152 2.0264 12.9427C0.733206 12.1238 0 11.0923 0 9.99993C0 8.90757 0.733206 7.87605 2.0264 7.05713C2.14083 6.98467 2.2595 6.91399 2.38254 6.84467C2.34454 6.70891 2.31063 6.57479 2.28096 6.44273C1.94546 4.94924 2.15642 3.7013 2.92886 2.92886C3.7013 2.15642 4.94924 1.94546 6.44273 2.28096C6.57479 2.31063 6.70891 2.34454 6.84467 2.38254C6.91399 2.2595 6.98467 2.14083 7.05713 2.02654C7.87605 0.733206 8.90757 0 9.99993 0C11.0923 0 12.1238 0.733206 12.9427 2.02654C13.0152 2.14083 13.086 2.2595 13.1551 2.38254C13.2911 2.34454 13.4251 2.31063 13.5571 2.28096C15.0508 1.94546 16.2986 2.15655 17.071 2.92886C17.8434 3.7013 18.0543 4.94924 17.7189 6.44273C17.6892 6.57479 17.6553 6.70891 17.6172 6.84467C17.7402 6.91399 17.859 6.98467 17.9733 7.05713C19.2667 7.87605 20 8.90757 20 9.99993C20 11.0923 19.2667 12.1238 17.9733 12.9427C17.859 13.0152 17.7402 13.086 17.6172 13.1551C17.6553 13.2911 17.6892 13.4251 17.7189 13.5571C18.0543 15.0508 17.8434 16.2986 17.071 17.071C16.2986 17.8434 15.0508 18.0543 13.5571 17.7189C13.4251 17.6892 13.2911 17.6553 13.1551 17.6172C13.086 17.7402 13.0152 17.859 12.9427 17.9733C12.1238 19.2667 11.0923 20 9.99993 20C8.90757 20 7.87605 19.2667 7.05713 17.9733C6.98467 17.859 6.91399 17.7402 6.84467 17.6172C6.70891 17.6553 6.57479 17.6892 6.44273 17.7189C4.94924 18.0543 3.7013 17.8434 2.92886 17.071C2.15642 16.2986 1.94546 15.0508 2.28096 13.5571C2.31063 13.4251 2.34454 13.2911 2.38254 13.1551ZM2.60512 7.53139C2.53662 7.57159 2.46977 7.61247 2.40428 7.65389C1.35608 8.31765 0.706273 9.11456 0.706273 9.99993C0.706273 10.8853 1.35608 11.6822 2.40428 12.3461C2.46977 12.3874 2.53662 12.4283 2.60512 12.4686C2.89318 11.6811 3.30784 10.8469 3.83734 9.99993C3.30784 9.15298 2.89318 8.31874 2.60512 7.53139ZM6.51655 3.02538C6.43972 3.00542 6.36343 2.9871 6.28796 2.97015C5.07735 2.69822 4.05444 2.80226 3.42828 3.42828C2.80226 4.05444 2.69822 5.07735 2.97015 6.28796C2.9871 6.36343 3.00542 6.43972 3.02538 6.51655C3.78593 6.16342 4.66898 5.86674 5.64226 5.64226C5.86674 4.66898 6.16342 3.78593 6.51655 3.02538ZM12.4686 2.60512C12.4283 2.53662 12.3874 2.46977 12.3461 2.40428C11.6822 1.35608 10.8853 0.706273 9.99993 0.706273C9.11456 0.706273 8.31765 1.35608 7.65389 2.40428C7.61247 2.46977 7.57159 2.53662 7.53139 2.60512C8.31874 2.89318 9.15298 3.30784 9.99993 3.83734C10.8469 3.30784 11.6811 2.89318 12.4686 2.60512ZM16.9745 6.51655C16.9944 6.43972 17.0129 6.36343 17.0299 6.28796C17.3016 5.07735 17.1976 4.05444 16.5716 3.42828C15.9456 2.80226 14.9225 2.69822 13.7119 2.97015C13.6364 2.9871 13.5601 3.00542 13.4833 3.02538C13.8364 3.78593 14.1331 4.66898 14.3576 5.64226C15.3309 5.86674 16.2139 6.16342 16.9745 6.51655ZM17.3947 12.4686C17.4632 12.4283 17.5302 12.3874 17.5956 12.3461C18.6438 11.6822 19.2936 10.8853 19.2936 9.99993C19.2936 9.11456 18.6438 8.31765 17.5956 7.65389C17.5302 7.61247 17.4632 7.57159 17.3947 7.53139C17.1067 8.31874 16.6922 9.15298 16.1627 9.99993C16.6922 10.8469 17.1067 11.6811 17.3947 12.4686ZM13.4833 16.9745C13.5601 16.9944 13.6364 17.0129 13.7119 17.0299C14.9225 17.3016 15.9456 17.1977 16.5716 16.5716C17.1977 15.9456 17.3016 14.9225 17.0299 13.7119C17.0129 13.6364 16.9944 13.5601 16.9745 13.4833C16.2139 13.8364 15.3309 14.1331 14.3576 14.3576C14.1331 15.3309 13.8364 16.2139 13.4833 16.9745ZM7.53139 17.3947C7.57159 17.4632 7.61247 17.5301 7.65389 17.5956C8.31765 18.6438 9.11456 19.2936 9.99993 19.2936C10.8853 19.2936 11.6822 18.6438 12.3461 17.5956C12.3874 17.5301 12.4283 17.4632 12.4686 17.3947C11.6811 17.1067 10.8469 16.6922 9.99993 16.1627C9.15298 16.6922 8.31874 17.1067 7.53139 17.3947ZM3.02538 13.4833C3.00542 13.5601 2.9871 13.6364 2.97015 13.7119C2.69822 14.9225 2.80226 15.9456 3.42828 16.5716C4.05444 17.1977 5.07735 17.3016 6.28796 17.0299C6.36343 17.0129 6.43972 16.9944 6.51655 16.9745C6.16342 16.2139 5.86674 15.3309 5.64226 14.3576C4.66898 14.1331 3.78593 13.8364 3.02538 13.4833ZM5.4849 6.40417C4.64984 6.61512 3.89134 6.88309 3.23442 7.19753C3.47668 7.88453 3.82339 8.61022 4.26471 9.34985C4.56726 8.91154 4.89948 8.47213 5.25973 8.03656C5.31304 7.47356 5.38892 6.92807 5.4849 6.40417ZM4.26471 10.65C3.82339 11.3896 3.47668 12.1153 3.23442 12.8023C3.89134 13.1168 4.64984 13.3847 5.4849 13.5957C5.38892 13.0718 5.31304 12.5263 5.25973 11.9634C4.89948 11.5276 4.56726 11.0883 4.26471 10.65ZM9.34985 4.26471C8.61022 3.82339 7.88453 3.47668 7.19753 3.23442C6.88309 3.89134 6.61512 4.64984 6.40417 5.4849C6.92807 5.38892 7.47356 5.31304 8.03656 5.25973C8.47213 4.89948 8.91154 4.56726 9.34985 4.26471ZM13.5957 5.4849C13.3847 4.64984 13.1168 3.89134 12.8023 3.23442C12.1153 3.47668 11.3896 3.82339 10.65 4.26471C11.0883 4.56726 11.5276 4.89948 11.9634 5.25973C12.5263 5.31304 13.0718 5.38892 13.5957 5.4849ZM15.7352 9.34985C16.1765 8.61022 16.5233 7.88453 16.7654 7.19753C16.1084 6.88309 15.3502 6.61512 14.515 6.40417C14.6111 6.92807 14.6868 7.47356 14.7403 8.03656C15.1005 8.47213 15.4326 8.91154 15.7352 9.34985ZM14.515 13.5957C15.3502 13.3847 16.1084 13.1168 16.7654 12.8023C16.5233 12.1153 16.1765 11.3896 15.7352 10.65C15.4326 11.0883 15.1005 11.5276 14.7403 11.9634C14.6868 12.5263 14.6111 13.0718 14.515 13.5957ZM10.65 15.7352C11.3896 16.1765 12.1153 16.5233 12.8023 16.7654C13.1168 16.1084 13.3847 15.3502 13.5957 14.515C13.0718 14.6111 12.5263 14.6868 11.9634 14.7403C11.5276 15.1005 11.0883 15.4326 10.65 15.7352ZM6.40417 14.515C6.61512 15.3502 6.88309 16.1084 7.19753 16.7654C7.88453 16.5233 8.61022 16.1765 9.34985 15.7352C8.91154 15.4326 8.47213 15.1005 8.03656 14.7403C7.47356 14.6868 6.92807 14.6111 6.40417 14.515ZM5.18002 9.28108C5.00243 9.52088 4.83386 9.76068 4.67486 9.99993C4.83386 10.2392 5.00243 10.4791 5.18002 10.7188C5.17195 10.4814 5.16799 10.2416 5.16799 9.99993C5.16799 9.75822 5.17195 9.51856 5.18002 9.28108ZM6.23451 6.23451C6.17791 6.51614 6.12732 6.80502 6.08344 7.10006C6.24558 6.92656 6.41224 6.75416 6.58313 6.58313C6.75416 6.41224 6.92656 6.24558 7.10006 6.08344C6.80502 6.12732 6.51614 6.17791 6.23451 6.23451ZM6.08344 12.8998C6.12732 13.195 6.17791 13.4837 6.23451 13.7654C6.51614 13.8221 6.80502 13.8725 7.10006 13.9164C6.92656 13.7543 6.75416 13.5876 6.58313 13.4167C6.41224 13.2458 6.24558 13.0734 6.08344 12.8998ZM9.99993 4.67486C9.76068 4.83386 9.52088 5.00243 9.28108 5.18002C9.51856 5.17195 9.75822 5.16799 9.99993 5.16799C10.2416 5.16799 10.4814 5.17195 10.7188 5.18002C10.4791 5.00243 10.2392 4.83386 9.99993 4.67486ZM13.7654 6.23451C13.4837 6.17791 13.195 6.12732 12.8998 6.08344C13.0734 6.24558 13.2458 6.41224 13.4167 6.58313C13.5876 6.75416 13.7543 6.92656 13.9164 7.10006C13.8725 6.80502 13.8221 6.51614 13.7654 6.23451ZM15.325 9.99993C15.166 9.76068 14.9974 9.52088 14.8198 9.28108C14.8279 9.51856 14.832 9.75822 14.832 9.99993C14.832 10.2416 14.8279 10.4814 14.8198 10.7188C14.9974 10.4791 15.166 10.2392 15.325 9.99993ZM13.7654 13.7654C13.8221 13.4837 13.8725 13.195 13.9164 12.8998C13.7543 13.0734 13.5876 13.2458 13.4167 13.4167C13.2458 13.5876 13.0734 13.7543 12.8998 13.9164C13.195 13.8725 13.4837 13.8221 13.7654 13.7654ZM9.99993 15.325C10.2392 15.166 10.4791 14.9974 10.7188 14.8198C10.4814 14.8279 10.2416 14.832 9.99993 14.832C9.75822 14.832 9.51856 14.8279 9.28108 14.8198C9.52088 14.9974 9.76068 15.166 9.99993 15.325ZM8.47719 10.7107L7.94947 12.0051L7.31142 11.745L8.84838 7.97504H9.48643L11.0234 11.745L10.3853 12.0051L9.85747 10.7107H8.47719ZM9.57666 10.0215L9.16733 9.01763L8.75814 10.0215H9.57666ZM11.378 7.91898H12.0671V11.9362H11.378V7.91898Z" fill="url(#paint0_linear_605_5100)"/>
<defs>
<linearGradient id="paint0_linear_605_5100" x1="10" y1="0" x2="10" y2="20" gradientUnits="userSpaceOnUse">
<stop stop-color="#1024DD"/>
<stop offset="1" stop-color="#A300CC"/>
</linearGradient>
</defs>
</svg>
