<svg xmlns="http://www.w3.org/2000/svg" xmlns:xlink="http://www.w3.org/1999/xlink" width="1080" zoomAndPan="magnify" viewBox="0 0 810 809.999993" height="1080" preserveAspectRatio="xMidYMid meet" version="1.2"><defs><clipPath id="e930d2056e"><path d="M 155.875 155.875 L 653.875 155.875 L 653.875 343 L 155.875 343 Z M 155.875 155.875 "/></clipPath><clipPath id="8c46f17ee7"><path d="M 467 529 L 592 529 L 592 653.875 L 467 653.875 Z M 467 529 "/></clipPath></defs><g id="a5db09fefb"><g clip-rule="nonzero" clip-path="url(#e930d2056e)"><path style=" stroke:none;fill-rule:nonzero;fill:#ffffff;fill-opacity:1;" d="M 653.875 259.625 L 404.875 155.875 L 155.875 259.625 L 259.625 302.867188 L 259.625 342.625 L 550.121094 342.625 L 550.121094 302.867188 Z M 653.875 259.625 "/></g><g clip-rule="nonzero" clip-path="url(#8c46f17ee7)"><path style=" stroke:none;fill-rule:nonzero;fill:#ffffff;fill-opacity:1;" d="M 591.625 570.875 L 550.121094 570.875 L 550.121094 529.375 L 508.625 529.375 L 508.625 570.875 L 467.125 570.875 L 467.125 612.371094 L 508.625 612.371094 L 508.625 653.875 L 550.121094 653.875 L 550.121094 612.371094 L 591.625 612.371094 Z M 591.625 570.875 "/></g><path style=" stroke:none;fill-rule:nonzero;fill:black;fill-opacity:1;" d="M 508.625 487.871094 C 462.792969 487.871094 425.621094 525.042969 425.621094 570.875 L 404.875 570.875 C 324.660156 570.875 259.625 505.832031 259.625 425.621094 L 259.625 384.121094 L 550.128906 384.121094 L 550.128906 487.871094 Z M 508.625 487.871094 "/></g></svg>