<svg width="16" height="20" viewBox="0 0 16 20" fill="none" xmlns="http://www.w3.org/2000/svg">
<path
        d="M7.99976 16V13M7.99976 13V10M7.99976 13H4.99976M7.99976 13H10.9998M8.99976 1.00087C8.90426 1 8.79704 1 8.67447 1H4.19995C3.07985 1 2.51938 1 2.09155 1.21799C1.71523 1.40973 1.40949 1.71547 1.21774 2.0918C0.999756 2.51962 0.999756 3.08009 0.999756 4.2002V15.8002C0.999756 16.9203 0.999756 17.4801 1.21774 17.9079C1.40949 18.2842 1.71523 18.5905 2.09155 18.7822C2.51896 19 3.07876 19 4.1967 19L11.8028 19C12.9208 19 13.4797 19 13.9072 18.7822C14.2835 18.5905 14.5902 18.2842 14.782 17.9079C14.9998 17.4805 14.9998 16.9215 14.9998 15.8036V7.32568C14.9998 7.20296 14.9997 7.09561 14.9988 7M8.99976 1.00087C9.28539 1.00347 9.46609 1.01385 9.6386 1.05526C9.84267 1.10425 10.0376 1.18526 10.2166 1.29492C10.4183 1.41857 10.5916 1.59182 10.9373 1.9375L14.0627 5.06298C14.4086 5.40889 14.5806 5.58136 14.7043 5.78319C14.814 5.96214 14.8951 6.15726 14.9441 6.36133C14.9855 6.53376 14.9961 6.71451 14.9988 7M8.99976 1.00087V3.8C8.99976 4.9201 8.99976 5.47977 9.21774 5.90759C9.40949 6.28392 9.71523 6.59048 10.0916 6.78223C10.519 7 11.0788 7 12.1967 7H14.9988M14.9988 7H15"
        stroke="var(--svg-new-col)" stroke-width="1.6" stroke-linecap="round"
        stroke-linejoin="round" />
</svg>
