<svg width="30" height="30" viewBox="0 0 30 30" fill="none" xmlns="http://www.w3.org/2000/svg">
<path fill-rule="evenodd" clip-rule="evenodd" d="M3.57382 19.7326C3.38925 19.629 3.21125 19.5228 3.0396 19.4141C1.09981 18.1857 0 16.6384 0 14.9999C0 13.3614 1.09981 11.8141 3.0396 10.5857C3.21125 10.477 3.38925 10.371 3.57382 10.267C3.51681 10.0634 3.46595 9.86219 3.42145 9.66409C2.9182 7.42387 3.23462 5.55195 4.39329 4.39329C5.55195 3.23462 7.42387 2.9182 9.66409 3.42145C9.86219 3.46595 10.0634 3.51681 10.267 3.57382C10.371 3.38925 10.477 3.21125 10.5857 3.0398C11.8141 1.09981 13.3614 0 14.9999 0C16.6384 0 18.1857 1.09981 19.4141 3.0398C19.5228 3.21125 19.629 3.38925 19.7326 3.57382C19.9366 3.51681 20.1376 3.46595 20.3357 3.42145C22.5761 2.9182 24.4478 3.23483 25.6065 4.39329C26.7652 5.55195 27.0814 7.42387 26.5783 9.66409C26.5338 9.86219 26.483 10.0634 26.4258 10.267C26.6103 10.371 26.7885 10.477 26.96 10.5857C28.9 11.8141 30 13.3614 30 14.9999C30 16.6384 28.9 18.1857 26.96 19.4141C26.7885 19.5228 26.6103 19.629 26.4258 19.7326C26.483 19.9366 26.5338 20.1376 26.5783 20.3357C27.0814 22.5761 26.7652 24.4478 25.6065 25.6065C24.4478 26.7652 22.5761 27.0814 20.3357 26.5783C20.1376 26.5338 19.9366 26.483 19.7326 26.4258C19.629 26.6103 19.5228 26.7885 19.4141 26.96C18.1857 28.9 16.6384 30 14.9999 30C13.3614 30 11.8141 28.9 10.5857 26.96C10.477 26.7885 10.371 26.6103 10.267 26.4258C10.0634 26.483 9.86219 26.5338 9.66409 26.5783C7.42387 27.0814 5.55195 26.7652 4.39329 25.6065C3.23462 24.4478 2.9182 22.5761 3.42145 20.3357C3.46595 20.1376 3.51681 19.9366 3.57382 19.7326ZM3.90768 11.2971C3.80493 11.3574 3.70465 11.4187 3.60642 11.4808C2.03412 12.4765 1.05941 13.6718 1.05941 14.9999C1.05941 16.328 2.03412 17.5233 3.60642 18.5192C3.70465 18.5811 3.80493 18.6424 3.90768 18.7029C4.33977 17.5217 4.96175 16.2703 5.756 14.9999C4.96175 13.7295 4.33977 12.4781 3.90768 11.2971ZM9.77483 4.53807C9.65958 4.50813 9.54515 4.48065 9.43195 4.45522C7.61602 4.04733 6.08166 4.20339 5.14242 5.14242C4.20339 6.08166 4.04733 7.61602 4.45522 9.43195C4.48065 9.54515 4.50813 9.65958 4.53807 9.77483C5.6789 9.24512 7.00347 8.80011 8.46338 8.46338C8.80011 7.00347 9.24512 5.6789 9.77483 4.53807ZM18.7029 3.90768C18.6424 3.80493 18.5811 3.70465 18.5192 3.60642C17.5233 2.03412 16.328 1.05941 14.9999 1.05941C13.6718 1.05941 12.4765 2.03412 11.4808 3.60642C11.4187 3.70465 11.3574 3.80493 11.2971 3.90768C12.4781 4.33977 13.7295 4.96175 14.9999 5.756C16.2703 4.96175 17.5217 4.33977 18.7029 3.90768ZM25.4617 9.77483C25.4917 9.65958 25.5193 9.54515 25.5448 9.43195C25.9525 7.61602 25.7964 6.08166 24.8574 5.14242C23.9183 4.20339 22.3838 4.04733 20.5678 4.45522C20.4546 4.48065 20.3402 4.50813 20.225 4.53807C20.7547 5.6789 21.1997 7.00347 21.5364 8.46338C22.9963 8.80011 24.3209 9.24512 25.4617 9.77483ZM26.0921 18.7029C26.1949 18.6424 26.2953 18.5811 26.3934 18.5192C27.9657 17.5233 28.9404 16.328 28.9404 14.9999C28.9404 13.6718 27.9657 12.4765 26.3934 11.4808C26.2953 11.4187 26.1949 11.3574 26.0921 11.2971C25.66 12.4781 25.0382 13.7295 24.244 14.9999C25.0382 16.2703 25.66 17.5217 26.0921 18.7029ZM20.225 25.4617C20.3402 25.4917 20.4546 25.5193 20.5678 25.5448C22.3838 25.9525 23.9183 25.7966 24.8574 24.8574C25.7966 23.9183 25.9525 22.3838 25.5448 20.5678C25.5193 20.4546 25.4917 20.3402 25.4617 20.225C24.3209 20.7547 22.9963 21.1997 21.5364 21.5364C21.1997 22.9963 20.7547 24.3209 20.225 25.4617ZM11.2971 26.0921C11.3574 26.1949 11.4187 26.2951 11.4808 26.3934C12.4765 27.9657 13.6718 28.9404 14.9999 28.9404C16.328 28.9404 17.5233 27.9657 18.5192 26.3934C18.5811 26.2951 18.6424 26.1949 18.7029 26.0921C17.5217 25.66 16.2703 25.0382 14.9999 24.244C13.7295 25.0382 12.4781 25.66 11.2971 26.0921ZM4.53807 20.225C4.50813 20.3402 4.48065 20.4546 4.45522 20.5678C4.04733 22.3838 4.20339 23.9183 5.14242 24.8574C6.08166 25.7966 7.61602 25.9525 9.43195 25.5448C9.54515 25.5193 9.65958 25.4917 9.77483 25.4617C9.24512 24.3209 8.80011 22.9963 8.46338 21.5364C7.00347 21.1997 5.6789 20.7547 4.53807 20.225ZM8.22734 9.60626C6.97476 9.92269 5.83701 10.3246 4.85163 10.7963C5.21502 11.8268 5.73509 12.9153 6.39706 14.0248C6.85089 13.3673 7.34922 12.7082 7.88959 12.0548C7.96957 11.2103 8.08338 10.3921 8.22734 9.60626ZM6.39706 15.975C5.73509 17.0845 5.21502 18.173 4.85163 19.2035C5.83701 19.6752 6.97476 20.0771 8.22734 20.3935C8.08338 19.6077 7.96957 18.7895 7.88959 17.9452C7.34922 17.2914 6.85089 16.6325 6.39706 15.975ZM14.0248 6.39706C12.9153 5.73509 11.8268 5.21502 10.7963 4.85163C10.3246 5.83701 9.92269 6.97476 9.60626 8.22734C10.3921 8.08338 11.2103 7.96957 12.0548 7.88959C12.7082 7.34922 13.3673 6.85089 14.0248 6.39706ZM20.3935 8.22734C20.0771 6.97476 19.6752 5.83701 19.2035 4.85163C18.173 5.21502 17.0845 5.73509 15.975 6.39706C16.6325 6.85089 17.2914 7.34922 17.9452 7.88959C18.7895 7.96957 19.6077 8.08338 20.3935 8.22734ZM23.6027 14.0248C24.2647 12.9153 24.785 11.8268 25.1482 10.7963C24.1626 10.3246 23.0252 9.92269 21.7724 9.60626C21.9166 10.3921 22.0302 11.2103 22.1104 12.0548C22.6508 12.7082 23.1489 13.3673 23.6027 14.0248ZM21.7724 20.3935C23.0252 20.0771 24.1626 19.6752 25.1482 19.2035C24.785 18.173 24.2647 17.0845 23.6027 15.975C23.1489 16.6325 22.6508 17.2914 22.1104 17.9452C22.0302 18.7895 21.9166 19.6077 21.7724 20.3935ZM15.975 23.6027C17.0845 24.2647 18.173 24.785 19.2035 25.1482C19.6752 24.1626 20.0771 23.0252 20.3935 21.7724C19.6077 21.9166 18.7895 22.0302 17.9452 22.1104C17.2914 22.6508 16.6325 23.1489 15.975 23.6027ZM9.60626 21.7724C9.92269 23.0252 10.3246 24.1626 10.7963 25.1482C11.8268 24.785 12.9153 24.2647 14.0248 23.6027C13.3673 23.1489 12.7082 22.6508 12.0548 22.1104C11.2103 22.0302 10.3921 21.9166 9.60626 21.7724ZM7.77003 13.9216C7.50364 14.2813 7.25078 14.641 7.01228 14.9999C7.25078 15.3588 7.50364 15.7187 7.77003 16.0782C7.75793 15.7222 7.75198 15.3625 7.75198 14.9999C7.75198 14.6373 7.75793 14.2778 7.77003 13.9216ZM9.35176 9.35176C9.26686 9.77421 9.19098 10.2075 9.12516 10.6501C9.36837 10.3898 9.61836 10.1312 9.8747 9.8747C10.1312 9.61836 10.3898 9.36837 10.6501 9.12516C10.2075 9.19098 9.77421 9.26686 9.35176 9.35176ZM9.12516 19.3497C9.19098 19.7925 9.26686 20.2256 9.35176 20.648C9.77421 20.7331 10.2075 20.8088 10.6501 20.8746C10.3898 20.6314 10.1312 20.3814 9.8747 20.1251C9.61836 19.8688 9.36837 19.6102 9.12516 19.3497ZM14.9999 7.01228C14.641 7.25078 14.2813 7.50364 13.9216 7.77003C14.2778 7.75793 14.6373 7.75198 14.9999 7.75198C15.3625 7.75198 15.7222 7.75793 16.0782 7.77003C15.7187 7.50364 15.3588 7.25078 14.9999 7.01228ZM20.648 9.35176C20.2256 9.26686 19.7925 9.19098 19.3497 9.12516C19.6102 9.36837 19.8688 9.61836 20.1251 9.8747C20.3814 10.1312 20.6314 10.3898 20.8746 10.6501C20.8088 10.2075 20.7331 9.77421 20.648 9.35176ZM22.9875 14.9999C22.749 14.641 22.4962 14.2813 22.2298 13.9216C22.2419 14.2778 22.248 14.6373 22.248 14.9999C22.248 15.3625 22.2419 15.7222 22.2298 16.0782C22.4962 15.7187 22.749 15.3588 22.9875 14.9999ZM20.648 20.648C20.7331 20.2256 20.8088 19.7925 20.8746 19.3497C20.6314 19.6102 20.3814 19.8688 20.1251 20.1251C19.8688 20.3814 19.6102 20.6314 19.3497 20.8746C19.7925 20.8088 20.2256 20.7331 20.648 20.648ZM14.9999 22.9875C15.3588 22.749 15.7187 22.4962 16.0782 22.2298C15.7222 22.2419 15.3625 22.248 14.9999 22.248C14.6373 22.248 14.2778 22.2419 13.9216 22.2298C14.2813 22.4962 14.641 22.749 14.9999 22.9875ZM12.7158 16.0661L11.9242 18.0077L10.9671 17.6175L13.2726 11.9626H14.2296L16.5351 17.6175L15.578 18.0077L14.7862 16.0661H12.7158ZM14.365 15.0323L13.751 13.5264L13.1372 15.0323H14.365ZM17.067 11.8785H18.1006V17.9044H17.067V11.8785Z" fill="url(#paint0_linear_469_1815)"/>
<defs>
<linearGradient id="paint0_linear_469_1815" x1="15" y1="0" x2="15" y2="30" gradientUnits="userSpaceOnUse">
<stop stop-color="#216ED7"/>
<stop offset="1" stop-color="#A300CC"/>
</linearGradient>
</defs>
</svg>
