<svg width="21" height="18" viewBox="0 0 21 18" fill="none" xmlns="http://www.w3.org/2000/svg">
<path d="M10.4238 6.00006V10.0001M2.80273 12.1999C1.8933 13.775 1.43871 14.5629 1.50664 15.2092C1.56589 15.7729 1.86175 16.2851 2.32031 16.6182C2.84586 17.0001 3.75473 17.0001 5.57236 17.0001H15.2753C17.0929 17.0001 18.0017 17.0001 18.5272 16.6182C18.9858 16.2851 19.2818 15.7729 19.341 15.2092C19.4089 14.5629 18.9545 13.775 18.0451 12.1999L13.1953 3.79986C12.2859 2.22468 11.831 1.43722 11.2373 1.17291C10.7195 0.942364 10.1278 0.942364 9.61002 1.17291C9.01661 1.43711 8.56197 2.22458 7.65329 3.79845L2.80273 12.1999ZM10.4746 13.0001V13.1001L10.374 13.1003V13.0001H10.4746Z" stroke="#DC7900" stroke-width="2" stroke-linecap="round" stroke-linejoin="round"/>
</svg>
