<svg width="42" height="23" viewBox="0 0 42 23" fill="none" xmlns="http://www.w3.org/2000/svg">
<rect x="0.5" y="0.5" width="41" height="22" rx="3.5" fill="white"/>
<rect x="0.5" y="0.5" width="41" height="22" rx="3.5" stroke="#F5F5F5"/>
<path fill-rule="evenodd" clip-rule="evenodd" d="M11.8394 7.0471C11.501 7.45243 10.9596 7.77212 10.4182 7.72645C10.3505 7.1784 10.6156 6.5961 10.9258 6.23644C11.2641 5.8197 11.8563 5.52284 12.3357 5.5C12.3921 6.07089 12.1721 6.63035 11.8394 7.0471ZM12.3301 7.83481C11.8531 7.80703 11.4179 7.98002 11.0663 8.11975C10.8401 8.20967 10.6485 8.28581 10.5028 8.28581C10.3392 8.28581 10.1398 8.2056 9.9158 8.11553C9.62233 7.99752 9.28681 7.86259 8.93497 7.86907C8.12849 7.88049 7.37841 8.3429 6.96671 9.07934C6.12076 10.5522 6.74677 12.733 7.56452 13.9319C7.96494 14.5256 8.44431 15.1764 9.07596 15.1536C9.35385 15.1429 9.55374 15.0571 9.76061 14.9682C9.99878 14.8659 10.2462 14.7596 10.6325 14.7596C11.0054 14.7596 11.242 14.8632 11.4692 14.9625C11.6851 15.057 11.8925 15.1477 12.2004 15.1421C12.8546 15.1307 13.2663 14.5484 13.6667 13.9547C14.0988 13.3175 14.2887 12.6956 14.3175 12.6012L14.3209 12.5903C14.3202 12.5896 14.3148 12.5871 14.3054 12.5827C14.161 12.5158 13.0569 12.0042 13.0463 10.6321C13.0357 9.48055 13.922 8.89707 14.0616 8.80522L14.0616 8.80522C14.0701 8.79963 14.0758 8.79587 14.0784 8.7939C13.5144 7.94899 12.6346 7.85765 12.3301 7.83481ZM16.8587 15.0794V6.1793H20.1579C21.8611 6.1793 23.0511 7.36674 23.0511 9.10223C23.0511 10.8377 21.8386 12.0366 20.1128 12.0366H18.2235V15.0794H16.8587ZM18.2235 7.34401H19.797C20.9814 7.34401 21.6581 7.9834 21.6581 9.10804C21.6581 10.2327 20.9814 10.8778 19.7914 10.8778H18.2235V7.34401ZM27.5572 14.0119C27.1963 14.7084 26.4011 15.148 25.5438 15.148C24.2749 15.148 23.3895 14.383 23.3895 13.2298C23.3895 12.088 24.2467 11.4315 25.8315 11.3344L27.5347 11.2317V10.7407C27.5347 10.0157 27.0666 9.62179 26.2319 9.62179C25.5438 9.62179 25.0419 9.98145 24.9404 10.5295H23.7109C23.7504 9.37631 24.822 8.53711 26.2714 8.53711C27.8336 8.53711 28.8487 9.36489 28.8487 10.6494V15.0794H27.5854V14.0119H27.5572ZM25.9105 14.0917C25.1829 14.0917 24.7205 13.7378 24.7205 13.1954C24.7205 12.6359 25.166 12.3105 26.0176 12.2592L27.5347 12.1621V12.6645C27.5347 13.498 26.8354 14.0917 25.9105 14.0917ZM33.039 15.4278C32.492 16.9863 31.8659 17.5001 30.535 17.5001C30.4335 17.5001 30.0951 17.4887 30.0161 17.4658V16.3983C30.1007 16.4097 30.3094 16.4211 30.4165 16.4211C31.02 16.4211 31.3584 16.1642 31.567 15.4963L31.6911 15.1024L29.3788 8.62283H30.8057L32.413 13.8807H32.4412L34.0485 8.62283H35.4359L33.039 15.4278Z" fill="black"/>
</svg>
