<svg width="1598" height="291" viewBox="0 0 1598 291" fill="none" xmlns="http://www.w3.org/2000/svg">
<rect width="1598" height="291" rx="15" fill="#216ED7"/>
<mask id="mask0_364_2323" style="mask-type:alpha" maskUnits="userSpaceOnUse" x="0" y="0" width="1598" height="291">
<rect width="1598" height="291" rx="15" fill="#4FD1C5"/>
</mask>
<g mask="url(#mask0_364_2323)">
<path d="M1313.47 157.466C1312.02 157.466 1310.79 157.386 1309.79 157.226C1308.8 157.066 1308 156.806 1307.39 156.446C1306.78 156.072 1306.33 155.592 1306.05 155.006C1305.78 154.419 1305.65 153.692 1305.65 152.826C1305.65 152.292 1305.72 151.706 1305.85 151.066C1306 150.426 1306.2 149.792 1306.45 149.166L1308.37 149.726C1308.14 150.179 1307.96 150.619 1307.83 151.046C1307.71 151.459 1307.65 151.832 1307.65 152.166C1307.65 152.552 1307.73 152.879 1307.89 153.146C1308.05 153.399 1308.31 153.606 1308.67 153.766C1309.03 153.926 1309.5 154.046 1310.09 154.126C1310.68 154.192 1311.4 154.226 1312.27 154.226H1315.07C1315.95 154.226 1316.69 154.206 1317.29 154.166C1317.89 154.126 1318.37 154.059 1318.73 153.966C1319.1 153.859 1319.37 153.732 1319.53 153.586C1319.7 153.426 1319.79 153.232 1319.79 153.006C1319.79 152.806 1319.77 152.552 1319.73 152.246C1319.7 151.926 1319.64 151.512 1319.55 151.006L1319.21 149.146L1321.39 148.786L1321.69 150.646C1321.76 151.006 1321.81 151.406 1321.85 151.846C1321.89 152.286 1321.91 152.672 1321.91 153.006C1321.91 153.899 1321.78 154.632 1321.53 155.206C1321.29 155.779 1320.85 156.232 1320.21 156.566C1319.58 156.899 1318.72 157.132 1317.63 157.266C1316.55 157.399 1315.16 157.466 1313.47 157.466ZM1315.03 149.966C1314.68 149.966 1314.4 149.859 1314.17 149.646C1313.96 149.432 1313.85 149.092 1313.85 148.626C1313.85 148.159 1313.96 147.819 1314.17 147.606C1314.4 147.392 1314.68 147.286 1315.03 147.286H1315.43C1315.78 147.286 1316.06 147.392 1316.27 147.606C1316.5 147.819 1316.61 148.159 1316.61 148.626C1316.61 149.092 1316.5 149.432 1316.27 149.646C1316.06 149.859 1315.78 149.966 1315.43 149.966H1315.03ZM1311.87 149.966C1311.52 149.966 1311.24 149.859 1311.01 149.646C1310.8 149.432 1310.69 149.092 1310.69 148.626C1310.69 148.159 1310.8 147.819 1311.01 147.606C1311.24 147.392 1311.52 147.286 1311.87 147.286H1312.27C1312.62 147.286 1312.9 147.392 1313.11 147.606C1313.34 147.819 1313.45 148.159 1313.45 148.626C1313.45 149.092 1313.34 149.432 1313.11 149.646C1312.9 149.859 1312.62 149.966 1312.27 149.966H1311.87ZM1327.69 157.226C1326.34 157.226 1325.34 156.906 1324.69 156.266C1324.03 155.626 1323.71 154.586 1323.71 153.146V142.426H1326.11V152.746C1326.11 153.346 1326.23 153.746 1326.47 153.946C1326.71 154.132 1327.12 154.226 1327.71 154.226H1328.31V156.626L1327.71 157.226H1327.69ZM1327.71 154.826L1328.31 154.226H1328.91C1329.98 154.226 1330.51 153.759 1330.51 152.826V149.966H1332.71V152.826C1332.71 153.759 1333.18 154.226 1334.11 154.226H1334.91V156.626L1334.31 157.226C1333.24 157.226 1332.43 157.012 1331.87 156.586C1331.32 156.146 1330.96 155.459 1330.77 154.526H1330.65C1330.46 155.459 1330.14 156.146 1329.69 156.586C1329.24 157.012 1328.58 157.226 1327.71 157.226V154.826ZM1332.99 161.526C1332.64 161.526 1332.36 161.419 1332.13 161.206C1331.92 160.992 1331.81 160.652 1331.81 160.186C1331.81 159.719 1331.92 159.379 1332.13 159.166C1332.36 158.952 1332.64 158.846 1332.99 158.846H1333.39C1333.74 158.846 1334.02 158.952 1334.23 159.166C1334.46 159.379 1334.57 159.719 1334.57 160.186C1334.57 160.652 1334.46 160.992 1334.23 161.206C1334.02 161.419 1333.74 161.526 1333.39 161.526H1332.99ZM1329.83 161.526C1329.48 161.526 1329.2 161.419 1328.97 161.206C1328.76 160.992 1328.65 160.652 1328.65 160.186C1328.65 159.719 1328.76 159.379 1328.97 159.166C1329.2 158.952 1329.48 158.846 1329.83 158.846H1330.23C1330.58 158.846 1330.86 158.952 1331.07 159.166C1331.3 159.379 1331.41 159.719 1331.41 160.186C1331.41 160.652 1331.3 160.992 1331.07 161.206C1330.86 161.419 1330.58 161.526 1330.23 161.526H1329.83ZM1334.31 154.826L1334.91 154.226H1335.51C1336.58 154.226 1337.11 153.759 1337.11 152.826V149.966H1339.31V152.826C1339.31 153.759 1339.78 154.226 1340.71 154.226H1341.51V156.626L1340.91 157.226C1339.84 157.226 1339.03 157.012 1338.47 156.586C1337.92 156.146 1337.56 155.459 1337.37 154.526H1337.25C1337.06 155.459 1336.74 156.146 1336.29 156.586C1335.84 157.012 1335.18 157.226 1334.31 157.226V154.826ZM1338.01 148.366C1337.66 148.366 1337.38 148.259 1337.15 148.046C1336.94 147.832 1336.83 147.492 1336.83 147.026C1336.83 146.559 1336.94 146.219 1337.15 146.006C1337.38 145.792 1337.66 145.686 1338.01 145.686H1338.41C1338.76 145.686 1339.04 145.792 1339.25 146.006C1339.48 146.219 1339.59 146.559 1339.59 147.026C1339.59 147.492 1339.48 147.832 1339.25 148.046C1339.04 148.259 1338.76 148.366 1338.41 148.366H1338.01ZM1340.91 154.826L1341.51 154.226H1343.65L1343.69 154.126C1343.19 153.619 1342.83 153.086 1342.63 152.526C1342.45 151.952 1342.35 151.399 1342.35 150.866C1342.35 150.266 1342.45 149.706 1342.63 149.186C1342.82 148.652 1343.09 148.192 1343.43 147.806C1343.78 147.406 1344.19 147.092 1344.67 146.866C1345.17 146.639 1345.71 146.526 1346.29 146.526C1346.88 146.526 1347.41 146.639 1347.89 146.866C1348.39 147.092 1348.81 147.406 1349.15 147.806C1349.5 148.192 1349.77 148.652 1349.95 149.186C1350.14 149.706 1350.23 150.266 1350.23 150.866C1350.23 151.399 1350.13 151.952 1349.93 152.526C1349.75 153.086 1349.4 153.619 1348.89 154.126L1348.93 154.226H1351.15V156.626L1350.55 157.226H1350.35C1349.63 157.226 1348.93 157.132 1348.25 156.946C1347.57 156.759 1346.93 156.426 1346.31 155.946C1345.7 156.426 1345.05 156.759 1344.37 156.946C1343.69 157.132 1342.99 157.226 1342.27 157.226H1340.91V154.826ZM1346.29 153.966C1346.97 153.579 1347.49 153.179 1347.83 152.766C1348.18 152.339 1348.35 151.859 1348.35 151.326C1348.35 150.766 1348.17 150.326 1347.79 150.006C1347.42 149.686 1346.96 149.526 1346.41 149.526H1346.17C1345.63 149.526 1345.17 149.686 1344.79 150.006C1344.42 150.326 1344.23 150.766 1344.23 151.326C1344.23 151.859 1344.41 152.339 1344.75 152.766C1345.1 153.179 1345.61 153.579 1346.29 153.966ZM1347.67 144.926C1347.33 144.926 1347.04 144.819 1346.81 144.606C1346.6 144.392 1346.49 144.052 1346.49 143.586C1346.49 143.119 1346.6 142.779 1346.81 142.566C1347.04 142.352 1347.33 142.246 1347.67 142.246H1348.07C1348.42 142.246 1348.7 142.352 1348.91 142.566C1349.14 142.779 1349.25 143.119 1349.25 143.586C1349.25 144.052 1349.14 144.392 1348.91 144.606C1348.7 144.819 1348.42 144.926 1348.07 144.926H1347.67ZM1344.51 144.926C1344.17 144.926 1343.88 144.819 1343.65 144.606C1343.44 144.392 1343.33 144.052 1343.33 143.586C1343.33 143.119 1343.44 142.779 1343.65 142.566C1343.88 142.352 1344.17 142.246 1344.51 142.246H1344.91C1345.26 142.246 1345.54 142.352 1345.75 142.566C1345.98 142.779 1346.09 143.119 1346.09 143.586C1346.09 144.052 1345.98 144.392 1345.75 144.606C1345.54 144.819 1345.26 144.926 1344.91 144.926H1344.51ZM1350.56 154.826L1351.16 154.226H1351.76C1352.83 154.226 1353.36 153.759 1353.36 152.826V149.966H1355.56V152.826C1355.56 153.759 1356.03 154.226 1356.96 154.226H1357.76V156.626L1357.16 157.226C1356.09 157.226 1355.28 157.012 1354.72 156.586C1354.17 156.146 1353.81 155.459 1353.62 154.526H1353.5C1353.31 155.459 1352.99 156.146 1352.54 156.586C1352.09 157.012 1351.43 157.226 1350.56 157.226V154.826ZM1355.84 148.366C1355.49 148.366 1355.21 148.259 1354.98 148.046C1354.77 147.832 1354.66 147.492 1354.66 147.026C1354.66 146.559 1354.77 146.219 1354.98 146.006C1355.21 145.792 1355.49 145.686 1355.84 145.686H1356.24C1356.59 145.686 1356.87 145.792 1357.08 146.006C1357.31 146.219 1357.42 146.559 1357.42 147.026C1357.42 147.492 1357.31 147.832 1357.08 148.046C1356.87 148.259 1356.59 148.366 1356.24 148.366H1355.84ZM1352.68 148.366C1352.33 148.366 1352.05 148.259 1351.82 148.046C1351.61 147.832 1351.5 147.492 1351.5 147.026C1351.5 146.559 1351.61 146.219 1351.82 146.006C1352.05 145.792 1352.33 145.686 1352.68 145.686H1353.08C1353.43 145.686 1353.71 145.792 1353.92 146.006C1354.15 146.219 1354.26 146.559 1354.26 147.026C1354.26 147.492 1354.15 147.832 1353.92 148.046C1353.71 148.259 1353.43 148.366 1353.08 148.366H1352.68ZM1357.16 154.826L1357.76 154.226H1358.26C1359.33 154.226 1359.86 153.759 1359.86 152.826V142.426H1362.26V152.826C1362.26 153.759 1362.73 154.226 1363.66 154.226H1364.36V156.626L1363.76 157.226C1362.67 157.226 1361.84 157.012 1361.26 156.586C1360.69 156.146 1360.31 155.459 1360.12 154.526H1360C1359.83 155.459 1359.52 156.146 1359.08 156.586C1358.64 157.012 1358 157.226 1357.16 157.226V154.826ZM1363.76 154.826L1364.36 154.226H1365.24C1365.75 154.226 1366.08 154.132 1366.24 153.946C1366.42 153.746 1366.5 153.439 1366.5 153.026V142.426H1368.9V153.026C1368.9 154.452 1368.62 155.506 1368.06 156.186C1367.52 156.866 1366.58 157.212 1365.24 157.226H1363.76V154.826ZM1384.83 157.226C1383.62 157.212 1382.73 156.919 1382.17 156.346C1381.61 155.759 1381.33 154.959 1381.33 153.946V153.846H1381.21C1381.11 154.312 1380.98 154.706 1380.83 155.026C1380.7 155.346 1380.53 155.606 1380.31 155.806C1380.1 155.992 1379.85 156.132 1379.55 156.226C1379.26 156.306 1378.91 156.346 1378.51 156.346C1377.55 156.346 1376.83 156.092 1376.35 155.586C1375.87 155.066 1375.63 154.339 1375.63 153.406C1375.63 152.312 1375.93 151.426 1376.53 150.746C1377.15 150.052 1377.97 149.452 1378.99 148.946L1381.23 147.826V146.726H1383.63V153.146C1383.63 153.546 1383.72 153.826 1383.89 153.986C1384.08 154.146 1384.39 154.226 1384.83 154.226H1385.43V156.626L1384.83 157.226ZM1379.17 153.346C1379.95 153.346 1380.48 153.272 1380.77 153.126C1381.08 152.979 1381.23 152.712 1381.23 152.326V149.926L1379.75 150.626C1379.39 150.799 1379.08 150.952 1378.81 151.086C1378.56 151.219 1378.34 151.359 1378.15 151.506C1377.98 151.639 1377.85 151.779 1377.75 151.926C1377.67 152.072 1377.63 152.239 1377.63 152.426C1377.63 152.759 1377.74 152.999 1377.95 153.146C1378.18 153.279 1378.59 153.346 1379.17 153.346ZM1382.25 145.126C1381.91 145.126 1381.62 145.019 1381.39 144.806C1381.18 144.592 1381.07 144.252 1381.07 143.786C1381.07 143.319 1381.18 142.979 1381.39 142.766C1381.62 142.552 1381.91 142.446 1382.25 142.446H1382.65C1383 142.446 1383.28 142.552 1383.49 142.766C1383.72 142.979 1383.83 143.319 1383.83 143.786C1383.83 144.252 1383.72 144.592 1383.49 144.806C1383.28 145.019 1383 145.126 1382.65 145.126H1382.25ZM1379.09 145.126C1378.75 145.126 1378.46 145.019 1378.23 144.806C1378.02 144.592 1377.91 144.252 1377.91 143.786C1377.91 143.319 1378.02 142.979 1378.23 142.766C1378.46 142.552 1378.75 142.446 1379.09 142.446H1379.49C1379.84 142.446 1380.12 142.552 1380.33 142.766C1380.56 142.979 1380.67 143.319 1380.67 143.786C1380.67 144.252 1380.56 144.592 1380.33 144.806C1380.12 145.019 1379.84 145.126 1379.49 145.126H1379.09ZM1384.84 154.826L1385.44 154.226H1386.04C1387.1 154.226 1387.64 153.759 1387.64 152.826V149.966H1389.84V152.826C1389.84 153.759 1390.3 154.226 1391.24 154.226H1392.04V156.626L1391.44 157.226C1390.37 157.226 1389.56 157.012 1389 156.586C1388.45 156.146 1388.08 155.459 1387.9 154.526H1387.78C1387.59 155.459 1387.27 156.146 1386.82 156.586C1386.36 157.012 1385.7 157.226 1384.84 157.226V154.826ZM1390.12 161.526C1389.77 161.526 1389.48 161.419 1389.26 161.206C1389.04 160.992 1388.94 160.652 1388.94 160.186C1388.94 159.719 1389.04 159.379 1389.26 159.166C1389.48 158.952 1389.77 158.846 1390.12 158.846H1390.52C1390.86 158.846 1391.14 158.952 1391.36 159.166C1391.58 159.379 1391.7 159.719 1391.7 160.186C1391.7 160.652 1391.58 160.992 1391.36 161.206C1391.14 161.419 1390.86 161.526 1390.52 161.526H1390.12ZM1386.96 161.526C1386.61 161.526 1386.32 161.419 1386.1 161.206C1385.88 160.992 1385.78 160.652 1385.78 160.186C1385.78 159.719 1385.88 159.379 1386.1 159.166C1386.32 158.952 1386.61 158.846 1386.96 158.846H1387.36C1387.7 158.846 1387.98 158.952 1388.2 159.166C1388.42 159.379 1388.54 159.719 1388.54 160.186C1388.54 160.652 1388.42 160.992 1388.2 161.206C1387.98 161.419 1387.7 161.526 1387.36 161.526H1386.96ZM1391.44 154.826L1392.04 154.226H1392.54C1393.61 154.226 1394.14 153.759 1394.14 152.826V142.426H1396.54V152.826C1396.54 153.759 1397.01 154.226 1397.94 154.226H1398.64V156.626L1398.04 157.226C1396.95 157.226 1396.11 157.012 1395.54 156.586C1394.97 156.146 1394.59 155.459 1394.4 154.526H1394.28C1394.11 155.459 1393.8 156.146 1393.36 156.586C1392.92 157.012 1392.28 157.226 1391.44 157.226V154.826ZM1398.04 154.826L1398.64 154.226H1399.24C1400.31 154.226 1400.84 153.759 1400.84 152.826V149.966H1403.04V152.826C1403.04 153.759 1403.51 154.226 1404.44 154.226H1405.24V156.626L1404.64 157.226C1403.57 157.226 1402.76 157.012 1402.2 156.586C1401.65 156.146 1401.29 155.459 1401.1 154.526H1400.98C1400.79 155.459 1400.47 156.146 1400.02 156.586C1399.57 157.012 1398.91 157.226 1398.04 157.226V154.826ZM1401.74 161.526C1401.39 161.526 1401.11 161.419 1400.88 161.206C1400.67 160.992 1400.56 160.652 1400.56 160.186C1400.56 159.719 1400.67 159.379 1400.88 159.166C1401.11 158.952 1401.39 158.846 1401.74 158.846H1402.14C1402.49 158.846 1402.77 158.952 1402.98 159.166C1403.21 159.379 1403.32 159.719 1403.32 160.186C1403.32 160.652 1403.21 160.992 1402.98 161.206C1402.77 161.419 1402.49 161.526 1402.14 161.526H1401.74ZM1404.64 154.826L1405.24 154.226H1407.38L1407.42 154.126C1406.92 153.619 1406.56 153.086 1406.36 152.526C1406.18 151.952 1406.08 151.399 1406.08 150.866C1406.08 150.266 1406.18 149.706 1406.36 149.186C1406.55 148.652 1406.82 148.192 1407.16 147.806C1407.51 147.406 1407.92 147.092 1408.4 146.866C1408.9 146.639 1409.44 146.526 1410.02 146.526C1410.61 146.526 1411.14 146.639 1411.62 146.866C1412.12 147.092 1412.54 147.406 1412.88 147.806C1413.23 148.192 1413.5 148.652 1413.68 149.186C1413.87 149.706 1413.96 150.266 1413.96 150.866C1413.96 151.399 1413.86 151.952 1413.66 152.526C1413.48 153.086 1413.13 153.619 1412.62 154.126L1412.66 154.226H1414.88V156.626L1414.28 157.226H1414.08C1413.36 157.226 1412.66 157.132 1411.98 156.946C1411.3 156.759 1410.66 156.426 1410.04 155.946C1409.43 156.426 1408.78 156.759 1408.1 156.946C1407.42 157.132 1406.72 157.226 1406 157.226H1404.64V154.826ZM1410.02 153.966C1410.7 153.579 1411.22 153.179 1411.56 152.766C1411.91 152.339 1412.08 151.859 1412.08 151.326C1412.08 150.766 1411.9 150.326 1411.52 150.006C1411.15 149.686 1410.69 149.526 1410.14 149.526H1409.9C1409.36 149.526 1408.9 149.686 1408.52 150.006C1408.15 150.326 1407.96 150.766 1407.96 151.326C1407.96 151.859 1408.14 152.339 1408.48 152.766C1408.83 153.179 1409.34 153.579 1410.02 153.966ZM1411.4 144.926C1411.06 144.926 1410.77 144.819 1410.54 144.606C1410.33 144.392 1410.22 144.052 1410.22 143.586C1410.22 143.119 1410.33 142.779 1410.54 142.566C1410.77 142.352 1411.06 142.246 1411.4 142.246H1411.8C1412.15 142.246 1412.43 142.352 1412.64 142.566C1412.87 142.779 1412.98 143.119 1412.98 143.586C1412.98 144.052 1412.87 144.392 1412.64 144.606C1412.43 144.819 1412.15 144.926 1411.8 144.926H1411.4ZM1408.24 144.926C1407.9 144.926 1407.61 144.819 1407.38 144.606C1407.17 144.392 1407.06 144.052 1407.06 143.586C1407.06 143.119 1407.17 142.779 1407.38 142.566C1407.61 142.352 1407.9 142.246 1408.24 142.246H1408.64C1408.99 142.246 1409.27 142.352 1409.48 142.566C1409.71 142.779 1409.82 143.119 1409.82 143.586C1409.82 144.052 1409.71 144.392 1409.48 144.606C1409.27 144.819 1408.99 144.926 1408.64 144.926H1408.24ZM1414.29 154.826L1414.89 154.226H1415.49C1416.56 154.226 1417.09 153.759 1417.09 152.826V149.966H1419.29V152.826C1419.29 153.759 1419.76 154.226 1420.69 154.226H1421.49V156.626L1420.89 157.226C1419.82 157.226 1419.01 157.012 1418.45 156.586C1417.9 156.146 1417.54 155.459 1417.35 154.526H1417.23C1417.04 155.459 1416.72 156.146 1416.27 156.586C1415.82 157.012 1415.16 157.226 1414.29 157.226V154.826ZM1419.57 148.366C1419.22 148.366 1418.94 148.259 1418.71 148.046C1418.5 147.832 1418.39 147.492 1418.39 147.026C1418.39 146.559 1418.5 146.219 1418.71 146.006C1418.94 145.792 1419.22 145.686 1419.57 145.686H1419.97C1420.32 145.686 1420.6 145.792 1420.81 146.006C1421.04 146.219 1421.15 146.559 1421.15 147.026C1421.15 147.492 1421.04 147.832 1420.81 148.046C1420.6 148.259 1420.32 148.366 1419.97 148.366H1419.57ZM1416.41 148.366C1416.06 148.366 1415.78 148.259 1415.55 148.046C1415.34 147.832 1415.23 147.492 1415.23 147.026C1415.23 146.559 1415.34 146.219 1415.55 146.006C1415.78 145.792 1416.06 145.686 1416.41 145.686H1416.81C1417.16 145.686 1417.44 145.792 1417.65 146.006C1417.88 146.219 1417.99 146.559 1417.99 147.026C1417.99 147.492 1417.88 147.832 1417.65 148.046C1417.44 148.259 1417.16 148.366 1416.81 148.366H1416.41ZM1420.89 154.826L1421.49 154.226H1421.51C1422.14 154.226 1422.61 154.152 1422.93 154.006C1423.25 153.846 1423.51 153.572 1423.69 153.186L1424.47 151.566L1426.45 152.526L1425.75 154.006C1426.07 154.152 1426.4 154.272 1426.73 154.366C1427.07 154.459 1427.41 154.506 1427.75 154.506C1428.33 154.506 1428.74 154.386 1428.99 154.146C1429.25 153.892 1429.37 153.452 1429.37 152.826V151.566H1431.57V152.826C1431.57 153.386 1431.65 153.792 1431.81 154.046C1431.97 154.299 1432.27 154.426 1432.69 154.426H1432.89C1433.24 154.426 1433.51 154.299 1433.71 154.046C1433.93 153.792 1434.03 153.386 1434.03 152.826V150.766H1436.23V152.826C1436.23 153.759 1436.7 154.226 1437.63 154.226H1438.43V156.626L1437.83 157.226C1436.82 157.226 1436.05 157.026 1435.51 156.626C1434.99 156.212 1434.66 155.566 1434.51 154.686H1434.39C1434.31 155.646 1434.07 156.352 1433.67 156.806C1433.27 157.246 1432.74 157.466 1432.07 157.466C1431.37 157.466 1430.82 157.246 1430.43 156.806C1430.05 156.352 1429.78 155.646 1429.63 154.686H1429.51C1429.41 155.646 1429.17 156.352 1428.79 156.806C1428.43 157.246 1427.95 157.466 1427.35 157.466C1426.97 157.466 1426.58 157.392 1426.19 157.246C1425.82 157.112 1425.33 156.866 1424.71 156.506L1424.31 156.266C1423.9 156.652 1423.43 156.912 1422.89 157.046C1422.37 157.166 1421.71 157.226 1420.89 157.226V154.826ZM1442.99 158.246C1442.61 158.046 1442.28 157.879 1441.99 157.746C1441.69 157.612 1441.41 157.506 1441.13 157.426C1440.86 157.346 1440.59 157.292 1440.31 157.266C1440.04 157.239 1439.73 157.226 1439.39 157.226H1437.83V154.826L1438.43 154.226H1439.63V142.426H1442.03V154.526C1442.39 154.632 1442.75 154.772 1443.13 154.946C1443.51 155.119 1443.95 155.339 1444.43 155.606L1445.41 156.146L1443.99 158.786L1442.99 158.246ZM1446.01 142.426H1448.41V157.226H1446.01V142.426ZM1464.34 157.226C1463.13 157.212 1462.24 156.919 1461.68 156.346C1461.12 155.759 1460.84 154.959 1460.84 153.946V153.846H1460.72C1460.62 154.312 1460.49 154.706 1460.34 155.026C1460.21 155.346 1460.04 155.606 1459.82 155.806C1459.61 155.992 1459.36 156.132 1459.06 156.226C1458.77 156.306 1458.42 156.346 1458.02 156.346C1457.06 156.346 1456.34 156.092 1455.86 155.586C1455.38 155.066 1455.14 154.339 1455.14 153.406C1455.14 152.312 1455.44 151.426 1456.04 150.746C1456.66 150.052 1457.48 149.452 1458.5 148.946L1460.74 147.826V146.726H1463.14V153.146C1463.14 153.546 1463.23 153.826 1463.4 153.986C1463.59 154.146 1463.9 154.226 1464.34 154.226H1464.94V156.626L1464.34 157.226ZM1458.68 153.346C1459.46 153.346 1459.99 153.272 1460.28 153.126C1460.59 152.979 1460.74 152.712 1460.74 152.326V149.926L1459.26 150.626C1458.9 150.799 1458.59 150.952 1458.32 151.086C1458.07 151.219 1457.85 151.359 1457.66 151.506C1457.49 151.639 1457.36 151.779 1457.26 151.926C1457.18 152.072 1457.14 152.239 1457.14 152.426C1457.14 152.759 1457.25 152.999 1457.46 153.146C1457.69 153.279 1458.1 153.346 1458.68 153.346ZM1461.76 145.126C1461.42 145.126 1461.13 145.019 1460.9 144.806C1460.69 144.592 1460.58 144.252 1460.58 143.786C1460.58 143.319 1460.69 142.979 1460.9 142.766C1461.13 142.552 1461.42 142.446 1461.76 142.446H1462.16C1462.51 142.446 1462.79 142.552 1463 142.766C1463.23 142.979 1463.34 143.319 1463.34 143.786C1463.34 144.252 1463.23 144.592 1463 144.806C1462.79 145.019 1462.51 145.126 1462.16 145.126H1461.76ZM1458.6 145.126C1458.26 145.126 1457.97 145.019 1457.74 144.806C1457.53 144.592 1457.42 144.252 1457.42 143.786C1457.42 143.319 1457.53 142.979 1457.74 142.766C1457.97 142.552 1458.26 142.446 1458.6 142.446H1459C1459.35 142.446 1459.63 142.552 1459.84 142.766C1460.07 142.979 1460.18 143.319 1460.18 143.786C1460.18 144.252 1460.07 144.592 1459.84 144.806C1459.63 145.019 1459.35 145.126 1459 145.126H1458.6ZM1464.35 154.826L1464.95 154.226H1465.53C1466.01 154.226 1466.4 154.206 1466.71 154.166C1467.03 154.126 1467.28 154.059 1467.47 153.966C1467.67 153.859 1467.8 153.732 1467.87 153.586C1467.95 153.426 1467.99 153.232 1467.99 153.006C1467.99 152.806 1467.97 152.552 1467.93 152.246C1467.9 151.926 1467.84 151.512 1467.75 151.006L1467.41 149.146L1469.59 148.786L1469.89 150.646C1469.96 151.006 1470.01 151.406 1470.05 151.846C1470.09 152.286 1470.11 152.672 1470.11 153.006C1470.11 154.459 1469.75 155.526 1469.03 156.206C1468.32 156.886 1467.16 157.226 1465.53 157.226H1464.35V154.826ZM1469.45 161.526C1469.1 161.526 1468.82 161.419 1468.59 161.206C1468.38 160.992 1468.27 160.652 1468.27 160.186C1468.27 159.719 1468.38 159.379 1468.59 159.166C1468.82 158.952 1469.1 158.846 1469.45 158.846H1469.85C1470.2 158.846 1470.48 158.952 1470.69 159.166C1470.92 159.379 1471.03 159.719 1471.03 160.186C1471.03 160.652 1470.92 160.992 1470.69 161.206C1470.48 161.419 1470.2 161.526 1469.85 161.526H1469.45ZM1466.29 161.526C1465.94 161.526 1465.66 161.419 1465.43 161.206C1465.22 160.992 1465.11 160.652 1465.11 160.186C1465.11 159.719 1465.22 159.379 1465.43 159.166C1465.66 158.952 1465.94 158.846 1466.29 158.846H1466.69C1467.04 158.846 1467.32 158.952 1467.53 159.166C1467.76 159.379 1467.87 159.719 1467.87 160.186C1467.87 160.652 1467.76 160.992 1467.53 161.206C1467.32 161.419 1467.04 161.526 1466.69 161.526H1466.29ZM1472.11 159.026H1473.39C1475.14 159.026 1476.42 158.719 1477.23 158.106C1478.05 157.506 1478.45 156.726 1478.45 155.766V155.246H1478.33C1478.13 155.926 1477.81 156.426 1477.35 156.746C1476.91 157.066 1476.35 157.226 1475.67 157.226C1474.59 157.226 1473.75 156.912 1473.13 156.286C1472.53 155.646 1472.23 154.759 1472.23 153.626C1472.23 152.932 1472.33 152.292 1472.53 151.706C1472.75 151.106 1473.03 150.592 1473.39 150.166C1473.77 149.726 1474.2 149.386 1474.69 149.146C1475.2 148.892 1475.75 148.766 1476.33 148.766C1476.99 148.766 1477.57 148.906 1478.07 149.186C1478.59 149.452 1479.03 149.846 1479.37 150.366C1479.73 150.872 1480.01 151.499 1480.19 152.246C1480.38 152.992 1480.47 153.832 1480.47 154.766C1480.47 157.046 1479.89 158.826 1478.71 160.106C1477.55 161.386 1475.85 162.026 1473.59 162.026H1472.11V159.026ZM1476.29 154.226C1476.81 154.226 1477.25 154.206 1477.59 154.166C1477.94 154.112 1478.22 154.032 1478.43 153.926C1478.38 153.272 1478.13 152.752 1477.69 152.366C1477.25 151.966 1476.71 151.766 1476.07 151.766C1475.55 151.766 1475.11 151.906 1474.75 152.186C1474.41 152.452 1474.23 152.799 1474.23 153.226C1474.23 153.586 1474.38 153.846 1474.67 154.006C1474.97 154.152 1475.37 154.226 1475.87 154.226H1476.29ZM1473.95 145.546H1474.79L1474.81 145.446C1474.55 145.152 1474.41 144.799 1474.41 144.386C1474.41 143.826 1474.61 143.366 1475.01 143.006C1475.43 142.632 1475.95 142.446 1476.59 142.446C1476.98 142.446 1477.35 142.526 1477.71 142.686C1478.07 142.846 1478.39 143.066 1478.65 143.346L1477.69 144.686C1477.37 144.366 1477.01 144.206 1476.59 144.206C1476.37 144.206 1476.18 144.259 1476.03 144.366C1475.9 144.472 1475.83 144.599 1475.83 144.746C1475.83 145.186 1476.29 145.406 1477.21 145.406H1478.69V147.166H1473.95V145.546ZM1479.98 159.026H1480.78C1481.99 159.026 1482.88 158.779 1483.44 158.286C1484.01 157.792 1484.29 156.972 1484.28 155.826C1484.28 155.519 1484.26 155.199 1484.22 154.866C1484.18 154.519 1484.13 154.152 1484.06 153.766L1483.64 151.106L1485.82 150.766L1486.12 152.626C1486.17 152.919 1486.21 153.199 1486.24 153.466C1486.28 153.732 1486.31 153.986 1486.34 154.226H1488.18V156.626L1487.58 157.226H1486.34C1486.11 158.706 1485.53 159.872 1484.58 160.726C1483.65 161.592 1482.39 162.026 1480.8 162.026H1479.98V159.026ZM1487.57 154.826L1488.17 154.226H1489.05C1489.56 154.226 1489.89 154.132 1490.05 153.946C1490.23 153.746 1490.31 153.439 1490.31 153.026V142.426H1492.71V153.026C1492.71 154.452 1492.43 155.506 1491.87 156.186C1491.33 156.866 1490.39 157.212 1489.05 157.226H1487.57V154.826ZM1495.11 142.426H1497.51V157.226H1495.11V142.426ZM1513.45 157.226C1512.23 157.212 1511.35 156.919 1510.79 156.346C1510.23 155.759 1509.95 154.959 1509.95 153.946V153.846H1509.83C1509.72 154.312 1509.59 154.706 1509.45 155.026C1509.31 155.346 1509.14 155.606 1508.93 155.806C1508.71 155.992 1508.46 156.132 1508.17 156.226C1507.87 156.306 1507.53 156.346 1507.13 156.346C1506.17 156.346 1505.45 156.092 1504.97 155.586C1504.49 155.066 1504.25 154.339 1504.25 153.406C1504.25 152.312 1504.55 151.426 1505.15 150.746C1505.76 150.052 1506.58 149.452 1507.61 148.946L1509.85 147.826V146.726H1512.25V153.146C1512.25 153.546 1512.33 153.826 1512.51 153.986C1512.69 154.146 1513.01 154.226 1513.45 154.226H1514.05V156.626L1513.45 157.226ZM1507.79 153.346C1508.56 153.346 1509.09 153.272 1509.39 153.126C1509.69 152.979 1509.85 152.712 1509.85 152.326V149.926L1508.37 150.626C1508.01 150.799 1507.69 150.952 1507.43 151.086C1507.17 151.219 1506.95 151.359 1506.77 151.506C1506.59 151.639 1506.46 151.779 1506.37 151.926C1506.29 152.072 1506.25 152.239 1506.25 152.426C1506.25 152.759 1506.35 152.999 1506.57 153.146C1506.79 153.279 1507.2 153.346 1507.79 153.346ZM1510.87 145.126C1510.52 145.126 1510.23 145.019 1510.01 144.806C1509.79 144.592 1509.69 144.252 1509.69 143.786C1509.69 143.319 1509.79 142.979 1510.01 142.766C1510.23 142.552 1510.52 142.446 1510.87 142.446H1511.27C1511.61 142.446 1511.89 142.552 1512.11 142.766C1512.33 142.979 1512.45 143.319 1512.45 143.786C1512.45 144.252 1512.33 144.592 1512.11 144.806C1511.89 145.019 1511.61 145.126 1511.27 145.126H1510.87ZM1507.71 145.126C1507.36 145.126 1507.07 145.019 1506.85 144.806C1506.63 144.592 1506.53 144.252 1506.53 143.786C1506.53 143.319 1506.63 142.979 1506.85 142.766C1507.07 142.552 1507.36 142.446 1507.71 142.446H1508.11C1508.45 142.446 1508.73 142.552 1508.95 142.766C1509.17 142.979 1509.29 143.319 1509.29 143.786C1509.29 144.252 1509.17 144.592 1508.95 144.806C1508.73 145.019 1508.45 145.126 1508.11 145.126H1507.71ZM1513.45 154.826L1514.05 154.226H1517.49C1517.94 154.226 1518.26 154.179 1518.43 154.086C1518.6 153.979 1518.69 153.792 1518.69 153.526C1518.69 153.286 1518.61 153.079 1518.45 152.906C1518.29 152.732 1517.96 152.512 1517.47 152.246L1514.25 150.506V145.226L1523.85 142.186V144.826L1515.25 147.526V147.646L1517.47 148.886C1518.07 149.219 1518.58 149.546 1518.99 149.866C1519.4 150.172 1519.73 150.492 1519.97 150.826C1520.22 151.159 1520.4 151.512 1520.51 151.886C1520.63 152.246 1520.69 152.652 1520.69 153.106C1520.69 154.519 1520.38 155.559 1519.75 156.226C1519.14 156.892 1518.12 157.226 1516.69 157.226H1513.45V154.826ZM1520.45 159.026H1521.45C1522.56 159.026 1523.38 158.779 1523.93 158.286C1524.49 157.792 1524.77 156.972 1524.77 155.826C1524.77 155.519 1524.75 155.199 1524.71 154.866C1524.67 154.519 1524.62 154.152 1524.55 153.766L1524.21 151.566L1531.61 150.766V152.826C1531.61 153.439 1531.75 153.872 1532.03 154.126C1532.31 154.379 1532.72 154.506 1533.25 154.506C1533.82 154.506 1534.24 154.386 1534.49 154.146C1534.74 153.892 1534.87 153.452 1534.87 152.826V151.566H1537.07V152.826C1537.07 153.386 1537.16 153.792 1537.35 154.046C1537.55 154.299 1537.82 154.426 1538.15 154.426H1538.35C1538.63 154.426 1538.86 154.326 1539.03 154.126C1539.2 153.912 1539.29 153.579 1539.29 153.126C1539.29 152.939 1539.27 152.706 1539.23 152.426C1539.19 152.132 1539.14 151.779 1539.07 151.366L1538.89 150.346L1541.07 149.986L1541.23 151.006C1541.3 151.392 1541.34 151.759 1541.37 152.106C1541.4 152.439 1541.41 152.779 1541.41 153.126C1541.41 154.619 1541.15 155.719 1540.63 156.426C1540.12 157.119 1539.33 157.466 1538.25 157.466C1537.3 157.466 1536.59 157.239 1536.11 156.786C1535.63 156.332 1535.3 155.632 1535.13 154.686H1535.01C1534.9 155.646 1534.64 156.352 1534.23 156.806C1533.82 157.246 1533.22 157.466 1532.45 157.466C1531.5 157.452 1530.77 157.166 1530.25 156.606C1529.74 156.032 1529.46 155.146 1529.41 153.946L1526.83 154.206C1526.86 154.512 1526.88 154.792 1526.89 155.046C1526.92 155.299 1526.93 155.526 1526.93 155.726C1526.93 156.686 1526.81 157.552 1526.57 158.326C1526.33 159.099 1525.98 159.759 1525.51 160.306C1525.04 160.866 1524.47 161.292 1523.79 161.586C1523.12 161.879 1522.35 162.026 1521.47 162.026H1520.45V159.026ZM1537.35 149.966C1537 149.966 1536.72 149.859 1536.49 149.646C1536.28 149.432 1536.17 149.092 1536.17 148.626C1536.17 148.159 1536.28 147.819 1536.49 147.606C1536.72 147.392 1537 147.286 1537.35 147.286H1537.75C1538.1 147.286 1538.38 147.392 1538.59 147.606C1538.82 147.819 1538.93 148.159 1538.93 148.626C1538.93 149.092 1538.82 149.432 1538.59 149.646C1538.38 149.859 1538.1 149.966 1537.75 149.966H1537.35ZM1534.19 149.966C1533.84 149.966 1533.56 149.859 1533.33 149.646C1533.12 149.432 1533.01 149.092 1533.01 148.626C1533.01 148.159 1533.12 147.819 1533.33 147.606C1533.56 147.392 1533.84 147.286 1534.19 147.286H1534.59C1534.94 147.286 1535.22 147.392 1535.43 147.606C1535.66 147.819 1535.77 148.159 1535.77 148.626C1535.77 149.092 1535.66 149.432 1535.43 149.646C1535.22 149.859 1534.94 149.966 1534.59 149.966H1534.19ZM1535.77 147.046C1535.42 147.046 1535.14 146.939 1534.91 146.726C1534.7 146.512 1534.59 146.172 1534.59 145.706C1534.59 145.239 1534.7 144.899 1534.91 144.686C1535.14 144.472 1535.42 144.366 1535.77 144.366H1536.17C1536.52 144.366 1536.8 144.472 1537.01 144.686C1537.24 144.899 1537.35 145.239 1537.35 145.706C1537.35 146.172 1537.24 146.512 1537.01 146.726C1536.8 146.939 1536.52 147.046 1536.17 147.046H1535.77Z" fill="white"/>
<g opacity="0.2">
<circle cx="802.25" cy="360.5" r="801" stroke="white"/>
<circle cx="802.25" cy="360.499" r="692.639" stroke="white"/>
<circle cx="802.25" cy="360.501" r="569.331" stroke="white"/>
<circle cx="802.25" cy="360.499" r="446.023" stroke="white"/>
<circle cx="802.249" cy="360.499" r="326.452" stroke="white"/>
<circle cx="802.25" cy="360.499" r="218.091" stroke="white"/>
<circle cx="802.25" cy="360.5" r="131.392" stroke="white"/>
</g>
</g>
</svg>
