<svg xmlns="http://www.w3.org/2000/svg" xmlns:xlink="http://www.w3.org/1999/xlink" width="1080" zoomAndPan="magnify" viewBox="0 0 810 809.999993" height="1080" preserveAspectRatio="xMidYMid meet" version="1.2"><defs><clipPath id="08cf15bd7c"><path d="M 180 174.449219 L 630 174.449219 L 630 635.699219 L 180 635.699219 Z M 180 174.449219 "/></clipPath></defs><g id="e405ed6681"><g clip-rule="nonzero" clip-path="url(#08cf15bd7c)"><path style=" stroke:none;fill-rule:nonzero;fill:black;fill-opacity:1;" d="M 628.742188 497.277344 L 589.085938 412.417969 L 589.085938 274.496094 C 589.085938 273.414062 588.882812 272.371094 588.46875 271.371094 C 588.054688 270.371094 587.464844 269.488281 586.699219 268.726562 L 514.730469 196.738281 C 513.96875 195.972656 513.085938 195.382812 512.085938 194.96875 C 511.085938 194.554688 510.042969 194.34375 508.960938 194.34375 L 464.273438 194.34375 L 453.203125 187.664062 C 452.277344 187.105469 451.28125 186.742188 450.210938 186.582031 C 449.140625 186.417969 448.078125 186.464844 447.027344 186.722656 L 436.5625 189.296875 L 397.015625 174.945312 C 396 174.578125 394.949219 174.414062 393.867188 174.464844 C 392.785156 174.511719 391.757812 174.765625 390.777344 175.222656 L 349.800781 194.363281 L 279.199219 194.363281 C 278.664062 194.363281 278.132812 194.417969 277.609375 194.523438 C 277.082031 194.625 276.574219 194.78125 276.078125 194.984375 C 275.582031 195.191406 275.113281 195.441406 274.667969 195.742188 C 274.21875 196.039062 273.808594 196.375 273.429688 196.753906 C 273.050781 197.132812 272.710938 197.546875 272.414062 197.992188 C 272.117188 198.4375 271.863281 198.910156 271.660156 199.402344 C 271.453125 199.898438 271.300781 200.410156 271.195312 200.933594 C 271.089844 201.460938 271.039062 201.992188 271.039062 202.527344 L 271.039062 230.015625 L 226.703125 240.929688 C 226.179688 241.058594 225.679688 241.234375 225.191406 241.460938 C 224.707031 241.6875 224.25 241.960938 223.816406 242.277344 C 223.386719 242.59375 222.988281 242.953125 222.628906 243.347656 C 222.265625 243.742188 221.945312 244.167969 221.667969 244.628906 C 221.390625 245.085938 221.160156 245.566406 220.980469 246.070312 C 220.796875 246.574219 220.664062 247.089844 220.585938 247.621094 C 220.503906 248.148438 220.476562 248.683594 220.5 249.21875 C 220.523438 249.753906 220.601562 250.28125 220.730469 250.800781 L 221.585938 254.269531 L 185.199219 271.285156 C 184.710938 271.511719 184.253906 271.785156 183.820312 272.101562 C 183.390625 272.417969 182.992188 272.773438 182.628906 273.171875 C 182.269531 273.566406 181.949219 273.992188 181.671875 274.453125 C 181.394531 274.910156 181.164062 275.390625 180.980469 275.894531 C 180.796875 276.398438 180.664062 276.914062 180.585938 277.445312 C 180.503906 277.976562 180.476562 278.507812 180.5 279.042969 C 180.523438 279.578125 180.597656 280.105469 180.726562 280.628906 C 180.855469 281.148438 181.035156 281.652344 181.261719 282.136719 L 271.042969 474.273438 L 271.042969 591.6875 C 271.042969 592.222656 271.097656 592.753906 271.199219 593.277344 C 271.304688 593.804688 271.460938 594.3125 271.664062 594.808594 C 271.871094 595.304688 272.121094 595.773438 272.417969 596.21875 C 272.714844 596.664062 273.054688 597.074219 273.433594 597.453125 C 273.8125 597.832031 274.222656 598.171875 274.667969 598.46875 C 275.113281 598.765625 275.585938 599.019531 276.078125 599.222656 C 276.574219 599.425781 277.082031 599.582031 277.609375 599.6875 C 278.132812 599.792969 278.664062 599.84375 279.199219 599.84375 L 306.5625 599.84375 L 312.507812 624.03125 C 312.636719 624.554688 312.8125 625.054688 313.039062 625.542969 C 313.265625 626.027344 313.539062 626.484375 313.855469 626.917969 C 314.171875 627.347656 314.527344 627.746094 314.925781 628.105469 C 315.320312 628.46875 315.746094 628.789062 316.203125 629.066406 C 316.664062 629.34375 317.144531 629.574219 317.648438 629.753906 C 318.152344 629.9375 318.667969 630.070312 319.199219 630.148438 C 319.726562 630.230469 320.261719 630.257812 320.796875 630.234375 C 321.332031 630.210938 321.859375 630.132812 322.378906 630.003906 L 341.605469 625.28125 L 343.972656 630.347656 C 344.199219 630.832031 344.46875 631.292969 344.785156 631.726562 C 345.101562 632.160156 345.457031 632.558594 345.851562 632.921875 C 346.246094 633.285156 346.671875 633.605469 347.132812 633.882812 C 347.589844 634.164062 348.070312 634.394531 348.574219 634.578125 C 349.078125 634.761719 349.59375 634.894531 350.125 634.976562 C 350.652344 635.058594 351.1875 635.089844 351.722656 635.066406 C 352.257812 635.042969 352.785156 634.96875 353.308594 634.839844 C 353.828125 634.714844 354.332031 634.535156 354.820312 634.308594 L 410.203125 608.425781 L 444.988281 599.867188 L 580.929688 599.867188 C 581.464844 599.867188 581.996094 599.816406 582.519531 599.710938 C 583.046875 599.605469 583.554688 599.453125 584.050781 599.246094 C 584.546875 599.042969 585.015625 598.792969 585.460938 598.492188 C 585.90625 598.195312 586.320312 597.859375 586.699219 597.480469 C 587.078125 597.101562 587.414062 596.6875 587.710938 596.242188 C 588.011719 595.796875 588.261719 595.328125 588.464844 594.832031 C 588.671875 594.339844 588.824219 593.828125 588.929688 593.300781 C 589.035156 592.777344 589.085938 592.246094 589.085938 591.710938 L 589.085938 564.402344 L 611.765625 558.820312 C 612.285156 558.691406 612.789062 558.515625 613.273438 558.289062 C 613.757812 558.0625 614.21875 557.789062 614.648438 557.472656 C 615.082031 557.15625 615.476562 556.800781 615.839844 556.402344 C 616.203125 556.007812 616.519531 555.582031 616.796875 555.125 C 617.074219 554.664062 617.304688 554.183594 617.488281 553.679688 C 617.671875 553.175781 617.800781 552.660156 617.882812 552.128906 C 617.964844 551.601562 617.992188 551.066406 617.96875 550.53125 C 617.941406 549.996094 617.867188 549.46875 617.738281 548.949219 L 609.457031 515.269531 L 624.8125 508.097656 C 625.296875 507.875 625.757812 507.601562 626.191406 507.285156 C 626.621094 506.96875 627.019531 506.613281 627.382812 506.21875 C 627.746094 505.824219 628.066406 505.398438 628.34375 504.941406 C 628.625 504.480469 628.855469 504 629.039062 503.496094 C 629.222656 502.992188 629.355469 502.476562 629.4375 501.945312 C 629.519531 501.417969 629.550781 500.882812 629.527344 500.347656 C 629.503906 499.8125 629.429688 499.285156 629.304688 498.765625 C 629.175781 498.242188 629 497.738281 628.773438 497.253906 Z M 517.117188 222.222656 L 561.226562 266.332031 L 517.117188 266.332031 Z M 394.625 191.433594 L 402.695312 194.363281 L 388.332031 194.363281 Z M 271.042969 246.820312 L 271.042969 387.125 L 238.5 254.828125 Z M 225.539062 270.449219 L 260.800781 413.792969 L 199.496094 282.617188 Z M 323.375 599.84375 L 376.679688 599.84375 L 326.414062 612.226562 Z M 287.367188 583.5 L 287.367188 210.683594 L 500.800781 210.683594 L 500.800781 274.496094 C 500.800781 275.03125 500.851562 275.5625 500.957031 276.085938 C 501.0625 276.613281 501.214844 277.121094 501.421875 277.617188 C 501.625 278.113281 501.878906 278.582031 502.175781 279.027344 C 502.472656 279.472656 502.8125 279.886719 503.191406 280.265625 C 503.570312 280.644531 503.980469 280.980469 504.429688 281.277344 C 504.875 281.578125 505.34375 281.828125 505.839844 282.03125 C 506.335938 282.238281 506.84375 282.390625 507.371094 282.496094 C 507.894531 282.601562 508.425781 282.652344 508.960938 282.652344 L 572.769531 282.652344 L 572.769531 583.542969 Z M 589.085938 547.566406 L 589.085938 500.832031 L 599.945312 544.914062 Z M 605.484375 499.109375 L 598.691406 471.515625 L 610.503906 496.773438 Z M 311.789062 280.765625 C 311.789062 280.230469 311.84375 279.699219 311.945312 279.171875 C 312.050781 278.648438 312.207031 278.136719 312.410156 277.640625 C 312.617188 277.148438 312.867188 276.675781 313.164062 276.230469 C 313.464844 275.785156 313.800781 275.375 314.179688 274.996094 C 314.558594 274.617188 314.972656 274.277344 315.417969 273.980469 C 315.863281 273.683594 316.332031 273.433594 316.828125 273.226562 C 317.324219 273.023438 317.832031 272.867188 318.359375 272.765625 C 318.886719 272.660156 319.414062 272.609375 319.953125 272.609375 L 389.253906 272.609375 C 389.78125 272.621094 390.304688 272.683594 390.820312 272.796875 C 391.332031 272.914062 391.832031 273.074219 392.316406 273.285156 C 392.800781 273.496094 393.257812 273.75 393.691406 274.050781 C 394.125 274.351562 394.527344 274.691406 394.894531 275.066406 C 395.265625 275.445312 395.59375 275.855469 395.882812 276.296875 C 396.171875 276.738281 396.414062 277.203125 396.613281 277.691406 C 396.8125 278.179688 396.960938 278.683594 397.0625 279.199219 C 397.164062 279.71875 397.214844 280.238281 397.214844 280.765625 C 397.214844 281.296875 397.164062 281.816406 397.0625 282.335938 C 396.960938 282.851562 396.8125 283.355469 396.613281 283.84375 C 396.414062 284.332031 396.171875 284.796875 395.882812 285.238281 C 395.59375 285.679688 395.265625 286.089844 394.894531 286.46875 C 394.527344 286.84375 394.125 287.183594 393.691406 287.484375 C 393.257812 287.78125 392.800781 288.039062 392.316406 288.25 C 391.832031 288.460938 391.332031 288.621094 390.820312 288.738281 C 390.304688 288.851562 389.78125 288.914062 389.253906 288.925781 L 319.957031 288.925781 C 319.421875 288.925781 318.890625 288.875 318.367188 288.769531 C 317.84375 288.667969 317.332031 288.511719 316.839844 288.308594 C 316.34375 288.105469 315.875 287.851562 315.429688 287.558594 C 314.984375 287.261719 314.574219 286.921875 314.195312 286.546875 C 313.816406 286.167969 313.476562 285.757812 313.179688 285.3125 C 312.878906 284.867188 312.628906 284.398438 312.421875 283.90625 C 312.21875 283.410156 312.0625 282.902344 311.957031 282.378906 C 311.851562 281.855469 311.796875 281.324219 311.792969 280.789062 Z M 311.789062 314.417969 C 311.789062 313.882812 311.84375 313.351562 311.945312 312.828125 C 312.050781 312.300781 312.207031 311.789062 312.410156 311.296875 C 312.617188 310.800781 312.867188 310.332031 313.164062 309.886719 C 313.464844 309.441406 313.800781 309.027344 314.179688 308.648438 C 314.558594 308.269531 314.972656 307.933594 315.417969 307.632812 C 315.863281 307.335938 316.332031 307.085938 316.828125 306.882812 C 317.324219 306.675781 317.832031 306.523438 318.359375 306.417969 C 318.886719 306.3125 319.414062 306.261719 319.953125 306.261719 L 445.117188 306.261719 C 445.652344 306.261719 446.183594 306.3125 446.710938 306.417969 C 447.238281 306.523438 447.75 306.679688 448.242188 306.882812 C 448.738281 307.089844 449.210938 307.339844 449.65625 307.640625 C 450.101562 307.9375 450.515625 308.277344 450.894531 308.65625 C 451.273438 309.035156 451.613281 309.449219 451.910156 309.894531 C 452.210938 310.339844 452.460938 310.808594 452.667969 311.304688 C 452.871094 311.800781 453.027344 312.3125 453.132812 312.839844 C 453.234375 313.367188 453.289062 313.898438 453.289062 314.433594 C 453.289062 314.96875 453.234375 315.5 453.132812 316.027344 C 453.027344 316.554688 452.871094 317.066406 452.667969 317.5625 C 452.460938 318.054688 452.210938 318.527344 451.910156 318.972656 C 451.613281 319.417969 451.273438 319.832031 450.894531 320.210938 C 450.515625 320.589844 450.101562 320.929688 449.65625 321.226562 C 449.210938 321.527344 448.738281 321.777344 448.242188 321.984375 C 447.75 322.1875 447.238281 322.34375 446.710938 322.449219 C 446.183594 322.554688 445.652344 322.605469 445.117188 322.605469 L 319.957031 322.605469 C 319.421875 322.605469 318.890625 322.554688 318.363281 322.449219 C 317.839844 322.34375 317.328125 322.1875 316.832031 321.984375 C 316.339844 321.777344 315.867188 321.527344 315.421875 321.230469 C 314.976562 320.933594 314.5625 320.59375 314.183594 320.214844 C 313.804688 319.835938 313.46875 319.421875 313.171875 318.976562 C 312.871094 318.53125 312.621094 318.0625 312.414062 317.566406 C 312.210938 317.070312 312.054688 316.5625 311.953125 316.035156 C 311.847656 315.511719 311.792969 314.980469 311.792969 314.445312 Z M 548.335938 359.621094 C 548.335938 360.15625 548.285156 360.6875 548.179688 361.214844 C 548.074219 361.738281 547.921875 362.25 547.714844 362.746094 C 547.511719 363.242188 547.257812 363.710938 546.960938 364.15625 C 546.664062 364.601562 546.324219 365.015625 545.945312 365.394531 C 545.566406 365.773438 545.152344 366.109375 544.707031 366.410156 C 544.261719 366.707031 543.792969 366.957031 543.296875 367.164062 C 542.800781 367.367188 542.292969 367.523438 541.765625 367.628906 C 541.242188 367.730469 540.710938 367.785156 540.175781 367.785156 L 319.957031 367.785156 C 319.421875 367.785156 318.886719 367.730469 318.363281 367.628906 C 317.835938 367.523438 317.324219 367.367188 316.828125 367.160156 C 316.332031 366.957031 315.863281 366.703125 315.417969 366.40625 C 314.96875 366.109375 314.558594 365.769531 314.179688 365.390625 C 313.796875 365.011719 313.460938 364.597656 313.160156 364.152344 C 312.863281 363.707031 312.613281 363.234375 312.40625 362.738281 C 312.203125 362.242188 312.046875 361.734375 311.941406 361.207031 C 311.835938 360.679688 311.785156 360.148438 311.785156 359.613281 C 311.785156 359.074219 311.835938 358.542969 311.941406 358.019531 C 312.046875 357.492188 312.203125 356.980469 312.40625 356.484375 C 312.613281 355.988281 312.863281 355.519531 313.160156 355.070312 C 313.460938 354.625 313.796875 354.214844 314.179688 353.832031 C 314.558594 353.453125 314.96875 353.117188 315.417969 352.816406 C 315.863281 352.519531 316.332031 352.269531 316.828125 352.0625 C 317.324219 351.855469 317.835938 351.703125 318.363281 351.597656 C 318.886719 351.492188 319.421875 351.441406 319.957031 351.441406 L 540.179688 351.441406 C 540.71875 351.441406 541.25 351.492188 541.777344 351.597656 C 542.304688 351.703125 542.816406 351.859375 543.3125 352.066406 C 543.808594 352.273438 544.28125 352.523438 544.726562 352.824219 C 545.175781 353.125 545.585938 353.464844 545.964844 353.847656 C 546.34375 354.226562 546.683594 354.644531 546.980469 355.089844 C 547.277344 355.539062 547.527344 356.011719 547.734375 356.507812 C 547.9375 357.007812 548.089844 357.519531 548.191406 358.046875 C 548.292969 358.578125 548.34375 359.109375 548.339844 359.648438 Z M 548.335938 397.039062 C 548.339844 397.578125 548.289062 398.109375 548.1875 398.636719 C 548.085938 399.167969 547.933594 399.679688 547.730469 400.175781 C 547.527344 400.675781 547.277344 401.148438 546.980469 401.59375 C 546.679688 402.042969 546.34375 402.457031 545.964844 402.839844 C 545.585938 403.222656 545.171875 403.5625 544.726562 403.863281 C 544.28125 404.160156 543.808594 404.414062 543.3125 404.621094 C 542.816406 404.828125 542.304688 404.984375 541.777344 405.089844 C 541.25 405.195312 540.714844 405.246094 540.179688 405.246094 L 319.957031 405.246094 C 319.421875 405.246094 318.886719 405.195312 318.363281 405.089844 C 317.835938 404.984375 317.324219 404.828125 316.828125 404.625 C 316.332031 404.417969 315.863281 404.167969 315.417969 403.871094 C 314.96875 403.570312 314.558594 403.230469 314.179688 402.851562 C 313.796875 402.472656 313.460938 402.0625 313.160156 401.613281 C 312.863281 401.167969 312.613281 400.699219 312.40625 400.203125 C 312.203125 399.707031 312.046875 399.195312 311.941406 398.667969 C 311.835938 398.140625 311.785156 397.609375 311.785156 397.074219 C 311.785156 396.539062 311.835938 396.007812 311.941406 395.480469 C 312.046875 394.953125 312.203125 394.441406 312.40625 393.945312 C 312.613281 393.453125 312.863281 392.980469 313.160156 392.535156 C 313.460938 392.089844 313.796875 391.675781 314.179688 391.296875 C 314.558594 390.917969 314.96875 390.578125 315.417969 390.28125 C 315.863281 389.980469 316.332031 389.730469 316.828125 389.523438 C 317.324219 389.320312 317.835938 389.164062 318.363281 389.058594 C 318.886719 388.953125 319.421875 388.902344 319.957031 388.902344 L 540.179688 388.902344 C 540.714844 388.902344 541.246094 388.953125 541.769531 389.058594 C 542.296875 389.164062 542.808594 389.320312 543.300781 389.523438 C 543.796875 389.730469 544.269531 389.980469 544.714844 390.277344 C 545.160156 390.574219 545.570312 390.914062 545.949219 391.292969 C 546.328125 391.671875 546.667969 392.085938 546.964844 392.53125 C 547.261719 392.976562 547.515625 393.445312 547.71875 393.941406 C 547.925781 394.4375 548.078125 394.945312 548.183594 395.472656 C 548.289062 395.996094 548.339844 396.527344 548.339844 397.066406 Z M 548.335938 434.457031 C 548.335938 434.992188 548.285156 435.523438 548.179688 436.050781 C 548.074219 436.574219 547.917969 437.085938 547.714844 437.582031 C 547.507812 438.074219 547.257812 438.546875 546.960938 438.992188 C 546.664062 439.4375 546.324219 439.847656 545.945312 440.226562 C 545.566406 440.605469 545.152344 440.945312 544.707031 441.242188 C 544.261719 441.539062 543.792969 441.789062 543.296875 441.996094 C 542.800781 442.199219 542.292969 442.355469 541.765625 442.457031 C 541.242188 442.5625 540.710938 442.613281 540.175781 442.613281 L 319.957031 442.613281 C 319.417969 442.617188 318.886719 442.5625 318.359375 442.460938 C 317.832031 442.355469 317.320312 442.199219 316.824219 441.996094 C 316.328125 441.789062 315.859375 441.539062 315.410156 441.242188 C 314.964844 440.945312 314.550781 440.605469 314.171875 440.226562 C 313.789062 439.847656 313.453125 439.433594 313.152344 438.988281 C 312.855469 438.539062 312.601562 438.070312 312.394531 437.574219 C 312.191406 437.078125 312.035156 436.566406 311.929688 436.039062 C 311.824219 435.511719 311.773438 434.980469 311.773438 434.441406 C 311.773438 433.90625 311.824219 433.375 311.929688 432.847656 C 312.035156 432.320312 312.191406 431.808594 312.394531 431.3125 C 312.601562 430.816406 312.855469 430.34375 313.152344 429.898438 C 313.453125 429.453125 313.789062 429.039062 314.171875 428.660156 C 314.550781 428.28125 314.964844 427.941406 315.410156 427.644531 C 315.859375 427.347656 316.328125 427.09375 316.824219 426.890625 C 317.320312 426.683594 317.832031 426.53125 318.359375 426.425781 C 318.886719 426.320312 319.417969 426.269531 319.957031 426.269531 L 540.179688 426.269531 C 540.714844 426.269531 541.25 426.324219 541.777344 426.429688 C 542.300781 426.535156 542.8125 426.6875 543.308594 426.894531 C 543.808594 427.101562 544.277344 427.355469 544.722656 427.652344 C 545.171875 427.953125 545.582031 428.292969 545.960938 428.671875 C 546.34375 429.054688 546.679688 429.46875 546.976562 429.917969 C 547.273438 430.363281 547.527344 430.835938 547.730469 431.332031 C 547.933594 431.832031 548.085938 432.34375 548.191406 432.871094 C 548.292969 433.398438 548.34375 433.929688 548.339844 434.46875 Z M 548.335938 471.875 C 548.335938 472.410156 548.285156 472.941406 548.179688 473.46875 C 548.074219 473.992188 547.917969 474.503906 547.714844 475 C 547.507812 475.492188 547.257812 475.964844 546.960938 476.410156 C 546.664062 476.855469 546.324219 477.265625 545.945312 477.644531 C 545.566406 478.023438 545.152344 478.363281 544.707031 478.660156 C 544.261719 478.957031 543.792969 479.207031 543.296875 479.414062 C 542.800781 479.617188 542.292969 479.773438 541.765625 479.875 C 541.242188 479.980469 540.710938 480.03125 540.175781 480.03125 L 319.957031 480.03125 C 319.421875 480.03125 318.886719 479.980469 318.363281 479.875 C 317.835938 479.769531 317.324219 479.617188 316.828125 479.410156 C 316.332031 479.203125 315.863281 478.953125 315.417969 478.65625 C 314.96875 478.355469 314.558594 478.019531 314.179688 477.640625 C 313.796875 477.257812 313.460938 476.847656 313.160156 476.402344 C 312.863281 475.953125 312.613281 475.484375 312.40625 474.988281 C 312.203125 474.492188 312.046875 473.980469 311.941406 473.453125 C 311.835938 472.929688 311.785156 472.398438 311.785156 471.859375 C 311.785156 471.324219 311.835938 470.792969 311.941406 470.265625 C 312.046875 469.738281 312.203125 469.230469 312.40625 468.734375 C 312.613281 468.238281 312.863281 467.765625 313.160156 467.320312 C 313.460938 466.875 313.796875 466.460938 314.179688 466.082031 C 314.558594 465.703125 314.96875 465.363281 315.417969 465.066406 C 315.863281 464.769531 316.332031 464.515625 316.828125 464.3125 C 317.324219 464.105469 317.835938 463.949219 318.363281 463.84375 C 318.886719 463.742188 319.421875 463.6875 319.957031 463.6875 L 540.179688 463.6875 C 540.71875 463.6875 541.25 463.742188 541.777344 463.847656 C 542.304688 463.953125 542.816406 464.109375 543.3125 464.316406 C 543.8125 464.519531 544.28125 464.773438 544.730469 465.074219 C 545.175781 465.375 545.589844 465.714844 545.96875 466.097656 C 546.347656 466.476562 546.6875 466.894531 546.984375 467.339844 C 547.28125 467.789062 547.53125 468.261719 547.734375 468.761719 C 547.9375 469.257812 548.089844 469.773438 548.191406 470.300781 C 548.292969 470.828125 548.34375 471.363281 548.339844 471.898438 Z M 548.335938 509.289062 C 548.335938 509.824219 548.285156 510.355469 548.179688 510.878906 C 548.074219 511.40625 547.921875 511.917969 547.714844 512.410156 C 547.511719 512.90625 547.257812 513.378906 546.960938 513.824219 C 546.664062 514.269531 546.324219 514.679688 545.945312 515.058594 C 545.566406 515.4375 545.152344 515.777344 544.707031 516.074219 C 544.261719 516.371094 543.792969 516.625 543.296875 516.828125 C 542.800781 517.035156 542.292969 517.1875 541.765625 517.292969 C 541.242188 517.398438 540.710938 517.449219 540.175781 517.449219 L 469.546875 517.449219 C 469.011719 517.449219 468.480469 517.398438 467.953125 517.292969 C 467.429688 517.1875 466.917969 517.035156 466.421875 516.828125 C 465.925781 516.621094 465.453125 516.371094 465.007812 516.074219 C 464.5625 515.773438 464.148438 515.4375 463.769531 515.058594 C 463.390625 514.675781 463.050781 514.265625 462.753906 513.816406 C 462.457031 513.371094 462.203125 512.902344 462 512.40625 C 461.792969 511.910156 461.636719 511.398438 461.535156 510.871094 C 461.429688 510.347656 461.375 509.816406 461.375 509.277344 C 461.375 508.742188 461.429688 508.210938 461.535156 507.683594 C 461.636719 507.15625 461.792969 506.648438 462 506.152344 C 462.203125 505.65625 462.457031 505.183594 462.753906 504.738281 C 463.050781 504.292969 463.390625 503.878906 463.769531 503.5 C 464.148438 503.121094 464.5625 502.78125 465.007812 502.484375 C 465.453125 502.183594 465.925781 501.933594 466.421875 501.726562 C 466.917969 501.523438 467.429688 501.367188 467.953125 501.261719 C 468.480469 501.160156 469.011719 501.105469 469.546875 501.105469 L 540.179688 501.105469 C 540.71875 501.105469 541.25 501.160156 541.777344 501.261719 C 542.304688 501.367188 542.816406 501.523438 543.3125 501.730469 C 543.808594 501.9375 544.28125 502.191406 544.730469 502.488281 C 545.175781 502.789062 545.589844 503.128906 545.96875 503.511719 C 546.347656 503.890625 546.683594 504.308594 546.984375 504.753906 C 547.28125 505.203125 547.53125 505.675781 547.734375 506.175781 C 547.9375 506.671875 548.089844 507.1875 548.191406 507.714844 C 548.292969 508.242188 548.34375 508.773438 548.339844 509.3125 Z M 548.335938 509.289062 "/></g></g></svg>