<svg xmlns="http://www.w3.org/2000/svg" xmlns:xlink="http://www.w3.org/1999/xlink" width="1080" zoomAndPan="magnify" viewBox="0 0 810 809.999993" height="1080" preserveAspectRatio="xMidYMid meet" version="1.2"><g id="713af0d643"><path style=" stroke:none;fill-rule:evenodd;fill:black;fill-opacity:1;" d="M 252.925781 127.78125 C 232.878906 127.78125 213.445312 129.613281 195.214844 131.644531 C 161.648438 135.386719 134.71875 162.269531 131.117188 195.941406 C 129.175781 214.085938 127.460938 233.367188 127.460938 253.246094 C 127.460938 273.125 129.175781 292.402344 131.117188 310.550781 C 134.71875 344.222656 161.648438 371.105469 195.214844 374.847656 C 213.445312 376.878906 232.878906 378.710938 252.925781 378.710938 C 262.308594 378.710938 271.554688 378.308594 280.609375 377.675781 C 290.003906 356.757812 302.929688 337.371094 319.953125 320.347656 C 337.007812 303.292969 356.4375 290.347656 377.402344 280.949219 C 378.011719 271.886719 378.390625 262.632812 378.390625 253.246094 C 378.390625 233.367188 376.675781 214.085938 374.734375 195.941406 C 371.132812 162.269531 344.203125 135.386719 310.636719 131.644531 C 292.410156 129.613281 272.972656 127.78125 252.925781 127.78125 Z M 252.925781 431.101562 C 256.773438 431.101562 260.597656 431.167969 264.398438 431.292969 C 261.59375 447.234375 260.289062 463.585938 260.289062 480.066406 C 260.289062 539.386719 277.207031 597.039062 319.953125 639.78125 C 328.648438 648.480469 337.960938 656.105469 347.78125 662.742188 C 337.335938 671.085938 324.558594 676.617188 310.636719 678.167969 C 292.410156 680.203125 272.972656 682.035156 252.925781 682.035156 C 232.878906 682.035156 213.445312 680.203125 195.214844 678.167969 C 161.648438 674.425781 134.71875 647.542969 131.117188 613.875 C 129.175781 595.726562 127.460938 576.449219 127.460938 556.570312 C 127.460938 536.6875 129.175781 517.410156 131.117188 499.261719 C 134.71875 465.59375 161.648438 438.707031 195.214844 434.964844 C 213.445312 432.933594 232.878906 431.101562 252.925781 431.101562 Z M 678.875 310.550781 C 677.335938 324.960938 671.519531 338.128906 662.742188 348.769531 C 656.015625 338.734375 648.257812 329.21875 639.386719 320.347656 C 596.644531 277.605469 538.984375 260.683594 479.667969 260.683594 C 463.492188 260.683594 447.441406 261.945312 431.78125 264.640625 C 431.664062 260.867188 431.601562 257.066406 431.601562 253.246094 C 431.601562 233.367188 433.316406 214.085938 435.257812 195.941406 C 438.859375 162.269531 465.789062 135.386719 499.355469 131.644531 C 517.585938 129.613281 537.019531 127.78125 557.066406 127.78125 C 577.113281 127.78125 596.546875 129.613281 614.78125 131.644531 C 648.34375 135.386719 675.273438 162.269531 678.875 195.941406 C 680.816406 214.085938 682.53125 233.367188 682.53125 253.246094 C 682.53125 273.125 680.816406 292.402344 678.875 310.550781 Z M 397.515625 397.910156 C 380.902344 414.523438 369.980469 440.898438 369.980469 480.066406 C 369.980469 519.234375 380.902344 545.609375 397.515625 562.21875 C 414.125 578.832031 440.5 589.753906 479.667969 589.753906 C 518.835938 589.753906 545.210938 578.832031 561.820312 562.21875 C 578.433594 545.609375 589.359375 519.234375 589.359375 480.066406 C 589.359375 440.898438 578.433594 414.523438 561.820312 397.910156 C 545.210938 381.296875 518.835938 370.375 479.667969 370.375 C 440.5 370.375 414.125 381.296875 397.515625 397.910156 Z M 355.207031 355.605469 C 386.0625 324.75 429.488281 310.542969 479.667969 310.542969 C 529.847656 310.542969 573.277344 324.75 604.128906 355.605469 C 634.984375 386.457031 649.191406 429.886719 649.191406 480.066406 C 649.191406 518.632812 640.796875 553.214844 622.90625 581.160156 L 672.890625 631.144531 C 684.574219 642.828125 684.574219 661.765625 672.890625 673.449219 C 661.207031 685.132812 642.265625 685.132812 630.582031 673.449219 L 580.566406 623.429688 C 552.652344 641.234375 518.144531 649.585938 479.667969 649.585938 C 429.488281 649.585938 386.0625 635.382812 355.207031 604.523438 C 324.351562 573.671875 310.148438 530.246094 310.148438 480.066406 C 310.148438 429.886719 324.351562 386.457031 355.207031 355.605469 Z M 355.207031 355.605469 "/></g></svg>