<svg xmlns="http://www.w3.org/2000/svg" xmlns:xlink="http://www.w3.org/1999/xlink" width="1080" zoomAndPan="magnify" viewBox="0 0 810 809.999993" height="1080" preserveAspectRatio="xMidYMid meet" version="1.2"><defs><clipPath id="3d31987c58"><path d="M 519 452 L 669.308594 452 L 669.308594 561 L 519 561 Z M 519 452 "/></clipPath></defs><g id="991c014b99"><path style=" stroke:none;fill-rule:nonzero;fill:#000000;fill-opacity:1;" d="M 382.503906 417.453125 C 434.535156 432.929688 490.953125 391.675781 490.136719 335.898438 C 485.496094 223.59375 325.308594 223.601562 320.671875 335.902344 C 320.675781 374.648438 346.875 407.460938 382.503906 417.453125 Z M 382.503906 417.453125 "/><path style=" stroke:none;fill-rule:nonzero;fill:#000000;fill-opacity:1;" d="M 541.976562 553.214844 C 530.855469 487.976562 473.832031 438.195312 405.40625 438.195312 C 328.121094 437.625 263.421875 504.214844 267.328125 579.804688 C 268.550781 583.574219 272.132812 586.121094 276.1875 586.121094 L 534.625 586.121094 C 550.171875 584.808594 542.480469 563.105469 541.976562 553.214844 Z M 541.976562 553.214844 "/><path style=" stroke:none;fill-rule:nonzero;fill:#000000;fill-opacity:1;" d="M 569.875 445.546875 C 603.992188 445.546875 631.796875 417.734375 631.796875 383.605469 C 628.6875 301.671875 511.046875 301.691406 507.949219 383.605469 C 507.949219 417.734375 535.753906 445.546875 569.875 445.546875 Z M 569.875 445.546875 "/><g clip-rule="nonzero" clip-path="url(#3d31987c58)"><path style=" stroke:none;fill-rule:nonzero;fill:#000000;fill-opacity:1;" d="M 569.875 452.148438 C 552.34375 452.148438 535 456.769531 519.921875 465.535156 C 524.351562 470.15625 528.402344 475.152344 532.171875 480.339844 C 549.175781 503.289062 559.792969 531.808594 561.863281 560.949219 C 561.863281 560.949219 659.882812 560.949219 659.882812 560.949219 C 665.066406 560.949219 669.308594 556.707031 669.308594 551.519531 C 669.308594 496.742188 624.730469 452.148438 569.875 452.148438 Z M 569.875 452.148438 "/></g><path style=" stroke:none;fill-rule:nonzero;fill:#000000;fill-opacity:1;" d="M 240.9375 445.546875 C 275.054688 445.546875 302.859375 417.734375 302.859375 383.605469 C 299.75 301.671875 182.109375 301.691406 179.015625 383.605469 C 179.015625 417.734375 206.816406 445.546875 240.9375 445.546875 Z M 240.9375 445.546875 "/><path style=" stroke:none;fill-rule:nonzero;fill:#000000;fill-opacity:1;" d="M 290.890625 465.535156 C 226.625 426.777344 140.160156 476.332031 141.503906 551.519531 C 141.5 556.707031 145.742188 560.949219 150.925781 560.949219 L 248.949219 560.949219 C 251.496094 525.167969 266.667969 491.210938 290.890625 465.535156 Z M 290.890625 465.535156 "/></g></svg>