<svg width="16" height="17" viewBox="0 0 16 17" fill="none" xmlns="http://www.w3.org/2000/svg">
<path
        d="M1.06274 13.6637V2.99706C1.06274 2.1175 1.06274 1.67722 1.24784 1.41698C1.40938 1.18985 1.65838 1.04072 1.93481 1.00507C2.25143 0.964232 2.63975 1.17133 3.41528 1.58495L13.4153 6.91829L13.4189 6.9199C14.276 7.37699 14.7047 7.60565 14.8453 7.91041C14.968 8.17627 14.968 8.48316 14.8453 8.74901C14.7045 9.0542 14.2748 9.28379 13.4153 9.74218L3.41528 15.0755C2.63919 15.4894 2.25154 15.6957 1.93481 15.6549C1.65838 15.6192 1.40938 15.4701 1.24784 15.243C1.06274 14.9828 1.06274 14.5433 1.06274 13.6637Z"
        stroke="var(--svg-new-col)" stroke-width="1.6" stroke-linecap="round"
        stroke-linejoin="round" />
</svg>
