<svg xmlns="http://www.w3.org/2000/svg" xmlns:xlink="http://www.w3.org/1999/xlink" width="1080" zoomAndPan="magnify" viewBox="0 0 810 809.999993" height="1080" preserveAspectRatio="xMidYMid meet" version="1.2"><defs><clipPath id="315208ddd0"><path d="M 188.433594 598 L 621.933594 598 L 621.933594 655 L 188.433594 655 Z M 188.433594 598 "/></clipPath></defs><g id="b7ae37fd8b"><path style=" stroke:none;fill-rule:nonzero;fill:black;fill-opacity:1;" d="M 399.878906 329.507812 C 447.964844 329.507812 487.085938 290.394531 487.085938 242.316406 C 487.085938 194.230469 447.964844 155.117188 399.878906 155.117188 C 351.808594 155.117188 312.6875 194.230469 312.6875 242.316406 C 312.6875 290.394531 351.808594 329.507812 399.878906 329.507812 Z M 399.878906 329.507812 "/><path style=" stroke:none;fill-rule:nonzero;fill:black;fill-opacity:1;" d="M 290.890625 426.617188 L 361.6875 426.617188 L 358.507812 411.179688 C 357.871094 408.070312 358.496094 404.828125 360.261719 402.1875 L 372.152344 384.351562 L 356.582031 377.675781 C 324.832031 364.070312 288.753906 368.28125 262.488281 388.6875 C 236.628906 408.800781 223.507812 435.566406 223.507812 468.234375 C 223.507812 496.859375 230.476562 540.671875 244.203125 551.550781 C 255.625 560.59375 269.886719 561.691406 279 561.242188 L 279 438.507812 C 279 431.941406 284.320312 426.617188 290.890625 426.617188 Z M 290.890625 426.617188 "/><path style=" stroke:none;fill-rule:nonzero;fill:black;fill-opacity:1;" d="M 413.804688 426.617188 L 416.960938 411.25 L 399.902344 385.652344 L 399.886719 385.609375 L 399.867188 385.652344 L 382.800781 411.25 L 385.964844 426.617188 Z M 413.804688 426.617188 "/><g clip-rule="nonzero" clip-path="url(#315208ddd0)"><path style=" stroke:none;fill-rule:nonzero;fill:black;fill-opacity:1;" d="M 527.230469 598.46875 L 530.445312 614.539062 C 531.140625 618.027344 530.234375 621.652344 527.980469 624.402344 C 525.71875 627.160156 522.351562 628.757812 518.785156 628.757812 L 280.976562 628.757812 C 277.410156 628.757812 274.042969 627.160156 271.78125 624.402344 C 269.527344 621.652344 268.621094 618.027344 269.316406 614.53125 L 272.53125 598.46875 L 206.183594 598.46875 L 188.265625 654.519531 L 621.410156 654.519531 L 603.492188 598.46875 Z M 527.230469 598.46875 "/></g><path style=" stroke:none;fill-rule:nonzero;fill:black;fill-opacity:1;" d="M 295.480469 604.976562 L 504.28125 604.976562 L 499.125 579.210938 L 300.632812 579.210938 Z M 295.480469 604.976562 "/><path style=" stroke:none;fill-rule:nonzero;fill:black;fill-opacity:1;" d="M 441.253906 411.175781 L 438.082031 426.617188 L 508.878906 426.617188 C 515.453125 426.617188 520.769531 431.941406 520.769531 438.507812 L 520.769531 561.246094 C 529.886719 561.695312 544.148438 560.601562 555.570312 551.550781 C 569.296875 540.671875 576.265625 496.859375 576.265625 468.234375 C 576.265625 435.570312 563.144531 408.8125 537.273438 388.6875 C 511.015625 368.269531 474.960938 364.066406 443.179688 377.675781 L 427.621094 384.351562 L 439.5 402.1875 C 441.265625 404.828125 441.890625 408.070312 441.253906 411.175781 Z M 441.253906 411.175781 "/><path style=" stroke:none;fill-rule:nonzero;fill:black;fill-opacity:1;" d="M 302.78125 450.394531 L 496.988281 450.394531 L 496.988281 555.421875 L 302.78125 555.421875 Z M 302.78125 450.394531 "/></g></svg>