<svg xmlns="http://www.w3.org/2000/svg" xmlns:xlink="http://www.w3.org/1999/xlink" width="1080" zoomAndPan="magnify" viewBox="0 0 810 809.999993" height="1080" preserveAspectRatio="xMidYMid meet" version="1.2"><defs><clipPath id="66d268c9e5"><path d="M 203.03125 221.210938 L 607 221.210938 L 607 588.710938 L 203.03125 588.710938 Z M 203.03125 221.210938 "/></clipPath></defs><g id="5a779d02a2"><g clip-rule="nonzero" clip-path="url(#66d268c9e5)"><path style=" stroke:none;fill-rule:evenodd;fill:#ffffff;fill-opacity:1;" d="M 291.34375 355.421875 L 362.035156 355.421875 C 363.460938 355.421875 364.523438 354.148438 364.273438 352.746094 C 361.070312 334.894531 345.464844 321.34375 326.6875 321.34375 C 307.914062 321.34375 292.304688 334.894531 289.105469 352.746094 C 288.851562 354.148438 289.917969 355.421875 291.34375 355.421875 Z M 207.34375 588.71875 L 317.355469 588.714844 C 319.574219 588.714844 321.230469 586.734375 320.839844 584.554688 C 315.855469 556.769531 291.566406 535.683594 262.351562 535.683594 C 233.132812 535.683594 208.84375 556.769531 203.859375 584.554688 C 203.46875 586.738281 205.128906 588.71875 207.34375 588.71875 Z M 304.390625 509.566406 C 305.339844 505.996094 305.847656 502.246094 305.847656 498.375 C 305.847656 492.542969 304.695312 486.980469 302.613281 481.898438 C 306.425781 478.5 311.953125 476.351562 318.082031 476.351562 L 355.183594 476.351562 L 355.183594 437.628906 L 270.851562 437.628906 C 257.445312 437.628906 246.476562 426.660156 246.476562 413.253906 L 246.476562 245.574219 C 246.476562 232.167969 257.445312 221.203125 270.851562 221.203125 L 539.15625 221.203125 C 552.558594 221.203125 563.527344 232.167969 563.527344 245.574219 L 563.527344 413.253906 C 563.527344 426.660156 552.558594 437.628906 539.15625 437.628906 L 454.824219 437.628906 L 454.824219 476.351562 L 491.925781 476.351562 C 498.054688 476.351562 503.582031 478.5 507.394531 481.898438 C 505.3125 486.980469 504.160156 492.542969 504.160156 498.375 C 504.160156 502.246094 504.664062 505.996094 505.613281 509.566406 L 447.042969 509.566406 C 447.992188 505.996094 448.5 502.246094 448.5 498.375 C 448.5 474.359375 429.019531 454.878906 405.003906 454.878906 C 380.988281 454.878906 361.507812 474.359375 361.507812 498.375 C 361.507812 502.246094 362.015625 505.996094 362.964844 509.566406 Z M 395.203125 270.824219 C 392.429688 270.824219 390.160156 273.09375 390.160156 275.867188 L 390.160156 362.285156 C 390.160156 365.0625 392.429688 367.332031 395.203125 367.332031 L 508.871094 367.332031 C 511.648438 367.332031 513.917969 365.0625 513.917969 362.285156 L 513.917969 275.867188 C 513.917969 273.09375 511.648438 270.824219 508.871094 270.824219 Z M 412.960938 300.214844 L 491.117188 300.214844 C 494.832031 300.214844 497.84375 297.203125 497.84375 293.488281 C 497.84375 289.777344 494.832031 286.765625 491.117188 286.765625 L 412.960938 286.765625 C 409.246094 286.765625 406.234375 289.777344 406.234375 293.488281 C 406.234375 297.203125 409.246094 300.214844 412.960938 300.214844 Z M 412.960938 351.390625 L 491.117188 351.390625 C 494.832031 351.390625 497.84375 348.378906 497.84375 344.664062 C 497.84375 340.953125 494.832031 337.941406 491.117188 337.941406 L 412.960938 337.941406 C 409.246094 337.941406 406.234375 340.953125 406.234375 344.664062 C 406.234375 348.378906 409.246094 351.390625 412.960938 351.390625 Z M 412.960938 325.800781 L 491.117188 325.800781 C 494.832031 325.800781 497.84375 322.789062 497.84375 319.078125 C 497.84375 315.363281 494.832031 312.351562 491.117188 312.351562 L 412.960938 312.351562 C 409.246094 312.351562 406.234375 315.363281 406.234375 319.078125 C 406.234375 322.792969 409.246094 325.800781 412.960938 325.800781 Z M 270.238281 241.582031 L 539.765625 241.582031 C 541.625 241.582031 543.144531 243.105469 543.144531 244.964844 L 543.144531 396.570312 L 266.859375 396.570312 L 266.859375 244.964844 C 266.859375 243.105469 268.378906 241.582031 270.238281 241.582031 Z M 492.648438 588.71875 L 602.660156 588.714844 C 604.878906 588.714844 606.535156 586.734375 606.144531 584.554688 C 601.164062 556.769531 576.871094 535.683594 547.65625 535.683594 C 518.4375 535.683594 494.148438 556.769531 489.167969 584.554688 C 488.777344 586.738281 490.433594 588.71875 492.648438 588.71875 Z M 547.65625 468.328125 C 531.0625 468.328125 517.609375 481.78125 517.609375 498.375 C 517.609375 514.96875 531.0625 528.421875 547.65625 528.421875 C 564.25 528.421875 577.703125 514.96875 577.703125 498.375 C 577.703125 481.78125 564.25 468.328125 547.65625 468.328125 Z M 349.996094 588.71875 L 460.007812 588.714844 C 462.226562 588.714844 463.882812 586.734375 463.492188 584.554688 C 458.507812 556.769531 434.21875 535.683594 405.003906 535.683594 C 375.785156 535.683594 351.496094 556.769531 346.515625 584.554688 C 346.121094 586.738281 347.78125 588.71875 349.996094 588.71875 Z M 262.351562 468.328125 C 245.757812 468.328125 232.304688 481.78125 232.304688 498.375 C 232.304688 514.96875 245.757812 528.421875 262.351562 528.421875 C 278.945312 528.421875 292.398438 514.96875 292.398438 498.375 C 292.398438 481.78125 278.945312 468.328125 262.351562 468.328125 Z M 405.003906 468.328125 C 388.410156 468.328125 374.957031 481.78125 374.957031 498.375 C 374.957031 514.96875 388.410156 528.421875 405.003906 528.421875 C 421.597656 528.421875 435.050781 514.96875 435.050781 498.375 C 435.050781 481.78125 421.597656 468.328125 405.003906 468.328125 Z M 326.6875 278.992188 C 316.023438 278.992188 307.382812 287.636719 307.382812 298.296875 C 307.382812 308.960938 316.027344 317.605469 326.6875 317.605469 C 337.351562 317.605469 345.996094 308.960938 345.996094 298.296875 C 345.996094 287.636719 337.351562 278.992188 326.6875 278.992188 Z M 326.6875 278.992188 "/></g></g></svg>