<svg xmlns="http://www.w3.org/2000/svg" xmlns:xlink="http://www.w3.org/1999/xlink" width="1080" zoomAndPan="magnify" viewBox="0 0 810 809.999993" height="1080" preserveAspectRatio="xMidYMid meet" version="1.2"><defs><clipPath id="88f2f9e84e"><path d="M 105.476562 450 L 600 450 L 600 674.679688 L 105.476562 674.679688 Z M 105.476562 450 "/></clipPath><clipPath id="b002f53eb3"><path d="M 195 135.429688 L 509 135.429688 L 509 449 L 195 449 Z M 195 135.429688 "/></clipPath><clipPath id="c7d294cb44"><path d="M 550 377 L 704.726562 377 L 704.726562 532 L 550 532 Z M 550 377 "/></clipPath></defs><g id="5afa021268"><g clip-rule="nonzero" clip-path="url(#88f2f9e84e)"><path style=" stroke:none;fill-rule:nonzero;fill:black;fill-opacity:1;" d="M 434.828125 450.535156 C 409.691406 463.632812 381.601562 470.601562 352.449219 470.601562 C 323.300781 470.601562 295.210938 463.632812 270.074219 450.535156 C 176.949219 483.546875 109.261719 570.917969 105.476562 674.34375 L 599.351562 674.34375 C 595.566406 570.917969 527.953125 483.546875 434.828125 450.535156 Z M 434.828125 450.535156 "/></g><g clip-rule="nonzero" clip-path="url(#b002f53eb3)"><path style=" stroke:none;fill-rule:nonzero;fill:black;fill-opacity:1;" d="M 272.347656 426.6875 C 276.8125 429.335938 281.507812 431.835938 286.277344 434.105469 C 292.109375 436.832031 298.089844 439.179688 304.222656 441.222656 C 319.441406 446.144531 335.566406 448.792969 352.375 448.792969 C 369.183594 448.792969 385.386719 446.144531 400.527344 441.222656 C 406.660156 439.253906 412.71875 436.832031 418.472656 434.105469 C 423.242188 431.835938 427.859375 429.414062 432.402344 426.6875 C 478.210938 399.355469 508.875 349.308594 508.875 292.222656 C 508.949219 205.910156 438.761719 135.648438 352.449219 135.648438 C 266.136719 135.648438 195.878906 205.910156 195.878906 292.222656 C 195.878906 349.308594 226.617188 399.355469 272.347656 426.6875 Z M 272.347656 426.6875 "/></g><g clip-rule="nonzero" clip-path="url(#c7d294cb44)"><path style=" stroke:none;fill-rule:nonzero;fill:black;fill-opacity:1;" d="M 648.335938 433.804688 L 648.335938 377.625 L 606.84375 377.625 L 606.84375 433.804688 L 550.667969 433.804688 L 550.667969 475.292969 L 606.84375 475.292969 L 606.84375 531.472656 L 648.335938 531.472656 L 648.335938 475.292969 L 704.515625 475.292969 L 704.515625 433.804688 Z M 648.335938 433.804688 "/></g></g></svg>