<svg xmlns="http://www.w3.org/2000/svg" xmlns:xlink="http://www.w3.org/1999/xlink" width="1080" zoomAndPan="magnify" viewBox="0 0 810 809.999993" height="1080" preserveAspectRatio="xMidYMid meet" version="1.2"><defs><clipPath id="c6a1e6af69"><path d="M 592.035156 207.625 L 704.214844 207.625 L 704.214844 602.367188 L 592.035156 602.367188 Z M 592.035156 207.625 "/></clipPath><clipPath id="3069cc9f14"><path d="M 81 207.625 L 193.179688 207.625 L 193.179688 602.367188 L 81 602.367188 Z M 81 207.625 "/></clipPath></defs><g id="46939a6ac7"><path style=" stroke:none;fill-rule:nonzero;fill:black;fill-opacity:1;" d="M 619.75 404.992188 C 619.75 380.230469 615.050781 356.078125 605.761719 333.21875 C 596.148438 309.539062 582.039062 288.292969 563.824219 270.074219 C 556.371094 262.617188 544.28125 262.617188 536.832031 270.074219 C 529.378906 277.523438 529.378906 289.605469 536.832031 297.0625 C 551.429688 311.652344 562.722656 328.644531 570.402344 347.566406 C 577.820312 365.847656 581.578125 385.171875 581.578125 404.992188 C 581.578125 424.820312 577.820312 444.144531 570.402344 462.425781 C 562.722656 481.347656 551.429688 498.34375 536.832031 512.9375 C 529.378906 520.386719 529.378906 532.46875 536.832031 539.925781 C 540.5625 543.65625 545.441406 545.515625 550.324219 545.515625 C 555.214844 545.515625 560.089844 543.65625 563.824219 539.925781 C 582.046875 521.699219 596.160156 500.460938 605.761719 476.78125 C 615.050781 453.917969 619.75 429.765625 619.75 404.992188 "/><g clip-rule="nonzero" clip-path="url(#c6a1e6af69)"><path style=" stroke:none;fill-rule:nonzero;fill:black;fill-opacity:1;" d="M 684.332031 302.96875 C 670.679688 269.316406 650.617188 239.121094 624.714844 213.21875 C 617.261719 205.769531 605.175781 205.769531 597.722656 213.21875 C 590.277344 220.671875 590.277344 232.753906 597.722656 240.207031 C 620.003906 262.480469 637.242188 288.429688 648.964844 317.324219 C 660.300781 345.234375 666.046875 374.734375 666.046875 404.992188 C 666.046875 435.257812 660.300781 464.753906 648.964844 492.675781 C 637.242188 521.570312 620.003906 547.515625 597.722656 569.785156 C 590.277344 577.234375 590.277344 589.324219 597.722656 596.773438 C 601.457031 600.503906 606.339844 602.363281 611.222656 602.363281 C 616.109375 602.363281 620.992188 600.503906 624.714844 596.773438 C 650.617188 570.871094 670.679688 540.675781 684.335938 507.03125 C 697.53125 474.535156 704.214844 440.199219 704.214844 404.992188 C 704.214844 369.792969 697.53125 335.460938 684.332031 302.96875 "/></g><path style=" stroke:none;fill-rule:nonzero;fill:black;fill-opacity:1;" d="M 165.464844 405 C 165.464844 429.765625 170.167969 453.917969 179.453125 476.785156 C 189.058594 500.460938 203.167969 521.707031 221.390625 539.929688 C 228.84375 547.382812 240.933594 547.382812 248.386719 539.929688 C 255.835938 532.476562 255.835938 520.390625 248.386719 512.9375 C 233.785156 498.34375 222.488281 481.351562 214.8125 462.433594 C 207.390625 444.148438 203.632812 424.824219 203.632812 405 C 203.632812 385.175781 207.390625 365.859375 214.8125 347.570312 C 222.488281 328.648438 233.785156 311.652344 248.386719 297.0625 C 255.835938 289.605469 255.835938 277.527344 248.386719 270.074219 C 244.652344 266.347656 239.769531 264.484375 234.886719 264.484375 C 230 264.484375 225.125 266.347656 221.390625 270.074219 C 203.164062 288.296875 189.058594 309.535156 179.453125 333.21875 C 170.167969 356.082031 165.464844 380.230469 165.464844 405 "/><g clip-rule="nonzero" clip-path="url(#3069cc9f14)"><path style=" stroke:none;fill-rule:nonzero;fill:black;fill-opacity:1;" d="M 100.882812 507.03125 C 114.535156 540.675781 134.589844 570.875 160.5 596.777344 C 167.953125 604.234375 180.039062 604.234375 187.492188 596.777344 C 194.9375 589.324219 194.9375 577.246094 187.492188 569.785156 C 165.207031 547.515625 147.972656 521.570312 136.25 492.675781 C 124.914062 464.765625 119.167969 435.261719 119.167969 405 C 119.167969 374.738281 124.914062 345.242188 136.25 317.324219 C 147.972656 288.429688 165.207031 262.488281 187.492188 240.210938 C 194.9375 232.761719 194.9375 220.679688 187.492188 213.21875 C 183.761719 209.496094 178.878906 207.628906 173.992188 207.628906 C 169.105469 207.628906 164.222656 209.496094 160.5 213.21875 C 134.589844 239.125 114.535156 269.316406 100.875 302.96875 C 87.691406 335.460938 81 369.792969 81 405 C 81 440.207031 87.691406 474.535156 100.882812 507.03125 "/></g><path style=" stroke:none;fill-rule:nonzero;fill:black;fill-opacity:1;" d="M 487.84375 405 C 487.84375 457.210938 445.511719 499.539062 393.304688 499.539062 C 341.085938 499.539062 298.765625 457.210938 298.765625 405 C 298.765625 352.785156 341.085938 310.457031 393.304688 310.457031 C 445.511719 310.457031 487.84375 352.785156 487.84375 405 "/></g></svg>