<svg xmlns="http://www.w3.org/2000/svg" xmlns:xlink="http://www.w3.org/1999/xlink" width="1080" zoomAndPan="magnify" viewBox="0 0 810 809.999993" height="1080" preserveAspectRatio="xMidYMid meet" version="1.2"><defs><clipPath id="a1baa6ace7"><path d="M 114.210938 81 L 695.460938 81 L 695.460938 729 L 114.210938 729 Z M 114.210938 81 "/></clipPath></defs><g id="78c0055a1f"><g clip-rule="nonzero" clip-path="url(#a1baa6ace7)"><path style=" stroke:none;fill-rule:nonzero;fill:black;fill-opacity:1;" d="M 695.382812 317.320312 L 695.382812 372.921875 C 695.382812 398.472656 674.691406 419.261719 649.253906 419.261719 C 623.820312 419.261719 603.125 398.46875 603.125 372.921875 L 603.125 332.402344 C 603.101562 331.949219 602.863281 331.5625 602.863281 331.101562 C 602.863281 218.742188 513.886719 127.332031 404.515625 127.332031 C 297.664062 127.332031 210.511719 214.632812 206.542969 323.429688 L 206.542969 382.195312 C 206.542969 412.855469 231.375 437.796875 261.898438 437.796875 C 272.085938 437.796875 280.351562 446.097656 280.351562 456.332031 C 280.351562 466.570312 272.085938 474.863281 261.898438 474.863281 C 223.027344 474.863281 189.855469 450.511719 176.289062 416.257812 C 171.320312 418.101562 166.015625 419.261719 160.414062 419.261719 C 134.980469 419.265625 114.285156 398.472656 114.285156 372.929688 L 114.285156 317.320312 C 114.285156 291.769531 134.980469 270.984375 160.414062 270.984375 C 162.769531 270.984375 165.039062 271.339844 167.300781 271.683594 C 193.476562 162.421875 289.75 81 404.515625 81 C 519.296875 81 615.59375 162.445312 641.746094 271.746094 C 644.203125 271.339844 646.683594 270.984375 649.253906 270.984375 C 674.691406 270.984375 695.382812 291.773438 695.382812 317.320312 Z M 556.621094 331.105469 C 556.621094 246.722656 488.515625 178.308594 404.511719 178.308594 C 320.507812 178.308594 252.414062 246.722656 252.414062 331.105469 C 252.414062 415.496094 320.507812 483.898438 404.511719 483.898438 C 488.515625 483.902344 556.621094 415.496094 556.621094 331.105469 Z M 555.933594 530.242188 L 501.78125 530.242188 C 489.722656 530.242188 478.429688 536.152344 471.527344 546.082031 L 433.667969 600.519531 C 418.859375 621.808594 387.410156 621.601562 372.886719 600.109375 L 336.644531 546.484375 C 329.777344 536.324219 318.339844 530.238281 306.113281 530.238281 L 252.9375 530.238281 C 184.449219 530.238281 128.925781 586.007812 128.925781 654.8125 L 128.925781 710.097656 C 128.925781 720.335938 137.183594 728.628906 147.378906 728.628906 L 661.492188 728.628906 C 671.683594 728.628906 679.945312 720.332031 679.945312 710.097656 L 679.945312 654.8125 C 679.941406 586.011719 624.421875 530.242188 555.933594 530.242188 Z M 555.933594 530.242188 "/></g></g></svg>