<svg xmlns="http://www.w3.org/2000/svg" xmlns:xlink="http://www.w3.org/1999/xlink" width="1080" zoomAndPan="magnify" viewBox="0 0 810 809.999993" height="1080" preserveAspectRatio="xMidYMid meet" version="1.2"><defs><clipPath id="e71d91cf82"><path d="M 156.734375 81 L 653.234375 81 L 653.234375 729 L 156.734375 729 Z M 156.734375 81 "/></clipPath></defs><g id="8e3653e9b9"><g clip-rule="nonzero" clip-path="url(#e71d91cf82)"><path style=" stroke:none;fill-rule:evenodd;fill:black;fill-opacity:1;" d="M 509.171875 405.910156 L 197.039062 405.910156 C 174.804688 405.910156 156.777344 387.882812 156.777344 365.644531 L 156.777344 265.867188 C 156.777344 243.632812 174.804688 225.605469 197.039062 225.605469 L 351.324219 225.605469 C 346.886719 213.882812 344.457031 201.1875 344.457031 187.941406 C 344.457031 129.046875 392.503906 81 451.398438 81 C 510.292969 81 558.308594 129.046875 558.308594 187.941406 C 558.308594 201.1875 555.878906 213.882812 551.445312 225.605469 L 599.800781 225.605469 C 622.039062 225.605469 640.066406 243.632812 640.066406 265.867188 L 640.066406 365.644531 C 640.066406 387.882812 622.039062 405.910156 599.800781 405.910156 L 591.089844 405.910156 L 591.089844 481.070312 C 591.089844 481.070312 591.460938 481.082031 591.460938 481.082031 C 627.984375 481.988281 653.191406 504.957031 653.191406 541.488281 C 653.191406 541.796875 653.179688 542.105469 653.152344 542.410156 L 648.398438 595.910156 C 646.316406 619.605469 631.8125 638.089844 611.277344 650.035156 L 580.285156 668.078125 C 575.625 670.792969 572.984375 675.425781 572.984375 680.820312 L 572.984375 718.519531 C 572.984375 724.289062 568.304688 728.96875 562.53125 728.96875 L 367.453125 728.96875 C 361.683594 728.96875 357.003906 724.289062 357.003906 718.519531 L 357.003906 680.820312 C 357.003906 678.171875 356.402344 675.714844 355.195312 673.570312 L 355.183594 673.550781 C 347.851562 660.460938 344.457031 647.628906 344.457031 632.636719 L 344.457031 504.820312 C 344.457031 483.878906 361.605469 466.8125 382.464844 466.8125 C 387.546875 466.8125 392.398438 467.804688 396.828125 469.617188 C 402.5 455.296875 416.488281 445.097656 432.765625 445.097656 C 440.339844 445.097656 447.410156 447.285156 453.382812 451.070312 C 460.621094 438.773438 474.023438 430.488281 489.199219 430.488281 C 496.429688 430.488281 503.238281 432.347656 509.171875 435.617188 Z M 362.003906 246.507812 L 197.039062 246.507812 C 186.347656 246.507812 177.679688 255.175781 177.679688 265.867188 L 177.679688 365.644531 C 177.679688 376.339844 186.347656 385.007812 197.039062 385.007812 L 509.171875 385.007812 L 509.171875 346.292969 C 509.171875 323.761719 527.625 305.304688 550.15625 305.304688 C 572.695312 305.304688 591.089844 323.757812 591.089844 346.292969 L 591.089844 385.007812 L 599.800781 385.007812 C 610.496094 385.007812 619.164062 376.339844 619.164062 365.644531 L 619.164062 265.867188 C 619.164062 255.175781 610.496094 246.507812 599.800781 246.507812 L 540.773438 246.507812 C 521.632812 275.59375 488.695312 294.851562 451.398438 294.851562 C 414.097656 294.851562 381.148438 275.59375 362.003906 246.507812 Z M 553.550781 670.367188 C 556.046875 661.875 561.644531 654.75 569.761719 650.019531 L 600.761719 631.96875 C 615.289062 623.519531 626.101562 610.835938 627.574219 594.082031 L 627.578125 594.070312 C 627.578125 594.070312 632.289062 541.046875 632.289062 541.035156 C 632.074219 517.109375 614.964844 502.566406 590.921875 501.976562 L 590.894531 501.976562 L 580.351562 501.6875 C 574.695312 501.535156 570.1875 496.902344 570.1875 491.242188 L 570.1875 346.292969 C 570.1875 335.257812 561.195312 326.207031 550.15625 326.207031 C 539.117188 326.207031 530.074219 335.253906 530.074219 346.292969 L 530.074219 465.515625 C 530.074219 470.859375 526.042969 475.339844 520.734375 475.910156 C 515.421875 476.476562 510.535156 472.949219 509.40625 467.726562 C 507.390625 458.402344 499.097656 451.390625 489.199219 451.390625 C 478.027344 451.390625 468.785156 460.425781 468.597656 471.597656 C 468.515625 476.417969 465.144531 480.558594 460.4375 481.617188 C 455.730469 482.671875 450.914062 480.371094 448.777344 476.046875 C 445.847656 470.113281 439.785156 466 432.765625 466 C 422.992188 466 415.03125 474.019531 415.03125 483.792969 L 415.03125 488.375 C 415.03125 492.882812 412.144531 496.878906 407.871094 498.296875 C 403.597656 499.714844 398.894531 498.234375 396.203125 494.625 C 393.070312 490.425781 388.089844 487.714844 382.464844 487.714844 C 373.078125 487.714844 365.359375 495.394531 365.359375 504.820312 L 365.359375 632.636719 C 365.359375 643.886719 367.921875 653.511719 373.414062 663.320312 C 374.664062 665.542969 375.667969 667.898438 376.40625 670.367188 Z M 377.90625 691.269531 L 377.90625 708.066406 C 377.90625 708.066406 552.082031 708.066406 552.082031 708.066406 L 552.082031 691.269531 Z M 216.925781 302.085938 C 211.15625 302.085938 206.472656 297.402344 206.472656 291.632812 C 206.472656 285.867188 211.15625 281.183594 216.925781 281.183594 L 339.332031 281.183594 C 345.101562 281.183594 349.785156 285.867188 349.785156 291.632812 C 349.785156 297.402344 345.101562 302.085938 339.332031 302.085938 Z M 216.925781 350.332031 C 211.15625 350.332031 206.472656 345.648438 206.472656 339.878906 C 206.472656 334.113281 211.15625 329.429688 216.925781 329.429688 L 441.804688 329.429688 C 447.574219 329.429688 452.253906 334.113281 452.253906 339.878906 C 452.253906 345.648438 447.574219 350.332031 441.804688 350.332031 Z M 451.398438 273.949219 C 498.777344 273.949219 537.40625 235.320312 537.40625 187.941406 C 537.40625 140.558594 498.777344 101.902344 451.398438 101.902344 C 404.015625 101.902344 365.359375 140.558594 365.359375 187.941406 C 365.359375 235.324219 404.015625 273.949219 451.398438 273.949219 Z M 438.691406 181.613281 L 478.195312 141.699219 L 478.214844 141.679688 C 487.832031 132.011719 503.53125 131.964844 513.199219 141.585938 C 522.867188 151.199219 522.929688 166.839844 513.316406 176.554688 L 513.3125 176.558594 C 494.273438 195.769531 475.378906 215.097656 456.253906 234.21875 C 446.589844 243.882812 430.902344 243.882812 421.238281 234.21875 L 389.542969 202.5 C 379.886719 192.839844 379.867188 177.210938 389.523438 167.5 L 389.542969 167.480469 C 399.207031 157.816406 414.898438 157.816406 424.5625 167.480469 Z M 431.339844 203.824219 L 409.78125 182.261719 C 408.277344 180.761719 405.839844 180.757812 404.335938 182.253906 C 402.832031 183.773438 402.816406 186.210938 404.324219 187.71875 L 436.019531 219.441406 C 437.523438 220.945312 439.96875 220.945312 441.472656 219.441406 C 460.574219 200.339844 479.445312 181.035156 498.460938 161.847656 C 499.957031 160.335938 499.964844 157.902344 498.460938 156.402344 C 496.960938 154.910156 494.527344 154.921875 493.035156 156.417969 L 446.160156 203.785156 C 444.203125 205.761719 441.539062 206.875 438.757812 206.882812 C 435.976562 206.890625 433.308594 205.789062 431.339844 203.824219 Z M 431.339844 203.824219 "/></g></g></svg>