<svg xmlns="http://www.w3.org/2000/svg" xmlns:xlink="http://www.w3.org/1999/xlink" width="1080" zoomAndPan="magnify" viewBox="0 0 810 809.999993" height="1080" preserveAspectRatio="xMidYMid meet" version="1.2"><defs><clipPath id="1d276496cd"><path d="M 196.9375 191.328125 L 613.1875 191.328125 L 613.1875 618.828125 L 196.9375 618.828125 Z M 196.9375 191.328125 "/></clipPath></defs><g id="acf146f630"><g clip-rule="nonzero" clip-path="url(#1d276496cd)"><path style=" stroke:none;fill-rule:evenodd;fill:black;fill-opacity:1;" d="M 354.015625 547.261719 C 355.597656 563.121094 354.40625 581.019531 351.582031 597.15625 L 309.210938 597.15625 C 303.371094 597.15625 298.636719 601.890625 298.636719 607.726562 C 298.636719 613.566406 303.371094 618.300781 309.210938 618.300781 L 500.425781 618.300781 C 506.265625 618.300781 510.996094 613.566406 510.996094 607.726562 C 510.996094 601.890625 506.265625 597.15625 500.425781 597.15625 L 457.933594 597.15625 C 454.886719 581.019531 453.476562 563.121094 455.039062 547.261719 L 583.183594 547.261719 C 599.683594 547.261719 613.058594 533.886719 613.058594 517.386719 C 613.058594 436.265625 613.058594 355.144531 613.058594 274.023438 C 613.058594 260.046875 601.660156 248.648438 587.6875 248.648438 L 571.238281 248.648438 L 571.238281 267.253906 L 587.6875 267.253906 C 591.390625 267.253906 594.453125 270.316406 594.453125 274.023438 L 594.453125 487.839844 L 215.546875 487.839844 L 215.546875 274.023438 C 215.546875 270.316406 218.605469 267.253906 222.3125 267.253906 L 238.757812 267.253906 L 238.757812 248.648438 L 222.3125 248.648438 C 208.335938 248.648438 196.9375 260.046875 196.9375 274.023438 C 196.9375 355.144531 196.9375 436.265625 196.9375 517.386719 C 196.9375 533.886719 210.3125 547.261719 226.8125 547.261719 Z M 272.855469 191.609375 L 537.140625 191.609375 C 546.59375 191.609375 554.324219 199.339844 554.324219 208.789062 L 554.324219 407.488281 C 554.324219 416.9375 546.589844 424.671875 537.140625 424.671875 L 272.855469 424.671875 C 263.40625 424.671875 255.671875 416.9375 255.671875 407.488281 L 255.671875 208.792969 C 255.671875 199.339844 263.40625 191.609375 272.855469 191.609375 Z M 297.65625 269.03125 C 294.628906 265.492188 295.042969 260.164062 298.582031 257.136719 C 302.121094 254.109375 307.445312 254.523438 310.476562 258.0625 L 319.125 268.152344 L 347.449219 236.789062 C 350.566406 233.34375 355.894531 233.074219 359.34375 236.195312 C 362.789062 239.316406 363.054688 244.640625 359.9375 248.089844 L 325.542969 286.167969 C 325.214844 286.578125 324.847656 286.964844 324.433594 287.316406 C 320.894531 290.347656 315.570312 289.933594 312.539062 286.390625 Z M 297.65625 361.964844 C 294.628906 358.421875 295.042969 353.097656 298.582031 350.070312 C 302.121094 347.039062 307.445312 347.453125 310.476562 350.996094 L 319.125 361.082031 L 347.449219 329.722656 C 350.566406 326.273438 355.894531 326.007812 359.34375 329.128906 C 362.789062 332.246094 363.054688 337.574219 359.9375 341.023438 L 325.542969 379.101562 C 325.214844 379.511719 324.847656 379.894531 324.433594 380.25 C 320.894531 383.277344 315.570312 382.863281 312.539062 379.324219 Z M 398.730469 254.492188 C 394.058594 254.492188 390.273438 250.707031 390.273438 246.035156 C 390.273438 241.363281 394.058594 237.578125 398.730469 237.578125 L 505.929688 237.578125 C 510.601562 237.578125 514.386719 241.363281 514.386719 246.035156 C 514.386719 250.707031 510.601562 254.492188 505.929688 254.492188 Z M 398.730469 380.726562 C 394.058594 380.726562 390.273438 376.941406 390.273438 372.269531 C 390.273438 367.597656 394.058594 363.8125 398.730469 363.8125 L 486.257812 363.8125 C 490.925781 363.8125 494.714844 367.597656 494.714844 372.269531 C 494.714844 376.941406 490.925781 380.726562 486.257812 380.726562 Z M 398.730469 347.425781 C 394.058594 347.425781 390.273438 343.640625 390.273438 338.96875 C 390.273438 334.296875 394.058594 330.511719 398.730469 330.511719 L 505.929688 330.511719 C 510.601562 330.511719 514.386719 334.296875 514.386719 338.96875 C 514.386719 343.640625 510.601562 347.425781 505.929688 347.425781 Z M 398.730469 287.796875 C 394.058594 287.796875 390.273438 284.007812 390.273438 279.335938 C 390.273438 274.667969 394.058594 270.878906 398.730469 270.878906 L 486.257812 270.878906 C 490.925781 270.878906 494.714844 274.667969 494.714844 279.335938 C 494.714844 284.007812 490.925781 287.796875 486.257812 287.796875 Z M 398.730469 287.796875 "/></g></g></svg>