<svg width="18" height="19" viewBox="0 0 18 19" fill="none" xmlns="http://www.w3.org/2000/svg">
<path d="M17 3.06318C17 2.51605 16.9996 2.24228 16.8906 2.0333C16.7948 1.84948 16.6423 1.70014 16.4542 1.60648C16.2403 1.5 15.9597 1.5 15.3996 1.5H2.59961C2.03956 1.5 1.75981 1.5 1.5459 1.60648C1.35774 1.70014 1.20487 1.84948 1.10899 2.0333C1 2.24228 1 2.51605 1 3.06318V3.78342C1 4.02237 1 4.14193 1.02763 4.25436C1.05213 4.35405 1.09263 4.44926 1.14746 4.53667C1.20928 4.63523 1.29591 4.71985 1.46875 4.88871L6.53149 9.83463C6.70443 10.0036 6.79044 10.0876 6.85228 10.1862C6.90711 10.2736 6.94816 10.3691 6.97266 10.4688C7 10.5801 7 10.6983 7 10.9324V15.5785C7 16.4159 7 16.8349 7.18054 17.0871C7.33819 17.3073 7.5814 17.4541 7.85352 17.4934C8.16514 17.5384 8.54871 17.3513 9.31543 16.9768L10.1154 16.5861C10.4365 16.4292 10.5966 16.3505 10.7139 16.2335C10.8176 16.1301 10.897 16.0058 10.9453 15.869C11 15.7142 11 15.5384 11 15.1877V10.9396C11 10.7007 11 10.5813 11.0276 10.4688C11.0521 10.3691 11.0926 10.2736 11.1475 10.1862C11.2089 10.0883 11.2947 10.0045 11.4653 9.83775L11.4688 9.83463L16.5315 4.88871C16.7044 4.71975 16.7904 4.63526 16.8523 4.53667C16.9071 4.44926 16.9482 4.35405 16.9727 4.25436C17 4.14308 17 4.0248 17 3.79069V3.06318Z" stroke="#216ED7" stroke-width="2" stroke-linecap="round" stroke-linejoin="round"/>
</svg>
