<svg width="52" height="52" viewBox="0 0 52 52" fill="none" xmlns="http://www.w3.org/2000/svg">
<g filter="url(#filter0_d_1401_1849)">
<rect width="44" height="44" rx="16" transform="matrix(-1 0 0 1 48 0)" fill="url(#paint0_linear_1401_1849)" shape-rendering="crispEdges"/>
<path fill-rule="evenodd" clip-rule="evenodd" d="M18.3825 25.1551C18.2595 25.086 18.1408 25.0152 18.0264 24.9427C16.7332 24.1238 16 23.0923 16 21.9999C16 20.9076 16.7332 19.8761 18.0264 19.0571C18.1408 18.9847 18.2595 18.914 18.3825 18.8447C18.3445 18.7089 18.3106 18.5748 18.281 18.4427C17.9455 16.9492 18.1564 15.7013 18.9289 14.9289C19.7013 14.1564 20.9492 13.9455 22.4427 14.281C22.5748 14.3106 22.7089 14.3445 22.8447 14.3825C22.914 14.2595 22.9847 14.1408 23.0571 14.0265C23.8761 12.7332 24.9076 12 25.9999 12C27.0923 12 28.1238 12.7332 28.9427 14.0265C29.0152 14.1408 29.086 14.2595 29.1551 14.3825C29.2911 14.3445 29.4251 14.3106 29.5571 14.281C31.0508 13.9455 32.2986 14.1566 33.071 14.9289C33.8434 15.7013 34.0543 16.9492 33.7189 18.4427C33.6892 18.5748 33.6553 18.7089 33.6172 18.8447C33.7402 18.914 33.859 18.9847 33.9733 19.0571C35.2667 19.8761 36 20.9076 36 21.9999C36 23.0923 35.2667 24.1238 33.9733 24.9427C33.859 25.0152 33.7402 25.086 33.6172 25.1551C33.6553 25.2911 33.6892 25.4251 33.7189 25.5571C34.0543 27.0508 33.8434 28.2986 33.071 29.071C32.2986 29.8434 31.0508 30.0543 29.5571 29.7189C29.4251 29.6892 29.2911 29.6553 29.1551 29.6172C29.086 29.7402 29.0152 29.859 28.9427 29.9733C28.1238 31.2667 27.0923 32 25.9999 32C24.9076 32 23.8761 31.2667 23.0571 29.9733C22.9847 29.859 22.914 29.7402 22.8447 29.6172C22.7089 29.6553 22.5748 29.6892 22.4427 29.7189C20.9492 30.0543 19.7013 29.8434 18.9289 29.071C18.1564 28.2986 17.9455 27.0508 18.281 25.5571C18.3106 25.4251 18.3445 25.2911 18.3825 25.1551ZM18.6051 19.5314C18.5366 19.5716 18.4698 19.6125 18.4043 19.6539C17.3561 20.3176 16.7063 21.1146 16.7063 21.9999C16.7063 22.8853 17.3561 23.6822 18.4043 24.3461C18.4698 24.3874 18.5366 24.4283 18.6051 24.4686C18.8932 23.6811 19.3078 22.8469 19.8373 21.9999C19.3078 21.153 18.8932 20.3187 18.6051 19.5314ZM22.5166 15.0254C22.4397 15.0054 22.3634 14.9871 22.288 14.9701C21.0773 14.6982 20.0544 14.8023 19.4283 15.4283C18.8023 16.0544 18.6982 17.0773 18.9701 18.288C18.9871 18.3634 19.0054 18.4397 19.0254 18.5166C19.7859 18.1634 20.669 17.8667 21.6423 17.6423C21.8667 16.669 22.1634 15.7859 22.5166 15.0254ZM28.4686 14.6051C28.4283 14.5366 28.3874 14.4698 28.3461 14.4043C27.6822 13.3561 26.8853 12.7063 25.9999 12.7063C25.1146 12.7063 24.3176 13.3561 23.6539 14.4043C23.6125 14.4698 23.5716 14.5366 23.5314 14.6051C24.3187 14.8932 25.153 15.3078 25.9999 15.8373C26.8469 15.3078 27.6811 14.8932 28.4686 14.6051ZM32.9745 18.5166C32.9944 18.4397 33.0129 18.3634 33.0299 18.288C33.3016 17.0773 33.1976 16.0544 32.5716 15.4283C31.9456 14.8023 30.9225 14.6982 29.7119 14.9701C29.6364 14.9871 29.5601 15.0054 29.4833 15.0254C29.8364 15.7859 30.1331 16.669 30.3576 17.6423C31.3309 17.8667 32.2139 18.1634 32.9745 18.5166ZM33.3947 24.4686C33.4632 24.4283 33.5302 24.3874 33.5956 24.3461C34.6438 23.6822 35.2936 22.8853 35.2936 21.9999C35.2936 21.1146 34.6438 20.3176 33.5956 19.6539C33.5302 19.6125 33.4632 19.5716 33.3947 19.5314C33.1067 20.3187 32.6922 21.153 32.1627 21.9999C32.6922 22.8469 33.1067 23.6811 33.3947 24.4686ZM29.4833 28.9745C29.5601 28.9944 29.6364 29.0129 29.7119 29.0299C30.9225 29.3016 31.9456 29.1977 32.5716 28.5716C33.1977 27.9456 33.3016 26.9225 33.0299 25.7119C33.0129 25.6364 32.9944 25.5601 32.9745 25.4833C32.2139 25.8364 31.3309 26.1331 30.3576 26.3576C30.1331 27.3309 29.8364 28.2139 29.4833 28.9745ZM23.5314 29.3947C23.5716 29.4632 23.6125 29.5301 23.6539 29.5956C24.3176 30.6438 25.1146 31.2936 25.9999 31.2936C26.8853 31.2936 27.6822 30.6438 28.3461 29.5956C28.3874 29.5301 28.4283 29.4632 28.4686 29.3947C27.6811 29.1067 26.8469 28.6922 25.9999 28.1627C25.153 28.6922 24.3187 29.1067 23.5314 29.3947ZM19.0254 25.4833C19.0054 25.5601 18.9871 25.6364 18.9701 25.7119C18.6982 26.9225 18.8023 27.9456 19.4283 28.5716C20.0544 29.1977 21.0773 29.3016 22.288 29.0299C22.3634 29.0129 22.4397 28.9944 22.5166 28.9745C22.1634 28.2139 21.8667 27.3309 21.6423 26.3576C20.669 26.1331 19.7859 25.8364 19.0254 25.4833ZM21.4849 18.4042C20.6498 18.6151 19.8913 18.8831 19.2344 19.1975C19.4767 19.8845 19.8234 20.6102 20.2647 21.3498C20.5673 20.9115 20.8995 20.4721 21.2597 20.0366C21.313 19.4736 21.3889 18.9281 21.4849 18.4042ZM20.2647 22.65C19.8234 23.3896 19.4767 24.1153 19.2344 24.8023C19.8913 25.1168 20.6498 25.3847 21.4849 25.5957C21.3889 25.0718 21.313 24.5263 21.2597 23.9634C20.8995 23.5276 20.5673 23.0883 20.2647 22.65ZM25.3498 16.2647C24.6102 15.8234 23.8845 15.4767 23.1975 15.2344C22.8831 15.8913 22.6151 16.6498 22.4042 17.4849C22.9281 17.3889 23.4736 17.313 24.0366 17.2597C24.4721 16.8995 24.9115 16.5673 25.3498 16.2647ZM29.5957 17.4849C29.3847 16.6498 29.1168 15.8913 28.8023 15.2344C28.1153 15.4767 27.3896 15.8234 26.65 16.2647C27.0883 16.5673 27.5276 16.8995 27.9634 17.2597C28.5263 17.313 29.0718 17.3889 29.5957 17.4849ZM31.7352 21.3498C32.1765 20.6102 32.5233 19.8845 32.7654 19.1975C32.1084 18.8831 31.3502 18.6151 30.515 18.4042C30.6111 18.9281 30.6868 19.4736 30.7403 20.0366C31.1005 20.4721 31.4326 20.9115 31.7352 21.3498ZM30.515 25.5957C31.3502 25.3847 32.1084 25.1168 32.7654 24.8023C32.5233 24.1153 32.1765 23.3896 31.7352 22.65C31.4326 23.0883 31.1005 23.5276 30.7403 23.9634C30.6868 24.5263 30.6111 25.0718 30.515 25.5957ZM26.65 27.7352C27.3896 28.1765 28.1153 28.5233 28.8023 28.7654C29.1168 28.1084 29.3847 27.3502 29.5957 26.515C29.0718 26.6111 28.5263 26.6868 27.9634 26.7403C27.5276 27.1005 27.0883 27.4326 26.65 27.7352ZM22.4042 26.515C22.6151 27.3502 22.8831 28.1084 23.1975 28.7654C23.8845 28.5233 24.6102 28.1765 25.3498 27.7352C24.9115 27.4326 24.4721 27.1005 24.0366 26.7403C23.4736 26.6868 22.9281 26.6111 22.4042 26.515ZM21.18 21.2811C21.0024 21.5209 20.8339 21.7607 20.6749 21.9999C20.8339 22.2392 21.0024 22.4791 21.18 22.7188C21.172 22.4814 21.168 22.2416 21.168 21.9999C21.168 21.7582 21.172 21.5186 21.18 21.2811ZM22.2345 18.2345C22.1779 18.5161 22.1273 18.805 22.0834 19.1001C22.2456 18.9266 22.4122 18.7542 22.5831 18.5831C22.7542 18.4122 22.9266 18.2456 23.1001 18.0834C22.805 18.1273 22.5161 18.1779 22.2345 18.2345ZM22.0834 24.8998C22.1273 25.195 22.1779 25.4837 22.2345 25.7654C22.5161 25.8221 22.805 25.8725 23.1001 25.9164C22.9266 25.7543 22.7542 25.5876 22.5831 25.4167C22.4122 25.2458 22.2456 25.0734 22.0834 24.8998ZM25.9999 16.6749C25.7607 16.8339 25.5209 17.0024 25.2811 17.18C25.5186 17.172 25.7582 17.168 25.9999 17.168C26.2416 17.168 26.4814 17.172 26.7188 17.18C26.4791 17.0024 26.2392 16.8339 25.9999 16.6749ZM29.7654 18.2345C29.4837 18.1779 29.195 18.1273 28.8998 18.0834C29.0734 18.2456 29.2458 18.4122 29.4167 18.5831C29.5876 18.7542 29.7543 18.9266 29.9164 19.1001C29.8725 18.805 29.8221 18.5161 29.7654 18.2345ZM31.325 21.9999C31.166 21.7607 30.9974 21.5209 30.8198 21.2811C30.8279 21.5186 30.832 21.7582 30.832 21.9999C30.832 22.2416 30.8279 22.4814 30.8198 22.7188C30.9974 22.4791 31.166 22.2392 31.325 21.9999ZM29.7654 25.7654C29.8221 25.4837 29.8725 25.195 29.9164 24.8998C29.7543 25.0734 29.5876 25.2458 29.4167 25.4167C29.2458 25.5876 29.0734 25.7543 28.8998 25.9164C29.195 25.8725 29.4837 25.8221 29.7654 25.7654ZM25.9999 27.325C26.2392 27.166 26.4791 26.9974 26.7188 26.8198C26.4814 26.8279 26.2416 26.832 25.9999 26.832C25.7582 26.832 25.5186 26.8279 25.2811 26.8198C25.5209 26.9974 25.7607 27.166 25.9999 27.325ZM24.4772 22.7107L23.9495 24.0051L23.3114 23.745L24.8484 19.975H25.4864L27.0234 23.745L26.3853 24.0051L25.8575 22.7107H24.4772ZM25.5767 22.0215L25.1673 21.0176L24.7581 22.0215H25.5767ZM27.378 19.919H28.0671V23.9362H27.378V19.919Z" fill="white"/>
</g>
<defs>
<filter id="filter0_d_1401_1849" x="0" y="0" width="52" height="52" filterUnits="userSpaceOnUse" color-interpolation-filters="sRGB">
<feFlood flood-opacity="0" result="BackgroundImageFix"/>
<feColorMatrix in="SourceAlpha" type="matrix" values="0 0 0 0 0 0 0 0 0 0 0 0 0 0 0 0 0 0 127 0" result="hardAlpha"/>
<feOffset dy="4"/>
<feGaussianBlur stdDeviation="2"/>
<feComposite in2="hardAlpha" operator="out"/>
<feColorMatrix type="matrix" values="0 0 0 0 0 0 0 0 0 0 0 0 0 0 0 0 0 0 0.15 0"/>
<feBlend mode="normal" in2="BackgroundImageFix" result="effect1_dropShadow_1401_1849"/>
<feBlend mode="normal" in="SourceGraphic" in2="effect1_dropShadow_1401_1849" result="shape"/>
</filter>
<linearGradient id="paint0_linear_1401_1849" x1="22" y1="0" x2="22" y2="44" gradientUnits="userSpaceOnUse">
<stop stop-color="#1024DD"/>
<stop offset="1" stop-color="#A300CC"/>
</linearGradient>
</defs>
</svg>
