<svg width="30" height="30" viewBox="0 0 30 30" fill="none" xmlns="http://www.w3.org/2000/svg">
<path d="M14.9996 12.2725V18.0815H23.0723C22.7178 19.9497 21.654 21.5316 20.0586 22.5952L24.9268 26.3724C27.7631 23.7544 29.3995 19.9089 29.3995 15.3408C29.3995 14.2772 29.304 13.2543 29.1267 12.2726L14.9996 12.2725Z" fill="#4285F4"/>
<path d="M6.59336 17.8555L5.49541 18.6959L1.60901 21.7231C4.07717 26.6185 9.13585 30.0004 14.9994 30.0004C19.0493 30.0004 22.4447 28.664 24.9265 26.3732L20.0584 22.5959C18.722 23.4959 17.0175 24.0414 14.9994 24.0414C11.0994 24.0414 7.78593 21.4096 6.59949 17.8641L6.59336 17.8555Z" fill="#34A853"/>
<path d="M1.60896 8.27734C0.586299 10.2954 0 12.5727 0 14.9999C0 17.4271 0.586299 19.7044 1.60896 21.7225C1.60896 21.7361 6.59992 17.8498 6.59992 17.8498C6.29993 16.9498 6.12261 15.9954 6.12261 14.9998C6.12261 14.0042 6.29993 13.0497 6.59992 12.1497L1.60896 8.27734Z" fill="#FBBC05"/>
<path d="M14.9997 5.97268C17.2088 5.97268 19.1724 6.73629 20.7406 8.20903L25.036 3.91366C22.4314 1.48645 19.0497 0 14.9997 0C9.13616 0 4.07717 3.36815 1.60901 8.27723L6.59982 12.1499C7.7861 8.60446 11.0998 5.97268 14.9997 5.97268Z" fill="#EA4335"/>
</svg>
