<svg width="152" height="316" viewBox="0 0 152 316" fill="none" xmlns="http://www.w3.org/2000/svg">
<g clip-path="url(#clip0_707_455)">
<rect width="152" height="195" rx="12" fill="url(#paint0_linear_707_455)"/>
<path d="M42.164 32.88C41.004 32.88 40.1 32.616 39.452 32.088C38.804 31.56 38.48 30.824 38.48 29.88C38.48 29.512 38.528 29.124 38.624 28.716C38.728 28.3 38.868 27.888 39.044 27.48L39.788 27.708C39.636 28.02 39.512 28.348 39.416 28.692C39.32 29.028 39.272 29.348 39.272 29.652C39.272 30.332 39.492 30.86 39.932 31.236C40.38 31.612 41.004 31.8 41.804 31.8H42.524C43.004 31.8 43.432 31.748 43.808 31.644C44.184 31.548 44.5 31.416 44.756 31.248C45.02 31.088 45.22 30.908 45.356 30.708C45.492 30.508 45.56 30.304 45.56 30.096V30.072L42.968 29.496V28.512H43.46C43.924 28.512 44.268 28.444 44.492 28.308C44.724 28.164 44.84 27.896 44.84 27.504V21.12H45.68V27.504C45.68 27.84 45.616 28.124 45.488 28.356C45.368 28.58 45.188 28.772 44.948 28.932V28.98L45.62 29.16C46.108 29.288 46.352 29.6 46.352 30.096C46.352 30.472 46.256 30.828 46.064 31.164C45.88 31.5 45.608 31.796 45.248 32.052C44.888 32.308 44.448 32.508 43.928 32.652C43.408 32.804 42.82 32.88 42.164 32.88ZM42.872 35.28C42.712 35.28 42.584 35.232 42.488 35.136C42.392 35.048 42.344 34.9 42.344 34.692C42.344 34.484 42.392 34.332 42.488 34.236C42.584 34.148 42.712 34.104 42.872 34.104H43.004C43.164 34.104 43.292 34.148 43.388 34.236C43.484 34.332 43.532 34.484 43.532 34.692C43.532 34.9 43.484 35.048 43.388 35.136C43.292 35.232 43.164 35.28 43.004 35.28H42.872ZM41.324 35.28C41.164 35.28 41.036 35.232 40.94 35.136C40.844 35.048 40.796 34.9 40.796 34.692C40.796 34.484 40.844 34.332 40.94 34.236C41.036 34.148 41.164 34.104 41.324 34.104H41.456C41.616 34.104 41.744 34.148 41.84 34.236C41.936 34.332 41.984 34.484 41.984 34.692C41.984 34.9 41.936 35.048 41.84 35.136C41.744 35.232 41.616 35.28 41.456 35.28H41.324ZM49.695 30C49.311 30 48.983 29.968 48.711 29.904C48.447 29.84 48.231 29.736 48.063 29.592C47.903 29.44 47.787 29.244 47.715 29.004C47.643 28.764 47.607 28.472 47.607 28.128V21.12H48.495V28.128C48.495 28.432 48.579 28.648 48.747 28.776C48.915 28.904 49.175 28.968 49.527 28.968H49.947V29.76L49.707 30H49.695ZM49.7014 29.208L49.9414 28.968C50.2054 28.968 50.4054 28.956 50.5414 28.932C50.6854 28.908 50.8014 28.86 50.8894 28.788C50.8654 28.7 50.8494 28.612 50.8414 28.524C50.8334 28.436 50.8294 28.34 50.8294 28.236C50.8294 27.804 50.9694 27.412 51.2494 27.06C51.5374 26.7 51.9694 26.332 52.5454 25.956L53.1334 25.572H54.0694L54.9214 27.888C55.0014 28.104 55.0734 28.284 55.1374 28.428C55.2094 28.564 55.2854 28.672 55.3654 28.752C55.4534 28.832 55.5454 28.888 55.6414 28.92C55.7454 28.952 55.8654 28.968 56.0014 28.968H56.2294V29.76L55.9894 30C55.6134 30 55.3134 29.948 55.0894 29.844C54.8654 29.732 54.6654 29.516 54.4894 29.196L54.4174 29.22V30H52.9894C51.9574 30 51.2934 29.7 50.9974 29.1H50.9494C50.8454 29.404 50.7014 29.632 50.5174 29.784C50.3334 29.928 50.0614 30 49.7014 30V29.208ZM51.6214 28.128C51.6214 28.416 51.7374 28.628 51.9694 28.764C52.2014 28.9 52.5654 28.968 53.0614 28.968H54.3694C54.2814 28.784 54.1854 28.548 54.0814 28.26L53.4094 26.448L52.9534 26.724C52.5934 26.94 52.2814 27.164 52.0174 27.396C51.7534 27.628 51.6214 27.872 51.6214 28.128ZM55.9944 29.208L56.2344 28.968H56.6424C56.9944 28.968 57.3184 28.956 57.6144 28.932C57.9184 28.908 58.2264 28.864 58.5384 28.8C58.8504 28.728 59.1784 28.628 59.5224 28.5C59.8744 28.372 60.2704 28.204 60.7104 27.996L61.8144 27.468V27.42L60.0384 27.024L57.5544 26.412V27.444H56.7144V26.52C56.7144 26.184 56.8064 25.932 56.9904 25.764C57.1824 25.588 57.4224 25.5 57.7104 25.5C57.7984 25.5 57.9024 25.512 58.0224 25.536C58.1504 25.552 58.3464 25.592 58.6104 25.656L61.5384 26.412C61.9784 26.524 62.3464 26.604 62.6424 26.652C62.9384 26.692 63.1944 26.712 63.4104 26.712H63.6024V27.744H62.6664L61.0344 28.728C60.5384 29.024 60.0984 29.26 59.7144 29.436C59.3304 29.604 58.9704 29.732 58.6344 29.82C58.2984 29.9 57.9704 29.952 57.6504 29.976C57.3384 29.992 57.0024 30 56.6424 30H55.9944V29.208ZM59.8224 32.4C59.6624 32.4 59.5344 32.352 59.4384 32.256C59.3424 32.168 59.2944 32.02 59.2944 31.812C59.2944 31.604 59.3424 31.452 59.4384 31.356C59.5344 31.268 59.6624 31.224 59.8224 31.224H59.9544C60.1144 31.224 60.2424 31.268 60.3384 31.356C60.4344 31.452 60.4824 31.604 60.4824 31.812C60.4824 32.02 60.4344 32.168 60.3384 32.256C60.2424 32.352 60.1144 32.4 59.9544 32.4H59.8224ZM64.6438 29.016L66.8998 26.82L63.8158 23.316L64.4638 22.752L67.5238 26.22L67.5838 26.16C67.7438 26.008 67.8758 25.864 67.9798 25.728C68.0838 25.592 68.1638 25.452 68.2198 25.308C68.2838 25.156 68.3278 24.996 68.3518 24.828C68.3758 24.652 68.3878 24.448 68.3878 24.216V21.12H69.2758V24.216C69.2758 24.504 69.2598 24.756 69.2278 24.972C69.1958 25.188 69.1398 25.388 69.0598 25.572C68.9798 25.756 68.8678 25.94 68.7238 26.124C68.5878 26.3 68.4118 26.496 68.1958 26.712L68.0758 26.832L68.8078 27.66C69.0718 27.964 69.2558 28.212 69.3598 28.404C69.4638 28.596 69.5158 28.784 69.5158 28.968C69.5158 29.232 69.4198 29.472 69.2278 29.688C69.0438 29.896 68.7598 30 68.3758 30H64.6438V29.016ZM67.4398 27.432L65.8798 28.92L65.8918 28.968H68.8078L67.4398 27.432ZM64.7758 32.388H65.2078L65.2198 32.34C65.1558 32.26 65.1038 32.164 65.0638 32.052C65.0238 31.948 65.0038 31.84 65.0038 31.728C65.0038 31.416 65.1078 31.156 65.3158 30.948C65.5238 30.74 65.7878 30.636 66.1078 30.636C66.2918 30.636 66.4798 30.68 66.6718 30.768C66.8638 30.864 67.0078 30.988 67.1038 31.14L66.6598 31.68C66.4998 31.496 66.3158 31.404 66.1078 31.404C65.9638 31.404 65.8438 31.44 65.7478 31.512C65.6518 31.592 65.6038 31.688 65.6038 31.8C65.6038 31.968 65.6798 32.1 65.8318 32.196C65.9838 32.292 66.1958 32.34 66.4678 32.34H67.2358V33.108H64.7758V32.388ZM70.9508 21.12H71.8388V30H70.9508V21.12ZM86.9463 30C86.5783 30 86.2663 29.968 86.0103 29.904C85.7543 29.832 85.5423 29.724 85.3743 29.58C85.2143 29.428 85.0983 29.232 85.0263 28.992C84.9543 28.752 84.9183 28.464 84.9183 28.128V28.032L82.8903 28.38C82.9303 28.66 82.9583 28.904 82.9743 29.112C82.9983 29.312 83.0103 29.504 83.0103 29.688C83.0103 30.784 82.7183 31.588 82.1343 32.1C81.5503 32.62 80.6303 32.88 79.3743 32.88C78.3263 32.88 77.5103 32.616 76.9263 32.088C76.3423 31.56 76.0503 30.824 76.0503 29.88C76.0503 29.512 76.0983 29.124 76.1943 28.716C76.2983 28.3 76.4383 27.888 76.6143 27.48L77.3583 27.708C77.2063 28.02 77.0823 28.348 76.9863 28.692C76.8903 29.028 76.8423 29.348 76.8423 29.652C76.8423 30.332 77.0343 30.86 77.4183 31.236C77.8023 31.612 78.3343 31.8 79.0143 31.8H79.7343C80.5823 31.8 81.2023 31.628 81.5943 31.284C81.9943 30.948 82.1943 30.416 82.1943 29.688C82.1943 29.56 82.1903 29.432 82.1823 29.304C82.1743 29.176 82.1583 29.036 82.1343 28.884C82.1183 28.724 82.0903 28.548 82.0503 28.356C82.0183 28.164 81.9783 27.948 81.9303 27.708L81.7263 26.712L82.5663 26.544L82.7223 27.408L84.9183 27.036V26.052H85.7583V28.128C85.7583 28.432 85.8423 28.648 86.0103 28.776C86.1783 28.904 86.4383 28.968 86.7903 28.968H87.2103V29.76L86.9703 30H86.9463ZM79.5543 26.256C79.3943 26.256 79.2663 26.212 79.1703 26.124C79.0743 26.028 79.0263 25.876 79.0263 25.668C79.0263 25.46 79.0743 25.312 79.1703 25.224C79.2663 25.128 79.3943 25.08 79.5543 25.08H79.6863C79.8463 25.08 79.9743 25.128 80.0703 25.224C80.1663 25.312 80.2143 25.46 80.2143 25.668C80.2143 25.876 80.1663 26.028 80.0703 26.124C79.9743 26.212 79.8463 26.256 79.6863 26.256H79.5543ZM86.0463 32.4C85.8863 32.4 85.7583 32.352 85.6623 32.256C85.5663 32.168 85.5183 32.02 85.5183 31.812C85.5183 31.604 85.5663 31.452 85.6623 31.356C85.7583 31.268 85.8863 31.224 86.0463 31.224H86.1783C86.3383 31.224 86.4663 31.268 86.5623 31.356C86.6583 31.452 86.7063 31.604 86.7063 31.812C86.7063 32.02 86.6583 32.168 86.5623 32.256C86.4663 32.352 86.3383 32.4 86.1783 32.4H86.0463ZM84.4983 32.4C84.3383 32.4 84.2103 32.352 84.1143 32.256C84.0183 32.168 83.9703 32.02 83.9703 31.812C83.9703 31.604 84.0183 31.452 84.1143 31.356C84.2103 31.268 84.3383 31.224 84.4983 31.224H84.6303C84.7903 31.224 84.9183 31.268 85.0143 31.356C85.1103 31.452 85.1583 31.604 85.1583 31.812C85.1583 32.02 85.1103 32.168 85.0143 32.256C84.9183 32.352 84.7903 32.4 84.6303 32.4H84.4983ZM86.967 29.208L87.207 28.968H87.387C87.915 28.968 88.295 28.904 88.527 28.776C88.767 28.64 88.887 28.384 88.887 28.008C88.887 27.864 88.875 27.68 88.851 27.456C88.835 27.232 88.795 26.936 88.731 26.568L88.563 25.572L89.403 25.44L89.547 26.436C89.603 26.828 89.643 27.148 89.667 27.396C89.691 27.644 89.703 27.848 89.703 28.008C89.703 28.68 89.503 29.18 89.103 29.508C88.711 29.836 88.139 30 87.387 30H86.967V29.208ZM88.791 32.4C88.631 32.4 88.503 32.352 88.407 32.256C88.311 32.168 88.263 32.02 88.263 31.812C88.263 31.604 88.311 31.452 88.407 31.356C88.503 31.268 88.631 31.224 88.791 31.224H88.923C89.083 31.224 89.211 31.268 89.307 31.356C89.403 31.452 89.451 31.604 89.451 31.812C89.451 32.02 89.403 32.168 89.307 32.256C89.211 32.352 89.083 32.4 88.923 32.4H88.791ZM90.0027 31.848H90.4467C90.8867 31.848 91.2467 31.784 91.5267 31.656C91.8067 31.528 92.0267 31.356 92.1867 31.14C92.3467 30.932 92.4587 30.684 92.5227 30.396C92.5867 30.116 92.6187 29.82 92.6187 29.508C92.6187 29.276 92.6067 29.036 92.5827 28.788C92.5587 28.532 92.5267 28.288 92.4867 28.056L92.2347 26.7L93.0747 26.532L93.2307 27.444C93.3587 28.18 93.4227 28.876 93.4227 29.532C93.4227 29.972 93.3747 30.392 93.2787 30.792C93.1827 31.2 93.0187 31.556 92.7867 31.86C92.5627 32.172 92.2587 32.42 91.8747 32.604C91.4987 32.788 91.0227 32.88 90.4467 32.88H90.0027V31.848ZM95.2544 30C94.9664 30 94.7264 29.916 94.5344 29.748C94.3504 29.572 94.2584 29.316 94.2584 28.98V28.056H95.0984V28.968H96.7184C96.9904 28.968 97.2144 28.96 97.3904 28.944C97.5664 28.928 97.7064 28.904 97.8104 28.872C97.9144 28.832 97.9864 28.78 98.0264 28.716C98.0664 28.652 98.0864 28.568 98.0864 28.464C98.0864 28.368 98.0664 28.252 98.0264 28.116C97.9864 27.98 97.9144 27.772 97.8104 27.492L96.6584 24.324L97.5104 24.012L98.7344 27.372C98.8544 27.692 98.9584 27.956 99.0464 28.164C99.1424 28.364 99.2384 28.524 99.3344 28.644C99.4304 28.764 99.5264 28.848 99.6224 28.896C99.7264 28.944 99.8424 28.968 99.9704 28.968H100.27V29.76L100.03 30C99.8144 30 99.6224 29.98 99.4544 29.94C99.2944 29.9 99.1504 29.84 99.0224 29.76C98.8944 29.672 98.7784 29.56 98.6744 29.424C98.5704 29.288 98.4704 29.12 98.3744 28.92H98.3144C98.2664 29.312 98.1144 29.592 97.8584 29.76C97.6024 29.92 97.2224 30 96.7184 30H95.2544ZM100.033 29.208L100.273 28.968H100.693C101.373 28.968 101.713 28.628 101.713 27.948V26.052H102.553V27.948C102.553 28.628 102.893 28.968 103.573 28.968H103.993V29.76L103.753 30C102.649 30 102.001 29.608 101.809 28.824H101.749C101.661 29.264 101.489 29.572 101.233 29.748C100.977 29.916 100.577 30 100.033 30V29.208ZM102.805 24.612C102.645 24.612 102.517 24.568 102.421 24.48C102.325 24.384 102.277 24.232 102.277 24.024C102.277 23.816 102.325 23.668 102.421 23.58C102.517 23.484 102.645 23.436 102.805 23.436H102.937C103.097 23.436 103.225 23.484 103.321 23.58C103.417 23.668 103.465 23.816 103.465 24.024C103.465 24.232 103.417 24.384 103.321 24.48C103.225 24.568 103.097 24.612 102.937 24.612H102.805ZM101.257 24.612C101.097 24.612 100.969 24.568 100.873 24.48C100.777 24.384 100.729 24.232 100.729 24.024C100.729 23.816 100.777 23.668 100.873 23.58C100.969 23.484 101.097 23.436 101.257 23.436H101.389C101.549 23.436 101.677 23.484 101.773 23.58C101.869 23.668 101.917 23.816 101.917 24.024C101.917 24.232 101.869 24.384 101.773 24.48C101.677 24.568 101.549 24.612 101.389 24.612H101.257ZM106.316 30.408C106.06 30.264 105.824 30.16 105.608 30.096C105.392 30.04 105.132 30.008 104.828 30H103.748V29.208L103.988 28.968H104.888V21.12H105.776V29.076C105.952 29.116 106.124 29.172 106.292 29.244C106.46 29.316 106.64 29.404 106.832 29.508L107.444 29.856L106.928 30.756L106.316 30.408ZM107.888 21.12H108.776V30H107.888V21.12ZM113.864 30C113.576 30 113.336 29.916 113.144 29.748C112.96 29.572 112.868 29.316 112.868 28.98V28.056H113.708V28.968H115.688C115.912 28.968 116.096 28.944 116.24 28.896C116.384 28.84 116.496 28.768 116.576 28.68C116.664 28.592 116.724 28.492 116.756 28.38C116.788 28.268 116.804 28.152 116.804 28.032C116.804 27.76 116.716 27.484 116.54 27.204C116.372 26.916 116.076 26.56 115.652 26.136L114.392 24.756L115.172 24.012L116.372 25.392C116.612 25.672 116.812 25.928 116.972 26.16C117.132 26.384 117.264 26.604 117.368 26.82C117.472 27.036 117.544 27.248 117.584 27.456C117.632 27.664 117.656 27.884 117.656 28.116C117.656 28.7 117.476 29.16 117.116 29.496C116.756 29.832 116.24 30 115.568 30H113.864ZM119.477 30C119.189 30 118.949 29.916 118.757 29.748C118.573 29.572 118.481 29.316 118.481 28.98V28.056H119.321V28.968H120.941C121.213 28.968 121.437 28.96 121.613 28.944C121.789 28.928 121.929 28.904 122.033 28.872C122.137 28.832 122.209 28.78 122.249 28.716C122.289 28.652 122.309 28.568 122.309 28.464C122.309 28.368 122.289 28.252 122.249 28.116C122.209 27.98 122.137 27.772 122.033 27.492L120.881 24.324L121.733 24.012L122.957 27.372C123.077 27.692 123.181 27.956 123.269 28.164C123.365 28.364 123.461 28.524 123.557 28.644C123.653 28.764 123.749 28.848 123.845 28.896C123.949 28.944 124.065 28.968 124.193 28.968H124.493V29.76L124.253 30C124.037 30 123.845 29.98 123.677 29.94C123.517 29.9 123.373 29.84 123.245 29.76C123.117 29.672 123.001 29.56 122.897 29.424C122.793 29.288 122.693 29.12 122.597 28.92H122.537C122.489 29.312 122.337 29.592 122.081 29.76C121.825 29.92 121.445 30 120.941 30H119.477ZM124.256 29.208L124.496 28.968H126.008V28.908C125.712 28.716 125.464 28.44 125.264 28.08C125.072 27.72 124.976 27.328 124.976 26.904C124.976 26.544 125.036 26.216 125.156 25.92C125.276 25.624 125.436 25.372 125.636 25.164C125.844 24.948 126.088 24.784 126.368 24.672C126.648 24.552 126.944 24.492 127.256 24.492C127.712 24.492 128.108 24.588 128.444 24.78C128.78 24.964 129.06 25.228 129.284 25.572L128.684 26.268C128.476 26.012 128.252 25.824 128.012 25.704C127.78 25.584 127.512 25.524 127.208 25.524C126.752 25.524 126.404 25.652 126.164 25.908C125.932 26.156 125.816 26.488 125.816 26.904C125.816 27.128 125.864 27.336 125.96 27.528C126.056 27.72 126.188 27.888 126.356 28.032C126.524 28.168 126.724 28.276 126.956 28.356C127.188 28.436 127.44 28.476 127.712 28.476C128.072 28.476 128.444 28.428 128.828 28.332L129.788 28.092L130.016 29.028L128.456 29.46C128.072 29.572 127.716 29.664 127.388 29.736C127.06 29.8 126.732 29.852 126.404 29.892C126.084 29.932 125.748 29.96 125.396 29.976C125.052 29.992 124.672 30 124.256 30V29.208Z" fill="#E9E9E9"/>
<path d="M68.18 58.12C67.48 58.12 66.89 58.0833 66.41 58.01C65.9367 57.9367 65.5533 57.82 65.26 57.66C64.9667 57.5 64.7533 57.29 64.62 57.03C64.4933 56.7633 64.43 56.44 64.43 56.06C64.43 55.7933 64.4633 55.52 64.53 55.24C64.6033 54.96 64.7133 54.65 64.86 54.31L65.48 54.5C65.2067 55.0667 65.07 55.5533 65.07 55.96C65.07 56.3667 65.2633 56.6667 65.65 56.86C66.0367 57.0467 66.6467 57.14 67.48 57.14H68.88C69.3533 57.14 69.7433 57.1267 70.05 57.1C70.3567 57.0733 70.6 57.0267 70.78 56.96C70.96 56.8933 71.0833 56.8033 71.15 56.69C71.2233 56.57 71.26 56.42 71.26 56.24C71.26 56.1267 71.2533 55.9867 71.24 55.82C71.2267 55.6467 71.1933 55.42 71.14 55.14L70.99 54.31L71.69 54.2L71.82 55.03C71.8667 55.33 71.8967 55.5767 71.91 55.77C71.93 55.9567 71.94 56.1133 71.94 56.24C71.94 56.5867 71.8733 56.88 71.74 57.12C71.6133 57.36 71.4 57.5533 71.1 57.7C70.8067 57.8467 70.42 57.9533 69.94 58.02C69.4667 58.0867 68.88 58.12 68.18 58.12ZM68.12 60C67.9867 60 67.88 59.96 67.8 59.88C67.72 59.8067 67.68 59.6833 67.68 59.51C67.68 59.3367 67.72 59.21 67.8 59.13C67.88 59.0567 67.9867 59.02 68.12 59.02H68.23C68.3633 59.02 68.47 59.0567 68.55 59.13C68.63 59.21 68.67 59.3367 68.67 59.51C68.67 59.6833 68.63 59.8067 68.55 59.88C68.47 59.96 68.3633 60 68.23 60H68.12ZM71.7887 59.54H72.1587C72.5253 59.54 72.8253 59.4867 73.0587 59.38C73.292 59.2733 73.4753 59.13 73.6087 58.95C73.742 58.7767 73.8353 58.57 73.8887 58.33C73.942 58.0967 73.9687 57.85 73.9687 57.59C73.9687 57.3967 73.9587 57.1967 73.9387 56.99C73.9187 56.7767 73.892 56.5733 73.8587 56.38L73.6487 55.25L74.3487 55.11L74.4787 55.87C74.5853 56.4833 74.6387 57.0633 74.6387 57.61C74.6387 57.9767 74.5987 58.3267 74.5187 58.66C74.4387 59 74.302 59.2967 74.1087 59.55C73.922 59.81 73.6687 60.0167 73.3487 60.17C73.0353 60.3233 72.6387 60.4 72.1587 60.4H71.7887V59.54ZM76.1652 58C75.9252 58 75.7252 57.93 75.5652 57.79C75.4118 57.6433 75.3352 57.43 75.3352 57.15V56.38H76.0352V57.14H77.3852C77.6118 57.14 77.7985 57.1333 77.9452 57.12C78.0918 57.1067 78.2085 57.0867 78.2952 57.06C78.3818 57.0267 78.4418 56.9833 78.4752 56.93C78.5085 56.8767 78.5252 56.8067 78.5252 56.72C78.5252 56.64 78.5085 56.5433 78.4752 56.43C78.4418 56.3167 78.3818 56.1433 78.2952 55.91L77.3352 53.27L78.0452 53.01L79.0652 55.81C79.1652 56.0767 79.2518 56.2967 79.3252 56.47C79.4052 56.6367 79.4852 56.77 79.5652 56.87C79.6452 56.97 79.7252 57.04 79.8052 57.08C79.8918 57.12 79.9885 57.14 80.0952 57.14H80.3452V57.8L80.1452 58C79.9652 58 79.8052 57.9833 79.6652 57.95C79.5318 57.9167 79.4118 57.8667 79.3052 57.8C79.1985 57.7267 79.1018 57.6333 79.0152 57.52C78.9285 57.4067 78.8452 57.2667 78.7652 57.1H78.7152C78.6752 57.4267 78.5485 57.66 78.3352 57.8C78.1218 57.9333 77.8052 58 77.3852 58H76.1652ZM80.1477 57.34L80.3477 57.14H80.6977C81.2643 57.14 81.5477 56.8567 81.5477 56.29V54.71H82.2477V56.29C82.2477 56.8567 82.531 57.14 83.0977 57.14H83.4477V57.8L83.2477 58C82.3277 58 81.7877 57.6733 81.6277 57.02H81.5777C81.5043 57.3867 81.361 57.6433 81.1477 57.79C80.9343 57.93 80.601 58 80.1477 58V57.34ZM82.4577 53.51C82.3243 53.51 82.2177 53.4733 82.1377 53.4C82.0577 53.32 82.0177 53.1933 82.0177 53.02C82.0177 52.8467 82.0577 52.7233 82.1377 52.65C82.2177 52.57 82.3243 52.53 82.4577 52.53H82.5677C82.701 52.53 82.8077 52.57 82.8877 52.65C82.9677 52.7233 83.0077 52.8467 83.0077 53.02C83.0077 53.1933 82.9677 53.32 82.8877 53.4C82.8077 53.4733 82.701 53.51 82.5677 53.51H82.4577ZM81.1677 53.51C81.0343 53.51 80.9277 53.4733 80.8477 53.4C80.7677 53.32 80.7277 53.1933 80.7277 53.02C80.7277 52.8467 80.7677 52.7233 80.8477 52.65C80.9277 52.57 81.0343 52.53 81.1677 52.53H81.2777C81.411 52.53 81.5177 52.57 81.5977 52.65C81.6777 52.7233 81.7177 52.8467 81.7177 53.02C81.7177 53.1933 81.6777 53.32 81.5977 53.4C81.5177 53.4733 81.411 53.51 81.2777 53.51H81.1677ZM84.5534 57.42C84.4 57.6267 84.22 57.7767 84.0134 57.87C83.8134 57.9567 83.5567 58 83.2434 58V57.34L83.4434 57.14C83.57 57.14 83.6767 57.1233 83.7634 57.09C83.8567 57.0567 83.9367 57.0067 84.0034 56.94C84.0767 56.8667 84.14 56.7733 84.1934 56.66C84.2534 56.54 84.3134 56.4 84.3734 56.24L84.6534 55.5C84.8067 55.1 85.01 54.7933 85.2634 54.58C85.5167 54.36 85.8534 54.25 86.2734 54.25C86.7667 54.25 87.1467 54.4733 87.4134 54.92C87.6867 55.3667 87.8234 55.9867 87.8234 56.78V57.25L87.2334 58.12L84.5534 57.42ZM84.9534 56.63L87.1234 57.21V56.78C87.1234 56.26 87.0367 55.8533 86.8634 55.56C86.6967 55.26 86.46 55.11 86.1534 55.11C85.9 55.11 85.7034 55.1867 85.5634 55.34C85.43 55.4933 85.3167 55.6867 85.2234 55.92L84.9534 56.63Z" fill="#E9E9E9"/>
<path d="M99.0085 40.5455V58H95.3182V44.0483H95.2159L91.2188 46.554V43.2812L95.5398 40.5455H99.0085ZM110.751 40.5455V58H107.06V44.0483H106.958L102.961 46.554V43.2812L107.282 40.5455H110.751ZM114.899 58V55.3409L121.112 49.5881C121.641 49.0767 122.084 48.6165 122.442 48.2074C122.805 47.7983 123.081 47.3977 123.268 47.0057C123.456 46.608 123.55 46.179 123.55 45.7188C123.55 45.2074 123.433 44.767 123.2 44.3977C122.967 44.0227 122.649 43.7358 122.246 43.5369C121.842 43.3324 121.385 43.2301 120.874 43.2301C120.339 43.2301 119.874 43.3381 119.476 43.554C119.078 43.7699 118.771 44.0795 118.555 44.483C118.339 44.8864 118.232 45.3665 118.232 45.9233H114.729C114.729 44.7812 114.987 43.7898 115.504 42.9489C116.021 42.108 116.746 41.4574 117.678 40.9972C118.609 40.5369 119.683 40.3068 120.899 40.3068C122.149 40.3068 123.237 40.5284 124.163 40.9716C125.095 41.4091 125.82 42.017 126.337 42.7955C126.854 43.5739 127.112 44.4659 127.112 45.4716C127.112 46.1307 126.982 46.7812 126.72 47.4233C126.464 48.0653 126.007 48.7784 125.348 49.5625C124.689 50.3409 123.76 51.2756 122.561 52.3665L120.013 54.8636V54.983H127.342V58H114.899Z" fill="white"/>
<rect x="85" y="64" width="46" height="18" rx="6" fill="white" fill-opacity="0.25"/>
<path d="M93.8977 75.7216V71.0341H94.6932V75.7216H93.8977ZM91.9517 73.7756V72.9801H96.6392V73.7756H91.9517ZM100.66 69.6278C100.958 69.6302 101.257 69.687 101.555 69.7983C101.853 69.9096 102.125 70.0942 102.372 70.3523C102.618 70.608 102.816 70.9571 102.965 71.3999C103.114 71.8426 103.188 72.3977 103.188 73.0653C103.188 73.7116 103.127 74.2857 103.004 74.7876C102.883 75.2872 102.708 75.7086 102.478 76.0518C102.251 76.3951 101.974 76.6555 101.647 76.8331C101.323 77.0107 100.956 77.0994 100.546 77.0994C100.139 77.0994 99.7757 77.0189 99.4561 76.858C99.1389 76.6946 98.8785 76.4685 98.6749 76.1797C98.4737 75.8885 98.3446 75.5511 98.2878 75.1676H99.1543C99.2324 75.5014 99.3875 75.7772 99.6195 75.995C99.8539 76.2105 100.163 76.3182 100.546 76.3182C101.107 76.3182 101.55 76.0732 101.874 75.5831C102.201 75.093 102.365 74.4006 102.365 73.5057H102.308C102.175 73.7045 102.018 73.8762 101.835 74.0206C101.653 74.165 101.451 74.2763 101.228 74.3544C101.006 74.4325 100.769 74.4716 100.518 74.4716C100.101 74.4716 99.7189 74.3686 99.3709 74.1626C99.0253 73.9543 98.7483 73.669 98.54 73.3068C98.334 72.9422 98.231 72.5256 98.231 72.0568C98.231 71.6117 98.3304 71.2045 98.5293 70.8352C98.7305 70.4635 99.0123 70.1676 99.3745 69.9474C99.7391 69.7273 100.168 69.6207 100.66 69.6278ZM100.66 70.4091C100.362 70.4091 100.093 70.4837 99.8539 70.6328C99.6171 70.7796 99.4289 70.9785 99.2892 71.2294C99.1519 71.478 99.0833 71.7538 99.0833 72.0568C99.0833 72.3598 99.1496 72.6357 99.2821 72.8842C99.4171 73.1304 99.6006 73.3269 99.8326 73.4737C100.067 73.6181 100.333 73.6903 100.632 73.6903C100.856 73.6903 101.066 73.6465 101.26 73.5589C101.454 73.469 101.624 73.3471 101.768 73.1932C101.915 73.0369 102.03 72.8606 102.112 72.6641C102.195 72.4652 102.237 72.258 102.237 72.0426C102.237 71.7585 102.168 71.4922 102.031 71.2436C101.896 70.995 101.709 70.7938 101.47 70.6399C101.233 70.486 100.963 70.4091 100.66 70.4091ZM108.292 75.6364V75.2528C108.292 74.9877 108.347 74.745 108.456 74.5249C108.567 74.3023 108.728 74.1248 108.939 73.9922C109.152 73.8572 109.41 73.7898 109.713 73.7898C110.02 73.7898 110.279 73.8572 110.487 73.9922C110.695 74.1248 110.853 74.3023 110.959 74.5249C111.066 74.745 111.119 74.9877 111.119 75.2528V75.6364C111.119 75.9015 111.065 76.1454 110.956 76.3679C110.849 76.5881 110.69 76.7656 110.48 76.9006C110.271 77.0331 110.016 77.0994 109.713 77.0994C109.405 77.0994 109.146 77.0331 108.935 76.9006C108.724 76.7656 108.565 76.5881 108.456 76.3679C108.347 76.1454 108.292 75.9015 108.292 75.6364ZM109.017 75.2528V75.6364C109.017 75.8565 109.069 76.0542 109.173 76.2294C109.277 76.4022 109.457 76.4886 109.713 76.4886C109.961 76.4886 110.136 76.4022 110.238 76.2294C110.342 76.0542 110.395 75.8565 110.395 75.6364V75.2528C110.395 75.0327 110.345 74.8362 110.245 74.6634C110.146 74.4882 109.968 74.4006 109.713 74.4006C109.464 74.4006 109.285 74.4882 109.176 74.6634C109.07 74.8362 109.017 75.0327 109.017 75.2528ZM104.67 71.4744V71.0909C104.67 70.8258 104.725 70.5831 104.833 70.3629C104.945 70.1404 105.106 69.9628 105.316 69.8303C105.529 69.6953 105.788 69.6278 106.091 69.6278C106.398 69.6278 106.656 69.6953 106.865 69.8303C107.073 69.9628 107.23 70.1404 107.337 70.3629C107.444 70.5831 107.497 70.8258 107.497 71.0909V71.4744C107.497 71.7396 107.442 71.9834 107.333 72.206C107.227 72.4261 107.068 72.6037 106.858 72.7386C106.649 72.8712 106.394 72.9375 106.091 72.9375C105.783 72.9375 105.524 72.8712 105.313 72.7386C105.102 72.6037 104.942 72.4261 104.833 72.206C104.725 71.9834 104.67 71.7396 104.67 71.4744ZM105.395 71.0909V71.4744C105.395 71.6946 105.447 71.8923 105.551 72.0675C105.655 72.2403 105.835 72.3267 106.091 72.3267C106.339 72.3267 106.514 72.2403 106.616 72.0675C106.72 71.8923 106.772 71.6946 106.772 71.4744V71.0909C106.772 70.8707 106.723 70.6742 106.623 70.5014C106.524 70.3262 106.346 70.2386 106.091 70.2386C105.842 70.2386 105.663 70.3262 105.554 70.5014C105.448 70.6742 105.395 70.8707 105.395 71.0909ZM104.94 77L109.94 69.7273H110.75L105.75 77H104.94Z" fill="white"/>
<path d="M116.856 73.2938C116.899 73.2501 116.951 73.2154 117.008 73.1917C117.065 73.1681 117.126 73.1559 117.188 73.1559C117.25 73.1559 117.311 73.1681 117.368 73.1917C117.425 73.2154 117.476 73.2501 117.52 73.2938L119.531 75.3051L119.531 69.5629C119.531 69.4386 119.581 69.3194 119.669 69.2315C119.756 69.1435 119.876 69.0942 120 69.0942C120.124 69.0942 120.244 69.1435 120.331 69.2315C120.419 69.3194 120.469 69.4386 120.469 69.5629L120.469 75.3051L122.481 73.2938C122.569 73.2057 122.688 73.1562 122.813 73.1562C122.937 73.1562 123.057 73.2057 123.145 73.2938C123.233 73.3818 123.282 73.5013 123.282 73.6258C123.282 73.7503 123.233 73.8698 123.145 73.9578L120.332 76.7703C120.289 76.814 120.237 76.8487 120.18 76.8724C120.123 76.896 120.062 76.9082 120 76.9082C119.939 76.9082 119.878 76.896 119.821 76.8724C119.764 76.8487 119.712 76.814 119.668 76.7703L116.856 73.9578C116.812 73.9143 116.778 73.8625 116.754 73.8056C116.73 73.7486 116.718 73.6875 116.718 73.6258C116.718 73.5641 116.73 73.503 116.754 73.446C116.778 73.3891 116.812 73.3373 116.856 73.2938Z" fill="white"/>
<g filter="url(#filter0_d_707_455)">
<path d="M10.6993 106.898L-5.00275 112.037C-8.51971 113.188 -10.7883 116.601 -10.4881 120.289L-4.59834 192.649C-4.26031 196.802 -0.791331 200 3.37529 200H145C149.418 200 153 196.418 153 192V134.205C153 127.865 145.977 124.044 140.654 127.489L135.638 130.734C131.417 133.465 125.754 131.673 123.873 127.011L122.185 122.828C119.683 116.627 111.127 116.051 107.816 121.861L93.8638 146.343C91.5251 150.447 86.1587 151.641 82.2998 148.917L71.2096 141.089C67.3473 138.363 61.9759 139.562 59.6405 143.673L57.9436 146.659C54.9939 151.851 47.6026 152.098 44.3122 147.116L19.8634 110.093C17.8771 107.085 14.1249 105.777 10.6993 106.898Z" fill="url(#paint1_linear_707_455)"/>
<path d="M10.6993 106.898L-5.00275 112.037C-8.51971 113.188 -10.7883 116.601 -10.4881 120.289L-4.59834 192.649C-4.26031 196.802 -0.791331 200 3.37529 200H145C149.418 200 153 196.418 153 192V134.205C153 127.865 145.977 124.044 140.654 127.489L135.638 130.734C131.417 133.465 125.754 131.673 123.873 127.011L122.185 122.828C119.683 116.627 111.127 116.051 107.816 121.861L93.8638 146.343C91.5251 150.447 86.1587 151.641 82.2998 148.917L71.2096 141.089C67.3473 138.363 61.9759 139.562 59.6405 143.673L57.9436 146.659C54.9939 151.851 47.6026 152.098 44.3122 147.116L19.8634 110.093C17.8771 107.085 14.1249 105.777 10.6993 106.898Z" stroke="white" stroke-width="3" stroke-linecap="round"/>
</g>
</g>
<rect y="212" width="152" height="104" rx="12" fill="#216ED7"/>
<path d="M33.472 242C33.104 242 32.792 241.972 32.536 241.916C32.288 241.852 32.084 241.752 31.924 241.616C31.772 241.472 31.66 241.292 31.588 241.076C31.516 240.852 31.48 240.576 31.48 240.248V240.044H31.42C31.308 240.404 31.116 240.676 30.844 240.86C30.58 241.036 30.26 241.124 29.884 241.124C29.348 241.124 28.928 240.98 28.624 240.692C28.328 240.404 28.18 239.996 28.18 239.468C28.18 239.244 28.216 239.036 28.288 238.844C28.36 238.644 28.476 238.452 28.636 238.268C28.804 238.076 29.016 237.888 29.272 237.704C29.528 237.512 29.84 237.312 30.208 237.104L31.42 236.408V235.808H32.26V240.128C32.26 240.456 32.344 240.68 32.512 240.8C32.68 240.912 32.94 240.968 33.292 240.968H33.712V241.76L33.472 242ZM30.064 240.092C30.552 240.092 30.9 240.024 31.108 239.888C31.316 239.744 31.42 239.492 31.42 239.132V237.38L30.208 238.028C29.784 238.26 29.48 238.476 29.296 238.676C29.112 238.868 29.02 239.092 29.02 239.348C29.02 239.604 29.096 239.792 29.248 239.912C29.408 240.032 29.68 240.092 30.064 240.092ZM31.804 234.812C31.644 234.812 31.516 234.768 31.42 234.68C31.324 234.584 31.276 234.432 31.276 234.224C31.276 234.016 31.324 233.868 31.42 233.78C31.516 233.684 31.644 233.636 31.804 233.636H31.936C32.096 233.636 32.224 233.684 32.32 233.78C32.416 233.868 32.464 234.016 32.464 234.224C32.464 234.432 32.416 234.584 32.32 234.68C32.224 234.768 32.096 234.812 31.936 234.812H31.804ZM30.256 234.812C30.096 234.812 29.968 234.768 29.872 234.68C29.776 234.584 29.728 234.432 29.728 234.224C29.728 234.016 29.776 233.868 29.872 233.78C29.968 233.684 30.096 233.636 30.256 233.636H30.388C30.548 233.636 30.676 233.684 30.772 233.78C30.868 233.868 30.916 234.016 30.916 234.224C30.916 234.432 30.868 234.584 30.772 234.68C30.676 234.768 30.548 234.812 30.388 234.812H30.256ZM33.467 241.208L33.707 240.968H34.127C34.807 240.968 35.147 240.628 35.147 239.948V233.12H36.035V239.948C36.035 240.628 36.375 240.968 37.055 240.968H37.475V241.76L37.235 242C36.099 242 35.435 241.608 35.243 240.824H35.183C35.095 241.264 34.923 241.572 34.667 241.748C34.411 241.916 34.011 242 33.467 242V241.208ZM37.2405 241.208L37.4805 240.968C37.7445 240.968 37.9445 240.956 38.0805 240.932C38.2245 240.908 38.3405 240.86 38.4285 240.788C38.4045 240.7 38.3885 240.612 38.3805 240.524C38.3725 240.436 38.3685 240.34 38.3685 240.236C38.3685 239.804 38.5085 239.412 38.7885 239.06C39.0765 238.7 39.5085 238.332 40.0845 237.956L40.6725 237.572H41.6085L42.4605 239.888C42.5405 240.104 42.6125 240.284 42.6765 240.428C42.7485 240.564 42.8245 240.672 42.9045 240.752C42.9925 240.832 43.0845 240.888 43.1805 240.92C43.2845 240.952 43.4045 240.968 43.5405 240.968H43.7685V241.76L43.5285 242C43.1525 242 42.8525 241.948 42.6285 241.844C42.4045 241.732 42.2045 241.516 42.0285 241.196L41.9565 241.22V242H40.5285C39.4965 242 38.8325 241.7 38.5365 241.1H38.4885C38.3845 241.404 38.2405 241.632 38.0565 241.784C37.8725 241.928 37.6005 242 37.2405 242V241.208ZM39.1605 240.128C39.1605 240.416 39.2765 240.628 39.5085 240.764C39.7405 240.9 40.1045 240.968 40.6005 240.968H41.9085C41.8205 240.784 41.7245 240.548 41.6205 240.26L40.9485 238.448L40.4925 238.724C40.1325 238.94 39.8205 239.164 39.5565 239.396C39.2925 239.628 39.1605 239.872 39.1605 240.128ZM43.5334 241.208L43.7734 240.968H44.1934C44.8734 240.968 45.2134 240.628 45.2134 239.948V238.052H46.0534V239.948C46.0534 240.628 46.3934 240.968 47.0734 240.968H47.4934V241.76L47.2534 242C46.1494 242 45.5014 241.608 45.3094 240.824H45.2494C45.1614 241.264 44.9894 241.572 44.7334 241.748C44.4774 241.916 44.0774 242 43.5334 242V241.208ZM46.3054 236.612C46.1454 236.612 46.0174 236.568 45.9214 236.48C45.8254 236.384 45.7774 236.232 45.7774 236.024C45.7774 235.816 45.8254 235.668 45.9214 235.58C46.0174 235.484 46.1454 235.436 46.3054 235.436H46.4374C46.5974 235.436 46.7254 235.484 46.8214 235.58C46.9174 235.668 46.9654 235.816 46.9654 236.024C46.9654 236.232 46.9174 236.384 46.8214 236.48C46.7254 236.568 46.5974 236.612 46.4374 236.612H46.3054ZM44.7574 236.612C44.5974 236.612 44.4694 236.568 44.3734 236.48C44.2774 236.384 44.2294 236.232 44.2294 236.024C44.2294 235.816 44.2774 235.668 44.3734 235.58C44.4694 235.484 44.5974 235.436 44.7574 235.436H44.8894C45.0494 235.436 45.1774 235.484 45.2734 235.58C45.3694 235.668 45.4174 235.816 45.4174 236.024C45.4174 236.232 45.3694 236.384 45.2734 236.48C45.1774 236.568 45.0494 236.612 44.8894 236.612H44.7574ZM47.2483 241.208L47.4883 240.968H48.5923C49.0003 240.968 49.2843 240.928 49.4443 240.848C49.6123 240.76 49.6963 240.612 49.6963 240.404C49.6963 240.34 49.6843 240.276 49.6603 240.212C49.6443 240.14 49.6123 240.064 49.5643 239.984C49.5163 239.896 49.4523 239.796 49.3723 239.684C49.2923 239.572 49.1883 239.436 49.0603 239.276L47.6083 237.464V235.376L52.7923 232.988V234.08L48.0283 236.288V236.348L50.6923 239.66C50.9003 239.924 51.0883 240.14 51.2563 240.308C51.4323 240.476 51.6003 240.608 51.7603 240.704C51.9283 240.8 52.1043 240.868 52.2883 240.908C52.4723 240.948 52.6803 240.968 52.9123 240.968V241.76L52.6723 242C52.3843 242 52.1323 241.98 51.9163 241.94C51.7083 241.9 51.5123 241.828 51.3283 241.724C51.1523 241.62 50.9803 241.476 50.8123 241.292C50.6443 241.108 50.4603 240.876 50.2603 240.596L50.0563 240.308L50.0083 240.332C50.0163 240.388 50.0203 240.444 50.0203 240.5C50.0283 240.548 50.0323 240.596 50.0323 240.644C50.0323 241.068 49.9003 241.4 49.6363 241.64C49.3803 241.88 49.0323 242 48.5923 242H47.2483V241.208ZM55.2421 242.408C54.9861 242.264 54.7501 242.16 54.5341 242.096C54.3181 242.04 54.0581 242.008 53.7541 242H52.6741V241.208L52.9141 240.968H53.8141V233.12H54.7021V241.076C54.8781 241.116 55.0501 241.172 55.2181 241.244C55.3861 241.316 55.5661 241.404 55.7581 241.508L56.3701 241.856L55.8541 242.756L55.2421 242.408ZM56.8141 233.12H57.7021V242H56.8141V233.12ZM66.9056 242C66.5376 242 66.2256 241.972 65.9696 241.916C65.7216 241.852 65.5176 241.752 65.3576 241.616C65.2056 241.472 65.0936 241.292 65.0216 241.076C64.9496 240.852 64.9136 240.576 64.9136 240.248V240.044H64.8536C64.7416 240.404 64.5496 240.676 64.2776 240.86C64.0136 241.036 63.6936 241.124 63.3176 241.124C62.7816 241.124 62.3616 240.98 62.0576 240.692C61.7616 240.404 61.6136 239.996 61.6136 239.468C61.6136 239.244 61.6496 239.036 61.7216 238.844C61.7936 238.644 61.9096 238.452 62.0696 238.268C62.2376 238.076 62.4496 237.888 62.7056 237.704C62.9616 237.512 63.2736 237.312 63.6416 237.104L64.8536 236.408V235.808H65.6936V240.128C65.6936 240.456 65.7776 240.68 65.9456 240.8C66.1136 240.912 66.3736 240.968 66.7256 240.968H67.1456V241.76L66.9056 242ZM63.4976 240.092C63.9856 240.092 64.3336 240.024 64.5416 239.888C64.7496 239.744 64.8536 239.492 64.8536 239.132V237.38L63.6416 238.028C63.2176 238.26 62.9136 238.476 62.7296 238.676C62.5456 238.868 62.4536 239.092 62.4536 239.348C62.4536 239.604 62.5296 239.792 62.6816 239.912C62.8416 240.032 63.1136 240.092 63.4976 240.092ZM65.2376 234.812C65.0776 234.812 64.9496 234.768 64.8536 234.68C64.7576 234.584 64.7096 234.432 64.7096 234.224C64.7096 234.016 64.7576 233.868 64.8536 233.78C64.9496 233.684 65.0776 233.636 65.2376 233.636H65.3696C65.5296 233.636 65.6576 233.684 65.7536 233.78C65.8496 233.868 65.8976 234.016 65.8976 234.224C65.8976 234.432 65.8496 234.584 65.7536 234.68C65.6576 234.768 65.5296 234.812 65.3696 234.812H65.2376ZM63.6896 234.812C63.5296 234.812 63.4016 234.768 63.3056 234.68C63.2096 234.584 63.1616 234.432 63.1616 234.224C63.1616 234.016 63.2096 233.868 63.3056 233.78C63.4016 233.684 63.5296 233.636 63.6896 233.636H63.8216C63.9816 233.636 64.1096 233.684 64.2056 233.78C64.3016 233.868 64.3496 234.016 64.3496 234.224C64.3496 234.432 64.3016 234.584 64.2056 234.68C64.1096 234.768 63.9816 234.812 63.8216 234.812H63.6896ZM66.9006 241.208L67.1406 240.968H67.5606C68.2406 240.968 68.5806 240.628 68.5806 239.948V238.052H69.4206V239.948C69.4206 240.628 69.7606 240.968 70.4406 240.968H70.8606V241.76L70.6206 242C69.5166 242 68.8686 241.608 68.6766 240.824H68.6166C68.5286 241.264 68.3566 241.572 68.1006 241.748C67.8446 241.916 67.4446 242 66.9006 242V241.208ZM69.7086 244.4C69.5486 244.4 69.4206 244.352 69.3246 244.256C69.2286 244.168 69.1806 244.02 69.1806 243.812C69.1806 243.604 69.2286 243.452 69.3246 243.356C69.4206 243.268 69.5486 243.224 69.7086 243.224H69.8406C70.0006 243.224 70.1286 243.268 70.2246 243.356C70.3206 243.452 70.3686 243.604 70.3686 243.812C70.3686 244.02 70.3206 244.168 70.2246 244.256C70.1286 244.352 70.0006 244.4 69.8406 244.4H69.7086ZM68.1606 244.4C68.0006 244.4 67.8726 244.352 67.7766 244.256C67.6806 244.168 67.6326 244.02 67.6326 243.812C67.6326 243.604 67.6806 243.452 67.7766 243.356C67.8726 243.268 68.0006 243.224 68.1606 243.224H68.2926C68.4526 243.224 68.5806 243.268 68.6766 243.356C68.7726 243.452 68.8206 243.604 68.8206 243.812C68.8206 244.02 68.7726 244.168 68.6766 244.256C68.5806 244.352 68.4526 244.4 68.2926 244.4H68.1606ZM70.6155 241.208L70.8555 240.968H71.2755C71.9555 240.968 72.2955 240.628 72.2955 239.948V238.052H73.1355V239.948C73.1355 240.628 73.4755 240.968 74.1555 240.968H74.5755V241.76L74.3355 242C73.2315 242 72.5835 241.608 72.3915 240.824H72.3315C72.2435 241.264 72.0715 241.572 71.8155 241.748C71.5595 241.916 71.1595 242 70.6155 242V241.208ZM72.6435 244.4C72.4835 244.4 72.3555 244.352 72.2595 244.256C72.1635 244.168 72.1155 244.02 72.1155 243.812C72.1155 243.604 72.1635 243.452 72.2595 243.356C72.3555 243.268 72.4835 243.224 72.6435 243.224H72.7755C72.9355 243.224 73.0635 243.268 73.1595 243.356C73.2555 243.452 73.3035 243.604 73.3035 243.812C73.3035 244.02 73.2555 244.168 73.1595 244.256C73.0635 244.352 72.9355 244.4 72.7755 244.4H72.6435ZM74.3303 241.208L74.5703 240.968H74.7503C75.2783 240.968 75.6583 240.904 75.8903 240.776C76.1303 240.64 76.2503 240.384 76.2503 240.008C76.2503 239.864 76.2383 239.68 76.2143 239.456C76.1983 239.232 76.1583 238.936 76.0943 238.568L75.9263 237.572L76.7663 237.44L76.9103 238.436C76.9663 238.828 77.0063 239.148 77.0303 239.396C77.0543 239.644 77.0663 239.848 77.0663 240.008C77.0663 240.68 76.8663 241.18 76.4663 241.508C76.0743 241.836 75.5023 242 74.7503 242H74.3303V241.208ZM76.9343 244.4C76.7743 244.4 76.6463 244.352 76.5503 244.256C76.4543 244.168 76.4063 244.02 76.4063 243.812C76.4063 243.604 76.4543 243.452 76.5503 243.356C76.6463 243.268 76.7743 243.224 76.9343 243.224H77.0663C77.2263 243.224 77.3543 243.268 77.4503 243.356C77.5463 243.452 77.5943 243.604 77.5943 243.812C77.5943 244.02 77.5463 244.168 77.4503 244.256C77.3543 244.352 77.2263 244.4 77.0663 244.4H76.9343ZM75.3863 244.4C75.2263 244.4 75.0983 244.352 75.0023 244.256C74.9063 244.168 74.8583 244.02 74.8583 243.812C74.8583 243.604 74.9063 243.452 75.0023 243.356C75.0983 243.268 75.2263 243.224 75.3863 243.224H75.5183C75.6783 243.224 75.8063 243.268 75.9023 243.356C75.9983 243.452 76.0463 243.604 76.0463 243.812C76.0463 244.02 75.9983 244.168 75.9023 244.256C75.8063 244.352 75.6783 244.4 75.5183 244.4H75.3863ZM77.9636 243.848H78.4076C78.8476 243.848 79.2076 243.784 79.4876 243.656C79.7676 243.528 79.9876 243.356 80.1476 243.14C80.3076 242.932 80.4196 242.684 80.4836 242.396C80.5476 242.116 80.5796 241.82 80.5796 241.508C80.5796 241.276 80.5676 241.036 80.5436 240.788C80.5196 240.532 80.4876 240.288 80.4476 240.056L80.1956 238.7L81.0356 238.532L81.1916 239.444C81.3196 240.18 81.3836 240.876 81.3836 241.532C81.3836 241.972 81.3356 242.392 81.2396 242.792C81.1436 243.2 80.9796 243.556 80.7476 243.86C80.5236 244.172 80.2196 244.42 79.8356 244.604C79.4596 244.788 78.9836 244.88 78.4076 244.88H77.9636V243.848ZM83.2154 242C82.9274 242 82.6874 241.916 82.4954 241.748C82.3114 241.572 82.2194 241.316 82.2194 240.98V240.056H83.0594V240.968H84.6794C84.9514 240.968 85.1754 240.96 85.3514 240.944C85.5274 240.928 85.6674 240.904 85.7714 240.872C85.8754 240.832 85.9474 240.78 85.9874 240.716C86.0274 240.652 86.0474 240.568 86.0474 240.464C86.0474 240.368 86.0274 240.252 85.9874 240.116C85.9474 239.98 85.8754 239.772 85.7714 239.492L84.6194 236.324L85.4714 236.012L86.6954 239.372C86.8154 239.692 86.9194 239.956 87.0074 240.164C87.1034 240.364 87.1994 240.524 87.2954 240.644C87.3914 240.764 87.4874 240.848 87.5834 240.896C87.6874 240.944 87.8034 240.968 87.9314 240.968H88.2314V241.76L87.9914 242C87.7754 242 87.5834 241.98 87.4154 241.94C87.2554 241.9 87.1114 241.84 86.9834 241.76C86.8554 241.672 86.7394 241.56 86.6354 241.424C86.5314 241.288 86.4314 241.12 86.3354 240.92H86.2754C86.2274 241.312 86.0754 241.592 85.8194 241.76C85.5634 241.92 85.1834 242 84.6794 242H83.2154ZM87.9944 241.208L88.2344 240.968H88.6544C89.3344 240.968 89.6744 240.628 89.6744 239.948V238.052H90.5144V239.948C90.5144 240.628 90.8544 240.968 91.5344 240.968H91.9544V241.76L91.7144 242C90.6104 242 89.9624 241.608 89.7704 240.824H89.7104C89.6224 241.264 89.4504 241.572 89.1944 241.748C88.9384 241.916 88.5384 242 87.9944 242V241.208ZM90.7664 236.612C90.6064 236.612 90.4784 236.568 90.3824 236.48C90.2864 236.384 90.2384 236.232 90.2384 236.024C90.2384 235.816 90.2864 235.668 90.3824 235.58C90.4784 235.484 90.6064 235.436 90.7664 235.436H90.8984C91.0584 235.436 91.1864 235.484 91.2824 235.58C91.3784 235.668 91.4264 235.816 91.4264 236.024C91.4264 236.232 91.3784 236.384 91.2824 236.48C91.1864 236.568 91.0584 236.612 90.8984 236.612H90.7664ZM89.2184 236.612C89.0584 236.612 88.9304 236.568 88.8344 236.48C88.7384 236.384 88.6904 236.232 88.6904 236.024C88.6904 235.816 88.7384 235.668 88.8344 235.58C88.9304 235.484 89.0584 235.436 89.2184 235.436H89.3504C89.5104 235.436 89.6384 235.484 89.7344 235.58C89.8304 235.668 89.8784 235.816 89.8784 236.024C89.8784 236.232 89.8304 236.384 89.7344 236.48C89.6384 236.568 89.5104 236.612 89.3504 236.612H89.2184ZM91.7092 241.208L91.9492 240.968H92.2972C92.6812 240.968 92.9572 240.88 93.1252 240.704C93.3012 240.528 93.3892 240.248 93.3892 239.864V233.12H94.2772V239.864C94.2772 240.6 94.1172 241.14 93.7972 241.484C93.4852 241.828 92.9852 242 92.2972 242H91.7092V241.208ZM96.0719 233.12H96.9599V242H96.0719V233.12ZM104.555 245.648C104.027 245.648 103.547 245.572 103.115 245.42C102.691 245.268 102.331 245.044 102.035 244.748C101.739 244.46 101.511 244.104 101.351 243.68C101.191 243.264 101.111 242.788 101.111 242.252C101.111 241.908 101.159 241.572 101.255 241.244C101.359 240.908 101.531 240.588 101.771 240.284C102.019 239.972 102.347 239.676 102.755 239.396C103.163 239.116 103.671 238.856 104.279 238.616L106.739 237.656V237.608L102.419 237.452V238.388H101.579V237.464C101.579 237.104 101.695 236.844 101.927 236.684C102.159 236.516 102.483 236.444 102.899 236.468L107.471 236.744V238.328L106.895 238.544V239.888C106.895 240.288 106.983 240.568 107.159 240.728C107.335 240.888 107.607 240.968 107.975 240.968H108.395V241.76L108.155 242C107.787 242 107.475 241.964 107.219 241.892C106.971 241.82 106.767 241.708 106.607 241.556C106.455 241.396 106.343 241.192 106.271 240.944C106.207 240.688 106.175 240.376 106.175 240.008V238.82L104.387 239.492C103.563 239.796 102.959 240.144 102.575 240.536C102.191 240.928 101.999 241.412 101.999 241.988V242.276C101.999 243.004 102.227 243.568 102.683 243.968C103.147 244.368 103.771 244.568 104.555 244.568C105.131 244.568 105.643 244.472 106.091 244.28C106.539 244.096 106.967 243.792 107.375 243.368L108.023 244.172C107.775 244.428 107.523 244.648 107.267 244.832C107.011 245.024 106.743 245.18 106.463 245.3C106.183 245.42 105.883 245.508 105.563 245.564C105.251 245.62 104.915 245.648 104.555 245.648ZM104.447 242.444C104.287 242.444 104.159 242.396 104.063 242.3C103.967 242.212 103.919 242.064 103.919 241.856C103.919 241.648 103.967 241.5 104.063 241.412C104.159 241.316 104.287 241.268 104.447 241.268H104.579C104.739 241.268 104.867 241.316 104.963 241.412C105.059 241.5 105.107 241.648 105.107 241.856C105.107 242.064 105.059 242.212 104.963 242.3C104.867 242.396 104.739 242.444 104.579 242.444H104.447ZM109.723 241.304C109.539 241.552 109.323 241.732 109.075 241.844C108.835 241.948 108.527 242 108.151 242V241.208L108.391 240.968C108.543 240.968 108.671 240.948 108.775 240.908C108.887 240.868 108.983 240.808 109.063 240.728C109.151 240.64 109.227 240.528 109.291 240.392C109.363 240.248 109.435 240.08 109.507 239.888L109.843 239C110.027 238.52 110.271 238.152 110.575 237.896C110.879 237.632 111.283 237.5 111.787 237.5C112.379 237.5 112.835 237.768 113.155 238.304C113.483 238.84 113.647 239.584 113.647 240.536V241.1L112.939 242.144L109.723 241.304ZM110.203 240.356L112.807 241.052V240.536C112.807 239.912 112.703 239.424 112.495 239.072C112.295 238.712 112.011 238.532 111.643 238.532C111.339 238.532 111.103 238.624 110.935 238.808C110.775 238.992 110.639 239.224 110.527 239.504L110.203 240.356ZM115.091 233.12H115.979V242H115.091V233.12ZM116.155 243.848H116.599C117.039 243.848 117.399 243.784 117.679 243.656C117.959 243.528 118.179 243.356 118.339 243.14C118.499 242.932 118.611 242.684 118.675 242.396C118.739 242.116 118.771 241.82 118.771 241.508C118.771 241.276 118.759 241.036 118.735 240.788C118.711 240.532 118.679 240.288 118.639 240.056L118.387 238.7L119.227 238.532L119.371 239.396L121.483 239.036V238.052H122.323V240.128C122.323 240.432 122.407 240.648 122.575 240.776C122.743 240.904 123.003 240.968 123.355 240.968H123.775V241.76L123.535 242H123.511C123.143 242 122.831 241.968 122.575 241.904C122.319 241.832 122.107 241.724 121.939 241.58C121.779 241.428 121.663 241.232 121.591 240.992C121.519 240.752 121.483 240.464 121.483 240.128V240.032L119.515 240.368C119.531 240.568 119.543 240.764 119.551 240.956C119.567 241.148 119.575 241.34 119.575 241.532C119.575 241.972 119.527 242.392 119.431 242.792C119.335 243.2 119.171 243.556 118.939 243.86C118.715 244.172 118.411 244.42 118.027 244.604C117.651 244.788 117.175 244.88 116.599 244.88H116.155V243.848ZM121.831 244.4C121.671 244.4 121.543 244.352 121.447 244.256C121.351 244.168 121.303 244.02 121.303 243.812C121.303 243.604 121.351 243.452 121.447 243.356C121.543 243.268 121.671 243.224 121.831 243.224H121.963C122.123 243.224 122.251 243.268 122.347 243.356C122.443 243.452 122.491 243.604 122.491 243.812C122.491 244.02 122.443 244.168 122.347 244.256C122.251 244.352 122.123 244.4 121.963 244.4H121.831ZM123.537 241.208L123.777 240.968H124.125C124.509 240.968 124.785 240.88 124.953 240.704C125.129 240.528 125.217 240.248 125.217 239.864V233.12H126.105V239.864C126.105 240.6 125.945 241.14 125.625 241.484C125.313 241.828 124.813 242 124.125 242H123.537V241.208ZM127.9 233.12H128.788V242H127.9V233.12Z" fill="#E9E9E9"/>
<path d="M74.22 270.04C73.78 270.04 73.38 269.977 73.02 269.85C72.6667 269.723 72.3667 269.537 72.12 269.29C71.8733 269.05 71.6833 268.753 71.55 268.4C71.4167 268.053 71.35 267.657 71.35 267.21C71.35 266.923 71.39 266.643 71.47 266.37C71.5567 266.09 71.7 265.823 71.9 265.57C72.1067 265.31 72.38 265.063 72.72 264.83C73.06 264.597 73.4833 264.38 73.99 264.18L76.04 263.38V263.34L72.44 263.21V263.99H71.74V263.22C71.74 262.92 71.8367 262.703 72.03 262.57C72.2233 262.43 72.4933 262.37 72.84 262.39L76.65 262.62V263.94L76.17 264.12V265.24C76.17 265.573 76.2433 265.807 76.39 265.94C76.5367 266.073 76.7633 266.14 77.07 266.14H77.42V266.8L77.22 267C76.9133 267 76.6533 266.97 76.44 266.91C76.2333 266.85 76.0633 266.757 75.93 266.63C75.8033 266.497 75.71 266.327 75.65 266.12C75.5967 265.907 75.57 265.647 75.57 265.34V264.35L74.08 264.91C73.3933 265.163 72.89 265.453 72.57 265.78C72.25 266.107 72.09 266.51 72.09 266.99V267.23C72.09 267.837 72.28 268.307 72.66 268.64C73.0467 268.973 73.5667 269.14 74.22 269.14C74.7 269.14 75.1267 269.06 75.5 268.9C75.8733 268.747 76.23 268.493 76.57 268.14L77.11 268.81C76.9033 269.023 76.6933 269.207 76.48 269.36C76.2667 269.52 76.0433 269.65 75.81 269.75C75.5767 269.85 75.3267 269.923 75.06 269.97C74.8 270.017 74.52 270.04 74.22 270.04ZM74.13 267.37C73.9967 267.37 73.89 267.33 73.81 267.25C73.73 267.177 73.69 267.053 73.69 266.88C73.69 266.707 73.73 266.583 73.81 266.51C73.89 266.43 73.9967 266.39 74.13 266.39H74.24C74.3733 266.39 74.48 266.43 74.56 266.51C74.64 266.583 74.68 266.707 74.68 266.88C74.68 267.053 74.64 267.177 74.56 267.25C74.48 267.33 74.3733 267.37 74.24 267.37H74.13ZM78.526 266.42C78.3727 266.627 78.1927 266.777 77.986 266.87C77.786 266.957 77.5293 267 77.216 267V266.34L77.416 266.14C77.5427 266.14 77.6493 266.123 77.736 266.09C77.8293 266.057 77.9093 266.007 77.976 265.94C78.0493 265.867 78.1127 265.773 78.166 265.66C78.226 265.54 78.286 265.4 78.346 265.24L78.626 264.5C78.7793 264.1 78.9827 263.793 79.236 263.58C79.4893 263.36 79.826 263.25 80.246 263.25C80.7393 263.25 81.1193 263.473 81.386 263.92C81.6593 264.367 81.796 264.987 81.796 265.78V266.25L81.206 267.12L78.526 266.42ZM78.926 265.63L81.096 266.21V265.78C81.096 265.26 81.0093 264.853 80.836 264.56C80.6693 264.26 80.4327 264.11 80.126 264.11C79.8727 264.11 79.676 264.187 79.536 264.34C79.4027 264.493 79.2893 264.687 79.196 264.92L78.926 265.63ZM84.74 267C84.42 267 84.1467 266.973 83.92 266.92C83.7 266.867 83.52 266.78 83.38 266.66C83.2467 266.533 83.15 266.37 83.09 266.17C83.03 265.97 83 265.727 83 265.44V259.6H83.74V265.44C83.74 265.693 83.81 265.873 83.95 265.98C84.09 266.087 84.3067 266.14 84.6 266.14H84.95V266.8L84.75 267H84.74ZM84.7453 266.34L84.9453 266.14H85.0953C85.5353 266.14 85.852 266.087 86.0453 265.98C86.2453 265.867 86.3453 265.653 86.3453 265.34C86.3453 265.22 86.3353 265.067 86.3153 264.88C86.302 264.693 86.2686 264.447 86.2153 264.14L86.0753 263.31L86.7753 263.2L86.8953 264.03C86.942 264.357 86.9753 264.623 86.9953 264.83C87.0153 265.037 87.0253 265.207 87.0253 265.34C87.0253 265.9 86.8586 266.317 86.5253 266.59C86.1986 266.863 85.722 267 85.0953 267H84.7453V266.34ZM86.2553 262C86.122 262 86.0153 261.963 85.9353 261.89C85.8553 261.81 85.8153 261.683 85.8153 261.51C85.8153 261.337 85.8553 261.213 85.9353 261.14C86.0153 261.06 86.122 261.02 86.2553 261.02H86.3653C86.4986 261.02 86.6053 261.06 86.6853 261.14C86.7653 261.213 86.8053 261.337 86.8053 261.51C86.8053 261.683 86.7653 261.81 86.6853 261.89C86.6053 261.963 86.4986 262 86.3653 262H86.2553ZM86.8746 268.54H87.2446C87.6113 268.54 87.9113 268.487 88.1446 268.38C88.3779 268.273 88.5613 268.13 88.6946 267.95C88.8279 267.777 88.9213 267.57 88.9746 267.33C89.0279 267.097 89.0546 266.85 89.0546 266.59C89.0546 266.397 89.0446 266.197 89.0246 265.99C89.0046 265.777 88.9779 265.573 88.9446 265.38L88.7346 264.25L89.4346 264.11L89.5646 264.87C89.6046 265.103 89.6346 265.323 89.6546 265.53C89.6813 265.737 89.7013 265.94 89.7146 266.14H90.6646V266.8L90.4646 267H89.7046C89.6779 267.327 89.6146 267.633 89.5146 267.92C89.4213 268.213 89.2779 268.47 89.0846 268.69C88.8979 268.91 88.6513 269.083 88.3446 269.21C88.0446 269.337 87.6779 269.4 87.2446 269.4H86.8746V268.54ZM90.468 266.34L90.668 266.14H90.818C91.258 266.14 91.5746 266.087 91.768 265.98C91.968 265.867 92.068 265.653 92.068 265.34C92.068 265.22 92.058 265.067 92.038 264.88C92.0246 264.693 91.9913 264.447 91.938 264.14L91.798 263.31L92.498 263.2L92.618 264.03C92.6646 264.357 92.698 264.623 92.718 264.83C92.738 265.037 92.748 265.207 92.748 265.34C92.748 265.9 92.5813 266.317 92.248 266.59C91.9213 266.863 91.4446 267 90.818 267H90.468V266.34ZM91.988 269C91.8546 269 91.748 268.96 91.668 268.88C91.588 268.807 91.548 268.683 91.548 268.51C91.548 268.337 91.588 268.21 91.668 268.13C91.748 268.057 91.8546 268.02 91.988 268.02H92.098C92.2313 268.02 92.338 268.057 92.418 268.13C92.498 268.21 92.538 268.337 92.538 268.51C92.538 268.683 92.498 268.807 92.418 268.88C92.338 268.96 92.2313 269 92.098 269H91.988Z" fill="#E9E9E9"/>
<path d="M98.1506 267.932V265.026L105.438 253.545H107.943V257.568H106.46L101.866 264.838V264.974H112.222V267.932H98.1506ZM106.528 271V267.045L106.597 265.759V253.545H110.057V271H106.528ZM121.132 271.239C119.859 271.239 118.726 271.02 117.732 270.582C116.743 270.139 115.962 269.531 115.388 268.759C114.82 267.98 114.527 267.082 114.51 266.065H118.226C118.249 266.491 118.388 266.866 118.643 267.19C118.905 267.509 119.251 267.756 119.683 267.932C120.115 268.108 120.601 268.196 121.141 268.196C121.703 268.196 122.2 268.097 122.632 267.898C123.064 267.699 123.402 267.423 123.646 267.071C123.891 266.719 124.013 266.312 124.013 265.852C124.013 265.386 123.882 264.974 123.621 264.616C123.365 264.253 122.996 263.969 122.513 263.764C122.036 263.56 121.467 263.457 120.808 263.457H119.18V260.747H120.808C121.365 260.747 121.857 260.651 122.283 260.457C122.714 260.264 123.05 259.997 123.288 259.656C123.527 259.31 123.646 258.906 123.646 258.446C123.646 258.009 123.541 257.625 123.331 257.295C123.126 256.96 122.837 256.699 122.462 256.511C122.092 256.324 121.661 256.23 121.166 256.23C120.666 256.23 120.209 256.321 119.794 256.503C119.379 256.679 119.047 256.932 118.797 257.261C118.547 257.591 118.413 257.977 118.396 258.42H114.859C114.876 257.415 115.163 256.528 115.72 255.761C116.277 254.994 117.027 254.395 117.97 253.963C118.919 253.526 119.99 253.307 121.183 253.307C122.388 253.307 123.442 253.526 124.345 253.963C125.249 254.401 125.95 254.991 126.45 255.736C126.956 256.474 127.206 257.304 127.2 258.224C127.206 259.202 126.902 260.017 126.288 260.67C125.68 261.324 124.888 261.739 123.911 261.915V262.051C125.195 262.216 126.172 262.662 126.842 263.389C127.518 264.111 127.854 265.014 127.848 266.099C127.854 267.094 127.567 267.977 126.987 268.75C126.413 269.523 125.621 270.131 124.609 270.574C123.598 271.017 122.439 271.239 121.132 271.239Z" fill="white"/>
<rect x="17" y="281" width="44" height="18" rx="6" fill="white" fill-opacity="0.25"/>
<path d="M26.3097 286.727V294H25.429V287.651H25.3864L23.6108 288.83V287.935L25.429 286.727H26.3097ZM28.4013 294V293.361L30.8018 290.733C31.0836 290.425 31.3156 290.158 31.4979 289.93C31.6802 289.701 31.8151 289.485 31.9027 289.284C31.9927 289.08 32.0376 288.867 32.0376 288.645C32.0376 288.389 31.9761 288.168 31.853 287.981C31.7322 287.794 31.5665 287.649 31.3558 287.548C31.1451 287.446 30.9084 287.395 30.6456 287.395C30.3662 287.395 30.1224 287.453 29.9141 287.569C29.7081 287.683 29.5483 287.842 29.4347 288.048C29.3234 288.254 29.2678 288.496 29.2678 288.773H28.4297C28.4297 288.347 28.5279 287.973 28.7244 287.651C28.9209 287.329 29.1884 287.078 29.527 286.898C29.8679 286.718 30.2502 286.628 30.674 286.628C31.1001 286.628 31.4777 286.718 31.8068 286.898C32.1359 287.078 32.3939 287.32 32.581 287.626C32.768 287.931 32.8615 288.271 32.8615 288.645C32.8615 288.912 32.813 289.174 32.7159 289.43C32.6212 289.683 32.4555 289.966 32.2188 290.278C31.9844 290.589 31.6589 290.967 31.2422 291.415L29.6087 293.162V293.219H32.9893V294H28.4013ZM38.1634 292.636V292.253C38.1634 291.988 38.2178 291.745 38.3267 291.525C38.438 291.302 38.599 291.125 38.8097 290.992C39.0227 290.857 39.2808 290.79 39.5838 290.79C39.8916 290.79 40.1496 290.857 40.358 290.992C40.5663 291.125 40.7237 291.302 40.8303 291.525C40.9368 291.745 40.9901 291.988 40.9901 292.253V292.636C40.9901 292.902 40.9356 293.145 40.8267 293.368C40.7202 293.588 40.5616 293.766 40.3509 293.901C40.1425 294.033 39.8868 294.099 39.5838 294.099C39.276 294.099 39.0168 294.033 38.8061 293.901C38.5954 293.766 38.4356 293.588 38.3267 293.368C38.2178 293.145 38.1634 292.902 38.1634 292.636ZM38.8878 292.253V292.636C38.8878 292.857 38.9399 293.054 39.044 293.229C39.1482 293.402 39.3281 293.489 39.5838 293.489C39.8324 293.489 40.0076 293.402 40.1094 293.229C40.2135 293.054 40.2656 292.857 40.2656 292.636V292.253C40.2656 292.033 40.2159 291.836 40.1165 291.663C40.017 291.488 39.8395 291.401 39.5838 291.401C39.3352 291.401 39.1565 291.488 39.0476 291.663C38.9411 291.836 38.8878 292.033 38.8878 292.253ZM34.5412 288.474V288.091C34.5412 287.826 34.5956 287.583 34.7045 287.363C34.8158 287.14 34.9768 286.963 35.1875 286.83C35.4006 286.695 35.6586 286.628 35.9616 286.628C36.2694 286.628 36.5275 286.695 36.7358 286.83C36.9441 286.963 37.1016 287.14 37.2081 287.363C37.3146 287.583 37.3679 287.826 37.3679 288.091V288.474C37.3679 288.74 37.3134 288.983 37.2045 289.206C37.098 289.426 36.9394 289.604 36.7287 289.739C36.5204 289.871 36.2647 289.938 35.9616 289.938C35.6539 289.938 35.3946 289.871 35.1839 289.739C34.9732 289.604 34.8134 289.426 34.7045 289.206C34.5956 288.983 34.5412 288.74 34.5412 288.474ZM35.2656 288.091V288.474C35.2656 288.695 35.3177 288.892 35.4219 289.067C35.526 289.24 35.706 289.327 35.9616 289.327C36.2102 289.327 36.3854 289.24 36.4872 289.067C36.5914 288.892 36.6435 288.695 36.6435 288.474V288.091C36.6435 287.871 36.5938 287.674 36.4943 287.501C36.3949 287.326 36.2173 287.239 35.9616 287.239C35.7131 287.239 35.5343 287.326 35.4254 287.501C35.3189 287.674 35.2656 287.871 35.2656 288.091ZM34.8111 294L39.8111 286.727H40.6207L35.6207 294H34.8111Z" fill="white"/>
<path d="M53.1441 289.706C53.1006 289.75 53.0488 289.785 52.9919 289.808C52.9349 289.832 52.8738 289.844 52.8121 289.844C52.7504 289.844 52.6893 289.832 52.6323 289.808C52.5754 289.785 52.5236 289.75 52.4801 289.706L50.4687 287.695V293.437C50.4687 293.561 50.4193 293.681 50.3314 293.769C50.2435 293.856 50.1243 293.906 50 293.906C49.8757 293.906 49.7564 293.856 49.6685 293.769C49.5806 293.681 49.5312 293.561 49.5312 293.437V287.695L47.5191 289.706C47.4311 289.794 47.3116 289.844 47.1871 289.844C47.0626 289.844 46.9431 289.794 46.8551 289.706C46.767 289.618 46.7175 289.499 46.7175 289.374C46.7175 289.25 46.767 289.13 46.8551 289.042L49.6676 286.23C49.7111 286.186 49.7629 286.151 49.8198 286.128C49.8768 286.104 49.9379 286.092 49.9996 286.092C50.0613 286.092 50.1224 286.104 50.1794 286.128C50.2363 286.151 50.2881 286.186 50.3316 286.23L53.1441 289.042C53.1878 289.086 53.2225 289.137 53.2462 289.194C53.2698 289.251 53.282 289.313 53.282 289.374C53.282 289.436 53.2698 289.497 53.2462 289.554C53.2225 289.611 53.1878 289.663 53.1441 289.706Z" fill="white"/>
<path d="M84.5 296.5L88.543 292.962C90.5327 291.221 93.634 291.855 94.781 294.237L96.5542 297.92C97.7495 300.403 101.038 300.962 102.987 299.013L106.432 295.568C107.889 294.111 110.213 293.999 111.803 295.309L114.498 297.528C116.169 298.904 118.633 298.701 120.056 297.068L134.5 280.5" stroke="white" stroke-width="3" stroke-linecap="round"/>
<defs>
<filter id="filter0_d_707_455" x="-30.0146" y="83.001" width="202.515" height="132.499" filterUnits="userSpaceOnUse" color-interpolation-filters="sRGB">
<feFlood flood-opacity="0" result="BackgroundImageFix"/>
<feColorMatrix in="SourceAlpha" type="matrix" values="0 0 0 0 0 0 0 0 0 0 0 0 0 0 0 0 0 0 127 0" result="hardAlpha"/>
<feOffset dy="-4"/>
<feGaussianBlur stdDeviation="9"/>
<feComposite in2="hardAlpha" operator="out"/>
<feColorMatrix type="matrix" values="0 0 0 0 0 0 0 0 0 0 0 0 0 0 0 0 0 0 0.15 0"/>
<feBlend mode="normal" in2="BackgroundImageFix" result="effect1_dropShadow_707_455"/>
<feBlend mode="normal" in="SourceGraphic" in2="effect1_dropShadow_707_455" result="shape"/>
</filter>
<linearGradient id="paint0_linear_707_455" x1="3.92258" y1="195" x2="137.528" y2="179.662" gradientUnits="userSpaceOnUse">
<stop stop-color="#313860"/>
<stop offset="1" stop-color="#151928"/>
</linearGradient>
<linearGradient id="paint1_linear_707_455" x1="68" y1="83.5" x2="68" y2="215.5" gradientUnits="userSpaceOnUse">
<stop stop-color="white"/>
<stop offset="1" stop-color="#172B85"/>
</linearGradient>
<clipPath id="clip0_707_455">
<rect width="152" height="195" rx="12" fill="white"/>
</clipPath>
</defs>
</svg>
