<svg xmlns="http://www.w3.org/2000/svg" xmlns:xlink="http://www.w3.org/1999/xlink" width="1080" zoomAndPan="magnify" viewBox="0 0 810 809.999993" height="1080" preserveAspectRatio="xMidYMid meet" version="1.2"><defs><clipPath id="c6313fcca5"><path d="M 677 398 L 729 398 L 729 508 L 677 508 Z M 677 398 "/></clipPath></defs><g id="6ce6a7a017"><path style=" stroke:none;fill-rule:evenodd;fill:var(--svg-new-col);fill-opacity:1;" d="M 423.203125 467.203125 C 417.609375 467.203125 413.078125 462.667969 413.078125 457.074219 L 413.078125 416.238281 C 413.078125 412.160156 415.523438 408.480469 419.28125 406.902344 C 430.363281 402.25 437.523438 391.476562 437.523438 379.460938 C 437.523438 373.957031 436.019531 368.714844 433.328125 364.199219 L 433.328125 376.328125 C 433.328125 381.917969 428.792969 386.453125 423.199219 386.453125 L 387.011719 386.453125 C 381.417969 386.453125 376.882812 381.917969 376.882812 376.328125 L 376.882812 364.191406 C 374.1875 368.707031 372.683594 373.953125 372.683594 379.460938 C 372.683594 391.476562 379.847656 402.246094 390.929688 406.902344 C 394.691406 408.480469 397.136719 412.160156 397.136719 416.238281 L 397.136719 457.074219 C 397.136719 462.667969 392.601562 467.203125 387.011719 467.203125 C 381.417969 467.203125 376.882812 462.667969 376.882812 457.074219 L 376.882812 422.449219 C 361.835938 413.527344 352.433594 397.3125 352.433594 379.457031 C 352.433594 359.265625 364.464844 341.164062 383.089844 333.339844 C 386.214844 332.027344 389.789062 332.363281 392.613281 334.242188 C 395.4375 336.121094 397.136719 339.285156 397.136719 342.675781 L 397.136719 366.199219 L 413.074219 366.199219 L 413.074219 342.675781 C 413.074219 339.285156 414.769531 336.117188 417.597656 334.242188 C 420.417969 332.367188 423.996094 332.027344 427.121094 333.339844 C 445.742188 341.164062 457.773438 359.265625 457.773438 379.457031 C 457.773438 397.3125 448.371094 413.527344 433.328125 422.449219 L 433.328125 457.074219 C 433.328125 462.667969 428.792969 467.203125 423.203125 467.203125 Z M 423.203125 467.203125 "/><path style=" stroke:none;fill-rule:evenodd;fill:var(--svg-new-col);fill-opacity:1;" d="M 419.8125 536.832031 L 390.394531 536.832031 C 379.738281 536.832031 371.066406 528.164062 371.066406 517.503906 L 371.066406 495.074219 C 362.316406 492.546875 353.851562 489.039062 345.875 484.628906 L 330.003906 500.5 C 326.351562 504.148438 321.5 506.160156 316.335938 506.160156 C 311.171875 506.160156 306.320312 504.148438 302.667969 500.5 L 281.867188 479.695312 C 274.332031 472.15625 274.332031 459.894531 281.867188 452.359375 L 297.738281 436.492188 C 293.328125 428.507812 289.816406 420.039062 287.292969 411.300781 L 264.859375 411.300781 C 254.203125 411.300781 245.53125 402.628906 245.53125 391.96875 L 245.53125 362.550781 C 245.53125 351.894531 254.203125 343.21875 264.859375 343.21875 L 287.292969 343.21875 C 289.816406 334.480469 293.324219 326.011719 297.738281 318.027344 L 281.871094 302.160156 C 278.21875 298.507812 276.207031 293.65625 276.207031 288.492188 C 276.207031 283.328125 278.21875 278.476562 281.871094 274.824219 L 302.671875 254.027344 C 310.207031 246.492188 322.46875 246.492188 330.003906 254.027344 L 345.875 269.894531 C 353.855469 265.484375 362.324219 261.972656 371.070312 259.445312 L 371.070312 237.015625 C 371.070312 226.359375 379.742188 217.6875 390.398438 217.6875 L 419.816406 217.6875 C 430.472656 217.6875 439.144531 226.355469 439.144531 237.015625 L 439.144531 259.441406 C 447.886719 261.964844 456.359375 265.476562 464.339844 269.890625 L 480.203125 254.027344 C 487.742188 246.492188 500.003906 246.492188 507.539062 254.027344 L 528.339844 274.824219 C 531.988281 278.472656 534 283.328125 534 288.488281 C 534 293.652344 531.988281 298.507812 528.339844 302.160156 L 512.472656 318.023438 C 516.886719 326.007812 520.398438 334.476562 522.917969 343.21875 L 545.351562 343.21875 C 556.007812 343.21875 564.679688 351.890625 564.679688 362.546875 L 564.679688 391.96875 C 564.679688 402.625 556.011719 411.296875 545.351562 411.296875 L 522.917969 411.296875 C 520.394531 420.039062 516.882812 428.511719 512.472656 436.492188 L 528.339844 452.359375 C 535.875 459.894531 535.875 472.15625 528.339844 479.691406 L 507.539062 500.5 C 503.890625 504.148438 499.035156 506.160156 493.871094 506.160156 C 488.707031 506.160156 483.855469 504.148438 480.203125 500.496094 L 464.335938 484.628906 C 456.351562 489.039062 447.886719 492.550781 439.140625 495.074219 L 439.140625 517.5 C 439.140625 528.164062 430.472656 536.832031 419.8125 536.832031 Z M 391.320312 516.582031 L 418.890625 516.582031 L 418.890625 494.378906 C 418.890625 485.761719 424.65625 478.117188 432.914062 475.792969 C 440.609375 473.625 448.054688 470.539062 455.046875 466.621094 C 462.5625 462.410156 472.070312 463.722656 478.160156 469.8125 L 493.871094 485.527344 L 513.363281 466.027344 L 497.652344 450.316406 C 491.5625 444.222656 490.25 434.71875 494.464844 427.203125 C 498.382812 420.210938 501.46875 412.765625 503.632812 405.070312 C 505.957031 396.8125 513.601562 391.046875 522.21875 391.046875 L 544.421875 391.046875 L 544.421875 363.472656 L 522.214844 363.472656 C 513.597656 363.472656 505.957031 357.703125 503.632812 349.449219 C 501.464844 341.753906 498.378906 334.308594 494.460938 327.3125 C 490.246094 319.796875 491.5625 310.292969 497.648438 304.203125 L 513.359375 288.492188 L 493.867188 269 L 478.160156 284.707031 C 472.066406 290.796875 462.5625 292.113281 455.046875 287.898438 C 448.054688 283.980469 440.605469 280.894531 432.910156 278.726562 C 424.652344 276.402344 418.882812 268.761719 418.882812 260.140625 L 418.882812 237.941406 L 391.316406 237.941406 L 391.316406 260.144531 C 391.316406 268.761719 385.550781 276.402344 377.292969 278.730469 C 369.59375 280.898438 362.144531 283.984375 355.152344 287.90625 C 347.636719 292.117188 338.132812 290.804688 332.042969 284.710938 L 316.328125 269 L 296.835938 288.492188 L 312.546875 304.203125 C 318.636719 310.292969 319.949219 319.796875 315.742188 327.308594 C 311.824219 334.304688 308.738281 341.753906 306.570312 349.445312 C 304.246094 357.703125 296.601562 363.472656 287.984375 363.472656 L 265.777344 363.472656 L 265.777344 391.042969 L 287.984375 391.042969 C 296.601562 391.042969 304.246094 396.8125 306.570312 405.070312 C 308.738281 412.761719 311.824219 420.207031 315.742188 427.203125 C 319.953125 434.71875 318.636719 444.222656 312.546875 450.3125 L 296.835938 466.023438 L 316.332031 485.523438 L 332.046875 469.808594 C 338.136719 463.714844 347.640625 462.402344 355.15625 466.613281 C 362.144531 470.53125 369.589844 473.613281 377.292969 475.785156 C 385.546875 478.113281 391.316406 485.753906 391.316406 494.371094 Z M 514.019531 466.683594 L 514.023438 466.683594 Z M 523.128906 410.5625 C 523.128906 410.566406 523.125 410.566406 523.125 410.566406 C 523.128906 410.566406 523.128906 410.566406 523.128906 410.5625 Z M 523.128906 410.5625 "/><path style=" stroke:none;fill-rule:evenodd;fill:var(--svg-new-col);fill-opacity:1;" d="M 405.105469 469.214844 C 380.542969 469.214844 357.453125 459.648438 340.085938 442.28125 C 322.71875 424.914062 313.152344 401.824219 313.152344 377.261719 C 313.152344 352.703125 322.714844 329.609375 340.085938 312.242188 C 357.453125 294.875 380.542969 285.308594 405.105469 285.308594 C 429.667969 285.308594 452.757812 294.875 470.125 312.242188 C 487.492188 329.609375 497.058594 352.703125 497.058594 377.261719 C 497.058594 401.824219 487.492188 424.914062 470.125 442.28125 C 452.757812 459.648438 429.667969 469.214844 405.105469 469.214844 Z M 405.105469 305.5625 C 365.570312 305.5625 333.40625 337.726562 333.40625 377.261719 C 333.40625 416.796875 365.570312 448.960938 405.105469 448.960938 C 444.640625 448.960938 476.804688 416.796875 476.804688 377.261719 C 476.804688 337.726562 444.640625 305.5625 405.105469 305.5625 Z M 405.105469 305.5625 "/><path style=" stroke:none;fill-rule:evenodd;fill:var(--svg-new-col);fill-opacity:1;" d="M 562.167969 671.429688 L 486.820312 671.429688 C 481.230469 671.429688 476.695312 666.894531 476.695312 661.304688 C 476.695312 655.710938 481.230469 651.175781 486.820312 651.175781 L 562.167969 651.175781 C 598.5 651.175781 628.0625 621.617188 628.0625 585.285156 L 628.0625 546.703125 C 628.0625 541.113281 632.59375 536.578125 638.1875 536.578125 C 643.777344 536.578125 648.3125 541.113281 648.3125 546.703125 L 648.3125 585.285156 C 648.316406 632.785156 609.667969 671.429688 562.167969 671.429688 Z M 562.167969 671.429688 "/><path style=" stroke:none;fill-rule:evenodd;fill:var(--svg-new-col);fill-opacity:1;" d="M 464.386719 693.863281 L 430.234375 693.863281 C 412.277344 693.863281 397.671875 679.257812 397.671875 661.304688 C 397.671875 643.347656 412.277344 628.742188 430.234375 628.742188 L 464.386719 628.742188 C 482.339844 628.742188 496.949219 643.347656 496.949219 661.304688 C 496.949219 679.257812 482.339844 693.863281 464.386719 693.863281 Z M 430.234375 648.992188 C 423.445312 648.992188 417.921875 654.515625 417.921875 661.304688 C 417.921875 668.089844 423.445312 673.613281 430.234375 673.613281 L 464.386719 673.613281 C 471.175781 673.613281 476.695312 668.089844 476.695312 661.304688 C 476.695312 654.515625 471.175781 648.992188 464.386719 648.992188 Z M 430.234375 648.992188 "/><path style=" stroke:none;fill-rule:evenodd;fill:var(--svg-new-col);fill-opacity:1;" d="M 638.183594 556.828125 L 612.742188 556.828125 C 602.816406 556.828125 594.738281 548.753906 594.738281 538.828125 L 594.738281 366.550781 C 594.738281 356.625 602.816406 348.550781 612.742188 348.550781 L 638.183594 348.550781 C 671.292969 348.550781 698.230469 375.484375 698.230469 408.59375 L 698.230469 496.785156 C 698.226562 529.894531 671.292969 556.828125 638.183594 556.828125 Z M 614.992188 536.574219 L 638.183594 536.574219 C 660.125 536.574219 677.976562 518.726562 677.976562 496.785156 L 677.976562 408.59375 C 677.976562 386.652344 660.125 368.800781 638.183594 368.800781 L 614.992188 368.800781 Z M 614.992188 536.574219 "/><g clip-rule="nonzero" clip-path="url(#c6313fcca5)"><path style=" stroke:none;fill-rule:evenodd;fill:var(--svg-new-col);fill-opacity:1;" d="M 688.101562 507.019531 C 682.507812 507.019531 677.976562 502.488281 677.976562 496.894531 C 677.976562 491.300781 682.507812 486.769531 688.101562 486.769531 C 699.5625 486.769531 708.886719 477.445312 708.886719 465.980469 L 708.886719 439.398438 C 708.886719 427.933594 699.5625 418.609375 688.101562 418.609375 C 682.507812 418.609375 677.976562 414.078125 677.976562 408.484375 C 677.976562 402.890625 682.507812 398.359375 688.101562 398.359375 C 710.730469 398.359375 729.140625 416.769531 729.140625 439.398438 L 729.140625 465.980469 C 729.140625 488.609375 710.730469 507.019531 688.101562 507.019531 Z M 688.101562 507.019531 "/></g><path style=" stroke:none;fill-rule:evenodd;fill:var(--svg-new-col);fill-opacity:1;" d="M 197.472656 556.828125 L 172.027344 556.828125 C 138.917969 556.828125 111.984375 529.890625 111.984375 496.785156 L 111.984375 408.59375 C 111.984375 375.484375 138.917969 348.550781 172.027344 348.550781 L 197.472656 348.550781 C 207.398438 348.550781 215.472656 356.625 215.472656 366.550781 L 215.472656 538.828125 C 215.472656 548.753906 207.398438 556.828125 197.472656 556.828125 Z M 172.027344 368.804688 C 150.085938 368.804688 132.234375 386.652344 132.234375 408.59375 L 132.234375 496.789062 C 132.234375 518.730469 150.085938 536.578125 172.027344 536.578125 L 195.222656 536.578125 L 195.222656 368.804688 Z M 172.027344 368.804688 "/><path style=" stroke:none;fill-rule:evenodd;fill:var(--svg-new-col);fill-opacity:1;" d="M 122.109375 507.019531 C 99.480469 507.019531 81.070312 488.609375 81.070312 465.980469 L 81.070312 439.398438 C 81.070312 416.769531 99.480469 398.359375 122.109375 398.359375 C 127.703125 398.359375 132.234375 402.890625 132.234375 408.484375 C 132.234375 414.078125 127.703125 418.609375 122.109375 418.609375 C 110.648438 418.609375 101.324219 427.933594 101.324219 439.398438 L 101.324219 465.980469 C 101.324219 477.445312 110.648438 486.769531 122.109375 486.769531 C 127.703125 486.769531 132.234375 491.300781 132.234375 496.894531 C 132.234375 502.488281 127.703125 507.019531 122.109375 507.019531 Z M 122.109375 507.019531 "/><path style=" stroke:none;fill-rule:evenodd;fill:var(--svg-new-col);fill-opacity:1;" d="M 149.082031 374.382812 C 143.492188 374.382812 138.957031 369.847656 138.957031 364.253906 L 138.957031 347.40625 C 138.957031 311.484375 145.996094 276.628906 159.875 243.808594 C 173.28125 212.117188 192.46875 183.652344 216.910156 159.214844 C 241.347656 134.773438 269.8125 115.585938 301.503906 102.179688 C 334.324219 88.296875 369.179688 81.257812 405.105469 81.257812 C 441.03125 81.257812 475.890625 88.296875 508.707031 102.179688 C 540.402344 115.582031 568.863281 134.773438 593.304688 159.214844 C 617.742188 183.652344 636.929688 212.117188 650.335938 243.808594 C 664.214844 276.628906 671.253906 311.484375 671.253906 347.40625 L 671.253906 364.25 C 671.253906 369.84375 666.71875 374.378906 661.125 374.378906 C 655.535156 374.378906 651 369.84375 651 364.25 L 651 347.40625 C 651 211.820312 540.691406 101.511719 405.105469 101.511719 C 269.519531 101.511719 159.210938 211.820312 159.210938 347.40625 L 159.210938 364.253906 C 159.210938 369.847656 154.675781 374.382812 149.082031 374.382812 Z M 149.082031 374.382812 "/><path style=" stroke:none;fill-rule:evenodd;fill:var(--svg-new-col);fill-opacity:1;" d="M 621.574219 368.804688 C 615.984375 368.804688 611.449219 364.269531 611.449219 358.675781 L 611.449219 347.40625 C 611.449219 319.53125 606 292.511719 595.253906 267.109375 C 584.863281 242.542969 569.976562 220.46875 551.007812 201.5 C 532.050781 182.539062 509.980469 167.652344 485.410156 157.257812 C 460.007812 146.511719 432.984375 141.0625 405.101562 141.0625 C 377.222656 141.0625 350.203125 146.511719 324.800781 157.257812 C 300.226562 167.652344 278.15625 182.535156 259.195312 201.496094 C 240.226562 220.464844 225.34375 242.539062 214.949219 267.105469 C 204.207031 292.511719 198.761719 319.53125 198.761719 347.40625 L 198.761719 358.675781 C 198.761719 364.265625 194.226562 368.800781 188.632812 368.800781 C 183.042969 368.800781 178.507812 364.265625 178.507812 358.675781 L 178.507812 347.40625 C 178.507812 316.804688 184.492188 287.136719 196.296875 259.21875 C 207.710938 232.234375 224.054688 208 244.875 187.179688 C 265.6875 166.363281 289.921875 150.019531 316.910156 138.605469 C 344.824219 126.796875 374.496094 120.808594 405.101562 120.808594 C 435.710938 120.808594 465.382812 126.796875 493.300781 138.605469 C 520.285156 150.019531 544.519531 166.363281 565.328125 187.179688 C 586.148438 208 602.492188 232.234375 613.90625 259.214844 C 625.714844 287.128906 631.703125 316.800781 631.703125 347.40625 L 631.703125 358.675781 C 631.703125 364.269531 627.167969 368.804688 621.574219 368.804688 Z M 621.574219 368.804688 "/></g></svg>