<svg width="24" height="24" viewBox="0 0 24 24" fill="none" xmlns="http://www.w3.org/2000/svg">
<path d="M9.99996 3.2007C8.43567 3.56334 6.99688 4.3379 5.83284 5.44403C4.6688 6.55017 3.8219 7.9476 3.37999 9.49137C2.93808 11.0351 2.91725 12.669 3.31965 14.2236C3.72206 15.7781 4.53305 17.1967 5.66851 18.3321C6.80397 19.4676 8.22254 20.2786 9.77708 20.681C11.3316 21.0834 12.9655 21.0626 14.5093 20.6207C16.0531 20.1788 17.4505 19.3319 18.5566 18.1678C19.6628 17.0038 20.4373 15.565 20.8 14.0007C20.8 13.7355 20.6946 13.4811 20.5071 13.2936C20.3195 13.1061 20.0652 13.0007 19.8 13.0007H16C15.8182 13.6997 15.4549 14.3383 14.9471 14.8518C14.4392 15.3653 13.8046 15.7356 13.1077 15.9251C12.4107 16.1146 11.6761 16.1166 10.9781 15.9309C10.2801 15.7453 9.64355 15.3785 9.13283 14.8678C8.62212 14.3571 8.25538 13.7206 8.06973 13.0226C7.88408 12.3246 7.88611 11.5899 8.0756 10.893C8.2651 10.196 8.63534 9.56149 9.14887 9.05361C9.66239 8.54572 10.301 8.1825 11 8.0007V4.0007C10.9878 3.88212 10.9521 3.76715 10.8951 3.66249C10.838 3.55783 10.7607 3.46558 10.6676 3.39112C10.5745 3.31665 10.4676 3.26146 10.3529 3.22877C10.2383 3.19608 10.1183 3.18653 9.99996 3.2007Z" stroke="#868E96" stroke-width="2" stroke-linecap="round" stroke-linejoin="round"/>
<path d="M15 3.5C16.2697 3.94708 17.423 4.6733 18.3748 5.62516C19.3267 6.57702 20.0529 7.73028 20.5 9H16C15.6934 8.64097 15.359 8.3066 15 8V3.5Z" stroke="#868E96" stroke-width="2" stroke-linecap="round" stroke-linejoin="round"/>
</svg>
