<svg xmlns="http://www.w3.org/2000/svg" xmlns:xlink="http://www.w3.org/1999/xlink" width="1080" zoomAndPan="magnify" viewBox="0 0 810 809.999993" height="1080" preserveAspectRatio="xMidYMid meet" version="1.2"><defs><clipPath id="0f48b50701"><path d="M 199.601562 199.601562 L 610.601562 199.601562 L 610.601562 610.601562 L 199.601562 610.601562 Z M 199.601562 199.601562 "/></clipPath></defs><g id="77e8f13182"><g clip-rule="nonzero" clip-path="url(#0f48b50701)"><path style=" stroke:none;fill-rule:nonzero;fill:black;fill-opacity:1;" d="M 578.171875 231.820312 L 578.171875 227.792969 C 578.171875 220.257812 575.238281 213.179688 569.914062 207.855469 C 564.59375 202.53125 557.511719 199.601562 549.980469 199.601562 C 534.433594 199.601562 521.789062 212.246094 521.789062 227.792969 L 521.789062 231.820312 L 505.679688 231.820312 L 505.679688 227.792969 C 505.679688 220.257812 502.746094 213.179688 497.421875 207.855469 C 492.101562 202.53125 485.019531 199.601562 477.488281 199.601562 C 461.941406 199.601562 449.296875 212.246094 449.296875 227.792969 L 449.296875 231.820312 L 433.1875 231.820312 L 433.1875 227.792969 C 433.1875 220.257812 430.253906 213.179688 424.929688 207.855469 C 419.609375 202.53125 412.527344 199.601562 404.996094 199.601562 C 389.449219 199.601562 376.804688 212.246094 376.804688 227.792969 L 376.804688 231.820312 L 360.695312 231.820312 L 360.695312 227.792969 C 360.695312 220.257812 357.761719 213.179688 352.4375 207.855469 C 347.117188 202.53125 340.035156 199.601562 332.503906 199.601562 C 316.957031 199.601562 304.3125 212.246094 304.3125 227.792969 L 304.3125 231.820312 L 288.203125 231.820312 L 288.203125 227.792969 C 288.203125 220.257812 285.269531 213.179688 279.945312 207.855469 C 274.625 202.53125 267.542969 199.601562 260.011719 199.601562 C 244.464844 199.601562 231.820312 212.246094 231.820312 227.792969 L 231.820312 231.820312 C 214.054688 231.820312 199.601562 246.273438 199.601562 264.039062 L 199.601562 578.171875 C 199.601562 595.9375 214.054688 610.390625 231.820312 610.390625 L 578.171875 610.390625 C 595.9375 610.390625 610.390625 595.9375 610.390625 578.171875 L 610.390625 264.039062 C 610.390625 246.273438 595.9375 231.820312 578.171875 231.820312 Z M 594.28125 578.171875 C 594.28125 587.054688 587.054688 594.28125 578.171875 594.28125 L 231.820312 594.28125 C 222.9375 594.28125 215.710938 587.054688 215.710938 578.171875 L 215.710938 320.421875 L 231.820312 320.421875 L 231.820312 570.117188 C 231.820312 574.566406 235.425781 578.171875 239.875 578.171875 L 570.117188 578.171875 C 574.566406 578.171875 578.171875 574.566406 578.171875 570.117188 L 578.171875 320.421875 L 594.28125 320.421875 Z M 247.929688 562.0625 L 247.929688 320.421875 L 562.0625 320.421875 L 562.0625 562.0625 Z M 594.28125 304.3125 L 215.710938 304.3125 L 215.710938 264.039062 C 215.710938 255.15625 222.9375 247.929688 231.820312 247.929688 L 231.820312 251.957031 C 231.820312 267.5 244.464844 280.148438 260.011719 280.148438 C 275.554688 280.148438 288.203125 267.5 288.203125 251.957031 L 288.203125 247.929688 L 304.3125 247.929688 L 304.3125 251.957031 C 304.3125 267.5 316.957031 280.148438 332.503906 280.148438 C 348.046875 280.148438 360.695312 267.5 360.695312 251.957031 L 360.695312 247.929688 L 376.804688 247.929688 L 376.804688 251.957031 C 376.804688 267.5 389.449219 280.148438 404.996094 280.148438 C 420.539062 280.148438 433.1875 267.5 433.1875 251.957031 L 433.1875 247.929688 L 449.296875 247.929688 L 449.296875 251.957031 C 449.296875 267.5 461.941406 280.148438 477.488281 280.148438 C 493.03125 280.148438 505.679688 267.5 505.679688 251.957031 L 505.679688 247.929688 L 521.789062 247.929688 L 521.789062 251.957031 C 521.789062 267.5 534.433594 280.148438 549.980469 280.148438 C 565.523438 280.148438 578.171875 267.5 578.171875 251.957031 L 578.171875 247.929688 C 587.054688 247.929688 594.28125 255.15625 594.28125 264.039062 Z M 594.28125 304.3125 "/></g><path style=" stroke:none;fill-rule:nonzero;fill:black;fill-opacity:1;" d="M 312.367188 344.585938 L 280.148438 344.585938 C 275.699219 344.585938 272.09375 348.191406 272.09375 352.640625 L 272.09375 384.859375 C 272.09375 389.308594 275.699219 392.914062 280.148438 392.914062 L 312.367188 392.914062 C 316.816406 392.914062 320.421875 389.308594 320.421875 384.859375 L 320.421875 352.640625 C 320.421875 348.191406 316.816406 344.585938 312.367188 344.585938 Z M 312.367188 344.585938 "/><path style=" stroke:none;fill-rule:nonzero;fill:black;fill-opacity:1;" d="M 384.859375 344.585938 L 352.640625 344.585938 C 348.191406 344.585938 344.585938 348.191406 344.585938 352.640625 L 344.585938 384.859375 C 344.585938 389.308594 348.191406 392.914062 352.640625 392.914062 L 384.859375 392.914062 C 389.308594 392.914062 392.914062 389.308594 392.914062 384.859375 L 392.914062 352.640625 C 392.914062 348.191406 389.308594 344.585938 384.859375 344.585938 Z M 384.859375 344.585938 "/><path style=" stroke:none;fill-rule:nonzero;fill:black;fill-opacity:1;" d="M 457.351562 344.585938 L 425.132812 344.585938 C 420.683594 344.585938 417.078125 348.191406 417.078125 352.640625 L 417.078125 384.859375 C 417.078125 389.308594 420.683594 392.914062 425.132812 392.914062 L 457.351562 392.914062 C 461.800781 392.914062 465.40625 389.308594 465.40625 384.859375 L 465.40625 352.640625 C 465.40625 348.191406 461.800781 344.585938 457.351562 344.585938 Z M 457.351562 344.585938 "/><path style=" stroke:none;fill-rule:nonzero;fill:black;fill-opacity:1;" d="M 529.84375 344.585938 L 497.625 344.585938 C 493.175781 344.585938 489.570312 348.191406 489.570312 352.640625 L 489.570312 384.859375 C 489.570312 389.308594 493.175781 392.914062 497.625 392.914062 L 529.84375 392.914062 C 534.292969 392.914062 537.898438 389.308594 537.898438 384.859375 L 537.898438 352.640625 C 537.898438 348.191406 534.292969 344.585938 529.84375 344.585938 Z M 529.84375 344.585938 "/><path style=" stroke:none;fill-rule:nonzero;fill:black;fill-opacity:1;" d="M 312.367188 489.570312 L 280.148438 489.570312 C 275.699219 489.570312 272.09375 493.175781 272.09375 497.625 L 272.09375 529.84375 C 272.09375 534.292969 275.699219 537.898438 280.148438 537.898438 L 312.367188 537.898438 C 316.816406 537.898438 320.421875 534.292969 320.421875 529.84375 L 320.421875 497.625 C 320.421875 493.175781 316.816406 489.570312 312.367188 489.570312 Z M 312.367188 489.570312 "/><path style=" stroke:none;fill-rule:nonzero;fill:black;fill-opacity:1;" d="M 384.859375 489.570312 L 352.640625 489.570312 C 348.191406 489.570312 344.585938 493.175781 344.585938 497.625 L 344.585938 529.84375 C 344.585938 534.292969 348.191406 537.898438 352.640625 537.898438 L 384.859375 537.898438 C 389.308594 537.898438 392.914062 534.292969 392.914062 529.84375 L 392.914062 497.625 C 392.914062 493.175781 389.308594 489.570312 384.859375 489.570312 Z M 384.859375 489.570312 "/><path style=" stroke:none;fill-rule:nonzero;fill:black;fill-opacity:1;" d="M 457.351562 489.570312 L 425.132812 489.570312 C 420.683594 489.570312 417.078125 493.175781 417.078125 497.625 L 417.078125 529.84375 C 417.078125 534.292969 420.683594 537.898438 425.132812 537.898438 L 457.351562 537.898438 C 461.800781 537.898438 465.40625 534.292969 465.40625 529.84375 L 465.40625 497.625 C 465.40625 493.175781 461.800781 489.570312 457.351562 489.570312 Z M 457.351562 489.570312 "/><path style=" stroke:none;fill-rule:nonzero;fill:black;fill-opacity:1;" d="M 529.84375 489.570312 L 497.625 489.570312 C 493.175781 489.570312 489.570312 493.175781 489.570312 497.625 L 489.570312 529.84375 C 489.570312 534.292969 493.175781 537.898438 497.625 537.898438 L 529.84375 537.898438 C 534.292969 537.898438 537.898438 534.292969 537.898438 529.84375 L 537.898438 497.625 C 537.898438 493.175781 534.292969 489.570312 529.84375 489.570312 Z M 529.84375 489.570312 "/><path style=" stroke:none;fill-rule:nonzero;fill:black;fill-opacity:1;" d="M 312.367188 417.078125 L 280.148438 417.078125 C 275.699219 417.078125 272.09375 420.683594 272.09375 425.132812 L 272.09375 457.351562 C 272.09375 461.800781 275.699219 465.40625 280.148438 465.40625 L 312.367188 465.40625 C 316.816406 465.40625 320.421875 461.800781 320.421875 457.351562 L 320.421875 425.132812 C 320.421875 420.683594 316.816406 417.078125 312.367188 417.078125 Z M 312.367188 417.078125 "/><path style=" stroke:none;fill-rule:nonzero;fill:black;fill-opacity:1;" d="M 384.859375 417.078125 L 352.640625 417.078125 C 348.191406 417.078125 344.585938 420.683594 344.585938 425.132812 L 344.585938 457.351562 C 344.585938 461.800781 348.191406 465.40625 352.640625 465.40625 L 384.859375 465.40625 C 389.308594 465.40625 392.914062 461.800781 392.914062 457.351562 L 392.914062 425.132812 C 392.914062 420.683594 389.308594 417.078125 384.859375 417.078125 Z M 384.859375 417.078125 "/><path style=" stroke:none;fill-rule:nonzero;fill:black;fill-opacity:1;" d="M 457.351562 417.078125 L 425.132812 417.078125 C 420.683594 417.078125 417.078125 420.683594 417.078125 425.132812 L 417.078125 457.351562 C 417.078125 461.800781 420.683594 465.40625 425.132812 465.40625 L 457.351562 465.40625 C 461.800781 465.40625 465.40625 461.800781 465.40625 457.351562 L 465.40625 425.132812 C 465.40625 420.683594 461.800781 417.078125 457.351562 417.078125 Z M 457.351562 417.078125 "/><path style=" stroke:none;fill-rule:nonzero;fill:black;fill-opacity:1;" d="M 529.84375 417.078125 L 497.625 417.078125 C 493.175781 417.078125 489.570312 420.683594 489.570312 425.132812 L 489.570312 457.351562 C 489.570312 461.800781 493.175781 465.40625 497.625 465.40625 L 529.84375 465.40625 C 534.292969 465.40625 537.898438 461.800781 537.898438 457.351562 L 537.898438 425.132812 C 537.898438 420.683594 534.292969 417.078125 529.84375 417.078125 Z M 529.84375 417.078125 "/></g></svg>