<svg xmlns="http://www.w3.org/2000/svg" xmlns:xlink="http://www.w3.org/1999/xlink" width="1080" zoomAndPan="magnify" viewBox="0 0 810 809.999993" height="1080" preserveAspectRatio="xMidYMid meet" version="1.2"><defs><clipPath id="403a017259"><path d="M 126 547 L 641 547 L 641 604.492188 L 126 604.492188 Z M 126 547 "/></clipPath><clipPath id="bfd9b582c3"><path d="M 653 534 L 687.691406 534 L 687.691406 567 L 653 567 Z M 653 534 "/></clipPath><clipPath id="3d24fd7412"><path d="M 122.191406 206 L 379 206 L 379 555 L 122.191406 555 Z M 122.191406 206 "/></clipPath></defs><g id="aca7dcf34d"><path style=" stroke:none;fill-rule:nonzero;fill:black;fill-opacity:1;" d="M 431.125 360.015625 L 449.21875 339.277344 L 411.101562 324.347656 Z M 431.125 360.015625 "/><path style=" stroke:none;fill-rule:nonzero;fill:black;fill-opacity:1;" d="M 575.324219 501.433594 C 574.402344 501.433594 573.480469 501.820312 572.824219 502.570312 C 571.992188 503.523438 571.703125 504.378906 571.761719 505.257812 C 571.824219 506.136719 572.226562 506.945312 572.890625 507.523438 L 630.921875 558.019531 L 635.527344 552.746094 L 577.492188 502.246094 C 576.871094 501.699219 576.097656 501.433594 575.324219 501.433594 Z M 575.324219 501.433594 "/><path style=" stroke:none;fill-rule:nonzero;fill:black;fill-opacity:1;" d="M 545.097656 277.355469 C 545.097656 278.261719 545.078125 279.164062 545.039062 280.066406 C 545 280.964844 544.941406 281.859375 544.867188 282.746094 C 544.789062 283.632812 544.695312 284.511719 544.582031 285.378906 C 544.46875 286.242188 544.335938 287.09375 544.183594 287.929688 C 544.035156 288.765625 543.867188 289.582031 543.679688 290.382812 C 543.496094 291.179688 543.296875 291.953125 543.078125 292.707031 C 542.859375 293.460938 542.625 294.1875 542.375 294.886719 C 542.128906 295.585938 541.863281 296.253906 541.585938 296.894531 C 541.308594 297.535156 541.019531 298.140625 540.714844 298.714844 C 540.410156 299.289062 540.097656 299.828125 539.769531 300.332031 C 539.445312 300.832031 539.105469 301.296875 538.761719 301.726562 C 538.414062 302.152344 538.058594 302.539062 537.699219 302.882812 C 537.335938 303.230469 536.964844 303.535156 536.589844 303.796875 C 536.214844 304.058594 535.832031 304.28125 535.449219 304.457031 C 535.0625 304.632812 534.675781 304.765625 534.285156 304.855469 C 533.894531 304.941406 533.503906 304.988281 533.109375 304.988281 C 532.71875 304.988281 532.324219 304.941406 531.933594 304.855469 C 531.542969 304.765625 531.15625 304.632812 530.773438 304.457031 C 530.386719 304.28125 530.007812 304.058594 529.628906 303.796875 C 529.253906 303.535156 528.886719 303.230469 528.523438 302.882812 C 528.160156 302.539062 527.804688 302.152344 527.460938 301.726562 C 527.113281 301.296875 526.777344 300.832031 526.449219 300.332031 C 526.125 299.828125 525.808594 299.289062 525.507812 298.714844 C 525.203125 298.140625 524.910156 297.535156 524.632812 296.894531 C 524.355469 296.253906 524.09375 295.585938 523.84375 294.886719 C 523.59375 294.1875 523.363281 293.460938 523.144531 292.707031 C 522.925781 291.953125 522.722656 291.179688 522.539062 290.382812 C 522.355469 289.582031 522.1875 288.765625 522.035156 287.929688 C 521.886719 287.09375 521.753906 286.242188 521.640625 285.378906 C 521.527344 284.511719 521.429688 283.632812 521.355469 282.746094 C 521.277344 281.859375 521.21875 280.964844 521.179688 280.066406 C 521.144531 279.164062 521.125 278.261719 521.125 277.355469 C 521.125 276.453125 521.144531 275.550781 521.179688 274.648438 C 521.21875 273.746094 521.277344 272.855469 521.355469 271.964844 C 521.429688 271.078125 521.527344 270.203125 521.640625 269.335938 C 521.753906 268.46875 521.886719 267.617188 522.035156 266.78125 C 522.1875 265.945312 522.355469 265.128906 522.539062 264.332031 C 522.722656 263.535156 522.925781 262.757812 523.144531 262.007812 C 523.363281 261.253906 523.59375 260.527344 523.84375 259.828125 C 524.09375 259.128906 524.355469 258.457031 524.632812 257.820312 C 524.910156 257.179688 525.203125 256.570312 525.507812 255.996094 C 525.808594 255.421875 526.125 254.886719 526.449219 254.382812 C 526.777344 253.878906 527.113281 253.414062 527.460938 252.988281 C 527.804688 252.5625 528.160156 252.175781 528.523438 251.828125 C 528.886719 251.484375 529.253906 251.179688 529.628906 250.914062 C 530.007812 250.652344 530.386719 250.433594 530.773438 250.257812 C 531.15625 250.082031 531.542969 249.949219 531.933594 249.859375 C 532.324219 249.769531 532.71875 249.726562 533.109375 249.726562 C 533.503906 249.726562 533.894531 249.769531 534.285156 249.859375 C 534.675781 249.949219 535.0625 250.082031 535.449219 250.257812 C 535.832031 250.433594 536.214844 250.652344 536.589844 250.914062 C 536.964844 251.179688 537.335938 251.484375 537.699219 251.828125 C 538.058594 252.175781 538.414062 252.5625 538.761719 252.988281 C 539.105469 253.414062 539.445312 253.878906 539.769531 254.382812 C 540.097656 254.886719 540.410156 255.421875 540.714844 255.996094 C 541.019531 256.570312 541.308594 257.179688 541.585938 257.820312 C 541.863281 258.457031 542.128906 259.128906 542.375 259.828125 C 542.625 260.527344 542.859375 261.253906 543.078125 262.007812 C 543.296875 262.757812 543.496094 263.535156 543.679688 264.332031 C 543.867188 265.128906 544.035156 265.945312 544.183594 266.78125 C 544.335938 267.617188 544.46875 268.46875 544.582031 269.335938 C 544.695312 270.203125 544.789062 271.078125 544.867188 271.964844 C 544.941406 272.855469 545 273.746094 545.039062 274.648438 C 545.078125 275.550781 545.097656 276.453125 545.097656 277.355469 Z M 545.097656 277.355469 "/><path style=" stroke:none;fill-rule:nonzero;fill:black;fill-opacity:1;" d="M 540.6875 310.574219 C 546.183594 313.644531 552.5 315.410156 559.234375 315.410156 C 580.246094 315.410156 597.339844 298.339844 597.339844 277.359375 C 597.339844 256.382812 580.246094 239.3125 559.234375 239.3125 C 552.503906 239.3125 546.1875 241.078125 540.6875 244.148438 C 549.140625 252.703125 554.367188 264.429688 554.367188 277.359375 C 554.367188 290.292969 549.140625 302.019531 540.6875 310.574219 Z M 540.6875 310.574219 "/><path style=" stroke:none;fill-rule:nonzero;fill:black;fill-opacity:1;" d="M 326.632812 234.5625 L 174.433594 234.5625 L 174.433594 386.554688 L 326.636719 386.554688 L 326.636719 234.5625 Z M 245.785156 334.167969 L 203.039062 334.167969 C 200.480469 334.167969 198.402344 332.089844 198.402344 329.53125 C 198.402344 326.972656 200.480469 324.894531 203.039062 324.894531 L 245.785156 324.894531 C 248.34375 324.894531 250.421875 326.972656 250.421875 329.53125 C 250.421875 332.089844 248.34375 334.167969 245.785156 334.167969 Z M 298.027344 305.707031 L 203.039062 305.707031 C 200.480469 305.707031 198.402344 303.628906 198.402344 301.070312 C 198.402344 298.511719 200.480469 296.433594 203.039062 296.433594 L 298.023438 296.433594 C 300.582031 296.433594 302.660156 298.511719 302.660156 301.070312 C 302.660156 303.628906 300.585938 305.707031 298.027344 305.707031 Z M 298.027344 277.25 L 203.039062 277.25 C 200.480469 277.25 198.402344 275.171875 198.402344 272.613281 C 198.402344 270.054688 200.480469 267.980469 203.039062 267.980469 L 298.023438 267.980469 C 300.582031 267.980469 302.660156 270.054688 302.660156 272.613281 C 302.660156 275.171875 300.585938 277.25 298.027344 277.25 Z M 298.027344 277.25 "/><path style=" stroke:none;fill-rule:nonzero;fill:black;fill-opacity:1;" d="M 457.492188 343.898438 L 436.839844 367.5625 L 583.578125 495.246094 L 583.582031 495.25 L 609.929688 518.175781 L 629.347656 535.078125 L 649.996094 511.410156 Z M 457.492188 343.898438 "/><path style=" stroke:none;fill-rule:nonzero;fill:black;fill-opacity:1;" d="M 469.058594 509.875 C 473.230469 509.8125 478.019531 505.011719 478.636719 499.742188 C 479.328125 493.863281 474.765625 487.863281 468.195312 485.894531 C 467.46875 485.851562 466.609375 485.816406 465.636719 485.816406 C 464.792969 486.753906 463.996094 487.738281 463.257812 488.761719 C 459.148438 494.457031 459.144531 498.273438 459.335938 499.648438 C 459.925781 503.886719 463.628906 509.796875 469.058594 509.875 Z M 469.058594 509.875 "/><g clip-rule="nonzero" clip-path="url(#403a017259)"><path style=" stroke:none;fill-rule:nonzero;fill:black;fill-opacity:1;" d="M 634.867188 567.601562 C 633.949219 568.652344 632.667969 569.191406 631.371094 569.191406 C 630.292969 569.191406 629.210938 568.816406 628.332031 568.050781 L 604.832031 547.601562 L 450 547.601562 C 439.21875 547.769531 428.421875 549.3125 417.984375 552.179688 C 406.722656 555.273438 395.925781 559.898438 385.898438 565.914062 C 385.773438 565.988281 385.640625 566.019531 385.511719 566.082031 C 385.375 566.144531 385.25 566.203125 385.113281 566.253906 C 384.078125 566.636719 382.957031 566.636719 381.917969 566.253906 C 381.777344 566.203125 381.648438 566.144531 381.519531 566.082031 C 381.390625 566.019531 381.253906 565.988281 381.128906 565.914062 C 371.097656 559.898438 360.304688 555.277344 349.039062 552.179688 C 338.601562 549.3125 327.804688 547.769531 316.953125 547.601562 L 126.65625 547.601562 C 129.3125 552.328125 131.6875 558.773438 131.6875 566.679688 C 131.6875 570.1875 131.105469 577.789062 126.738281 585.671875 C 217.253906 584.835938 288.574219 585.324219 317.09375 585.761719 C 328.726562 585.945312 340.300781 587.597656 351.492188 590.671875 C 362.589844 593.722656 373.347656 598.203125 383.507812 604.003906 C 393.664062 598.203125 404.421875 593.722656 415.523438 590.671875 C 426.71875 587.59375 438.292969 585.945312 449.925781 585.761719 C 478.445312 585.324219 549.753906 584.835938 640.28125 585.671875 C 636.054688 578.039062 635.378906 570.703125 635.339844 567.058594 Z M 578.230469 571.378906 C 578.226562 571.378906 578.21875 571.378906 578.214844 571.378906 C 503.59375 571.109375 458.382812 571.746094 450.074219 571.871094 C 439.234375 572.039062 428.4375 573.578125 417.984375 576.445312 C 406.8125 579.519531 396.019531 584.140625 385.890625 590.183594 C 385.15625 590.621094 384.335938 590.84375 383.511719 590.84375 C 382.6875 590.84375 381.871094 590.625 381.132812 590.1875 C 371 584.140625 360.203125 579.519531 349.035156 576.449219 C 338.585938 573.578125 327.792969 572.039062 316.949219 571.875 C 308.644531 571.746094 263.425781 571.125 188.804688 571.382812 C 188.800781 571.382812 188.796875 571.382812 188.789062 571.382812 C 186.234375 571.382812 184.164062 569.320312 184.15625 566.761719 C 184.144531 564.203125 186.214844 562.121094 188.777344 562.113281 C 263.472656 561.84375 308.773438 562.480469 317.09375 562.605469 C 328.714844 562.785156 340.289062 564.4375 351.492188 567.515625 C 362.597656 570.570312 373.351562 575.046875 383.511719 580.84375 C 393.664062 575.046875 404.421875 570.5625 415.527344 567.515625 C 426.734375 564.4375 438.308594 562.785156 449.929688 562.605469 C 458.25 562.480469 503.554688 561.859375 578.25 562.113281 C 580.808594 562.121094 582.878906 564.203125 582.871094 566.761719 C 582.855469 569.316406 580.785156 571.378906 578.230469 571.378906 Z M 578.230469 571.378906 "/></g><path style=" stroke:none;fill-rule:nonzero;fill:black;fill-opacity:1;" d="M 659.976562 524.726562 L 659.976562 524.722656 L 662.269531 522.09375 L 656.988281 517.496094 L 636.34375 541.164062 L 641.625 545.757812 L 655.871094 529.425781 Z M 659.976562 524.726562 "/><g clip-rule="nonzero" clip-path="url(#bfd9b582c3)"><path style=" stroke:none;fill-rule:nonzero;fill:black;fill-opacity:1;" d="M 685.1875 552.820312 L 663.917969 534.308594 L 656.25 543.089844 L 653.964844 545.710938 L 675.246094 564.226562 C 678.273438 566.855469 682.875 566.546875 685.511719 563.527344 L 685.886719 563.097656 C 687.175781 561.621094 687.808594 559.746094 687.671875 557.808594 C 687.539062 555.871094 686.65625 554.09375 685.1875 552.820312 Z M 685.1875 552.820312 "/></g><path style=" stroke:none;fill-rule:nonzero;fill:black;fill-opacity:1;" d="M 335.902344 272.507812 L 345.628906 272.507812 L 345.628906 353.355469 L 335.902344 353.355469 Z M 335.902344 272.507812 "/><path style=" stroke:none;fill-rule:nonzero;fill:black;fill-opacity:1;" d="M 506.992188 315.410156 C 513.722656 315.410156 520.039062 313.644531 525.535156 310.574219 C 517.085938 302.019531 511.859375 290.292969 511.859375 277.359375 C 511.859375 264.429688 517.089844 252.695312 525.535156 244.148438 C 520.042969 241.078125 513.726562 239.3125 506.992188 239.3125 C 485.980469 239.3125 468.882812 256.382812 468.882812 277.359375 C 468.882812 298.339844 485.980469 315.410156 506.992188 315.410156 Z M 506.992188 315.410156 "/><path style=" stroke:none;fill-rule:nonzero;fill:black;fill-opacity:1;" d="M 449.929688 538.332031 L 594.183594 538.332031 L 566.8125 514.515625 C 564.277344 512.308594 562.753906 509.242188 562.519531 505.886719 C 562.289062 502.535156 563.378906 499.292969 565.589844 496.761719 C 566.441406 495.785156 567.414062 495.023438 568.433594 494.355469 L 498.804688 433.769531 L 412.003906 433.769531 C 409.445312 433.769531 407.371094 431.691406 407.371094 429.132812 C 407.371094 426.574219 409.445312 424.496094 412.003906 424.496094 L 488.148438 424.496094 L 455.195312 395.824219 L 416.757812 395.824219 C 414.199219 395.824219 412.121094 393.746094 412.121094 391.1875 C 412.121094 388.628906 414.199219 386.554688 416.757812 386.554688 L 444.542969 386.554688 L 427.261719 371.511719 C 427.230469 371.488281 427.21875 371.449219 427.191406 371.417969 C 426.832031 371.09375 426.507812 370.730469 426.257812 370.285156 L 396.664062 317.566406 C 395.703125 315.855469 395.921875 313.730469 397.210938 312.253906 C 398.492188 310.777344 400.570312 310.265625 402.394531 310.984375 L 458.734375 333.050781 C 458.988281 333.152344 459.171875 333.339844 459.402344 333.480469 C 459.628906 333.621094 459.878906 333.6875 460.085938 333.871094 L 477.027344 348.613281 L 601.980469 348.613281 C 604.539062 348.613281 606.617188 350.691406 606.617188 353.25 C 606.617188 355.808594 604.539062 357.886719 601.980469 357.886719 L 487.679688 357.886719 L 520.632812 386.558594 L 616.226562 386.558594 C 618.785156 386.558594 620.859375 388.636719 620.859375 391.195312 C 620.859375 393.753906 618.785156 395.828125 616.226562 395.828125 L 531.285156 395.828125 L 564.234375 424.503906 L 616.21875 424.503906 C 618.777344 424.503906 620.855469 426.578125 620.855469 429.136719 C 620.855469 431.695312 618.777344 433.773438 616.21875 433.773438 L 574.886719 433.773438 L 644.828125 494.632812 L 644.828125 206.105469 L 450 206.105469 C 439.226562 206.269531 428.433594 207.808594 417.984375 210.683594 C 407.546875 213.546875 397.542969 217.785156 388.148438 223.171875 L 388.148438 554.105469 C 396.867188 549.535156 406.027344 545.859375 415.527344 543.242188 C 426.722656 540.164062 438.296875 538.511719 449.929688 538.332031 Z M 506.992188 230.035156 C 516.640625 230.035156 525.613281 232.945312 533.109375 237.914062 C 540.605469 232.945312 549.578125 230.035156 559.230469 230.035156 C 585.355469 230.035156 606.605469 251.265625 606.605469 277.355469 C 606.605469 303.449219 585.355469 324.679688 559.230469 324.679688 C 549.578125 324.679688 540.605469 321.765625 533.109375 316.796875 C 525.613281 321.765625 516.640625 324.679688 506.992188 324.679688 C 480.867188 324.679688 459.613281 303.449219 459.613281 277.355469 C 459.613281 251.265625 480.867188 230.035156 506.992188 230.035156 Z M 416.757812 263.238281 L 440.503906 263.238281 C 443.0625 263.238281 445.136719 265.3125 445.136719 267.871094 C 445.136719 270.429688 443.0625 272.507812 440.503906 272.507812 L 416.757812 272.507812 C 414.199219 272.507812 412.121094 270.429688 412.121094 267.871094 C 412.121094 265.3125 414.199219 263.238281 416.757812 263.238281 Z M 416.757812 286.953125 L 440.503906 286.953125 C 443.0625 286.953125 445.136719 289.027344 445.136719 291.585938 C 445.136719 294.144531 443.0625 296.222656 440.503906 296.222656 L 416.757812 296.222656 C 414.199219 296.222656 412.121094 294.144531 412.121094 291.585938 C 412.121094 289.027344 414.199219 286.953125 416.757812 286.953125 Z M 412.25 518.15625 C 413.664062 512.339844 418.523438 497.660156 433.015625 487.054688 C 443.289062 479.542969 454.039062 477.242188 461.625 476.699219 C 471.476562 467.519531 484.890625 462.527344 495.902344 459.828125 L 485.214844 451.824219 C 483.164062 450.289062 482.75 447.382812 484.28125 445.332031 C 485.816406 443.289062 488.726562 442.867188 490.773438 444.402344 L 509.765625 458.632812 C 509.78125 458.640625 509.789062 458.65625 509.800781 458.664062 C 510.226562 458.992188 510.566406 459.390625 510.847656 459.828125 C 510.929688 459.957031 510.992188 460.09375 511.058594 460.230469 C 511.246094 460.589844 511.375 460.953125 511.464844 461.34375 C 511.5 461.5 511.539062 461.648438 511.554688 461.808594 C 511.621094 462.347656 511.617188 462.90625 511.480469 463.453125 C 511.480469 463.453125 511.480469 463.457031 511.480469 463.457031 L 506.734375 482.429688 C 506.207031 484.539062 504.320312 485.9375 502.242188 485.9375 C 501.867188 485.9375 501.492188 485.890625 501.113281 485.800781 C 498.628906 485.179688 497.121094 482.660156 497.738281 480.175781 L 500.734375 468.207031 C 492.671875 469.964844 482.789062 473.039062 474.472656 478.402344 C 483.355469 482.609375 488.921875 491.597656 487.835938 500.8125 C 486.667969 510.796875 478.128906 519.136719 469.128906 519.136719 C 469.058594 519.136719 468.992188 519.136719 468.921875 519.136719 C 458.71875 518.992188 451.363281 509.753906 450.148438 500.90625 C 449.582031 496.804688 450.636719 492.152344 453.132812 487.480469 C 448.507812 488.746094 443.433594 490.90625 438.480469 494.527344 C 426.457031 503.324219 422.425781 515.511719 421.253906 520.339844 C 420.738281 522.460938 418.835938 523.882812 416.75 523.882812 C 416.386719 523.882812 416.019531 523.839844 415.652344 523.753906 C 413.171875 523.148438 411.648438 520.640625 412.25 518.15625 Z M 412.25 518.15625 "/><g clip-rule="nonzero" clip-path="url(#3d24fd7412)"><path style=" stroke:none;fill-rule:nonzero;fill:black;fill-opacity:1;" d="M 351.496094 543.238281 C 360.996094 545.847656 370.152344 549.527344 378.878906 554.097656 L 378.878906 223.097656 C 369.492188 217.71875 359.464844 213.546875 349.035156 210.683594 C 338.585938 207.808594 327.792969 206.269531 316.953125 206.105469 L 122.191406 206.105469 L 122.191406 538.332031 L 317.023438 538.332031 C 328.726562 538.511719 340.300781 540.164062 351.496094 543.238281 Z M 165.164062 229.929688 C 165.164062 227.371094 167.242188 225.292969 169.800781 225.292969 L 331.273438 225.292969 C 333.832031 225.292969 335.910156 227.371094 335.910156 229.929688 L 335.910156 263.238281 L 350.269531 263.238281 C 352.828125 263.238281 354.902344 265.3125 354.902344 267.871094 L 354.902344 357.992188 C 354.902344 360.550781 352.828125 362.625 350.269531 362.625 L 335.910156 362.625 L 335.910156 391.195312 C 335.910156 393.753906 333.832031 395.828125 331.273438 395.828125 L 169.800781 395.828125 C 167.242188 395.828125 165.164062 393.753906 165.164062 391.195312 Z M 165.046875 429.246094 L 336.019531 429.246094 C 338.578125 429.246094 340.65625 431.320312 340.65625 433.878906 C 340.65625 436.4375 338.578125 438.515625 336.019531 438.515625 L 165.046875 438.515625 C 162.488281 438.515625 160.414062 436.4375 160.414062 433.878906 C 160.414062 431.320312 162.488281 429.246094 165.046875 429.246094 Z M 212.542969 471.710938 L 165.046875 471.710938 C 162.488281 471.710938 160.414062 469.636719 160.414062 467.078125 C 160.414062 464.519531 162.488281 462.441406 165.046875 462.441406 L 212.542969 462.441406 C 215.101562 462.441406 217.175781 464.519531 217.175781 467.078125 C 217.175781 469.636719 215.101562 471.710938 212.542969 471.710938 Z M 236.398438 467.078125 C 236.398438 464.519531 238.476562 462.441406 241.035156 462.441406 L 336.019531 462.441406 C 338.578125 462.441406 340.65625 464.519531 340.65625 467.078125 C 340.65625 469.636719 338.578125 471.710938 336.019531 471.710938 L 241.035156 471.710938 C 238.476562 471.710938 236.398438 469.636719 236.398438 467.078125 Z M 274.277344 519.25 C 266.40625 519.25 260.03125 512.882812 260.03125 505.019531 C 260.03125 497.160156 266.40625 490.792969 274.277344 490.792969 C 282.148438 490.792969 288.527344 497.160156 288.527344 505.019531 C 288.527344 512.882812 282.148438 519.25 274.277344 519.25 Z M 307.527344 505.019531 C 307.527344 497.164062 313.90625 490.792969 321.777344 490.792969 C 329.644531 490.792969 336.023438 497.160156 336.023438 505.019531 C 336.023438 512.882812 329.644531 519.25 321.777344 519.25 C 313.90625 519.25 307.527344 512.882812 307.527344 505.019531 Z M 307.527344 505.019531 "/></g></g></svg>