<svg width="12" height="11" viewBox="0 0 12 11" fill="none" xmlns="http://www.w3.org/2000/svg">
<g clip-path="url(#clip0_367_691)">
<path d="M6.66072 5.32489C6.67765 5.32491 6.69421 5.31992 6.70832 5.31056C6.72242 5.3012 6.73345 5.28788 6.74001 5.27227C6.74658 5.25667 6.74838 5.23947 6.74521 5.22284C6.74203 5.20621 6.73402 5.19089 6.72217 5.1788L5.03779 3.46607C5.02582 3.45391 5.01051 3.4456 4.99379 3.44218C4.97708 3.43875 4.95973 3.44039 4.94395 3.44686C4.92816 3.45333 4.91467 3.46436 4.90517 3.47853C4.89567 3.4927 4.89061 3.50938 4.89063 3.52644V5.06708C4.89063 5.13546 4.91779 5.20103 4.96614 5.24938C5.01449 5.29773 5.08006 5.32489 5.14844 5.32489H6.66072Z" fill="#2D3748"/>
<path d="M4.48242 5.7334C4.39418 5.64634 4.32406 5.54266 4.27612 5.42834C4.22818 5.31402 4.20337 5.19134 4.20312 5.06738V3.09082H2.65625C2.29191 3.0919 1.9428 3.23711 1.68517 3.49474C1.42754 3.75237 1.28233 4.10148 1.28125 4.46582V9.27832C1.28125 9.64299 1.42612 9.99273 1.68398 10.2506C1.94184 10.5085 2.29158 10.6533 2.65625 10.6533H5.75C6.11467 10.6533 6.46441 10.5085 6.72227 10.2506C6.98013 9.99273 7.125 9.64299 7.125 9.27832V6.01269H5.14844C5.02447 6.01252 4.90176 5.98774 4.78744 5.9398C4.67311 5.89185 4.56944 5.8217 4.48242 5.7334Z" fill="#2D3748"/>
<path d="M8.24219 2.57489H9.75447C9.7714 2.57491 9.78796 2.56992 9.80207 2.56056C9.81617 2.5512 9.8272 2.53788 9.83376 2.52227C9.84033 2.50667 9.84213 2.48947 9.83896 2.47284C9.83578 2.45621 9.82777 2.44089 9.81592 2.4288L8.13154 0.716067C8.11957 0.703913 8.10426 0.695596 8.08754 0.692175C8.07083 0.688754 8.05348 0.690385 8.0377 0.696859C8.02191 0.703334 8.00842 0.714359 7.99892 0.728531C7.98942 0.742702 7.98436 0.759379 7.98438 0.776438V2.31708C7.98438 2.38546 8.01154 2.45103 8.05989 2.49938C8.10824 2.54773 8.17381 2.57489 8.24219 2.57489Z" fill="#2D3748"/>
<path d="M8.24213 3.26269C7.992 3.26078 7.75267 3.16058 7.5758 2.98371C7.39893 2.80684 7.29872 2.5675 7.29681 2.31738V0.34082H4.9765C4.63474 0.341218 4.3071 0.477158 4.06544 0.718818C3.82378 0.960477 3.68784 1.28812 3.68744 1.62988V2.40332H4.59236C4.70786 2.40378 4.82214 2.42706 4.92862 2.47182C5.0351 2.51658 5.13169 2.58194 5.21283 2.66414L7.55806 5.0489C7.72168 5.21491 7.81303 5.43887 7.81222 5.67195V8.59082H8.95197C9.65043 8.59082 10.2185 8.01246 10.2185 7.30176V3.26269H8.24213Z" fill="black"/>
</g>
<defs>
<clipPath id="clip0_367_691">
<rect width="11" height="11" fill="white" transform="translate(0.25 -0.00292969)"/>
</clipPath>
</defs>
</svg>
