<svg xmlns="http://www.w3.org/2000/svg" xmlns:xlink="http://www.w3.org/1999/xlink" width="1080" zoomAndPan="magnify" viewBox="0 0 810 809.999993" height="1080" preserveAspectRatio="xMidYMid meet" version="1.2"><defs><clipPath id="62e364c8b2"><path d="M 271 99.019531 L 539 99.019531 L 539 367 L 271 367 Z M 271 99.019531 "/></clipPath><clipPath id="29782692f7"><path d="M 416 393 L 672.871094 393 L 672.871094 687.769531 L 416 687.769531 Z M 416 393 "/></clipPath><clipPath id="5f6f138d36"><path d="M 137.371094 393 L 394 393 L 394 687.769531 L 137.371094 687.769531 Z M 137.371094 393 "/></clipPath></defs><g id="53ad0ae2f2"><g clip-rule="nonzero" clip-path="url(#62e364c8b2)"><path style=" stroke:none;fill-rule:nonzero;fill:black;fill-opacity:1;" d="M 538.644531 232.886719 C 538.644531 235.074219 538.589844 237.261719 538.480469 239.449219 C 538.375 241.636719 538.214844 243.820312 538 245.996094 C 537.785156 248.175781 537.515625 250.347656 537.195312 252.511719 C 536.875 254.679688 536.5 256.835938 536.074219 258.980469 C 535.644531 261.128906 535.164062 263.261719 534.632812 265.386719 C 534.101562 267.511719 533.519531 269.621094 532.882812 271.714844 C 532.246094 273.808594 531.5625 275.886719 530.824219 277.949219 C 530.085938 280.007812 529.296875 282.050781 528.460938 284.074219 C 527.625 286.09375 526.738281 288.097656 525.800781 290.074219 C 524.863281 292.054688 523.878906 294.007812 522.847656 295.9375 C 521.816406 297.871094 520.738281 299.773438 519.613281 301.652344 C 518.488281 303.527344 517.316406 305.378906 516.101562 307.199219 C 514.882812 309.019531 513.625 310.808594 512.320312 312.566406 C 511.015625 314.324219 509.667969 316.050781 508.28125 317.742188 C 506.890625 319.433594 505.464844 321.089844 503.992188 322.710938 C 502.523438 324.335938 501.015625 325.917969 499.464844 327.46875 C 497.917969 329.015625 496.332031 330.523438 494.710938 331.996094 C 493.089844 333.464844 491.433594 334.894531 489.738281 336.28125 C 488.046875 337.671875 486.324219 339.015625 484.5625 340.320312 C 482.804688 341.625 481.015625 342.886719 479.195312 344.101562 C 477.375 345.316406 475.527344 346.488281 473.648438 347.613281 C 471.773438 348.738281 469.867188 349.816406 467.9375 350.851562 C 466.007812 351.882812 464.054688 352.867188 462.074219 353.800781 C 460.09375 354.738281 458.09375 355.625 456.070312 356.460938 C 454.050781 357.300781 452.007812 358.085938 449.945312 358.824219 C 447.886719 359.5625 445.808594 360.25 443.714844 360.882812 C 441.617188 361.519531 439.507812 362.105469 437.386719 362.636719 C 435.261719 363.167969 433.125 363.648438 430.980469 364.074219 C 428.832031 364.5 426.675781 364.875 424.511719 365.195312 C 422.347656 365.515625 420.175781 365.785156 417.996094 366 C 415.816406 366.214844 413.632812 366.375 411.449219 366.484375 C 409.261719 366.589844 407.074219 366.644531 404.886719 366.644531 C 402.695312 366.644531 400.507812 366.589844 398.320312 366.484375 C 396.136719 366.375 393.953125 366.214844 391.773438 366 C 389.597656 365.785156 387.425781 365.515625 385.257812 365.195312 C 383.09375 364.875 380.9375 364.5 378.789062 364.074219 C 376.644531 363.648438 374.507812 363.167969 372.382812 362.636719 C 370.261719 362.105469 368.152344 361.519531 366.058594 360.882812 C 363.960938 360.25 361.882812 359.5625 359.824219 358.824219 C 357.761719 358.085938 355.722656 357.300781 353.699219 356.460938 C 351.675781 355.625 349.675781 354.738281 347.695312 353.800781 C 345.71875 352.867188 343.761719 351.882812 341.832031 350.851562 C 339.902344 349.816406 337.996094 348.738281 336.121094 347.613281 C 334.242188 346.488281 332.394531 345.316406 330.574219 344.101562 C 328.753906 342.886719 326.964844 341.625 325.207031 340.320312 C 323.449219 339.015625 321.722656 337.671875 320.03125 336.28125 C 318.339844 334.894531 316.679688 333.464844 315.058594 331.996094 C 313.4375 330.523438 311.851562 329.015625 310.304688 327.46875 C 308.757812 325.917969 307.246094 324.335938 305.777344 322.710938 C 304.308594 321.089844 302.878906 319.433594 301.488281 317.742188 C 300.101562 316.050781 298.753906 314.324219 297.449219 312.566406 C 296.144531 310.808594 294.886719 309.019531 293.667969 307.199219 C 292.453125 305.378906 291.28125 303.527344 290.15625 301.652344 C 289.03125 299.773438 287.953125 297.871094 286.921875 295.9375 C 285.890625 294.007812 284.90625 292.054688 283.96875 290.074219 C 283.035156 288.097656 282.148438 286.09375 281.308594 284.074219 C 280.472656 282.050781 279.683594 280.007812 278.945312 277.949219 C 278.210938 275.886719 277.523438 273.808594 276.886719 271.714844 C 276.25 269.621094 275.667969 267.511719 275.136719 265.386719 C 274.605469 263.261719 274.125 261.128906 273.699219 258.980469 C 273.269531 256.835938 272.898438 254.679688 272.574219 252.511719 C 272.253906 250.347656 271.984375 248.175781 271.773438 245.996094 C 271.558594 243.820312 271.394531 241.636719 271.289062 239.449219 C 271.179688 237.261719 271.128906 235.074219 271.128906 232.886719 C 271.128906 230.699219 271.179688 228.507812 271.289062 226.324219 C 271.394531 224.136719 271.558594 221.953125 271.773438 219.777344 C 271.984375 217.597656 272.253906 215.425781 272.574219 213.261719 C 272.898438 211.09375 273.269531 208.9375 273.699219 206.792969 C 274.125 204.644531 274.605469 202.507812 275.136719 200.386719 C 275.667969 198.261719 276.25 196.152344 276.886719 194.058594 C 277.523438 191.964844 278.210938 189.886719 278.945312 187.824219 C 279.683594 185.765625 280.472656 183.722656 281.308594 181.699219 C 282.148438 179.675781 283.035156 177.675781 283.96875 175.699219 C 284.90625 173.71875 285.890625 171.765625 286.921875 169.832031 C 287.953125 167.902344 289.03125 166 290.15625 164.121094 C 291.28125 162.242188 292.453125 160.394531 293.667969 158.574219 C 294.886719 156.753906 296.144531 154.964844 297.449219 153.207031 C 298.753906 151.449219 300.101562 149.722656 301.488281 148.03125 C 302.878906 146.339844 304.308594 144.683594 305.777344 143.058594 C 307.246094 141.4375 308.757812 139.851562 310.304688 138.304688 C 311.851562 136.757812 313.4375 135.25 315.058594 133.777344 C 316.679688 132.308594 318.339844 130.878906 320.03125 129.492188 C 321.722656 128.101562 323.449219 126.753906 325.207031 125.453125 C 326.964844 124.148438 328.753906 122.886719 330.574219 121.671875 C 332.394531 120.453125 334.242188 119.285156 336.121094 118.160156 C 337.996094 117.035156 339.902344 115.953125 341.832031 114.921875 C 343.761719 113.890625 345.71875 112.90625 347.695312 111.972656 C 349.675781 111.035156 351.675781 110.148438 353.699219 109.3125 C 355.722656 108.472656 357.761719 107.683594 359.824219 106.949219 C 361.882812 106.210938 363.960938 105.523438 366.058594 104.886719 C 368.152344 104.253906 370.261719 103.667969 372.382812 103.136719 C 374.507812 102.605469 376.644531 102.125 378.789062 101.699219 C 380.9375 101.273438 383.09375 100.898438 385.257812 100.578125 C 387.425781 100.253906 389.597656 99.988281 391.773438 99.773438 C 393.953125 99.558594 396.136719 99.398438 398.320312 99.289062 C 400.507812 99.183594 402.695312 99.128906 404.886719 99.128906 C 407.074219 99.128906 409.261719 99.183594 411.449219 99.289062 C 413.632812 99.398438 415.816406 99.558594 417.996094 99.773438 C 420.175781 99.988281 422.347656 100.253906 424.511719 100.578125 C 426.675781 100.898438 428.832031 101.273438 430.980469 101.699219 C 433.125 102.125 435.261719 102.605469 437.386719 103.136719 C 439.507812 103.667969 441.617188 104.253906 443.714844 104.886719 C 445.808594 105.523438 447.886719 106.210938 449.945312 106.949219 C 452.007812 107.683594 454.050781 108.472656 456.070312 109.3125 C 458.09375 110.148438 460.09375 111.035156 462.074219 111.972656 C 464.054688 112.90625 466.007812 113.890625 467.9375 114.921875 C 469.867188 115.953125 471.773438 117.035156 473.648438 118.160156 C 475.527344 119.285156 477.375 120.453125 479.195312 121.671875 C 481.015625 122.886719 482.804688 124.148438 484.566406 125.453125 C 486.324219 126.753906 488.046875 128.101562 489.738281 129.492188 C 491.433594 130.878906 493.089844 132.308594 494.710938 133.777344 C 496.332031 135.25 497.917969 136.757812 499.464844 138.304688 C 501.015625 139.851562 502.523438 141.4375 503.992188 143.058594 C 505.464844 144.683594 506.890625 146.339844 508.28125 148.03125 C 509.667969 149.722656 511.015625 151.449219 512.320312 153.207031 C 513.625 154.964844 514.882812 156.753906 516.101562 158.574219 C 517.316406 160.394531 518.488281 162.242188 519.613281 164.121094 C 520.738281 166 521.816406 167.902344 522.847656 169.832031 C 523.878906 171.765625 524.863281 173.71875 525.800781 175.699219 C 526.738281 177.675781 527.625 179.675781 528.460938 181.699219 C 529.296875 183.722656 530.085938 185.765625 530.824219 187.824219 C 531.5625 189.886719 532.246094 191.964844 532.882812 194.058594 C 533.519531 196.152344 534.101562 198.261719 534.632812 200.386719 C 535.164062 202.507812 535.644531 204.644531 536.074219 206.792969 C 536.5 208.9375 536.875 211.09375 537.195312 213.261719 C 537.515625 215.425781 537.785156 217.597656 538 219.777344 C 538.214844 221.953125 538.375 224.136719 538.480469 226.324219 C 538.589844 228.507812 538.644531 230.699219 538.644531 232.886719 Z M 538.644531 232.886719 "/></g><path style=" stroke:none;fill-rule:nonzero;fill:black;fill-opacity:1;" d="M 454.644531 573.164062 L 404.886719 424.425781 L 355.128906 573.164062 L 355.128906 573.433594 L 404.886719 623.191406 L 454.644531 573.433594 Z M 454.644531 573.164062 "/><g clip-rule="nonzero" clip-path="url(#29782692f7)"><path style=" stroke:none;fill-rule:nonzero;fill:black;fill-opacity:1;" d="M 458.386719 393.394531 L 450.898438 393.394531 L 510.019531 570.492188 C 510.496094 571.710938 510.886719 572.960938 511.1875 574.238281 C 511.488281 575.515625 511.695312 576.808594 511.808594 578.117188 C 511.925781 579.421875 511.945312 580.730469 511.871094 582.042969 C 511.796875 583.351562 511.632812 584.652344 511.371094 585.9375 C 511.113281 587.222656 510.761719 588.484375 510.320312 589.722656 C 509.882812 590.957031 509.355469 592.15625 508.742188 593.316406 C 508.128906 594.476562 507.4375 595.585938 506.664062 596.648438 C 505.894531 597.710938 505.050781 598.710938 504.132812 599.648438 L 416.121094 687.664062 L 645.648438 687.664062 C 646.523438 687.660156 647.398438 687.613281 648.269531 687.527344 C 649.140625 687.4375 650.003906 687.308594 650.863281 687.136719 C 651.71875 686.960938 652.570312 686.75 653.40625 686.492188 C 654.242188 686.238281 655.066406 685.941406 655.875 685.605469 C 656.683594 685.269531 657.472656 684.894531 658.242188 684.480469 C 659.015625 684.066406 659.765625 683.617188 660.492188 683.128906 C 661.21875 682.644531 661.921875 682.121094 662.597656 681.566406 C 663.277344 681.011719 663.921875 680.421875 664.542969 679.804688 C 665.160156 679.183594 665.75 678.539062 666.304688 677.859375 C 666.859375 677.183594 667.382812 676.480469 667.867188 675.753906 C 668.355469 675.027344 668.804688 674.277344 669.21875 673.507812 C 669.632812 672.734375 670.007812 671.945312 670.34375 671.136719 C 670.679688 670.328125 670.976562 669.503906 671.230469 668.667969 C 671.488281 667.832031 671.699219 666.984375 671.875 666.125 C 672.046875 665.265625 672.175781 664.402344 672.265625 663.53125 C 672.351562 662.660156 672.398438 661.785156 672.398438 660.910156 L 672.398438 607.40625 C 672.394531 603.90625 672.304688 600.40625 672.128906 596.910156 C 671.953125 593.414062 671.691406 589.921875 671.34375 586.441406 C 670.996094 582.957031 670.566406 579.480469 670.046875 576.019531 C 669.53125 572.558594 668.929688 569.109375 668.242188 565.675781 C 667.554688 562.242188 666.785156 558.828125 665.929688 555.433594 C 665.078125 552.035156 664.140625 548.664062 663.121094 545.316406 C 662.101562 541.964844 661 538.644531 659.820312 535.347656 C 658.636719 532.050781 657.375 528.785156 656.035156 525.554688 C 654.691406 522.320312 653.273438 519.121094 651.773438 515.957031 C 650.273438 512.792969 648.699219 509.667969 647.046875 506.578125 C 645.394531 503.492188 643.667969 500.449219 641.867188 497.445312 C 640.066406 494.441406 638.191406 491.488281 636.246094 488.574219 C 634.300781 485.664062 632.285156 482.804688 630.195312 479.992188 C 628.109375 477.179688 625.957031 474.421875 623.734375 471.714844 C 621.511719 469.011719 619.226562 466.359375 616.875 463.765625 C 614.523438 461.171875 612.109375 458.636719 609.632812 456.160156 C 607.160156 453.683594 604.625 451.273438 602.03125 448.921875 C 599.4375 446.570312 596.785156 444.28125 594.078125 442.0625 C 591.375 439.839844 588.613281 437.683594 585.804688 435.597656 C 582.992188 433.511719 580.128906 431.496094 577.21875 429.550781 C 574.308594 427.605469 571.351562 425.730469 568.351562 423.929688 C 565.347656 422.128906 562.304688 420.402344 559.214844 418.75 C 556.128906 417.097656 553.003906 415.523438 549.839844 414.023438 C 546.675781 412.523438 543.476562 411.105469 540.242188 409.761719 C 537.007812 408.421875 533.746094 407.15625 530.449219 405.976562 C 527.152344 404.792969 523.832031 403.695312 520.480469 402.675781 C 517.132812 401.65625 513.757812 400.71875 510.363281 399.863281 C 506.96875 399.011719 503.554688 398.242188 500.121094 397.554688 C 496.6875 396.867188 493.238281 396.265625 489.777344 395.75 C 486.3125 395.230469 482.839844 394.800781 479.355469 394.453125 C 475.871094 394.105469 472.382812 393.84375 468.886719 393.667969 C 465.386719 393.492188 461.890625 393.398438 458.386719 393.394531 Z M 458.386719 393.394531 "/></g><g clip-rule="nonzero" clip-path="url(#5f6f138d36)"><path style=" stroke:none;fill-rule:nonzero;fill:black;fill-opacity:1;" d="M 305.636719 599.648438 C 304.722656 598.710938 303.878906 597.710938 303.105469 596.648438 C 302.332031 595.585938 301.640625 594.476562 301.027344 593.316406 C 300.414062 592.15625 299.886719 590.957031 299.449219 589.722656 C 299.007812 588.484375 298.65625 587.222656 298.398438 585.9375 C 298.136719 584.652344 297.972656 583.351562 297.898438 582.042969 C 297.824219 580.730469 297.84375 579.421875 297.960938 578.117188 C 298.074219 576.808594 298.28125 575.515625 298.582031 574.238281 C 298.882812 572.960938 299.273438 571.710938 299.75 570.492188 L 358.871094 393.394531 L 351.382812 393.394531 C 347.882812 393.398438 344.382812 393.492188 340.886719 393.667969 C 337.386719 393.84375 333.898438 394.105469 330.414062 394.453125 C 326.929688 394.800781 323.457031 395.230469 319.992188 395.75 C 316.53125 396.265625 313.082031 396.867188 309.648438 397.554688 C 306.21875 398.242188 302.800781 399.011719 299.40625 399.863281 C 296.011719 400.71875 292.640625 401.65625 289.289062 402.675781 C 285.941406 403.695312 282.617188 404.792969 279.320312 405.976562 C 276.027344 407.15625 272.761719 408.421875 269.527344 409.761719 C 266.292969 411.105469 263.09375 412.523438 259.929688 414.023438 C 256.765625 415.523438 253.640625 417.097656 250.554688 418.75 C 247.464844 420.402344 244.421875 422.128906 241.417969 423.929688 C 238.417969 425.730469 235.460938 427.605469 232.550781 429.550781 C 229.640625 431.496094 226.777344 433.511719 223.96875 435.597656 C 221.15625 437.683594 218.398438 439.839844 215.691406 442.0625 C 212.984375 444.28125 210.335938 446.570312 207.742188 448.921875 C 205.144531 451.273438 202.613281 453.683594 200.136719 456.160156 C 197.660156 458.636719 195.246094 461.171875 192.894531 463.765625 C 190.542969 466.359375 188.257812 469.011719 186.035156 471.714844 C 183.8125 474.421875 181.660156 477.179688 179.574219 479.992188 C 177.488281 482.804688 175.472656 485.664062 173.523438 488.574219 C 171.578125 491.488281 169.703125 494.441406 167.902344 497.445312 C 166.101562 500.449219 164.375 503.492188 162.722656 506.578125 C 161.070312 509.667969 159.496094 512.792969 157.996094 515.957031 C 156.5 519.121094 155.078125 522.320312 153.738281 525.554688 C 152.394531 528.785156 151.132812 532.050781 149.949219 535.347656 C 148.769531 538.644531 147.667969 541.964844 146.648438 545.316406 C 145.628906 548.664062 144.691406 552.035156 143.839844 555.433594 C 142.984375 558.828125 142.214844 562.242188 141.527344 565.675781 C 140.84375 569.109375 140.242188 572.558594 139.722656 576.019531 C 139.207031 579.480469 138.773438 582.957031 138.425781 586.441406 C 138.078125 589.921875 137.816406 593.414062 137.640625 596.910156 C 137.464844 600.40625 137.375 603.90625 137.371094 607.40625 L 137.371094 660.910156 C 137.371094 661.785156 137.417969 662.660156 137.507812 663.53125 C 137.59375 664.402344 137.722656 665.265625 137.898438 666.125 C 138.070312 666.984375 138.285156 667.832031 138.539062 668.667969 C 138.792969 669.503906 139.089844 670.328125 139.425781 671.136719 C 139.761719 671.945312 140.136719 672.734375 140.550781 673.507812 C 140.964844 674.277344 141.414062 675.027344 141.902344 675.753906 C 142.390625 676.480469 142.910156 677.183594 143.464844 677.859375 C 144.023438 678.539062 144.609375 679.183594 145.226562 679.804688 C 145.847656 680.421875 146.496094 681.011719 147.171875 681.566406 C 147.847656 682.121094 148.550781 682.644531 149.277344 683.128906 C 150.003906 683.617188 150.753906 684.066406 151.527344 684.480469 C 152.296875 684.894531 153.085938 685.269531 153.894531 685.605469 C 154.703125 685.941406 155.527344 686.238281 156.363281 686.492188 C 157.203125 686.75 158.050781 686.960938 158.90625 687.136719 C 159.765625 687.308594 160.628906 687.4375 161.5 687.527344 C 162.371094 687.613281 163.246094 687.660156 164.121094 687.664062 L 393.917969 687.664062 C 393.917969 687.664062 376.820312 670.832031 305.636719 599.648438 Z M 305.636719 599.648438 "/></g></g></svg>