<svg width="15" height="26" viewBox="0 0 15 26" fill="none" xmlns="http://www.w3.org/2000/svg">
<path d="M1 5.26693V20.7336C1 22.2271 1 22.9734 1.28338 23.5438C1.53265 24.0456 1.93011 24.454 2.41934 24.7096C2.97496 25 3.70269 25 5.15598 25H9.84402C11.2973 25 12.024 25 12.5796 24.7096C13.0688 24.454 13.4676 24.0456 13.7169 23.5438C14 22.974 14 22.2287 14 20.7381V5.26255C14 3.77199 14 3.0256 13.7169 2.45573C13.4676 1.95396 13.0688 1.54631 12.5796 1.29065C12.0234 1 11.2964 1 9.84025 1H5.16025C3.70412 1 2.97551 1 2.41934 1.29065C1.93011 1.54631 1.53265 1.95396 1.28338 2.45573C1 3.02616 1 3.77345 1 5.26693Z" stroke="#2D3748" stroke-width="1.6" stroke-linecap="round" stroke-linejoin="round"/>
</svg>
