<svg width="26" height="20" viewBox="0 0 26 20" fill="none" xmlns="http://www.w3.org/2000/svg">
<path d="M3.4 15.4H2.8C1.80589 15.4 1 16.2059 1 17.2C1 18.1941 1.80589 19 2.8 19H23.2C24.1941 19 25 18.1941 25 17.2C25 16.2059 24.1941 15.4 23.2 15.4H22.6M3.4 15.4H22.6M3.4 15.4V4.84023C3.4 3.49611 3.4 2.82354 3.66158 2.31016C3.89168 1.85857 4.25857 1.49168 4.71016 1.26158C5.22354 1 5.89611 1 7.24023 1H18.7602C20.1044 1 20.7755 1 21.2889 1.26158C21.7405 1.49168 22.1086 1.85857 22.3387 2.31016C22.6 2.82304 22.6 3.49479 22.6 4.83629V15.4" stroke="#2D3748" stroke-width="1.6" stroke-linecap="round" stroke-linejoin="round"/>
</svg>
