<svg width="23" height="25" viewBox="0 0 23 25" fill="none" xmlns="http://www.w3.org/2000/svg">
<g clip-path="url(#clip0_2443_281)">
<path d="M7.83142 2.28285C7.92338 2.33801 7.98979 2.37662 8.05621 2.41523C9.03711 2.95028 10.0231 3.4743 10.9938 4.03141C12.9709 5.1677 13.9978 6.97143 14.0284 9.37088C14.0693 12.4819 14.0387 15.5984 14.0387 18.7094C14.0387 19.2059 13.9774 19.6857 13.8547 20.1601C13.8139 20.3256 13.8343 20.3973 14.0131 20.3863C14.4678 20.3642 14.9174 20.4028 15.3721 20.3532C16.5113 20.2208 17.3798 19.2224 17.4003 17.9813C17.4105 17.4297 17.4003 16.8781 17.4003 16.332C17.4003 15.797 17.7272 15.4329 18.1921 15.4329C18.6417 15.4329 18.9636 15.797 18.9585 16.3265C18.9483 17.0932 19.0147 17.86 18.9125 18.6212C18.6571 20.5407 17.0376 22.0631 15.2495 22.0742C14.5904 22.0742 13.9263 22.0797 13.2672 22.0742C13.1089 22.0742 13.0067 22.1293 12.9096 22.2672C11.99 23.5524 10.7894 24.3357 9.29255 24.5288C8.281 24.6612 7.31032 24.4515 6.39584 23.9496C5.22591 23.3042 4.05599 22.6589 2.88095 22.0245C2.40072 21.7653 1.87962 21.5777 1.45559 21.1971C0.535995 20.3642 0.0200023 19.3217 0.00467578 18.0199C-0.0106507 16.6354 0.00467578 15.2509 0.00467578 13.8664C0.00467578 13.3148 0.311206 12.9618 0.776111 12.9618C1.2308 12.9618 1.55776 13.3313 1.55776 13.8719C1.55776 15.1516 1.55776 16.4368 1.55776 17.7165C1.56287 18.8308 2.01756 19.6526 2.95248 20.1601C4.31654 20.8993 5.6806 21.6494 7.04466 22.3996C9.47136 23.7345 12.128 21.9087 12.4345 19.1838C12.4702 18.8859 12.4754 18.5825 12.4754 18.2847C12.4754 15.4053 12.4754 12.5205 12.4754 9.64116C12.4754 7.71057 11.6937 6.30951 10.0793 5.4435C8.36274 4.52234 6.64106 3.59565 4.95003 2.62484C3.28966 1.67058 1.53222 2.96132 1.55265 4.89191C1.56798 6.46396 1.55265 8.04153 1.55265 9.61358C1.55265 10.1266 1.24102 10.5016 0.816981 10.5237C0.352077 10.5458 -0.000433064 10.1983 -0.0055419 9.69632C-0.0106507 8.86892 -0.0055419 8.04704 -0.0055419 7.21965C-0.0055419 6.34261 -0.0055419 5.46557 -0.0055419 4.58853C0.0200023 2.42627 1.73657 0.572899 3.72902 0.567383C7.55043 0.567383 11.377 0.567383 15.1984 0.567383C17.2572 0.567383 18.9483 2.40972 18.9636 4.63265C18.9636 5.2008 18.9636 5.76895 18.9636 6.33709C18.9636 6.85559 18.6366 7.21413 18.1768 7.20861C17.7375 7.20861 17.4105 6.84456 17.4054 6.34261C17.4003 5.86272 17.4054 5.37731 17.4054 4.89742C17.4054 3.31985 16.5011 2.28285 15.0451 2.2663C12.6695 2.23872 10.299 2.26079 7.92338 2.26079C7.90294 2.26079 7.88251 2.27182 7.83142 2.28285Z" fill="white"/>
<path d="M20.2619 12.1894C20.1801 12.1398 20.0882 12.1673 20.0064 12.1673C18.6424 12.1673 17.2834 12.1673 15.9194 12.1673C15.5771 12.1673 15.3114 11.9743 15.1939 11.6433C15.0713 11.3068 15.1326 10.9979 15.3574 10.7332C15.5158 10.5456 15.7252 10.4794 15.9602 10.4794C17.3039 10.4794 18.6526 10.4794 19.9962 10.4794C20.0831 10.4794 20.1699 10.4794 20.2568 10.4794C20.267 10.3691 20.1904 10.3526 20.1444 10.314C19.8327 10.0602 19.516 9.81753 19.2044 9.55828C18.8212 9.23835 18.7395 8.7364 18.9949 8.35028C19.2606 7.95313 19.7357 7.87591 20.1342 8.19032C20.8801 8.77501 21.6311 9.36522 22.3616 9.97198C23.2097 10.678 23.2097 11.9522 22.3667 12.6583C21.6311 13.276 20.875 13.8663 20.124 14.4565C19.7408 14.7598 19.2657 14.6826 19 14.291C18.7446 13.9159 18.811 13.4139 19.1788 13.0995C19.4853 12.8403 19.8072 12.5976 20.1188 12.3438C20.1699 12.2997 20.2517 12.2777 20.2619 12.1839V12.1894Z" fill="white"/>
</g>
<defs>
<clipPath id="clip0_2443_281">
<rect width="23" height="24" fill="white" transform="translate(0 0.567383)"/>
</clipPath>
</defs>
</svg>
