<svg width="16" height="16" viewBox="0 0 16 16" fill="none" xmlns="http://www.w3.org/2000/svg">
<path d="M13.7526 10.665C13.7007 10.6025 13.6498 10.54 13.5998 10.4796C12.9123 9.64808 12.4963 9.14621 12.4963 6.79215C12.4963 5.5734 12.2048 4.5734 11.6301 3.8234C11.2063 3.26934 10.6335 2.84902 9.87851 2.5384C9.86879 2.53299 9.86012 2.5259 9.85288 2.51746C9.58132 1.60809 8.8382 0.999023 8.00007 0.999023C7.16195 0.999023 6.41913 1.60809 6.14757 2.51652C6.14032 2.52466 6.13177 2.53152 6.12226 2.53684C4.36038 3.26215 3.50413 4.65371 3.50413 6.79121C3.50413 9.14621 3.08882 9.64808 2.4007 10.4787C2.3507 10.539 2.29976 10.6003 2.24789 10.664C2.11389 10.8256 2.02899 11.0222 2.00323 11.2306C1.97748 11.4389 2.01195 11.6503 2.10257 11.8396C2.29539 12.2459 2.70632 12.4981 3.17538 12.4981H12.8282C13.2951 12.4981 13.7032 12.2462 13.8966 11.8418C13.9876 11.6524 14.0224 11.4409 13.9969 11.2323C13.9714 11.0237 13.8866 10.8268 13.7526 10.665Z" fill="#216ED7"/>
<path d="M7.99998 15C8.45156 14.9996 8.89461 14.8771 9.28216 14.6453C9.6697 14.4135 9.98729 14.0811 10.2012 13.6834C10.2113 13.6644 10.2163 13.643 10.2157 13.6215C10.2151 13.5999 10.2089 13.5789 10.1978 13.5604C10.1866 13.542 10.1709 13.5267 10.1521 13.5161C10.1334 13.5055 10.1122 13.5 10.0906 13.5H5.90998C5.8884 13.4999 5.86716 13.5054 5.84834 13.516C5.82952 13.5266 5.81376 13.5418 5.80259 13.5603C5.79141 13.5788 5.78522 13.5998 5.7846 13.6214C5.78398 13.643 5.78896 13.6644 5.79905 13.6834C6.01296 14.0811 6.3305 14.4134 6.71799 14.6452C7.10547 14.877 7.54846 14.9996 7.99998 15Z" fill="#216ED7"/>
</svg>
