<svg width="20" height="18" viewBox="0 0 20 18" fill="none" xmlns="http://www.w3.org/2000/svg">
<path d="M15 16.6599C15 15.0031 12.7614 13.6599 10 13.6599C7.23858 13.6599 5 15.0031 5 16.6599M19 13.6603C19 12.4301 17.7659 11.3728 16 10.9099M1 13.6603C1 12.4301 2.2341 11.3728 4 10.9099M16 6.89602C16.6137 6.3467 17 5.54841 17 4.65991C17 3.00306 15.6569 1.65991 14 1.65991C13.2316 1.65991 12.5308 1.94877 12 2.42381M4 6.89602C3.38625 6.3467 3 5.54841 3 4.65991C3 3.00306 4.34315 1.65991 6 1.65991C6.76835 1.65991 7.46924 1.94877 8 2.42381M10 10.6599C8.34315 10.6599 7 9.31677 7 7.65991C7 6.00306 8.34315 4.65991 10 4.65991C11.6569 4.65991 13 6.00306 13 7.65991C13 9.31677 11.6569 10.6599 10 10.6599Z" stroke="var(--svg-new-col)" stroke-width="1.6" stroke-linecap="round" stroke-linejoin="round"/>
</svg>
