<svg width="74" height="74" viewBox="0 0 74 74" fill="none" xmlns="http://www.w3.org/2000/svg">
<rect x="0.5" y="0.5" width="73" height="73" rx="36.5" fill="#F7F9FF"/>
<rect x="0.5" y="0.5" width="73" height="73" rx="36.5" stroke="#D0D5E3"/>
<path d="M42.2166 44.3323C40.9349 42.9008 39.0727 42 37 42C34.9273 42 33.0649 42.9008 31.7832 44.3323M37 46C32.0294 46 28 41.9706 28 37C28 32.0294 32.0294 28 37 28C41.9706 28 46 32.0294 46 37C46 41.9706 41.9706 46 37 46ZM37 39C35.3431 39 34 37.6569 34 36C34 34.3431 35.3431 33 37 33C38.6569 33 40 34.3431 40 36C40 37.6569 38.6569 39 37 39Z" stroke="#D0D5E3" stroke-linecap="round" stroke-linejoin="round"/>
</svg>
