<svg xmlns="http://www.w3.org/2000/svg" xmlns:xlink="http://www.w3.org/1999/xlink" width="1080" zoomAndPan="magnify" viewBox="0 0 810 809.999993" height="1080" preserveAspectRatio="xMidYMid meet" version="1.2"><defs><clipPath id="c55e085c10"><path d="M 81 141.75 L 729 141.75 L 729 668.25 L 81 668.25 Z M 81 141.75 "/></clipPath></defs><g id="f16d000aee"><g clip-rule="nonzero" clip-path="url(#c55e085c10)"><path style=" stroke:none;fill-rule:nonzero;fill:#000000;fill-opacity:1;" d="M 131.625 567 L 212.625 567 L 212.625 658.125 C 212.625 664.199219 216.675781 668.25 222.75 668.25 L 587.25 668.25 C 593.324219 668.25 597.375 664.199219 597.375 658.125 L 597.375 567 L 678.375 567 C 705.710938 567 729 544.726562 729 516.375 L 729 324 C 729 295.648438 706.726562 273.375 678.375 273.375 L 637.875 273.375 L 637.875 212.625 C 637.875 206.550781 633.824219 202.5 627.75 202.5 L 597.375 202.5 L 597.375 151.875 C 597.375 145.800781 593.324219 141.75 587.25 141.75 L 222.75 141.75 C 216.675781 141.75 212.625 145.800781 212.625 151.875 L 212.625 202.5 L 182.25 202.5 C 176.175781 202.5 172.125 206.550781 172.125 212.625 L 172.125 273.375 L 131.625 273.375 C 104.289062 273.375 81 295.648438 81 324 L 81 516.375 C 81 544.726562 104.289062 567 131.625 567 Z M 232.875 162 L 577.125 162 L 577.125 283.5 C 577.125 289.574219 581.175781 293.625 587.25 293.625 C 593.324219 293.625 597.375 289.574219 597.375 283.5 L 597.375 222.75 L 617.625 222.75 L 617.625 334.125 L 232.875 334.125 Z M 192.375 222.75 L 212.625 222.75 L 212.625 334.125 L 192.375 334.125 Z M 102.261719 324 C 102.261719 307.800781 115.425781 293.625 132.636719 293.625 L 173.136719 293.625 L 173.136719 334.125 L 151.875 334.125 C 145.800781 334.125 141.75 338.175781 141.75 344.25 C 141.75 350.324219 145.800781 354.375 151.875 354.375 L 658.125 354.375 C 664.199219 354.375 668.25 350.324219 668.25 344.25 C 668.25 338.175781 664.199219 334.125 658.125 334.125 L 637.875 334.125 L 637.875 293.625 L 678.375 293.625 C 694.574219 293.625 708.75 306.789062 708.75 324 L 708.75 516.375 C 708.75 532.574219 695.585938 546.75 678.375 546.75 L 597.375 546.75 L 597.375 516.375 C 597.375 510.300781 593.324219 506.25 587.25 506.25 C 581.175781 506.25 577.125 510.300781 577.125 516.375 L 577.125 648 L 232.875 648 L 232.875 465.75 L 577.125 465.75 L 577.125 475.875 C 577.125 481.949219 581.175781 486 587.25 486 C 593.324219 486 597.375 481.949219 597.375 475.875 L 597.375 455.625 C 597.375 449.550781 593.324219 445.5 587.25 445.5 L 222.75 445.5 C 216.675781 445.5 212.625 449.550781 212.625 455.625 L 212.625 546.75 L 131.625 546.75 C 115.425781 546.75 101.25 533.585938 101.25 516.375 Z M 102.261719 324 "/></g><path style=" stroke:none;fill-rule:nonzero;fill:#000000;fill-opacity:1;" d="M 152.886719 415.125 C 155.925781 415.125 157.949219 414.113281 159.976562 412.085938 C 162 410.0625 163.011719 408.039062 163.011719 405 C 163.011719 401.960938 162 399.9375 159.976562 397.914062 C 155.925781 393.863281 149.851562 393.863281 145.800781 397.914062 C 143.773438 399.9375 142.761719 401.960938 142.761719 405 C 142.761719 408.039062 143.773438 410.0625 145.800781 412.085938 C 146.8125 414.113281 149.851562 415.125 152.886719 415.125 Z M 152.886719 415.125 "/><path style=" stroke:none;fill-rule:nonzero;fill:#000000;fill-opacity:1;" d="M 627.75 415.125 C 630.789062 415.125 632.8125 414.113281 634.835938 412.085938 C 636.863281 410.0625 637.875 407.023438 637.875 405 C 637.875 401.960938 636.863281 399.9375 634.835938 397.914062 C 630.789062 393.863281 624.710938 393.863281 620.664062 397.914062 C 618.636719 399.9375 617.625 401.960938 617.625 405 C 617.625 408.039062 618.636719 410.0625 620.664062 412.085938 C 622.6875 414.113281 624.710938 415.125 627.75 415.125 Z M 627.75 415.125 "/><path style=" stroke:none;fill-rule:nonzero;fill:#000000;fill-opacity:1;" d="M 526.5 546.75 L 283.5 546.75 C 277.425781 546.75 273.375 550.800781 273.375 556.875 C 273.375 562.949219 277.425781 567 283.5 567 L 526.5 567 C 532.574219 567 536.625 562.949219 536.625 556.875 C 536.625 550.800781 532.574219 546.75 526.5 546.75 Z M 526.5 546.75 "/><path style=" stroke:none;fill-rule:nonzero;fill:#000000;fill-opacity:1;" d="M 526.5 597.375 L 506.25 597.375 C 500.175781 597.375 496.125 601.425781 496.125 607.5 C 496.125 613.574219 500.175781 617.625 506.25 617.625 L 526.5 617.625 C 532.574219 617.625 536.625 613.574219 536.625 607.5 C 536.625 601.425781 532.574219 597.375 526.5 597.375 Z M 526.5 597.375 "/><path style=" stroke:none;fill-rule:nonzero;fill:#000000;fill-opacity:1;" d="M 445.5 597.375 L 283.5 597.375 C 277.425781 597.375 273.375 601.425781 273.375 607.5 C 273.375 613.574219 277.425781 617.625 283.5 617.625 L 445.5 617.625 C 451.574219 617.625 455.625 613.574219 455.625 607.5 C 455.625 601.425781 451.574219 597.375 445.5 597.375 Z M 445.5 597.375 "/><path style=" stroke:none;fill-rule:nonzero;fill:#000000;fill-opacity:1;" d="M 283.5 516.375 L 374.625 516.375 C 380.699219 516.375 384.75 512.324219 384.75 506.25 C 384.75 500.175781 380.699219 496.125 374.625 496.125 L 283.5 496.125 C 277.425781 496.125 273.375 500.175781 273.375 506.25 C 273.375 512.324219 277.425781 516.375 283.5 516.375 Z M 283.5 516.375 "/><path style=" stroke:none;fill-rule:nonzero;fill:#000000;fill-opacity:1;" d="M 526.5 496.125 L 435.375 496.125 C 429.300781 496.125 425.25 500.175781 425.25 506.25 C 425.25 512.324219 429.300781 516.375 435.375 516.375 L 526.5 516.375 C 532.574219 516.375 536.625 512.324219 536.625 506.25 C 536.625 500.175781 532.574219 496.125 526.5 496.125 Z M 526.5 496.125 "/><path style=" stroke:none;fill-rule:nonzero;fill:#000000;fill-opacity:1;" d="M 536.625 415.125 L 587.25 415.125 C 593.324219 415.125 597.375 411.074219 597.375 405 C 597.375 398.925781 593.324219 394.875 587.25 394.875 L 536.625 394.875 C 530.550781 394.875 526.5 398.925781 526.5 405 C 526.5 411.074219 530.550781 415.125 536.625 415.125 Z M 536.625 415.125 "/></g></svg>