<svg width="20" height="21" viewBox="0 0 20 21" fill="none" xmlns="http://www.w3.org/2000/svg">
<path d="M7.0002 3.65991H4.2002C3.08009 3.65991 2.51962 3.65991 2.0918 3.8779C1.71547 4.06965 1.40973 4.37538 1.21799 4.75171C1 5.17953 1 5.74 1 6.86011V16.4601C1 17.5802 1 18.14 1.21799 18.5678C1.40973 18.9441 1.71547 19.2504 2.0918 19.4421C2.5192 19.6599 3.07899 19.6599 4.19691 19.6599H13.8031C14.921 19.6599 15.48 19.6599 15.9074 19.4421C16.2837 19.2504 16.5905 18.9438 16.7822 18.5675C17 18.1401 17 17.5809 17 16.463V13.6599M13 4.65991L7 10.6599V13.6599H10L16 7.65991M13 4.65991L16 1.65991L19 4.65991L16 7.65991M13 4.65991L16 7.65991" stroke="var(--svg-new-col)" stroke-width="1.6" stroke-linecap="round" stroke-linejoin="round"/>
</svg>
