<svg width="18" height="19" viewBox="0 0 18 19" fill="none" xmlns="http://www.w3.org/2000/svg">
<path d="M5 1.65991H4.2002C3.08009 1.65991 2.51962 1.65991 2.0918 1.8779C1.71547 2.06965 1.40973 2.37538 1.21799 2.75171C1 3.17953 1 3.74 1 4.86011V14.4601C1 15.5802 1 16.14 1.21799 16.5678C1.40973 16.9441 1.71547 17.2504 2.0918 17.4421C2.5192 17.6599 3.07899 17.6599 4.19691 17.6599H5M5 1.65991H13.8002C14.9203 1.65991 15.4796 1.65991 15.9074 1.8779C16.2837 2.06965 16.5905 2.37538 16.7822 2.75171C17 3.17911 17 3.73891 17 4.85682V14.4635C17 15.5814 17 16.1404 16.7822 16.5678C16.5905 16.9441 16.2837 17.2504 15.9074 17.4421C15.48 17.6599 14.921 17.6599 13.8031 17.6599H5M5 1.65991V17.6599M9 8.65991H13M9 5.65991H13" stroke="var(--svg-new-col)" stroke-width="1.4" stroke-linecap="round" stroke-linejoin="round"/>
</svg>
