<svg xmlns="http://www.w3.org/2000/svg" xmlns:xlink="http://www.w3.org/1999/xlink" width="1080" zoomAndPan="magnify" viewBox="0 0 810 809.999993" height="1080" preserveAspectRatio="xMidYMid meet" version="1.2"><defs><clipPath id="b64de4a719"><path d="M 188.148438 185.402344 L 619 185.402344 L 619 622 L 188.148438 622 Z M 188.148438 185.402344 "/></clipPath></defs><g id="779e666ce8"><g clip-rule="nonzero" clip-path="url(#b64de4a719)"><path style=" stroke:none;fill-rule:nonzero;fill:#000000;fill-opacity:1;" d="M 441.058594 213.46875 C 441.058594 208.519531 440.097656 203.675781 438.347656 199.152344 L 498.652344 259.527344 C 494.101562 257.75 489.242188 256.769531 484.308594 256.769531 L 453.515625 256.769531 C 446.667969 256.769531 441.058594 251.152344 441.058594 244.296875 Z M 281.347656 258.257812 L 261.3125 278.320312 L 256.789062 270.472656 C 255.082031 267.503906 251.292969 266.476562 248.324219 268.1875 C 245.355469 269.894531 244.332031 273.6875 246.035156 276.660156 L 254.621094 291.546875 C 256.648438 295.078125 261.515625 295.746094 264.398438 292.859375 L 290.152344 267.074219 C 292.585938 264.640625 292.585938 260.691406 290.152344 258.257812 C 287.722656 255.824219 283.78125 255.824219 281.347656 258.257812 Z M 281.347656 375.65625 L 261.3125 395.714844 L 256.789062 387.871094 C 255.082031 384.898438 251.292969 383.871094 248.324219 385.582031 C 245.355469 387.289062 244.332031 391.082031 246.035156 394.054688 L 254.621094 408.941406 C 256.648438 412.472656 261.515625 413.140625 264.398438 410.253906 L 290.152344 384.46875 C 292.585938 382.035156 292.585938 378.089844 290.152344 375.65625 C 287.722656 373.21875 283.78125 373.21875 281.347656 375.65625 Z M 512.941406 531.210938 L 512.941406 583.980469 C 512.941406 593.0625 505.542969 600.46875 496.472656 600.46875 L 204.730469 600.46875 C 195.660156 600.46875 188.261719 593.0625 188.261719 583.984375 L 188.261719 201.925781 C 188.261719 192.84375 195.660156 185.4375 204.730469 185.4375 L 401.886719 185.4375 C 416.53125 185.4375 428.605469 199.160156 428.605469 213.46875 L 428.605469 244.296875 C 428.605469 258.035156 439.796875 269.238281 453.515625 269.238281 L 484.308594 269.238281 C 498.648438 269.238281 512.941406 281.824219 512.941406 296.625 L 512.941406 312.796875 C 487.589844 308.453125 461.5 313.066406 439.019531 326.0625 C 420.539062 336.742188 405.765625 352.335938 396.132812 370.953125 C 395.835938 370.90625 395.535156 370.878906 395.226562 370.878906 L 330.375 370.878906 C 326.933594 370.878906 324.148438 373.667969 324.148438 377.113281 C 324.148438 380.554688 326.933594 383.347656 330.375 383.347656 L 390.652344 383.347656 C 389.441406 386.605469 388.375 389.929688 387.46875 393.324219 C 386.648438 396.386719 385.972656 399.472656 385.417969 402.566406 L 330.375 402.566406 C 326.933594 402.566406 324.148438 405.355469 324.148438 408.800781 C 324.148438 412.242188 326.933594 415.035156 330.375 415.035156 L 383.910156 415.035156 C 382.535156 436.644531 387.523438 458.308594 398.523438 477.378906 C 413.238281 502.898438 437.273438 521.367188 465.703125 528.992188 C 481.1875 533.144531 497.261719 533.898438 512.941406 531.210938 Z M 324.144531 259.714844 C 324.144531 263.160156 326.933594 265.949219 330.371094 265.949219 L 395.226562 265.949219 C 398.664062 265.949219 401.453125 263.160156 401.453125 259.714844 C 401.453125 256.273438 398.664062 253.480469 395.226562 253.480469 L 330.371094 253.480469 C 326.933594 253.480469 324.144531 256.273438 324.144531 259.714844 Z M 324.144531 291.402344 C 324.144531 294.84375 326.933594 297.636719 330.371094 297.636719 L 428.433594 297.636719 C 431.871094 297.636719 434.660156 294.84375 434.660156 291.402344 C 434.660156 287.960938 431.871094 285.167969 428.433594 285.167969 L 330.371094 285.167969 C 326.933594 285.167969 324.144531 287.960938 324.144531 291.402344 Z M 324.144531 494.507812 C 324.144531 497.949219 326.933594 500.742188 330.371094 500.742188 L 395.226562 500.742188 C 398.664062 500.742188 401.453125 497.949219 401.453125 494.507812 C 401.453125 491.0625 398.664062 488.273438 395.226562 488.273438 L 330.371094 488.273438 C 326.933594 488.273438 324.144531 491.0625 324.144531 494.507812 Z M 310.226562 510.351562 C 310.226562 487.386719 291.519531 468.65625 268.582031 468.65625 C 245.644531 468.65625 226.9375 487.386719 226.9375 510.351562 C 226.9375 533.3125 245.644531 552.042969 268.582031 552.042969 C 291.515625 552.042969 310.226562 533.316406 310.226562 510.351562 Z M 310.226562 392.953125 C 310.226562 369.992188 291.519531 351.261719 268.582031 351.261719 C 245.644531 351.261719 226.9375 369.992188 226.9375 392.953125 C 226.9375 415.917969 245.644531 434.648438 268.582031 434.648438 C 291.515625 434.648438 310.226562 415.917969 310.226562 392.953125 Z M 310.226562 275.558594 C 310.226562 252.59375 291.519531 233.867188 268.582031 233.867188 C 245.644531 233.867188 226.9375 252.59375 226.9375 275.558594 C 226.9375 298.523438 245.644531 317.253906 268.582031 317.253906 C 291.515625 317.253906 310.226562 298.523438 310.226562 275.558594 Z M 434.660156 526.195312 C 434.660156 522.753906 431.871094 519.960938 428.433594 519.960938 L 330.371094 519.960938 C 326.933594 519.960938 324.144531 522.753906 324.144531 526.195312 C 324.144531 529.636719 326.933594 532.429688 330.371094 532.429688 L 428.433594 532.429688 C 431.871094 532.429688 434.660156 529.636719 434.660156 526.195312 Z M 281.347656 493.050781 L 261.308594 513.113281 L 256.785156 505.265625 C 255.082031 502.296875 251.289062 501.269531 248.320312 502.976562 C 245.351562 504.6875 244.328125 508.480469 246.035156 511.453125 L 254.621094 526.339844 C 256.648438 529.871094 261.511719 530.539062 264.398438 527.652344 L 290.152344 501.867188 C 292.582031 499.433594 292.582031 495.484375 290.152344 493.050781 C 287.722656 490.617188 283.777344 490.617188 281.347656 493.050781 Z M 608.027344 619.128906 C 598.027344 624.910156 585.125 621.449219 579.351562 611.4375 L 538.9375 541.359375 C 536.273438 536.734375 537.679688 530.84375 542.03125 527.894531 L 540.035156 524.441406 C 536.136719 517.675781 528.402344 514.527344 520.894531 516.648438 C 504.464844 521.285156 486.613281 521.691406 468.925781 516.949219 C 416.546875 502.898438 385.460938 448.992188 399.496094 396.550781 C 413.53125 344.109375 467.371094 312.984375 519.753906 327.039062 C 572.132812 341.089844 603.21875 394.996094 589.183594 447.4375 C 584.441406 465.144531 575.164062 480.421875 562.9375 492.347656 C 557.351562 497.796875 556.207031 506.074219 560.105469 512.839844 L 562.101562 516.292969 C 566.828125 513.988281 572.628906 515.714844 575.300781 520.34375 L 615.710938 590.417969 C 621.484375 600.429688 618.027344 613.347656 608.027344 619.128906 Z M 572.410156 422.132812 C 572.410156 379 537.476562 344.023438 494.390625 344.023438 C 451.308594 344.023438 416.375 379 416.375 422.132812 C 416.375 465.269531 451.308594 500.242188 494.390625 500.242188 C 537.476562 500.242188 572.410156 465.269531 572.410156 422.132812 Z M 494.671875 430.71875 C 471.953125 430.71875 452.449219 444.492188 444.019531 464.148438 C 456.042969 478.585938 474.144531 487.777344 494.390625 487.777344 C 514.847656 487.777344 533.113281 478.394531 545.136719 463.699219 C 536.601562 444.28125 517.222656 430.722656 494.671875 430.722656 Z M 494.671875 425.1875 C 509.933594 425.1875 522.304688 412.800781 522.304688 397.523438 C 522.304688 382.246094 509.933594 369.859375 494.671875 369.859375 C 479.414062 369.859375 467.042969 382.246094 467.042969 397.523438 C 467.042969 412.804688 479.414062 425.1875 494.671875 425.1875 Z M 494.671875 425.1875 "/></g></g></svg>