<svg width="33" height="35" viewBox="0 0 33 35" fill="none" xmlns="http://www.w3.org/2000/svg">
<rect x="0.5" y="0.5" width="32" height="34" rx="3.5" fill="white" stroke="#E2E8F0"/>
<path d="M17.8889 16.2222V22.4444M14.3333 16.2222V22.4444M10.7778 12.6667V23.1556C10.7778 24.1512 10.7778 24.6487 10.9715 25.029C11.142 25.3635 11.4138 25.636 11.7483 25.8064C12.1282 26 12.6258 26 13.6195 26H18.6027C19.5964 26 20.0933 26 20.4732 25.8064C20.8077 25.636 21.0804 25.3635 21.2509 25.029C21.4444 24.6491 21.4444 24.152 21.4444 23.1583V12.6667M10.7778 12.6667H12.5556M10.7778 12.6667H9M12.5556 12.6667H19.6667M12.5556 12.6667C12.5556 11.8383 12.5556 11.4244 12.6909 11.0977C12.8713 10.6621 13.2172 10.3158 13.6528 10.1353C13.9795 10 14.3939 10 15.2222 10H17C17.8283 10 18.2425 10 18.5692 10.1353C19.0048 10.3158 19.3508 10.6621 19.5313 11.0977C19.6666 11.4244 19.6667 11.8383 19.6667 12.6667M19.6667 12.6667H21.4444M21.4444 12.6667H23.2222" stroke="#B9181B" stroke-width="1.4" stroke-linecap="round" stroke-linejoin="round"/>
</svg>
