<svg xmlns="http://www.w3.org/2000/svg" xmlns:xlink="http://www.w3.org/1999/xlink" width="1080" zoomAndPan="magnify" viewBox="0 0 810 809.999993" height="1080" preserveAspectRatio="xMidYMid meet" version="1.2"><defs><clipPath id="541616216c"><path d="M 164 153.75 L 661 153.75 L 661 652 L 164 652 Z M 164 153.75 "/></clipPath></defs><g id="98d6d3eef6"><g clip-rule="nonzero" clip-path="url(#541616216c)"><path style=" stroke:none;fill-rule:evenodd;fill:black;fill-opacity:1;" d="M 634.320312 202.601562 L 504.765625 237.042969 C 502.996094 237.511719 501.132812 237.511719 499.363281 237.042969 L 355.042969 198.675781 C 353.660156 198.308594 352.699219 197.058594 352.699219 195.628906 C 352.699219 194.199219 353.660156 192.949219 355.042969 192.582031 L 499.367188 154.25 C 501.132812 153.78125 502.996094 153.78125 504.761719 154.25 L 649.085938 192.582031 C 650.46875 192.949219 651.429688 194.199219 651.429688 195.628906 C 651.429688 196.101562 651.324219 196.550781 651.136719 196.957031 L 651.136719 264.054688 L 660.933594 269.730469 L 660.933594 318.964844 C 660.933594 320.160156 660.257812 321.253906 659.191406 321.789062 C 658.121094 322.320312 656.839844 322.203125 655.886719 321.484375 L 642.726562 311.589844 L 629.570312 321.484375 C 628.613281 322.203125 627.335938 322.320312 626.265625 321.789062 C 625.195312 321.253906 624.519531 320.160156 624.519531 318.964844 L 624.519531 269.730469 L 634.320312 264.054688 Z M 528.628906 333.164062 C 543.707031 330.808594 563.324219 326.726562 594.160156 320.914062 C 608.820312 340.273438 617.535156 364.367188 617.535156 390.425781 C 617.535156 411.769531 611.6875 431.796875 601.515625 448.988281 C 598.808594 450.355469 596.023438 451.867188 593.15625 453.539062 L 503.265625 505.890625 C 502.867188 505.894531 502.464844 505.898438 502.066406 505.898438 C 497.28125 505.898438 492.570312 505.605469 487.9375 505.035156 C 487.984375 504.859375 488.035156 504.683594 488.082031 504.507812 C 493.078125 485.921875 481.929688 467.433594 463.628906 461.511719 C 463.269531 461.394531 462.902344 461.300781 462.535156 461.234375 C 440.3125 457.21875 418.355469 450.046875 399.496094 443.367188 C 391.253906 427.492188 386.59375 409.484375 386.59375 390.425781 C 386.59375 364.367188 395.308594 340.273438 409.96875 320.914062 C 441.03125 326.769531 460.707031 330.867188 475.832031 333.210938 C 466.132812 339.871094 459.835938 350.375 460.480469 363.660156 L 460.480469 363.664062 C 461.574219 386.074219 481.960938 395.214844 500.808594 398.320312 L 500.816406 398.320312 C 507.75 399.457031 515.285156 401.1875 521.304688 404.816406 C 526.078125 407.699219 529.769531 411.925781 530.570312 418.464844 C 531.359375 425.039062 528.328125 429.734375 523.800781 432.859375 C 518.082031 436.800781 510.339844 438.582031 503.371094 438.746094 C 490.121094 439.058594 476.5625 433.011719 473.1875 419.453125 C 472.066406 414.949219 467.5 412.203125 462.996094 413.324219 C 458.492188 414.445312 455.746094 419.011719 456.867188 423.515625 C 461.355469 441.53125 476.503906 452.203125 493.65625 454.894531 L 493.65625 463.507812 C 493.65625 468.148438 497.425781 471.917969 502.066406 471.917969 C 506.707031 471.917969 510.472656 468.148438 510.472656 463.507812 L 510.472656 455.015625 C 530.226562 452.292969 550.0625 439.59375 547.265625 416.445312 L 547.265625 416.433594 C 544.453125 393.390625 522.910156 384.894531 503.53125 381.722656 C 498.269531 380.855469 492.691406 379.515625 487.859375 377.152344 C 482.230469 374.402344 477.636719 370.140625 477.277344 362.847656 C 476.835938 353.695312 482.949219 347.3125 490.742188 344.242188 C 503.644531 339.164062 521.5625 342.554688 528.304688 358.59375 C 530.105469 362.871094 535.039062 364.882812 539.316406 363.085938 C 543.59375 361.285156 545.609375 356.351562 543.808594 352.074219 C 540.316406 343.769531 534.964844 337.523438 528.628906 333.164062 Z M 610.410156 226.359375 L 610.410156 293.785156 C 610.410156 297.835938 607.519531 301.3125 603.535156 302.054688 C 484.796875 324.019531 519.332031 324.019531 400.59375 302.050781 C 396.609375 301.3125 393.71875 297.835938 393.71875 293.785156 C 393.71875 280.214844 393.71875 249.636719 393.71875 226.359375 L 495.042969 253.296875 C 499.644531 254.519531 504.484375 254.519531 509.085938 253.296875 Z M 246.816406 495.25 L 310.160156 458.578125 C 326.539062 449.101562 343.027344 441.722656 361.015625 447.566406 L 361.019531 447.566406 C 383.808594 454.957031 420.972656 470.71875 458.9375 477.675781 C 468.390625 480.988281 474.453125 490.429688 471.839844 500.140625 L 471.839844 500.144531 C 469.269531 509.714844 461.121094 514.410156 449.9375 513.15625 C 429.03125 508.835938 409.617188 502.492188 388.082031 496.703125 C 383.601562 495.5 378.984375 498.160156 377.78125 502.640625 C 376.574219 507.125 379.238281 511.742188 383.71875 512.945312 C 405.710938 518.855469 425.527344 525.3125 446.894531 529.699219 L 446.90625 529.703125 C 447.019531 529.722656 447.132812 529.746094 447.246094 529.761719 L 459.007812 531.675781 C 459.015625 531.679688 459.027344 531.679688 459.035156 531.683594 C 476.15625 534.40625 491.867188 532 506.855469 523.265625 L 601.621094 468.070312 C 621.160156 456.6875 635.535156 453.371094 645.734375 455.507812 C 657.078125 457.882812 661.414062 467.984375 660.660156 477.15625 C 660.167969 483.125 657.667969 488.929688 652.957031 491.828125 L 480.984375 597.710938 L 480.976562 597.71875 C 467.210938 606.210938 452.125 608.136719 436.503906 603.972656 L 311.769531 570.542969 C 309.613281 569.964844 307.320312 570.265625 305.386719 571.382812 L 293.71875 578.121094 Z M 217.292969 477.226562 L 295.453125 615.335938 C 299.21875 622.035156 296.84375 630.585938 290.175781 634.351562 L 263.597656 649.417969 C 256.898438 653.183594 248.347656 650.808594 244.582031 644.136719 L 166.417969 506.027344 C 162.621094 499.328125 165 490.777344 171.667969 487.011719 L 198.277344 471.949219 C 204.945312 468.183594 213.496094 470.558594 217.292969 477.226562 Z M 199.132812 496.410156 C 193.101562 497.273438 188.9375 502.875 189.796875 508.90625 C 190.695312 514.9375 196.296875 519.136719 202.328125 518.242188 C 208.359375 517.378906 212.527344 511.742188 211.664062 505.710938 C 210.765625 499.675781 205.164062 495.511719 199.132812 496.410156 Z M 199.132812 496.410156 "/></g></g></svg>