<svg xmlns="http://www.w3.org/2000/svg" xmlns:xlink="http://www.w3.org/1999/xlink" width="1080" zoomAndPan="magnify" viewBox="0 0 810 809.999993" height="1080" preserveAspectRatio="xMidYMid meet" version="1.2"><defs><clipPath id="c507f4eba4"><path d="M 147.015625 141.476562 L 641 141.476562 L 641 635 L 147.015625 635 Z M 147.015625 141.476562 "/></clipPath></defs><g id="ac350f6b9b"><g clip-rule="nonzero" clip-path="url(#c507f4eba4)"><path style=" stroke:none;fill-rule:nonzero;fill:black;fill-opacity:1;" d="M 147.015625 141.476562 L 147.015625 611.292969 L 492.816406 611.292969 L 381.921875 499.941406 L 381.921875 376.382812 L 505.707031 376.15625 L 569.617188 440.066406 L 569.847656 440.066406 L 569.847656 141.476562 Z M 240.976562 235.4375 L 287.957031 235.4375 L 287.957031 282.421875 L 240.976562 282.421875 Z M 334.941406 235.4375 L 475.886719 235.4375 L 475.886719 282.421875 L 334.941406 282.421875 Z M 240.976562 329.402344 L 287.957031 329.402344 L 287.957031 376.382812 L 240.976562 376.382812 Z M 240.976562 423.367188 L 287.957031 423.367188 L 287.957031 470.347656 L 240.976562 470.347656 Z M 428.902344 423.367188 L 428.902344 480.488281 L 550.027344 601.839844 L 549.980469 601.886719 L 578.703125 630.5625 C 584.292969 636.175781 593.367188 636.175781 598.984375 630.5625 L 636.101562 593.445312 C 641.714844 587.855469 641.714844 578.78125 636.101562 573.164062 L 610.175781 547.199219 L 486.574219 423.367188 Z M 428.902344 423.367188 "/></g></g></svg>