<svg width="20" height="20" viewBox="0 0 20 20" fill="none" xmlns="http://www.w3.org/2000/svg">
<g clip-path="url(#clip0_1401_1753)">
<path fill-rule="evenodd" clip-rule="evenodd" d="M10 6.66683C9.11599 6.66683 8.26814 7.01802 7.64302 7.64314C7.0179 8.26826 6.66671 9.11611 6.66671 10.0002C6.66671 10.8842 7.0179 11.7321 7.64302 12.3572C8.26814 12.9823 9.11599 13.3335 10 13.3335C10.8841 13.3335 11.7319 12.9823 12.3571 12.3572C12.9822 11.7321 13.3334 10.8842 13.3334 10.0002C13.3334 9.11611 12.9822 8.26826 12.3571 7.64314C11.7319 7.01802 10.8841 6.66683 10 6.66683ZM8.82153 8.82165C9.13409 8.50909 9.55801 8.3335 10 8.3335C10.4421 8.3335 10.866 8.50909 11.1786 8.82165C11.4911 9.13421 11.6667 9.55813 11.6667 10.0002C11.6667 10.4422 11.4911 10.8661 11.1786 11.1787C10.866 11.4912 10.4421 11.6668 10 11.6668C9.55801 11.6668 9.13409 11.4912 8.82153 11.1787C8.50897 10.8661 8.33337 10.4422 8.33337 10.0002C8.33337 9.55813 8.50897 9.13421 8.82153 8.82165Z" fill="#1814F3"/>
<path fill-rule="evenodd" clip-rule="evenodd" d="M9.15087 0.833496C8.77233 0.833496 8.44135 1.08863 8.34499 1.4547L7.92269 3.05904L6.58099 3.62463L5.55395 2.7109C5.22419 2.41752 4.72288 2.43214 4.41078 2.74424L2.74412 4.41091C2.4422 4.71283 2.41733 5.1941 2.68651 5.52553L3.58662 6.63379L3.03466 7.99173L1.47725 8.35532C1.10014 8.44336 0.833374 8.77958 0.833374 9.16683V10.8335C0.833374 11.2093 1.08486 11.5386 1.44739 11.6374L3.05712 12.0766L3.62424 13.4219L2.71142 14.4455C2.41741 14.7752 2.43176 15.2771 2.74412 15.5894L4.41078 17.2561C4.71311 17.5584 5.19519 17.5829 5.52658 17.3127L6.63444 16.4096L7.959 16.9545L8.35873 18.5375C8.45217 18.9076 8.78505 19.1668 9.16671 19.1668H10.8334C11.2149 19.1668 11.5477 18.9078 11.6412 18.5379L12.042 16.9542L13.4108 16.3872C13.5486 16.5027 13.7066 16.6384 13.8638 16.7753C14.0201 16.9113 14.1653 17.0395 14.2715 17.1338C14.3246 17.1809 14.3678 17.2194 14.3977 17.2461L14.4429 17.2866C14.7725 17.5822 15.2763 17.5691 15.5893 17.2561L17.256 15.5894C17.5627 15.2827 17.5828 14.792 17.3023 14.4612L16.3945 13.3907L16.9562 12.034L18.543 11.6217C18.9103 11.5263 19.1667 11.1947 19.1667 10.8152V9.16683C19.1667 8.78573 18.9082 8.45319 18.5388 8.35922L16.9619 7.95803L16.4017 6.60461L17.3031 5.53812C17.5828 5.20725 17.5623 4.71726 17.256 4.41091L15.5893 2.74424C15.2817 2.43665 14.7893 2.41739 14.4586 2.70004L13.4 3.60489L11.9989 3.02882L11.5852 1.45497C11.4889 1.08877 11.1578 0.833496 10.7792 0.833496H9.15087ZM15.5347 14.9537L14.9646 15.5238L14.9583 15.5184C14.6506 15.2504 14.2541 14.9113 14.0305 14.7514C13.7965 14.5841 13.4928 14.5493 13.227 14.6594L11.0178 15.5744C10.7747 15.6751 10.5934 15.8848 10.5288 16.1399L10.1846 17.5002H9.81577L9.47218 16.1395C9.40754 15.8835 9.22541 15.6733 8.98123 15.5728L6.80956 14.6795C6.52678 14.5632 6.203 14.611 5.966 14.8043L5.05699 15.5453L4.47913 14.9674L5.21866 14.1381C5.43275 13.8981 5.48955 13.5562 5.3646 13.2598L4.43543 11.0556C4.33602 10.8198 4.13376 10.6427 3.88686 10.5754L2.50004 10.197V9.82802L3.83366 9.51667C4.09712 9.45517 4.31433 9.26959 4.4162 9.01896L5.3162 6.80479C5.43067 6.52318 5.38271 6.20159 5.19107 5.96562L4.45397 5.05808L5.03344 4.47861L5.86613 5.21943C6.10619 5.433 6.44766 5.48954 6.74375 5.36472L8.94791 4.43556C9.18615 4.33513 9.36428 4.12981 9.43009 3.87979L9.79324 2.50016H10.1366L10.4924 3.85369C10.5588 4.10634 10.7399 4.31322 10.9815 4.41256L13.2373 5.34006C13.5265 5.45897 13.858 5.40596 14.0957 5.20279L14.9557 4.46767L15.5355 5.0475L14.8011 5.91637C14.5998 6.15447 14.5483 6.485 14.6676 6.77307L15.5817 8.9814C15.6823 9.22426 15.8915 9.40546 16.1462 9.47027L17.5 9.8147V10.1707L16.1355 10.5253C15.8825 10.591 15.6751 10.7716 15.5751 11.013L14.6601 13.223C14.5406 13.5116 14.5925 13.8426 14.7945 14.0808L15.5347 14.9537Z" fill="#1814F3"/>
</g>
<defs>
<clipPath id="clip0_1401_1753">
<rect width="20" height="20" fill="white"/>
</clipPath>
</defs>
</svg>
