<svg width="15" height="14" viewBox="0 0 15 14" fill="none" xmlns="http://www.w3.org/2000/svg">
<path d="M4.50651 12.2041C5.3875 12.7122 6.40968 13.0029 7.49976 13.0029C10.8135 13.0029 13.5 10.3167 13.5 7.00295C13.5 3.68923 10.8137 1.00293 7.5 1.00293C4.18629 1.00293 1.5 3.68923 1.5 7.00295C1.5 8.09303 1.7907 9.11521 2.2988 9.99621L2.30076 9.99962C2.34965 10.0844 2.37431 10.1271 2.38547 10.1675C2.396 10.2056 2.39895 10.2399 2.39625 10.2793C2.39335 10.3217 2.37907 10.3656 2.34979 10.4535L1.83724 11.9911L1.83659 11.9931C1.72845 12.3176 1.67438 12.4798 1.71292 12.5879C1.74653 12.6821 1.82112 12.7565 1.91536 12.7901C2.02321 12.8286 2.1847 12.7747 2.5077 12.6671L2.51172 12.6656L4.04936 12.153C4.13692 12.1238 4.18142 12.109 4.22373 12.1061C4.26317 12.1035 4.29718 12.107 4.33529 12.1175C4.37579 12.1287 4.41856 12.1534 4.50376 12.2025L4.50651 12.2041Z" stroke="white" stroke-width="1.5" stroke-linecap="round" stroke-linejoin="round"/>
</svg>
