<svg xmlns="http://www.w3.org/2000/svg" xmlns:xlink="http://www.w3.org/1999/xlink" width="1080" zoomAndPan="magnify" viewBox="0 0 810 809.999993" height="1080" preserveAspectRatio="xMidYMid meet" version="1.2"><defs><clipPath id="027b467ae3"><path d="M 139.320312 518 L 190 518 L 190 683 L 139.320312 683 Z M 139.320312 518 "/></clipPath></defs><g id="a34afb2611"><path style=" stroke:none;fill-rule:nonzero;fill:black;fill-opacity:1;" d="M 542.285156 218.464844 C 542.285156 220.714844 542.230469 222.960938 542.117188 225.210938 C 542.007812 227.457031 541.84375 229.699219 541.621094 231.9375 C 541.402344 234.175781 541.125 236.410156 540.796875 238.632812 C 540.464844 240.859375 540.082031 243.074219 539.644531 245.28125 C 539.203125 247.488281 538.710938 249.683594 538.164062 251.863281 C 537.617188 254.046875 537.019531 256.214844 536.363281 258.367188 C 535.710938 260.519531 535.007812 262.65625 534.25 264.773438 C 533.492188 266.890625 532.679688 268.992188 531.820312 271.070312 C 530.960938 273.148438 530.046875 275.203125 529.085938 277.238281 C 528.125 279.269531 527.113281 281.28125 526.050781 283.265625 C 524.992188 285.246094 523.882812 287.203125 522.726562 289.132812 C 521.570312 291.0625 520.367188 292.964844 519.117188 294.835938 C 517.867188 296.707031 516.574219 298.542969 515.230469 300.351562 C 513.890625 302.15625 512.507812 303.929688 511.082031 305.671875 C 509.652344 307.410156 508.183594 309.113281 506.675781 310.777344 C 505.164062 312.445312 503.613281 314.074219 502.023438 315.664062 C 500.429688 317.257812 498.800781 318.808594 497.136719 320.316406 C 495.46875 321.828125 493.765625 323.296875 492.027344 324.726562 C 490.289062 326.152344 488.515625 327.535156 486.707031 328.875 C 484.898438 330.214844 483.0625 331.511719 481.191406 332.761719 C 479.320312 334.011719 477.421875 335.214844 475.492188 336.371094 C 473.5625 337.527344 471.605469 338.636719 469.621094 339.695312 C 467.636719 340.757812 465.628906 341.769531 463.59375 342.730469 C 461.558594 343.691406 459.503906 344.601562 457.425781 345.464844 C 455.347656 346.324219 453.25 347.132812 451.128906 347.890625 C 449.011719 348.648438 446.875 349.355469 444.722656 350.007812 C 442.570312 350.660156 440.402344 351.261719 438.222656 351.808594 C 436.039062 352.355469 433.84375 352.847656 431.636719 353.285156 C 429.429688 353.726562 427.214844 354.109375 424.988281 354.441406 C 422.765625 354.769531 420.53125 355.046875 418.292969 355.265625 C 416.054688 355.488281 413.8125 355.652344 411.566406 355.761719 C 409.316406 355.871094 407.070312 355.929688 404.820312 355.929688 C 402.570312 355.929688 400.320312 355.871094 398.074219 355.761719 C 395.828125 355.652344 393.585938 355.488281 391.347656 355.265625 C 389.105469 355.046875 386.875 354.769531 384.648438 354.441406 C 382.425781 354.109375 380.207031 353.726562 378.003906 353.285156 C 375.796875 352.847656 373.601562 352.355469 371.417969 351.808594 C 369.238281 351.261719 367.070312 350.660156 364.917969 350.007812 C 362.761719 349.355469 360.628906 348.648438 358.507812 347.890625 C 356.390625 347.132812 354.292969 346.324219 352.214844 345.464844 C 350.136719 344.601562 348.082031 343.691406 346.046875 342.730469 C 344.011719 341.769531 342.003906 340.757812 340.019531 339.695312 C 338.035156 338.636719 336.078125 337.527344 334.148438 336.371094 C 332.21875 335.214844 330.320312 334.011719 328.449219 332.761719 C 326.578125 331.511719 324.738281 330.214844 322.933594 328.875 C 321.125 327.535156 319.351562 326.152344 317.613281 324.726562 C 315.875 323.296875 314.171875 321.828125 312.503906 320.316406 C 310.839844 318.808594 309.210938 317.257812 307.617188 315.664062 C 306.027344 314.074219 304.476562 312.445312 302.964844 310.777344 C 301.457031 309.113281 299.984375 307.410156 298.558594 305.671875 C 297.132812 303.929688 295.746094 302.15625 294.40625 300.351562 C 293.066406 298.542969 291.773438 296.707031 290.523438 294.835938 C 289.273438 292.964844 288.070312 291.0625 286.914062 289.132812 C 285.757812 287.203125 284.648438 285.246094 283.585938 283.265625 C 282.527344 281.28125 281.515625 279.269531 280.554688 277.238281 C 279.59375 275.203125 278.679688 273.148438 277.820312 271.070312 C 276.957031 268.992188 276.148438 266.890625 275.390625 264.773438 C 274.632812 262.65625 273.929688 260.519531 273.273438 258.367188 C 272.621094 256.214844 272.023438 254.046875 271.476562 251.863281 C 270.929688 249.683594 270.4375 247.488281 269.996094 245.28125 C 269.558594 243.074219 269.175781 240.859375 268.84375 238.632812 C 268.515625 236.410156 268.238281 234.175781 268.019531 231.9375 C 267.796875 229.699219 267.632812 227.457031 267.523438 225.210938 C 267.410156 222.960938 267.355469 220.714844 267.355469 218.464844 C 267.355469 216.214844 267.410156 213.964844 267.523438 211.71875 C 267.632812 209.472656 267.796875 207.230469 268.019531 204.988281 C 268.238281 202.75 268.515625 200.519531 268.84375 198.292969 C 269.175781 196.070312 269.558594 193.851562 269.996094 191.644531 C 270.4375 189.441406 270.929688 187.246094 271.476562 185.0625 C 272.023438 182.878906 272.621094 180.714844 273.273438 178.558594 C 273.929688 176.40625 274.632812 174.273438 275.390625 172.152344 C 276.148438 170.035156 276.957031 167.9375 277.820312 165.859375 C 278.679688 163.78125 279.59375 161.722656 280.554688 159.691406 C 281.515625 157.65625 282.527344 155.648438 283.585938 153.664062 C 284.648438 151.679688 285.757812 149.722656 286.914062 147.792969 C 288.070312 145.863281 289.273438 143.964844 290.523438 142.09375 C 291.773438 140.222656 293.066406 138.382812 294.40625 136.578125 C 295.746094 134.769531 297.132812 132.996094 298.558594 131.257812 C 299.984375 129.519531 301.457031 127.816406 302.964844 126.148438 C 304.476562 124.480469 306.027344 122.851562 307.617188 121.261719 C 309.210938 119.671875 310.835938 118.121094 312.503906 116.609375 C 314.171875 115.097656 315.875 113.628906 317.613281 112.203125 C 319.351562 110.777344 321.125 109.390625 322.933594 108.050781 C 324.738281 106.710938 326.578125 105.417969 328.449219 104.167969 C 330.320312 102.917969 332.21875 101.714844 334.148438 100.558594 C 336.078125 99.402344 338.035156 98.292969 340.019531 97.230469 C 342.003906 96.171875 344.011719 95.160156 346.046875 94.199219 C 348.082031 93.234375 350.136719 92.324219 352.214844 91.464844 C 354.292969 90.601562 356.390625 89.792969 358.507812 89.035156 C 360.628906 88.277344 362.761719 87.570312 364.917969 86.917969 C 367.070312 86.265625 369.238281 85.667969 371.417969 85.121094 C 373.601562 84.574219 375.796875 84.082031 378.003906 83.640625 C 380.207031 83.203125 382.425781 82.816406 384.648438 82.488281 C 386.875 82.15625 389.105469 81.882812 391.347656 81.660156 C 393.585938 81.441406 395.828125 81.277344 398.074219 81.164062 C 400.320312 81.054688 402.570312 81 404.820312 81 C 407.070312 81 409.316406 81.054688 411.566406 81.164062 C 413.8125 81.277344 416.054688 81.441406 418.292969 81.660156 C 420.53125 81.882812 422.765625 82.15625 424.988281 82.488281 C 427.214844 82.816406 429.429688 83.203125 431.636719 83.640625 C 433.84375 84.082031 436.039062 84.574219 438.222656 85.121094 C 440.402344 85.667969 442.570312 86.265625 444.722656 86.917969 C 446.875 87.570312 449.011719 88.277344 451.128906 89.035156 C 453.25 89.792969 455.347656 90.601562 457.425781 91.464844 C 459.503906 92.324219 461.558594 93.234375 463.59375 94.199219 C 465.628906 95.160156 467.636719 96.171875 469.621094 97.230469 C 471.605469 98.292969 473.5625 99.402344 475.492188 100.558594 C 477.421875 101.714844 479.320312 102.917969 481.191406 104.167969 C 483.0625 105.417969 484.898438 106.710938 486.707031 108.050781 C 488.515625 109.390625 490.289062 110.777344 492.027344 112.203125 C 493.765625 113.628906 495.46875 115.097656 497.136719 116.609375 C 498.800781 118.121094 500.429688 119.671875 502.023438 121.261719 C 503.613281 122.851562 505.164062 124.480469 506.675781 126.148438 C 508.183594 127.816406 509.652344 129.519531 511.082031 131.257812 C 512.507812 132.996094 513.890625 134.769531 515.230469 136.578125 C 516.574219 138.382812 517.867188 140.222656 519.117188 142.09375 C 520.367188 143.964844 521.570312 145.863281 522.726562 147.792969 C 523.882812 149.722656 524.992188 151.679688 526.050781 153.664062 C 527.113281 155.648438 528.125 157.65625 529.085938 159.691406 C 530.046875 161.722656 530.960938 163.78125 531.820312 165.859375 C 532.679688 167.9375 533.492188 170.035156 534.25 172.152344 C 535.007812 174.273438 535.710938 176.40625 536.363281 178.558594 C 537.019531 180.714844 537.617188 182.878906 538.164062 185.0625 C 538.710938 187.246094 539.203125 189.441406 539.644531 191.644531 C 540.082031 193.851562 540.464844 196.070312 540.796875 198.292969 C 541.125 200.519531 541.402344 202.75 541.621094 204.988281 C 541.84375 207.230469 542.007812 209.472656 542.117188 211.71875 C 542.230469 213.964844 542.285156 216.214844 542.285156 218.464844 Z M 542.285156 218.464844 "/><g clip-rule="nonzero" clip-path="url(#027b467ae3)"><path style=" stroke:none;fill-rule:nonzero;fill:black;fill-opacity:1;" d="M 189.515625 682.199219 L 189.515625 518.234375 C 159.703125 567.921875 141.484375 625.886719 139.828125 682.199219 Z M 189.515625 682.199219 "/></g><path style=" stroke:none;fill-rule:nonzero;fill:black;fill-opacity:1;" d="M 535.660156 428.800781 C 495.910156 402.300781 451.195312 389.050781 404.820312 389.050781 C 358.445312 389.050781 313.730469 402.300781 273.980469 428.800781 C 341.882812 433.769531 386.601562 453.644531 404.820312 463.582031 C 423.039062 453.644531 467.753906 433.769531 535.660156 428.800781 Z M 535.660156 428.800781 "/><path style=" stroke:none;fill-rule:nonzero;fill:black;fill-opacity:1;" d="M 414.757812 496.703125 C 414.757812 496.703125 413.101562 496.703125 414.757812 496.703125 C 413.101562 496.703125 413.101562 496.703125 414.757812 496.703125 C 411.445312 498.359375 409.789062 498.359375 408.132812 498.359375 C 408.132812 498.359375 406.476562 498.359375 406.476562 498.359375 C 404.820312 498.359375 403.164062 498.359375 401.507812 498.359375 C 401.507812 498.359375 399.851562 498.359375 399.851562 498.359375 C 398.195312 498.359375 396.539062 498.359375 396.539062 496.703125 C 394.882812 496.703125 331.949219 455.300781 222.640625 463.582031 L 222.640625 693.792969 C 318.699219 687.167969 381.632812 715.320312 404.820312 728.570312 C 428.007812 716.976562 490.941406 688.824219 587 693.792969 L 587 461.925781 C 479.347656 455.300781 416.414062 495.046875 414.757812 496.703125 Z M 414.757812 496.703125 "/><path style=" stroke:none;fill-rule:nonzero;fill:black;fill-opacity:1;" d="M 620.125 682.199219 L 669.8125 682.199219 C 666.5 622.574219 649.9375 566.265625 620.125 518.234375 Z M 620.125 682.199219 "/></g></svg>