<svg xmlns="http://www.w3.org/2000/svg" xmlns:xlink="http://www.w3.org/1999/xlink" width="1080" zoomAndPan="magnify" viewBox="0 0 810 809.999993" height="1080" preserveAspectRatio="xMidYMid meet" version="1.2"><defs><clipPath id="1e68babc92"><path d="M 310 182 L 503 182 L 503 631.949219 L 310 631.949219 Z M 310 182 "/></clipPath></defs><g id="beb7dc9b3a"><path style=" stroke:none;fill-rule:nonzero;fill:black;fill-opacity:1;" d="M 245.28125 567.910156 C 235.699219 567.910156 229.3125 564.714844 222.921875 558.328125 L 95.148438 430.554688 C 82.371094 417.777344 82.371094 398.609375 95.148438 385.832031 L 222.921875 258.058594 C 235.699219 245.28125 254.867188 245.28125 267.644531 258.058594 C 280.421875 270.835938 280.421875 290.003906 267.644531 302.78125 L 162.230469 408.191406 L 267.644531 513.605469 C 280.421875 526.382812 280.421875 545.550781 267.644531 558.328125 C 261.253906 564.714844 254.867188 567.910156 245.28125 567.910156 Z M 245.28125 567.910156 "/><path style=" stroke:none;fill-rule:nonzero;fill:black;fill-opacity:1;" d="M 564.71875 567.910156 C 555.132812 567.910156 548.746094 564.714844 542.355469 558.328125 C 529.578125 545.550781 529.578125 526.382812 542.355469 513.605469 L 647.769531 408.191406 L 542.355469 302.78125 C 529.578125 290.003906 529.578125 270.835938 542.355469 258.058594 C 555.132812 245.28125 574.300781 245.28125 587.078125 258.058594 L 714.851562 385.832031 C 727.628906 398.609375 727.628906 417.777344 714.851562 430.554688 L 587.078125 558.328125 C 580.6875 564.714844 574.300781 567.910156 564.71875 567.910156 Z M 564.71875 567.910156 "/><g clip-rule="nonzero" clip-path="url(#1e68babc92)"><path style=" stroke:none;fill-rule:nonzero;fill:black;fill-opacity:1;" d="M 341.113281 631.796875 C 337.917969 631.796875 334.722656 631.796875 331.53125 628.601562 C 315.558594 622.214844 305.976562 606.242188 312.363281 587.078125 L 440.136719 203.753906 C 446.527344 187.78125 462.5 178.199219 481.664062 184.589844 C 497.636719 190.976562 507.21875 206.949219 500.832031 226.117188 L 373.054688 609.4375 C 366.667969 622.214844 353.890625 631.796875 341.113281 631.796875 Z M 341.113281 631.796875 "/></g></g></svg>