<svg width="22" height="20" viewBox="0 0 22 20" fill="none" xmlns="http://www.w3.org/2000/svg">
<path d="M8.04259 14.4891C11.5498 14.2919 14.3337 11.3502 14.3337 7.74994C14.3337 4.02205 11.3489 1 7.66687 1C3.98486 1 1 4.02205 1 7.74994C1 9.07822 1.37883 10.3168 2.03324 11.3611L1.56208 12.7922L1.56133 12.7943C1.38087 13.3424 1.2906 13.6166 1.35488 13.7991C1.41089 13.9581 1.53522 14.0835 1.6923 14.1402C1.87194 14.2051 2.14086 14.1143 2.6786 13.9328L2.68625 13.9305L4.10014 13.4534C5.13157 14.116 6.355 14.4997 7.66693 14.4997C7.793 14.4997 7.91825 14.4961 8.04259 14.4891ZM8.04259 14.4891C8.95476 17.1165 11.4271 19 14.3339 19C15.6458 19 16.869 18.616 17.9003 17.9534L19.3139 18.4304L19.3167 18.431C19.858 18.6137 20.1293 18.7052 20.3095 18.6401C20.4666 18.5834 20.5893 18.4581 20.6453 18.299C20.7097 18.1163 20.6197 17.8418 20.4388 17.2922L19.9676 15.8611L20.1254 15.5963C20.6826 14.6101 21 13.4675 21 12.2499C21 8.52202 18.0157 5.49996 14.3337 5.49996L14.0842 5.50461L13.9583 5.51084" stroke="#868E96" stroke-width="2" stroke-linecap="round" stroke-linejoin="round"/>
</svg>
