<svg width="42" height="23" viewBox="0 0 42 23" fill="none" xmlns="http://www.w3.org/2000/svg">
<rect x="0.5" y="0.5" width="41" height="22" rx="3.5" fill="white"/>
<rect x="0.5" y="0.5" width="41" height="22" rx="3.5" stroke="#F5F5F5"/>
<path d="M36.2578 8.19688L34.0247 16.9801L34.0195 17H35.7587L38 8.19688H36.2578Z" fill="#292929"/>
<path d="M8.62357 13.1957C8.36276 13.328 8.07574 13.3962 7.785 13.3951C7.15866 13.3951 6.80322 13.2921 6.7646 12.7706V12.7354C6.7646 12.7147 6.76231 12.6964 6.76231 12.6722V11.1534L6.7646 10.9746V9.90385H6.76231V9.44832L6.7646 9.26799V8.23434L5.21102 8.44553C6.26175 8.23589 6.86461 7.3795 6.86461 6.52579V6H5.11894V8.45918L5.02042 8.48767V13.0419C5.07802 14.3214 5.89648 15.0818 7.23938 15.0818C7.71416 15.0818 8.23668 14.9706 8.63682 14.7836L8.64593 14.7797V13.182L8.62357 13.1957Z" fill="#292929"/>
<path d="M8.89904 7.86583L4 8.64381V9.92335L8.89904 9.1454V7.86583Z" fill="#292929"/>
<path d="M8.89904 9.73797L4 10.5159V11.7385L8.89904 10.9602V9.73797Z" fill="#292929"/>
<path d="M14.3972 10.3266C14.3278 8.905 13.4654 8.06264 12.0604 8.06264C11.2525 8.06264 10.5868 8.38387 10.1347 8.99243C9.68266 9.60098 9.44619 10.4906 9.44619 11.5719C9.44619 12.6531 9.68417 13.5454 10.1347 14.1516C10.5852 14.7579 11.2525 15.0815 12.0604 15.0815C13.4654 15.0815 14.3278 14.2348 14.3972 12.8057V14.9476H16.1402V8.21253L14.3972 8.48967V10.3266ZM14.4881 11.5734C14.4881 12.8327 13.8462 13.6462 12.8531 13.6462C11.83 13.6462 11.218 12.8713 11.218 11.5734C11.2169 10.2681 11.8281 9.48739 12.8519 9.48739C13.3498 9.48739 13.7659 9.68725 14.055 10.0651C14.3373 10.4344 14.487 10.9555 14.487 11.5722L14.4881 11.5734Z" fill="#292929"/>
<path d="M21.2332 8.063C19.8274 8.063 18.9646 8.90575 18.8964 10.329V6.25139L17.1507 6.52893V14.9479H18.8964V12.8053C18.9646 14.2363 19.8274 15.0838 21.2332 15.0838C22.8781 15.0838 23.8603 13.7718 23.8603 11.5742C23.8603 9.37651 22.8781 8.063 21.2332 8.063ZM20.4405 13.6449C19.447 13.6449 18.8055 12.8315 18.8055 11.5722C18.8055 10.9555 18.9548 10.4344 19.2375 10.0643C19.5266 9.68645 19.9426 9.48658 20.4405 9.48658C21.4636 9.48658 22.0756 10.2673 22.0756 11.5722C22.0756 12.8701 21.4644 13.6449 20.4405 13.6449Z" fill="#292929"/>
<path d="M28.6138 8.063C27.208 8.063 26.3456 8.90575 26.277 10.329V6.25139L24.5313 6.52893V14.9479H26.277V12.8053C26.3456 14.2363 27.208 15.0838 28.6138 15.0838C30.2587 15.0838 31.2409 13.7718 31.2409 11.5742C31.2409 9.37651 30.2587 8.063 28.6138 8.063ZM27.8211 13.6449C26.828 13.6449 26.1861 12.8315 26.1861 11.5722C26.1861 10.9555 26.3354 10.4344 26.618 10.0643C26.9072 9.68645 27.3232 9.48658 27.8211 9.48658C28.8442 9.48658 29.4561 10.2673 29.4561 11.5722C29.4561 12.8701 28.8449 13.6449 27.8211 13.6449Z" fill="#292929"/>
<path d="M31.245 8.19688H33.1089L34.6231 14.9355H32.9521L31.245 8.19688Z" fill="#292929"/>
</svg>
