<svg width="14" height="14" viewBox="0 0 14 14" fill="none" xmlns="http://www.w3.org/2000/svg">
<path d="M7 8.00139V6.05097M7 6.05097V4.10056M7 6.05097H5M7 6.05097H9M3.74905 11.0578L2.73307 11.8504C2.17829 12.2833 1.90077 12.4998 1.66732 12.5C1.46429 12.5002 1.2723 12.4102 1.14564 12.2555C1 12.0775 1 11.7312 1 11.0383V3.58057C1 2.85235 1 2.48796 1.14532 2.20982C1.27316 1.96516 1.47698 1.76638 1.72786 1.64172C2.01308 1.5 2.38673 1.5 3.13346 1.5H10.8668C11.6135 1.5 11.9867 1.5 12.2719 1.64172C12.5228 1.76638 12.727 1.96516 12.8548 2.20982C13 2.48769 13 2.85163 13 3.57844V8.52383C13 9.25062 13 9.61404 12.8548 9.89192C12.727 10.1366 12.5229 10.3357 12.272 10.4604C11.9871 10.6019 11.6143 10.6019 10.8691 10.6019H5.08171C4.80435 10.6019 4.66552 10.6019 4.53288 10.6285C4.41519 10.652 4.30144 10.6909 4.19445 10.7442C4.07433 10.804 3.96642 10.8882 3.75148 11.0559L3.74905 11.0578Z" stroke="white" stroke-width="1.5" stroke-linecap="round" stroke-linejoin="round"/>
</svg>
