<svg width="18" height="13" viewBox="0 0 18 13" fill="none" xmlns="http://www.w3.org/2000/svg">
<path d="M10.7778 1H3.66668C2.83834 1 2.42393 1 2.09723 1.13955C1.66162 1.32563 1.31576 1.68274 1.13533 2.13196C1 2.46887 1 2.89598 1 3.75021C2.47277 3.75021 3.66668 4.98101 3.66668 6.49979C3.66668 8.01857 2.47277 9.25 1 9.25C1 10.1042 1 10.5313 1.13533 10.8683C1.31576 11.3175 1.66162 11.6743 2.09723 11.8604C2.42393 11.9999 2.83834 12 3.66668 12H10.7778M10.7778 1H14.3334C15.1618 1 15.5759 1 15.9026 1.13955C16.3382 1.32563 16.6842 1.68274 16.8647 2.13196C17 2.46887 17 2.89599 17 3.75021C15.5272 3.75021 14.3334 4.98122 14.3334 6.5C14.3334 8.01878 15.5272 9.25 17 9.25C17 10.1042 17 10.5313 16.8647 10.8683C16.6842 11.3175 16.3382 11.6743 15.9026 11.8604C15.5759 11.9999 15.1618 12 14.3334 12H10.7778M10.7778 1V12" stroke="#216ED7" stroke-width="1.4" stroke-linecap="round" stroke-linejoin="round"/>
</svg>
