<svg xmlns="http://www.w3.org/2000/svg" xmlns:xlink="http://www.w3.org/1999/xlink" width="1080" zoomAndPan="magnify" viewBox="0 0 810 809.999993" height="1080" preserveAspectRatio="xMidYMid meet" version="1.2"><defs><clipPath id="da99f71f21"><path d="M 350 225.160156 L 462 225.160156 L 462 337 L 350 337 Z M 350 225.160156 "/></clipPath><clipPath id="f878eb6b50"><path d="M 211.539062 225.160156 L 323 225.160156 L 323 337 L 211.539062 337 Z M 211.539062 225.160156 "/></clipPath><clipPath id="39fa074b72"><path d="M 487 225.160156 L 598.539062 225.160156 L 598.539062 337 L 487 337 Z M 487 225.160156 "/></clipPath></defs><g id="0b86616303"><g clip-rule="nonzero" clip-path="url(#da99f71f21)"><path style=" stroke:none;fill-rule:nonzero;fill:black;fill-opacity:1;" d="M 406.070312 336.335938 C 436.78125 336.335938 461.675781 311.4375 461.675781 280.769531 C 461.636719 250.058594 436.738281 225.160156 406.070312 225.160156 C 375.398438 225.160156 350.460938 250.058594 350.460938 280.769531 C 350.460938 311.4375 375.359375 336.335938 406.070312 336.335938 Z M 408.621094 286.207031 L 403.476562 286.207031 C 392.722656 286.207031 384.101562 276.753906 385.527344 265.707031 C 386.53125 257.757812 392.890625 251.730469 400.589844 250.308594 L 400.589844 242.691406 C 400.589844 241.980469 401.175781 241.4375 401.84375 241.4375 L 410.253906 241.4375 C 410.964844 241.4375 411.507812 242.023438 411.507812 242.691406 L 411.507812 250.265625 C 419.710938 251.5625 426.070312 258.382812 426.699219 266.753906 C 426.738281 267.464844 426.152344 268.089844 425.402344 268.089844 L 416.992188 268.089844 C 416.320312 268.089844 415.820312 267.589844 415.734375 266.917969 C 415.191406 263.488281 412.222656 260.894531 408.664062 260.894531 L 403.9375 260.894531 C 400.171875 260.894531 396.738281 263.570312 396.363281 267.296875 C 395.902344 271.605469 399.292969 275.246094 403.519531 275.246094 L 408.035156 275.246094 C 417.242188 275.246094 425.441406 281.855469 426.613281 290.980469 C 427.910156 301.019531 420.921875 309.722656 411.550781 311.230469 L 411.550781 318.761719 C 411.550781 319.472656 410.964844 320.015625 410.296875 320.015625 L 401.886719 320.015625 C 401.175781 320.015625 400.628906 319.472656 400.628906 318.761719 L 400.628906 311.1875 C 392.429688 309.847656 386.070312 303.070312 385.441406 294.703125 C 385.398438 293.992188 385.984375 293.363281 386.738281 293.363281 L 395.148438 293.363281 C 395.820312 293.363281 396.320312 293.867188 396.40625 294.535156 C 396.949219 297.964844 399.917969 300.558594 403.476562 300.558594 L 408.203125 300.558594 C 411.96875 300.558594 415.402344 297.882812 415.777344 294.117188 C 416.238281 289.847656 412.847656 286.207031 408.621094 286.207031 Z M 408.621094 286.207031 "/></g><g clip-rule="nonzero" clip-path="url(#f878eb6b50)"><path style=" stroke:none;fill-rule:nonzero;fill:black;fill-opacity:1;" d="M 322.722656 280.769531 C 322.722656 250.058594 297.824219 225.160156 267.113281 225.160156 C 236.445312 225.160156 211.546875 250.058594 211.546875 280.769531 C 211.546875 311.480469 236.445312 336.335938 267.15625 336.335938 C 297.824219 336.335938 322.722656 311.4375 322.722656 280.769531 Z M 261.675781 318.804688 L 261.675781 311.230469 C 253.472656 309.890625 247.113281 303.113281 246.484375 294.746094 C 246.445312 294.03125 247.03125 293.40625 247.78125 293.40625 L 256.191406 293.40625 C 256.863281 293.40625 257.363281 293.90625 257.449219 294.578125 C 257.992188 298.007812 260.960938 300.601562 264.519531 300.601562 L 269.246094 300.601562 C 273.011719 300.601562 276.445312 297.925781 276.820312 294.160156 C 277.238281 289.847656 273.890625 286.207031 269.664062 286.207031 L 264.519531 286.207031 C 253.765625 286.207031 245.148438 276.753906 246.570312 265.707031 C 247.574219 257.757812 253.933594 251.730469 261.632812 250.308594 L 261.632812 242.691406 C 261.632812 241.980469 262.21875 241.4375 262.886719 241.4375 L 271.296875 241.4375 C 272.007812 241.4375 272.554688 242.023438 272.554688 242.691406 L 272.554688 250.265625 C 280.753906 251.5625 287.113281 258.382812 287.742188 266.753906 C 287.785156 267.464844 287.199219 268.089844 286.445312 268.089844 L 278.035156 268.089844 C 277.363281 268.089844 276.863281 267.589844 276.777344 266.917969 C 276.234375 263.488281 273.265625 260.894531 269.707031 260.894531 L 264.980469 260.894531 C 261.214844 260.894531 257.78125 263.570312 257.40625 267.296875 C 256.945312 271.605469 260.335938 275.246094 264.5625 275.246094 L 269.078125 275.246094 C 278.285156 275.246094 286.484375 281.855469 287.65625 290.980469 C 288.953125 301.019531 281.96875 309.722656 272.59375 311.230469 L 272.59375 318.761719 C 272.59375 319.472656 272.007812 320.015625 271.339844 320.015625 L 262.929688 320.015625 C 262.21875 320.058594 261.675781 319.515625 261.675781 318.804688 Z M 261.675781 318.804688 "/></g><g clip-rule="nonzero" clip-path="url(#39fa074b72)"><path style=" stroke:none;fill-rule:nonzero;fill:black;fill-opacity:1;" d="M 542.765625 225.160156 C 512.054688 225.160156 487.160156 250.058594 487.160156 280.769531 C 487.160156 311.480469 512.054688 336.335938 542.765625 336.335938 C 573.480469 336.335938 598.332031 311.4375 598.332031 280.769531 C 598.332031 250.058594 573.4375 225.160156 542.765625 225.160156 Z M 548.207031 311.273438 L 548.207031 318.804688 C 548.207031 319.515625 547.621094 320.058594 546.953125 320.058594 L 538.542969 320.058594 C 537.828125 320.058594 537.285156 319.515625 537.285156 318.804688 L 537.285156 311.230469 C 529.085938 309.890625 522.726562 303.113281 522.097656 294.746094 C 522.054688 294.03125 522.640625 293.40625 523.394531 293.40625 L 531.804688 293.40625 C 532.472656 293.40625 532.976562 293.90625 533.058594 294.578125 C 533.605469 298.007812 536.574219 300.601562 540.132812 300.601562 L 544.859375 300.601562 C 548.625 300.601562 552.054688 297.925781 552.433594 294.160156 C 552.894531 289.847656 549.503906 286.207031 545.277344 286.207031 L 540.132812 286.207031 C 529.378906 286.207031 520.757812 276.753906 522.179688 265.707031 C 523.183594 257.757812 529.546875 251.730469 537.242188 250.308594 L 537.242188 242.691406 C 537.242188 241.980469 537.828125 241.4375 538.5 241.4375 L 546.910156 241.4375 C 547.621094 241.4375 548.164062 242.023438 548.164062 242.691406 L 548.164062 250.265625 C 556.367188 251.5625 562.726562 258.382812 563.351562 266.753906 C 563.394531 267.464844 562.808594 268.089844 562.054688 268.089844 L 553.644531 268.089844 C 552.976562 268.089844 552.472656 267.589844 552.390625 266.917969 C 551.847656 263.488281 548.875 260.894531 545.277344 260.894531 L 540.550781 260.894531 C 536.785156 260.894531 533.351562 263.570312 532.976562 267.296875 C 532.515625 271.605469 535.90625 275.246094 540.132812 275.246094 L 544.691406 275.246094 C 553.898438 275.246094 562.097656 281.855469 563.269531 290.980469 C 564.566406 301.0625 557.578125 309.765625 548.207031 311.273438 Z M 548.207031 311.273438 "/></g><path style=" stroke:none;fill-rule:nonzero;fill:black;fill-opacity:1;" d="M 548.121094 354.746094 C 545.570312 351.3125 539.878906 351.355469 537.371094 354.746094 L 514.230469 385.832031 C 512.726562 387.882812 512.472656 390.5625 513.601562 392.820312 C 514.734375 395.082031 517.078125 396.503906 519.585938 396.503906 L 533.351562 396.503906 L 533.351562 440.226562 C 533.351562 450.3125 525.152344 458.554688 515.027344 458.554688 L 415.441406 458.554688 L 415.441406 396.546875 L 429.207031 396.546875 C 431.761719 396.546875 434.0625 395.121094 435.191406 392.863281 C 436.320312 390.605469 436.070312 387.882812 434.5625 385.875 L 411.425781 354.789062 C 408.875 351.355469 403.183594 351.398438 400.671875 354.789062 L 377.535156 385.875 C 376.027344 387.925781 375.777344 390.605469 376.90625 392.863281 C 378.035156 395.121094 380.378906 396.546875 382.890625 396.546875 L 396.65625 396.546875 L 396.65625 458.511719 L 294.8125 458.511719 C 284.730469 458.511719 276.484375 450.3125 276.484375 440.1875 L 276.484375 396.546875 L 290.25 396.546875 C 292.804688 396.546875 295.105469 395.121094 296.234375 392.863281 C 297.363281 390.605469 297.113281 387.882812 295.609375 385.875 L 272.46875 354.789062 C 269.917969 351.355469 264.226562 351.398438 261.714844 354.789062 L 238.578125 385.875 C 237.070312 387.925781 236.820312 390.605469 237.949219 392.863281 C 239.078125 395.121094 241.421875 396.546875 243.933594 396.546875 L 257.699219 396.546875 L 257.699219 440.226562 C 257.699219 460.648438 274.308594 477.300781 294.769531 477.300781 L 515.027344 477.300781 C 535.488281 477.300781 552.097656 460.6875 552.097656 440.226562 L 552.097656 396.546875 L 565.863281 396.546875 C 568.417969 396.546875 570.71875 395.121094 571.847656 392.863281 C 572.976562 390.605469 572.726562 387.882812 571.21875 385.875 Z M 548.121094 354.746094 "/><path style=" stroke:none;fill-rule:nonzero;fill:black;fill-opacity:1;" d="M 247.28125 576.757812 C 245.105469 579.519531 245.605469 583.535156 248.367188 585.671875 L 293.890625 621.277344 C 296.652344 623.410156 300.671875 622.953125 302.804688 620.191406 L 322.050781 595.585938 L 266.527344 552.195312 Z M 247.28125 576.757812 "/><path style=" stroke:none;fill-rule:nonzero;fill:black;fill-opacity:1;" d="M 491.929688 498.304688 L 449.667969 510.730469 C 449.710938 511.652344 449.667969 512.574219 449.628906 513.453125 C 448.832031 525.628906 439.921875 535.753906 427.910156 538.054688 L 425.191406 538.554688 C 409.625 541.570312 393.769531 543.242188 377.996094 543.535156 L 365.066406 543.785156 C 360.839844 543.871094 357.324219 540.480469 357.242188 536.253906 C 357.15625 532.027344 360.546875 528.515625 364.773438 528.429688 L 377.703125 528.179688 C 392.597656 527.929688 407.578125 526.339844 422.261719 523.492188 L 424.941406 522.992188 C 430.085938 522.027344 433.894531 517.675781 434.230469 512.445312 C 434.398438 509.351562 433.394531 506.378906 431.34375 504.078125 C 429.25 501.777344 426.445312 500.398438 423.351562 500.230469 L 355.609375 496.671875 C 348.203125 496.296875 340.753906 498.429688 334.644531 502.65625 L 277.949219 542.070312 L 334.9375 586.632812 L 391.632812 593.117188 C 401.507812 594.246094 411.300781 591.570312 419.207031 585.628906 L 503.769531 521.988281 C 506.824219 519.6875 508.707031 516.296875 509.085938 512.445312 C 509.460938 508.640625 508.207031 504.957031 505.613281 502.113281 C 502.222656 498.304688 496.949219 496.839844 491.929688 498.304688 Z M 491.929688 498.304688 "/></g></svg>