<svg xmlns="http://www.w3.org/2000/svg" xmlns:xlink="http://www.w3.org/1999/xlink" width="1080" zoomAndPan="magnify" viewBox="0 0 810 809.999993" height="1080" preserveAspectRatio="xMidYMid meet" version="1.2"><defs><clipPath id="4e3169eae8"><path d="M 222 194.566406 L 401 194.566406 L 401 372 L 222 372 Z M 222 194.566406 "/></clipPath><clipPath id="5f8cddd07a"><path d="M 400 423 L 653 423 L 653 675.316406 L 400 675.316406 Z M 400 423 "/></clipPath></defs><g id="44a9b25156"><path style=" stroke:none;fill-rule:nonzero;fill:black;fill-opacity:1;" d="M 404.734375 452.378906 L 429.214844 427.898438 C 430.257812 426.855469 431.296875 425.816406 432.339844 425.292969 C 418.277344 405.503906 398.484375 389.878906 375.570312 381.023438 C 357.339844 393.003906 334.945312 400.292969 311.507812 400.292969 C 288.070312 400.292969 265.671875 393.003906 247.445312 381.023438 C 214.109375 394.042969 187.027344 421.128906 174.527344 456.023438 C 165.675781 481.023438 159.945312 507.585938 157.863281 534.148438 C 156.820312 546.125 166.714844 556.542969 179.214844 556.542969 L 371.402344 556.542969 L 371.402344 532.585938 C 371.402344 515.398438 383.382812 500.8125 400.046875 497.6875 C 391.195312 483.625 392.757812 464.355469 404.734375 452.378906 Z M 404.734375 452.378906 "/><g clip-rule="nonzero" clip-path="url(#4e3169eae8)"><path style=" stroke:none;fill-rule:nonzero;fill:black;fill-opacity:1;" d="M 311.507812 371.648438 C 360.464844 371.648438 400.046875 332.066406 400.046875 283.105469 C 400.046875 234.148438 360.464844 194.566406 311.507812 194.566406 C 262.546875 194.566406 222.964844 234.148438 222.964844 283.105469 C 223.484375 332.066406 263.070312 371.648438 311.507812 371.648438 Z M 311.507812 371.648438 "/></g><g clip-rule="nonzero" clip-path="url(#5f8cddd07a)"><path style=" stroke:none;fill-rule:nonzero;fill:black;fill-opacity:1;" d="M 646.921875 525.292969 L 622.964844 522.6875 C 620.878906 514.875 617.753906 507.585938 614.109375 500.8125 L 629.214844 482.0625 C 631.296875 479.460938 631.296875 475.292969 628.691406 472.691406 L 603.691406 448.210938 C 601.089844 445.605469 596.921875 445.605469 594.316406 447.691406 L 575.566406 462.792969 C 568.796875 459.148438 561.503906 456.023438 553.691406 453.941406 L 551.089844 429.980469 C 550.566406 426.335938 547.441406 423.730469 543.796875 423.730469 L 509.421875 423.730469 C 505.777344 423.730469 502.652344 426.335938 502.128906 429.980469 L 499.527344 453.417969 C 491.714844 455.503906 484.421875 458.628906 477.652344 462.273438 L 458.902344 447.167969 C 456.296875 445.085938 452.128906 445.085938 449.527344 447.691406 L 425.046875 472.167969 C 422.445312 474.773438 422.445312 478.9375 424.527344 481.542969 L 439.632812 500.292969 C 435.984375 507.0625 432.859375 514.355469 430.777344 522.167969 L 406.820312 524.773438 C 403.171875 525.292969 400.570312 528.417969 400.570312 532.0625 L 400.570312 566.4375 C 400.570312 570.085938 403.171875 573.210938 406.820312 573.730469 L 430.777344 576.335938 C 432.859375 584.148438 435.984375 591.4375 439.632812 598.210938 L 424.527344 616.960938 C 422.445312 619.5625 422.445312 623.730469 425.046875 626.335938 L 449.527344 650.8125 C 452.128906 653.417969 456.296875 653.417969 458.902344 651.335938 L 477.652344 636.230469 C 484.421875 639.875 491.714844 643 499.527344 645.085938 L 502.128906 669.042969 C 502.652344 672.6875 505.777344 675.292969 509.421875 675.292969 L 543.796875 675.292969 C 547.441406 675.292969 550.566406 672.6875 551.089844 669.042969 L 553.691406 645.085938 C 561.503906 643 568.796875 639.875 575.566406 636.230469 L 594.316406 651.335938 C 596.921875 653.417969 601.089844 653.417969 603.691406 650.8125 L 628.171875 626.335938 C 630.777344 623.730469 630.777344 619.5625 628.691406 616.960938 L 613.589844 598.210938 C 617.234375 591.4375 620.359375 584.148438 622.441406 576.335938 L 646.402344 573.730469 C 650.046875 573.210938 652.652344 570.085938 652.652344 566.4375 L 652.652344 532.0625 C 653.171875 528.9375 650.566406 525.8125 646.921875 525.292969 Z M 526.609375 598.730469 C 499.527344 598.730469 477.652344 576.855469 477.652344 549.773438 C 477.652344 522.6875 499.527344 500.8125 526.609375 500.8125 C 553.691406 500.8125 575.566406 522.6875 575.566406 549.773438 C 575.566406 576.855469 553.691406 598.730469 526.609375 598.730469 Z M 526.609375 598.730469 "/></g></g></svg>