<svg xmlns="http://www.w3.org/2000/svg" xmlns:xlink="http://www.w3.org/1999/xlink" width="1080" zoomAndPan="magnify" viewBox="0 0 810 809.999993" height="1080" preserveAspectRatio="xMidYMid meet" version="1.2"><defs><clipPath id="f0af39dbb9"><path d="M 181.960938 218.203125 L 591 218.203125 L 591 275 L 181.960938 275 Z M 181.960938 218.203125 "/></clipPath><clipPath id="b94b4dece7"><path d="M 181.960938 330 L 591 330 L 591 517 L 181.960938 517 Z M 181.960938 330 "/></clipPath></defs><g id="a1f3eeec82"><g clip-rule="nonzero" clip-path="url(#f0af39dbb9)"><path style=" stroke:none;fill-rule:nonzero;fill:black;fill-opacity:1;" d="M 590.769531 274.601562 L 590.769531 256.019531 C 590.769531 235.582031 574.039062 218.855469 553.609375 218.855469 L 219.125 218.855469 C 198.691406 218.855469 181.960938 235.582031 181.960938 256.019531 L 181.960938 274.601562 Z M 590.769531 274.601562 "/></g><g clip-rule="nonzero" clip-path="url(#b94b4dece7)"><path style=" stroke:none;fill-rule:nonzero;fill:black;fill-opacity:1;" d="M 181.960938 330.347656 L 181.960938 479.007812 C 181.960938 499.441406 198.691406 516.167969 219.125 516.167969 L 404.949219 516.167969 L 404.949219 497.589844 C 404.949219 425.875 463.308594 367.515625 535.023438 367.515625 L 590.769531 367.515625 L 590.769531 330.347656 Z M 274.875 460.421875 L 219.125 460.421875 L 219.125 423.261719 L 274.875 423.261719 Z M 367.78125 460.421875 L 312.035156 460.421875 L 312.035156 423.261719 L 367.78125 423.261719 Z M 367.78125 460.421875 "/></g><path style=" stroke:none;fill-rule:nonzero;fill:black;fill-opacity:1;" d="M 535.023438 404.675781 C 483.722656 404.675781 442.113281 446.289062 442.113281 497.589844 C 442.113281 548.886719 483.722656 590.496094 535.023438 590.496094 C 586.328125 590.496094 627.9375 548.886719 627.9375 497.589844 C 627.9375 446.289062 586.328125 404.675781 535.023438 404.675781 Z M 528.457031 538.652344 L 479.1875 489.367188 L 498.894531 469.660156 L 528.457031 499.222656 L 571.167969 456.527344 L 590.875 476.234375 Z M 528.457031 538.652344 "/></g></svg>