<svg xmlns="http://www.w3.org/2000/svg" xmlns:xlink="http://www.w3.org/1999/xlink" width="1080" zoomAndPan="magnify" viewBox="0 0 810 809.999993" height="1080" preserveAspectRatio="xMidYMid meet" version="1.2"><g id="b6644e06ba"><path style=" stroke:none;fill-rule:nonzero;fill:black;fill-opacity:1;" d="M 377.507812 399.355469 C 441.273438 418.3125 510.417969 367.773438 509.417969 299.4375 C 503.734375 161.847656 307.414062 161.855469 301.734375 299.441406 C 301.734375 346.914062 333.847656 387.109375 377.507812 399.355469 Z M 377.507812 399.355469 "/><path style=" stroke:none;fill-rule:nonzero;fill:black;fill-opacity:1;" d="M 572.949219 565.6875 C 559.320312 485.753906 489.4375 424.765625 405.578125 424.765625 C 310.863281 424.070312 231.574219 505.648438 236.355469 598.257812 C 237.859375 602.878906 242.25 606 247.214844 606 L 563.9375 606 C 582.992188 604.390625 573.570312 577.804688 572.949219 565.683594 Z M 572.949219 565.6875 "/><path style=" stroke:none;fill-rule:nonzero;fill:black;fill-opacity:1;" d="M 607.140625 433.777344 C 648.953125 433.777344 683.027344 399.699219 683.027344 357.886719 C 679.21875 257.503906 535.042969 257.53125 531.25 357.886719 C 531.25 399.699219 565.324219 433.777344 607.140625 433.777344 Z M 607.140625 433.777344 "/><path style=" stroke:none;fill-rule:nonzero;fill:black;fill-opacity:1;" d="M 607.140625 441.863281 C 585.65625 441.863281 564.402344 447.519531 545.921875 458.261719 C 551.347656 463.921875 556.316406 470.046875 560.9375 476.398438 C 581.773438 504.515625 594.785156 539.457031 597.320312 575.15625 C 597.320312 575.15625 717.449219 575.15625 717.449219 575.15625 C 723.800781 575.15625 729 569.960938 729 563.605469 C 729 496.496094 674.363281 441.863281 607.140625 441.863281 Z M 607.140625 441.863281 "/><path style=" stroke:none;fill-rule:nonzero;fill:black;fill-opacity:1;" d="M 204.015625 433.777344 C 245.828125 433.777344 279.90625 399.699219 279.90625 357.886719 C 276.09375 257.503906 131.921875 257.53125 128.128906 357.886719 C 128.128906 399.699219 162.203125 433.777344 204.015625 433.777344 Z M 204.015625 433.777344 "/><path style=" stroke:none;fill-rule:nonzero;fill:black;fill-opacity:1;" d="M 265.234375 458.261719 C 186.472656 410.777344 80.511719 471.488281 82.15625 563.609375 C 82.15625 569.960938 87.351562 575.15625 93.707031 575.15625 L 213.835938 575.15625 C 216.957031 531.320312 235.550781 489.71875 265.234375 458.261719 Z M 265.234375 458.261719 "/></g></svg>