<svg xmlns="http://www.w3.org/2000/svg" xmlns:xlink="http://www.w3.org/1999/xlink" width="1080" zoomAndPan="magnify" viewBox="0 0 810 809.999993" height="1080" preserveAspectRatio="xMidYMid meet" version="1.2"><defs><clipPath id="52a7c20f90"><path d="M 213.144531 203.3125 L 595 203.3125 L 595 606.8125 L 213.144531 606.8125 Z M 213.144531 203.3125 "/></clipPath></defs><g id="869274ec63"><g clip-rule="nonzero" clip-path="url(#52a7c20f90)"><path style=" stroke:none;fill-rule:nonzero;fill:black;fill-opacity:1;" d="M 588.203125 444.167969 C 576.664062 444.167969 576.664062 444.199219 576.664062 444.117188 L 541.179688 397.320312 C 536.007812 390.578125 525.652344 398.371094 530.789062 405.230469 C 530.140625 404.574219 559.664062 443.511719 560.3125 444.167969 L 475.367188 444.117188 L 504.839844 405.230469 C 510.023438 398.359375 499.648438 390.492188 494.449219 397.320312 L 458.960938 444.125 L 447.453125 444.125 C 438.777344 444.160156 438.617188 457.164062 447.453125 457.199219 C 457.453125 457.242188 457.261719 457.167969 457.261719 457.253906 L 466.019531 527.050781 C 466.15625 528.140625 466.394531 529.210938 466.722656 530.257812 C 467.054688 531.304688 467.476562 532.3125 467.992188 533.285156 C 468.503906 534.253906 469.101562 535.171875 469.78125 536.035156 C 470.460938 536.898438 471.210938 537.695312 472.035156 538.421875 C 472.859375 539.148438 473.738281 539.796875 474.679688 540.367188 C 475.621094 540.933594 476.601562 541.414062 477.628906 541.804688 C 478.65625 542.195312 479.710938 542.492188 480.789062 542.691406 C 481.871094 542.890625 482.960938 542.992188 484.058594 542.996094 L 551.636719 542.996094 C 552.730469 542.992188 553.820312 542.890625 554.898438 542.6875 C 555.972656 542.488281 557.027344 542.191406 558.050781 541.800781 C 559.074219 541.410156 560.054688 540.929688 560.992188 540.359375 C 561.929688 539.789062 562.808594 539.140625 563.628906 538.414062 C 564.449219 537.6875 565.199219 536.890625 565.875 536.027344 C 566.550781 535.164062 567.144531 534.25 567.65625 533.277344 C 568.164062 532.308594 568.585938 531.300781 568.914062 530.253906 C 569.242188 529.207031 569.472656 528.140625 569.609375 527.050781 L 578.363281 457.238281 C 580.5 457.226562 586.152344 457.246094 588.203125 457.238281 C 596.75 457.207031 596.75 444.199219 588.203125 444.167969 Z M 490.855469 523.785156 C 490.433594 523.863281 490.007812 523.898438 489.582031 523.890625 C 489.152344 523.886719 488.730469 523.835938 488.308594 523.746094 C 487.890625 523.65625 487.484375 523.523438 487.09375 523.351562 C 486.703125 523.179688 486.332031 522.96875 485.980469 522.722656 C 485.628906 522.476562 485.308594 522.195312 485.011719 521.886719 C 484.71875 521.574219 484.457031 521.238281 484.230469 520.875 C 484.003906 520.507812 483.816406 520.128906 483.664062 519.726562 C 483.515625 519.324219 483.40625 518.914062 483.339844 518.488281 L 477.328125 483.980469 C 477.246094 483.558594 477.210938 483.132812 477.21875 482.703125 C 477.222656 482.273438 477.273438 481.847656 477.363281 481.425781 C 477.453125 481.003906 477.585938 480.597656 477.757812 480.203125 C 477.929688 479.808594 478.136719 479.433594 478.386719 479.082031 C 478.632812 478.730469 478.910156 478.402344 479.222656 478.105469 C 479.53125 477.808594 479.871094 477.546875 480.234375 477.316406 C 480.597656 477.085938 480.980469 476.894531 481.382812 476.738281 C 481.78125 476.585938 482.195312 476.472656 482.621094 476.402344 C 483.042969 476.328125 483.46875 476.296875 483.898438 476.308594 C 484.324219 476.320312 484.75 476.371094 485.167969 476.464844 C 485.585938 476.558594 485.988281 476.691406 486.382812 476.863281 C 486.773438 477.039062 487.144531 477.246094 487.496094 477.492188 C 487.847656 477.738281 488.171875 478.015625 488.46875 478.324219 C 488.765625 478.632812 489.03125 478.964844 489.265625 479.328125 C 489.496094 479.6875 489.691406 480.066406 489.847656 480.464844 C 490.007812 480.863281 490.125 481.273438 490.203125 481.695312 L 496.214844 516.265625 C 496.285156 516.691406 496.316406 517.117188 496.304688 517.542969 C 496.289062 517.972656 496.238281 518.394531 496.140625 518.8125 C 496.042969 519.230469 495.910156 519.636719 495.734375 520.027344 C 495.558594 520.417969 495.34375 520.789062 495.09375 521.136719 C 494.847656 521.488281 494.566406 521.808594 494.253906 522.101562 C 493.941406 522.398438 493.601562 522.65625 493.238281 522.882812 C 492.875 523.109375 492.492188 523.300781 492.089844 523.453125 C 491.691406 523.601562 491.277344 523.714844 490.855469 523.785156 Z M 524.316406 517.640625 C 524.3125 526.167969 511.296875 526.199219 511.246094 517.640625 L 511.246094 482.609375 C 511.269531 474.054688 524.335938 474.046875 524.316406 482.609375 Z M 552.289062 518.488281 C 550.785156 526.941406 538.023438 524.644531 539.414062 516.265625 L 545.425781 481.695312 C 546.953125 473.355469 559.769531 475.515625 558.300781 483.980469 Z M 453.996094 533.324219 C 453.386719 534.816406 445.972656 471.171875 445.695312 470.125 C 417.855469 465.953125 424.535156 427.300781 452.425781 431.109375 C 458.117188 423.605469 467.550781 411.164062 473.273438 403.59375 L 473.273438 208.574219 L 438.375 236.484375 C 437.796875 236.949219 437.15625 237.308594 436.457031 237.554688 C 435.753906 237.804688 435.035156 237.929688 434.289062 237.929688 C 433.546875 237.929688 432.824219 237.804688 432.125 237.554688 C 431.421875 237.308594 430.785156 236.949219 430.207031 236.484375 L 388.703125 203.347656 L 347.269531 236.484375 C 346.6875 236.941406 346.046875 237.296875 345.347656 237.539062 C 344.648438 237.78125 343.925781 237.90625 343.183594 237.90625 C 342.445312 237.90625 341.722656 237.78125 341.023438 237.539062 C 340.324219 237.296875 339.683594 236.941406 339.101562 236.484375 L 297.730469 203.347656 L 256.296875 236.484375 C 255.714844 236.941406 255.074219 237.296875 254.375 237.539062 C 253.671875 237.78125 252.953125 237.90625 252.210938 237.90625 C 251.46875 237.90625 250.75 237.78125 250.046875 237.539062 C 249.347656 237.296875 248.707031 236.941406 248.125 236.484375 L 213.226562 208.574219 L 213.226562 595.019531 C 213.230469 595.789062 213.304688 596.546875 213.457031 597.300781 C 213.609375 598.054688 213.832031 598.785156 214.125 599.492188 C 214.421875 600.199219 214.78125 600.875 215.207031 601.511719 C 215.632812 602.152344 216.121094 602.742188 216.660156 603.285156 C 217.203125 603.828125 217.796875 604.3125 218.433594 604.738281 C 219.070312 605.164062 219.746094 605.527344 220.453125 605.820312 C 221.164062 606.113281 221.894531 606.339844 222.644531 606.488281 C 223.398438 606.640625 224.15625 606.71875 224.925781 606.71875 L 461.574219 606.71875 C 462.34375 606.71875 463.105469 606.644531 463.859375 606.496094 C 464.613281 606.347656 465.34375 606.125 466.054688 605.832031 C 466.765625 605.539062 467.4375 605.175781 468.078125 604.75 C 468.71875 604.324219 469.308594 603.839844 469.851562 603.296875 C 470.394531 602.753906 470.878906 602.160156 471.304688 601.523438 C 471.734375 600.882812 472.09375 600.207031 472.386719 599.5 C 472.679688 598.789062 472.902344 598.058594 473.050781 597.304688 C 473.199219 596.550781 473.273438 595.789062 473.273438 595.019531 L 473.273438 554.171875 C 463.804688 551.023438 453.996094 537.695312 453.996094 533.324219 Z M 441.640625 396.796875 L 324.003906 396.796875 L 324.003906 383.726562 L 441.640625 383.726562 Z M 324.003906 487.773438 L 324.003906 474.703125 L 408.636719 474.703125 L 408.636719 487.773438 Z M 405.4375 529.339844 L 405.4375 542.410156 L 324.003906 542.410156 L 324.003906 529.339844 Z M 324.003906 451.371094 L 324.003906 438.300781 L 395.042969 438.300781 L 395.042969 451.371094 Z M 324.003906 360.332031 L 324.003906 347.257812 L 405.4375 347.257812 L 405.4375 360.332031 Z M 236.625 267.332031 C 236.621094 266.902344 236.664062 266.476562 236.746094 266.054688 C 236.828125 265.632812 236.953125 265.222656 237.117188 264.824219 C 237.277344 264.429688 237.480469 264.050781 237.71875 263.695312 C 237.957031 263.335938 238.226562 263.007812 238.53125 262.703125 C 238.835938 262.398438 239.164062 262.128906 239.523438 261.890625 C 239.878906 261.652344 240.257812 261.449219 240.65625 261.285156 C 241.050781 261.121094 241.460938 261 241.882812 260.917969 C 242.304688 260.835938 242.730469 260.792969 243.160156 260.796875 L 443.40625 260.796875 C 443.835938 260.796875 444.261719 260.839844 444.679688 260.921875 C 445.101562 261.007812 445.507812 261.132812 445.90625 261.296875 C 446.300781 261.460938 446.675781 261.664062 447.035156 261.902344 C 447.390625 262.140625 447.71875 262.410156 448.023438 262.714844 C 448.324219 263.019531 448.597656 263.347656 448.835938 263.703125 C 449.074219 264.058594 449.277344 264.4375 449.441406 264.832031 C 449.605469 265.226562 449.730469 265.636719 449.8125 266.058594 C 449.898438 266.476562 449.941406 266.902344 449.941406 267.332031 L 449.941406 312.882812 C 449.941406 313.3125 449.898438 313.734375 449.8125 314.15625 C 449.730469 314.578125 449.605469 314.984375 449.441406 315.378906 C 449.277344 315.777344 449.074219 316.152344 448.835938 316.507812 C 448.597656 316.867188 448.324219 317.195312 448.023438 317.5 C 447.71875 317.800781 447.390625 318.074219 447.035156 318.3125 C 446.675781 318.550781 446.300781 318.75 445.90625 318.914062 C 445.507812 319.082031 445.101562 319.203125 444.679688 319.289062 C 444.261719 319.375 443.835938 319.417969 443.40625 319.417969 L 243.160156 319.417969 C 242.730469 319.417969 242.304688 319.378906 241.882812 319.296875 C 241.460938 319.214844 241.050781 319.089844 240.65625 318.925781 C 240.257812 318.761719 239.878906 318.5625 239.523438 318.324219 C 239.164062 318.085938 238.835938 317.8125 238.53125 317.511719 C 238.226562 317.207031 237.957031 316.875 237.71875 316.519531 C 237.480469 316.160156 237.277344 315.785156 237.117188 315.386719 C 236.953125 314.988281 236.828125 314.582031 236.746094 314.160156 C 236.664062 313.738281 236.621094 313.3125 236.625 312.882812 Z M 295.183594 576.851562 C 295.179688 577.28125 295.136719 577.703125 295.054688 578.125 C 294.96875 578.546875 294.84375 578.953125 294.679688 579.347656 C 294.515625 579.746094 294.3125 580.121094 294.074219 580.476562 C 293.835938 580.835938 293.566406 581.164062 293.261719 581.46875 C 292.960938 581.769531 292.628906 582.042969 292.273438 582.28125 C 291.917969 582.519531 291.539062 582.71875 291.144531 582.882812 C 290.75 583.050781 290.339844 583.171875 289.921875 583.257812 C 289.5 583.34375 289.074219 583.386719 288.648438 583.386719 L 243.160156 583.386719 C 242.730469 583.386719 242.304688 583.347656 241.882812 583.265625 C 241.460938 583.183594 241.050781 583.058594 240.65625 582.894531 C 240.257812 582.730469 239.878906 582.53125 239.523438 582.292969 C 239.164062 582.054688 238.835938 581.78125 238.53125 581.480469 C 238.226562 581.175781 237.957031 580.84375 237.71875 580.488281 C 237.480469 580.128906 237.277344 579.753906 237.117188 579.355469 C 236.953125 578.957031 236.828125 578.550781 236.746094 578.128906 C 236.664062 577.707031 236.621094 577.28125 236.625 576.851562 L 236.625 531.300781 C 236.621094 530.871094 236.664062 530.445312 236.746094 530.023438 C 236.828125 529.601562 236.953125 529.191406 237.117188 528.792969 C 237.277344 528.398438 237.480469 528.019531 237.71875 527.664062 C 237.957031 527.304688 238.226562 526.976562 238.53125 526.671875 C 238.835938 526.367188 239.164062 526.097656 239.523438 525.859375 C 239.878906 525.621094 240.257812 525.417969 240.65625 525.253906 C 241.050781 525.089844 241.460938 524.96875 241.882812 524.886719 C 242.304688 524.800781 242.730469 524.761719 243.160156 524.761719 L 288.648438 524.761719 C 289.074219 524.765625 289.5 524.808594 289.921875 524.890625 C 290.339844 524.976562 290.75 525.101562 291.144531 525.265625 C 291.539062 525.429688 291.917969 525.632812 292.273438 525.871094 C 292.628906 526.109375 292.960938 526.378906 293.261719 526.683594 C 293.566406 526.988281 293.835938 527.316406 294.074219 527.671875 C 294.3125 528.027344 294.515625 528.40625 294.679688 528.800781 C 294.84375 529.195312 294.96875 529.605469 295.054688 530.023438 C 295.136719 530.445312 295.179688 530.871094 295.183594 531.300781 Z M 295.183594 485.8125 C 295.179688 486.242188 295.136719 486.664062 295.054688 487.085938 C 294.96875 487.507812 294.84375 487.914062 294.679688 488.308594 C 294.515625 488.707031 294.3125 489.082031 294.074219 489.4375 C 293.835938 489.792969 293.566406 490.125 293.261719 490.429688 C 292.960938 490.730469 292.628906 491 292.273438 491.238281 C 291.917969 491.480469 291.539062 491.679688 291.144531 491.84375 C 290.75 492.007812 290.339844 492.132812 289.921875 492.21875 C 289.5 492.304688 289.074219 492.347656 288.648438 492.347656 L 243.160156 492.347656 C 242.730469 492.347656 242.304688 492.308594 241.882812 492.226562 C 241.460938 492.144531 241.050781 492.019531 240.65625 491.855469 C 240.257812 491.691406 239.878906 491.492188 239.523438 491.253906 C 239.164062 491.015625 238.835938 490.742188 238.53125 490.441406 C 238.226562 490.136719 237.957031 489.804688 237.71875 489.449219 C 237.480469 489.089844 237.277344 488.714844 237.117188 488.316406 C 236.953125 487.917969 236.828125 487.511719 236.746094 487.089844 C 236.664062 486.667969 236.621094 486.242188 236.625 485.8125 L 236.625 440.324219 C 236.621094 439.894531 236.65625 439.46875 236.738281 439.046875 C 236.820312 438.621094 236.941406 438.210938 237.105469 437.8125 C 237.265625 437.414062 237.46875 437.039062 237.707031 436.679688 C 237.945312 436.320312 238.214844 435.988281 238.519531 435.683594 C 238.824219 435.378906 239.15625 435.109375 239.511719 434.871094 C 239.871094 434.632812 240.25 434.433594 240.648438 434.269531 C 241.046875 434.105469 241.457031 433.984375 241.878906 433.90625 C 242.304688 433.824219 242.730469 433.785156 243.160156 433.789062 L 288.648438 433.789062 C 289.078125 433.789062 289.5 433.828125 289.921875 433.910156 C 290.34375 433.992188 290.753906 434.117188 291.152344 434.28125 C 291.546875 434.445312 291.925781 434.644531 292.28125 434.882812 C 292.640625 435.121094 292.972656 435.394531 293.273438 435.695312 C 293.578125 436 293.847656 436.332031 294.085938 436.6875 C 294.324219 437.046875 294.527344 437.421875 294.691406 437.820312 C 294.855469 438.21875 294.976562 438.625 295.058594 439.046875 C 295.144531 439.46875 295.183594 439.894531 295.183594 440.324219 Z M 295.183594 394.773438 C 295.179688 395.203125 295.136719 395.625 295.054688 396.046875 C 294.96875 396.464844 294.84375 396.875 294.679688 397.269531 C 294.515625 397.667969 294.3125 398.042969 294.074219 398.398438 C 293.835938 398.753906 293.566406 399.085938 293.261719 399.386719 C 292.960938 399.691406 292.628906 399.960938 292.273438 400.199219 C 291.917969 400.4375 291.539062 400.640625 291.144531 400.804688 C 290.75 400.96875 290.339844 401.09375 289.921875 401.179688 C 289.5 401.265625 289.074219 401.308594 288.648438 401.308594 L 243.160156 401.308594 C 242.730469 401.308594 242.304688 401.269531 241.882812 401.1875 C 241.460938 401.105469 241.050781 400.980469 240.65625 400.816406 C 240.257812 400.652344 239.878906 400.453125 239.523438 400.214844 C 239.164062 399.976562 238.835938 399.703125 238.53125 399.402344 C 238.226562 399.097656 237.957031 398.765625 237.71875 398.410156 C 237.480469 398.050781 237.277344 397.675781 237.117188 397.277344 C 236.953125 396.878906 236.828125 396.472656 236.746094 396.050781 C 236.664062 395.628906 236.621094 395.203125 236.625 394.773438 L 236.625 349.285156 C 236.621094 348.855469 236.664062 348.429688 236.746094 348.007812 C 236.828125 347.585938 236.953125 347.179688 237.117188 346.78125 C 237.277344 346.382812 237.480469 346.007812 237.71875 345.648438 C 237.957031 345.292969 238.226562 344.960938 238.53125 344.65625 C 238.835938 344.355469 239.164062 344.082031 239.523438 343.84375 C 239.878906 343.605469 240.257812 343.40625 240.65625 343.242188 C 241.050781 343.078125 241.460938 342.953125 241.882812 342.871094 C 242.304688 342.789062 242.730469 342.75 243.160156 342.75 L 288.648438 342.75 C 289.074219 342.75 289.5 342.792969 289.921875 342.878906 C 290.339844 342.964844 290.75 343.089844 291.144531 343.253906 C 291.539062 343.417969 291.917969 343.617188 292.273438 343.855469 C 292.628906 344.097656 292.960938 344.367188 293.261719 344.667969 C 293.566406 344.972656 293.835938 345.304688 294.074219 345.660156 C 294.3125 346.015625 294.515625 346.390625 294.679688 346.789062 C 294.84375 347.183594 294.96875 347.589844 295.054688 348.011719 C 295.136719 348.433594 295.179688 348.855469 295.183594 349.285156 Z M 441.640625 578.8125 L 324.003906 578.8125 L 324.003906 565.742188 L 441.640625 565.742188 Z M 249.695312 537.835938 L 282.113281 537.835938 L 282.113281 570.316406 L 249.695312 570.316406 Z M 249.695312 446.859375 L 282.113281 446.859375 L 282.113281 479.277344 L 249.695312 479.277344 Z M 249.695312 355.820312 L 282.113281 355.820312 L 282.113281 388.238281 L 249.695312 388.238281 Z M 436.871094 306.347656 L 249.695312 306.347656 L 249.695312 273.867188 L 436.871094 273.867188 Z M 436.871094 306.347656 "/></g></g></svg>