<svg width="20" height="18" viewBox="0 0 20 18" fill="none" xmlns="http://www.w3.org/2000/svg">
<path
        d="M15 16.6602C15 15.0033 12.7614 13.6602 10 13.6602C7.23858 13.6602 5 15.0033 5 16.6602M19 13.6605C19 12.4303 17.7659 11.3731 16 10.9102M1 13.6605C1 12.4303 2.2341 11.3731 4 10.9102M16 6.89626C16.6137 6.34694 17 5.54866 17 4.66016C17 3.0033 15.6569 1.66016 14 1.66016C13.2316 1.66016 12.5308 1.94901 12 2.42405M4 6.89626C3.38625 6.34694 3 5.54866 3 4.66016C3 3.0033 4.34315 1.66016 6 1.66016C6.76835 1.66016 7.46924 1.94901 8 2.42405M10 10.6602C8.34315 10.6602 7 9.31701 7 7.66016C7 6.0033 8.34315 4.66016 10 4.66016C11.6569 4.66016 13 6.0033 13 7.66016C13 9.31701 11.6569 10.6602 10 10.6602Z"
        stroke="var(--svg-new-col)" stroke-width="1.6" stroke-linecap="round"
        stroke-linejoin="round" />
</svg>
