<svg xmlns="http://www.w3.org/2000/svg" xmlns:xlink="http://www.w3.org/1999/xlink" width="1080" zoomAndPan="magnify" viewBox="0 0 810 809.999993" height="1080" preserveAspectRatio="xMidYMid meet" version="1.2"><defs><clipPath id="666e0a54ff"><path d="M 321 193.726562 L 336 193.726562 L 336 228 L 321 228 Z M 321 193.726562 "/></clipPath><clipPath id="bf17b08f7d"><path d="M 321 193.726562 L 336 193.726562 L 336 228 L 321 228 Z M 321 193.726562 "/></clipPath><clipPath id="f146421c1b"><path d="M 286 595 L 370 595 L 370 615.976562 L 286 615.976562 Z M 286 595 "/></clipPath><clipPath id="8a7c84f5c1"><path d="M 386 274 L 615.976562 274 L 615.976562 582 L 386 582 Z M 386 274 "/></clipPath></defs><g id="a7777bcfad"><g clip-rule="nonzero" clip-path="url(#666e0a54ff)"><path style=" stroke:none;fill-rule:nonzero;fill:black;fill-opacity:1;" d="M 328.574219 227.78125 C 332.660156 227.78125 335.386719 225.054688 335.386719 220.96875 L 335.386719 200.539062 C 335.386719 196.453125 332.660156 193.726562 328.574219 193.726562 C 324.488281 193.726562 321.765625 196.453125 321.765625 200.539062 L 321.765625 220.96875 C 321.765625 225.054688 324.488281 227.78125 328.574219 227.78125 Z M 328.574219 227.78125 "/></g><path style=" stroke:none;fill-rule:nonzero;fill:black;fill-opacity:1;" d="M 261.152344 235.953125 C 262.515625 239.359375 266.601562 241.402344 270.003906 239.359375 C 273.410156 237.996094 275.453125 233.910156 273.410156 230.503906 L 265.917969 211.433594 C 264.558594 208.03125 260.46875 205.988281 257.066406 208.03125 C 253.660156 209.390625 251.617188 213.476562 253.660156 216.882812 Z M 261.152344 235.953125 "/><path style=" stroke:none;fill-rule:nonzero;fill:black;fill-opacity:1;" d="M 220.96875 272.046875 C 223.695312 269.324219 223.695312 265.238281 220.96875 262.515625 L 206.667969 248.210938 C 203.945312 245.488281 199.855469 245.488281 197.132812 248.210938 C 194.410156 250.9375 194.410156 255.023438 197.132812 257.746094 L 211.433594 272.046875 C 214.160156 274.773438 218.246094 274.773438 220.96875 272.046875 Z M 220.96875 272.046875 "/><path style=" stroke:none;fill-rule:nonzero;fill:black;fill-opacity:1;" d="M 386.464844 239.359375 C 389.871094 240.71875 393.957031 239.359375 395.316406 235.953125 L 402.808594 216.882812 C 404.171875 213.476562 402.808594 209.390625 399.40625 208.03125 C 396 206.667969 391.914062 208.03125 390.550781 211.433594 L 383.058594 230.503906 C 381.015625 233.910156 383.058594 237.996094 386.464844 239.359375 Z M 386.464844 239.359375 "/><path style=" stroke:none;fill-rule:nonzero;fill:black;fill-opacity:1;" d="M 211.433594 272.046875 L 197.132812 257.746094 C 194.410156 255.023438 194.410156 250.9375 197.132812 248.210938 C 199.855469 245.488281 203.945312 245.488281 206.667969 248.210938 L 220.96875 262.515625 C 223.695312 265.238281 223.695312 269.324219 220.96875 272.046875 C 218.246094 274.773438 214.160156 274.773438 211.433594 272.046875 Z M 211.433594 272.046875 "/><g clip-rule="nonzero" clip-path="url(#bf17b08f7d)"><path style=" stroke:none;fill-rule:nonzero;fill:black;fill-opacity:1;" d="M 321.765625 220.96875 L 321.765625 200.539062 C 321.765625 196.453125 325.171875 193.726562 328.574219 193.726562 C 331.980469 193.726562 335.386719 196.453125 335.386719 200.539062 L 335.386719 220.96875 C 335.386719 224.375 331.980469 227.78125 328.574219 227.78125 C 325.171875 227.78125 321.765625 225.054688 321.765625 220.96875 Z M 321.765625 220.96875 "/></g><path style=" stroke:none;fill-rule:nonzero;fill:black;fill-opacity:1;" d="M 253.660156 216.882812 C 252.296875 213.476562 253.660156 209.390625 257.066406 208.03125 C 260.46875 206.667969 264.558594 208.03125 265.917969 211.433594 L 273.410156 230.503906 C 274.773438 233.910156 273.410156 237.996094 270.003906 239.359375 C 266.601562 240.71875 262.515625 239.359375 261.152344 235.953125 Z M 253.660156 216.882812 "/><path style=" stroke:none;fill-rule:nonzero;fill:black;fill-opacity:1;" d="M 382.378906 230.503906 L 389.871094 211.433594 C 391.230469 208.03125 395.316406 205.988281 398.722656 208.03125 C 402.128906 209.390625 404.171875 213.476562 402.128906 216.882812 L 393.957031 235.953125 C 392.59375 239.359375 388.507812 240.71875 385.101562 239.359375 C 383.058594 237.996094 381.015625 233.910156 382.378906 230.503906 Z M 382.378906 230.503906 "/><path style=" stroke:none;fill-rule:nonzero;fill:black;fill-opacity:1;" d="M 328.574219 407.578125 L 342.878906 423.921875 L 342.195312 513.820312 L 314.273438 513.820312 L 313.59375 423.921875 Z M 328.574219 407.578125 "/><g clip-rule="nonzero" clip-path="url(#f146421c1b)"><path style=" stroke:none;fill-rule:nonzero;fill:black;fill-opacity:1;" d="M 286.351562 595.546875 L 369.4375 595.546875 L 369.4375 609.167969 C 369.4375 612.574219 366.714844 615.976562 362.628906 615.976562 L 293.160156 615.976562 C 289.753906 615.976562 286.351562 612.574219 286.351562 609.167969 Z M 286.351562 595.546875 "/></g><path style=" stroke:none;fill-rule:nonzero;fill:black;fill-opacity:1;" d="M 386.464844 571.710938 C 386.464844 577.15625 381.695312 581.925781 376.25 581.925781 L 280.902344 581.925781 C 275.453125 581.925781 270.6875 577.15625 270.6875 571.710938 C 270.6875 566.261719 275.453125 561.492188 280.902344 561.492188 L 376.25 561.492188 C 381.699219 561.492188 386.464844 566.261719 386.464844 571.710938 Z M 386.464844 571.710938 "/><path style=" stroke:none;fill-rule:nonzero;fill:black;fill-opacity:1;" d="M 386.464844 537.65625 C 386.464844 543.105469 381.695312 547.871094 376.25 547.871094 L 280.902344 547.871094 C 275.453125 547.871094 270.6875 543.105469 270.6875 537.65625 C 270.6875 532.207031 275.453125 527.441406 280.902344 527.441406 L 376.25 527.441406 C 381.699219 527.441406 386.464844 532.207031 386.464844 537.65625 Z M 386.464844 537.65625 "/><path style=" stroke:none;fill-rule:nonzero;fill:black;fill-opacity:1;" d="M 282.945312 513.820312 C 279.539062 494.75 269.324219 477.042969 253.660156 463.421875 C 223.695312 438.222656 208.710938 400.765625 212.117188 361.265625 C 217.566406 307.464844 260.46875 263.875 314.953125 257.746094 C 349.007812 254.339844 381.015625 264.558594 406.214844 287.03125 C 430.734375 309.507812 445.035156 340.835938 445.035156 374.207031 C 445.035156 445.035156 397.363281 457.292969 380.335938 492.027344 C 376.929688 498.835938 374.886719 506.328125 373.523438 513.820312 L 355.816406 513.820312 L 356.5 423.921875 L 377.609375 402.128906 C 380.335938 399.40625 380.335938 395.316406 377.609375 392.59375 C 374.886719 389.871094 370.800781 389.871094 368.078125 392.59375 L 349.6875 411.664062 L 333.34375 393.273438 C 331.980469 391.914062 329.9375 391.230469 327.894531 391.230469 C 325.851562 391.230469 323.808594 391.914062 322.445312 393.273438 L 306.78125 411.664062 L 289.074219 392.59375 C 286.351562 389.871094 282.265625 389.871094 279.539062 392.59375 C 276.816406 395.316406 276.816406 399.40625 279.539062 402.128906 L 300.652344 423.921875 L 300.652344 513.820312 Z M 282.945312 513.820312 "/><path style=" stroke:none;fill-rule:nonzero;fill:black;fill-opacity:1;" d="M 540.382812 507.011719 L 605.082031 507.011719 L 540.382812 572.390625 Z M 540.382812 507.011719 "/><g clip-rule="nonzero" clip-path="url(#8a7c84f5c1)"><path style=" stroke:none;fill-rule:nonzero;fill:black;fill-opacity:1;" d="M 607.804688 274.089844 L 411.664062 274.089844 C 442.3125 299.289062 458.65625 336.746094 458.65625 374.207031 C 458.65625 451.164062 408.257812 466.828125 392.59375 498.15625 C 389.871094 504.285156 387.828125 510.414062 386.464844 516.542969 C 393.957031 520.632812 399.40625 528.121094 399.40625 537.65625 C 399.40625 544.46875 396.679688 550.597656 391.914062 554.683594 C 396 558.769531 399.40625 564.898438 399.40625 571.710938 C 399.40625 575.113281 398.722656 578.519531 397.363281 581.925781 L 526.761719 581.925781 L 526.761719 500.199219 C 526.761719 496.113281 530.164062 493.390625 533.570312 493.390625 L 615.296875 493.390625 L 615.296875 280.902344 C 614.617188 277.496094 611.890625 274.089844 607.804688 274.089844 Z M 499.519531 530.164062 L 449.800781 530.164062 C 446.398438 530.164062 442.992188 526.761719 442.992188 523.355469 C 442.992188 519.269531 446.398438 516.542969 449.800781 516.542969 L 499.519531 516.542969 C 502.925781 516.542969 506.328125 519.269531 506.328125 523.355469 C 506.328125 527.441406 502.925781 530.164062 499.519531 530.164062 Z M 590.777344 466.828125 L 490.664062 466.828125 C 487.257812 466.828125 483.855469 464.105469 483.855469 460.019531 C 483.855469 456.613281 487.257812 453.207031 490.664062 453.207031 L 590.777344 453.207031 C 594.183594 453.207031 597.589844 456.613281 597.589844 460.019531 C 597.589844 463.421875 594.183594 466.828125 590.777344 466.828125 Z M 590.777344 402.808594 L 490.664062 402.808594 C 487.257812 402.808594 483.855469 399.40625 483.855469 396 C 483.855469 391.914062 487.257812 389.1875 490.664062 389.1875 L 590.777344 389.1875 C 594.183594 389.1875 597.589844 391.914062 597.589844 396 C 597.589844 400.085938 594.183594 402.808594 590.777344 402.808594 Z M 590.777344 339.472656 L 490.664062 339.472656 C 487.257812 339.472656 483.855469 336.066406 483.855469 332.660156 C 483.855469 328.574219 487.257812 325.851562 490.664062 325.851562 L 590.777344 325.851562 C 594.183594 325.851562 597.589844 328.574219 597.589844 332.660156 C 597.589844 336.746094 594.183594 339.472656 590.777344 339.472656 Z M 590.777344 339.472656 "/></g></g></svg>