<svg xmlns="http://www.w3.org/2000/svg" xmlns:xlink="http://www.w3.org/1999/xlink" width="1080" zoomAndPan="magnify" viewBox="0 0 810 809.999993" height="1080" preserveAspectRatio="xMidYMid meet" version="1.2"><defs><clipPath id="d7a1a7d6f3"><path d="M 288 514 L 521 514 L 521 679.375 L 288 679.375 Z M 288 514 "/></clipPath></defs><g id="9a5a4516e4"><path style=" stroke:none;fill-rule:nonzero;fill:black;fill-opacity:1;" d="M 213.238281 455.183594 C 255.0625 455.183594 288.925781 421.257812 288.925781 379.496094 C 288.925781 337.667969 255.0625 303.804688 213.238281 303.804688 C 171.476562 303.804688 137.546875 337.734375 137.546875 379.496094 C 137.546875 421.320312 171.410156 455.183594 213.238281 455.183594 Z M 213.238281 455.183594 "/><path style=" stroke:none;fill-rule:nonzero;fill:black;fill-opacity:1;" d="M 297.667969 498.890625 C 282.96875 484.386719 263.15625 475.839844 241.402344 475.839844 L 185.136719 475.839844 C 144.539062 475.839844 110.160156 506.140625 105.238281 546.800781 L 97.40625 612.195312 C 96.433594 620.613281 101.808594 628.578125 110.160156 630.519531 C 142.792969 637.578125 177.304688 641.007812 213.171875 641.007812 C 224.246094 641.007812 235.316406 640.8125 246 639.84375 L 253.445312 579.5625 C 257.394531 546.929688 273.777344 518.507812 297.667969 498.890625 Z M 297.667969 498.890625 "/><path style=" stroke:none;fill-rule:nonzero;fill:black;fill-opacity:1;" d="M 520.785156 379.496094 C 520.785156 421.257812 554.648438 455.183594 596.476562 455.183594 C 638.300781 455.183594 672.164062 421.257812 672.164062 379.496094 C 672.164062 337.667969 638.300781 303.804688 596.476562 303.804688 C 554.648438 303.804688 520.785156 337.667969 520.785156 379.496094 Z M 520.785156 379.496094 "/><path style=" stroke:none;fill-rule:nonzero;fill:black;fill-opacity:1;" d="M 704.472656 546.738281 C 699.679688 506.140625 665.171875 475.773438 624.769531 475.773438 L 568.308594 475.773438 C 546.554688 475.773438 526.742188 484.386719 512.238281 498.824219 C 536.066406 518.441406 552.511719 546.867188 556.265625 579.5 L 563.714844 639.777344 C 574.394531 640.75 585.46875 640.945312 596.539062 640.945312 C 632.410156 640.945312 666.917969 637.511719 699.550781 630.453125 C 707.96875 628.578125 713.277344 620.546875 712.308594 612.132812 Z M 704.472656 546.738281 "/><g clip-rule="nonzero" clip-path="url(#d7a1a7d6f3)"><path style=" stroke:none;fill-rule:nonzero;fill:black;fill-opacity:1;" d="M 432.925781 514.039062 L 376.722656 514.039062 C 336.0625 514.039062 301.8125 544.472656 296.890625 584.871094 L 288.992188 650.332031 C 287.957031 658.8125 293.460938 666.84375 301.8125 668.65625 C 334.3125 675.582031 368.890625 679.273438 404.824219 679.273438 C 440.757812 679.273438 475.332031 675.582031 507.773438 668.65625 C 516.125 666.84375 521.628906 658.8125 520.589844 650.332031 L 512.691406 584.871094 C 507.964844 544.40625 473.648438 514.039062 432.925781 514.039062 Z M 432.925781 514.039062 "/></g><path style=" stroke:none;fill-rule:nonzero;fill:black;fill-opacity:1;" d="M 329.199219 417.695312 C 329.199219 459.523438 363.0625 493.386719 404.886719 493.386719 C 446.714844 493.386719 480.578125 459.457031 480.578125 417.695312 C 480.578125 375.933594 446.648438 342.007812 404.886719 342.007812 C 363.0625 342.007812 329.199219 375.871094 329.199219 417.695312 Z M 329.199219 417.695312 "/><path style=" stroke:none;fill-rule:nonzero;fill:black;fill-opacity:1;" d="M 501.621094 278.101562 L 501.621094 229.605469 L 429.105469 251.167969 C 420.945312 253.5625 412.59375 254.792969 404.046875 254.792969 C 395.628906 254.792969 387.148438 253.5625 378.988281 251.167969 L 308.609375 230.253906 L 308.609375 278.101562 C 308.609375 286.90625 314.308594 294.484375 322.59375 297.007812 L 353.351562 306.074219 C 387.082031 316.042969 423.082031 316.042969 456.75 306.074219 L 487.375 297.007812 C 495.921875 294.484375 501.621094 286.90625 501.621094 278.101562 Z M 501.621094 278.101562 "/><path style=" stroke:none;fill-rule:nonzero;fill:black;fill-opacity:1;" d="M 261.601562 188.039062 L 385.140625 224.75 C 397.507812 228.441406 410.652344 228.441406 423.019531 224.75 L 528.878906 193.28125 L 528.878906 221.1875 C 526.742188 222.417969 525.253906 224.621094 525.253906 227.210938 L 525.253906 234.914062 C 525.253906 237.699219 526.9375 240.09375 529.332031 241.195312 L 522.664062 256.671875 C 521.757812 258.675781 523.117188 261.007812 525.316406 261.265625 L 532.050781 262.042969 C 533.410156 262.175781 534.835938 262.175781 536.195312 262.042969 L 542.929688 261.265625 C 545.128906 261.007812 546.492188 258.675781 545.582031 256.671875 L 538.914062 241.195312 C 541.308594 240.09375 542.992188 237.699219 542.992188 234.914062 L 542.992188 227.210938 C 542.992188 224.621094 541.503906 222.417969 539.367188 221.1875 L 539.367188 190.109375 L 546.425781 188.039062 C 554.972656 185.511719 554.972656 173.40625 546.425781 170.878906 L 423.082031 134.167969 C 410.714844 130.480469 397.570312 130.480469 385.207031 134.167969 L 261.667969 170.878906 C 253.058594 173.40625 253.058594 185.511719 261.601562 188.039062 Z M 261.601562 188.039062 "/></g></svg>