<svg xmlns="http://www.w3.org/2000/svg" xmlns:xlink="http://www.w3.org/1999/xlink" width="1080" zoomAndPan="magnify" viewBox="0 0 810 809.999993" height="1080" preserveAspectRatio="xMidYMid meet" version="1.2"><defs><clipPath id="fec8ffd17e"><path d="M 194 240 L 615 240 L 615 570.707031 L 194 570.707031 Z M 194 240 "/></clipPath></defs><g id="1c0b009eec"><g clip-rule="nonzero" clip-path="url(#fec8ffd17e)"><path style=" stroke:none;fill-rule:nonzero;fill:black;fill-opacity:1;" d="M 567.195312 263.332031 C 566.882812 262.453125 566.421875 261.664062 565.804688 260.960938 C 565.1875 260.261719 564.460938 259.699219 563.628906 259.277344 C 562.796875 258.882812 561.917969 258.660156 561 258.613281 C 560.078125 258.5625 559.183594 258.691406 558.3125 258.996094 C 557.613281 259.234375 556.898438 259.4375 556.179688 259.605469 C 555.457031 259.769531 554.726562 259.902344 553.992188 260 C 553.257812 260.09375 552.519531 260.152344 551.78125 260.175781 C 551.039062 260.203125 550.296875 260.1875 549.558594 260.140625 C 548.820312 260.089844 548.085938 260.007812 547.351562 259.886719 C 546.621094 259.765625 545.898438 259.609375 545.183594 259.417969 C 544.46875 259.226562 543.761719 259 543.066406 258.738281 C 542.375 258.480469 541.695312 258.1875 541.03125 257.859375 C 540.363281 257.53125 539.71875 257.175781 539.085938 256.785156 C 538.457031 256.394531 537.847656 255.972656 537.257812 255.523438 C 536.671875 255.074219 536.105469 254.597656 535.5625 254.089844 C 535.019531 253.585938 534.503906 253.054688 534.015625 252.5 C 533.523438 251.945312 533.0625 251.367188 532.628906 250.765625 C 532.195312 250.164062 531.789062 249.542969 531.417969 248.902344 C 531.042969 248.261719 530.703125 247.605469 530.394531 246.933594 C 530.085938 246.257812 529.8125 245.570312 529.570312 244.871094 C 529.417969 244.4375 529.222656 244.027344 528.988281 243.632812 C 528.757812 243.238281 528.488281 242.871094 528.183594 242.53125 C 527.878906 242.191406 527.542969 241.882812 527.179688 241.605469 C 526.8125 241.328125 526.425781 241.089844 526.015625 240.890625 C 525.601562 240.691406 525.175781 240.53125 524.734375 240.414062 C 524.292969 240.292969 523.84375 240.21875 523.386719 240.191406 C 522.929688 240.160156 522.472656 240.171875 522.019531 240.230469 C 521.566406 240.289062 521.121094 240.390625 520.6875 240.535156 L 443.828125 266.832031 C 443.757812 266.902344 443.757812 266.902344 443.6875 266.902344 L 272.34375 325.507812 C 271.910156 325.65625 271.492188 325.847656 271.097656 326.078125 C 270.703125 326.308594 270.332031 326.578125 269.988281 326.882812 C 269.644531 327.183594 269.332031 327.519531 269.054688 327.886719 C 268.777344 328.25 268.539062 328.640625 268.335938 329.050781 C 268.136719 329.464844 267.976562 329.890625 267.859375 330.335938 C 267.742188 330.777344 267.667969 331.230469 267.640625 331.6875 C 267.613281 332.144531 267.628906 332.601562 267.691406 333.054688 C 267.753906 333.511719 267.859375 333.957031 268.007812 334.390625 C 268.527344 335.945312 268.875 337.542969 269.046875 339.175781 C 269.21875 340.808594 269.210938 342.441406 269.023438 344.070312 C 268.835938 345.703125 268.472656 347.296875 267.9375 348.847656 C 267.398438 350.398438 266.699219 351.875 265.839844 353.273438 L 231.359375 353.273438 C 230.902344 353.273438 230.445312 353.316406 229.996094 353.40625 C 229.546875 353.496094 229.109375 353.628906 228.683594 353.804688 C 228.257812 353.980469 227.855469 354.195312 227.472656 354.449219 C 227.09375 354.707031 226.738281 354.996094 226.414062 355.320312 C 226.089844 355.644531 225.800781 356 225.546875 356.378906 C 225.289062 356.761719 225.074219 357.164062 224.898438 357.589844 C 224.722656 358.015625 224.589844 358.453125 224.5 358.902344 C 224.410156 359.351562 224.367188 359.808594 224.367188 360.265625 C 224.367188 361.007812 224.328125 361.746094 224.253906 362.480469 C 224.183594 363.21875 224.074219 363.949219 223.929688 364.675781 C 223.78125 365.402344 223.601562 366.121094 223.386719 366.828125 C 223.171875 367.535156 222.925781 368.234375 222.640625 368.917969 C 222.359375 369.601562 222.042969 370.269531 221.691406 370.921875 C 221.34375 371.574219 220.964844 372.210938 220.554688 372.828125 C 220.144531 373.441406 219.703125 374.035156 219.234375 374.609375 C 218.765625 375.183594 218.269531 375.730469 217.746094 376.257812 C 217.222656 376.78125 216.675781 377.277344 216.105469 377.75 C 215.535156 378.21875 214.941406 378.660156 214.324219 379.074219 C 213.710938 379.488281 213.078125 379.867188 212.425781 380.21875 C 211.773438 380.570312 211.105469 380.886719 210.421875 381.171875 C 209.738281 381.457031 209.042969 381.710938 208.335938 381.925781 C 207.628906 382.144531 206.910156 382.328125 206.183594 382.472656 C 205.460938 382.621094 204.730469 382.730469 203.992188 382.808594 C 203.253906 382.882812 202.515625 382.921875 201.777344 382.925781 C 201.316406 382.925781 200.863281 382.96875 200.414062 383.058594 C 199.960938 383.148438 199.523438 383.28125 199.101562 383.457031 C 198.675781 383.632812 198.273438 383.847656 197.890625 384.105469 C 197.507812 384.359375 197.15625 384.648438 196.832031 384.972656 C 196.507812 385.296875 196.21875 385.652344 195.960938 386.035156 C 195.707031 386.414062 195.492188 386.820312 195.316406 387.242188 C 195.140625 387.667969 195.007812 388.105469 194.917969 388.554688 C 194.828125 389.003906 194.78125 389.460938 194.78125 389.917969 L 194.78125 534.476562 C 194.78125 534.9375 194.828125 535.390625 194.917969 535.84375 C 195.007812 536.292969 195.140625 536.730469 195.316406 537.15625 C 195.492188 537.578125 195.707031 537.980469 195.960938 538.363281 C 196.21875 538.746094 196.507812 539.097656 196.832031 539.421875 C 197.15625 539.75 197.507812 540.039062 197.890625 540.292969 C 198.273438 540.546875 198.675781 540.765625 199.101562 540.941406 C 199.523438 541.117188 199.960938 541.246094 200.414062 541.335938 C 200.863281 541.425781 201.316406 541.472656 201.777344 541.472656 C 202.515625 541.476562 203.253906 541.515625 203.992188 541.589844 C 204.730469 541.664062 205.460938 541.777344 206.183594 541.925781 C 206.910156 542.070312 207.628906 542.253906 208.335938 542.46875 C 209.042969 542.6875 209.738281 542.9375 210.421875 543.222656 C 211.105469 543.507812 211.773438 543.828125 212.425781 544.179688 C 213.078125 544.527344 213.710938 544.910156 214.324219 545.324219 C 214.941406 545.734375 215.535156 546.179688 216.105469 546.648438 C 216.675781 547.121094 217.222656 547.617188 217.746094 548.140625 C 218.269531 548.664062 218.765625 549.214844 219.234375 549.789062 C 219.703125 550.359375 220.144531 550.953125 220.554688 551.570312 C 220.964844 552.1875 221.34375 552.820312 221.691406 553.472656 C 222.042969 554.128906 222.359375 554.796875 222.640625 555.480469 C 222.925781 556.164062 223.171875 556.859375 223.386719 557.570312 C 223.601562 558.277344 223.78125 558.996094 223.929688 559.722656 C 224.074219 560.449219 224.183594 561.179688 224.253906 561.914062 C 224.328125 562.652344 224.367188 563.390625 224.367188 564.132812 C 224.367188 564.589844 224.410156 565.046875 224.5 565.496094 C 224.589844 565.945312 224.722656 566.382812 224.898438 566.808594 C 225.074219 567.230469 225.289062 567.636719 225.542969 568.015625 C 225.800781 568.398438 226.089844 568.753906 226.414062 569.078125 C 226.738281 569.402344 227.09375 569.691406 227.472656 569.945312 C 227.855469 570.203125 228.257812 570.417969 228.683594 570.59375 C 229.109375 570.769531 229.546875 570.902344 229.996094 570.992188 C 230.445312 571.082031 230.902344 571.125 231.359375 571.125 L 493.832031 571.125 C 494.292969 571.125 494.746094 571.082031 495.195312 570.992188 C 495.648438 570.902344 496.085938 570.769531 496.507812 570.59375 C 496.933594 570.417969 497.335938 570.203125 497.71875 569.945312 C 498.101562 569.691406 498.453125 569.402344 498.777344 569.078125 C 499.101562 568.753906 499.390625 568.398438 499.648438 568.015625 C 499.902344 567.636719 500.117188 567.230469 500.292969 566.808594 C 500.46875 566.382812 500.601562 565.945312 500.691406 565.496094 C 500.78125 565.046875 500.824219 564.589844 500.824219 564.132812 C 500.828125 563.390625 500.863281 562.648438 500.9375 561.910156 C 501.011719 561.171875 501.121094 560.441406 501.269531 559.714844 C 501.414062 558.988281 501.59375 558.269531 501.8125 557.558594 C 502.027344 556.847656 502.277344 556.152344 502.5625 555.464844 C 502.847656 554.78125 503.164062 554.113281 503.515625 553.457031 C 503.863281 552.804688 504.246094 552.167969 504.65625 551.550781 C 505.070312 550.9375 505.511719 550.339844 505.980469 549.769531 C 506.453125 549.195312 506.949219 548.644531 507.476562 548.121094 C 508 547.597656 508.546875 547.097656 509.121094 546.628906 C 509.695312 546.15625 510.289062 545.714844 510.90625 545.304688 C 511.523438 544.890625 512.160156 544.511719 512.8125 544.160156 C 513.464844 543.808594 514.136719 543.492188 514.820312 543.207031 C 515.503906 542.921875 516.203125 542.671875 516.914062 542.457031 C 517.621094 542.242188 518.339844 542.058594 519.066406 541.914062 C 519.796875 541.769531 520.527344 541.660156 521.265625 541.585938 C 522.003906 541.511719 522.742188 541.472656 523.484375 541.472656 C 523.945312 541.472656 524.398438 541.425781 524.851562 541.335938 C 525.300781 541.246094 525.738281 541.117188 526.160156 540.941406 C 526.585938 540.765625 526.988281 540.546875 527.371094 540.292969 C 527.753906 540.039062 528.105469 539.75 528.429688 539.421875 C 528.753906 539.097656 529.046875 538.746094 529.300781 538.363281 C 529.554688 537.980469 529.769531 537.578125 529.945312 537.15625 C 530.121094 536.730469 530.253906 536.292969 530.34375 535.84375 C 530.433594 535.390625 530.480469 534.9375 530.480469 534.476562 L 530.480469 467.410156 L 591.253906 446.636719 C 592.132812 446.324219 592.925781 445.863281 593.625 445.246094 C 594.328125 444.628906 594.890625 443.902344 595.3125 443.070312 C 595.707031 442.238281 595.925781 441.363281 595.976562 440.441406 C 596.023438 439.519531 595.894531 438.625 595.589844 437.757812 C 595.355469 437.054688 595.152344 436.347656 594.984375 435.625 C 594.816406 434.90625 594.6875 434.179688 594.589844 433.449219 C 594.496094 432.714844 594.433594 431.980469 594.410156 431.242188 C 594.386719 430.503906 594.398438 429.765625 594.445312 429.027344 C 594.492188 428.292969 594.578125 427.558594 594.695312 426.828125 C 594.816406 426.101562 594.972656 425.378906 595.160156 424.664062 C 595.351562 423.949219 595.578125 423.246094 595.835938 422.554688 C 596.09375 421.863281 596.386719 421.1875 596.710938 420.523438 C 597.039062 419.859375 597.394531 419.214844 597.78125 418.585938 C 598.171875 417.957031 598.589844 417.347656 599.035156 416.761719 C 599.484375 416.171875 599.960938 415.609375 600.460938 415.066406 C 600.964844 414.527344 601.492188 414.011719 602.046875 413.523438 C 602.601562 413.03125 603.175781 412.570312 603.773438 412.136719 C 604.375 411.707031 604.992188 411.300781 605.628906 410.929688 C 606.269531 410.558594 606.921875 410.214844 607.59375 409.90625 C 608.265625 409.597656 608.949219 409.324219 609.648438 409.082031 C 610.082031 408.933594 610.5 408.742188 610.898438 408.511719 C 611.292969 408.28125 611.667969 408.015625 612.011719 407.714844 C 612.359375 407.410156 612.671875 407.078125 612.953125 406.710938 C 613.230469 406.347656 613.472656 405.960938 613.679688 405.546875 C 613.882812 405.136719 614.046875 404.707031 614.164062 404.265625 C 614.285156 403.820312 614.363281 403.371094 614.394531 402.910156 C 614.425781 402.453125 614.414062 401.996094 614.355469 401.539062 C 614.300781 401.082031 614.199219 400.636719 614.054688 400.199219 Z M 282.832031 336.699219 L 442.078125 282.214844 L 466.417969 353.273438 L 281.363281 353.273438 C 283.167969 347.863281 283.65625 342.339844 282.832031 336.699219 Z M 405.992188 557.136719 L 237.652344 557.136719 C 237.308594 555.359375 236.835938 553.617188 236.234375 551.90625 C 235.632812 550.199219 234.90625 548.542969 234.058594 546.945312 C 233.207031 545.34375 232.246094 543.8125 231.171875 542.355469 C 230.09375 540.898438 228.917969 539.53125 227.636719 538.246094 C 226.359375 536.964844 224.992188 535.785156 223.535156 534.703125 C 222.082031 533.625 220.554688 532.660156 218.957031 531.804688 C 217.355469 530.953125 215.703125 530.222656 213.996094 529.617188 C 212.289062 529.007812 210.546875 528.53125 208.769531 528.183594 L 208.769531 396.214844 C 210.546875 395.863281 212.289062 395.382812 213.992188 394.773438 C 215.699219 394.164062 217.351562 393.433594 218.949219 392.578125 C 220.542969 391.726562 222.070312 390.757812 223.523438 389.679688 C 224.976562 388.601562 226.34375 387.417969 227.625 386.136719 C 228.902344 384.855469 230.082031 383.484375 231.15625 382.03125 C 232.234375 380.574219 233.195312 379.046875 234.046875 377.445312 C 234.894531 375.847656 235.621094 374.195312 236.226562 372.488281 C 236.832031 370.78125 237.308594 369.039062 237.652344 367.257812 L 405.992188 367.257812 Z M 516.492188 528.183594 C 514.710938 528.527344 512.964844 529.003906 511.253906 529.609375 C 509.542969 530.210938 507.886719 530.941406 506.285156 531.792969 C 504.683594 532.640625 503.152344 533.609375 501.695312 534.6875 C 500.234375 535.765625 498.867188 536.945312 497.582031 538.230469 C 496.300781 539.511719 495.117188 540.882812 494.039062 542.339844 C 492.960938 543.800781 491.996094 545.328125 491.144531 546.929688 C 490.292969 548.535156 489.566406 550.191406 488.960938 551.902344 C 488.359375 553.609375 487.882812 555.355469 487.539062 557.136719 L 419.980469 557.136719 L 419.980469 367.257812 L 487.539062 367.257812 C 487.882812 369.039062 488.359375 370.785156 488.960938 372.496094 C 489.566406 374.207031 490.292969 375.863281 491.144531 377.464844 C 491.996094 379.066406 492.960938 380.597656 494.039062 382.058594 C 495.117188 383.515625 496.300781 384.886719 497.582031 386.167969 C 498.867188 387.453125 500.234375 388.632812 501.695312 389.710938 C 503.152344 390.789062 504.683594 391.753906 506.285156 392.605469 C 507.886719 393.457031 509.542969 394.183594 511.253906 394.789062 C 512.964844 395.394531 514.710938 395.867188 516.492188 396.214844 Z M 584.121094 414.328125 C 582.515625 417.597656 581.425781 421.035156 580.855469 424.636719 C 580.28125 428.234375 580.253906 431.839844 580.765625 435.449219 L 530.480469 452.652344 L 530.480469 389.917969 C 530.480469 389.460938 530.433594 389.003906 530.34375 388.554688 C 530.253906 388.105469 530.121094 387.667969 529.945312 387.242188 C 529.769531 386.820312 529.554688 386.414062 529.300781 386.035156 C 529.046875 385.652344 528.753906 385.296875 528.429688 384.972656 C 528.105469 384.648438 527.753906 384.359375 527.371094 384.105469 C 526.988281 383.847656 526.585938 383.632812 526.160156 383.457031 C 525.738281 383.28125 525.300781 383.148438 524.851562 383.058594 C 524.398438 382.96875 523.945312 382.925781 523.484375 382.925781 C 522.742188 382.925781 522.003906 382.886719 521.265625 382.8125 C 520.527344 382.738281 519.796875 382.628906 519.066406 382.484375 C 518.339844 382.335938 517.621094 382.15625 516.914062 381.941406 C 516.203125 381.722656 515.503906 381.472656 514.820312 381.1875 C 514.136719 380.90625 513.464844 380.585938 512.8125 380.238281 C 512.160156 379.886719 511.523438 379.507812 510.90625 379.09375 C 510.289062 378.679688 509.695312 378.238281 509.121094 377.769531 C 508.546875 377.296875 508 376.800781 507.476562 376.277344 C 506.949219 375.75 506.453125 375.203125 505.980469 374.628906 C 505.511719 374.054688 505.070312 373.460938 504.65625 372.84375 C 504.246094 372.226562 503.863281 371.59375 503.515625 370.9375 C 503.164062 370.285156 502.847656 369.617188 502.5625 368.929688 C 502.277344 368.246094 502.027344 367.546875 501.8125 366.839844 C 501.59375 366.128906 501.414062 365.410156 501.269531 364.683594 C 501.121094 363.957031 501.011719 363.222656 500.9375 362.484375 C 500.863281 361.746094 500.828125 361.007812 500.824219 360.265625 C 500.824219 359.808594 500.78125 359.351562 500.691406 358.902344 C 500.601562 358.453125 500.46875 358.015625 500.292969 357.589844 C 500.117188 357.164062 499.902344 356.761719 499.648438 356.378906 C 499.390625 356 499.101562 355.644531 498.777344 355.320312 C 498.453125 354.996094 498.101562 354.707031 497.71875 354.449219 C 497.335938 354.195312 496.933594 353.980469 496.507812 353.804688 C 496.085938 353.628906 495.648438 353.496094 495.195312 353.40625 C 494.746094 353.316406 494.292969 353.273438 493.832031 353.273438 L 481.242188 353.273438 L 455.367188 277.671875 L 519.21875 255.851562 C 520.128906 257.417969 521.148438 258.910156 522.277344 260.328125 C 523.410156 261.746094 524.636719 263.070312 525.964844 264.304688 C 527.289062 265.542969 528.699219 266.671875 530.195312 267.699219 C 531.6875 268.726562 533.25 269.636719 534.878906 270.433594 C 536.507812 271.230469 538.1875 271.902344 539.914062 272.449219 C 541.640625 272.996094 543.402344 273.414062 545.191406 273.699219 C 546.980469 273.988281 548.78125 274.140625 550.59375 274.164062 C 552.40625 274.183594 554.210938 274.070312 556.007812 273.824219 L 598.738281 398.730469 C 595.574219 400.535156 592.746094 402.769531 590.253906 405.425781 C 587.761719 408.085938 585.71875 411.050781 584.121094 414.328125 Z M 584.121094 414.328125 "/></g><path style=" stroke:none;fill-rule:nonzero;fill:black;fill-opacity:1;" d="M 268.824219 529.933594 C 269.210938 530.179688 269.617188 530.390625 270.046875 530.558594 C 270.472656 530.726562 270.910156 530.851562 271.363281 530.933594 C 271.816406 531.015625 272.269531 531.050781 272.730469 531.042969 C 273.191406 531.035156 273.644531 530.984375 274.09375 530.886719 C 274.539062 530.789062 274.976562 530.648438 275.398438 530.464844 C 275.816406 530.28125 276.21875 530.058594 276.59375 529.796875 C 276.972656 529.535156 277.320312 529.238281 277.640625 528.910156 C 277.957031 528.578125 278.242188 528.21875 278.492188 527.835938 L 360.265625 400.480469 C 360.523438 400.09375 360.742188 399.683594 360.917969 399.253906 C 361.09375 398.828125 361.222656 398.382812 361.3125 397.929688 C 361.398438 397.472656 361.441406 397.011719 361.4375 396.546875 C 361.433594 396.085938 361.386719 395.625 361.289062 395.171875 C 361.195312 394.714844 361.054688 394.277344 360.871094 393.847656 C 360.691406 393.421875 360.46875 393.019531 360.203125 392.636719 C 359.941406 392.253906 359.640625 391.902344 359.308594 391.578125 C 358.976562 391.257812 358.613281 390.96875 358.222656 390.71875 C 357.832031 390.46875 357.421875 390.257812 356.988281 390.089844 C 356.554688 389.921875 356.109375 389.796875 355.652344 389.714844 C 355.195312 389.636719 354.734375 389.601562 354.273438 389.613281 C 353.808594 389.625 353.347656 389.683594 352.898438 389.785156 C 352.445312 389.886719 352.007812 390.035156 351.582031 390.222656 C 351.160156 390.414062 350.757812 390.644531 350.382812 390.914062 C 350.003906 391.183594 349.65625 391.488281 349.339844 391.824219 C 349.023438 392.164062 348.742188 392.53125 348.496094 392.925781 L 266.714844 520.265625 C 266.464844 520.652344 266.257812 521.0625 266.089844 521.488281 C 265.921875 521.917969 265.796875 522.355469 265.714844 522.808594 C 265.632812 523.261719 265.597656 523.714844 265.605469 524.175781 C 265.613281 524.632812 265.667969 525.089844 265.765625 525.539062 C 265.863281 525.984375 266.003906 526.421875 266.1875 526.84375 C 266.371094 527.261719 266.597656 527.664062 266.859375 528.039062 C 267.121094 528.417969 267.417969 528.765625 267.75 529.082031 C 268.078125 529.402344 268.4375 529.683594 268.824219 529.933594 Z M 268.824219 529.933594 "/><path style=" stroke:none;fill-rule:nonzero;fill:black;fill-opacity:1;" d="M 271.363281 446.007812 C 272.273438 446.007812 273.179688 445.964844 274.085938 445.875 C 274.988281 445.785156 275.886719 445.652344 276.78125 445.476562 C 277.671875 445.296875 278.554688 445.078125 279.421875 444.8125 C 280.292969 444.550781 281.148438 444.242188 281.988281 443.894531 C 282.828125 443.546875 283.648438 443.160156 284.453125 442.730469 C 285.253906 442.300781 286.03125 441.835938 286.789062 441.328125 C 287.546875 440.824219 288.273438 440.28125 288.976562 439.707031 C 289.679688 439.128906 290.351562 438.519531 290.996094 437.875 C 291.640625 437.234375 292.25 436.558594 292.828125 435.855469 C 293.402344 435.15625 293.945312 434.425781 294.449219 433.667969 C 294.953125 432.914062 295.421875 432.132812 295.851562 431.332031 C 296.277344 430.53125 296.667969 429.707031 297.015625 428.867188 C 297.363281 428.027344 297.667969 427.171875 297.933594 426.304688 C 298.195312 425.433594 298.417969 424.550781 298.59375 423.660156 C 298.773438 422.769531 298.90625 421.871094 298.996094 420.964844 C 299.085938 420.058594 299.128906 419.152344 299.128906 418.242188 C 299.128906 417.335938 299.085938 416.425781 298.996094 415.523438 C 298.90625 414.617188 298.773438 413.71875 298.59375 412.828125 C 298.417969 411.933594 298.195312 411.054688 297.933594 410.183594 C 297.667969 409.3125 297.363281 408.457031 297.015625 407.617188 C 296.667969 406.777344 296.277344 405.957031 295.851562 405.15625 C 295.421875 404.351562 294.953125 403.574219 294.449219 402.816406 C 293.945312 402.0625 293.402344 401.332031 292.828125 400.628906 C 292.25 399.925781 291.640625 399.253906 290.996094 398.609375 C 290.351562 397.96875 289.679688 397.359375 288.976562 396.78125 C 288.273438 396.203125 287.546875 395.664062 286.789062 395.15625 C 286.03125 394.652344 285.253906 394.1875 284.453125 393.757812 C 283.648438 393.328125 282.828125 392.941406 281.988281 392.59375 C 281.148438 392.246094 280.292969 391.9375 279.421875 391.675781 C 278.554688 391.410156 277.671875 391.191406 276.78125 391.011719 C 275.886719 390.835938 274.988281 390.703125 274.085938 390.613281 C 273.179688 390.523438 272.273438 390.480469 271.363281 390.480469 C 270.453125 390.480469 269.546875 390.523438 268.640625 390.613281 C 267.738281 390.703125 266.839844 390.835938 265.945312 391.011719 C 265.054688 391.191406 264.175781 391.410156 263.304688 391.675781 C 262.433594 391.9375 261.578125 392.242188 260.738281 392.59375 C 259.898438 392.941406 259.078125 393.328125 258.277344 393.757812 C 257.472656 394.1875 256.695312 394.652344 255.9375 395.15625 C 255.183594 395.664062 254.453125 396.203125 253.75 396.78125 C 253.046875 397.359375 252.375 397.96875 251.730469 398.609375 C 251.089844 399.253906 250.476562 399.925781 249.902344 400.628906 C 249.324219 401.332031 248.785156 402.0625 248.277344 402.816406 C 247.773438 403.574219 247.304688 404.351562 246.878906 405.15625 C 246.449219 405.957031 246.058594 406.777344 245.710938 407.617188 C 245.363281 408.457031 245.058594 409.3125 244.792969 410.183594 C 244.53125 411.054688 244.308594 411.933594 244.132812 412.828125 C 243.953125 413.71875 243.820312 414.617188 243.734375 415.523438 C 243.644531 416.425781 243.597656 417.335938 243.597656 418.242188 C 243.597656 419.152344 243.644531 420.058594 243.734375 420.964844 C 243.824219 421.867188 243.957031 422.765625 244.136719 423.660156 C 244.3125 424.550781 244.535156 425.429688 244.800781 426.300781 C 245.0625 427.171875 245.371094 428.027344 245.71875 428.867188 C 246.066406 429.707031 246.453125 430.527344 246.882812 431.328125 C 247.3125 432.128906 247.777344 432.90625 248.285156 433.664062 C 248.789062 434.417969 249.332031 435.148438 249.90625 435.851562 C 250.484375 436.554688 251.09375 437.226562 251.738281 437.871094 C 252.378906 438.511719 253.054688 439.121094 253.753906 439.699219 C 254.457031 440.277344 255.1875 440.816406 255.945312 441.324219 C 256.699219 441.828125 257.476562 442.296875 258.28125 442.722656 C 259.082031 443.152344 259.902344 443.542969 260.742188 443.890625 C 261.582031 444.238281 262.4375 444.542969 263.304688 444.808594 C 264.175781 445.074219 265.058594 445.292969 265.949219 445.472656 C 266.839844 445.648438 267.738281 445.78125 268.644531 445.871094 C 269.546875 445.960938 270.453125 446.007812 271.363281 446.007812 Z M 271.363281 446.007812 "/><path style=" stroke:none;fill-rule:nonzero;fill:black;fill-opacity:1;" d="M 327.871094 502.449219 C 327.871094 503.355469 327.914062 504.261719 328.003906 505.164062 C 328.089844 506.070312 328.222656 506.96875 328.398438 507.859375 C 328.574219 508.75 328.792969 509.628906 329.054688 510.5 C 329.320312 511.367188 329.625 512.222656 329.96875 513.0625 C 330.316406 513.902344 330.703125 514.722656 331.128906 515.523438 C 331.558594 516.324219 332.023438 517.101562 332.527344 517.859375 C 333.03125 518.613281 333.570312 519.34375 334.144531 520.046875 C 334.71875 520.75 335.328125 521.421875 335.96875 522.066406 C 336.609375 522.707031 337.28125 523.320312 337.984375 523.894531 C 338.683594 524.472656 339.414062 525.015625 340.167969 525.519531 C 340.921875 526.023438 341.699219 526.492188 342.5 526.921875 C 343.300781 527.351562 344.121094 527.738281 344.957031 528.089844 C 345.796875 528.4375 346.652344 528.742188 347.519531 529.007812 C 348.386719 529.273438 349.269531 529.496094 350.160156 529.671875 C 351.050781 529.851562 351.945312 529.984375 352.851562 530.074219 C 353.753906 530.164062 354.660156 530.210938 355.566406 530.210938 C 356.476562 530.214844 357.382812 530.167969 358.285156 530.082031 C 359.191406 529.996094 360.085938 529.863281 360.976562 529.6875 C 361.867188 529.511719 362.75 529.289062 363.617188 529.027344 C 364.488281 528.765625 365.34375 528.460938 366.183594 528.113281 C 367.019531 527.769531 367.84375 527.382812 368.644531 526.953125 C 369.445312 526.527344 370.222656 526.0625 370.980469 525.558594 C 371.734375 525.054688 372.464844 524.515625 373.167969 523.941406 C 373.871094 523.363281 374.542969 522.757812 375.1875 522.113281 C 375.828125 521.472656 376.4375 520.800781 377.015625 520.101562 C 377.59375 519.398438 378.132812 518.671875 378.640625 517.917969 C 379.144531 517.164062 379.613281 516.386719 380.042969 515.585938 C 380.46875 514.785156 380.859375 513.964844 381.207031 513.125 C 381.558594 512.289062 381.863281 511.433594 382.128906 510.566406 C 382.394531 509.695312 382.613281 508.816406 382.792969 507.925781 C 382.972656 507.035156 383.105469 506.140625 383.195312 505.234375 C 383.285156 504.332031 383.332031 503.425781 383.332031 502.515625 C 383.332031 501.609375 383.289062 500.703125 383.203125 499.800781 C 383.113281 498.894531 382.980469 497.996094 382.804688 497.105469 C 382.628906 496.214844 382.410156 495.335938 382.148438 494.464844 C 381.886719 493.597656 381.582031 492.742188 381.234375 491.902344 C 380.886719 491.0625 380.5 490.242188 380.074219 489.441406 C 379.648438 488.640625 379.183594 487.859375 378.679688 487.105469 C 378.175781 486.351562 377.636719 485.621094 377.058594 484.917969 C 376.484375 484.214844 375.875 483.542969 375.234375 482.898438 C 374.59375 482.257812 373.921875 481.644531 373.222656 481.070312 C 372.519531 480.492188 371.792969 479.949219 371.039062 479.445312 C 370.28125 478.941406 369.503906 478.472656 368.707031 478.042969 C 367.90625 477.613281 367.085938 477.226562 366.246094 476.875 C 365.40625 476.527344 364.554688 476.222656 363.683594 475.957031 C 362.816406 475.691406 361.9375 475.46875 361.046875 475.292969 C 360.15625 475.113281 359.257812 474.980469 358.355469 474.890625 C 357.453125 474.800781 356.546875 474.753906 355.636719 474.753906 C 354.730469 474.753906 353.824219 474.796875 352.921875 474.886719 C 352.019531 474.976562 351.121094 475.109375 350.230469 475.289062 C 349.339844 475.464844 348.460938 475.683594 347.59375 475.949219 C 346.722656 476.210938 345.871094 476.519531 345.03125 476.863281 C 344.191406 477.210938 343.375 477.597656 342.574219 478.027344 C 341.773438 478.453125 340.992188 478.917969 340.238281 479.421875 C 339.484375 479.925781 338.753906 480.464844 338.054688 481.042969 C 337.351562 481.617188 336.679688 482.226562 336.035156 482.867188 C 335.394531 483.507812 334.78125 484.179688 334.207031 484.878906 C 333.628906 485.578125 333.089844 486.308594 332.582031 487.058594 C 332.078125 487.8125 331.609375 488.589844 331.179688 489.390625 C 330.75 490.191406 330.359375 491.007812 330.011719 491.847656 C 329.664062 492.683594 329.355469 493.539062 329.089844 494.40625 C 328.824219 495.273438 328.601562 496.152344 328.421875 497.042969 C 328.242188 497.933594 328.105469 498.828125 328.015625 499.730469 C 327.921875 500.632812 327.875 501.539062 327.871094 502.449219 Z M 327.871094 502.449219 "/><path style=" stroke:none;fill-rule:nonzero;fill:black;fill-opacity:1;" d="M 451.296875 445.996094 C 451.757812 445.996094 452.210938 445.949219 452.660156 445.859375 C 453.113281 445.769531 453.550781 445.636719 453.972656 445.460938 C 454.398438 445.285156 454.800781 445.070312 455.183594 444.816406 C 455.5625 444.5625 455.917969 444.269531 456.242188 443.945312 C 456.566406 443.621094 456.855469 443.269531 457.113281 442.886719 C 457.367188 442.503906 457.582031 442.101562 457.757812 441.675781 C 457.933594 441.253906 458.066406 440.816406 458.15625 440.363281 C 458.246094 439.914062 458.289062 439.460938 458.289062 439 L 458.289062 412.199219 C 458.289062 411.742188 458.246094 411.285156 458.15625 410.835938 C 458.066406 410.386719 457.933594 409.949219 457.757812 409.523438 C 457.582031 409.101562 457.367188 408.699219 457.113281 408.316406 C 456.855469 407.933594 456.566406 407.582031 456.242188 407.253906 C 455.917969 406.929688 455.5625 406.640625 455.183594 406.386719 C 454.800781 406.128906 454.398438 405.914062 453.972656 405.738281 C 453.550781 405.5625 453.113281 405.429688 452.660156 405.339844 C 452.210938 405.253906 451.757812 405.207031 451.296875 405.207031 C 450.835938 405.207031 450.382812 405.253906 449.933594 405.339844 C 449.480469 405.429688 449.042969 405.5625 448.621094 405.738281 C 448.195312 405.914062 447.792969 406.128906 447.410156 406.386719 C 447.03125 406.640625 446.675781 406.929688 446.351562 407.253906 C 446.027344 407.582031 445.738281 407.933594 445.480469 408.316406 C 445.226562 408.699219 445.011719 409.101562 444.835938 409.523438 C 444.660156 409.949219 444.527344 410.386719 444.4375 410.835938 C 444.347656 411.285156 444.304688 411.742188 444.304688 412.199219 L 444.304688 439 C 444.304688 439.460938 444.347656 439.914062 444.4375 440.363281 C 444.527344 440.816406 444.660156 441.253906 444.835938 441.675781 C 445.011719 442.101562 445.226562 442.503906 445.480469 442.886719 C 445.738281 443.269531 446.027344 443.621094 446.351562 443.945312 C 446.675781 444.269531 447.03125 444.5625 447.410156 444.816406 C 447.792969 445.070312 448.195312 445.285156 448.621094 445.460938 C 449.042969 445.636719 449.480469 445.769531 449.933594 445.859375 C 450.382812 445.949219 450.835938 445.996094 451.296875 445.996094 Z M 451.296875 445.996094 "/><path style=" stroke:none;fill-rule:nonzero;fill:black;fill-opacity:1;" d="M 456.207031 462.304688 C 455.875 461.992188 455.519531 461.71875 455.132812 461.476562 C 454.75 461.234375 454.347656 461.027344 453.925781 460.859375 C 453.503906 460.695312 453.070312 460.570312 452.625 460.484375 C 452.179688 460.398438 451.730469 460.355469 451.277344 460.355469 C 450.820312 460.355469 450.371094 460.398438 449.925781 460.484375 C 449.480469 460.570312 449.046875 460.695312 448.625 460.859375 C 448.203125 461.027344 447.800781 461.234375 447.417969 461.476562 C 447.035156 461.71875 446.675781 461.992188 446.34375 462.304688 C 445.683594 462.949219 445.171875 463.695312 444.808594 464.542969 C 444.472656 465.421875 444.308594 466.328125 444.316406 467.269531 C 444.304688 468.183594 444.46875 469.070312 444.808594 469.917969 C 445.171875 470.769531 445.683594 471.515625 446.34375 472.164062 C 446.976562 472.84375 447.722656 473.355469 448.582031 473.695312 C 449.21875 473.972656 449.886719 474.148438 450.578125 474.222656 C 451.269531 474.296875 451.953125 474.265625 452.636719 474.128906 C 453.316406 473.992188 453.960938 473.757812 454.570312 473.421875 C 455.179688 473.085938 455.726562 472.667969 456.207031 472.164062 C 456.886719 471.53125 457.402344 470.785156 457.746094 469.917969 C 458.101562 469.074219 458.289062 468.1875 458.304688 467.269531 C 458.285156 466.324219 458.097656 465.417969 457.746094 464.542969 C 457.402344 463.679688 456.886719 462.933594 456.207031 462.304688 Z M 456.207031 462.304688 "/></g></svg>