<svg xmlns="http://www.w3.org/2000/svg" xmlns:xlink="http://www.w3.org/1999/xlink" width="1080" zoomAndPan="magnify" viewBox="0 0 810 809.999993" height="1080" preserveAspectRatio="xMidYMid meet" version="1.2"><defs><clipPath id="7f7dfe436b"><path d="M 199 221.808594 L 609 221.808594 L 609 632 L 199 632 Z M 199 221.808594 "/></clipPath></defs><g id="1f84e276b0"><g clip-rule="nonzero" clip-path="url(#7f7dfe436b)"><path style=" stroke:none;fill-rule:evenodd;fill:black;fill-opacity:1;" d="M 403.945312 387.003906 C 385.398438 387.003906 370.367188 402.035156 370.367188 420.578125 C 370.367188 439.125 385.398438 454.15625 403.945312 454.15625 C 422.488281 454.15625 437.519531 439.125 437.519531 420.578125 C 437.519531 402.035156 422.488281 387.003906 403.945312 387.003906 Z M 550.945312 221.800781 C 578.761719 221.800781 601.308594 244.351562 601.308594 272.167969 C 601.308594 290.578125 591.433594 306.683594 576.6875 315.46875 C 576.386719 315.648438 576.09375 315.84375 575.8125 316.046875 L 557.472656 316.046875 L 557.472656 286.265625 C 561.375 284.007812 564 279.789062 564 274.957031 C 564 267.746094 558.15625 261.898438 550.941406 261.898438 C 543.730469 261.898438 537.886719 267.746094 537.886719 274.957031 C 537.886719 279.789062 540.511719 284.007812 544.414062 286.265625 L 544.414062 316.046875 L 526.074219 316.046875 C 525.792969 315.84375 525.503906 315.648438 525.199219 315.46875 C 510.453125 306.683594 500.578125 290.578125 500.578125 272.167969 C 500.578125 244.351562 523.128906 221.800781 550.945312 221.800781 Z M 571.703125 329.109375 L 571.703125 336.523438 C 571.703125 340.335938 568.59375 343.445312 564.78125 343.445312 L 537.109375 343.445312 C 533.292969 343.445312 530.183594 340.335938 530.183594 336.523438 L 530.183594 329.109375 Z M 563.351562 356.507812 C 561.566406 359.507812 558.292969 361.523438 554.566406 361.523438 L 547.324219 361.523438 C 543.59375 361.523438 540.320312 359.507812 538.535156 356.507812 Z M 259.785156 230.824219 L 276.113281 230.824219 C 277.207031 230.824219 278.101562 231.71875 278.101562 232.816406 L 278.101562 241.015625 C 284.824219 242.355469 291.074219 245 296.582031 248.671875 L 302.382812 242.871094 C 303.15625 242.097656 304.421875 242.097656 305.195312 242.871094 L 316.742188 254.417969 C 317.515625 255.191406 317.515625 256.453125 316.742188 257.230469 L 310.941406 263.03125 C 314.617188 268.535156 317.257812 274.789062 318.597656 281.511719 L 326.796875 281.511719 C 327.894531 281.511719 328.789062 282.402344 328.789062 283.5 L 328.789062 299.824219 C 328.789062 300.921875 327.894531 301.816406 326.796875 301.816406 L 318.597656 301.816406 C 317.257812 308.539062 314.613281 314.789062 310.941406 320.296875 L 316.742188 326.097656 C 317.515625 326.871094 317.515625 328.136719 316.742188 328.910156 L 305.195312 340.453125 C 304.421875 341.230469 303.15625 341.230469 302.382812 340.453125 L 296.582031 334.652344 C 291.074219 338.328125 284.824219 340.972656 278.101562 342.3125 L 278.101562 350.511719 C 278.101562 351.609375 277.207031 352.5 276.113281 352.5 L 259.785156 352.5 C 258.691406 352.5 257.796875 351.609375 257.796875 350.511719 L 257.796875 342.3125 C 251.074219 340.972656 244.820312 338.328125 239.316406 334.652344 L 233.515625 340.453125 C 232.742188 341.230469 231.476562 341.230469 230.703125 340.453125 L 219.15625 328.910156 C 218.382812 328.136719 218.382812 326.871094 219.15625 326.097656 L 224.957031 320.296875 C 221.28125 314.789062 218.640625 308.539062 217.296875 301.816406 L 209.101562 301.816406 C 208.003906 301.816406 207.109375 300.921875 207.109375 299.824219 L 207.109375 283.5 C 207.109375 282.402344 208.003906 281.511719 209.101562 281.511719 L 217.296875 281.511719 C 218.640625 274.789062 221.285156 268.535156 224.957031 263.03125 L 219.160156 257.230469 C 218.382812 256.453125 218.382812 255.191406 219.160156 254.414062 L 230.703125 242.871094 C 231.476562 242.097656 232.742188 242.097656 233.515625 242.871094 L 239.316406 248.671875 C 244.824219 244.996094 251.074219 242.351562 257.796875 241.011719 L 257.796875 232.8125 C 257.796875 231.71875 258.691406 230.824219 259.785156 230.824219 Z M 267.949219 266.371094 C 253.980469 266.371094 242.65625 277.695312 242.65625 291.664062 C 242.65625 305.632812 253.980469 316.957031 267.949219 316.957031 C 281.917969 316.957031 293.242188 305.632812 293.242188 291.664062 C 293.242188 277.695312 281.917969 266.371094 267.949219 266.371094 Z M 508.738281 510.367188 L 596.976562 510.367188 C 602.203125 510.367188 606.480469 514.644531 606.480469 519.871094 L 606.480469 588.828125 C 606.480469 594.054688 602.203125 598.332031 596.976562 598.332031 L 508.738281 598.332031 C 503.511719 598.332031 499.234375 594.054688 499.234375 588.828125 L 499.234375 519.871094 C 499.234375 514.644531 503.511719 510.367188 508.738281 510.367188 Z M 572.71875 611.394531 L 575.65625 622.96875 L 530.058594 622.96875 L 532.996094 611.394531 Z M 210.246094 620.105469 L 210.246094 513.230469 C 210.246094 510.984375 212.078125 509.152344 214.324219 509.152344 L 290.636719 509.152344 L 305.269531 523.78125 L 305.269531 620.109375 C 305.269531 622.355469 303.4375 624.183594 301.191406 624.183594 L 214.324219 624.183594 C 212.078125 624.183594 210.246094 622.351562 210.246094 620.109375 Z M 238.699219 547.296875 L 276.816406 547.296875 C 280.425781 547.296875 283.347656 544.375 283.347656 540.765625 C 283.347656 537.160156 280.425781 534.238281 276.816406 534.238281 L 238.699219 534.238281 C 235.089844 534.238281 232.167969 537.160156 232.167969 540.765625 C 232.167969 544.375 235.089844 547.296875 238.699219 547.296875 Z M 238.699219 599.097656 L 276.816406 599.097656 C 280.425781 599.097656 283.347656 596.175781 283.347656 592.566406 C 283.347656 588.960938 280.425781 586.035156 276.816406 586.035156 L 238.699219 586.035156 C 235.089844 586.035156 232.167969 588.960938 232.167969 592.566406 C 232.167969 596.175781 235.089844 599.097656 238.699219 599.097656 Z M 238.699219 573.199219 L 276.816406 573.199219 C 280.425781 573.199219 283.347656 570.273438 283.347656 566.667969 C 283.347656 563.0625 280.425781 560.136719 276.816406 560.136719 L 238.699219 560.136719 C 235.089844 560.136719 232.167969 563.0625 232.167969 566.667969 C 232.167969 570.273438 235.089844 573.199219 238.699219 573.199219 Z M 403.945312 222.824219 C 374.457031 222.824219 346.425781 229.070312 321.105469 240.308594 L 325.976562 245.179688 C 327.640625 246.84375 328.832031 248.800781 329.550781 250.886719 C 381.007812 229.152344 439.832031 231.132812 489.578125 256.074219 C 490.703125 251.785156 492.265625 247.671875 494.210938 243.789062 C 466.988281 230.363281 436.347656 222.824219 403.945312 222.824219 Z M 227.394531 353.34375 C 225.226562 352.628906 223.1875 351.414062 221.464844 349.691406 L 216.761719 344.988281 C 195.8125 392.609375 193.855469 447.128906 211.523438 496.320312 C 214.027344 495.90625 222.425781 496.089844 225.375 496.089844 C 207.652344 450.160156 208.40625 398.664062 227.394531 353.34375 Z M 318.332031 598.382812 C 371.675781 625.117188 435.03125 625.3125 488.550781 598.882812 C 490.640625 603.050781 493.984375 606.488281 498.078125 608.699219 C 442.28125 637.703125 375.5625 639.316406 318.332031 612.878906 Z M 582.039062 497.304688 C 600.664062 450.015625 599.597656 396.757812 579.207031 350.339844 C 582.648438 346.75 584.765625 341.878906 584.765625 336.523438 L 584.765625 331.832031 C 611.570312 382.535156 615.835938 442.984375 596.011719 497.304688 Z M 403.945312 327.367188 C 459.09375 327.367188 503.796875 372.074219 503.796875 427.222656 C 503.796875 455.15625 492.324219 480.40625 473.835938 498.527344 C 463.441406 480.582031 446.550781 467.1875 426.675781 461.3125 C 453.601562 446.25 458.855469 409.535156 436.921875 387.601562 C 418.710938 369.390625 389.179688 369.390625 370.96875 387.601562 C 349.03125 409.539062 354.292969 446.257812 381.214844 461.3125 C 361.339844 467.191406 344.449219 480.582031 334.054688 498.527344 C 315.566406 480.40625 304.089844 455.15625 304.089844 427.222656 C 304.089844 372.074219 348.796875 327.367188 403.945312 327.367188 Z M 463.859375 507.109375 C 463.628906 506.820312 463.421875 506.511719 463.238281 506.179688 C 457.363281 495.570312 448.695312 486.671875 438.230469 480.472656 C 405.332031 460.992188 363.019531 472.921875 344.652344 506.179688 C 344.46875 506.511719 344.257812 506.824219 344.03125 507.109375 C 379.484375 533.742188 428.40625 533.742188 463.859375 507.109375 Z M 463.859375 507.109375 "/></g></g></svg>