<svg xmlns="http://www.w3.org/2000/svg" xmlns:xlink="http://www.w3.org/1999/xlink" width="1080" zoomAndPan="magnify" viewBox="0 0 810 809.999993" height="1080" preserveAspectRatio="xMidYMid meet" version="1.2"><defs><clipPath id="b396491668"><path d="M 183.722656 379 L 381 379 L 381 601 L 183.722656 601 Z M 183.722656 379 "/></clipPath><clipPath id="4733024011"><path d="M 355 583 L 479 583 L 479 648.746094 L 355 648.746094 Z M 355 583 "/></clipPath><clipPath id="aa49ef43c9"><path d="M 503 583 L 626.222656 583 L 626.222656 648.746094 L 503 648.746094 Z M 503 583 "/></clipPath></defs><g id="fe35b57e0a"><path style=" stroke:none;fill-rule:evenodd;fill:black;fill-opacity:1;" d="M 595.078125 430.980469 L 377.882812 430.980469 C 366.015625 430.980469 356.351562 421.328125 356.351562 409.449219 L 356.351562 258.824219 C 356.351562 246.945312 366.015625 237.28125 377.882812 237.28125 L 595.078125 237.28125 C 606.949219 237.28125 616.613281 246.945312 616.613281 258.824219 L 616.613281 409.449219 C 616.613281 421.328125 606.949219 430.980469 595.078125 430.980469 Z M 519.976562 302.035156 L 416.054688 302.035156 C 413.1875 302.035156 410.871094 299.71875 410.871094 296.847656 C 410.871094 293.988281 413.1875 291.664062 416.054688 291.664062 L 519.976562 291.664062 C 522.839844 291.664062 525.164062 293.988281 525.164062 296.847656 C 525.164062 299.71875 522.839844 302.035156 519.976562 302.035156 Z M 556.90625 339.320312 L 416.054688 339.320312 C 413.1875 339.320312 410.871094 337 410.871094 334.132812 C 410.871094 331.269531 413.1875 328.945312 416.054688 328.945312 L 556.90625 328.945312 C 559.765625 328.945312 562.09375 331.269531 562.09375 334.132812 C 562.09375 337 559.777344 339.320312 556.90625 339.320312 Z M 525.40625 376.601562 L 416.054688 376.601562 C 413.1875 376.601562 410.871094 374.285156 410.871094 371.414062 C 410.871094 368.554688 413.1875 366.226562 416.054688 366.226562 L 525.40625 366.226562 C 528.277344 366.226562 530.59375 368.554688 530.59375 371.414062 C 530.59375 374.285156 528.277344 376.601562 525.40625 376.601562 Z M 525.40625 376.601562 "/><g clip-rule="nonzero" clip-path="url(#b396491668)"><path style=" stroke:none;fill-rule:evenodd;fill:black;fill-opacity:1;" d="M 247.050781 600.417969 L 233.964844 600.417969 C 224.257812 600.417969 216.355469 592.519531 216.355469 582.808594 L 216.355469 530.832031 L 205.238281 530.832031 C 193.390625 530.832031 183.75 521.195312 183.75 509.34375 L 183.75 424.214844 C 183.75 399.714844 203.683594 379.78125 228.183594 379.78125 L 289.238281 379.78125 C 313.734375 379.78125 333.667969 399.714844 333.667969 424.214844 L 333.667969 440.828125 L 354.648438 440.828125 C 369.003906 440.828125 380.691406 452.515625 380.691406 466.875 C 380.691406 481.230469 369.003906 492.917969 354.648438 492.917969 L 302.574219 492.917969 L 302.574219 570.25 C 302.574219 570.292969 302.574219 570.34375 302.574219 570.398438 L 302.574219 582.820312 C 302.574219 592.519531 294.683594 600.417969 284.976562 600.417969 L 271.886719 600.417969 C 267.046875 600.417969 262.65625 598.457031 259.464844 595.273438 C 256.285156 598.457031 251.894531 600.417969 247.050781 600.417969 Z M 247.050781 600.417969 "/></g><path style=" stroke:none;fill-rule:evenodd;fill:black;fill-opacity:1;" d="M 375.507812 472.058594 C 374.175781 472.058594 372.851562 471.550781 371.832031 470.539062 C 369.808594 468.515625 369.808594 465.230469 371.832031 463.207031 L 437.148438 397.882812 C 439.179688 395.859375 442.464844 395.859375 444.488281 397.882812 C 446.511719 399.914062 446.511719 403.199219 444.488281 405.222656 L 379.171875 470.539062 C 378.160156 471.550781 376.828125 472.058594 375.507812 472.058594 Z M 375.507812 472.058594 "/><path style=" stroke:none;fill-rule:evenodd;fill:black;fill-opacity:1;" d="M 258.703125 358.101562 C 237.035156 358.101562 219.390625 340.46875 219.390625 318.789062 C 219.390625 297.117188 237.035156 279.472656 258.703125 279.472656 C 280.382812 279.472656 298.019531 297.117188 298.019531 318.789062 C 298.019531 340.46875 280.382812 358.101562 258.703125 358.101562 Z M 258.703125 358.101562 "/><g clip-rule="nonzero" clip-path="url(#4733024011)"><path style=" stroke:none;fill-rule:evenodd;fill:black;fill-opacity:1;" d="M 473.253906 648.316406 L 360.820312 648.316406 C 357.949219 648.316406 355.632812 645.992188 355.632812 643.128906 L 355.632812 615.910156 C 355.632812 598.042969 370.164062 583.511719 388.03125 583.511719 L 446.042969 583.511719 C 463.910156 583.511719 478.441406 598.042969 478.441406 615.910156 L 478.441406 643.128906 C 478.441406 645.992188 476.125 648.316406 473.253906 648.316406 Z M 473.253906 648.316406 "/></g><path style=" stroke:none;fill-rule:evenodd;fill:black;fill-opacity:1;" d="M 417.035156 566.214844 C 399.417969 566.214844 385.074219 551.871094 385.074219 534.253906 C 385.074219 516.628906 399.417969 502.296875 417.035156 502.296875 C 434.660156 502.296875 448.992188 516.628906 448.992188 534.253906 C 448.992188 551.871094 434.660156 566.214844 417.035156 566.214844 Z M 417.035156 566.214844 "/><path style=" stroke:none;fill-rule:evenodd;fill:black;fill-opacity:1;" d="M 564.886719 566.214844 C 547.257812 566.214844 532.925781 551.871094 532.925781 534.253906 C 532.925781 516.628906 547.257812 502.296875 564.886719 502.296875 C 582.5 502.296875 596.84375 516.628906 596.84375 534.253906 C 596.84375 551.871094 582.5 566.214844 564.886719 566.214844 Z M 564.886719 566.214844 "/><g clip-rule="nonzero" clip-path="url(#aa49ef43c9)"><path style=" stroke:none;fill-rule:evenodd;fill:black;fill-opacity:1;" d="M 621.097656 648.316406 L 508.664062 648.316406 C 505.800781 648.316406 503.476562 645.992188 503.476562 643.128906 L 503.476562 615.910156 C 503.476562 598.042969 518.007812 583.511719 535.875 583.511719 L 593.886719 583.511719 C 611.753906 583.511719 626.285156 598.042969 626.285156 615.910156 L 626.285156 643.128906 C 626.285156 645.992188 623.96875 648.316406 621.097656 648.316406 Z M 621.097656 648.316406 "/></g></g></svg>