<svg width="152" height="112" viewBox="0 0 140 75" fill="none" xmlns="http://www.w3.org/2000/svg">
<g filter="url(#filter0_d_364_2436)">
<path d="M10.6993 23.8984L-5.00275 29.0373C-8.51971 30.1883 -10.7883 33.6011 -10.4881 37.2895L-4.59834 109.649C-4.26031 113.802 -0.791331 117 3.37529 117H145C149.418 117 153 113.418 153 109V51.2052C153 44.8651 145.977 41.0444 140.654 44.4886L135.638 47.7344C131.417 50.4652 125.754 48.6729 123.873 44.0113L122.185 39.8284C119.683 33.6265 111.127 33.0505 107.816 38.8609L93.8638 63.3428C91.5251 67.4466 86.1587 68.6414 82.2998 65.9175L71.2096 58.0891C67.3473 55.3628 61.9759 56.5624 59.6405 60.6728L57.9436 63.6593C54.9939 68.8507 47.6026 69.0982 44.3122 64.1157L19.8634 27.0931C17.8771 24.0854 14.1249 22.7773 10.6993 23.8984Z" fill="url(#paint0_linear_364_2436)"/>
<path d="M10.6993 23.8984L-5.00275 29.0373C-8.51971 30.1883 -10.7883 33.6011 -10.4881 37.2895L-4.59834 109.649C-4.26031 113.802 -0.791331 117 3.37529 117H145C149.418 117 153 113.418 153 109V51.2052C153 44.8651 145.977 41.0444 140.654 44.4886L135.638 47.7344C131.417 50.4652 125.754 48.6729 123.873 44.0113L122.185 39.8284C119.683 33.6265 111.127 33.0505 107.816 38.8609L93.8638 63.3428C91.5251 67.4466 86.1587 68.6414 82.2998 65.9175L71.2096 58.0891C67.3473 55.3628 61.9759 56.5624 59.6405 60.6728L57.9436 63.6593C54.9939 68.8507 47.6026 69.0982 44.3122 64.1157L19.8634 27.0931C17.8771 24.0854 14.1249 22.7773 10.6993 23.8984Z" stroke="white" stroke-width="3" stroke-linecap="round"/>
</g>
<defs>
<filter id="filter0_d_364_2436" x="-30.0146" y="0.000976562" width="202.515" height="132.499" filterUnits="userSpaceOnUse" color-interpolation-filters="sRGB">
<feFlood flood-opacity="0" result="BackgroundImageFix"/>
<feColorMatrix in="SourceAlpha" type="matrix" values="0 0 0 0 0 0 0 0 0 0 0 0 0 0 0 0 0 0 127 0" result="hardAlpha"/>
<feOffset dy="-4"/>
<feGaussianBlur stdDeviation="9"/>
<feComposite in2="hardAlpha" operator="out"/>
<feColorMatrix type="matrix" values="0 0 0 0 0 0 0 0 0 0 0 0 0 0 0 0 0 0 0.15 0"/>
<feBlend mode="normal" in2="BackgroundImageFix" result="effect1_dropShadow_364_2436"/>
<feBlend mode="normal" in="SourceGraphic" in2="effect1_dropShadow_364_2436" result="shape"/>
</filter>
<linearGradient id="paint0_linear_364_2436" x1="68" y1="0.499998" x2="68" y2="132.5" gradientUnits="userSpaceOnUse">
<stop stop-color="white"/>
<stop offset="1" stop-color="#172B85"/>
</linearGradient>
</defs>
</svg>
