<svg width="w-100" height="h-100" viewBox="0 0 140 75" fill="none"
    xmlns="http://www.w3.org/2000/svg">
<path d="M24.7628 38.5829L5.17884 5.10801C2.08825 -0.174735 -6 2.01741 -6 8.1378V104C-6 107.314 -3.31371 110 -3.8147e-06 110H150C153.314 110 156 107.314 156 104V84.2361C156 83.102 155.679 81.991 155.073 81.0321L142.651 61.3644C140.651 58.198 135.936 58.5157 134.379 61.9217C132.685 65.6258 127.408 65.584 125.774 61.8535L115.097 37.482C112.702 32.0162 104.664 33.0172 103.683 38.9033L99.1764 65.9416C98.1097 72.3419 89.0547 72.7291 87.4455 66.4433L80.0298 37.4757C79.1918 34.2025 75.8177 32.2664 72.5689 33.1946L72.3131 33.2677C69.7556 33.9984 67.0222 32.9581 65.5977 30.7118L60.2778 22.3228C58.1131 18.9091 52.976 19.4492 51.5686 23.2385L51.2964 23.9711C50.0787 27.2497 45.7306 27.91 43.5944 25.1409C40.9378 21.6972 35.4269 23.7119 35.6179 28.057L35.9358 35.2896C36.2107 41.5444 27.9243 43.9868 24.7628 38.5829Z" fill="url(#paint0_linear_364_2441)" stroke="#216ED7" stroke-width="3"/>
<defs>
<linearGradient id="paint0_linear_364_2441" x1="75" y1="-299.5" x2="75" y2="100.5" gradientUnits="userSpaceOnUse">
<stop stop-color="#172B85"/>
<stop offset="1" stop-color="#216ED7" stop-opacity="0.1"/>
</linearGradient>
</defs>
</svg>
