<svg width="42" height="23" viewBox="0 0 42 23" fill="none" xmlns="http://www.w3.org/2000/svg">
<rect x="0.5" y="0.5" width="41" height="22" rx="3.5" fill="white"/>
<rect x="0.5" y="0.5" width="41" height="22" rx="3.5" stroke="#F5F5F5"/>
<path fill-rule="evenodd" clip-rule="evenodd" d="M21.4938 9.69695C21.4774 11.0899 22.6464 11.8673 23.5269 12.3295C24.4317 12.8037 24.7356 13.1078 24.7321 13.5318C24.7252 14.1809 24.0103 14.4673 23.3413 14.4784C22.1741 14.4979 21.4955 14.139 20.9559 13.8675L20.5355 15.9866C21.0768 16.2554 22.0791 16.4898 23.1186 16.5C25.5583 16.5 27.1545 15.2028 27.1632 13.1915C27.1727 10.639 23.8852 10.4976 23.9076 9.35662C23.9154 9.01072 24.2219 8.64152 24.8935 8.54761C25.2259 8.50023 26.1436 8.46392 27.1839 8.97999L27.5922 6.92967C27.0328 6.71019 26.3136 6.5 25.4184 6.5C23.122 6.5 21.5068 7.81486 21.4938 9.69695ZM31.516 6.67667C31.0705 6.67667 30.695 6.95661 30.5275 7.3862L27.0423 16.3493H29.4803L29.9655 14.9052H32.9448L33.2262 16.3493H35.375L33.4999 6.67667H31.516ZM31.857 9.28966L32.5606 12.9218H30.6337L31.857 9.28966ZM18.5379 6.67667L16.6161 16.3493H18.9393L20.8601 6.67667H18.5379ZM15.101 6.67667L12.6828 13.2602L11.7047 7.66234C11.5899 7.03751 11.1367 6.67667 10.6333 6.67667H6.68027L6.625 6.95754C7.43654 7.14721 8.35855 7.45316 8.91709 7.78048C9.25893 7.98038 9.35654 8.15518 9.46873 8.63037L11.3214 16.3493H13.7767L17.5407 6.67667H15.101Z" fill="#4318FF"/>
</svg>
