<svg width="153" height="19" viewBox="0 0 153 19" fill="none" xmlns="http://www.w3.org/2000/svg">
<path d="M1.71942 11.1306C3.35058 12.7522 6.19529 15 9.43175 15C12.6682 15 15.5124 12.7522 17.1435 11.1306C17.5737 10.703 17.7895 10.4884 17.9265 10.0685C18.0243 9.76888 18.0243 9.23121 17.9265 8.93161C17.7895 8.51169 17.5738 8.29709 17.1435 7.86938C15.5124 6.24776 12.6682 4 9.43175 4C6.19529 4 3.35058 6.24776 1.71942 7.86938C1.2889 8.29739 1.07362 8.51154 0.936582 8.93161C0.838848 9.23121 0.838848 9.76888 0.936582 10.0685C1.07362 10.4886 1.2889 10.7026 1.71942 11.1306Z" stroke="#CCF5FF" stroke-width="1.3" stroke-linecap="round" stroke-linejoin="round"/>
<path d="M7.59823 9.50004C7.59823 10.5126 8.41905 11.3334 9.43158 11.3334C10.4441 11.3334 11.2649 10.5126 11.2649 9.50004C11.2649 8.48751 10.4441 7.66669 9.43158 7.66669C8.41905 7.66669 7.59823 8.48751 7.59823 9.50004Z" stroke="#CCF5FF" stroke-width="1.3" stroke-linecap="round" stroke-linejoin="round"/>
<path d="M26.42 16.81V15.83H33.49V16.81H26.42ZM34.336 16.81V15.83H41.406V16.81H34.336ZM42.252 16.81V15.83H49.322V16.81H42.252ZM50.168 16.81V15.83H57.238V16.81H50.168ZM58.0841 16.81V15.83H65.1541V16.81H58.0841ZM66.0001 16.81V15.83H73.0701V16.81H66.0001ZM73.9161 16.81V15.83H80.9861V16.81H73.9161ZM86.7647 14.668C86.466 14.668 86.2467 14.5933 86.1067 14.444C85.976 14.2947 85.9107 14.0987 85.9107 13.856V13.674C85.9107 13.4313 85.976 13.2353 86.1067 13.086C86.2467 12.9367 86.466 12.862 86.7647 12.862C87.0634 12.862 87.278 12.9367 87.4087 13.086C87.5487 13.2353 87.6187 13.4313 87.6187 13.674V13.856C87.6187 14.0987 87.5487 14.2947 87.4087 14.444C87.278 14.5933 87.0634 14.668 86.7647 14.668ZM86.7647 8.914C86.466 8.914 86.2467 8.83933 86.1067 8.69C85.976 8.54067 85.9107 8.34467 85.9107 8.102V7.92C85.9107 7.67733 85.976 7.48133 86.1067 7.332C86.2467 7.18267 86.466 7.108 86.7647 7.108C87.0634 7.108 87.278 7.18267 87.4087 7.332C87.5487 7.48133 87.6187 7.67733 87.6187 7.92V8.102C87.6187 8.34467 87.5487 8.54067 87.4087 8.69C87.278 8.83933 87.0634 8.914 86.7647 8.914ZM92.1732 17.72L91.7672 16.656C92.7099 16.3573 93.4332 15.998 93.9372 15.578C94.4505 15.1673 94.8005 14.738 94.9872 14.29C95.1832 13.842 95.2812 13.4127 95.2812 13.002C95.2812 12.7407 95.2532 12.4887 95.1972 12.246C95.1412 12.0033 95.0432 11.728 94.9032 11.42C94.7632 11.112 94.5672 10.7293 94.3152 10.272L95.3372 9.754C95.6919 10.3607 95.9439 10.9347 96.0932 11.476C96.2519 12.0173 96.3312 12.4933 96.3312 12.904C96.3312 13.492 96.2332 14.024 96.0372 14.5C95.8505 14.976 95.5985 15.396 95.2812 15.76C94.9732 16.1333 94.6325 16.4507 94.2592 16.712C93.8952 16.9733 93.5265 17.188 93.1532 17.356C92.7892 17.524 92.4625 17.6453 92.1732 17.72ZM98.0698 17.72L97.8178 16.572C98.3778 16.4973 98.8911 16.39 99.3578 16.25C99.8338 16.1193 100.24 15.928 100.576 15.676C100.921 15.424 101.187 15.0927 101.374 14.682C101.56 14.2713 101.654 13.758 101.654 13.142C101.654 12.8527 101.626 12.5773 101.57 12.316C101.514 12.0453 101.43 11.8073 101.318 11.602C101.206 11.3967 101.07 11.2333 100.912 11.112C100.762 10.9907 100.59 10.93 100.394 10.93C100.179 10.93 99.9831 11.014 99.8058 11.182C99.6378 11.3407 99.5025 11.546 99.3998 11.798C99.3065 12.05 99.2598 12.302 99.2598 12.554C99.2598 12.75 99.2971 12.9227 99.3718 13.072C99.4558 13.212 99.5911 13.3193 99.7778 13.394C99.9645 13.4687 100.207 13.506 100.506 13.506C100.776 13.506 101.047 13.478 101.318 13.422C101.598 13.366 101.836 13.2913 102.032 13.198L102.088 14.178C101.864 14.3367 101.598 14.4487 101.29 14.514C100.991 14.5793 100.688 14.612 100.38 14.612C100.025 14.612 99.7078 14.5747 99.4278 14.5C99.1571 14.4253 98.9238 14.318 98.7278 14.178C98.5411 14.0287 98.3965 13.842 98.2938 13.618C98.2005 13.394 98.1538 13.1327 98.1538 12.834C98.1538 12.4793 98.2098 12.1247 98.3218 11.77C98.4338 11.406 98.5925 11.0747 98.7978 10.776C99.0031 10.4773 99.2505 10.2393 99.5398 10.062C99.8291 9.87533 100.151 9.782 100.506 9.782C100.879 9.782 101.206 9.88 101.486 10.076C101.766 10.2627 101.999 10.5193 102.186 10.846C102.372 11.1727 102.512 11.5413 102.606 11.952C102.699 12.3627 102.746 12.7873 102.746 13.226C102.746 14.094 102.568 14.8407 102.214 15.466C101.868 16.1007 101.346 16.6047 100.646 16.978C99.9551 17.3513 99.0965 17.5987 98.0698 17.72ZM103.576 17.748L103.17 16.684C103.851 16.46 104.416 16.2033 104.864 15.914C105.321 15.6247 105.68 15.3167 105.942 14.99C106.212 14.6633 106.404 14.332 106.516 13.996C106.628 13.6507 106.684 13.3193 106.684 13.002C106.684 12.5447 106.581 12.0827 106.376 11.616C106.18 11.14 105.96 10.692 105.718 10.272L106.74 9.754C106.917 10.0807 107.071 10.4027 107.202 10.72C107.342 11.0373 107.463 11.336 107.566 11.616C107.678 11.896 107.766 12.1527 107.832 12.386C107.962 12.7873 108.13 13.0627 108.336 13.212C108.55 13.352 108.84 13.422 109.204 13.422C109.4 13.422 109.54 13.478 109.624 13.59C109.717 13.6927 109.764 13.8187 109.764 13.968C109.764 14.1173 109.698 14.2573 109.568 14.388C109.437 14.5093 109.269 14.57 109.064 14.57C108.653 14.57 108.317 14.5 108.056 14.36C107.804 14.2107 107.612 14.0193 107.482 13.786C107.351 13.5433 107.262 13.2913 107.216 13.03L107.664 13.282C107.664 13.898 107.524 14.458 107.244 14.962C106.973 15.4753 106.623 15.9187 106.194 16.292C105.764 16.6747 105.316 16.9873 104.85 17.23C104.383 17.4727 103.958 17.6453 103.576 17.748ZM109.07 14.57L109.21 13.422C109.472 13.422 109.677 13.366 109.826 13.254C109.985 13.142 110.134 12.9553 110.274 12.694C110.424 12.4327 110.61 12.0827 110.834 11.644C111.058 11.196 111.282 10.832 111.506 10.552C111.74 10.2627 111.964 10.0387 112.178 9.88C112.402 9.712 112.612 9.59533 112.808 9.53C113.004 9.46467 113.186 9.432 113.354 9.432C113.662 9.432 113.938 9.502 114.18 9.642C114.423 9.77267 114.652 10.0013 114.866 10.328C115.081 10.6453 115.3 11.084 115.524 11.644C115.739 12.1573 115.93 12.5447 116.098 12.806C116.276 13.058 116.458 13.226 116.644 13.31C116.84 13.3847 117.06 13.422 117.302 13.422C117.498 13.422 117.638 13.478 117.722 13.59C117.816 13.6927 117.862 13.8187 117.862 13.968C117.862 14.1173 117.797 14.2573 117.666 14.388C117.536 14.5093 117.368 14.57 117.162 14.57C116.798 14.57 116.462 14.5093 116.154 14.388C115.856 14.2667 115.604 14.0753 115.398 13.814L115.594 13.52C115.492 13.8093 115.352 14.0473 115.174 14.234C115.006 14.4113 114.815 14.542 114.6 14.626C114.386 14.7193 114.157 14.766 113.914 14.766C113.606 14.766 113.289 14.7007 112.962 14.57C112.645 14.4393 112.337 14.2527 112.038 14.01C111.74 13.7673 111.478 13.4827 111.254 13.156C111.012 13.5853 110.778 13.9027 110.554 14.108C110.34 14.304 110.116 14.43 109.882 14.486C109.649 14.542 109.378 14.57 109.07 14.57ZM111.786 12.092C111.945 12.3533 112.113 12.582 112.29 12.778C112.477 12.974 112.664 13.1373 112.85 13.268C113.037 13.3893 113.219 13.4827 113.396 13.548C113.583 13.604 113.751 13.632 113.9 13.632C114.227 13.632 114.465 13.5153 114.614 13.282C114.773 13.0487 114.768 12.722 114.6 12.302C114.516 12.0873 114.428 11.8773 114.334 11.672C114.25 11.4667 114.157 11.28 114.054 11.112C113.952 10.9347 113.835 10.7993 113.704 10.706C113.574 10.6033 113.429 10.552 113.27 10.552C113.13 10.552 112.981 10.5987 112.822 10.692C112.673 10.7853 112.51 10.944 112.332 11.168C112.164 11.392 111.982 11.7 111.786 12.092ZM117.164 14.57L117.29 13.422C117.822 13.422 118.195 13.3707 118.41 13.268C118.625 13.1653 118.746 12.9833 118.774 12.722C118.811 12.4607 118.821 12.0967 118.802 11.63L118.536 4.504H119.67L119.95 11.504C119.969 11.9987 119.95 12.4373 119.894 12.82C119.847 13.2027 119.726 13.5247 119.53 13.786C119.343 14.0473 119.059 14.2433 118.676 14.374C118.303 14.5047 117.799 14.57 117.164 14.57ZM122.089 14.5L121.809 4.504H122.943L123.223 14.5H122.089ZM134.249 14.57C133.745 14.57 133.297 14.5 132.905 14.36C132.523 14.2107 132.215 13.9633 131.981 13.618C131.757 13.2633 131.631 12.7733 131.603 12.148L131.379 7.276H132.513L132.737 11.896C132.765 12.3347 132.845 12.666 132.975 12.89C133.106 13.1047 133.288 13.2493 133.521 13.324C133.764 13.3893 134.053 13.422 134.389 13.422C134.585 13.422 134.725 13.478 134.809 13.59C134.903 13.6927 134.949 13.8187 134.949 13.968C134.949 14.1173 134.884 14.2573 134.753 14.388C134.623 14.5093 134.455 14.57 134.249 14.57ZM132.135 13.03C131.603 13.198 131.085 13.282 130.581 13.282C130.077 13.282 129.62 13.2073 129.209 13.058C128.799 12.9087 128.472 12.694 128.229 12.414C127.987 12.1247 127.865 11.7793 127.865 11.378C127.865 10.986 127.963 10.6173 128.159 10.272C128.365 9.92667 128.64 9.61867 128.985 9.348C129.34 9.07733 129.746 8.85333 130.203 8.676C130.67 8.48933 131.165 8.36333 131.687 8.298L131.883 9.474C131.417 9.49267 131.001 9.558 130.637 9.67C130.283 9.77267 129.979 9.908 129.727 10.076C129.485 10.244 129.298 10.426 129.167 10.622C129.037 10.818 128.971 11.0093 128.971 11.196C128.971 11.4013 129.046 11.5693 129.195 11.7C129.345 11.8307 129.536 11.9333 129.769 12.008C130.003 12.0733 130.259 12.1153 130.539 12.134C130.819 12.1433 131.09 12.134 131.351 12.106C131.613 12.0687 131.837 12.0173 132.023 11.952L132.135 13.03ZM131.841 5.666C131.645 5.666 131.477 5.60067 131.337 5.47C131.207 5.33 131.141 5.16667 131.141 4.98C131.141 4.79333 131.207 4.63 131.337 4.49C131.477 4.35 131.645 4.28 131.841 4.28C132.028 4.28 132.187 4.35 132.317 4.49C132.457 4.63 132.527 4.79333 132.527 4.98C132.527 5.16667 132.457 5.33 132.317 5.47C132.187 5.60067 132.028 5.666 131.841 5.666ZM129.923 5.666C129.727 5.666 129.559 5.60067 129.419 5.47C129.289 5.33 129.223 5.16667 129.223 4.98C129.223 4.79333 129.289 4.63 129.419 4.49C129.559 4.35 129.727 4.28 129.923 4.28C130.11 4.28 130.269 4.35 130.399 4.49C130.539 4.63 130.609 4.79333 130.609 4.98C130.609 5.16667 130.539 5.33 130.399 5.47C130.269 5.60067 130.11 5.666 129.923 5.666ZM134.254 14.57L134.394 13.422C134.655 13.422 134.861 13.366 135.01 13.254C135.169 13.142 135.318 12.9553 135.458 12.694C135.607 12.4327 135.794 12.0827 136.018 11.644C136.242 11.196 136.466 10.832 136.69 10.552C136.923 10.2627 137.147 10.0387 137.362 9.88C137.586 9.712 137.796 9.59533 137.992 9.53C138.188 9.46467 138.37 9.432 138.538 9.432C138.846 9.432 139.121 9.502 139.364 9.642C139.607 9.77267 139.835 10.0013 140.05 10.328C140.265 10.6453 140.484 11.084 140.708 11.644C140.923 12.1573 141.114 12.5447 141.282 12.806C141.459 13.058 141.641 13.226 141.828 13.31C142.024 13.3847 142.243 13.422 142.486 13.422C142.682 13.422 142.822 13.478 142.906 13.59C142.999 13.6927 143.046 13.8187 143.046 13.968C143.046 14.1173 142.981 14.2573 142.85 14.388C142.719 14.5093 142.551 14.57 142.346 14.57C141.982 14.57 141.646 14.5093 141.338 14.388C141.039 14.2667 140.787 14.0753 140.582 13.814L140.778 13.52C140.675 13.8093 140.535 14.0473 140.358 14.234C140.19 14.4113 139.999 14.542 139.784 14.626C139.569 14.7193 139.341 14.766 139.098 14.766C138.79 14.766 138.473 14.7007 138.146 14.57C137.829 14.4393 137.521 14.2527 137.222 14.01C136.923 13.7673 136.662 13.4827 136.438 13.156C136.195 13.5853 135.962 13.9027 135.738 14.108C135.523 14.304 135.299 14.43 135.066 14.486C134.833 14.542 134.562 14.57 134.254 14.57ZM136.97 12.092C137.129 12.3533 137.297 12.582 137.474 12.778C137.661 12.974 137.847 13.1373 138.034 13.268C138.221 13.3893 138.403 13.4827 138.58 13.548C138.767 13.604 138.935 13.632 139.084 13.632C139.411 13.632 139.649 13.5153 139.798 13.282C139.957 13.0487 139.952 12.722 139.784 12.302C139.7 12.0873 139.611 11.8773 139.518 11.672C139.434 11.4667 139.341 11.28 139.238 11.112C139.135 10.9347 139.019 10.7993 138.888 10.706C138.757 10.6033 138.613 10.552 138.454 10.552C138.314 10.552 138.165 10.5987 138.006 10.692C137.857 10.7853 137.693 10.944 137.516 11.168C137.348 11.392 137.166 11.7 136.97 12.092ZM142.348 14.57L142.474 13.422C143.006 13.422 143.379 13.3707 143.594 13.268C143.808 13.1653 143.93 12.9833 143.958 12.722C143.995 12.4607 144.004 12.0967 143.986 11.63L143.748 4.504H144.91L145.134 11.602C145.152 12.078 145.227 12.4513 145.358 12.722C145.498 12.9833 145.684 13.1653 145.918 13.268C146.151 13.3707 146.408 13.422 146.688 13.422C146.884 13.422 147.024 13.478 147.108 13.59C147.201 13.6927 147.248 13.8187 147.248 13.968C147.248 14.1173 147.182 14.2573 147.052 14.388C146.921 14.5093 146.753 14.57 146.548 14.57C146.156 14.57 145.829 14.5093 145.568 14.388C145.316 14.2573 145.115 14.094 144.966 13.898C144.826 13.6927 144.732 13.478 144.686 13.254L144.98 13.282C144.886 13.562 144.732 13.8 144.518 13.996C144.312 14.1827 144.032 14.3273 143.678 14.43C143.323 14.5233 142.88 14.57 142.348 14.57ZM146.545 14.57L146.685 13.422H148.001C148.552 13.422 148.986 13.394 149.303 13.338C149.63 13.2727 149.868 13.1933 150.017 13.1C150.176 12.9973 150.278 12.89 150.325 12.778C150.381 12.6567 150.409 12.5353 150.409 12.414C150.409 12.1993 150.325 11.9333 150.157 11.616C149.998 11.2987 149.667 10.888 149.163 10.384C148.902 10.1227 148.64 9.88467 148.379 9.67C148.118 9.446 147.875 9.25 147.651 9.082C147.436 8.90467 147.264 8.75533 147.133 8.634C147.002 8.51267 146.937 8.41933 146.937 8.354C146.937 8.214 146.946 8.07867 146.965 7.948C146.993 7.81733 147.026 7.696 147.063 7.584C147.11 7.472 147.166 7.38333 147.231 7.318C147.418 7.122 147.656 6.926 147.945 6.73C148.244 6.534 148.589 6.32867 148.981 6.114C149.382 5.89933 149.83 5.67067 150.325 5.428C150.829 5.176 151.38 4.90067 151.977 4.602L152.453 5.638C151.706 5.99267 151.081 6.296 150.577 6.548C150.082 6.79067 149.662 7.01 149.317 7.206C148.972 7.39267 148.668 7.57 148.407 7.738C148.146 7.906 147.88 8.09267 147.609 8.298L147.819 7.766C148.407 8.23267 148.925 8.67133 149.373 9.082C149.83 9.49267 150.213 9.88933 150.521 10.272C150.829 10.6453 151.062 11.014 151.221 11.378C151.38 11.742 151.459 12.1107 151.459 12.484C151.459 12.6893 151.422 12.9133 151.347 13.156C151.272 13.3987 151.114 13.6273 150.871 13.842C150.628 14.0567 150.264 14.234 149.779 14.374C149.294 14.5047 148.64 14.57 147.819 14.57H146.545Z" fill="white"/>
</svg>
