<svg width="24" height="28" viewBox="0 0 24 28" fill="none" xmlns="http://www.w3.org/2000/svg">
<path d="M23.7438 19.5091C23.5018 18.9398 23.1048 18.4523 22.6106 18.0955C22.1165 17.7386 21.524 17.5124 20.891 17.4732C20.7993 17.4677 20.7292 17.4609 20.686 17.454C20.688 17.4677 20.6894 17.4781 20.6907 17.4863C20.6921 17.4946 20.6934 17.5001 20.6941 17.5021V17.5035L20.6806 17.5083L20.6341 17.5262L20.5829 17.5537L20.6072 17.52L20.6395 17.4444C20.6395 17.4444 20.6402 17.445 20.6415 17.445C20.6442 17.4457 20.651 17.4478 20.6611 17.4499C20.6678 17.4512 20.6766 17.4526 20.686 17.454C20.682 17.41 20.68 17.3385 20.6786 17.2443C20.6759 16.9596 20.6746 16.6743 20.6746 16.3883C20.6746 15.6615 20.682 14.932 20.682 14.2011C20.682 13.4702 20.6746 12.7627 20.6469 12.0408C20.5869 10.4883 20.1407 9.04987 19.3506 7.73731C18.8531 6.90948 18.2578 6.18754 17.5662 5.57904C16.8746 4.97124 16.0865 4.47619 15.2061 4.09872C15.1825 4.0884 15.1623 4.07946 15.1468 4.0719C15.1468 4.0774 15.1454 4.08222 15.1448 4.08772C15.1427 4.10009 15.1421 4.10697 15.1421 4.10903V4.11041H15.1347L15.0989 4.11384L15.0565 4.12209L15.0517 4.12416L15.0996 4.07053L15.1016 4.06778L15.1124 4.05265L15.1138 4.05402C15.1138 4.05402 15.1218 4.05953 15.1313 4.06434C15.136 4.0664 15.1407 4.06915 15.1468 4.0719C15.1704 3.92339 15.1825 3.77625 15.1825 3.63186C15.1825 3.06324 15.0059 2.53451 14.7282 2.05665C14.4841 1.63723 14.1707 1.29895 13.8046 1.04386C13.4386 0.787402 13.0213 0.613448 12.5703 0.508251L12.5366 0.5H11.4472L11.4041 0.513751C11.3218 0.539879 11.2564 0.563944 11.2066 0.575632C10.5459 0.73721 9.95472 1.13806 9.52328 1.68192C9.09252 2.22648 8.82085 2.91885 8.82018 3.66693C8.82018 3.7955 8.82894 3.92614 8.84579 4.05815C8.84579 4.05746 8.84782 4.05746 8.84849 4.05678C8.86062 4.05196 8.86939 4.04784 8.87546 4.04509L8.88017 4.04234L8.88287 4.04027H8.88354L8.89163 4.05127L8.94085 4.11522L8.91792 4.10559L8.84984 4.10078V4.0994C8.84984 4.0994 8.84984 4.09047 8.84849 4.08015C8.84714 4.07259 8.84647 4.06571 8.84579 4.05815C7.39442 4.6302 6.17965 5.55085 5.21027 6.78778C4.1364 8.15535 3.52632 9.73125 3.3652 11.4653C3.32004 11.9438 3.3106 12.4189 3.3106 12.8886C3.3106 13.2413 3.31599 13.5906 3.31667 13.9371C3.31667 14.45 3.31802 14.9629 3.31802 15.4759C3.31802 16.1029 3.31734 16.73 3.31532 17.357C3.31532 17.4031 3.31262 17.4375 3.30993 17.4602C3.32004 17.4581 3.32813 17.456 3.33285 17.4547L3.33824 17.4533L3.34094 17.4519L3.35442 17.4815L3.37397 17.5166L3.38745 17.5337L3.34296 17.5069L3.30386 17.4918H3.30453V17.4897L3.30588 17.4849C3.30723 17.4801 3.30858 17.4719 3.30993 17.4602C3.28566 17.465 3.24791 17.4691 3.1987 17.4719C3.04365 17.4808 2.88995 17.5007 2.7403 17.5269C2.01427 17.6548 1.33476 18.0398 0.831189 18.6043C0.579069 18.8869 0.37144 19.2155 0.226504 19.5799C0.0815684 19.9443 0 20.3445 0 20.768C0 20.8801 0.00539295 20.9943 0.0175271 21.1098C0.104488 21.9596 0.488062 22.707 1.06241 23.2392C1.63609 23.7713 2.40189 24.089 3.24184 24.0897C4.00697 24.0911 4.77277 24.0931 5.53857 24.0931C6.30436 24.0931 7.1032 24.0911 7.88652 24.0828H7.89596C7.93843 24.0828 7.96742 24.0862 7.98225 24.089C7.97955 24.0821 7.97753 24.0787 7.97685 24.0773H7.97618L8.01056 24.0519L8.01326 24.0491L7.99506 24.0924H7.99438L7.98966 24.0911C7.98966 24.0911 7.98562 24.0897 7.98225 24.089C7.98899 24.1048 7.99977 24.1378 8.00921 24.188C8.19055 25.0983 8.67389 25.9241 9.36756 26.525C10.0606 27.1253 10.9679 27.5 11.9852 27.5C12.1631 27.5 12.3451 27.4883 12.5292 27.4649C13.4089 27.3522 14.1922 26.9609 14.7956 26.3758C15.3996 25.7914 15.825 25.0131 15.9962 24.1296C15.9995 24.1117 16.0036 24.0979 16.007 24.0876C15.9969 24.0883 15.9901 24.0897 15.9861 24.0904H15.9827L15.9766 24.0752L15.9672 24.0512L15.9524 24.0195L15.9638 24.0333L16.0151 24.0635C16.0151 24.0635 16.0144 24.0649 16.013 24.067C16.0117 24.0711 16.0097 24.0773 16.007 24.0876C16.0198 24.0862 16.0373 24.0849 16.0595 24.0849H16.0656C16.942 24.0904 17.819 24.0931 18.696 24.0931C19.4092 24.0931 20.1225 24.0917 20.8357 24.089C21.6386 24.0849 22.4259 23.7528 23.0171 23.1725C23.3124 22.8816 23.5584 22.5282 23.731 22.1226C23.9029 21.7169 24.0007 21.2597 24 20.766V20.7357C23.9966 20.3033 23.9049 19.888 23.7438 19.5091ZM11.2524 3.31214C11.3252 3.17875 11.4351 3.06256 11.5652 2.98074C11.6953 2.89892 11.8429 2.85216 11.9939 2.8501H12.0027C12.0998 2.8501 12.1982 2.87004 12.2926 2.90923C12.4341 2.96698 12.5656 3.06737 12.6627 3.18976C12.7355 3.28258 12.7887 3.3864 12.817 3.49297C12.5575 3.46134 12.2986 3.44622 12.0404 3.44622C11.7519 3.44622 11.4641 3.46409 11.1782 3.49847C11.1951 3.43384 11.22 3.37127 11.2524 3.31214ZM13.5842 24.0876C13.4615 24.3613 13.2646 24.5992 13.0199 24.7779C12.7301 24.9897 12.3741 25.1155 12.0047 25.1203H11.9845C11.6313 25.1203 11.274 24.9938 10.9787 24.7772C10.7327 24.5971 10.5324 24.3571 10.4104 24.0876C10.9464 24.0911 11.4829 24.0924 12.0189 24.0924C12.5548 24.0924 13.0631 24.0911 13.5842 24.0876ZM21.6089 21.1008C21.5523 21.2535 21.4538 21.3965 21.3332 21.501C21.2125 21.6062 21.073 21.6729 20.9294 21.6901C20.7871 21.708 20.6294 21.7086 20.4615 21.7086C18.6825 21.7093 16.9029 21.7093 15.1239 21.7093H3.45149C3.29577 21.71 3.15488 21.7059 3.03623 21.6825C2.91624 21.6591 2.81984 21.6213 2.72546 21.5498C2.59401 21.4494 2.49626 21.3305 2.43087 21.2012C2.36548 21.072 2.33178 20.9331 2.33178 20.7873C2.33178 20.7 2.34391 20.6099 2.3702 20.5185C2.41537 20.3576 2.53132 20.1926 2.68906 20.0709C2.84613 19.9485 3.04095 19.8728 3.22634 19.8673C3.62878 19.8536 4.01236 19.7759 4.3602 19.6047C4.70872 19.4342 5.01612 19.1681 5.25813 18.8057C5.38756 18.6125 5.48801 18.4063 5.55542 18.1869C5.6235 17.9683 5.65788 17.7379 5.65788 17.5001V17.4952C5.65586 16.4687 5.65114 15.4422 5.65114 14.4177C5.65114 13.7116 5.65317 13.0061 5.66058 12.3007C5.66934 11.4117 5.82507 10.588 6.12909 9.82889C6.43312 9.06981 6.8868 8.37468 7.50093 7.74281C8.04629 7.18313 8.64491 6.75134 9.30083 6.4385C9.95674 6.12566 10.6706 5.93245 11.4479 5.85545C11.6414 5.83619 11.8328 5.82726 12.0236 5.82657C13.5141 5.82726 14.9041 6.4 16.0002 7.34953C17.0957 8.29905 17.8925 9.6233 18.1925 11.1133C18.2936 11.6152 18.3394 12.126 18.3394 12.6438V12.6589C18.3394 12.7277 18.3387 12.7964 18.3387 12.8652C18.3387 13.7418 18.3482 14.6164 18.3482 15.4882C18.3482 16.1139 18.3435 16.7369 18.3273 17.3591C18.3266 17.3797 18.3266 17.4004 18.3266 17.4203C18.3266 17.6953 18.3751 17.9793 18.4715 18.2536C18.6172 18.6648 18.8726 19.0574 19.2468 19.3537C19.6196 19.6508 20.1103 19.8453 20.6948 19.8639C20.957 19.8735 21.1606 19.9505 21.3163 20.0743C21.4707 20.1987 21.584 20.3727 21.6453 20.612C21.6601 20.6704 21.6669 20.7302 21.6669 20.7921C21.6669 20.8932 21.6473 20.9991 21.6089 21.1008Z" fill="white"/>
<circle cx="18.5" cy="6" r="3.5" fill="#CCF5FF"/>
</svg>
