<svg width="19" height="13" viewBox="0 0 19 13" fill="none" xmlns="http://www.w3.org/2000/svg">
<rect width="19" height="13" fill="#1E1E1E"/>
<g id="&#216;&#167;&#217;&#132;&#216;&#177;&#216;&#166;&#217;&#138;&#216;&#179;&#217;&#138;&#216;&#169;">
<rect width="1920" height="1080" transform="translate(-1307 -355)" fill="#0E0E0E"/>
<rect id="Rectangle 62" x="-491" y="-188" width="710" height="225" rx="8" fill="#141F25"/>
<g id="Frame 43">
<g id="Frame 41">
<g id="Frame 39">
<g id="Vector">
<path d="M1.71942 8.13062C3.35058 9.75224 6.19529 12 9.43175 12C12.6682 12 15.5124 9.75224 17.1435 8.13062C17.5737 7.70295 17.7895 7.48838 17.9265 7.06848C18.0243 6.76888 18.0243 6.23121 17.9265 5.93161C17.7895 5.51169 17.5738 5.29709 17.1435 4.86938C15.5124 3.24776 12.6682 1 9.43175 1C6.19529 1 3.35058 3.24776 1.71942 4.86938C1.2889 5.29739 1.07362 5.51154 0.936582 5.93161C0.838848 6.23121 0.838848 6.76888 0.936582 7.06848C1.07362 7.48855 1.2889 7.70261 1.71942 8.13062Z" stroke="#CCF5FF" stroke-width="1.3" stroke-linecap="round" stroke-linejoin="round"/>
<path d="M7.59823 6.50004C7.59823 7.51257 8.41905 8.33338 9.43158 8.33338C10.4441 8.33338 11.2649 7.51257 11.2649 6.50004C11.2649 5.48751 10.4441 4.66669 9.43158 4.66669C8.41905 4.66669 7.59823 5.48751 7.59823 6.50004Z" stroke="#CCF5FF" stroke-width="1.3" stroke-linecap="round" stroke-linejoin="round"/>
</g>
</g>
</g>
</g>
</g>
</svg>
