<svg width="44" height="44" viewBox="0 0 44 44" fill="none" xmlns="http://www.w3.org/2000/svg">
<path d="M24.07 15.5527H13.9227C13.5507 15.5527 13.2461 15.8573 13.2461 16.2294C13.2461 16.6008 13.5507 16.9054 13.9227 16.9054H24.07C24.442 16.9054 24.7466 16.6008 24.7466 16.2294C24.7466 15.8573 24.442 15.5527 24.07 15.5527Z" fill="#1024DD"/>
<path d="M24.07 23.6677H13.9227C13.5507 23.6677 13.2461 23.9723 13.2461 24.3444C13.2461 24.7158 13.5507 25.0204 13.9227 25.0204H24.07C24.442 25.0204 24.7466 24.7158 24.7466 24.3444C24.7466 23.9723 24.442 23.6677 24.07 23.6677Z" fill="#1024DD"/>
<path d="M24.07 31.7823H13.9227C13.5507 31.7823 13.2461 32.0869 13.2461 32.4584C13.2461 32.8304 13.5507 33.135 13.9227 33.135H24.07C24.442 33.135 24.7466 32.8304 24.7466 32.4584C24.7466 32.0869 24.442 31.7823 24.07 31.7823Z" fill="#1024DD"/>
<path d="M11.6908 22.5182C11.4203 22.2477 11.0141 22.2477 10.7436 22.5182L8.44376 24.75L7.63153 23.9384C7.361 23.6678 6.92146 23.6678 6.68435 23.9384C6.41381 24.2089 6.41381 24.6484 6.68435 24.8849L7.97017 26.1701C7.97017 26.1701 8.00359 26.2035 8.03764 26.2035L8.0717 26.2376C8.10512 26.2376 8.10512 26.2716 8.13917 26.2716C8.17323 26.2716 8.17323 26.305 8.20665 26.305C8.2407 26.305 8.27413 26.305 8.27413 26.3391H8.30818C8.34223 26.3391 8.40971 26.3391 8.44376 26.3391C8.47718 26.3391 8.54529 26.3391 8.57871 26.3391H8.61277C8.64619 26.3391 8.68024 26.3391 8.68024 26.305C8.71429 26.305 8.71429 26.2716 8.74772 26.2716C8.78177 26.2716 8.78177 26.2376 8.81582 26.2376C8.84925 26.2376 8.84925 26.2035 8.84925 26.2035C8.8833 26.2035 8.8833 26.1701 8.91735 26.1701L11.6908 23.4648C11.9613 23.2283 11.9613 22.7887 11.6908 22.5182Z" fill="#1024DD"/>
<path d="M11.6908 14.4032C11.4203 14.1327 11.0141 14.1327 10.7436 14.4032L8.44376 16.635L7.63153 15.8234C7.361 15.5528 6.92146 15.5528 6.68435 15.8234C6.41381 16.0939 6.41381 16.5334 6.68435 16.7699L7.97017 18.0551C8.00359 18.0892 8.00359 18.0892 8.03764 18.0892L8.0717 18.1226C8.10512 18.1226 8.10512 18.1566 8.13917 18.1566L8.17323 18.1901C8.20665 18.1901 8.2407 18.1901 8.2407 18.2241H8.27413C8.30818 18.2241 8.37565 18.2241 8.40971 18.2241C8.44376 18.2241 8.51124 18.2241 8.54529 18.2241H8.57871C8.61277 18.2241 8.64619 18.2241 8.64619 18.1901C8.68024 18.1901 8.68024 18.1566 8.71429 18.1566C8.74772 18.1566 8.74772 18.1226 8.78177 18.1226L8.81582 18.0892C8.84925 18.0892 8.84925 18.0551 8.8833 18.0551L11.6567 15.3504C11.9613 15.1133 11.9613 14.6738 11.6908 14.4032Z" fill="#1024DD"/>
<path d="M10.7436 30.6328L8.44376 32.8646L7.63153 32.053C7.361 31.7824 6.92146 31.7824 6.68435 32.053C6.41381 32.3235 6.41381 32.763 6.68435 32.9995L7.97017 34.2847C7.97017 34.2847 8.00359 34.3181 8.03764 34.3181L8.0717 34.3522C8.10512 34.3522 8.10512 34.3863 8.13917 34.3863C8.1726 34.3863 8.1726 34.4197 8.20665 34.4197C8.2407 34.4197 8.27413 34.4197 8.27413 34.4537H8.30818C8.34223 34.4537 8.40971 34.4537 8.44376 34.4537C8.47718 34.4537 8.54529 34.4537 8.57871 34.4537H8.61277C8.64619 34.4537 8.68024 34.4537 8.68024 34.4197C8.71429 34.4197 8.71429 34.3863 8.74772 34.3863C8.78177 34.3863 8.78177 34.3522 8.81582 34.3522C8.84925 34.3522 8.84925 34.3181 8.84925 34.3181C8.8833 34.3181 8.8833 34.2847 8.91735 34.2847L11.6908 31.5794C11.9613 31.3089 11.9613 30.9034 11.6908 30.6328C11.4537 30.3623 11.0141 30.3623 10.7436 30.6328Z" fill="#1024DD"/>
<path d="M28.1963 13.1862C29.0079 12.5436 29.6171 11.5296 29.8876 10.3125C30.3272 8.24974 29.7521 6.01863 28.3653 4.42948C26.9786 2.84033 24.8478 1.96125 22.7503 2.0962C21.7357 2.16368 20.9241 2.46827 20.349 3.00933C20.0784 3.24581 20.0444 3.68535 20.3149 3.95589C20.552 4.22642 20.9916 4.25984 21.2621 3.98994C21.6007 3.6513 22.1418 3.48229 22.8519 3.41482C24.5432 3.27987 26.2685 3.98994 27.3507 5.2745C28.4669 6.52564 28.9064 8.35127 28.5684 9.97447C28.3653 10.887 27.9599 11.6311 27.3847 12.0706C26.7081 12.5777 25.7268 12.9497 24.8137 13.0172C23.3929 13.1862 21.9728 12.5102 21.059 11.2931C20.0784 10.0079 19.8079 8.35127 20.349 6.8977C20.4845 6.49159 20.9241 5.81557 21.4311 5.74809C21.8032 5.71404 22.0743 5.37603 22.0062 5.00397C21.9728 4.6319 21.6342 4.36137 21.2621 4.42948C19.7738 4.59848 19.1313 6.25511 19.0638 6.45816C18.3531 8.35127 18.6917 10.4815 19.9429 12.1381C21.059 13.6257 22.7503 14.4714 24.4757 14.4714C24.6107 14.4714 24.7462 14.4714 24.8812 14.4714C26.0989 14.3358 27.3507 13.8963 28.1963 13.1862Z" fill="#1024DD"/>
<path d="M21.9385 10.1095C22.006 10.1095 22.0741 10.1095 22.1416 10.1095C22.209 10.1095 22.2765 10.1095 22.3446 10.1095C22.4121 10.1095 22.4796 10.0754 22.547 10.0754L22.7501 9.36601C22.8516 9.39943 22.9197 9.39943 23.0206 9.43348C23.0887 9.43348 23.1903 9.46691 23.2577 9.46691C23.3593 9.46691 23.4268 9.46691 23.5283 9.43348C23.6298 9.43348 23.6973 9.39943 23.7988 9.36601L24.0019 10.0754C24.0693 10.0754 24.1709 10.1095 24.2384 10.1095C24.3065 10.1095 24.3739 10.1095 24.4414 10.1095C24.577 10.1095 24.746 10.1095 24.9491 10.0754L23.7648 6.42419C23.6639 6.42419 23.5623 6.39014 23.4942 6.39014C23.4268 6.39014 23.3593 6.39014 23.2918 6.39014C23.2237 6.39014 23.1222 6.39014 23.0547 6.39014C22.9872 6.39014 22.8857 6.39014 22.8182 6.42419L21.668 10.0754C21.7695 10.1095 21.837 10.1095 21.9385 10.1095ZM23.2577 7.37074L23.5958 8.68936C23.5283 8.72341 23.4608 8.72341 23.4268 8.72341C23.3927 8.72341 23.3252 8.72341 23.2577 8.72341C23.1903 8.72341 23.1562 8.72341 23.0887 8.72341C23.0206 8.72341 22.9872 8.68936 22.9197 8.68936L23.2577 7.37074Z" fill="#1024DD"/>
<path d="M26.6064 7.06677C26.5389 7.06677 26.4708 7.06677 26.4374 7.06677C26.3699 7.06677 26.3018 7.06677 26.2683 7.06677C26.1668 7.1002 26.0987 7.1002 26.0653 7.1002V7.9118H25.3212C25.3212 7.97927 25.2871 8.04675 25.2871 8.11485C25.2871 8.18233 25.2871 8.24981 25.2871 8.28386C25.2871 8.35133 25.2871 8.41881 25.2871 8.45286C25.2871 8.48692 25.2871 8.58782 25.3212 8.65592H26.0653V9.46689C26.2002 9.50095 26.3358 9.50095 26.4374 9.50095C26.5048 9.50095 26.5389 9.50095 26.6064 9.50095C26.6738 9.50095 26.7419 9.46689 26.8094 9.46689V8.65592H27.5535C27.5535 8.58782 27.587 8.52034 27.587 8.45286C27.587 8.38539 27.587 8.31728 27.587 8.28386C27.587 8.21638 27.587 8.18233 27.587 8.11485C27.587 8.04675 27.5535 7.97927 27.5535 7.9118H26.7754V7.1002C26.7079 7.1002 26.6404 7.1002 26.6064 7.06677Z" fill="#1024DD"/>
<mask id="mask0_1238_1589" style="mask-type:luminance" maskUnits="userSpaceOnUse" x="26" y="17" width="18" height="27">
<path d="M26.1455 17.2289H43.5807V43.3458H26.1455V17.2289Z" fill="white"/>
</mask>
<g mask="url(#mask0_1238_1589)">
<path d="M43.3495 22.3152C43.0109 21.5036 42.1652 21.1655 41.4551 20.861C41.049 20.692 40.6435 20.5229 40.4064 20.3199C40.1699 20.1168 40.0344 19.6773 39.8653 19.2718C39.5608 18.5283 39.2227 17.7167 38.4111 17.3787C37.633 17.0401 36.8214 17.3787 36.0772 17.6827C35.6711 17.8517 35.2316 18.0207 34.893 18.0207C34.5549 18.0207 34.1488 17.8517 33.7093 17.6827C32.9992 17.3787 32.187 17.0401 31.3754 17.3787C30.5638 17.7167 30.2251 18.5617 29.9206 19.2718C29.7515 19.6773 29.5825 20.0834 29.3795 20.3199C29.1764 20.5229 28.7369 20.692 28.3314 20.861C27.6207 21.1655 26.775 21.5036 26.437 22.3152C26.0984 23.0927 26.437 23.9043 26.7416 24.6478C26.9106 25.0533 27.0796 25.4928 27.0796 25.8315C27.0796 26.1354 26.9106 26.575 26.7416 27.0145C26.437 27.7246 26.0984 28.5362 26.437 29.3478C26.775 30.1594 27.6207 30.4974 28.3314 30.8013C28.7369 30.9703 29.143 31.1393 29.3795 31.3424C29.5825 31.5455 29.7515 31.985 29.9206 32.3905C29.9546 32.492 30.0221 32.5935 30.0561 32.7285L27.4857 41.2828C27.4176 41.5533 27.4857 41.8579 27.7222 42.0269C27.9593 42.1959 28.2633 42.1959 28.5004 42.0603L30.4623 40.8098L31.4094 42.9394C31.5103 43.1765 31.7474 43.3455 32.018 43.3455H32.052C32.3226 43.3115 32.559 43.1425 32.6606 42.8719L34.8595 35.5347L37.0578 42.8719C37.1253 43.1425 37.3959 43.3455 37.667 43.3455H37.7004C37.971 43.3455 38.2081 43.1765 38.3096 42.9394L39.2562 40.8098L41.218 42.0603C41.4551 42.2293 41.7597 42.1959 41.9962 42.0269C42.2333 41.8579 42.3348 41.5533 42.2333 41.2828L39.6623 32.7285C39.6963 32.627 39.7638 32.5261 39.7979 32.3905C39.9669 31.985 40.1359 31.5789 40.3389 31.3424C40.542 31.1059 40.9815 30.9703 41.3876 30.8013C42.1318 30.4974 42.9434 30.1594 43.2814 29.3478C43.62 28.5702 43.2814 27.7586 42.9774 27.0145C42.8078 26.609 42.6388 26.1695 42.6388 25.8315C42.6388 25.5269 42.8078 25.0873 42.9774 24.6478C43.3154 23.9043 43.6534 23.0927 43.3495 22.3152ZM31.9164 40.6408L31.4094 39.4572C31.3413 39.2882 31.1723 39.1526 30.9693 39.0851C30.9018 39.0517 30.8343 39.0517 30.7662 39.0517C30.6313 39.0517 30.4957 39.0851 30.3941 39.1526L29.312 39.8626L31.0374 34.0471C31.1383 34.1152 31.2398 34.1827 31.3754 34.2161C31.6119 34.3176 31.8149 34.3517 32.052 34.3517C32.6272 34.3517 33.1682 34.1152 33.6752 33.9122C33.7433 33.8781 33.8442 33.8447 33.9123 33.8106L31.9164 40.6408ZM39.3577 39.1866C39.1887 39.0851 38.9856 39.0517 38.7832 39.1191C38.5802 39.1866 38.4446 39.3216 38.343 39.4912L37.836 40.6742L35.8061 33.8781C35.8742 33.9122 35.9757 33.9462 36.0432 33.9796C36.7533 34.2842 37.5655 34.6222 38.3771 34.2842C38.512 34.2502 38.6136 34.1827 38.7151 34.1152L40.4405 39.9307L39.3577 39.1866ZM41.7597 27.4881C41.9621 27.9611 42.1652 28.5021 42.0637 28.7727C41.9287 29.0772 41.4211 29.2797 40.88 29.4827C40.3389 29.6858 39.7979 29.9223 39.3918 30.3284C38.9856 30.7339 38.7832 31.2749 38.5461 31.816C38.343 32.323 38.1066 32.8641 37.836 32.999C37.5655 33.1006 37.0238 32.8975 36.5502 32.6951C36.0091 32.458 35.434 32.2555 34.8595 32.2555C34.2844 32.2555 33.7093 32.492 33.1682 32.6951C32.6946 32.8975 32.1536 33.1006 31.8824 32.999C31.5784 32.8641 31.3754 32.3571 31.1723 31.816C30.9693 31.2749 30.7328 30.7339 30.3267 30.3284C29.9206 29.9223 29.3795 29.7192 28.8384 29.4827C28.3314 29.2797 27.7897 29.0432 27.6548 28.7727C27.5532 28.5021 27.7563 27.9611 27.9593 27.4881C28.1958 26.947 28.3989 26.3719 28.3989 25.7974C28.3989 25.2229 28.1618 24.6478 27.9593 24.1067C27.7563 23.6338 27.5532 23.0927 27.6548 22.8222C27.7897 22.5176 28.2974 22.3152 28.8384 22.1121C29.3795 21.909 29.9206 21.6726 30.3267 21.2664C30.7328 20.861 30.9358 20.3199 31.1723 19.7788C31.3754 19.2718 31.6119 18.7307 31.8824 18.5958C31.9164 18.5617 31.9839 18.5617 32.052 18.5617C32.356 18.5617 32.7621 18.7307 33.1682 18.8997C33.7093 19.1369 34.2844 19.3393 34.8595 19.3393C35.434 19.3393 36.0091 19.1028 36.5502 18.8997C37.0238 18.6973 37.5655 18.4943 37.836 18.5958C38.14 18.7307 38.343 19.2378 38.5461 19.7788C38.7492 20.3199 38.9856 20.861 39.3918 21.2664C39.7979 21.6726 40.3389 21.8756 40.88 22.1121C41.3876 22.3152 41.9287 22.5516 42.0637 22.8222C42.1652 23.0927 41.9621 23.6338 41.7597 24.1067C41.5226 24.6478 41.3195 25.2229 41.3195 25.7974C41.3195 26.3719 41.5567 26.947 41.7597 27.4881Z" fill="#1024DD"/>
</g>
<path d="M34.8935 21.0645C32.2891 21.0645 30.1582 23.1947 30.1582 25.7978C30.1582 28.401 32.2891 30.5312 34.8935 30.5312C37.4979 30.5312 39.6288 28.401 39.6288 25.7978C39.6288 23.1947 37.4979 21.0645 34.8935 21.0645ZM34.8935 29.1792C33.0332 29.1792 31.5109 27.6575 31.5109 25.7978C31.5109 23.9382 33.0332 22.4165 34.8935 22.4165C36.7538 22.4165 38.2761 23.9382 38.2761 25.7978C38.2761 27.6575 36.7538 29.1792 34.8935 29.1792Z" fill="#1024DD"/>
<mask id="mask1_1238_1589" style="mask-type:luminance" maskUnits="userSpaceOnUse" x="0" y="0" width="32" height="41">
<path d="M0 0H31.9577V40.6374H0V0Z" fill="white"/>
</mask>
<g mask="url(#mask1_1238_1589)">
<path d="M2.04961 40.5731H26.3018L26.7079 39.2211H2.04961C1.7116 39.2211 1.40701 38.9505 1.40701 38.5785V1.99463C1.40701 1.62257 1.67754 1.35204 2.04961 1.35204H29.8875C30.2255 1.35204 30.5301 1.62257 30.5301 1.99463V16.3304C30.6656 16.2629 30.7665 16.1954 30.9021 16.128C31.2401 15.9924 31.5447 15.9249 31.8827 15.8909V1.99463C31.8493 0.879077 30.9696 0 29.8534 0H2.04961C0.933418 0 0.0537109 0.879077 0.0537109 1.99463V38.6125C0.0537109 39.694 0.933418 40.5731 2.04961 40.5731Z" fill="#1024DD"/>
</g>
</svg>
