<svg width="39" height="39" viewBox="0 0 39 39" fill="none" xmlns="http://www.w3.org/2000/svg">
<mask id="mask0_1238_1566" style="mask-type:luminance" maskUnits="userSpaceOnUse" x="0" y="0" width="31" height="39">
<path d="M0.889648 0H30.921V39H0.889648V0Z" fill="white"/>
</mask>
<g mask="url(#mask0_1238_1566)">
<path d="M28.2203 0.00842285H7.39675C5.95904 0.00842285 4.79434 1.17148 4.79434 2.607V3.90657H3.4926C2.05434 3.90657 0.889648 5.06962 0.889648 6.50515V36.3924C0.889648 37.8279 2.05434 38.991 3.4926 38.991H24.3156C25.7539 38.991 26.9186 37.8279 26.9186 36.3924V35.0928H28.2203C29.658 35.0928 30.8227 33.9298 30.8227 32.4937V2.607C30.8227 1.17148 29.658 0.00842285 28.2203 0.00842285ZM25.6174 36.3924C25.6174 37.1071 25.0315 37.6914 24.3156 37.6914H3.4926C2.77675 37.6914 2.1914 37.1071 2.1914 36.3924V6.50515C2.1914 5.79093 2.77675 5.20613 3.4926 5.20613H24.3156C25.0315 5.20613 25.6174 5.79093 25.6174 6.50515V36.3924ZM29.5215 32.4937C29.5215 33.2084 28.9356 33.7932 28.2203 33.7932H26.9186V6.50515C26.9186 5.06962 25.7539 3.90657 24.3156 3.90657H6.09555V2.607C6.09555 1.89224 6.68144 1.30744 7.39675 1.30744H28.2203C28.9356 1.30744 29.5215 1.89224 29.5215 2.607V32.4937Z" fill="#1024DD"/>
</g>
<path d="M23.0148 7.80505H11.9521C11.5944 7.80505 11.3018 8.09773 11.3018 8.45484C11.3018 8.81249 11.5944 9.10462 11.9521 9.10462H23.0148C23.3724 9.10462 23.6656 8.81249 23.6656 8.45484C23.6656 8.09773 23.3724 7.80505 23.0148 7.80505Z" fill="#1024DD"/>
<path d="M11.9521 11.7031H17.158C17.5162 11.7031 17.8089 11.4109 17.8089 11.0538C17.8089 10.6962 17.5162 10.4041 17.158 10.4041H11.9521C11.5944 10.4041 11.3018 10.6962 11.3018 11.0538C11.3018 11.4109 11.5944 11.7031 11.9521 11.7031Z" fill="#1024DD"/>
<path d="M23.0148 15.6019H11.9521C11.5944 15.6019 11.3018 15.8941 11.3018 16.2517C11.3018 16.6088 11.5944 16.9009 11.9521 16.9009H23.0148C23.3724 16.9009 23.6656 16.6088 23.6656 16.2517C23.6656 15.8941 23.3724 15.6019 23.0148 15.6019Z" fill="#1024DD"/>
<path d="M11.9521 19.4999H17.158C17.5162 19.4999 17.8089 19.2078 17.8089 18.8501C17.8089 18.493 17.5162 18.2003 17.158 18.2003H11.9521C11.5944 18.2003 11.3018 18.493 11.3018 18.8501C11.3018 19.2078 11.5944 19.4999 11.9521 19.4999Z" fill="#1024DD"/>
<path d="M8.69858 22.7483H4.79443C4.43623 22.7483 4.14355 23.041 4.14355 23.3981V27.2962C4.14355 27.6539 4.43623 27.946 4.79443 27.946H8.69858C9.05623 27.946 9.34945 27.6539 9.34945 27.2962V23.3981C9.34945 23.041 9.05623 22.7483 8.69858 22.7483ZM8.0477 26.647H5.44476V24.0479H8.0477V26.647Z" fill="#1024DD"/>
<path d="M23.0148 23.3982H11.9521C11.5944 23.3982 11.3018 23.6909 11.3018 24.048C11.3018 24.4056 11.5944 24.6978 11.9521 24.6978H23.0148C23.3724 24.6978 23.6656 24.4056 23.6656 24.048C23.6656 23.6909 23.3724 23.3982 23.0148 23.3982Z" fill="#1024DD"/>
<path d="M11.9521 27.2962H17.158C17.5162 27.2962 17.8089 27.0041 17.8089 26.647C17.8089 26.2893 17.5162 25.9972 17.158 25.9972H11.9521C11.5944 25.9972 11.3018 26.2893 11.3018 26.647C11.3018 27.0041 11.5944 27.2962 11.9521 27.2962Z" fill="#1024DD"/>
<path d="M8.69858 30.5452H4.79443C4.43623 30.5452 4.14355 30.8373 4.14355 31.1949V35.0931C4.14355 35.4502 4.43623 35.7429 4.79443 35.7429H8.69858C9.05623 35.7429 9.34945 35.4502 9.34945 35.0931V31.1949C9.34945 30.8373 9.05623 30.5452 8.69858 30.5452ZM8.0477 34.4433H5.44476V31.8447H8.0477V34.4433Z" fill="#1024DD"/>
<path d="M23.0148 31.1949H11.9521C11.5944 31.1949 11.3018 31.4871 11.3018 31.8447C11.3018 32.2018 11.5944 32.494 11.9521 32.494H23.0148C23.3724 32.494 23.6656 32.2018 23.6656 31.8447C23.6656 31.4871 23.3724 31.1949 23.0148 31.1949Z" fill="#1024DD"/>
<path d="M17.158 33.7935H11.9521C11.5944 33.7935 11.3018 34.0861 11.3018 34.4432C11.3018 34.8009 11.5944 35.093 11.9521 35.093H17.158C17.5162 35.093 17.8089 34.8009 17.8089 34.4432C17.8089 34.0861 17.5162 33.7935 17.158 33.7935Z" fill="#1024DD"/>
<path d="M5.63337 12.1645C5.75677 12.2879 5.91949 12.3529 6.09531 12.3529C6.11497 12.3529 6.14064 12.3529 6.16029 12.3529C6.35577 12.3338 6.53105 12.2295 6.63534 12.0673L9.23829 8.1692C9.43978 7.86997 9.35569 7.467 9.05592 7.26606C8.75669 7.06457 8.35317 7.14866 8.15168 7.44789L5.99102 10.6831L5.24951 9.94272C4.9956 9.68936 4.58553 9.68936 4.33162 9.94272C4.07826 10.1961 4.07826 10.6056 4.33162 10.859L5.63337 12.158V12.1645Z" fill="#1024DD"/>
<path d="M5.63337 19.9615C5.75677 20.0849 5.91949 20.1498 6.09531 20.1498C6.11497 20.1498 6.14064 20.1498 6.16029 20.1498C6.35577 20.1302 6.53105 20.0264 6.63534 19.8637L9.23829 15.9656C9.43978 15.6669 9.35569 15.2639 9.05592 15.0624C8.75669 14.8609 8.35317 14.9456 8.15168 15.2443L5.99102 18.4801L5.24951 17.7391C4.9956 17.4857 4.58553 17.4857 4.33162 17.7391C4.07826 17.9925 4.07826 18.402 4.33162 18.6553L5.63337 19.9549V19.9615Z" fill="#1024DD"/>
<mask id="mask1_1238_1566" style="mask-type:luminance" maskUnits="userSpaceOnUse" x="33" y="9" width="6" height="30">
<path d="M33.2979 9.09973H38.6321V39.0001H33.2979V9.09973Z" fill="white"/>
</mask>
<g mask="url(#mask1_1238_1566)">
<path d="M36.0287 9.10461C34.591 9.10461 33.4258 10.2677 33.4258 11.7032V35.0932C33.4258 35.21 33.4585 35.3269 33.517 35.4246L35.469 38.673C35.5864 38.8679 35.801 38.9913 36.0287 38.9913C36.2564 38.9913 36.4716 38.8744 36.5884 38.673L38.5405 35.4246C38.5995 35.3203 38.6317 35.21 38.6317 35.0932V11.7032C38.6317 10.2677 37.467 9.10461 36.0287 9.10461ZM34.7275 14.3023H37.3305V15.6019H34.7275V14.3023ZM36.0287 10.4042C36.7446 10.4042 37.3305 10.989 37.3305 11.7032V13.0028H34.7275V11.7032C34.7275 10.989 35.3129 10.4042 36.0287 10.4042ZM36.0287 37.0813L34.7275 34.9179V16.9075H37.3305V34.9179L36.0287 37.0813Z" fill="#1024DD"/>
</g>
</svg>
