<svg width="325" height="325" viewBox="0 0 325 325" fill="none" xmlns="http://www.w3.org/2000/svg">
<mask id="mask0_1499_1010" style="mask-type:luminance" maskUnits="userSpaceOnUse" x="0" y="0" width="325" height="325">
<path d="M0 0H325V325H0V0Z" fill="white"/>
</mask>
<g mask="url(#mask0_1499_1010)">
<mask id="mask1_1499_1010" style="mask-type:luminance" maskUnits="userSpaceOnUse" x="0" y="0" width="325" height="325">
<path fill-rule="evenodd" clip-rule="evenodd" d="M230.001 159.902H94.9993C88.1737 159.902 82.641 154.362 82.641 147.544V138.833C82.641 137.004 81.152 135.519 79.3261 135.519C77.4963 135.519 76.0112 137.004 76.0112 138.833V147.544C76.0112 158.025 84.514 166.532 94.9993 166.532H103.635C105.14 172.899 110.857 177.648 117.682 177.648H134.727C135.346 181.249 136.957 184.513 139.272 187.146H114.129C107.847 187.146 102.15 189.67 97.989 193.749C97.174 193.533 96.3276 193.427 95.4499 193.423C71.9636 193.337 56.835 188.898 47.9013 177.664C46.765 176.23 44.6765 175.991 43.2463 177.131C41.8122 178.271 41.5732 180.356 42.7056 181.794C52.4034 193.988 68.4175 199.661 93.4281 200.033C92.2683 202.396 91.4964 204.974 91.1986 207.694C64.3621 206.945 47.2626 199.908 36.6793 186.59C27.0011 174.419 22.7301 156.603 21.8602 132.772C23.0945 133.277 24.4463 133.555 25.8687 133.555C27.2518 133.555 28.5801 133.289 29.7948 132.807C30.3159 148.951 32.2868 162.057 36.93 172.249C37.6941 173.914 39.6572 174.651 41.3225 173.894C42.9917 173.134 43.7283 171.167 42.9681 169.506C37.9057 158.394 36.3854 143.598 36.2874 124.978C36.3462 124.641 36.4011 124.304 36.4324 123.96C45.4484 119.92 51.7334 110.857 51.7334 100.344C51.7334 98.5141 50.2484 97.029 48.4185 97.029C46.5887 97.029 45.1036 98.5141 45.1036 100.344C45.1036 107.706 40.9581 114.109 34.8808 117.338C33.0039 114.332 29.6694 112.33 25.8687 112.33C22.0679 112.33 18.7295 114.332 16.8526 117.338C10.7793 114.109 6.63369 107.706 6.63369 100.344C6.63369 98.5141 5.14865 97.029 3.31489 97.029C1.48504 97.029 0 98.5141 0 100.344C0 110.778 6.18701 119.775 15.0894 123.866C15.0698 124.018 15.0541 124.175 15.0541 124.336C15.1952 154.354 19.9716 176.23 31.4836 190.716C42.2511 204.253 59.0058 212.29 84.8979 214.037H66.239C59.7542 214.037 54.4919 219.296 54.4919 225.777C54.4919 231.11 58.0536 235.612 62.9241 237.046V259.368C62.9241 261.202 64.4013 262.687 66.239 262.687H67.4341C67.0109 263.867 66.7758 265.14 66.7758 266.472V271.719C60.4046 273.22 55.6595 278.944 55.6595 285.77V294.496C55.6595 301.322 60.4046 307.046 66.7758 308.543V313.798C66.7758 319.981 71.799 325 77.9782 325H129.966C136.149 325 141.169 319.981 141.169 313.798V297.039H151.298V297.987C151.298 301.992 154.546 305.248 158.554 305.248H166.446C170.454 305.248 173.702 301.992 173.702 297.987V297.039H183.831V313.798C183.831 315.063 184.043 316.325 184.466 317.52C184.827 318.535 185.328 319.495 185.959 320.365C186.629 321.285 187.444 322.108 188.361 322.79C189.321 323.507 190.402 324.071 191.542 324.444C192.667 324.816 193.854 325 195.034 325C212.364 325 229.695 325 247.018 325C248.205 325 249.388 324.816 250.517 324.444C251.657 324.071 252.731 323.507 253.699 322.79C254.615 322.108 255.43 321.285 256.1 320.365C256.731 319.495 257.233 318.535 257.593 317.52C258.009 316.325 258.224 315.063 258.224 313.798V308.543L258.256 308.539C259.584 308.218 260.861 307.716 262.048 307.038C263.694 306.098 265.152 304.836 266.316 303.34C267.35 302 268.153 300.487 268.663 298.873C269.113 297.462 269.34 295.981 269.34 294.496C269.34 291.593 269.34 288.681 269.34 285.77C269.34 284.853 269.254 283.936 269.082 283.043C268.796 281.55 268.271 280.104 267.534 278.776C266.903 277.643 266.116 276.589 265.199 275.661C264.278 274.716 263.232 273.909 262.088 273.251C260.897 272.561 259.596 272.052 258.256 271.727L258.224 271.719V266.472C258.224 265.14 257.989 263.867 257.566 262.687H258.765C260.599 262.687 262.084 261.202 262.084 259.368V237.046C266.942 235.612 270.504 231.11 270.504 225.777C270.504 219.296 265.246 214.037 258.765 214.037H240.102C265.994 212.29 282.749 204.253 293.516 190.716C294.657 189.282 294.418 187.193 292.984 186.061C291.553 184.921 289.461 185.156 288.321 186.59C277.737 199.908 260.638 206.945 233.801 207.694C233.504 204.974 232.732 202.388 231.572 200.033C256.582 199.661 272.597 193.988 282.29 181.794C291.126 170.674 294.488 154.456 295.201 132.807C296.42 133.289 297.748 133.555 299.131 133.555C300.554 133.555 301.906 133.277 303.14 132.772C302.431 151.987 299.496 167.308 293.317 178.929C292.455 180.54 293.07 182.55 294.68 183.412C296.302 184.27 298.309 183.659 299.167 182.041C306.635 168.005 309.824 148.903 309.942 124.336C309.942 124.175 309.93 124.018 309.911 123.866C318.813 119.775 325 110.778 325 100.344C325 98.5141 323.515 97.029 321.685 97.029C319.851 97.029 318.366 98.5141 318.366 100.344C318.366 107.706 314.221 114.109 308.147 117.338C306.271 114.332 302.932 112.33 299.131 112.33C295.331 112.33 291.996 114.332 290.119 117.338C284.042 114.109 279.896 107.706 279.896 100.344C279.896 98.5141 278.411 97.029 276.581 97.029C274.752 97.029 273.267 98.5141 273.267 100.344C273.267 110.857 279.552 119.92 288.568 123.96C288.599 124.304 288.654 124.641 288.713 124.978C288.587 148.676 286.24 166.168 277.099 177.664C268.165 188.898 253.036 193.337 229.55 193.423C228.672 193.427 227.826 193.533 227.011 193.741C222.85 189.67 217.153 187.146 210.871 187.146H185.728C188.043 184.513 189.654 181.249 190.269 177.648H207.318C214.143 177.648 219.86 172.899 221.365 166.532H230.001C240.486 166.532 248.997 158.025 248.997 147.544V111.296L249.024 111.292C250.348 110.97 251.638 110.469 252.817 109.791C254.463 108.851 255.92 107.581 257.08 106.088C258.115 104.748 258.918 103.24 259.431 101.625C259.882 100.215 260.105 98.7335 260.105 97.2485C260.105 87.9307 260.105 78.6051 260.105 69.2835C260.105 67.8063 259.882 66.3213 259.431 64.9146C258.918 63.2963 258.115 61.7839 257.08 60.4438C255.92 58.9509 254.463 57.6853 252.817 56.741C251.638 56.067 250.348 55.5616 249.024 55.2442L248.997 55.2364V39.3124C248.997 37.4825 247.504 35.9975 245.682 35.9975C243.848 35.9975 242.363 37.4825 242.363 39.3124V147.544C242.363 154.362 236.826 159.902 230.001 159.902ZM251.591 308.77C250.196 309.401 248.652 309.746 247.018 309.746H195.034C193.408 309.746 191.864 309.401 190.465 308.77V313.798C190.465 316.317 192.514 318.366 195.034 318.366H247.018C249.545 318.366 251.591 316.317 251.591 313.798V308.77ZM73.4095 292.85V298.544C73.4095 301.063 75.4548 303.112 77.9782 303.112H84.3533C86.1832 303.112 87.6721 304.597 87.6721 306.427C87.6721 308.261 86.1832 309.746 84.3533 309.746H77.9782C76.3482 309.746 74.8044 309.401 73.4095 308.77V313.825C73.4095 314.362 73.5113 314.891 73.6955 315.396C73.9737 316.145 74.4517 316.815 75.0669 317.328C75.5136 317.685 76.023 317.971 76.5676 318.143C77.0182 318.296 77.5041 318.366 77.9782 318.366C95.305 318.366 112.636 318.366 129.966 318.366C130.444 318.366 130.922 318.296 131.381 318.143C131.922 317.971 132.427 317.685 132.874 317.328C133.489 316.815 133.967 316.145 134.245 315.396C134.437 314.891 134.531 314.362 134.535 313.825V308.77C133.136 309.401 131.592 309.746 129.966 309.746H94.968C93.1342 309.746 91.6492 308.261 91.6492 306.427C91.6492 304.597 93.1342 303.112 94.968 303.112H129.966C131.612 303.112 133.066 302.239 133.865 300.922C134.053 300.62 134.276 300.362 134.535 300.134V292.85C133.136 293.481 131.592 293.826 129.966 293.826H77.9782C76.3482 293.826 74.8044 293.481 73.4095 292.85ZM251.591 276.703C250.196 277.326 248.652 277.675 247.018 277.675H195.034C193.408 277.675 191.864 277.326 190.465 276.703V284.214C190.724 284.442 190.947 284.7 191.135 285.006C191.934 286.318 193.388 287.196 195.034 287.196H223.222C225.052 287.196 226.537 288.681 226.537 290.511C226.537 292.341 225.052 293.826 223.222 293.826H195.034C193.408 293.826 191.864 293.481 190.465 292.85V300.134C190.724 300.362 190.947 300.62 191.135 300.922C191.934 302.239 193.388 303.112 195.034 303.112H247.018C249.545 303.112 251.591 301.063 251.591 298.544V292.85C250.196 293.481 248.652 293.826 247.018 293.826H236.485C234.656 293.826 233.171 292.341 233.171 290.511C233.171 288.681 234.656 287.196 236.485 287.196H247.018C249.545 287.196 251.591 285.143 251.591 282.624V276.703ZM258.224 278.713V301.561C260.877 300.315 262.707 297.619 262.707 294.496V285.77C262.707 282.651 260.877 279.959 258.224 278.713ZM66.7523 278.717C66.1488 279.011 65.5768 279.375 65.0596 279.814C64.4444 280.335 63.9037 280.958 63.4726 281.648C63.0769 282.279 62.7791 282.964 62.5793 283.678C62.3873 284.363 62.2932 285.065 62.2932 285.77C62.2932 288.681 62.2932 291.593 62.2932 294.496C62.2932 295.299 62.4147 296.103 62.6576 296.867C63.1043 298.258 63.9468 299.511 65.0596 300.452C65.5768 300.891 66.1488 301.255 66.7523 301.549L66.7758 301.561V278.713L66.7523 278.717ZM167.069 279.023V297.987C167.069 298.332 166.791 298.614 166.446 298.614H158.554C158.209 298.614 157.931 298.332 157.931 297.987V279.023C157.931 278.67 158.209 278.392 158.554 278.392H166.446C166.791 278.392 167.069 278.67 167.069 279.023ZM173.702 285.562V290.405H183.831V285.562H173.702ZM141.169 285.562V290.405H151.298V285.562H141.169ZM134.535 268.067V262.687H75.4196C74.2049 263.51 73.4095 264.897 73.4095 266.472C73.4095 268.996 75.4548 271.045 77.9782 271.045H109.724C111.554 271.045 113.039 272.53 113.039 274.36C113.039 276.19 111.554 277.675 109.724 277.675H77.9782C76.3482 277.675 74.8044 277.326 73.4095 276.703V282.624C73.4095 285.143 75.4548 287.196 77.9782 287.196H129.966C131.612 287.196 133.066 286.318 133.865 285.006C134.053 284.7 134.276 284.442 134.535 284.214V276.703C133.136 277.326 131.592 277.675 129.966 277.675H120.335C118.505 277.675 117.02 276.19 117.02 274.36C117.02 272.53 118.505 271.045 120.335 271.045H129.966C131.612 271.045 133.066 270.163 133.865 268.855C134.053 268.549 134.276 268.286 134.535 268.067ZM173.702 278.929H183.831V269.791H141.169V278.929H151.298C151.345 274.963 154.581 271.762 158.554 271.762H166.446C170.419 271.762 173.655 274.963 173.702 278.929ZM249.58 262.687H190.465V268.067C190.724 268.286 190.947 268.549 191.135 268.855C191.934 270.163 193.388 271.045 195.034 271.045H247.018C249.545 271.045 251.591 268.996 251.591 266.472C251.591 264.897 250.795 263.51 249.58 262.687ZM151.164 237.524H145.024V259.368C145.024 261.202 143.535 262.687 141.706 262.687H141.169V263.157H183.831V262.687H183.294C181.465 262.687 179.976 261.202 179.976 259.368V237.524H173.836L165.258 250.384C164.643 251.305 163.609 251.861 162.5 251.861C161.391 251.861 160.357 251.305 159.742 250.384L151.164 237.524ZM255.45 237.524H186.609V256.053H250.407C250.442 256.053 250.47 256.053 250.501 256.053H255.45V237.524ZM139.931 220.667H66.239C63.4139 220.667 61.1256 222.956 61.1256 225.777C61.1256 228.602 63.4139 230.89 66.239 230.89H84.3533C86.1832 230.89 87.6721 232.375 87.6721 234.205C87.6721 236.035 86.1832 237.524 84.3533 237.524H69.5578V256.053H74.4988C74.5301 256.053 74.5575 256.053 74.5889 256.053H138.391V237.524H94.968C93.1342 237.524 91.6492 236.035 91.6492 234.205C91.6492 232.375 93.1342 230.89 94.968 230.89H146.741L139.931 220.667ZM210.871 193.78H114.129C105.062 193.78 97.6991 201.142 97.6991 210.217V214.037H138.391V206.961C138.391 205.127 139.876 203.642 141.706 203.642H162.5C164.33 203.642 165.815 205.127 165.815 206.961C165.815 208.791 164.33 210.276 162.5 210.276H145.024V216.349L162.5 242.571L179.976 216.349V210.276H173.777C171.943 210.276 170.458 208.791 170.458 206.961C170.458 205.127 171.943 203.642 173.777 203.642H183.294C185.124 203.642 186.609 205.127 186.609 206.961V214.037H227.301V210.217C227.301 206.244 225.894 202.6 223.547 199.763C220.53 196.107 215.973 193.78 210.871 193.78ZM258.765 220.667H185.069L178.259 230.89H258.765C261.586 230.89 263.874 228.602 263.874 225.777C263.874 222.956 261.586 220.667 258.765 220.667ZM183.486 177.648H141.514C142.975 183.114 147.967 187.146 153.895 187.146H171.101C177.033 187.146 182.025 183.114 183.486 177.648ZM214.374 166.532H110.626L110.641 166.552C110.923 167.163 111.296 167.735 111.727 168.252C112.252 168.867 112.875 169.404 113.564 169.835C114.195 170.227 114.877 170.533 115.602 170.732C116.276 170.917 116.981 171.018 117.682 171.018C147.563 171.018 177.437 171.018 207.318 171.018C208.019 171.018 208.724 170.917 209.406 170.732C210.123 170.533 210.805 170.227 211.436 169.835C212.125 169.404 212.748 168.867 213.273 168.252C213.712 167.735 214.077 167.163 214.359 166.552L214.374 166.532ZM138.285 133.027C138.418 133.383 138.61 133.72 138.873 134.026C139.194 134.406 139.586 134.696 140.001 134.888C140.428 135.08 140.898 135.193 141.396 135.193C142.156 135.193 142.92 134.927 143.543 134.398C149.883 128.998 156.172 126.166 162.508 126.162C168.836 126.146 175.117 128.951 181.441 134.39C181.794 134.688 182.186 134.907 182.597 135.033L182.605 135.041C182.875 135.119 183.153 135.174 183.432 135.185H183.459C183.498 135.193 183.537 135.193 183.577 135.193H183.604C184.54 135.193 185.461 134.801 186.12 134.041C186.656 133.41 186.923 132.639 186.923 131.878C186.923 118.439 175.936 106.547 162.5 106.547C149.06 106.547 138.077 118.439 138.077 131.878C138.077 132.282 138.152 132.666 138.285 133.027ZM76.0112 54.9503C68.8486 55.7928 63.2767 61.8975 63.2767 69.2835V97.2485C63.2767 104.638 68.8486 110.739 76.0112 111.582V128.223C76.0112 130.053 77.4963 131.538 79.3261 131.538C81.152 131.538 82.641 130.053 82.641 128.223V18.9881C82.641 12.1703 88.1737 6.63369 94.9993 6.63369H103.855C105.685 6.63369 107.17 5.14865 107.17 3.31489C107.17 1.48504 105.685 0 103.855 0H94.9993C84.514 0 76.0112 8.51056 76.0112 18.9881V54.9503ZM295.331 124.136C295.844 125.754 297.356 126.922 299.131 126.922C301.33 126.922 303.112 125.139 303.112 122.945C303.112 120.747 301.33 118.964 299.131 118.964C296.937 118.964 295.154 120.747 295.154 122.945C295.154 123.101 295.158 123.254 295.178 123.399C295.26 123.638 295.311 123.885 295.331 124.136ZM29.8222 123.399C29.8418 123.254 29.8457 123.101 29.8457 122.945C29.8457 120.747 28.0629 118.964 25.8687 118.964C23.6705 118.964 21.8877 120.747 21.8877 122.945C21.8877 125.139 23.6705 126.922 25.8687 126.922C27.6437 126.922 29.1561 125.754 29.6694 124.136C29.689 123.885 29.7399 123.638 29.8222 123.399ZM178.651 124.218C175.83 117.863 169.674 113.18 162.5 113.18C155.31 113.18 149.143 117.882 146.337 124.249C151.721 121.091 157.12 119.536 162.492 119.528C167.864 119.512 173.264 121.052 178.651 124.218ZM75.9956 61.6781C75.2667 61.8426 74.5654 62.1091 73.9149 62.4735C72.998 62.9829 72.1909 63.6803 71.5483 64.511C70.9762 65.2476 70.5374 66.0822 70.2592 66.9717C70.028 67.7201 69.9065 68.5038 69.9065 69.2835C69.9065 78.6051 69.9065 87.9307 69.9065 97.2485C69.9065 98.036 70.028 98.8197 70.2592 99.5681C70.5374 100.454 70.9762 101.296 71.5483 102.025C72.1909 102.852 72.998 103.549 73.9149 104.058C74.5654 104.427 75.2667 104.689 75.9956 104.858L76.0112 104.862V61.6702L75.9956 61.6781ZM248.997 62.2266V104.305C251.641 103.059 253.475 100.367 253.475 97.2485V69.2835C253.475 66.1684 251.641 63.4766 248.997 62.2266ZM126.51 63.0651C119.575 63.0651 113.937 68.6997 113.937 75.6468C113.937 82.5901 119.575 88.2207 126.51 88.2207C133.454 88.2207 139.092 82.5901 139.092 75.6468C139.092 68.6997 133.454 63.0651 126.51 63.0651ZM198.49 63.0651C191.542 63.0651 185.908 68.6997 185.908 75.6468C185.908 82.5901 191.542 88.2207 198.49 88.2207C205.425 88.2207 211.063 82.5901 211.063 75.6468C211.063 68.6997 205.425 63.0651 198.49 63.0651ZM126.51 69.6949C129.794 69.6949 132.462 72.3633 132.462 75.6468C132.462 78.9304 129.794 81.587 126.51 81.587C123.235 81.587 120.57 78.9304 120.57 75.6468C120.57 72.3633 123.235 69.6949 126.51 69.6949ZM198.49 69.6949C201.773 69.6949 204.43 72.3633 204.43 75.6468C204.43 78.9304 201.773 81.587 198.49 81.587C195.206 81.587 192.538 78.9304 192.538 75.6468C192.538 72.3633 195.206 69.6949 198.49 69.6949ZM215.092 56.9016C208.446 54.966 203.027 51.4356 199.101 45.9774C198.023 44.4924 195.954 44.1554 194.469 45.2212C192.984 46.2948 192.644 48.3676 193.713 49.8526C198.521 56.5294 205.108 60.9022 213.234 63.2689C214.99 63.7783 216.835 62.7713 217.345 61.0159C217.862 59.2565 216.847 57.411 215.092 56.9016ZM111.766 63.2689C119.892 60.9022 126.479 56.5294 131.287 49.8526C132.353 48.3676 132.016 46.2948 130.531 45.2212C129.046 44.1554 126.977 44.4924 125.899 45.9774C121.973 51.4356 116.554 54.966 109.908 56.9016C108.153 57.411 107.142 59.2565 107.655 61.0159C108.165 62.7713 110.01 63.7783 111.766 63.2689ZM248.997 27.3733V18.9881C248.997 8.51056 240.486 0 230.001 0H115.128C113.298 0 111.813 1.48504 111.813 3.31489C111.813 5.14865 113.298 6.63369 115.128 6.63369H230.001C236.826 6.63369 242.363 12.1703 242.363 18.9881V27.3733C242.363 29.2031 243.848 30.6882 245.682 30.6882C247.504 30.6882 248.997 29.2031 248.997 27.3733Z" fill="white"/>
</mask>
<g mask="url(#mask1_1499_1010)">
<path d="M0 0V325H325V0H0Z" fill="url(#paint0_linear_1499_1010)"/>
</g>
</g>
<defs>
<linearGradient id="paint0_linear_1499_1010" x1="-2.67237" y1="55.6189" x2="337.159" y2="71.947" gradientUnits="userSpaceOnUse">
<stop stop-color="#1024DD"/>
<stop offset="1" stop-color="#1EE0BB"/>
</linearGradient>
</defs>
</svg>
