<svg width="103" height="123" viewBox="0 0 103 123" fill="none" xmlns="http://www.w3.org/2000/svg">
<g clip-path="url(#clip0_41_145)">
<path d="M78.2134 3.96476L78.2192 3.97342C78.2192 3.97342 78.2221 3.98207 78.225 3.99073H78.2279L78.2452 3.9965H78.2481L78.2539 3.98207L78.2885 3.92725L78.2134 3.96476ZM24.7103 3.92725L24.7421 3.9763V3.98207L24.7507 3.9965H24.7536C24.7536 3.9965 24.7652 3.99073 24.7767 3.98784L24.7825 3.96764H24.7854L24.7103 3.92725ZM78.2134 3.96476L78.2192 3.97342C78.2192 3.97342 78.2221 3.98207 78.225 3.99073H78.2279L78.2452 3.9965H78.2481L78.2539 3.98207L78.2885 3.92725L78.2134 3.96476ZM39.2871 49.2891L39.1917 49.2343L39.186 49.2429C39.1744 49.2574 39.1484 49.2833 39.1109 49.3208C39.1195 49.3266 39.1282 49.3353 39.134 49.341L39.1802 49.3901L39.1889 49.3988V49.4045L39.1917 49.4074L39.3391 49.3208H39.3795L39.2871 49.2891ZM24.7103 3.92725L24.7421 3.9763V3.98207L24.7507 3.9965H24.7536C24.7536 3.9965 24.7652 3.99073 24.7767 3.98784L24.7825 3.96764H24.7854L24.7103 3.92725ZM13.8398 68.6545C13.8138 68.6689 13.7936 68.6775 13.7791 68.6804H13.7676L13.7791 68.7439V68.842L13.808 68.793L13.8138 68.7872L13.8802 68.7237C13.8802 68.7237 13.86 68.6977 13.8398 68.6545Z" fill="#B4CED4"/>
<path d="M93.1736 24.7528C92.9511 24.3171 92.6131 23.9506 92.1885 23.6303C89.0917 21.2901 86.0267 18.895 82.9213 16.5519C82.6844 16.3701 82.5486 16.2114 82.462 16.0382C82.3753 15.8651 82.332 15.6602 82.332 15.3688V15.3486C82.3435 13.2219 82.3493 11.0952 82.3493 8.9656C82.3493 6.83602 82.3435 4.8334 82.3435 2.7673C82.3406 2.27964 82.3146 1.86988 82.228 1.51206C82.1644 1.24081 82.0662 0.995537 81.9131 0.784887C81.8004 0.629064 81.656 0.49344 81.4942 0.386672C81.2487 0.227964 80.9627 0.132738 80.6449 0.0779116C80.3272 0.0201993 79.9689 0 79.5587 0H23.4442C22.9531 0 22.5429 0.0288561 22.1789 0.112539C21.9102 0.173137 21.6618 0.271248 21.4509 0.4213C21.292 0.530953 21.1533 0.672348 21.0465 0.836828C20.8847 1.07922 20.7894 1.36201 20.7345 1.67943C20.6767 1.99685 20.6565 2.35178 20.6536 2.76153C20.6536 4.79878 20.6507 6.83602 20.6507 8.87326C20.6507 11.0606 20.6536 13.2479 20.6623 15.4352V15.4467C20.6623 15.7064 20.6247 15.8882 20.5525 16.0411C20.4774 16.1941 20.3647 16.3355 20.1567 16.4942C17.0051 18.8806 13.8909 21.3074 10.748 23.6909C10.3349 24.0025 10.0113 24.3632 9.80332 24.7874C9.59244 25.2087 9.5 25.682 9.5 26.1985V26.2447C9.51444 27.8462 9.51733 29.4506 9.51733 31.055C9.51733 32.6594 9.51444 34.232 9.51444 35.822C9.51444 36.2664 9.51444 36.7108 9.51733 37.1552C9.51733 37.8275 9.66755 38.4018 10.0142 38.8259C10.1875 39.0366 10.41 39.204 10.6613 39.3107C10.9155 39.4175 11.1928 39.4665 11.4875 39.4665H11.5077C11.7966 39.4637 12.071 39.4146 12.3195 39.3136C12.7008 39.1549 13.007 38.8606 13.1948 38.4854C13.3825 38.1132 13.4692 37.6688 13.4721 37.1638C13.475 36.2 13.475 35.2391 13.475 34.2753V33.2365C13.475 32.1111 13.475 30.9828 13.4807 29.8575V29.8517C13.4779 29.7795 13.4721 29.7161 13.4663 29.6612C13.5039 29.6959 13.5472 29.7363 13.5992 29.7767C21.9564 36.1654 30.3079 42.5599 38.6594 48.9602C38.8674 49.116 39.0205 49.2372 39.11 49.3209C39.1476 49.2834 39.1736 49.2574 39.1851 49.243L39.1909 49.2344L39.2862 49.2892L39.3787 49.3209H39.3382L39.1909 49.4075L39.188 49.3988L39.1793 49.3902L39.1331 49.3411C39.1331 49.3411 39.1187 49.3267 39.11 49.3209C39.0811 49.3469 39.0465 49.3786 39.0031 49.4133C38.9049 49.4941 38.7691 49.5979 38.6045 49.7249C33.3642 53.7388 28.124 57.7556 22.8837 61.7695C19.9921 63.9856 17.1033 66.196 14.2116 68.4064C14.0643 68.5189 13.9458 68.5997 13.8649 68.643C13.8563 68.6488 13.8476 68.6516 13.839 68.6545C13.8592 68.6978 13.8765 68.7209 13.8794 68.7238L13.813 68.7873L13.8072 68.793L13.7783 68.8421V68.744L13.7667 68.6834H13.7783C13.7927 68.6776 13.813 68.669 13.839 68.6545C13.8303 68.6401 13.8245 68.6228 13.8158 68.6026C13.7841 68.5218 13.7465 68.4064 13.709 68.2621C13.5327 67.5984 13.4692 66.9059 13.4692 66.1902V66.1758C13.4721 62.6467 13.475 59.1205 13.475 55.5914C13.475 52.2758 13.4721 48.9573 13.4721 45.6418C13.4721 45.4946 13.4779 45.3388 13.4779 45.1743C13.4779 44.9781 13.4692 44.7732 13.4345 44.5568C13.3536 44.0547 13.0908 43.6334 12.7354 43.3506C12.383 43.0678 11.941 42.9149 11.4875 42.9149C11.0339 42.9149 10.5977 43.062 10.2193 43.3766C9.89576 43.642 9.70221 43.9825 9.61266 44.3173C9.52022 44.652 9.51156 44.981 9.51156 45.2926V45.3013C9.51444 52.6076 9.51156 59.9169 9.52022 67.2233C9.52022 67.6648 9.54044 68.1322 9.63577 68.5939C10.0258 70.5129 11.0051 72.1202 12.3859 73.2398C13.7667 74.3623 15.5462 74.9942 17.5221 74.9942C22.4706 75 27.422 75 32.3705 75C38.7489 75 45.1273 74.9971 51.5029 74.9971C57.8784 74.9971 64.4071 75 70.8606 75C75.7369 75 80.6103 75 85.4865 74.9942C87.7629 74.9942 89.7677 74.1459 91.1976 72.7204C92.6276 71.2978 93.4798 69.298 93.4798 67.027C93.4884 53.43 93.4769 39.8359 93.5 26.2389V26.2302C93.5 25.682 93.3989 25.1856 93.1736 24.7528ZM20.6305 30.071C18.6863 28.582 16.7653 27.1103 14.8385 25.6445C14.8385 25.6445 14.8365 25.6425 14.8327 25.6387C14.8327 25.6387 14.8471 25.6271 14.8529 25.6214C16.7913 24.1468 18.7181 22.6636 20.6507 21.1833C20.6449 24.1468 20.642 27.1075 20.6305 30.071ZM82.3435 30.097V24.6114C82.3435 23.4687 82.3435 22.3289 82.3493 21.1833C84.253 22.6376 86.1509 24.1007 88.0633 25.5521C88.1095 25.5839 88.1442 25.6156 88.1731 25.6416C88.1558 25.6589 88.1326 25.6762 88.1066 25.6964C86.2318 27.1132 84.3715 28.5445 82.3435 30.097ZM25.3392 33.7097C25.0908 33.5193 24.9521 33.3462 24.8625 33.1557C24.773 32.9681 24.7268 32.7402 24.7268 32.4256V32.4199C24.7383 26.8045 24.7412 21.192 24.7412 15.5765V4.76126C24.7412 4.4525 24.7441 4.22743 24.7585 4.09469C24.7643 4.04563 24.7701 4.00812 24.7759 3.98792C24.7643 3.9908 24.7585 3.99369 24.7528 3.99658H24.7499L24.7441 3.98215V3.97638L24.7094 3.92732L24.7845 3.96483H24.7817L24.7759 3.98792C24.8077 3.98215 24.8654 3.97061 24.9521 3.96483C25.085 3.95618 25.2756 3.95618 25.5212 3.95618H77.4702C77.7735 3.95618 77.9959 3.95906 78.123 3.97349C78.1692 3.97926 78.2039 3.98503 78.2241 3.9908C78.2212 3.98215 78.2183 3.97638 78.2183 3.97349L78.2126 3.96483L78.2877 3.92732L78.253 3.98215L78.2472 3.99946H78.2443L78.227 3.9908H78.2241C78.2328 4.02832 78.2415 4.10623 78.2472 4.21588C78.2559 4.34862 78.2559 4.52753 78.2559 4.75261V15.4755C78.2559 21.1227 78.2588 26.767 78.2675 32.4112V32.4199C78.2675 32.7344 78.227 32.9624 78.1404 33.1528C78.0537 33.3433 77.9179 33.5164 77.6666 33.7069C72.1635 37.8881 66.6719 42.0867 61.2063 46.3199C61.0503 46.4382 60.9203 46.5219 60.8134 46.568C60.7066 46.6142 60.6286 46.6315 60.5563 46.6315C60.4841 46.6315 60.409 46.6142 60.305 46.568C60.201 46.5219 60.071 46.4382 59.9179 46.317C57.6676 44.525 55.3681 42.8023 53.0859 41.0681C52.8 40.8516 52.5457 40.6785 52.2886 40.5544C52.0344 40.4332 51.7715 40.3582 51.4971 40.3582C51.2227 40.3582 50.9627 40.4332 50.7085 40.5544C50.4543 40.6785 50.2029 40.8488 49.9227 41.0623C47.5915 42.8369 45.2516 44.6058 42.9405 46.418C42.8163 46.5132 42.7123 46.5796 42.6314 46.6142C42.5477 46.6517 42.4928 46.6604 42.4379 46.6604C42.3888 46.6604 42.331 46.6517 42.253 46.6171C42.1721 46.5825 42.071 46.5219 41.9497 46.4295C36.4292 42.1704 30.8914 37.9285 25.3392 33.7097ZM89.5453 29.6555C89.5337 29.742 89.5193 29.843 89.5193 29.9642C89.525 42.0463 89.5221 54.1312 89.5279 66.2162V66.222C89.5279 66.9405 89.4615 67.6301 89.2766 68.2909C89.2304 68.4612 89.1813 68.5853 89.1524 68.6574C89.1351 68.6459 89.1119 68.6343 89.0888 68.6199C89.0195 68.5795 88.9328 68.516 88.8288 68.4381C85.033 65.5323 81.2429 62.6207 77.447 59.712C74.4369 57.4035 71.4239 55.0979 68.4109 52.7894C68.2434 52.6625 68.0614 52.5182 67.8505 52.3883C67.4519 52.1402 67.0243 52.0045 66.6054 52.0045C66.305 52.0045 66.0075 52.0738 65.7417 52.2152C65.4759 52.3537 65.2419 52.5586 65.0542 52.8154C64.7971 53.1646 64.6613 53.5714 64.6613 53.9812C64.6613 54.5929 64.9617 55.1989 65.5048 55.626C67.1081 56.8899 68.7345 58.1192 70.3493 59.3542C75.3816 63.2065 80.408 67.0559 85.4345 70.914H17.5799C18.3946 70.282 19.2034 69.6501 20.0152 69.0268C30.3252 61.1317 40.6411 53.2425 50.9367 45.3272C51.0782 45.2176 51.1967 45.1454 51.2891 45.1022C51.3845 45.0589 51.4509 45.0473 51.5087 45.0473C51.5693 45.0473 51.63 45.0589 51.7195 45.0993C51.8062 45.1397 51.9189 45.2089 52.0546 45.3157C54.2299 47.0499 56.4514 48.7236 58.6555 50.4088C59.0166 50.6829 59.3257 50.8993 59.629 51.0552C59.9295 51.211 60.2386 51.3062 60.5563 51.3062C60.8741 51.3062 61.1803 51.211 61.4807 51.0581C61.7812 50.9051 62.0874 50.6887 62.4485 50.4146C71.4124 43.5555 80.3734 36.6906 89.343 29.8344C89.4268 29.768 89.4933 29.7045 89.5453 29.6468V29.6555Z" fill="#B4CED4"/>
<path d="M68.6043 15.135C68.6043 15.6284 68.4945 16.1334 68.2374 16.5778C67.9832 17.0222 67.5903 17.38 67.1397 17.6109C66.8421 17.7667 66.5186 17.8734 66.1806 17.9369C65.5855 18.0495 65.0395 18.0495 64.5658 18.0495C60.9114 18.0524 57.2571 18.0552 53.5999 18.0552C49.6914 18.0552 45.7829 18.0524 41.8715 18.0466C41.3082 18.0466 40.6726 18.0293 39.9996 17.8706C39.5229 17.758 39.0723 17.5445 38.7083 17.2184C38.3414 16.8923 38.0843 16.4624 37.9543 16.018C37.8676 15.7179 37.8301 15.4149 37.8301 15.1119C37.8301 15.008 37.833 14.907 37.8416 14.8032C37.885 14.2405 38.0958 13.6806 38.4714 13.2478C38.8412 12.815 39.3438 12.5235 39.8782 12.3706C40.2364 12.2696 40.612 12.2234 41.002 12.2205C42.871 12.2148 44.7429 12.2148 46.612 12.2148C48.6168 12.2148 50.6187 12.2176 52.6206 12.2176H53.2157C55.1397 12.2148 57.0665 12.2148 58.9904 12.2148H62.4252C63.0145 12.2148 63.6153 12.209 64.2278 12.209C64.7449 12.209 65.2677 12.2148 65.7993 12.235C66.3539 12.258 66.8883 12.4139 67.3419 12.7082C67.7925 12.9968 68.1507 13.4238 68.3587 13.9086C68.5003 14.2347 68.5783 14.5838 68.5985 14.9388C68.6014 15.0023 68.6043 15.0686 68.6043 15.135Z" fill="#B4CED4"/>
<path d="M68.6054 25.8898V25.9388C68.6054 26.389 68.5216 26.8392 68.3194 27.2518C68.123 27.6644 67.8052 28.028 67.4239 28.2848C67.1726 28.4551 66.8924 28.5849 66.6006 28.6744C66.2077 28.7927 65.7946 28.8475 65.3584 28.8504C63.5009 28.8677 61.6434 28.8735 59.7888 28.8735C57.9342 28.8735 56.0017 28.8677 54.1095 28.8533C53.4711 28.8475 52.8673 28.6975 52.3502 28.406C51.8331 28.1146 51.4027 27.6731 51.1485 27.1335C50.9781 26.7757 50.8827 26.3775 50.877 25.9706V25.9158C50.877 25.6099 50.9232 25.304 51.0185 25.0126C51.1138 24.7211 51.2612 24.4441 51.4489 24.2046C51.8245 23.7198 52.356 23.3908 52.9338 23.2119C53.3209 23.0936 53.7311 23.0359 54.1586 23.0301C54.8981 23.0244 55.6348 23.0215 56.3714 23.0215C57.472 23.0215 58.5698 23.0273 59.6617 23.0273H59.6762C60.7999 23.0273 61.9237 23.0215 63.0532 23.0215C63.8014 23.0215 64.5524 23.0244 65.3035 23.0301C65.7888 23.0359 66.2482 23.0965 66.6786 23.2408C67.109 23.3822 67.5163 23.613 67.8428 23.9449C68.0594 24.1671 68.2356 24.4268 68.3599 24.7096C68.5274 25.0847 68.5996 25.4887 68.6054 25.8898Z" fill="#B4CED4"/>
</g>
<path d="M7.14189 119.07C6.63789 119.07 6.18989 119 5.79789 118.86C5.41522 118.711 5.10722 118.463 4.87389 118.118C4.64989 117.763 4.52389 117.273 4.49589 116.648L4.27189 111.776H5.40589L5.62989 116.396C5.65789 116.835 5.73722 117.166 5.86789 117.39C5.99856 117.605 6.18056 117.749 6.41389 117.824C6.65656 117.889 6.94589 117.922 7.28189 117.922C7.47789 117.922 7.61789 117.978 7.70189 118.09C7.79522 118.193 7.84189 118.319 7.84189 118.468C7.84189 118.617 7.77656 118.757 7.64589 118.888C7.51522 119.009 7.34722 119.07 7.14189 119.07ZM5.02789 117.53C4.49589 117.698 3.97789 117.782 3.47389 117.782C2.96989 117.782 2.51256 117.707 2.10189 117.558C1.69122 117.409 1.36456 117.194 1.12189 116.914C0.879224 116.625 0.757891 116.279 0.757891 115.878C0.757891 115.486 0.855891 115.117 1.05189 114.772C1.25722 114.427 1.53256 114.119 1.87789 113.848C2.23256 113.577 2.63856 113.353 3.09589 113.176C3.56256 112.989 4.05722 112.863 4.57989 112.798L4.77589 113.974C4.30922 113.993 3.89389 114.058 3.52989 114.17C3.17522 114.273 2.87189 114.408 2.61989 114.576C2.37722 114.744 2.19056 114.926 2.05989 115.122C1.92922 115.318 1.86389 115.509 1.86389 115.696C1.86389 115.901 1.93856 116.069 2.08789 116.2C2.23722 116.331 2.42856 116.433 2.66189 116.508C2.89522 116.573 3.15189 116.615 3.43189 116.634C3.71189 116.643 3.98256 116.634 4.24389 116.606C4.50522 116.569 4.72922 116.517 4.91589 116.452L5.02789 117.53ZM4.73389 110.166C4.53789 110.166 4.36989 110.101 4.22989 109.97C4.09922 109.83 4.03389 109.667 4.03389 109.48C4.03389 109.293 4.09922 109.13 4.22989 108.99C4.36989 108.85 4.53789 108.78 4.73389 108.78C4.92056 108.78 5.07922 108.85 5.20989 108.99C5.34989 109.13 5.41989 109.293 5.41989 109.48C5.41989 109.667 5.34989 109.83 5.20989 109.97C5.07922 110.101 4.92056 110.166 4.73389 110.166ZM2.81589 110.166C2.61989 110.166 2.45189 110.101 2.31189 109.97C2.18122 109.83 2.11589 109.667 2.11589 109.48C2.11589 109.293 2.18122 109.13 2.31189 108.99C2.45189 108.85 2.61989 108.78 2.81589 108.78C3.00256 108.78 3.16122 108.85 3.29189 108.99C3.43189 109.13 3.50189 109.293 3.50189 109.48C3.50189 109.667 3.43189 109.83 3.29189 109.97C3.16122 110.101 3.00256 110.166 2.81589 110.166ZM7.14648 119.07L7.28648 117.922C7.67848 117.922 7.98648 117.889 8.21048 117.824C8.43448 117.749 8.60248 117.614 8.71448 117.418C8.83582 117.213 8.93848 116.919 9.02248 116.536C9.10648 116.153 9.20915 115.654 9.33048 115.038L10.4225 115.248C10.3852 115.416 10.3432 115.603 10.2965 115.808C10.2498 116.013 10.2078 116.219 10.1705 116.424C10.1425 116.62 10.1285 116.793 10.1285 116.942C10.1285 117.129 10.1705 117.297 10.2545 117.446C10.3385 117.595 10.5205 117.712 10.8005 117.796C11.0805 117.88 11.5098 117.922 12.0885 117.922C12.2845 117.922 12.4245 117.978 12.5085 118.09C12.6018 118.193 12.6485 118.319 12.6485 118.468C12.6485 118.617 12.5832 118.757 12.4525 118.888C12.3218 119.009 12.1538 119.07 11.9485 119.07C11.3418 119.07 10.8658 119.019 10.5205 118.916C10.1752 118.804 9.92315 118.641 9.76448 118.426C9.60582 118.202 9.49848 117.931 9.44248 117.614L9.86248 117.642C9.71315 117.941 9.54982 118.183 9.37248 118.37C9.20448 118.557 9.01782 118.701 8.81248 118.804C8.60715 118.907 8.36915 118.977 8.09848 119.014C7.82782 119.051 7.51048 119.07 7.14648 119.07ZM9.33048 113.596C9.13448 113.596 8.96648 113.531 8.82648 113.4C8.69582 113.26 8.63048 113.097 8.63048 112.91C8.63048 112.723 8.69582 112.56 8.82648 112.42C8.96648 112.28 9.13448 112.21 9.33048 112.21C9.51715 112.21 9.67582 112.28 9.80648 112.42C9.94648 112.56 10.0165 112.723 10.0165 112.91C10.0165 113.097 9.94648 113.26 9.80648 113.4C9.67582 113.531 9.51715 113.596 9.33048 113.596ZM11.9453 119.07L12.0853 117.922C12.636 117.922 13.0653 117.903 13.3733 117.866C13.6813 117.819 13.9006 117.712 14.0313 117.544C14.162 117.367 14.2273 117.091 14.2273 116.718C14.2273 116.485 14.19 116.209 14.1153 115.892C14.0406 115.565 13.9426 115.22 13.8213 114.856C13.7 114.492 13.5693 114.133 13.4293 113.778L14.5633 113.358C14.6846 113.657 14.7966 113.997 14.8993 114.38C15.0113 114.763 15.1046 115.141 15.1793 115.514C15.254 115.887 15.2913 116.214 15.2913 116.494C15.2913 116.961 15.226 117.357 15.0953 117.684C14.974 118.011 14.778 118.277 14.5073 118.482C14.2366 118.687 13.8866 118.837 13.4573 118.93C13.0373 119.023 12.5333 119.07 11.9453 119.07ZM14.5353 121.716C14.3393 121.716 14.1713 121.646 14.0313 121.506C13.9006 121.375 13.8353 121.217 13.8353 121.03C13.8353 120.843 13.9006 120.68 14.0313 120.54C14.1713 120.4 14.3393 120.33 14.5353 120.33C14.722 120.33 14.8806 120.4 15.0113 120.54C15.1513 120.68 15.2213 120.843 15.2213 121.03C15.2213 121.217 15.1513 121.375 15.0113 121.506C14.8806 121.646 14.722 121.716 14.5353 121.716ZM12.6173 121.716C12.4213 121.716 12.2533 121.646 12.1133 121.506C11.9826 121.375 11.9173 121.217 11.9173 121.03C11.9173 120.843 11.9826 120.68 12.1133 120.54C12.2533 120.4 12.4213 120.33 12.6173 120.33C12.804 120.33 12.9626 120.4 13.0933 120.54C13.2333 120.68 13.3033 120.843 13.3033 121.03C13.3033 121.217 13.2333 121.375 13.0933 121.506C12.9626 121.646 12.804 121.716 12.6173 121.716ZM20.2029 119.07C19.4562 119.07 18.8822 118.986 18.4809 118.818C18.0889 118.65 17.8182 118.389 17.6689 118.034C17.5196 117.679 17.4356 117.222 17.4169 116.662L17.1369 109.004H18.2849L18.5649 116.214C18.5836 116.671 18.6256 117.026 18.6909 117.278C18.7656 117.521 18.9242 117.689 19.1669 117.782C19.4189 117.875 19.8109 117.922 20.3429 117.922C20.5389 117.922 20.6789 117.978 20.7629 118.09C20.8562 118.193 20.9029 118.319 20.9029 118.468C20.9029 118.617 20.8376 118.757 20.7069 118.888C20.5762 119.009 20.4082 119.07 20.2029 119.07ZM20.2031 119.07L20.3431 117.922C20.9031 117.922 21.4305 117.871 21.9251 117.768C22.4198 117.656 22.8725 117.511 23.2831 117.334C23.7031 117.147 24.0625 116.937 24.3611 116.704C24.6598 116.461 24.8885 116.214 25.0471 115.962C25.2151 115.701 25.2991 115.444 25.2991 115.192C25.2991 115.071 25.2571 114.949 25.1731 114.828C25.0891 114.697 24.9445 114.59 24.7391 114.506C24.5431 114.422 24.2771 114.38 23.9411 114.38C23.7358 114.38 23.5071 114.408 23.2551 114.464C23.0031 114.52 22.7605 114.599 22.5271 114.702C22.3031 114.795 22.1165 114.903 21.9671 115.024C22.2191 115.229 22.4525 115.43 22.6671 115.626C22.8911 115.822 23.1198 116.037 23.3531 116.27C23.5865 116.494 23.8385 116.751 24.1091 117.04C24.3238 117.199 24.5618 117.334 24.8231 117.446C25.0938 117.558 25.3831 117.651 25.6911 117.726C26.0085 117.791 26.3305 117.843 26.6571 117.88C26.9838 117.908 27.3105 117.922 27.6371 117.922C27.8331 117.922 27.9731 117.978 28.0571 118.09C28.1505 118.193 28.1971 118.319 28.1971 118.468C28.1971 118.617 28.1318 118.757 28.0011 118.888C27.8705 119.009 27.7025 119.07 27.4971 119.07C26.9838 119.07 26.4565 119.023 25.9151 118.93C25.3831 118.827 24.8838 118.678 24.4171 118.482C23.9505 118.277 23.5538 118.02 23.2271 117.712C23.0685 117.507 22.8911 117.301 22.6951 117.096C22.4991 116.891 22.2845 116.685 22.0511 116.48C21.8271 116.265 21.5845 116.065 21.3231 115.878C21.2671 115.831 21.2111 115.747 21.1551 115.626C21.0991 115.505 21.0525 115.379 21.0151 115.248C20.9778 115.117 20.9591 115.019 20.9591 114.954C20.9591 114.814 21.0478 114.646 21.2251 114.45C21.4025 114.254 21.6405 114.067 21.9391 113.89C22.2378 113.703 22.5785 113.549 22.9611 113.428C23.3438 113.307 23.7405 113.246 24.1511 113.246C24.6831 113.246 25.1125 113.325 25.4391 113.484C25.7751 113.643 26.0178 113.848 26.1671 114.1C26.3258 114.343 26.4051 114.604 26.4051 114.884C26.4051 115.295 26.3025 115.705 26.0971 116.116C25.8918 116.517 25.5978 116.895 25.2151 117.25C24.8325 117.605 24.3845 117.922 23.8711 118.202C23.3578 118.473 22.7885 118.687 22.1631 118.846C21.5471 118.995 20.8938 119.07 20.2031 119.07ZM27.5039 119.07L27.6439 117.922C27.9052 117.922 28.1106 117.866 28.2599 117.754C28.4186 117.642 28.5679 117.455 28.7079 117.194C28.8572 116.933 29.0439 116.583 29.2679 116.144C29.4919 115.696 29.7159 115.332 29.9399 115.052C30.1732 114.763 30.3972 114.539 30.6119 114.38C30.8359 114.212 31.0459 114.095 31.2419 114.03C31.4379 113.965 31.6199 113.932 31.7879 113.932C32.0959 113.932 32.3712 114.002 32.6139 114.142C32.8566 114.273 33.0852 114.501 33.2999 114.828C33.5146 115.145 33.7339 115.584 33.9579 116.144C34.1726 116.657 34.3639 117.045 34.5319 117.306C34.7092 117.558 34.8912 117.726 35.0779 117.81C35.2739 117.885 35.4932 117.922 35.7359 117.922C35.9319 117.922 36.0719 117.978 36.1559 118.09C36.2492 118.193 36.2959 118.319 36.2959 118.468C36.2959 118.617 36.2306 118.757 36.0999 118.888C35.9692 119.009 35.8012 119.07 35.5959 119.07C35.2319 119.07 34.8959 119.009 34.5879 118.888C34.2892 118.767 34.0372 118.575 33.8319 118.314L34.0279 118.02C33.9252 118.309 33.7852 118.547 33.6079 118.734C33.4399 118.911 33.2486 119.042 33.0339 119.126C32.8192 119.219 32.5906 119.266 32.3479 119.266C32.0399 119.266 31.7226 119.201 31.3959 119.07C31.0786 118.939 30.7706 118.753 30.4719 118.51C30.1732 118.267 29.9119 117.983 29.6879 117.656C29.4452 118.085 29.2119 118.403 28.9879 118.608C28.7732 118.804 28.5492 118.93 28.3159 118.986C28.0826 119.042 27.8119 119.07 27.5039 119.07ZM30.2199 116.592C30.3786 116.853 30.5466 117.082 30.7239 117.278C30.9106 117.474 31.0972 117.637 31.2839 117.768C31.4706 117.889 31.6526 117.983 31.8299 118.048C32.0166 118.104 32.1846 118.132 32.3339 118.132C32.6606 118.132 32.8986 118.015 33.0479 117.782C33.2066 117.549 33.2019 117.222 33.0339 116.802C32.9499 116.587 32.8612 116.377 32.7679 116.172C32.6839 115.967 32.5906 115.78 32.4879 115.612C32.3852 115.435 32.2686 115.299 32.1379 115.206C32.0072 115.103 31.8626 115.052 31.7039 115.052C31.5639 115.052 31.4146 115.099 31.2559 115.192C31.1066 115.285 30.9432 115.444 30.7659 115.668C30.5979 115.892 30.4159 116.2 30.2199 116.592ZM35.5977 119.07L35.7237 117.922C36.2557 117.922 36.629 117.871 36.8437 117.768C37.0583 117.665 37.1797 117.483 37.2077 117.222C37.245 116.961 37.2543 116.597 37.2357 116.13L36.9977 109.004H38.1597L38.3837 116.102C38.4023 116.578 38.477 116.951 38.6077 117.222C38.7477 117.483 38.9343 117.665 39.1677 117.768C39.401 117.871 39.6577 117.922 39.9377 117.922C40.1337 117.922 40.2737 117.978 40.3577 118.09C40.451 118.193 40.4977 118.319 40.4977 118.468C40.4977 118.617 40.4323 118.757 40.3017 118.888C40.171 119.009 40.003 119.07 39.7977 119.07C39.4057 119.07 39.079 119.009 38.8177 118.888C38.5657 118.757 38.365 118.594 38.2157 118.398C38.0757 118.193 37.9823 117.978 37.9357 117.754L38.2297 117.782C38.1363 118.062 37.9823 118.3 37.7677 118.496C37.5623 118.683 37.2823 118.827 36.9277 118.93C36.573 119.023 36.1297 119.07 35.5977 119.07ZM39.7949 119.07L39.9209 117.922C40.4529 117.922 40.8263 117.871 41.0409 117.768C41.2556 117.665 41.3769 117.483 41.4049 117.222C41.4423 116.961 41.4516 116.597 41.4329 116.13L41.1669 109.004H42.3009L42.5809 116.004C42.5996 116.499 42.5809 116.937 42.5249 117.32C42.4783 117.703 42.3569 118.025 42.1609 118.286C41.9743 118.547 41.6896 118.743 41.3069 118.874C40.9336 119.005 40.4296 119.07 39.7949 119.07ZM53.5442 119.07C53.0402 119.07 52.5922 119 52.2002 118.86C51.8176 118.711 51.5096 118.463 51.2762 118.118C51.0522 117.763 50.9262 117.273 50.8982 116.648L50.6742 111.776H51.8082L52.0322 116.396C52.0602 116.835 52.1396 117.166 52.2702 117.39C52.4009 117.605 52.5829 117.749 52.8162 117.824C53.0589 117.889 53.3482 117.922 53.6842 117.922C53.8802 117.922 54.0202 117.978 54.1042 118.09C54.1976 118.193 54.2442 118.319 54.2442 118.468C54.2442 118.617 54.1789 118.757 54.0482 118.888C53.9176 119.009 53.7496 119.07 53.5442 119.07ZM51.4302 117.53C50.8982 117.698 50.3802 117.782 49.8762 117.782C49.3722 117.782 48.9149 117.707 48.5042 117.558C48.0936 117.409 47.7669 117.194 47.5242 116.914C47.2816 116.625 47.1602 116.279 47.1602 115.878C47.1602 115.486 47.2582 115.117 47.4542 114.772C47.6596 114.427 47.9349 114.119 48.2802 113.848C48.6349 113.577 49.0409 113.353 49.4982 113.176C49.9649 112.989 50.4596 112.863 50.9822 112.798L51.1782 113.974C50.7116 113.993 50.2962 114.058 49.9322 114.17C49.5776 114.273 49.2742 114.408 49.0222 114.576C48.7796 114.744 48.5929 114.926 48.4622 115.122C48.3316 115.318 48.2662 115.509 48.2662 115.696C48.2662 115.901 48.3409 116.069 48.4902 116.2C48.6396 116.331 48.8309 116.433 49.0642 116.508C49.2976 116.573 49.5542 116.615 49.8342 116.634C50.1142 116.643 50.3849 116.634 50.6462 116.606C50.9076 116.569 51.1316 116.517 51.3182 116.452L51.4302 117.53ZM51.1362 110.166C50.9402 110.166 50.7722 110.101 50.6322 109.97C50.5016 109.83 50.4362 109.667 50.4362 109.48C50.4362 109.293 50.5016 109.13 50.6322 108.99C50.7722 108.85 50.9402 108.78 51.1362 108.78C51.3229 108.78 51.4816 108.85 51.6122 108.99C51.7522 109.13 51.8222 109.293 51.8222 109.48C51.8222 109.667 51.7522 109.83 51.6122 109.97C51.4816 110.101 51.3229 110.166 51.1362 110.166ZM49.2182 110.166C49.0222 110.166 48.8542 110.101 48.7142 109.97C48.5836 109.83 48.5182 109.667 48.5182 109.48C48.5182 109.293 48.5836 109.13 48.7142 108.99C48.8542 108.85 49.0222 108.78 49.2182 108.78C49.4049 108.78 49.5636 108.85 49.6942 108.99C49.8342 109.13 49.9042 109.293 49.9042 109.48C49.9042 109.667 49.8342 109.83 49.6942 109.97C49.5636 110.101 49.4049 110.166 49.2182 110.166ZM53.5488 119.07L53.6748 117.922C54.2068 117.922 54.5802 117.871 54.7948 117.768C55.0095 117.665 55.1308 117.483 55.1588 117.222C55.1962 116.961 55.2055 116.597 55.1868 116.13L54.9208 109.004H56.0548L56.3348 116.004C56.3535 116.499 56.3348 116.937 56.2788 117.32C56.2322 117.703 56.1108 118.025 55.9148 118.286C55.7282 118.547 55.4435 118.743 55.0608 118.874C54.6875 119.005 54.1835 119.07 53.5488 119.07ZM61.2595 119.07C60.5129 119.07 59.9389 118.986 59.5375 118.818C59.1455 118.65 58.8749 118.389 58.7255 118.034C58.5762 117.679 58.4922 117.222 58.4735 116.662L58.1935 109.004H59.3415L59.6215 116.214C59.6402 116.671 59.6822 117.026 59.7475 117.278C59.8222 117.521 59.9809 117.689 60.2235 117.782C60.4755 117.875 60.8675 117.922 61.3995 117.922C61.5955 117.922 61.7355 117.978 61.8195 118.09C61.9129 118.193 61.9595 118.319 61.9595 118.468C61.9595 118.617 61.8942 118.757 61.7635 118.888C61.6329 119.009 61.4649 119.07 61.2595 119.07ZM61.2598 119.07L61.3998 117.922C61.6984 117.922 61.9411 117.903 62.1278 117.866C62.3144 117.819 62.4684 117.712 62.5898 117.544C62.7204 117.367 62.8418 117.091 62.9538 116.718C63.0658 116.345 63.1964 115.822 63.3458 115.15L64.3958 115.444C64.3584 115.603 64.3164 115.785 64.2698 115.99C64.2231 116.186 64.1811 116.391 64.1438 116.606C64.1064 116.811 64.0878 117.003 64.0878 117.18C64.0878 117.413 64.1764 117.595 64.3538 117.726C64.5311 117.857 64.8531 117.922 65.3198 117.922C65.5998 117.922 65.8284 117.899 66.0058 117.852C66.1831 117.805 66.3278 117.693 66.4398 117.516C66.5611 117.339 66.6684 117.054 66.7618 116.662C66.8551 116.27 66.9531 115.733 67.0558 115.052L68.1198 115.248C68.0918 115.416 68.0591 115.621 68.0218 115.864C67.9844 116.107 67.9471 116.349 67.9098 116.592C67.8818 116.825 67.8678 117.021 67.8678 117.18C67.8678 117.311 67.8958 117.437 67.9518 117.558C68.0171 117.67 68.1384 117.759 68.3158 117.824C68.5024 117.889 68.7778 117.922 69.1418 117.922C69.4124 117.922 69.6458 117.889 69.8418 117.824C70.0471 117.759 70.2011 117.637 70.3038 117.46C70.4158 117.283 70.4718 117.035 70.4718 116.718C70.4718 116.363 70.3878 115.92 70.2198 115.388C70.0611 114.847 69.8791 114.31 69.6738 113.778L70.8078 113.358C70.9291 113.657 71.0411 113.997 71.1438 114.38C71.2558 114.763 71.3491 115.141 71.4238 115.514C71.4984 115.887 71.5358 116.214 71.5358 116.494C71.5358 116.923 71.4798 117.301 71.3678 117.628C71.2558 117.955 71.0971 118.225 70.8918 118.44C70.6864 118.645 70.4344 118.804 70.1358 118.916C69.8371 119.019 69.5011 119.07 69.1278 119.07C68.6891 119.07 68.3298 119.019 68.0498 118.916C67.7698 118.813 67.5551 118.659 67.4058 118.454C67.2564 118.239 67.1584 117.969 67.1118 117.642H67.5878C67.4104 118.043 67.2238 118.347 67.0278 118.552C66.8318 118.757 66.5891 118.897 66.2998 118.972C66.0104 119.037 65.6278 119.07 65.1518 119.07C64.9184 119.07 64.6664 119.033 64.3958 118.958C64.1344 118.883 63.9058 118.739 63.7098 118.524C63.5138 118.3 63.3971 117.969 63.3598 117.53L63.7798 117.446C63.6211 117.922 63.4251 118.277 63.1918 118.51C62.9678 118.734 62.6971 118.883 62.3798 118.958C62.0624 119.033 61.6891 119.07 61.2598 119.07ZM72.2943 122.22L71.8883 121.156C72.8309 120.857 73.5543 120.498 74.0583 120.078C74.5716 119.667 74.9216 119.238 75.1083 118.79C75.3043 118.342 75.4023 117.913 75.4023 117.502C75.4023 117.241 75.3743 116.989 75.3183 116.746C75.2623 116.503 75.1643 116.228 75.0243 115.92C74.8843 115.612 74.6883 115.229 74.4363 114.772L75.4583 114.254C75.8129 114.861 76.0649 115.435 76.2143 115.976C76.3729 116.517 76.4523 116.993 76.4523 117.404C76.4523 117.992 76.3543 118.524 76.1583 119C75.9716 119.476 75.7196 119.896 75.4023 120.26C75.0943 120.633 74.7536 120.951 74.3803 121.212C74.0163 121.473 73.6476 121.688 73.2743 121.856C72.9103 122.024 72.5836 122.145 72.2943 122.22ZM80.7435 122.248L80.3375 121.184C81.0188 120.96 81.5835 120.703 82.0315 120.414C82.4888 120.125 82.8482 119.817 83.1095 119.49C83.3802 119.163 83.5715 118.832 83.6835 118.496C83.7955 118.151 83.8515 117.819 83.8515 117.502C83.8515 117.045 83.7488 116.583 83.5435 116.116C83.3475 115.64 83.1282 115.192 82.8855 114.772L83.9075 114.254C84.0848 114.581 84.2388 114.903 84.3695 115.22C84.5095 115.537 84.6308 115.836 84.7335 116.116C84.8455 116.396 84.9342 116.653 84.9995 116.886C85.1302 117.287 85.2982 117.563 85.5035 117.712C85.7182 117.852 86.0075 117.922 86.3715 117.922C86.5675 117.922 86.7075 117.978 86.7915 118.09C86.8848 118.193 86.9315 118.319 86.9315 118.468C86.9315 118.617 86.8662 118.757 86.7355 118.888C86.6048 119.009 86.4368 119.07 86.2315 119.07C85.8208 119.07 85.4848 119 85.2235 118.86C84.9715 118.711 84.7802 118.519 84.6495 118.286C84.5188 118.043 84.4302 117.791 84.3835 117.53L84.8315 117.782C84.8315 118.398 84.6915 118.958 84.4115 119.462C84.1408 119.975 83.7908 120.419 83.3615 120.792C82.9322 121.175 82.4842 121.487 82.0175 121.73C81.5508 121.973 81.1262 122.145 80.7435 122.248ZM86.2383 119.07L86.3783 117.922C86.8449 117.922 87.2089 117.889 87.4703 117.824C87.7316 117.749 87.9276 117.614 88.0583 117.418C88.1983 117.213 88.3103 116.919 88.3943 116.536C88.4783 116.153 88.5809 115.654 88.7023 115.038L89.7943 115.248C89.7569 115.416 89.7149 115.603 89.6683 115.808C89.6216 116.013 89.5796 116.219 89.5423 116.424C89.5143 116.62 89.5003 116.793 89.5003 116.942C89.5003 117.082 89.5096 117.213 89.5283 117.334C89.5469 117.455 89.6169 117.558 89.7383 117.642C89.8596 117.726 90.0649 117.796 90.3543 117.852C90.6436 117.899 91.0589 117.922 91.6003 117.922C91.7963 117.922 91.9363 117.978 92.0203 118.09C92.1136 118.193 92.1603 118.319 92.1603 118.468C92.1603 118.617 92.0949 118.757 91.9643 118.888C91.8336 119.009 91.6656 119.07 91.4603 119.07C90.8909 119.07 90.4383 119.042 90.1023 118.986C89.7663 118.921 89.5096 118.827 89.3323 118.706C89.1643 118.585 89.0429 118.435 88.9683 118.258C88.9029 118.071 88.8516 117.857 88.8143 117.614L89.2343 117.642C89.0849 117.941 88.9216 118.183 88.7443 118.37C88.5763 118.557 88.3803 118.701 88.1563 118.804C87.9323 118.907 87.6616 118.977 87.3443 119.014C87.0363 119.051 86.6676 119.07 86.2383 119.07ZM89.9763 113.596C89.7803 113.596 89.6123 113.531 89.4723 113.4C89.3416 113.26 89.2763 113.097 89.2763 112.91C89.2763 112.723 89.3416 112.56 89.4723 112.42C89.6123 112.28 89.7803 112.21 89.9763 112.21C90.1629 112.21 90.3216 112.28 90.4523 112.42C90.5923 112.56 90.6623 112.723 90.6623 112.91C90.6623 113.097 90.5923 113.26 90.4523 113.4C90.3216 113.531 90.1629 113.596 89.9763 113.596ZM88.0583 113.596C87.8623 113.596 87.6943 113.531 87.5543 113.4C87.4236 113.26 87.3583 113.097 87.3583 112.91C87.3583 112.723 87.4236 112.56 87.5543 112.42C87.6943 112.28 87.8623 112.21 88.0583 112.21C88.2449 112.21 88.4036 112.28 88.5343 112.42C88.6743 112.56 88.7443 112.723 88.7443 112.91C88.7443 113.097 88.6743 113.26 88.5343 113.4C88.4036 113.531 88.2449 113.596 88.0583 113.596ZM91.4609 119.07L91.5869 117.922C92.0723 117.922 92.5483 117.885 93.0149 117.81C93.4816 117.735 93.9389 117.628 94.3869 117.488C94.8349 117.348 95.2643 117.18 95.6749 116.984C96.0949 116.779 96.4916 116.545 96.8649 116.284C96.6223 116.069 96.3423 115.883 96.0249 115.724C95.7076 115.565 95.3576 115.444 94.9749 115.36C94.6016 115.267 94.2049 115.22 93.7849 115.22C93.6356 115.22 93.4956 115.225 93.3649 115.234C93.2343 115.243 93.1036 115.262 92.9729 115.29C92.8423 115.309 92.6929 115.337 92.5249 115.374L92.3009 114.31C92.5529 114.235 92.8049 114.179 93.0569 114.142C93.3089 114.095 93.5516 114.072 93.7849 114.072C94.2703 114.072 94.7089 114.133 95.1009 114.254C95.4929 114.366 95.8476 114.506 96.1649 114.674C96.4916 114.842 96.7949 115.01 97.0749 115.178C97.3643 115.346 97.6443 115.491 97.9149 115.612C98.1856 115.724 98.4656 115.78 98.7549 115.78H99.0489L99.1469 116.788C98.7456 116.788 98.3769 116.844 98.0409 116.956C97.7049 117.068 97.3736 117.213 97.0469 117.39C96.7296 117.558 96.3936 117.74 96.0389 117.936C95.6843 118.123 95.2923 118.305 94.8629 118.482C94.4336 118.65 93.9389 118.79 93.3789 118.902C92.8283 119.014 92.1889 119.07 91.4609 119.07ZM93.7989 112.63C93.6029 112.63 93.4349 112.565 93.2949 112.434C93.1643 112.294 93.0989 112.131 93.0989 111.944C93.0989 111.757 93.1643 111.594 93.2949 111.454C93.4349 111.314 93.6029 111.244 93.7989 111.244C93.9856 111.244 94.1443 111.314 94.2749 111.454C94.4149 111.594 94.4849 111.757 94.4849 111.944C94.4849 112.131 94.4149 112.294 94.2749 112.434C94.1443 112.565 93.9856 112.63 93.7989 112.63ZM100.951 119L100.713 109.984H101.847L102.085 119H100.951ZM100.027 109.144L99.8591 108.388C100.102 108.332 100.298 108.285 100.447 108.248C100.596 108.211 100.764 108.169 100.951 108.122L100.881 108.416C100.638 108.341 100.405 108.183 100.181 107.94C99.9664 107.697 99.8591 107.422 99.8591 107.114C99.8591 106.834 99.9244 106.601 100.055 106.414C100.195 106.218 100.372 106.073 100.587 105.98C100.811 105.887 101.049 105.84 101.301 105.84C101.404 105.84 101.511 105.849 101.623 105.868C101.744 105.887 101.856 105.915 101.959 105.952L101.847 106.652C101.754 106.633 101.665 106.615 101.581 106.596C101.497 106.577 101.404 106.568 101.301 106.568C101.086 106.568 100.918 106.615 100.797 106.708C100.676 106.792 100.615 106.913 100.615 107.072C100.615 107.268 100.676 107.436 100.797 107.576C100.928 107.716 101.072 107.828 101.231 107.912C101.399 107.987 101.534 108.024 101.637 108.024L101.063 108.08C101.315 108.015 101.548 107.949 101.763 107.884C101.987 107.809 102.188 107.739 102.365 107.674L102.589 108.388C102.365 108.472 102.099 108.561 101.791 108.654C101.492 108.747 101.189 108.836 100.881 108.92C100.573 109.004 100.288 109.079 100.027 109.144Z" fill="white"/>
<defs>
<clipPath id="clip0_41_145">
<rect width="84" height="75" fill="white" transform="translate(9.5)"/>
</clipPath>
</defs>
</svg>
