<svg width="85" height="75" viewBox="0 0 85 75" fill="none" xmlns="http://www.w3.org/2000/svg">
<g id="&#216;&#167;&#217;&#132;&#216;&#170;&#216;&#176;&#216;&#167;&#217;&#131;&#216;&#177; &#216;&#167;&#217;&#132;&#217;&#133;&#217;&#129;&#216;&#170;&#217;&#136;&#216;&#173;&#216;&#169;" clip-path="url(#clip0_41_138)">
<path id="Vector" d="M69.2134 3.96476L69.2192 3.97342C69.2192 3.97342 69.2221 3.98207 69.225 3.99073H69.2279L69.2452 3.9965H69.2481L69.2539 3.98207L69.2885 3.92725L69.2134 3.96476ZM15.7103 3.92725L15.7421 3.9763V3.98207L15.7507 3.9965H15.7536C15.7536 3.9965 15.7652 3.99073 15.7767 3.98784L15.7825 3.96764H15.7854L15.7103 3.92725ZM69.2134 3.96476L69.2192 3.97342C69.2192 3.97342 69.2221 3.98207 69.225 3.99073H69.2279L69.2452 3.9965H69.2481L69.2539 3.98207L69.2885 3.92725L69.2134 3.96476ZM30.2871 49.2891L30.1917 49.2343L30.186 49.2429C30.1744 49.2574 30.1484 49.2833 30.1109 49.3208C30.1195 49.3266 30.1282 49.3353 30.134 49.341L30.1802 49.3901L30.1889 49.3988V49.4045L30.1917 49.4074L30.3391 49.3208H30.3795L30.2871 49.2891ZM15.7103 3.92725L15.7421 3.9763V3.98207L15.7507 3.9965H15.7536C15.7536 3.9965 15.7652 3.99073 15.7767 3.98784L15.7825 3.96764H15.7854L15.7103 3.92725ZM4.8398 68.6545C4.8138 68.6689 4.79358 68.6775 4.77913 68.6804H4.76758L4.77913 68.7439V68.842L4.80802 68.793L4.8138 68.7872L4.88024 68.7237C4.88024 68.7237 4.86002 68.6977 4.8398 68.6545Z" fill="#B4CED4"/>
<path id="Vector_2" d="M84.1736 24.7528C83.9511 24.3171 83.6131 23.9506 83.1885 23.6303C80.0917 21.2901 77.0267 18.895 73.9213 16.5519C73.6844 16.3701 73.5486 16.2114 73.462 16.0382C73.3753 15.8651 73.332 15.6602 73.332 15.3688V15.3486C73.3435 13.2219 73.3493 11.0952 73.3493 8.9656C73.3493 6.83602 73.3435 4.8334 73.3435 2.7673C73.3406 2.27964 73.3146 1.86988 73.228 1.51206C73.1644 1.24081 73.0662 0.995537 72.9131 0.784887C72.8004 0.629064 72.656 0.49344 72.4942 0.386672C72.2487 0.227964 71.9627 0.132738 71.6449 0.0779116C71.3272 0.0201993 70.9689 0 70.5587 0H14.4442C13.9531 0 13.5429 0.0288561 13.1789 0.112539C12.9102 0.173137 12.6618 0.271248 12.4509 0.4213C12.292 0.530953 12.1533 0.672348 12.0465 0.836828C11.8847 1.07922 11.7894 1.36201 11.7345 1.67943C11.6767 1.99685 11.6565 2.35178 11.6536 2.76153C11.6536 4.79878 11.6507 6.83602 11.6507 8.87326C11.6507 11.0606 11.6536 13.2479 11.6623 15.4352V15.4467C11.6623 15.7064 11.6247 15.8882 11.5525 16.0411C11.4774 16.1941 11.3647 16.3355 11.1567 16.4942C8.00506 18.8806 4.89095 21.3074 1.74795 23.6909C1.33486 24.0025 1.01131 24.3632 0.803322 24.7874C0.592441 25.2087 0.5 25.682 0.5 26.1985V26.2447C0.514444 27.8462 0.517333 29.4506 0.517333 31.055C0.517333 32.6594 0.514444 34.232 0.514444 35.822C0.514444 36.2664 0.514444 36.7108 0.517333 37.1552C0.517333 37.8275 0.667549 38.4018 1.0142 38.8259C1.18753 39.0366 1.40997 39.204 1.66129 39.3107C1.9155 39.4175 2.19283 39.4665 2.48748 39.4665H2.5077C2.79658 39.4637 3.07102 39.4146 3.31945 39.3136C3.70077 39.1549 4.00698 38.8606 4.19475 38.4854C4.38252 38.1132 4.46919 37.6688 4.47208 37.1638C4.47496 36.2 4.47496 35.2391 4.47496 34.2753V33.2365C4.47496 32.1111 4.47496 30.9828 4.48074 29.8575V29.8517C4.47785 29.7795 4.47208 29.7161 4.4663 29.6612C4.50385 29.6959 4.54718 29.7363 4.59918 29.7767C12.9564 36.1654 21.3079 42.5599 29.6594 48.9602C29.8674 49.116 30.0205 49.2372 30.11 49.3209C30.1476 49.2834 30.1736 49.2574 30.1851 49.243L30.1909 49.2344L30.2862 49.2892L30.3787 49.3209H30.3382L30.1909 49.4075L30.188 49.3988L30.1793 49.3902L30.1331 49.3411C30.1331 49.3411 30.1187 49.3267 30.11 49.3209C30.0811 49.3469 30.0465 49.3786 30.0031 49.4133C29.9049 49.4941 29.7691 49.5979 29.6045 49.7249C24.3642 53.7388 19.124 57.7556 13.8837 61.7695C10.9921 63.9856 8.10327 66.196 5.2116 68.4064C5.06428 68.5189 4.94584 68.5997 4.86495 68.643C4.85628 68.6488 4.84762 68.6516 4.83895 68.6545C4.85917 68.6978 4.8765 68.7209 4.87939 68.7238L4.81295 68.7873L4.80717 68.793L4.77829 68.8421V68.744L4.76673 68.6834H4.77829C4.79273 68.6776 4.81295 68.669 4.83895 68.6545C4.83028 68.6401 4.82451 68.6228 4.81584 68.6026C4.78406 68.5218 4.74651 68.4064 4.70896 68.2621C4.53274 67.5984 4.46919 66.9059 4.46919 66.1902V66.1758C4.47208 62.6467 4.47496 59.1205 4.47496 55.5914C4.47496 52.2758 4.47208 48.9573 4.47208 45.6418C4.47208 45.4946 4.47785 45.3388 4.47785 45.1743C4.47785 44.9781 4.46919 44.7732 4.43452 44.5568C4.35364 44.0547 4.09076 43.6334 3.73544 43.3506C3.383 43.0678 2.94102 42.9149 2.48748 42.9149C2.03394 42.9149 1.59774 43.062 1.21931 43.3766C0.895763 43.642 0.702215 43.9825 0.612662 44.3173C0.520221 44.652 0.511555 44.981 0.511555 45.2926V45.3013C0.514444 52.6076 0.511555 59.9169 0.520221 67.2233C0.520221 67.6648 0.540443 68.1322 0.635773 68.5939C1.02576 70.5129 2.00506 72.1202 3.38589 73.2398C4.76673 74.3623 6.54622 74.9942 8.52215 74.9942C13.4706 75 18.422 75 23.3705 75C29.7489 75 36.1273 74.9971 42.5029 74.9971C48.8784 74.9971 55.4071 75 61.8606 75C66.7369 75 71.6103 75 76.4865 74.9942C78.7629 74.9942 80.7677 74.1459 82.1976 72.7204C83.6276 71.2978 84.4798 69.298 84.4798 67.027C84.4884 53.43 84.4769 39.8359 84.5 26.2389V26.2302C84.5 25.682 84.3989 25.1856 84.1736 24.7528ZM11.6305 30.071C9.68633 28.582 7.76529 27.1103 5.83847 25.6445C5.83847 25.6445 5.83654 25.6425 5.83269 25.6387C5.83269 25.6387 5.84714 25.6271 5.85291 25.6214C7.79129 24.1468 9.7181 22.6636 11.6507 21.1833C11.6449 24.1468 11.642 27.1075 11.6305 30.071ZM73.3435 30.097V24.6114C73.3435 23.4687 73.3435 22.3289 73.3493 21.1833C75.253 22.6376 77.1509 24.1007 79.0633 25.5521C79.1095 25.5839 79.1442 25.6156 79.1731 25.6416C79.1558 25.6589 79.1326 25.6762 79.1066 25.6964C77.2318 27.1132 75.3715 28.5445 73.3435 30.097ZM16.3392 33.7097C16.0908 33.5193 15.9521 33.3462 15.8625 33.1557C15.773 32.9681 15.7268 32.7402 15.7268 32.4256V32.4199C15.7383 26.8045 15.7412 21.192 15.7412 15.5765V4.76126C15.7412 4.4525 15.7441 4.22743 15.7585 4.09469C15.7643 4.04563 15.7701 4.00812 15.7759 3.98792C15.7643 3.9908 15.7585 3.99369 15.7528 3.99658H15.7499L15.7441 3.98215V3.97638L15.7094 3.92732L15.7845 3.96483H15.7817L15.7759 3.98792C15.8077 3.98215 15.8654 3.97061 15.9521 3.96483C16.085 3.95618 16.2756 3.95618 16.5212 3.95618H68.4702C68.7735 3.95618 68.9959 3.95906 69.123 3.97349C69.1692 3.97926 69.2039 3.98503 69.2241 3.9908C69.2212 3.98215 69.2183 3.97638 69.2183 3.97349L69.2126 3.96483L69.2877 3.92732L69.253 3.98215L69.2472 3.99946H69.2443L69.227 3.9908H69.2241C69.2328 4.02832 69.2415 4.10623 69.2472 4.21588C69.2559 4.34862 69.2559 4.52753 69.2559 4.75261V15.4755C69.2559 21.1227 69.2588 26.767 69.2675 32.4112V32.4199C69.2675 32.7344 69.227 32.9624 69.1404 33.1528C69.0537 33.3433 68.9179 33.5164 68.6666 33.7069C63.1635 37.8881 57.6719 42.0867 52.2063 46.3199C52.0503 46.4382 51.9203 46.5219 51.8134 46.568C51.7066 46.6142 51.6286 46.6315 51.5563 46.6315C51.4841 46.6315 51.409 46.6142 51.305 46.568C51.201 46.5219 51.071 46.4382 50.9179 46.317C48.6676 44.525 46.3681 42.8023 44.0859 41.0681C43.8 40.8516 43.5457 40.6785 43.2886 40.5544C43.0344 40.4332 42.7715 40.3582 42.4971 40.3582C42.2227 40.3582 41.9627 40.4332 41.7085 40.5544C41.4543 40.6785 41.2029 40.8488 40.9227 41.0623C38.5915 42.8369 36.2516 44.6058 33.9405 46.418C33.8163 46.5132 33.7123 46.5796 33.6314 46.6142C33.5477 46.6517 33.4928 46.6604 33.4379 46.6604C33.3888 46.6604 33.331 46.6517 33.253 46.6171C33.1721 46.5825 33.071 46.5219 32.9497 46.4295C27.4292 42.1704 21.8914 37.9285 16.3392 33.7097ZM80.5453 29.6555C80.5337 29.742 80.5193 29.843 80.5193 29.9642C80.525 42.0463 80.5221 54.1312 80.5279 66.2162V66.222C80.5279 66.9405 80.4615 67.6301 80.2766 68.2909C80.2304 68.4612 80.1813 68.5853 80.1524 68.6574C80.1351 68.6459 80.1119 68.6343 80.0888 68.6199C80.0195 68.5795 79.9328 68.516 79.8288 68.4381C76.033 65.5323 72.2429 62.6207 68.447 59.712C65.4369 57.4035 62.4239 55.0979 59.4109 52.7894C59.2434 52.6625 59.0614 52.5182 58.8505 52.3883C58.4519 52.1402 58.0243 52.0045 57.6054 52.0045C57.305 52.0045 57.0075 52.0738 56.7417 52.2152C56.4759 52.3537 56.2419 52.5586 56.0542 52.8154C55.7971 53.1646 55.6613 53.5714 55.6613 53.9812C55.6613 54.5929 55.9617 55.1989 56.5048 55.626C58.1081 56.8899 59.7345 58.1192 61.3493 59.3542C66.3816 63.2065 71.408 67.0559 76.4345 70.914H8.57992C9.39456 70.282 10.2034 69.6501 11.0152 69.0268C21.3252 61.1317 31.6411 53.2425 41.9367 45.3272C42.0782 45.2176 42.1967 45.1454 42.2891 45.1022C42.3845 45.0589 42.4509 45.0473 42.5087 45.0473C42.5693 45.0473 42.63 45.0589 42.7195 45.0993C42.8062 45.1397 42.9189 45.2089 43.0546 45.3157C45.2299 47.0499 47.4514 48.7236 49.6555 50.4088C50.0166 50.6829 50.3257 50.8993 50.629 51.0552C50.9295 51.211 51.2386 51.3062 51.5563 51.3062C51.8741 51.3062 52.1803 51.211 52.4807 51.0581C52.7812 50.9051 53.0874 50.6887 53.4485 50.4146C62.4124 43.5555 71.3734 36.6906 80.343 29.8344C80.4268 29.768 80.4933 29.7045 80.5453 29.6468V29.6555Z" fill="#B4CED4"/>
<path id="Vector_3" d="M59.6043 15.135C59.6043 15.6284 59.4945 16.1334 59.2374 16.5778C58.9832 17.0222 58.5903 17.38 58.1397 17.6109C57.8421 17.7667 57.5186 17.8734 57.1806 17.9369C56.5855 18.0495 56.0395 18.0495 55.5658 18.0495C51.9114 18.0524 48.2571 18.0552 44.5999 18.0552C40.6914 18.0552 36.7829 18.0524 32.8715 18.0466C32.3082 18.0466 31.6726 18.0293 30.9996 17.8706C30.5229 17.758 30.0723 17.5445 29.7083 17.2184C29.3414 16.8923 29.0843 16.4624 28.9543 16.018C28.8676 15.7179 28.8301 15.4149 28.8301 15.1119C28.8301 15.008 28.833 14.907 28.8416 14.8032C28.885 14.2405 29.0958 13.6806 29.4714 13.2478C29.8412 12.815 30.3438 12.5235 30.8782 12.3706C31.2364 12.2696 31.612 12.2234 32.002 12.2205C33.871 12.2148 35.7429 12.2148 37.612 12.2148C39.6168 12.2148 41.6187 12.2176 43.6206 12.2176H44.2157C46.1397 12.2148 48.0665 12.2148 49.9904 12.2148H53.4252C54.0145 12.2148 54.6153 12.209 55.2278 12.209C55.7449 12.209 56.2677 12.2148 56.7993 12.235C57.3539 12.258 57.8883 12.4139 58.3419 12.7082C58.7925 12.9968 59.1507 13.4238 59.3587 13.9086C59.5003 14.2347 59.5783 14.5838 59.5985 14.9388C59.6014 15.0023 59.6043 15.0686 59.6043 15.135Z" fill="#B4CED4"/>
<path id="Vector_4" d="M59.6054 25.8898V25.9388C59.6054 26.389 59.5216 26.8392 59.3194 27.2518C59.123 27.6644 58.8052 28.028 58.4239 28.2848C58.1726 28.4551 57.8924 28.5849 57.6006 28.6744C57.2077 28.7927 56.7946 28.8475 56.3584 28.8504C54.5009 28.8677 52.6434 28.8735 50.7888 28.8735C48.9342 28.8735 47.0017 28.8677 45.1095 28.8533C44.4711 28.8475 43.8673 28.6975 43.3502 28.406C42.8331 28.1146 42.4027 27.6731 42.1485 27.1335C41.9781 26.7757 41.8827 26.3775 41.877 25.9706V25.9158C41.877 25.6099 41.9232 25.304 42.0185 25.0126C42.1138 24.7211 42.2612 24.4441 42.4489 24.2046C42.8245 23.7198 43.356 23.3908 43.9338 23.2119C44.3209 23.0936 44.7311 23.0359 45.1586 23.0301C45.8981 23.0244 46.6348 23.0215 47.3714 23.0215C48.472 23.0215 49.5698 23.0273 50.6617 23.0273H50.6762C51.7999 23.0273 52.9237 23.0215 54.0532 23.0215C54.8014 23.0215 55.5524 23.0244 56.3035 23.0301C56.7888 23.0359 57.2482 23.0965 57.6786 23.2408C58.109 23.3822 58.5163 23.613 58.8428 23.9449C59.0594 24.1671 59.2356 24.4268 59.3599 24.7096C59.5274 25.0847 59.5996 25.4887 59.6054 25.8898Z" fill="#B4CED4"/>
</g>
<defs>
<clipPath id="clip0_41_138">
<rect width="84" height="75" fill="white" transform="translate(0.5)"/>
</clipPath>
</defs>
</svg>
