<svg width="28" height="28" viewBox="0 0 28 28" fill="none" xmlns="http://www.w3.org/2000/svg">
<rect width="28" height="28" fill="#1E1E1E"/>
<g id="&#216;&#167;&#217;&#132;&#216;&#177;&#216;&#166;&#217;&#138;&#216;&#179;&#217;&#138;&#216;&#169;">
<rect width="1920" height="1080" transform="translate(-676 -369)" fill="#0E0E0E"/>
<rect id="Rectangle 60" x="-514" y="-202" width="630" height="598" rx="8" fill="#141F25"/>
<g id="Frame 71">
<g id="Frame 69">
<g id="Frame 65">
<g id="Frame 64">
<g id="Frame 62">
<rect x="-9" y="-9" width="46" height="46" rx="23" fill="#2C3899" fill-opacity="0.1"/>
<g id="Group">
<path id="Vector" d="M9.9813 14.2246C10.2332 14.2246 10.437 14.4292 10.437 14.6819V16.4759C10.437 16.7277 10.2332 16.9324 9.9813 16.9324C9.7294 16.9324 9.52557 16.7277 9.52557 16.4759V14.6819C9.52557 14.4292 9.7294 14.2246 9.9813 14.2246ZM5.10914 14.3464C4.97905 14.271 4.81747 14.3646 4.81747 14.5154V16.6424C4.81747 16.7932 4.97905 16.8868 5.10914 16.8114L6.94697 15.7483C7.07623 15.6729 7.07623 15.4848 6.94697 15.4094L5.10914 14.3464ZM25.2515 3.05256H16.8802C16.7393 3.74361 16.3831 4.35594 15.8851 4.81581H25.3037C25.4645 4.81581 25.5954 4.94756 25.5954 5.10831V18.2242H1.75829V5.10831C1.75829 4.94756 1.89003 4.81581 2.04995 4.81581H11.4214C10.9234 4.35594 10.5671 3.74361 10.4263 3.05256H2.10298C0.94626 3.05256 0 4.0013 0 5.16134V19.6676C0 20.8277 0.94626 21.7764 2.10298 21.7764H9.37891V25.1264H6.17803C5.19117 25.1264 4.38412 25.7727 4.38412 26.5632V28H22.9696V26.5632C22.9696 25.7727 22.1634 25.1264 21.1765 25.1264H17.9756V21.7764H25.2515C26.4083 21.7764 27.3545 20.8277 27.3545 19.6676V5.16134C27.3545 4.0013 26.4083 3.05256 25.2515 3.05256ZM10.9143 6.22775C11.9177 6.56664 12.893 7.12595 13.6611 7.85926C14.406 7.1102 15.3697 6.56581 16.3922 6.22775C14.7648 5.05942 12.5417 5.05942 10.9143 6.22775ZM13.2211 8.71354C12.366 7.80043 10.7519 6.81937 8.67543 6.73236C8.59505 6.72905 8.52462 6.75556 8.46662 6.81191C8.40779 6.86742 8.37879 6.93703 8.37879 7.01823V12.5152C8.37879 12.6718 8.50391 12.7985 8.65968 12.801C10.3144 12.8234 11.9683 13.0504 13.2211 13.734V8.71354ZM8.27107 14.2246C8.02001 14.2246 7.81534 14.4292 7.81534 14.6819V16.4759C7.81534 16.7277 8.02001 16.9324 8.27107 16.9324C8.52296 16.9324 8.72763 16.7277 8.72763 16.4759V14.6819C8.72763 14.4292 8.52296 14.2246 8.27107 14.2246ZM18.6799 6.73153C16.5836 6.81108 15.0084 7.72585 14.1334 8.69531V13.734C15.3862 13.0504 17.0401 12.8234 18.6948 12.801C18.8506 12.7985 18.9757 12.6718 18.9757 12.5152V7.0174C18.9757 6.93703 18.9459 6.86742 18.8887 6.81191C18.8307 6.75556 18.7603 6.72905 18.6799 6.73153ZM11.3187 16.0359H22.4012C22.6531 16.0359 22.8569 15.8312 22.8569 15.5785C22.8569 15.3266 22.6531 15.1219 22.4012 15.1219H11.3187C11.0668 15.1219 10.8629 15.3266 10.8629 15.5785C10.8629 15.8312 11.0668 16.0359 11.3187 16.0359ZM13.6528 4.77604C14.9686 4.77604 16.035 3.70715 16.035 2.38802C16.035 1.06889 14.9686 0 13.6528 0C12.3378 0 11.2714 1.06889 11.2714 2.38802C11.2714 3.70715 12.3378 4.77604 13.6528 4.77604Z" fill="#B1BAFE"/>
</g>
</g>
</g>
</g>
</g>
</g>
</g>
</svg>
