<svg width="66" height="61" viewBox="0 0 66 61" fill="none" xmlns="http://www.w3.org/2000/svg">
<path id="Vector" d="M5.92308 1V37.875C5.92308 39.831 6.7011 41.7068 8.08598 43.0899C9.47087 44.473 11.3492 45.25 13.3077 45.25H20.6923M5.92308 1H1M5.92308 1H60.0769M20.6923 45.25H45.3077M20.6923 45.25L17.4103 55.0833M60.0769 1H65M60.0769 1V37.875C60.0769 39.831 59.2989 41.7068 57.914 43.0899C56.5291 44.473 54.6508 45.25 52.6923 45.25H45.3077M45.3077 45.25L48.5897 55.0833M17.4103 55.0833H48.5897M17.4103 55.0833L15.7692 60M48.5897 55.0833L50.2308 60M18.2308 30.5L28.0769 20.6667L35.1268 27.7073C38.439 22.9588 42.7548 18.9944 47.7692 16.0942" stroke="#5B767C" stroke-width="1.5" stroke-linecap="round" stroke-linejoin="round"/>
</svg>
