<svg width="127" height="127" viewBox="0 0 127 127" fill="none" xmlns="http://www.w3.org/2000/svg">
<g id="Clip path group">
<mask id="mask0_1238_2080" style="mask-type:luminance" maskUnits="userSpaceOnUse" x="0" y="0" width="127" height="127">
<g id="7be1ac212a">
<path id="Vector" d="M0 0H127V127H0V0Z" fill="white"/>
</g>
</mask>
<g mask="url(#mask0_1238_2080)">
<g id="Group">
<g id="Clip path group_2">
<mask id="mask1_1238_2080" style="mask-type:luminance" maskUnits="userSpaceOnUse" x="0" y="0" width="127" height="127">
<g id="a6c498e2c1">
<path id="Vector_2" fill-rule="evenodd" clip-rule="evenodd" d="M89.8772 62.4848H37.1228C34.4555 62.4848 32.2936 60.3198 32.2936 57.6556V54.2518C32.2936 53.5368 31.7117 52.9565 30.9982 52.9565C30.2832 52.9565 29.7028 53.5368 29.7028 54.2518V57.6556C29.7028 61.7514 33.0255 65.0756 37.1228 65.0756H40.4975C41.0854 67.5637 43.3194 69.4194 45.9867 69.4194H52.6472C52.8891 70.8266 53.5184 72.102 54.4233 73.131H44.5979C42.1435 73.131 39.9172 74.117 38.2911 75.711C37.9726 75.6267 37.6419 75.5854 37.2989 75.5839C28.1212 75.5502 22.2094 73.8154 18.7184 69.4256C18.2743 68.8652 17.4582 68.7718 16.8993 69.2173C16.3389 69.6629 16.2455 70.4775 16.688 71.0394C20.4776 75.8044 26.7355 78.0215 36.5088 78.1669C36.0556 79.0902 35.754 80.0977 35.6376 81.1603C25.1507 80.8679 18.4688 78.1179 14.3331 72.9135C10.5512 68.1578 8.88222 61.1956 8.54231 51.8831C9.02462 52.0807 9.55287 52.1894 10.1087 52.1894C10.6492 52.1894 11.1682 52.0853 11.6429 51.8969C11.8465 58.2053 12.6167 63.327 14.4311 67.3095C14.7297 67.9603 15.4968 68.2481 16.1475 67.9526C16.7998 67.6555 17.0877 66.8869 16.7906 66.2377C14.8124 61.8954 14.2183 56.1137 14.18 48.8377C14.203 48.706 14.2244 48.5743 14.2367 48.4396C17.7599 46.861 20.2158 43.3194 20.2158 39.2113C20.2158 38.4963 19.6355 37.916 18.9205 37.916C18.2054 37.916 17.6251 38.4963 17.6251 39.2113C17.6251 42.0883 16.0051 44.5903 13.6303 45.8519C12.8969 44.6775 11.5939 43.8951 10.1087 43.8951C8.62346 43.8951 7.31891 44.6775 6.58549 45.8519C4.2122 44.5903 2.59224 42.0883 2.59224 39.2113C2.59224 38.4963 2.01194 37.916 1.29536 37.916C0.580307 37.916 0 38.4963 0 39.2113C0 43.2888 2.41769 46.8043 5.89647 48.4028C5.88882 48.4625 5.88269 48.5238 5.88269 48.5866C5.93781 60.3167 7.80429 68.8652 12.3028 74.5258C16.5104 79.816 23.0576 82.9564 33.1755 83.6393H25.8842C23.3501 83.6393 21.2938 85.6941 21.2938 88.2266C21.2938 90.3105 22.6856 92.0698 24.5888 92.6302V101.353C24.5888 102.07 25.166 102.65 25.8842 102.65H26.3512C26.1858 103.111 26.0939 103.609 26.0939 104.129V106.179C23.6043 106.766 21.75 109.003 21.75 111.67V115.08C21.75 117.747 23.6043 119.984 26.0939 120.569V122.622C26.0939 125.039 28.0569 127 30.4715 127H50.7868C53.203 127 55.1644 125.039 55.1644 122.622V116.074H59.1224V116.444C59.1224 118.009 60.3918 119.281 61.9581 119.281H65.0419C66.6082 119.281 67.8776 118.009 67.8776 116.444V116.074H71.8356V122.622C71.8356 123.117 71.9183 123.61 72.0836 124.077C72.2245 124.474 72.4205 124.849 72.667 125.189C72.9288 125.548 73.2473 125.87 73.6056 126.136C73.9807 126.417 74.4033 126.637 74.8489 126.783C75.2884 126.928 75.7523 127 76.2132 127C82.9855 127 89.7578 127 96.527 127C96.9909 127 97.4533 126.928 97.8943 126.783C98.3399 126.637 98.7594 126.417 99.1376 126.136C99.4959 125.87 99.8144 125.548 100.076 125.189C100.323 124.849 100.519 124.474 100.66 124.077C100.822 123.61 100.906 123.117 100.906 122.622V120.569L100.918 120.568C101.437 120.442 101.937 120.246 102.4 119.981C103.044 119.614 103.613 119.121 104.068 118.536C104.472 118.012 104.786 117.421 104.985 116.79C105.161 116.239 105.25 115.66 105.25 115.08C105.25 113.945 105.25 112.808 105.25 111.67C105.25 111.312 105.216 110.954 105.149 110.604C105.037 110.021 104.832 109.456 104.544 108.937C104.298 108.494 103.99 108.083 103.632 107.72C103.272 107.351 102.863 107.035 102.416 106.778C101.95 106.509 101.442 106.31 100.918 106.182L100.906 106.179V104.129C100.906 103.609 100.814 103.111 100.649 102.65H101.117C101.834 102.65 102.414 102.07 102.414 101.353V92.6302C104.313 92.0698 105.705 90.3105 105.705 88.2266C105.705 85.6941 103.65 83.6393 101.117 83.6393H93.8245C103.942 82.9564 110.49 79.816 114.697 74.5258C115.143 73.9654 115.049 73.1493 114.489 72.7068C113.93 72.2613 113.112 72.3531 112.667 72.9135C108.531 78.1179 101.849 80.8679 91.3624 81.1603C91.246 80.0977 90.9444 79.0871 90.4912 78.1669C100.265 78.0215 106.522 75.8044 110.31 71.0394C113.763 66.694 115.077 60.3565 115.356 51.8969C115.832 52.0853 116.351 52.1894 116.891 52.1894C117.447 52.1894 117.975 52.0807 118.458 51.8831C118.181 59.3919 117.034 65.3787 114.619 69.9201C114.282 70.5494 114.523 71.3349 115.152 71.6718C115.786 72.0071 116.57 71.7682 116.905 71.1359C119.823 65.6513 121.07 58.1869 121.116 48.5866C121.116 48.5238 121.111 48.4625 121.104 48.4028C124.582 46.8043 127 43.2888 127 39.2113C127 38.4963 126.42 37.916 125.705 37.916C124.988 37.916 124.408 38.4963 124.408 39.2113C124.408 42.0883 122.788 44.5903 120.415 45.8519C119.681 44.6775 118.377 43.8951 116.891 43.8951C115.406 43.8951 114.103 44.6775 113.37 45.8519C110.995 44.5903 109.375 42.0883 109.375 39.2113C109.375 38.4963 108.795 37.916 108.08 37.916C107.364 37.916 106.784 38.4963 106.784 39.2113C106.784 43.3194 109.24 46.861 112.763 48.4396C112.776 48.5743 112.797 48.706 112.82 48.8377C112.771 58.0981 111.854 64.9332 108.282 69.4256C104.791 73.8154 98.8788 75.5502 89.7011 75.5839C89.3581 75.5854 89.0274 75.6267 88.7089 75.7079C87.0828 74.117 84.8565 73.131 82.4021 73.131H72.5767C73.4816 72.102 74.1109 70.8266 74.3513 69.4194H81.0133C83.6806 69.4194 85.9146 67.5637 86.5025 65.0756H89.8772C93.9745 65.0756 97.3002 61.7514 97.3002 57.6556V43.4909L97.3109 43.4894C97.8285 43.3638 98.3322 43.1678 98.7931 42.9029C99.4362 42.5354 100.006 42.0394 100.459 41.456C100.863 40.9323 101.177 40.3428 101.378 39.712C101.554 39.1608 101.641 38.582 101.641 38.0017C101.641 34.3606 101.641 30.7165 101.641 27.0739C101.641 26.4966 101.554 25.9163 101.378 25.3666C101.177 24.7343 100.863 24.1432 100.459 23.6196C100.006 23.0362 99.4362 22.5416 98.7931 22.1726C98.3322 21.9093 97.8285 21.7118 97.3109 21.5877L97.3002 21.5847V15.3621C97.3002 14.647 96.7169 14.0667 96.0049 14.0667C95.2883 14.0667 94.708 14.647 94.708 15.3621V57.6556C94.708 60.3198 92.5444 62.4848 89.8772 62.4848ZM98.3138 120.658C97.7687 120.904 97.1655 121.039 96.527 121.039H76.2132C75.5777 121.039 74.9745 120.904 74.4278 120.658V122.622C74.4278 123.607 75.2286 124.408 76.2132 124.408H96.527C97.5146 124.408 98.3138 123.607 98.3138 122.622V120.658ZM28.6862 114.437V116.662C28.6862 117.646 29.4854 118.447 30.4715 118.447H32.9627C33.6777 118.447 34.2596 119.027 34.2596 119.742C34.2596 120.459 33.6777 121.039 32.9627 121.039H30.4715C29.8345 121.039 29.2313 120.904 28.6862 120.658V122.633C28.6862 122.843 28.726 123.05 28.7979 123.247C28.9066 123.54 29.0934 123.801 29.3338 124.002C29.5084 124.141 29.7074 124.253 29.9203 124.32C30.0964 124.38 30.2862 124.408 30.4715 124.408C37.2422 124.408 44.0145 124.408 50.7868 124.408C50.9736 124.408 51.1604 124.38 51.3396 124.32C51.5509 124.253 51.7484 124.141 51.9229 124.002C52.1633 123.801 52.3501 123.54 52.4589 123.247C52.5339 123.05 52.5706 122.843 52.5722 122.633V120.658C52.0255 120.904 51.4223 121.039 50.7868 121.039H37.1106C36.394 121.039 35.8137 120.459 35.8137 119.742C35.8137 119.027 36.394 118.447 37.1106 118.447H50.7868C51.4299 118.447 51.998 118.106 52.3103 117.591C52.3838 117.473 52.4711 117.372 52.5722 117.283V114.437C52.0255 114.683 51.4223 114.818 50.7868 114.818H30.4715C29.8345 114.818 29.2313 114.683 28.6862 114.437ZM98.3138 108.127C97.7687 108.37 97.1655 108.507 96.527 108.507H76.2132C75.5777 108.507 74.9745 108.37 74.4278 108.127V111.062C74.5289 111.151 74.6162 111.252 74.6897 111.372C75.002 111.884 75.5701 112.227 76.2132 112.227H87.2283C87.9433 112.227 88.5236 112.808 88.5236 113.523C88.5236 114.238 87.9433 114.818 87.2283 114.818H76.2132C75.5777 114.818 74.9745 114.683 74.4278 114.437V117.283C74.5289 117.372 74.6162 117.473 74.6897 117.591C75.002 118.106 75.5701 118.447 76.2132 118.447H96.527C97.5146 118.447 98.3138 117.646 98.3138 116.662V114.437C97.7687 114.683 97.1655 114.818 96.527 114.818H92.4112C91.6962 114.818 91.1159 114.238 91.1159 113.523C91.1159 112.808 91.6962 112.227 92.4112 112.227H96.527C97.5146 112.227 98.3138 111.425 98.3138 110.441V108.127ZM100.906 108.912V117.841C101.943 117.354 102.658 116.3 102.658 115.08V111.67C102.658 110.451 101.943 109.399 100.906 108.912ZM26.0847 108.914C25.8489 109.029 25.6254 109.171 25.4233 109.343C25.1829 109.546 24.9716 109.79 24.8032 110.059C24.6485 110.306 24.5321 110.574 24.4541 110.852C24.379 111.12 24.3423 111.394 24.3423 111.67C24.3423 112.808 24.3423 113.945 24.3423 115.08C24.3423 115.394 24.3897 115.708 24.4847 116.006C24.6592 116.55 24.9884 117.04 25.4233 117.407C25.6254 117.579 25.8489 117.721 26.0847 117.836L26.0939 117.841V108.912L26.0847 108.914ZM65.2853 109.033V116.444C65.2853 116.579 65.1766 116.689 65.0419 116.689H61.9581C61.8234 116.689 61.7147 116.579 61.7147 116.444V109.033C61.7147 108.896 61.8234 108.787 61.9581 108.787H65.0419C65.1766 108.787 65.2853 108.896 65.2853 109.033ZM67.8776 111.589V113.481H71.8356V111.589H67.8776ZM55.1644 111.589V113.481H59.1224V111.589H55.1644ZM52.5722 104.752V102.65H29.4716C28.997 102.972 28.6862 103.514 28.6862 104.129C28.6862 105.115 29.4854 105.916 30.4715 105.916H42.8769C43.5919 105.916 44.1722 106.496 44.1722 107.211C44.1722 107.926 43.5919 108.507 42.8769 108.507H30.4715C29.8345 108.507 29.2313 108.37 28.6862 108.127V110.441C28.6862 111.425 29.4854 112.227 30.4715 112.227H50.7868C51.4299 112.227 51.998 111.884 52.3103 111.372C52.3838 111.252 52.4711 111.151 52.5722 111.062V108.127C52.0255 108.37 51.4223 108.507 50.7868 108.507H47.0233C46.3082 108.507 45.7279 107.926 45.7279 107.211C45.7279 106.496 46.3082 105.916 47.0233 105.916H50.7868C51.4299 105.916 51.998 105.572 52.3103 105.06C52.3838 104.941 52.4711 104.838 52.5722 104.752ZM67.8776 108.997H71.8356V105.426H55.1644V108.997H59.1224C59.1408 107.447 60.4055 106.196 61.9581 106.196H65.0419C66.5945 106.196 67.8592 107.447 67.8776 108.997ZM97.5284 102.65H74.4278V104.752C74.5289 104.838 74.6162 104.941 74.6897 105.06C75.002 105.572 75.5701 105.916 76.2132 105.916H96.527C97.5146 105.916 98.3138 105.115 98.3138 104.129C98.3138 103.514 98.003 102.972 97.5284 102.65ZM59.0704 92.817H56.6711V101.353C56.6711 102.07 56.0892 102.65 55.3742 102.65H55.1644V102.834H71.8356V102.65H71.6258C70.9108 102.65 70.3289 102.07 70.3289 101.353V92.817H67.9296L64.5779 97.8422C64.3375 98.2021 63.9333 98.4195 63.5 98.4195C63.0667 98.4195 62.6625 98.2021 62.4221 97.8422L59.0704 92.817ZM99.822 92.817H72.9212V100.058H97.8514C97.8652 100.058 97.8759 100.058 97.8882 100.058H99.822V92.817ZM54.6806 86.23H25.8842C24.7802 86.23 23.886 87.1242 23.886 88.2266C23.886 89.3306 24.7802 90.2248 25.8842 90.2248H32.9627C33.6777 90.2248 34.2596 90.8051 34.2596 91.5201C34.2596 92.2352 33.6777 92.817 32.9627 92.817H27.181V100.058H29.1118C29.1241 100.058 29.1348 100.058 29.147 100.058H54.0788V92.817H37.1106C36.394 92.817 35.8137 92.2352 35.8137 91.5201C35.8137 90.8051 36.394 90.2248 37.1106 90.2248H57.3417L54.6806 86.23ZM82.4021 75.7232H44.5979C41.0548 75.7232 38.1778 78.6002 38.1778 82.1464V83.6393H54.0788V80.874C54.0788 80.1574 54.6591 79.5771 55.3742 79.5771H63.5C64.215 79.5771 64.7954 80.1574 64.7954 80.874C64.7954 81.5891 64.215 82.1694 63.5 82.1694H56.6711V84.5426L63.5 94.7891L70.3289 84.5426V82.1694H67.9067C67.1901 82.1694 66.6098 81.5891 66.6098 80.874C66.6098 80.1574 67.1901 79.5771 67.9067 79.5771H71.6258C72.3409 79.5771 72.9212 80.1574 72.9212 80.874V83.6393H88.8222V82.1464C88.8222 80.5938 88.2725 79.1698 87.3554 78.0613C86.1764 76.6327 84.3957 75.7232 82.4021 75.7232ZM101.117 86.23H72.3194L69.6583 90.2248H101.117C102.22 90.2248 103.114 89.3306 103.114 88.2266C103.114 87.1242 102.22 86.23 101.117 86.23ZM71.7009 69.4194H55.2991C55.8703 71.5554 57.821 73.131 60.1376 73.131H66.8609C69.179 73.131 71.1297 71.5554 71.7009 69.4194ZM83.7709 65.0756H43.2291L43.2352 65.0832C43.3454 65.3221 43.4909 65.5456 43.6593 65.7477C43.8645 65.9881 44.1079 66.1979 44.3774 66.3663C44.6239 66.5194 44.8904 66.6389 45.1736 66.717C45.437 66.7889 45.7126 66.8287 45.9867 66.8287C57.6632 66.8287 69.3368 66.8287 81.0133 66.8287C81.2874 66.8287 81.563 66.7889 81.8294 66.717C82.1096 66.6389 82.3761 66.5194 82.6226 66.3663C82.8921 66.1979 83.1355 65.9881 83.3407 65.7477C83.5122 65.5456 83.6546 65.3221 83.7648 65.0832L83.7709 65.0756ZM54.0375 51.9827C54.0895 52.122 54.1646 52.2537 54.2671 52.3731C54.3927 52.5216 54.5458 52.6349 54.7081 52.71C54.875 52.785 55.0588 52.8294 55.2532 52.8294C55.5503 52.8294 55.8488 52.7253 56.0923 52.5186C58.5697 50.4086 61.0272 49.3016 63.5031 49.3001C65.9759 49.294 68.4303 50.3903 70.9016 52.5155C71.0394 52.6319 71.1925 52.7176 71.3533 52.7666L71.3563 52.7697C71.462 52.8003 71.5707 52.8217 71.6794 52.8263H71.6901C71.7055 52.8294 71.7208 52.8294 71.7361 52.8294H71.7468C72.1127 52.8294 72.4726 52.6763 72.7298 52.3792C72.9396 52.1327 73.0437 51.8311 73.0437 51.534C73.0437 46.2822 68.7503 41.6351 63.5 41.6351C58.2481 41.6351 53.9563 46.2822 53.9563 51.534C53.9563 51.6917 53.9854 51.8418 54.0375 51.9827ZM29.7028 21.4729C26.9039 21.8021 24.7266 24.1876 24.7266 27.0739V38.0017C24.7266 40.8895 26.9039 43.2735 29.7028 43.6027V50.1055C29.7028 50.8205 30.2832 51.4008 30.9982 51.4008C31.7117 51.4008 32.2936 50.8205 32.2936 50.1055V7.41997C32.2936 4.75576 34.4555 2.59224 37.1228 2.59224H40.5832C41.2983 2.59224 41.8786 2.01194 41.8786 1.29536C41.8786 0.580307 41.2983 0 40.5832 0H37.1228C33.0255 0 29.7028 3.32567 29.7028 7.41997V21.4729ZM115.406 48.5085C115.607 49.1408 116.198 49.5971 116.891 49.5971C117.75 49.5971 118.447 48.9005 118.447 48.043C118.447 47.184 117.75 46.4874 116.891 46.4874C116.034 46.4874 115.337 47.184 115.337 48.043C115.337 48.1043 115.339 48.164 115.346 48.2206C115.379 48.314 115.398 48.4105 115.406 48.5085ZM11.6536 48.2206C11.6613 48.164 11.6628 48.1043 11.6628 48.043C11.6628 47.184 10.9661 46.4874 10.1087 46.4874C9.2497 46.4874 8.55302 47.184 8.55302 48.043C8.55302 48.9005 9.2497 49.5971 10.1087 49.5971C10.8023 49.5971 11.3933 49.1408 11.5939 48.5085C11.6016 48.4105 11.6215 48.314 11.6536 48.2206ZM69.8114 48.5406C68.709 46.0571 66.3035 44.2274 63.5 44.2274C60.6903 44.2274 58.2803 46.0648 57.184 48.5529C59.2878 47.3188 61.3977 46.7109 63.4969 46.7078C65.5962 46.7017 67.7061 47.3035 69.8114 48.5406ZM29.6967 24.1019C29.4119 24.1662 29.1379 24.2703 28.8837 24.4127C28.5254 24.6118 28.21 24.8843 27.9589 25.2089C27.7353 25.4968 27.5638 25.8229 27.4551 26.1705C27.3648 26.4629 27.3173 26.7692 27.3173 27.0739C27.3173 30.7165 27.3173 34.3606 27.3173 38.0017C27.3173 38.3095 27.3648 38.6157 27.4551 38.9081C27.5638 39.2542 27.7353 39.5834 27.9589 39.8682C28.21 40.1912 28.5254 40.4638 28.8837 40.6628C29.1379 40.8068 29.4119 40.9094 29.6967 40.9752L29.7028 40.9767V24.0988L29.6967 24.1019ZM97.3002 24.3162V40.7593C98.3337 40.2724 99.0503 39.2205 99.0503 38.0017V27.0739C99.0503 25.8566 98.3337 24.8047 97.3002 24.3162ZM49.4364 24.6439C46.7262 24.6439 44.5229 26.8457 44.5229 29.5605C44.5229 32.2737 46.7262 34.4739 49.4364 34.4739C52.1496 34.4739 54.3529 32.2737 54.3529 29.5605C54.3529 26.8457 52.1496 24.6439 49.4364 24.6439ZM77.5636 24.6439C74.8489 24.6439 72.6471 26.8457 72.6471 29.5605C72.6471 32.2737 74.8489 34.4739 77.5636 34.4739C80.2738 34.4739 82.4771 32.2737 82.4771 29.5605C82.4771 26.8457 80.2738 24.6439 77.5636 24.6439ZM49.4364 27.2346C50.7195 27.2346 51.7622 28.2773 51.7622 29.5605C51.7622 30.8436 50.7195 31.8817 49.4364 31.8817C48.1563 31.8817 47.1151 30.8436 47.1151 29.5605C47.1151 28.2773 48.1563 27.2346 49.4364 27.2346ZM77.5636 27.2346C78.8468 27.2346 79.8849 28.2773 79.8849 29.5605C79.8849 30.8436 78.8468 31.8817 77.5636 31.8817C76.2805 31.8817 75.2378 30.8436 75.2378 29.5605C75.2378 28.2773 76.2805 27.2346 77.5636 27.2346ZM84.0511 22.2354C81.4543 21.479 79.3367 20.0995 77.8025 17.9666C77.3814 17.3862 76.573 17.2546 75.9927 17.671C75.4124 18.0906 75.2792 18.9006 75.6972 19.4809C77.5759 22.09 80.1498 23.7987 83.3254 24.7235C84.0113 24.9226 84.7325 24.5291 84.9316 23.8431C85.1337 23.1556 84.7371 22.4345 84.0511 22.2354ZM43.6746 24.7235C46.8502 23.7987 49.4241 22.09 51.3028 19.4809C51.7193 18.9006 51.5876 18.0906 51.0073 17.671C50.427 17.2546 49.6186 17.3862 49.1975 17.9666C47.6633 20.0995 45.5457 21.479 42.9489 22.2354C42.2629 22.4345 41.8679 23.1556 42.0684 23.8431C42.2675 24.5291 42.9887 24.9226 43.6746 24.7235ZM97.3002 10.6966V7.41997C97.3002 3.32567 93.9745 0 89.8772 0H44.9884C44.2733 0 43.693 0.580307 43.693 1.29536C43.693 2.01194 44.2733 2.59224 44.9884 2.59224H89.8772C92.5444 2.59224 94.708 4.75576 94.708 7.41997V10.6966C94.708 11.4117 95.2883 11.992 96.0049 11.992C96.7169 11.992 97.3002 11.4117 97.3002 10.6966Z" fill="white"/>
</g>
</mask>
<g mask="url(#mask1_1238_2080)">
<g id="Group_2">
<path id="Vector_3" d="M0 0V127H127V0H0Z" fill="url(#paint0_linear_1238_2080)"/>
</g>
</g>
</g>
</g>
</g>
</g>
<defs>
<linearGradient id="paint0_linear_1238_2080" x1="63.5" y1="0" x2="63.5" y2="127" gradientUnits="userSpaceOnUse">
<stop stop-color="#81B4C0"/>
<stop offset="1" stop-color="#CCF5FF"/>
</linearGradient>
</defs>
</svg>
