<svg width="24" height="27" viewBox="0 0 24 27" fill="none" xmlns="http://www.w3.org/2000/svg">
<g id="Layer_1">
<path id="Vector" d="M20.7513 23.5974C20.7506 23.5912 20.7486 23.5705 20.7472 23.5388C20.7465 23.5264 20.7465 23.5126 20.7465 23.4974C20.7342 23.4981 20.7227 23.4981 20.7118 23.4981C20.6866 23.4981 20.6675 23.4974 20.6566 23.4967H20.6498C20.6498 23.4967 20.647 23.4953 20.6464 23.4953L20.6198 23.6064L20.5946 23.656L20.6028 23.6471L20.6845 23.6167L20.752 23.5995C20.752 23.5995 20.752 23.5988 20.7513 23.5974ZM20.7513 23.5974C20.7506 23.5912 20.7486 23.5705 20.7472 23.5388C20.7465 23.5264 20.7465 23.5126 20.7465 23.4974C20.7342 23.4981 20.7227 23.4981 20.7118 23.4981C20.6866 23.4981 20.6675 23.4974 20.6566 23.4967H20.6498C20.6498 23.4967 20.647 23.4953 20.6464 23.4953L20.6198 23.6064L20.5946 23.656L20.6028 23.6471L20.6845 23.6167L20.752 23.5995C20.752 23.5995 20.752 23.5988 20.7513 23.5974Z" fill="white"/>
<path id="Vector_2" d="M23.7642 3.04271C23.5953 2.59246 23.3179 2.17608 22.9112 1.82014C22.6155 1.56115 22.2891 1.35595 21.9327 1.21583C21.577 1.07504 21.1921 1.00133 20.7846 1.00133C18.1245 1.00066 15.4651 1 12.805 1C10.5688 1 8.33251 1.00066 6.09693 1.00199C5.35287 1.00199 4.65855 1.24571 4.10595 1.66607C3.55404 2.08643 3.14317 2.6841 2.96329 3.38869C2.95103 3.43783 2.93808 3.4717 2.92854 3.49162C2.92105 3.5069 2.9156 3.51354 2.91287 3.51686C2.9081 3.52084 2.90946 3.52151 2.89379 3.52815C2.87812 3.53479 2.84405 3.54342 2.78818 3.54807C2.42569 3.57995 2.07682 3.68753 1.75726 3.85089C1.27757 4.0966 0.862618 4.46583 0.556682 4.90478C0.251427 5.34307 0.0538285 5.85309 0.0258922 6.38302C0 6.86381 0 7.33996 0 7.81145V7.81411C0 7.93232 0.00817647 8.05716 0.0333873 8.184C0.0490589 8.25971 0.0742697 8.33143 0.111064 8.39783C0.165574 8.49745 0.247338 8.58378 0.348182 8.64155C0.449025 8.69999 0.566221 8.72855 0.682736 8.72855C0.710672 8.72855 0.738608 8.72655 0.766545 8.7239C0.848991 8.7146 0.92803 8.69534 1.00298 8.66147C1.11473 8.61233 1.21353 8.52799 1.27485 8.42373C1.33822 8.31947 1.36547 8.20127 1.36752 8.08373C1.37092 7.9031 1.3716 7.72313 1.3716 7.54383C1.3716 7.3964 1.3716 7.24964 1.3716 7.10355C1.3716 6.95745 1.3716 6.81135 1.37433 6.66592C1.37978 6.24423 1.5181 5.86238 1.75181 5.55757C1.98552 5.25342 2.31462 5.02564 2.71186 4.91474C2.88221 4.86759 3.05255 4.84302 3.22971 4.84236H3.24061C4.49638 4.84236 5.75215 4.84302 7.0086 4.84302C8.16626 4.84302 9.32323 4.84236 10.4809 4.84236C12.8187 4.84236 15.1565 4.84302 17.4943 4.84501C18.0407 4.84568 18.502 5.04158 18.8318 5.36499C19.1616 5.68839 19.3619 6.1413 19.3626 6.67654C19.3639 9.59982 19.3646 12.5238 19.3646 15.4477C19.3646 18.3716 19.3646 20.9987 19.3646 23.7739C19.3646 24.0721 19.3142 24.339 19.2229 24.5721C19.0853 24.9214 18.8584 25.1957 18.5538 25.3903C18.2492 25.5842 17.8629 25.6984 17.4023 25.7037C17.1338 25.707 16.864 25.7084 16.5942 25.7084C16.2371 25.7084 15.8787 25.7064 15.5203 25.7044H15.5121C15.4488 25.7044 15.384 25.7077 15.3166 25.719C15.2662 25.727 15.2144 25.7402 15.1619 25.7595C15.0836 25.7894 15.0045 25.8365 14.9391 25.9029C14.873 25.9694 14.8226 26.0524 14.7906 26.1433C14.764 26.219 14.749 26.2974 14.749 26.3758C14.749 26.4408 14.7592 26.5053 14.7797 26.565C14.8096 26.6547 14.8601 26.7324 14.9187 26.7968C14.9773 26.8605 15.044 26.913 15.1149 26.9575L15.1824 27H18.0475L18.0768 26.9934C18.6008 26.8791 19.0764 26.6832 19.4791 26.3871C19.8818 26.0909 20.2075 25.6938 20.4303 25.197C20.4589 25.1346 20.4855 25.0894 20.5073 25.0602C20.5236 25.0383 20.5379 25.0244 20.5502 25.0144C20.5693 24.9998 20.587 24.9905 20.6238 24.9805C20.6606 24.9712 20.7171 24.9639 20.7955 24.9633C21.6445 24.9573 22.4172 24.6193 22.9861 24.0774C23.5551 23.5362 23.9251 22.7897 23.9727 21.9623C23.9925 21.6236 23.9973 21.2876 23.9973 20.9542V12.7847C23.9973 10.0155 23.998 7.24632 24 4.47778V4.47313C24 3.97507 23.9353 3.49295 23.7656 3.04271H23.7642ZM4.29401 3.67092H4.29061L4.29401 3.67026V3.67092ZM22.6209 21.7697C22.6175 22.2671 22.4131 22.726 22.0874 23.0633C21.9252 23.2314 21.7331 23.3688 21.5225 23.4658C21.312 23.5621 21.0837 23.6185 20.8459 23.6252C20.8078 23.6258 20.7737 23.6271 20.7451 23.6271C20.7451 23.6418 20.7451 23.655 20.7458 23.667C20.7471 23.6975 20.7492 23.7175 20.7499 23.7234C20.7505 23.7248 20.7505 23.7254 20.7505 23.7254L20.6831 23.742L20.6013 23.7713L20.5931 23.7799L20.6183 23.7321L20.6449 23.6258C20.6449 23.6258 20.647 23.6258 20.6483 23.6258H20.6551C20.666 23.6271 20.6851 23.6278 20.7103 23.6278C20.7212 23.6278 20.7328 23.6278 20.7451 23.6271C20.7444 23.5993 20.7444 23.5661 20.7444 23.5289V11.2773C20.7444 9.78709 20.7444 8.29623 20.7451 6.80604V6.80405C20.7451 6.46072 20.7069 6.11606 20.6054 5.77539C20.3989 5.08209 19.9799 4.50766 19.4144 4.11254C18.8488 3.71608 18.1409 3.49893 17.3634 3.49893C15.4242 3.49826 13.4857 3.4976 11.5465 3.4976C9.44656 3.4976 7.34588 3.49826 5.24589 3.49826H4.35534C4.3567 3.49428 4.35874 3.49029 4.36011 3.48631C4.50933 3.11443 4.75462 2.82754 5.07895 2.62699C5.40397 2.42644 5.81211 2.31355 6.28907 2.31288C8.41904 2.31222 10.549 2.31222 12.6797 2.31222C15.3084 2.31222 17.9371 2.31222 20.5659 2.31288C20.786 2.31288 20.9999 2.3348 21.2016 2.38726C21.6404 2.50281 21.9906 2.73856 22.2359 3.05864C22.4805 3.37939 22.6216 3.78647 22.6223 4.25398C22.6229 6.5258 22.6229 8.79761 22.6229 11.0694V18.2435C22.6229 18.9461 22.625 19.648 22.625 20.3499C22.625 20.8234 22.6236 21.2969 22.6209 21.7697Z" fill="white"/>
<path id="Vector_3" d="M13.9587 26.1854C13.9287 26.1054 13.8847 26.0311 13.8273 25.9708C13.7847 25.9251 13.7347 25.887 13.6833 25.8584C13.6053 25.8146 13.524 25.7911 13.448 25.7778C13.3713 25.7644 13.298 25.7613 13.228 25.7613H12.8373C12.128 25.7613 11.418 25.7581 10.7067 25.7581C10.1653 25.7581 9.62333 25.76 9.08067 25.7664C9.06933 25.767 9.058 25.767 9.04667 25.767C8.62467 25.7664 8.27267 25.6762 7.96067 25.5105C7.65 25.3441 7.37667 25.0984 7.13267 24.774C6.82133 24.36 6.63933 23.8806 6.53067 23.3651C6.45867 23.0241 6.35133 22.7124 6.20533 22.4311C5.986 22.0095 5.67933 21.6591 5.29133 21.3905C4.90267 21.1219 4.436 20.9359 3.89933 20.8279C3.49533 20.7467 3.114 20.6368 2.772 20.4749C2.42933 20.313 2.126 20.101 1.86733 19.8076C1.69467 19.6121 1.564 19.4083 1.476 19.1905C1.38733 18.9727 1.34067 18.7403 1.34067 18.4819V18.4737C1.34533 17.2838 1.34667 16.094 1.34667 14.9041C1.34667 13.5518 1.34533 12.1994 1.34467 10.847C1.34467 10.7346 1.336 10.6311 1.31533 10.5346C1.29933 10.4629 1.27733 10.3943 1.244 10.3295C1.21933 10.2807 1.18867 10.2343 1.15067 10.1924C1.09467 10.1295 1.02067 10.0781 0.94 10.0457C0.858667 10.0134 0.772667 9.99939 0.688667 10H0.671333C0.570667 10.0019 0.468667 10.0229 0.376 10.0699C0.307333 10.1048 0.246 10.1537 0.196667 10.2102C0.122667 10.2959 0.076 10.3956 0.0466667 10.5029C0.0173333 10.6095 0.004 10.7257 0.002 10.8534C0.000666667 10.9651 0 11.0768 0 11.188C0 11.348 0.00133333 11.5061 0.00133333 11.6641C0.00133333 13.2318 0.000666667 14.7994 0.000666667 16.3664C0.000666667 17.5708 0.000666667 18.7752 0.00133333 19.9791C0.00133333 20.5137 0.038 21.047 0.138 21.5714C0.238667 22.0965 0.403333 22.614 0.658667 23.1143C1.21 24.1924 1.94133 25.0622 2.85067 25.7067C3.76 26.3524 4.84467 26.7708 6.09 26.9625C6.13 26.9683 6.18133 26.981 6.24533 26.9943L6.27333 27H13.5667L13.6327 26.9594C13.72 26.9048 13.8067 26.84 13.878 26.7492C13.9133 26.7035 13.9447 26.6514 13.9667 26.5924C13.988 26.5346 14 26.4698 14 26.4051C14 26.3314 13.9853 26.2571 13.9587 26.1854ZM4.89667 25.3505C4.00267 24.9968 3.14467 24.3886 2.5 23.5714C1.972 22.9016 1.586 22.0933 1.432 21.1638C1.81067 21.4406 2.218 21.6476 2.65 21.8064C2.968 21.9232 3.29467 22.0121 3.628 22.0743C3.86267 22.1181 4.06733 22.1841 4.24467 22.2698C4.51 22.3981 4.716 22.5695 4.87733 22.7918C5.03867 23.0133 5.156 23.2895 5.226 23.6267C5.32 24.0756 5.46333 24.5073 5.67067 24.9124C5.80733 25.1803 5.972 25.4362 6.168 25.6775C5.75 25.6279 5.31933 25.5175 4.89667 25.3505Z" fill="white"/>
<path id="Vector_4" d="M15.6293 9.50921C15.6293 9.62714 15.6035 9.74782 15.5428 9.85402C15.4829 9.96022 15.3902 10.0457 15.2839 10.1009C15.2137 10.1381 15.1374 10.1637 15.0577 10.1788C14.9174 10.2057 14.7886 10.2057 14.6768 10.2057C13.815 10.2064 12.9531 10.2071 12.0905 10.2071C11.1687 10.2071 10.2468 10.2064 9.32428 10.205C9.19142 10.205 9.04153 10.2009 8.88278 10.163C8.77036 10.1361 8.66407 10.085 8.57822 10.0071C8.49169 9.92919 8.43105 9.82644 8.40039 9.72023C8.37995 9.64851 8.37109 9.5761 8.37109 9.50369C8.37109 9.47887 8.37178 9.45473 8.37382 9.4299C8.38404 9.29543 8.43378 9.16164 8.52235 9.0582C8.60956 8.95476 8.72811 8.8851 8.85416 8.84856C8.93865 8.82442 9.02722 8.81338 9.1192 8.8127C9.56002 8.81132 10.0015 8.81132 10.4424 8.81132C10.9152 8.81132 11.3874 8.81201 11.8595 8.81201H11.9999C12.4536 8.81132 12.9081 8.81132 13.3619 8.81132H14.172C14.311 8.81132 14.4527 8.80994 14.5971 8.80994C14.7191 8.80994 14.8424 8.81132 14.9678 8.81614C15.0986 8.82166 15.2246 8.8589 15.3316 8.92924C15.4379 8.9982 15.5224 9.10027 15.5714 9.21612C15.6048 9.29405 15.6232 9.37749 15.628 9.46232C15.6287 9.47749 15.6293 9.49335 15.6293 9.50921Z" fill="white"/>
<path id="Vector_5" d="M15.6296 19.0495C15.6296 19.1653 15.6058 19.2826 15.5499 19.386C15.4941 19.4902 15.4055 19.5757 15.306 19.6308C15.2399 19.6681 15.1684 19.6936 15.0941 19.7095C14.9544 19.7405 14.8229 19.7432 14.7078 19.7439C14.2281 19.7446 13.7478 19.7453 13.2675 19.7453C12.8471 19.7453 12.4267 19.7446 12.0063 19.7446C11.5859 19.7446 11.1649 19.7453 10.7431 19.7453C10.2553 19.7453 9.76744 19.7446 9.27961 19.7432C9.16106 19.7432 9.02888 19.7377 8.88988 19.7046C8.77815 19.6784 8.67186 19.6281 8.58465 19.5502C8.49744 19.4729 8.43475 19.3695 8.40273 19.2605C8.38161 19.1881 8.37207 19.1129 8.37207 19.0378C8.37207 19.0302 8.37207 19.0226 8.37275 19.0157C8.3748 18.8964 8.40546 18.7785 8.46609 18.6785C8.52605 18.5785 8.61258 18.5019 8.70592 18.4509C8.76793 18.4164 8.83333 18.3923 8.89942 18.3757C9.00162 18.3502 9.09088 18.3488 9.16378 18.3488H9.24418C10.2301 18.3488 11.2153 18.3481 12.2012 18.3481C13.0501 18.3481 13.8991 18.3488 14.748 18.3488H14.7487C14.778 18.3488 14.812 18.3481 14.8509 18.3481C14.9088 18.3481 14.9769 18.3495 15.0546 18.3647C15.1575 18.3854 15.2597 18.4212 15.353 18.4854C15.4464 18.5488 15.5281 18.644 15.5745 18.7571C15.6065 18.8323 15.6235 18.9136 15.6283 18.9964C15.629 19.0143 15.6296 19.0322 15.6296 19.0495Z" fill="white"/>
<path id="Vector_6" d="M15.6295 21.5473C15.6295 21.6107 15.6213 21.6742 15.605 21.7362C15.5709 21.8686 15.5021 21.9886 15.4074 22.0748C15.3127 22.161 15.1996 22.2107 15.0912 22.2348C15.0183 22.2514 14.9468 22.2576 14.8759 22.2583C14.6872 22.2596 14.4991 22.2603 14.3111 22.2603C14.0481 22.2603 13.7858 22.2596 13.5235 22.2596V22.2562C13.4329 22.2562 13.3422 22.2569 13.2509 22.2569C13.0724 22.2583 12.8926 22.2596 12.712 22.2596C12.5219 22.2596 12.3311 22.2576 12.1397 22.2521C11.9476 22.2465 11.7704 22.1714 11.6444 22.0459C11.5176 21.921 11.4427 21.7459 11.4434 21.5624V21.5535C11.4468 21.2831 11.6048 21.0376 11.8535 20.9273C11.9366 20.8914 12.0286 20.8707 12.124 20.8701C12.5982 20.8659 13.0718 20.8632 13.5466 20.8632C14.0215 20.8632 14.4876 20.8659 14.9584 20.8728C15.1457 20.8742 15.3208 20.9494 15.4414 21.0756C15.5634 21.2004 15.6302 21.3714 15.6295 21.5473Z" fill="white"/>
<path id="Vector_7" d="M13.5235 20.2562V20.2597H13.251V20.2569C13.3423 20.2569 13.4329 20.2562 13.5235 20.2562Z" fill="white"/>
<path id="Vector_8" d="M15.6296 12.0795V12.0912C15.6296 12.1988 15.6098 12.3064 15.5621 12.405C15.5158 12.5036 15.4409 12.5905 15.3509 12.6519C15.2916 12.6926 15.2256 12.7236 15.1567 12.745C15.0641 12.7733 14.9667 12.7864 14.8638 12.7871C14.4257 12.7912 13.9876 12.7926 13.5502 12.7926C13.1127 12.7926 12.6569 12.7912 12.2107 12.7878C12.0601 12.7864 11.9177 12.7505 11.7957 12.6809C11.6738 12.6112 11.5722 12.5057 11.5123 12.3768C11.4721 12.2912 11.4496 12.1961 11.4482 12.0988V12.0857C11.4482 12.0126 11.4591 11.9395 11.4816 11.8699C11.5041 11.8002 11.5389 11.734 11.5831 11.6768C11.6717 11.5609 11.7971 11.4823 11.9334 11.4396C12.0247 11.4113 12.1214 11.3975 12.2222 11.3961C12.3967 11.3947 12.5704 11.394 12.7441 11.394C13.0037 11.394 13.2626 11.3954 13.5202 11.3954H13.5236C13.7886 11.3954 14.0537 11.394 14.3201 11.394C14.4965 11.394 14.6737 11.3947 14.8508 11.3961C14.9653 11.3975 15.0736 11.412 15.1751 11.4465C15.2767 11.4802 15.3727 11.5354 15.4497 11.6147C15.5008 11.6678 15.5424 11.7299 15.5717 11.7975C15.6112 11.8871 15.6282 11.9837 15.6296 12.0795Z" fill="white"/>
</g>
</svg>
