<svg width="45" height="42" viewBox="0 0 45 42" fill="none" xmlns="http://www.w3.org/2000/svg">
<g id="Group 213">
<g id="Clip path group">
<mask id="mask0_1238_1522" style="mask-type:luminance" maskUnits="userSpaceOnUse" x="7" y="2" width="38" height="32">
<g id="5eac819135">
<path id="Vector" d="M7.34375 2.34106H44.681V33.7898H7.34375V2.34106Z" fill="white"/>
</g>
</mask>
<g mask="url(#mask0_1238_1522)">
<g id="Group">
<path id="Vector_2" d="M9.20625 14.3665V5.75806C9.20625 5.32055 9.38567 4.92238 9.67447 4.63304C9.96326 4.34425 10.3614 4.16429 10.7979 4.16429H41.2708C41.7078 4.16429 42.1054 4.34425 42.3942 4.63304C42.683 4.92238 42.8624 5.32055 42.8624 5.75806V30.28C42.8624 30.7169 42.683 31.1156 42.3942 31.405C42.1054 31.6938 41.7078 31.8737 41.2708 31.8737H27.8649C27.7081 32.4939 27.5115 33.1027 27.276 33.6949H41.2708C42.2094 33.6949 43.0629 33.3112 43.6803 32.6927C44.2983 32.0736 44.6814 31.2202 44.6814 30.28V5.75806C44.6814 4.81785 44.2983 3.96385 43.6803 3.34531C43.0629 2.72677 42.2094 2.34314 41.2708 2.34314H10.7979C9.85874 2.34314 9.00635 2.72677 8.38781 3.34531C7.77034 3.96385 7.38672 4.81785 7.38672 5.75806V15.0928C7.97617 14.8099 8.58393 14.5674 9.20625 14.3665Z" fill="url(#paint0_linear_1238_1522)"/>
</g>
</g>
</g>
<g id="Clip path group_2">
<mask id="mask1_1238_1522" style="mask-type:luminance" maskUnits="userSpaceOnUse" x="7" y="9" width="38" height="3">
<g id="051038cc4c">
<path id="Vector_3" d="M7.34375 9.96021H44.681V11.8579H7.34375V9.96021Z" fill="white"/>
</g>
</mask>
<g mask="url(#mask1_1238_1522)">
<g id="Group_2">
<path id="Vector_4" d="M8.29621 10.0173C7.79405 10.0173 7.38672 10.4252 7.38672 10.9279C7.38672 11.4311 7.79405 11.8385 8.29621 11.8385H43.7719C44.2746 11.8385 44.6814 11.4311 44.6814 10.9279C44.6814 10.4252 44.2746 10.0173 43.7719 10.0173H8.29621Z" fill="url(#paint1_linear_1238_1522)"/>
</g>
</g>
</g>
<g id="Clip path group_3">
<mask id="mask2_1238_1522" style="mask-type:luminance" maskUnits="userSpaceOnUse" x="13" y="0" width="3" height="7">
<g id="4381a70d37">
<path id="Vector_5" d="M13.2344 0H15.1654V6.47908H13.2344V0Z" fill="white"/>
</g>
</mask>
<g mask="url(#mask2_1238_1522)">
<g id="Group_3">
<path id="Vector_6" d="M15.1184 0.910573C15.1184 0.407333 14.711 0 14.2083 0C13.7062 0 13.2988 0.407333 13.2988 0.910573V5.46344C13.2988 5.96668 13.7062 6.37455 14.2083 6.37455C14.711 6.37455 15.1184 5.96668 15.1184 5.46344V0.910573Z" fill="url(#paint2_linear_1238_1522)"/>
</g>
</g>
</g>
<g id="Clip path group_4">
<mask id="mask3_1238_1522" style="mask-type:luminance" maskUnits="userSpaceOnUse" x="21" y="0" width="3" height="7">
<g id="6cc8026e20">
<path id="Vector_7" d="M21.0967 0H23.0277V6.47908H21.0967V0Z" fill="white"/>
</g>
</mask>
<g mask="url(#mask3_1238_1522)">
<g id="Group_4">
<path id="Vector_8" d="M23.0012 0.910573C23.0012 0.407333 22.5938 0 22.0917 0C21.589 0 21.1816 0.407333 21.1816 0.910573V5.46344C21.1816 5.96668 21.589 6.37455 22.0917 6.37455C22.5938 6.37455 23.0012 5.96668 23.0012 5.46344V0.910573Z" fill="url(#paint3_linear_1238_1522)"/>
</g>
</g>
</g>
<g id="Clip path group_5">
<mask id="mask4_1238_1522" style="mask-type:luminance" maskUnits="userSpaceOnUse" x="28" y="0" width="3" height="7">
<g id="811e6801e1">
<path id="Vector_9" d="M28.959 0H30.89V6.47908H28.959V0Z" fill="white"/>
</g>
</mask>
<g mask="url(#mask4_1238_1522)">
<g id="Group_5">
<path id="Vector_10" d="M30.8844 0.910573C30.8844 0.407333 30.4771 0 29.9749 0C29.4728 0 29.0654 0.407333 29.0654 0.910573V5.46344C29.0654 5.96668 29.4728 6.37455 29.9749 6.37455C30.4771 6.37455 30.8844 5.96668 30.8844 5.46344V0.910573Z" fill="url(#paint4_linear_1238_1522)"/>
</g>
</g>
</g>
<g id="Clip path group_6">
<mask id="mask5_1238_1522" style="mask-type:luminance" maskUnits="userSpaceOnUse" x="36" y="0" width="3" height="7">
<g id="09a839e5c1">
<path id="Vector_11" d="M36.8213 0H38.8903V6.47908H36.8213V0Z" fill="white"/>
</g>
</mask>
<g mask="url(#mask5_1238_1522)">
<g id="Group_6">
<path id="Vector_12" d="M38.7682 0.910573C38.7682 0.407333 38.3609 0 37.8587 0C37.356 0 36.9492 0.407333 36.9492 0.910573V5.46344C36.9492 5.96668 37.356 6.37455 37.8587 6.37455C38.3609 6.37455 38.7682 5.96668 38.7682 5.46344V0.910573Z" fill="url(#paint5_linear_1238_1522)"/>
</g>
</g>
</g>
<g id="Clip path group_7">
<mask id="mask6_1238_1522" style="mask-type:luminance" maskUnits="userSpaceOnUse" x="0" y="14" width="28" height="29">
<g id="b113a7a1b3">
<path id="Vector_13" d="M0 14.4792H27.4417V42.0001H0V14.4792Z" fill="white"/>
</g>
</mask>
<g mask="url(#mask6_1238_1522)">
<g id="Group_7">
<path id="Vector_14" d="M13.699 14.5713C17.4819 14.5713 20.9065 16.1063 23.3856 18.588C25.864 21.0698 27.398 24.4982 27.398 28.2854C27.398 32.0726 25.864 35.5015 23.3856 37.9833C20.9065 40.465 17.4819 42 13.699 42V40.1789C16.9798 40.1789 19.9496 38.8475 22.0989 36.6955C24.2493 34.543 25.579 31.5699 25.579 28.2854C25.579 25.0014 24.2493 22.0283 22.0989 19.8758C19.9496 17.7238 16.9798 16.3924 13.699 16.3924V14.5713ZM13.699 14.5713V16.3924C10.4182 16.3924 7.44838 17.7238 5.2991 19.8758C3.14875 22.0283 1.81899 25.0014 1.81899 28.2854C1.81899 31.5699 3.14875 34.543 5.2991 36.6955C7.44838 38.8475 10.4182 40.1789 13.699 40.1789V42C9.91609 42 6.49147 40.465 4.01245 37.9833C1.53343 35.5015 0 32.0726 0 28.2854C0 24.4982 1.53343 21.0698 4.01245 18.588C6.49147 16.1063 9.91609 14.5713 13.699 14.5713Z" fill="url(#paint6_linear_1238_1522)"/>
</g>
</g>
</g>
<path id="Vector_15" d="M38.1449 13.6469H39.9639C40.215 13.6469 40.4187 13.8511 40.4187 14.1027V17.8468C40.4187 18.0984 40.215 18.3021 39.9639 18.3021H38.1449V17.3915H39.5092V14.558H38.1449V13.6469ZM36.3254 13.6469H38.1449V14.558H36.7802V17.3915H38.1449V18.3021H36.3254C36.0743 18.3021 35.8701 18.0984 35.8701 17.8468V14.1027C35.8701 13.8511 36.0743 13.6469 36.3254 13.6469Z" fill="url(#paint7_linear_1238_1522)"/>
<path id="Vector_16" d="M31.037 13.6469H32.856C33.107 13.6469 33.3107 13.8511 33.3107 14.1027V17.8468C33.3107 18.0984 33.107 18.3021 32.856 18.3021H31.037V17.3915H32.4012V14.558H31.037V13.6469ZM29.2174 13.6469H31.037V14.558H29.6722V17.3915H31.037V18.3021H29.2174C28.9664 18.3021 28.7627 18.0984 28.7627 17.8468V14.1027C28.7627 13.8511 28.9664 13.6469 29.2174 13.6469Z" fill="url(#paint8_linear_1238_1522)"/>
<path id="Vector_17" d="M38.1449 19.4674H39.9639C40.215 19.4674 40.4187 19.6716 40.4187 19.9227V23.6674C40.4187 23.919 40.215 24.1226 39.9639 24.1226H38.1449V23.2121H39.5092V20.378H38.1449V19.4674ZM36.3254 19.4674H38.1449V20.378H36.7802V23.2121H38.1449V24.1226H36.3254C36.0743 24.1226 35.8701 23.919 35.8701 23.6674V19.9227C35.8701 19.6716 36.0743 19.4674 36.3254 19.4674Z" fill="url(#paint9_linear_1238_1522)"/>
<path id="Vector_18" d="M31.037 19.4674H32.856C33.107 19.4674 33.3107 19.6716 33.3107 19.9227V23.6674C33.3107 23.919 33.107 24.1226 32.856 24.1226H31.037V23.2121H32.4012V20.378H31.037V19.4674ZM29.2174 19.4674H31.037V20.378H29.6722V23.2121H31.037V24.1226H29.2174C28.9664 24.1226 28.7627 23.919 28.7627 23.6674V19.9227C28.7627 19.6716 28.9664 19.4674 29.2174 19.4674Z" fill="url(#paint10_linear_1238_1522)"/>
<path id="Vector_19" d="M38.1449 25.2882H39.9639C40.215 25.2882 40.4187 25.4919 40.4187 25.7435V29.4882C40.4187 29.7398 40.215 29.9434 39.9639 29.9434H38.1449V29.0329H39.5092V26.1988H38.1449V25.2882ZM36.3254 25.2882H38.1449V26.1988H36.7802V29.0329H38.1449V29.9434H36.3254C36.0743 29.9434 35.8701 29.7398 35.8701 29.4882V25.7435C35.8701 25.4919 36.0743 25.2882 36.3254 25.2882Z" fill="url(#paint11_linear_1238_1522)"/>
<path id="Vector_20" d="M31.037 25.2882H32.856C33.107 25.2882 33.3107 25.4919 33.3107 25.7435V29.4882C33.3107 29.7398 33.107 29.9434 32.856 29.9434H31.037V29.0329H32.4012V26.1988H31.037V25.2882ZM29.2174 25.2882H31.037V26.1988H29.6722V29.0329H31.037V29.9434H29.2174C28.9664 29.9434 28.7627 29.7398 28.7627 29.4882V25.7435C28.7627 25.4919 28.9664 25.2882 29.2174 25.2882Z" fill="url(#paint12_linear_1238_1522)"/>
<path id="Vector_21" d="M14.6633 19.1242C14.6633 18.6215 14.2559 18.2136 13.7532 18.2136C13.2511 18.2136 12.8438 18.6215 12.8438 19.1242V28.231C12.8438 28.7337 13.2511 29.1421 13.7532 29.1421C14.2559 29.1421 14.6633 28.7337 14.6633 28.231V19.1242Z" fill="url(#paint13_linear_1238_1522)"/>
<path id="Vector_22" d="M14.3255 27.5268C13.9371 27.2105 13.3659 27.2692 13.0497 27.6583C12.7339 28.0473 12.7932 28.6189 13.1811 28.9352L18.1273 32.9504C18.5158 33.2666 19.0864 33.2074 19.4027 32.8189C19.7184 32.4299 19.6597 31.8577 19.2712 31.5419L14.3255 27.5268Z" fill="url(#paint14_linear_1238_1522)"/>
</g>
<defs>
<linearGradient id="paint0_linear_1238_1522" x1="26.0341" y1="2.34314" x2="26.0341" y2="33.6949" gradientUnits="userSpaceOnUse">
<stop stop-color="#81B4C0"/>
<stop offset="1" stop-color="#CCF5FF"/>
</linearGradient>
<linearGradient id="paint1_linear_1238_1522" x1="26.0341" y1="10.0173" x2="26.0341" y2="11.8385" gradientUnits="userSpaceOnUse">
<stop stop-color="#81B4C0"/>
<stop offset="1" stop-color="#CCF5FF"/>
</linearGradient>
<linearGradient id="paint2_linear_1238_1522" x1="14.2086" y1="0" x2="14.2086" y2="6.37455" gradientUnits="userSpaceOnUse">
<stop stop-color="#81B4C0"/>
<stop offset="1" stop-color="#CCF5FF"/>
</linearGradient>
<linearGradient id="paint3_linear_1238_1522" x1="22.0914" y1="0" x2="22.0914" y2="6.37455" gradientUnits="userSpaceOnUse">
<stop stop-color="#81B4C0"/>
<stop offset="1" stop-color="#CCF5FF"/>
</linearGradient>
<linearGradient id="paint4_linear_1238_1522" x1="29.9749" y1="0" x2="29.9749" y2="6.37455" gradientUnits="userSpaceOnUse">
<stop stop-color="#81B4C0"/>
<stop offset="1" stop-color="#CCF5FF"/>
</linearGradient>
<linearGradient id="paint5_linear_1238_1522" x1="37.8587" y1="0" x2="37.8587" y2="6.37455" gradientUnits="userSpaceOnUse">
<stop stop-color="#81B4C0"/>
<stop offset="1" stop-color="#CCF5FF"/>
</linearGradient>
<linearGradient id="paint6_linear_1238_1522" x1="13.699" y1="14.5713" x2="13.699" y2="42" gradientUnits="userSpaceOnUse">
<stop stop-color="#81B4C0"/>
<stop offset="1" stop-color="#CCF5FF"/>
</linearGradient>
<linearGradient id="paint7_linear_1238_1522" x1="38.1444" y1="13.6469" x2="38.1444" y2="18.3021" gradientUnits="userSpaceOnUse">
<stop stop-color="#81B4C0"/>
<stop offset="1" stop-color="#CCF5FF"/>
</linearGradient>
<linearGradient id="paint8_linear_1238_1522" x1="31.0367" y1="13.6469" x2="31.0367" y2="18.3021" gradientUnits="userSpaceOnUse">
<stop stop-color="#81B4C0"/>
<stop offset="1" stop-color="#CCF5FF"/>
</linearGradient>
<linearGradient id="paint9_linear_1238_1522" x1="38.1444" y1="19.4674" x2="38.1444" y2="24.1226" gradientUnits="userSpaceOnUse">
<stop stop-color="#81B4C0"/>
<stop offset="1" stop-color="#CCF5FF"/>
</linearGradient>
<linearGradient id="paint10_linear_1238_1522" x1="31.0367" y1="19.4674" x2="31.0367" y2="24.1226" gradientUnits="userSpaceOnUse">
<stop stop-color="#81B4C0"/>
<stop offset="1" stop-color="#CCF5FF"/>
</linearGradient>
<linearGradient id="paint11_linear_1238_1522" x1="38.1444" y1="25.2882" x2="38.1444" y2="29.9434" gradientUnits="userSpaceOnUse">
<stop stop-color="#81B4C0"/>
<stop offset="1" stop-color="#CCF5FF"/>
</linearGradient>
<linearGradient id="paint12_linear_1238_1522" x1="31.0367" y1="25.2882" x2="31.0367" y2="29.9434" gradientUnits="userSpaceOnUse">
<stop stop-color="#81B4C0"/>
<stop offset="1" stop-color="#CCF5FF"/>
</linearGradient>
<linearGradient id="paint13_linear_1238_1522" x1="13.7535" y1="18.2136" x2="13.7535" y2="29.1421" gradientUnits="userSpaceOnUse">
<stop stop-color="#81B4C0"/>
<stop offset="1" stop-color="#CCF5FF"/>
</linearGradient>
<linearGradient id="paint14_linear_1238_1522" x1="16.2262" y1="27.3232" x2="16.2262" y2="33.1537" gradientUnits="userSpaceOnUse">
<stop stop-color="#81B4C0"/>
<stop offset="1" stop-color="#CCF5FF"/>
</linearGradient>
</defs>
</svg>
