<svg width="46" height="45" viewBox="0 0 46 45" fill="none" xmlns="http://www.w3.org/2000/svg">
<path d="M22.9087 6.90845C22.6531 6.90845 22.398 6.91496 22.1435 6.92744C21.8885 6.93992 21.634 6.95837 21.3801 6.98333C21.1261 7.00884 20.8727 7.03977 20.6204 7.07721C20.368 7.11465 20.1168 7.1586 19.8666 7.20798C19.6159 7.25791 19.3674 7.3138 19.1194 7.37566C18.872 7.43806 18.6262 7.50589 18.382 7.58023C18.1378 7.65403 17.8952 7.73434 17.6554 7.82008C17.415 7.90581 17.1768 7.99806 16.9413 8.09574C16.7052 8.19341 16.4719 8.29651 16.2413 8.40558C16.0107 8.51465 15.7827 8.62969 15.5576 8.74962C15.3329 8.87008 15.111 8.99597 14.8917 9.12729C14.6731 9.25807 14.4576 9.39481 14.2455 9.53644C14.0333 9.67861 13.8244 9.82512 13.6192 9.97706C13.4147 10.1295 13.2134 10.2864 13.0158 10.4481C12.8189 10.6103 12.6257 10.7769 12.4363 10.9484C12.2475 11.1193 12.063 11.2957 11.8823 11.4758C11.7016 11.6565 11.5258 11.841 11.3543 12.0304C11.1833 12.2192 11.0168 12.4124 10.8545 12.6099C10.6928 12.8069 10.536 13.0082 10.3835 13.2134C10.2316 13.4185 10.0851 13.6268 9.94288 13.839C9.80125 14.0512 9.66505 14.2666 9.53373 14.4858C9.40241 14.7045 9.27652 14.9265 9.1566 15.1517C9.03613 15.3768 8.92164 15.6048 8.81257 15.8354C8.70295 16.066 8.59985 16.2993 8.50218 16.5348C8.4045 16.7709 8.3128 17.0086 8.22652 17.2489C8.14078 17.4893 8.06101 17.7319 7.98667 17.9761C7.91287 18.2203 7.8445 18.4661 7.78264 18.7135C7.72078 18.961 7.66489 19.21 7.61497 19.4602C7.56504 19.7103 7.52163 19.9621 7.48419 20.2145C7.44675 20.4668 7.41528 20.7202 7.39031 20.9742C7.36535 21.2281 7.3469 21.4826 7.33442 21.7371C7.32194 21.9921 7.31543 22.2472 7.31543 22.5022C7.31543 22.7578 7.32194 23.0128 7.33442 23.2679C7.3469 23.5224 7.36589 23.7769 7.39086 24.0308C7.41582 24.2848 7.44675 24.5382 7.48419 24.7905C7.52163 25.0428 7.56559 25.2941 7.61551 25.5448C7.66489 25.7949 7.72078 26.044 7.78318 26.2915C7.84504 26.5389 7.91342 26.7847 7.98721 27.0289C8.06156 27.2731 8.14132 27.5156 8.2276 27.756C8.31334 27.9959 8.40505 28.2341 8.50272 28.4696C8.6004 28.7057 8.70404 28.939 8.81311 29.1696C8.92218 29.4002 9.03722 29.6281 9.15714 29.8533C9.27761 30.078 9.4035 30.2999 9.53482 30.5191C9.66559 30.7378 9.80234 30.9533 9.94397 31.1654C10.0861 31.3776 10.2326 31.5865 10.3851 31.7916C10.5371 31.9962 10.6939 32.1975 10.8556 32.3945C11.0178 32.592 11.1844 32.7852 11.3559 32.974C11.5274 33.1634 11.7032 33.3479 11.8834 33.5286C12.0641 33.7088 12.2491 33.8846 12.4379 34.0561C12.6273 34.2275 12.8205 34.3941 13.0175 34.5558C13.215 34.7181 13.4158 34.8749 13.6209 35.0268C13.826 35.1788 14.0344 35.3258 14.2465 35.4675C14.4593 35.6091 14.6747 35.7458 14.8934 35.8771C15.1126 36.0079 15.3345 36.1338 15.5597 36.2543C15.7844 36.3742 16.0123 36.4892 16.2429 36.5983C16.4741 36.7074 16.7069 36.8105 16.9429 36.9082C17.1784 37.0058 17.4166 37.0975 17.657 37.1838C17.8974 37.2696 18.1394 37.3499 18.3836 37.4237C18.6278 37.4975 18.8742 37.5658 19.1216 37.6277C19.369 37.6896 19.6181 37.7454 19.8683 37.7954C20.1184 37.8453 20.3702 37.8887 20.6225 37.9261C20.8749 37.9636 21.1283 37.9945 21.3822 38.0195C21.6362 38.0444 21.8907 38.0634 22.1452 38.0759C22.4002 38.0884 22.6552 38.0944 22.9103 38.0944C23.1659 38.0944 23.4209 38.0884 23.6754 38.0759C23.9304 38.0629 24.1849 38.0444 24.4389 38.0195C24.6929 37.9945 24.9463 37.963 25.1986 37.9256C25.4509 37.8882 25.7022 37.8442 25.9529 37.7948C26.203 37.7449 26.4515 37.689 26.6995 37.6266C26.947 37.5647 27.1928 37.4969 27.437 37.4226C27.6812 37.3482 27.9232 37.2685 28.1636 37.1822C28.4039 37.0965 28.6422 37.0047 28.8777 36.9071C29.1137 36.8089 29.3465 36.7058 29.5777 36.5967C29.8083 36.4876 30.0362 36.3726 30.2609 36.2521C30.486 36.1322 30.708 36.0063 30.9267 35.875C31.1459 35.7437 31.3613 35.6075 31.5735 35.4653C31.7857 35.3237 31.994 35.1766 32.1992 35.0247C32.4043 34.8727 32.605 34.7154 32.8026 34.5537C32.9995 34.3919 33.1927 34.2248 33.3821 34.0539C33.5709 33.8824 33.756 33.7061 33.9361 33.5259C34.1168 33.3452 34.2927 33.1607 34.4641 32.9713C34.6351 32.7825 34.8016 32.5893 34.9639 32.3918C35.1256 32.1943 35.2824 31.9935 35.4344 31.7884C35.5863 31.5833 35.7334 31.3749 35.875 31.1627C36.0166 30.9505 36.1534 30.7346 36.2847 30.5159C36.4155 30.2967 36.5413 30.0747 36.6618 29.8495C36.7817 29.6249 36.8968 29.397 37.0058 29.1663C37.1149 28.9352 37.218 28.7019 37.3157 28.4663C37.4134 28.2303 37.5051 27.9926 37.5908 27.7522C37.6771 27.5118 37.7568 27.2698 37.8312 27.0256C37.905 26.7809 37.9728 26.5351 38.0352 26.2877C38.0971 26.0402 38.153 25.7911 38.2024 25.541C38.2523 25.2908 38.2957 25.039 38.3331 24.7867C38.3706 24.5344 38.402 24.281 38.427 24.027C38.452 23.7731 38.4704 23.5186 38.4829 23.2641C38.4954 23.009 38.5019 22.754 38.5013 22.4984C38.5013 22.2434 38.4948 21.9889 38.4818 21.7338C38.4688 21.4793 38.4498 21.2249 38.4248 20.9709C38.3993 20.7169 38.3679 20.4641 38.3304 20.2117C38.2924 19.9594 38.2485 19.7082 38.1986 19.458C38.1486 19.2079 38.0927 18.9593 38.0303 18.7119C37.9679 18.4645 37.9001 18.2186 37.8258 17.975C37.7514 17.7308 37.6711 17.4888 37.5848 17.2484C37.4991 17.0086 37.4068 16.7703 37.3092 16.5348C37.2115 16.2993 37.1079 16.0665 36.9988 15.8359C36.8897 15.6053 36.7747 15.3774 36.6542 15.1527C36.5343 14.9275 36.4084 14.7061 36.2771 14.4875C36.1458 14.2682 36.009 14.0534 35.8674 13.8412C35.7258 13.629 35.5787 13.4206 35.4268 13.2155C35.2748 13.0109 35.118 12.8102 34.9558 12.6127C34.7941 12.4157 34.6275 12.2225 34.456 12.0337C34.2845 11.8448 34.1087 11.6598 33.9285 11.4796C33.7478 11.2995 33.5633 11.1237 33.3745 10.9522C33.1851 10.7807 32.9925 10.6141 32.795 10.4524C32.598 10.2907 32.3967 10.1339 32.1921 9.9814C31.987 9.82946 31.7786 9.68295 31.5664 9.54078C31.3548 9.39915 31.1394 9.26295 30.9202 9.13163C30.7015 9.00031 30.4801 8.87442 30.2549 8.7545C30.0302 8.63403 29.8023 8.519 29.5717 8.40992C29.3411 8.30085 29.1083 8.19721 28.8722 8.09954C28.6367 8.00186 28.3991 7.91016 28.1587 7.82388C27.9188 7.73814 27.6768 7.65783 27.4326 7.58349C27.1884 7.50915 26.9426 7.44132 26.6952 7.37891C26.4477 7.31705 26.1992 7.26062 25.9491 7.2107C25.6989 7.16077 25.4477 7.11682 25.1953 7.07938C24.943 7.04194 24.6901 7.01046 24.4362 6.98496C24.1822 6.96 23.9283 6.94101 23.6732 6.92798C23.4187 6.9155 23.1637 6.90899 22.9087 6.90845ZM22.9087 36.4551C22.6802 36.4551 22.4518 36.4496 22.2239 36.4382C21.9954 36.4274 21.768 36.4106 21.5407 36.3883C21.3133 36.3655 21.0865 36.3378 20.8607 36.3042C20.635 36.2706 20.4098 36.2315 20.1857 36.187C19.9616 36.1425 19.7391 36.0926 19.5172 36.0372C19.2958 35.9813 19.0755 35.9206 18.8573 35.8544C18.6386 35.7882 18.4216 35.7165 18.2067 35.6395C17.9918 35.5624 17.7786 35.4805 17.5675 35.3931C17.3564 35.3057 17.148 35.213 16.9413 35.1153C16.7351 35.0176 16.531 34.9151 16.3292 34.8071C16.1279 34.6996 15.9293 34.5873 15.7334 34.4695C15.5375 34.3523 15.3443 34.2302 15.1549 34.1033C14.965 33.9763 14.7778 33.845 14.5944 33.7088C14.411 33.5726 14.2313 33.432 14.0544 33.2871C13.8781 33.1423 13.705 32.993 13.5357 32.84C13.3664 32.6864 13.2014 32.5291 13.0397 32.3674C12.878 32.2062 12.7206 32.0407 12.5676 31.8714C12.4141 31.7021 12.2648 31.529 12.1199 31.3526C11.9751 31.1763 11.8345 30.9961 11.6983 30.8127C11.5627 30.6293 11.4308 30.4426 11.3038 30.2527C11.1774 30.0628 11.0547 29.8696 10.9375 29.6737C10.8203 29.4778 10.7075 29.2792 10.6 29.0779C10.492 28.8766 10.3895 28.6726 10.2918 28.4658C10.1941 28.2596 10.1019 28.0507 10.0145 27.8396C9.92714 27.6285 9.84466 27.4158 9.76761 27.2004C9.69055 26.9855 9.61893 26.7684 9.55272 26.5503C9.48652 26.3316 9.42575 26.1113 9.3704 25.8899C9.31451 25.6685 9.26458 25.4455 9.22009 25.2214C9.17559 24.9973 9.13652 24.7726 9.10288 24.5463C9.06923 24.3206 9.04156 24.0938 9.01931 23.8664C8.99652 23.6396 8.9797 23.4117 8.96885 23.1832C8.95745 22.9553 8.95202 22.7269 8.95202 22.4984C8.95202 22.2705 8.95745 22.0421 8.96885 21.8136C8.9797 21.5857 8.99652 21.3578 9.01931 21.1304C9.04156 20.9036 9.06923 20.6768 9.10288 20.451C9.13652 20.2248 9.17559 20.0001 9.22009 19.776C9.26458 19.5519 9.31451 19.3289 9.3704 19.1075C9.42575 18.8861 9.48652 18.6658 9.55272 18.4471C9.61893 18.2289 9.69055 18.0119 9.76761 17.797C9.84466 17.5816 9.92714 17.3689 10.0145 17.1578C10.1019 16.9467 10.1941 16.7378 10.2918 16.5316C10.3895 16.3248 10.492 16.1208 10.6 15.9195C10.7075 15.7182 10.8203 15.5196 10.9375 15.3237C11.0547 15.1278 11.1774 14.9346 11.3038 14.7447C11.4308 14.5548 11.5627 14.3681 11.6983 14.1847C11.8345 14.0013 11.9751 13.8211 12.1199 13.6447C12.2648 13.4678 12.4141 13.2953 12.5676 13.126C12.7206 12.9567 12.878 12.7912 13.0397 12.63C13.2014 12.4683 13.3664 12.3109 13.5357 12.1574C13.705 12.0044 13.8781 11.8551 14.0544 11.7102C14.2313 11.5654 14.411 11.4248 14.5944 11.2886C14.7778 11.1524 14.965 11.0211 15.1549 10.8941C15.3443 10.7671 15.5375 10.645 15.7334 10.5278C15.9293 10.4101 16.1279 10.2978 16.3292 10.1898C16.531 10.0823 16.7351 9.97978 16.9413 9.8821C17.148 9.78443 17.3564 9.69163 17.5675 9.60427C17.7786 9.51691 17.9918 9.43497 18.2067 9.35791C18.4216 9.28086 18.6386 9.20923 18.8573 9.14303C19.0755 9.07683 19.2958 9.01605 19.5172 8.96016C19.7391 8.90481 19.9616 8.85489 20.1857 8.81039C20.4098 8.7659 20.635 8.72683 20.8607 8.69318C21.0865 8.65954 21.3133 8.63186 21.5407 8.60907C21.768 8.58682 21.9954 8.57 22.2239 8.55861C22.4518 8.54775 22.6802 8.54179 22.9087 8.54179C23.1371 8.54179 23.365 8.54775 23.5935 8.55861C23.8214 8.57 24.0493 8.58682 24.2766 8.60907C24.504 8.63186 24.7303 8.65954 24.9566 8.69318C25.1823 8.72683 25.4075 8.7659 25.6316 8.81039C25.8552 8.85489 26.0782 8.90481 26.2996 8.96016C26.5215 9.01605 26.7413 9.07683 26.96 9.14303C27.1787 9.20923 27.3952 9.28086 27.6106 9.35791C27.8255 9.43497 28.0388 9.51691 28.2493 9.60427C28.4604 9.69163 28.6693 9.78443 28.8755 9.8821C29.0822 9.97978 29.2863 10.0823 29.4876 10.1898C29.6889 10.2978 29.8875 10.4101 30.084 10.5278C30.2798 10.645 30.4725 10.7671 30.6624 10.8941C30.8523 11.0211 31.039 11.1524 31.2224 11.2886C31.4058 11.4248 31.586 11.5654 31.7623 11.7102C31.9392 11.8551 32.1118 12.0044 32.2811 12.1574C32.4504 12.3109 32.6159 12.4683 32.7776 12.63C32.9388 12.7912 33.0961 12.9567 33.2497 13.126C33.4033 13.2953 33.5525 13.4678 33.6974 13.6447C33.8423 13.8211 33.9828 14.0013 34.1185 14.1847C34.2547 14.3681 34.386 14.5548 34.513 14.7447C34.6399 14.9346 34.762 15.1278 34.8798 15.3237C34.997 15.5196 35.1093 15.7182 35.2173 15.9195C35.3247 16.1208 35.4273 16.3248 35.525 16.5316C35.6227 16.7378 35.7154 16.9467 35.8028 17.1578C35.8902 17.3689 35.9721 17.5816 36.0492 17.797C36.1262 18.0119 36.1979 18.2289 36.2641 18.4471C36.3303 18.6658 36.3916 18.8861 36.4469 19.1075C36.5023 19.3289 36.5522 19.5519 36.5972 19.776C36.6417 20.0001 36.6808 20.2248 36.7139 20.451C36.7475 20.6768 36.7758 20.9036 36.798 21.1304C36.8203 21.3578 36.8371 21.5857 36.8485 21.8136C36.8593 22.0421 36.8653 22.2705 36.8653 22.4984C36.8648 22.7269 36.8593 22.9553 36.8479 23.1832C36.8365 23.4111 36.8192 23.639 36.7969 23.8664C36.7741 24.0932 36.7459 24.3201 36.7123 24.5458C36.6786 24.7715 36.6396 24.9967 36.5945 25.2203C36.55 25.4444 36.4996 25.6669 36.4442 25.8888C36.3883 26.1102 36.3275 26.33 36.2608 26.5487C36.1946 26.7668 36.123 26.9839 36.0459 27.1987C35.9689 27.4136 35.8864 27.6263 35.799 27.8374C35.7116 28.0485 35.6189 28.2569 35.5212 28.4636C35.4235 28.6698 35.3209 28.8739 35.213 29.0752C35.1055 29.2765 34.9927 29.4751 34.8754 29.6705C34.7577 29.8664 34.6356 30.0595 34.5086 30.2495C34.3816 30.4388 34.2503 30.6255 34.1141 30.8089C33.9779 30.9923 33.8379 31.1725 33.693 31.3488C33.5482 31.5252 33.3989 31.6983 33.2454 31.8676C33.0923 32.0364 32.9344 32.2019 32.7733 32.3636C32.6116 32.5247 32.4466 32.6821 32.2773 32.8357C32.108 32.9887 31.9354 33.1379 31.7585 33.2828C31.5822 33.4277 31.402 33.5682 31.2192 33.7044C31.0357 33.8406 30.8491 33.9719 30.6592 34.0989C30.4692 34.2259 30.2766 34.348 30.0807 34.4652C29.8848 34.583 29.6862 34.6953 29.4849 34.8033C29.2836 34.9107 29.0795 35.0138 28.8733 35.1115C28.6671 35.2092 28.4582 35.3014 28.2471 35.3893C28.0366 35.4767 27.8233 35.5586 27.6084 35.6357C27.3936 35.7127 27.177 35.7849 26.9584 35.8511C26.7397 35.9173 26.5199 35.9786 26.2985 36.034C26.0771 36.0899 25.8541 36.1403 25.6305 36.1848C25.4064 36.2293 25.1818 36.2689 24.9555 36.3026C24.7298 36.3362 24.5035 36.3644 24.2761 36.3867C24.0487 36.4095 23.8214 36.4263 23.5929 36.4377C23.365 36.4491 23.1371 36.4551 22.9087 36.4551Z" fill="url(#paint0_linear_1238_1632)"/>
<path d="M44.5906 16.8642H41.7977C41.4102 15.569 40.8953 14.3263 40.2528 13.1374L42.2258 11.1638C42.2632 11.1259 42.2963 11.0852 42.3256 11.0412C42.3544 10.9967 42.3794 10.95 42.3994 10.9012C42.4195 10.8524 42.4347 10.8019 42.4445 10.7498C42.4548 10.6977 42.4602 10.6456 42.4602 10.5924C42.4602 10.5398 42.4548 10.4872 42.4445 10.4351C42.4347 10.3835 42.4195 10.3331 42.3994 10.2837C42.3794 10.2348 42.3544 10.1882 42.3256 10.1442C42.2963 10.1003 42.2632 10.059 42.2258 10.0216L35.4119 3.18436C35.3739 3.14746 35.3332 3.11436 35.2887 3.0856C35.2448 3.0563 35.1981 3.03188 35.1493 3.0118C35.1004 2.99227 35.05 2.97707 34.9979 2.96676C34.9458 2.95645 34.8937 2.95157 34.8405 2.95157C34.7879 2.95157 34.7352 2.95645 34.6837 2.96676C34.6316 2.97707 34.5811 2.99227 34.5323 3.0118C34.4834 3.03188 34.4368 3.0563 34.3923 3.0856C34.3483 3.11436 34.3071 3.14746 34.2696 3.18436L32.2961 5.15522C31.1044 4.51165 29.8591 3.99723 28.5606 3.61304V0.816832C28.5606 0.762568 28.5551 0.708847 28.5443 0.655669C28.5334 0.60249 28.5172 0.55094 28.496 0.501017C28.4748 0.450552 28.4493 0.403342 28.4184 0.358303C28.388 0.313807 28.3533 0.272024 28.3147 0.23404C28.2757 0.196055 28.2334 0.162411 28.1883 0.132566C28.1427 0.103264 28.0944 0.0783025 28.044 0.058225C27.9935 0.0381474 27.942 0.0229535 27.8882 0.0131861C27.8351 0.00341867 27.7808 -0.000922433 27.7265 0.000162772H18.0909C18.0372 0.000162772 17.984 0.00558911 17.9319 0.0158993C17.8793 0.0262094 17.8277 0.0419458 17.7784 0.0625661C17.729 0.0826436 17.6818 0.108148 17.6373 0.137993C17.5928 0.167838 17.5515 0.201481 17.5135 0.239466C17.4756 0.277451 17.4419 0.318691 17.4121 0.363187C17.3822 0.407684 17.3567 0.454893 17.3366 0.504273C17.316 0.553653 17.3003 0.605204 17.29 0.657839C17.2797 0.709933 17.2742 0.763111 17.2742 0.816832V3.61304C15.979 3.99832 14.7363 4.51274 13.5474 5.15522L11.5738 3.18436C11.4979 3.10948 11.41 3.0525 11.3112 3.01234C11.2124 2.97219 11.1093 2.95265 11.003 2.9532C10.8961 2.9532 10.7935 2.97327 10.6948 3.01289C10.596 3.05304 10.5081 3.11002 10.4316 3.18436L3.59435 9.99554C3.55745 10.0335 3.52435 10.0742 3.49505 10.1187C3.46629 10.1627 3.44133 10.2093 3.42125 10.2582C3.40117 10.307 3.38598 10.3575 3.37567 10.4096C3.3659 10.4617 3.36048 10.5138 3.36048 10.5669C3.36048 10.6196 3.3659 10.6722 3.37567 10.7243C3.38598 10.7759 3.40117 10.8263 3.42125 10.8757C3.44133 10.9245 3.46629 10.9712 3.49505 11.0152C3.52435 11.0597 3.55745 11.1004 3.59435 11.1378L5.56521 13.1374C4.92164 14.3296 4.40722 15.576 4.02304 16.8756H1.22737C1.17419 16.8756 1.12155 16.8805 1.06892 16.8908C1.01682 16.9011 0.96636 16.9163 0.91698 16.9364C0.868142 16.9565 0.821475 16.9815 0.776979 17.0108C0.732483 17.0401 0.691242 17.0732 0.6538 17.1106C0.615816 17.148 0.58163 17.1887 0.551785 17.2327C0.52194 17.2767 0.496436 17.3228 0.475815 17.3716C0.454652 17.4205 0.438916 17.4709 0.428063 17.523C0.417211 17.5751 0.411242 17.6277 0.410156 17.6809V27.3165C0.410156 27.3703 0.415583 27.4234 0.425893 27.4761C0.436203 27.5287 0.451939 27.5797 0.47256 27.6296C0.49318 27.679 0.518141 27.7262 0.547986 27.7713C0.577831 27.8158 0.611475 27.857 0.649459 27.895C0.687444 27.933 0.728684 27.9672 0.773181 27.997C0.817677 28.0268 0.864886 28.0523 0.914266 28.073C0.963647 28.0936 1.0152 28.1093 1.06783 28.1202C1.12047 28.1305 1.17365 28.1359 1.22737 28.1365H4.02304C4.40722 29.435 4.92164 30.6798 5.56521 31.8714L3.59435 33.845C3.55745 33.883 3.5249 33.9237 3.49559 33.9682C3.46683 34.0121 3.44187 34.0588 3.42234 34.1076C3.40226 34.157 3.38707 34.2075 3.37676 34.259C3.36699 34.3111 3.36156 34.3632 3.36156 34.4164C3.36156 34.469 3.36699 34.5217 3.37676 34.5732C3.38707 34.6253 3.40226 34.6758 3.42234 34.7246C3.44187 34.7735 3.46683 34.8201 3.49559 34.8646C3.5249 34.9086 3.55745 34.9498 3.59435 34.9873L10.4061 41.8158C10.4815 41.8918 10.5689 41.9504 10.6682 41.9916C10.7669 42.0334 10.87 42.0546 10.9769 42.0556C11.0844 42.0551 11.1875 42.0345 11.2868 41.9927C11.3855 41.9509 11.4729 41.8923 11.5483 41.8158L13.5474 39.8422C14.7401 40.4863 15.986 41.0013 17.2856 41.3877V44.1806C17.2856 44.2343 17.2911 44.2875 17.3014 44.3401C17.3117 44.3928 17.3274 44.4438 17.348 44.4937C17.3681 44.5431 17.3936 44.5903 17.4235 44.6348C17.4528 44.6798 17.487 44.7211 17.5249 44.7591C17.5624 44.7971 17.6036 44.8312 17.6487 44.8611C17.6932 44.8909 17.7404 44.9164 17.7897 44.937C17.8391 44.9577 17.8901 44.9734 17.9428 44.9837C17.9954 44.9946 18.0486 45 18.1023 45H27.7265C27.7802 45 27.834 44.9946 27.8866 44.9837C27.9392 44.9734 27.9902 44.9577 28.0402 44.937C28.0896 44.9164 28.1368 44.8909 28.1813 44.8611C28.2263 44.8312 28.2675 44.7971 28.3055 44.7591C28.3435 44.7211 28.3777 44.6798 28.4075 44.6353C28.4374 44.5903 28.4623 44.5431 28.483 44.4937C28.5041 44.4438 28.5193 44.3928 28.5302 44.3401C28.541 44.2875 28.5459 44.2343 28.5465 44.1806V41.3877C29.845 41.0018 31.0903 40.4869 32.282 39.8422L34.255 41.8158C34.2935 41.8516 34.3353 41.8831 34.3798 41.9113C34.4243 41.939 34.471 41.9629 34.5198 41.9818C34.5686 42.0014 34.6186 42.0155 34.6701 42.0253C34.7217 42.035 34.7738 42.0399 34.8264 42.0399C34.879 42.0399 34.9311 42.035 34.9827 42.0253C35.0342 42.0155 35.0841 42.0014 35.133 41.9818C35.1824 41.9629 35.2285 41.939 35.273 41.9113C35.3175 41.8831 35.3593 41.8516 35.3978 41.8158L42.2117 35.0019C42.2486 34.9639 42.2817 34.9227 42.3105 34.8787C42.3398 34.8342 42.3642 34.7881 42.3843 34.7387C42.4043 34.6899 42.419 34.6394 42.4293 34.5879C42.4396 34.5358 42.4445 34.4831 42.4445 34.4305C42.4445 34.3779 42.4396 34.3252 42.4293 34.2731C42.419 34.2216 42.4043 34.1711 42.3843 34.1223C42.3642 34.0729 42.3398 34.0268 42.3105 33.9823C42.2817 33.9383 42.2486 33.8971 42.2117 33.8591L40.2381 31.8861C40.8828 30.6944 41.3977 29.4491 41.7836 28.1506H44.5765C44.6302 28.15 44.6834 28.1451 44.736 28.1343C44.7887 28.1234 44.8397 28.1077 44.8891 28.0871C44.9384 28.0665 44.9857 28.0415 45.0302 28.0111C45.0752 27.9813 45.1164 27.9476 45.1539 27.9096C45.1919 27.8711 45.226 27.8299 45.2553 27.7854C45.2852 27.7409 45.3107 27.6937 45.3308 27.6437C45.3514 27.5944 45.3671 27.5428 45.3774 27.4902C45.3877 27.4375 45.3932 27.3844 45.3932 27.3306V17.6809C45.3932 17.6277 45.3883 17.5751 45.378 17.523C45.3677 17.4715 45.3525 17.4205 45.3324 17.3716C45.3123 17.3222 45.2879 17.2756 45.2586 17.2316C45.2293 17.1871 45.1962 17.1459 45.1588 17.1084C45.1219 17.0705 45.0812 17.0368 45.0377 17.0064C44.9938 16.9766 44.9477 16.9511 44.8988 16.9305C44.85 16.9093 44.8001 16.8936 44.748 16.8822C44.6959 16.8713 44.6438 16.8648 44.5906 16.8642ZM40.0867 28.1104C39.7991 28.9944 39.4464 29.8512 39.0275 30.6809C38.8794 30.5691 38.7128 30.5132 38.5277 30.5121C38.4208 30.511 38.3177 30.53 38.2184 30.5702C38.1197 30.6103 38.0323 30.6684 37.9563 30.7438C37.9194 30.7813 37.8863 30.8225 37.8576 30.8665C37.8283 30.911 37.8038 30.9576 37.7838 31.0065C37.7642 31.0553 37.749 31.1058 37.7387 31.1579C37.7284 31.2094 37.7235 31.262 37.7235 31.3147C37.7235 31.3679 37.7284 31.42 37.7387 31.472C37.749 31.5236 37.7642 31.5741 37.7838 31.6234C37.8038 31.6723 37.8283 31.7189 37.8576 31.7629C37.8863 31.8074 37.9194 31.8481 37.9563 31.8861L38.6476 32.5769L40.4812 34.4104L34.8237 40.068L32.9901 38.2344L32.2988 37.5436C32.263 37.5078 32.2239 37.4758 32.1821 37.447C32.1398 37.4188 32.0958 37.3944 32.0492 37.3743C32.0025 37.3542 31.9548 37.3385 31.9054 37.3276C31.8555 37.3162 31.8055 37.3103 31.7551 37.3081C31.7041 37.3065 31.6536 37.3097 31.6037 37.3173C31.5537 37.3249 31.5049 37.3374 31.4566 37.3542C31.4089 37.3711 31.3633 37.3928 31.3193 37.4183C31.2754 37.4438 31.2347 37.4731 31.1962 37.5062C31.1582 37.5393 31.1229 37.5756 31.0914 37.6158C31.0599 37.6554 31.0328 37.6977 31.0089 37.7428C30.9856 37.7873 30.9666 37.8339 30.9514 37.8828C30.9368 37.9311 30.9265 37.9804 30.921 38.0309C30.9156 38.0814 30.9151 38.1318 30.9189 38.1823C30.9227 38.2333 30.9313 38.2827 30.9449 38.3315C30.9579 38.3809 30.9758 38.4281 30.9981 38.4737C31.0203 38.5193 31.0464 38.5621 31.0768 38.6028C30.2471 39.0223 29.3903 39.3756 28.5063 39.6626C28.4938 39.566 28.4645 39.4749 28.4184 39.3891C28.3728 39.3034 28.3137 39.2285 28.2404 39.1639C28.1677 39.0999 28.0858 39.05 27.9946 39.0158C27.904 38.9811 27.8096 38.9632 27.7124 38.9626C27.6587 38.9626 27.6055 38.968 27.5529 38.9784C27.5002 38.9892 27.4487 39.0044 27.3993 39.025C27.3494 39.0456 27.3022 39.0711 27.2577 39.101C27.2132 39.1308 27.172 39.165 27.134 39.203C27.096 39.241 27.0623 39.2828 27.0325 39.3273C27.0026 39.3723 26.9777 39.4195 26.9571 39.4689C26.9364 39.5188 26.9213 39.5698 26.9109 39.6225C26.9006 39.6756 26.8952 39.7288 26.8958 39.7825V43.3493H18.8994V39.7966C18.8994 39.7429 18.8946 39.6897 18.8842 39.6371C18.8739 39.5845 18.8582 39.5329 18.8381 39.483C18.8175 39.4336 18.7925 39.3864 18.7627 39.3414C18.7329 39.2969 18.6992 39.2556 18.6612 39.2171C18.6232 39.1791 18.582 39.1455 18.537 39.1151C18.4925 39.0853 18.4453 39.0603 18.3959 39.0397C18.346 39.019 18.2949 39.0033 18.2423 38.993C18.1897 38.9821 18.136 38.9773 18.0822 38.9773C17.9851 38.9778 17.8912 38.9957 17.8006 39.0304C17.71 39.0652 17.628 39.1146 17.5548 39.1791C17.4821 39.2432 17.4229 39.318 17.3768 39.4038C17.3312 39.4895 17.3014 39.5807 17.2884 39.6767C16.4049 39.3891 15.5481 39.0359 14.7184 38.6175C14.764 38.5573 14.8009 38.4921 14.8286 38.4221C14.8563 38.3521 14.8736 38.2794 14.8807 38.2045C14.8883 38.1291 14.885 38.0548 14.8714 37.9804C14.8579 37.9061 14.8345 37.8356 14.8009 37.7677C14.7673 37.7004 14.7255 37.6386 14.6745 37.5827C14.624 37.5268 14.5665 37.479 14.5025 37.4394C14.4384 37.3993 14.37 37.3694 14.2973 37.3488C14.2252 37.3282 14.1508 37.3179 14.0754 37.3179C13.9685 37.319 13.8654 37.3401 13.7666 37.3819C13.6679 37.4232 13.5805 37.4818 13.5045 37.5577L12.8165 38.249L10.9769 40.0821L5.32808 34.4251L7.16165 32.5915L7.84972 31.9002C7.88662 31.8622 7.91972 31.8215 7.94902 31.777C7.97778 31.7331 8.0022 31.6864 8.02227 31.6376C8.04235 31.5887 8.05755 31.5382 8.06731 31.4862C8.07762 31.4341 8.08305 31.382 8.08305 31.3288C8.08305 31.2762 8.07762 31.2241 8.06731 31.172C8.05755 31.1199 8.04235 31.0694 8.02227 31.0206C8.0022 30.9717 7.97778 30.9251 7.94902 30.8811C7.91972 30.8366 7.88662 30.7959 7.84972 30.7579C7.77429 30.682 7.68692 30.6244 7.58762 30.5843C7.48886 30.5441 7.38576 30.5246 7.27886 30.5268C7.09436 30.5273 6.92886 30.5838 6.78181 30.695C6.36072 29.8658 6.00692 29.009 5.71932 28.1245C5.81591 28.112 5.90707 28.0827 5.99281 28.0372C6.07855 27.991 6.15343 27.9319 6.21801 27.8586C6.28204 27.7859 6.33196 27.704 6.36615 27.6128C6.40087 27.5222 6.41878 27.4283 6.41932 27.3306C6.41932 27.2775 6.4139 27.2243 6.40359 27.1716C6.39273 27.119 6.37754 27.068 6.35692 27.0181C6.3363 26.9687 6.31134 26.9215 6.28149 26.877C6.25165 26.8325 6.21801 26.7913 6.18002 26.7533C6.14204 26.7153 6.1008 26.6816 6.0563 26.6518C6.01126 26.622 5.96459 26.597 5.91467 26.5764C5.86529 26.5558 5.81428 26.54 5.76165 26.5297C5.70901 26.5194 5.65583 26.514 5.60211 26.514H2.04675V18.5177H5.61351C5.66723 18.5177 5.72041 18.5122 5.77304 18.5019C5.82568 18.4916 5.87669 18.4759 5.92607 18.4553C5.97599 18.4352 6.02266 18.4097 6.06769 18.3798C6.11219 18.35 6.15343 18.3163 6.19142 18.2784C6.2294 18.2404 6.26304 18.1991 6.29289 18.1546C6.32273 18.1101 6.3477 18.0629 6.36832 18.0136C6.38894 17.9636 6.40413 17.9126 6.41498 17.86C6.42529 17.8074 6.43072 17.7547 6.43072 17.701C6.42963 17.6039 6.41173 17.5094 6.377 17.4188C6.34227 17.3282 6.29289 17.2463 6.22886 17.1736C6.16428 17.1003 6.0894 17.0411 6.00366 16.995C5.91793 16.9494 5.82731 16.9201 5.73072 16.9071C6.01777 16.0226 6.37211 15.1658 6.7932 14.3366C6.83336 14.3697 6.87677 14.3985 6.92289 14.4229C6.96847 14.4473 7.01622 14.4674 7.06615 14.4826C7.11607 14.4978 7.16654 14.5081 7.21863 14.5135C7.27018 14.5195 7.32227 14.5195 7.37382 14.5152C7.42592 14.5108 7.47692 14.5011 7.52685 14.487C7.57677 14.4723 7.62506 14.4533 7.67173 14.43C7.71786 14.4061 7.76181 14.3779 7.80251 14.3459C7.84375 14.3139 7.88119 14.278 7.91538 14.2384C7.94902 14.1994 7.97941 14.157 8.00491 14.112C8.03096 14.0664 8.05212 14.0192 8.06894 13.9698C8.08576 13.9204 8.0977 13.87 8.10476 13.8184C8.11181 13.7669 8.11344 13.7153 8.11072 13.6632C8.10747 13.6111 8.09933 13.5601 8.08685 13.5097C8.07383 13.4592 8.05592 13.4104 8.03367 13.3632C8.01142 13.3165 7.98483 13.272 7.9539 13.2302C7.92297 13.1879 7.88824 13.1494 7.84972 13.1141L7.16165 12.426L5.32808 10.5669L10.9769 4.91809L13.4986 7.43972C13.5366 7.47662 13.5778 7.50972 13.6218 7.53848C13.6662 7.56778 13.7124 7.5922 13.7618 7.61228C13.8106 7.63236 13.8611 7.64701 13.9126 7.65732C13.9647 7.66763 14.0173 7.67251 14.07 7.67251C14.1226 7.67251 14.1752 7.66763 14.2273 7.65732C14.2789 7.64701 14.3294 7.63236 14.3782 7.61228C14.4276 7.5922 14.4737 7.56778 14.5182 7.53848C14.5621 7.50972 14.6034 7.47662 14.6414 7.43972C14.7097 7.37026 14.7635 7.29158 14.8031 7.20259C14.8432 7.1136 14.866 7.02081 14.872 6.92367C14.878 6.82654 14.8671 6.73158 14.8383 6.63825C14.8101 6.54546 14.7662 6.46026 14.707 6.38321C15.5356 5.96158 16.3925 5.60832 17.277 5.32344C17.2905 5.41948 17.3204 5.5101 17.3659 5.59584C17.4121 5.68103 17.4718 5.75538 17.5445 5.81941C17.6172 5.88344 17.6991 5.93282 17.7897 5.96755C17.8804 6.00173 17.9742 6.01964 18.0708 6.02018C18.1246 6.02018 18.1777 6.0153 18.2304 6.00445C18.283 5.99414 18.334 5.97894 18.3834 5.95832C18.4333 5.9377 18.48 5.91274 18.525 5.88289C18.5695 5.85305 18.6108 5.81886 18.6487 5.78088C18.6867 5.74344 18.7204 5.7022 18.7502 5.65716C18.7801 5.61266 18.805 5.56545 18.8256 5.51607C18.8463 5.46669 18.8615 5.41568 18.8723 5.36305C18.8826 5.31041 18.888 5.25723 18.888 5.20351V1.63676H26.8844V5.20351C26.8844 5.25723 26.8892 5.31041 26.9001 5.36305C26.9104 5.41568 26.9261 5.46669 26.9462 5.51607C26.9668 5.56545 26.9923 5.61266 27.0216 5.65716C27.0515 5.7022 27.0857 5.74344 27.1237 5.78088C27.1616 5.81886 27.2029 5.85305 27.2474 5.88289C27.2919 5.91274 27.3391 5.9377 27.3885 5.95832C27.4378 5.97894 27.4889 5.99414 27.5415 6.00445C27.5941 6.0153 27.6473 6.02018 27.701 6.02018C27.7982 6.01964 27.892 6.00227 27.9827 5.96809C28.0733 5.93336 28.1552 5.88452 28.2285 5.82049C28.3012 5.75646 28.3603 5.68158 28.4065 5.59584C28.4526 5.51065 28.4819 5.41948 28.4949 5.32344C29.3799 5.60778 30.2368 5.96103 31.0654 6.38321C31.0361 6.4239 31.0106 6.46677 30.9894 6.51235C30.9677 6.55794 30.9509 6.60515 30.9384 6.65344C30.9259 6.70228 30.9178 6.75166 30.9145 6.80158C30.9107 6.8515 30.9124 6.90197 30.9178 6.95135C30.9237 7.00127 30.9341 7.05011 30.9493 7.0984C30.9639 7.14615 30.9834 7.19228 31.0068 7.23678C31.0306 7.28127 31.0578 7.32305 31.0893 7.36212C31.1202 7.40174 31.1549 7.43755 31.1929 7.47065C31.2309 7.50321 31.2716 7.53251 31.315 7.55747C31.3584 7.58298 31.404 7.60414 31.4512 7.62096C31.4984 7.63778 31.5467 7.65027 31.5966 7.65786C31.646 7.666 31.6959 7.66926 31.7464 7.66763C31.7963 7.666 31.8462 7.66003 31.8951 7.64972C31.9444 7.63887 31.9922 7.62368 32.0383 7.60414C32.0844 7.58515 32.1284 7.56127 32.1707 7.5336C32.2125 7.50592 32.2516 7.47445 32.2874 7.43972L32.9787 6.75166L34.8123 4.91809L40.4926 10.5669L38.659 12.4005L37.9677 13.0886C37.9276 13.1233 37.8918 13.1618 37.8592 13.2036C37.8266 13.2459 37.7984 13.2904 37.7745 13.3376C37.7512 13.3854 37.7322 13.4348 37.7181 13.4858C37.704 13.5368 37.6953 13.5889 37.6915 13.6421C37.6877 13.6952 37.6894 13.7479 37.6959 13.8005C37.7029 13.8532 37.7143 13.9047 37.7311 13.9546C37.748 14.0051 37.7697 14.0534 37.7957 14.0995C37.8218 14.1456 37.8527 14.1885 37.8874 14.2287C37.9221 14.2688 37.9601 14.3052 38.0025 14.3377C38.0442 14.3703 38.0887 14.3985 38.1365 14.4224C38.1837 14.4463 38.2331 14.4647 38.2841 14.4788C38.3356 14.4929 38.3872 14.5021 38.4404 14.5059C38.4935 14.5097 38.5462 14.5081 38.5988 14.5016C38.6514 14.4951 38.703 14.4832 38.7535 14.4669C38.8034 14.4501 38.8517 14.4283 38.8978 14.4023C38.9439 14.3763 38.9873 14.3459 39.0275 14.3111C39.4464 15.1408 39.7997 15.9971 40.0867 16.8811C39.9907 16.8941 39.8995 16.9239 39.8138 16.9695C39.728 17.0156 39.6532 17.0748 39.5891 17.1475C39.5251 17.2208 39.4752 17.3027 39.4404 17.3933C39.4057 17.4839 39.3883 17.5778 39.3873 17.6749C39.3873 17.7287 39.3927 17.7824 39.403 17.835C39.4133 17.8877 39.429 17.9387 39.4497 17.9886C39.4703 18.038 39.4958 18.0852 39.5256 18.1297C39.5555 18.1747 39.5897 18.216 39.6277 18.2539C39.6656 18.2914 39.7069 18.3256 39.7519 18.3554C39.7964 18.3853 39.8436 18.4102 39.8935 18.4303C39.9429 18.4509 39.9945 18.4667 40.0471 18.477C40.0997 18.4873 40.1529 18.4922 40.2066 18.4922H43.7739V26.4885H40.2066C40.1529 26.4879 40.0997 26.4934 40.0471 26.5037C39.9945 26.514 39.9429 26.5292 39.8935 26.5498C39.8436 26.5704 39.7964 26.5954 39.7519 26.6252C39.7069 26.6545 39.6656 26.6887 39.6277 26.7267C39.5897 26.7647 39.5555 26.8059 39.5256 26.8504C39.4958 26.8949 39.4703 26.9421 39.4497 26.992C39.429 27.0414 39.4133 27.093 39.403 27.1456C39.3927 27.1982 39.3873 27.2514 39.3873 27.3051C39.3867 27.4034 39.4035 27.4983 39.4377 27.5906C39.4719 27.6823 39.5208 27.7653 39.5853 27.8396C39.6499 27.914 39.7253 27.9742 39.8116 28.0209C39.8979 28.0675 39.9896 28.0974 40.0867 28.1104Z" fill="url(#paint1_linear_1238_1632)"/>
<path d="M21.8006 28.0506C21.8772 28.1244 21.9645 28.1819 22.0633 28.2216C22.1626 28.2617 22.2651 28.2818 22.3715 28.2818C22.3992 28.2845 22.4268 28.2845 22.4545 28.2818C22.575 28.2704 22.6873 28.2335 22.7915 28.1716C22.8957 28.1098 22.9814 28.0284 23.0487 27.9275L29.2228 18.8117C29.2532 18.7672 29.2787 18.7205 29.2994 18.6706C29.3205 18.6212 29.3362 18.5702 29.3471 18.5176C29.358 18.4649 29.3634 18.4118 29.3639 18.358C29.3639 18.3049 29.359 18.2511 29.3493 18.1985C29.339 18.1459 29.3238 18.0949 29.3037 18.0449C29.2836 17.995 29.2587 17.9478 29.2288 17.9033C29.1995 17.8583 29.1659 17.8165 29.1279 17.7785C29.0904 17.7405 29.0492 17.7063 29.0047 17.6759C28.9602 17.6461 28.9135 17.6206 28.8636 17.5994C28.8142 17.5788 28.7632 17.5631 28.7106 17.5522C28.658 17.5414 28.6048 17.5359 28.5511 17.5354C28.4973 17.5354 28.4442 17.5403 28.3915 17.5501C28.3389 17.5604 28.2879 17.5756 28.238 17.5956C28.188 17.6163 28.1408 17.6412 28.0963 17.6705C28.0513 17.7004 28.01 17.734 27.9715 17.7714C27.9335 17.8094 27.8993 17.8507 27.8695 17.8952L22.2375 26.1997L17.3255 21.4418C17.2485 21.368 17.1611 21.3116 17.0618 21.272C16.963 21.2324 16.8605 21.2129 16.7541 21.2134C16.644 21.2134 16.5376 21.2346 16.4361 21.2774C16.3341 21.3208 16.2451 21.3822 16.1686 21.4619C16.1323 21.5005 16.0997 21.5417 16.0715 21.5862C16.0433 21.6312 16.0194 21.6779 16.0004 21.7273C15.9809 21.7767 15.9667 21.8271 15.9575 21.8792C15.9478 21.9313 15.9434 21.9839 15.9445 22.0366C15.945 22.0898 15.951 22.1419 15.9619 22.1934C15.9727 22.2455 15.989 22.2954 16.0096 22.3443C16.0302 22.3925 16.0552 22.4392 16.085 22.4826C16.1149 22.5266 16.1485 22.5673 16.186 22.6042L21.8006 28.0506Z" fill="url(#paint2_linear_1238_1632)"/>
<path d="M16.955 13.6714C17.1091 13.6708 17.2519 13.6301 17.3832 13.5482C18.0311 13.145 18.7159 12.8172 19.4365 12.566C19.5288 12.5351 19.6123 12.4889 19.6878 12.4282C19.7632 12.3674 19.8261 12.2952 19.8761 12.2122C19.926 12.1286 19.9602 12.0396 19.9781 11.9441C19.996 11.8486 19.9971 11.7531 19.9813 11.6576C19.965 11.5616 19.933 11.472 19.8853 11.3874C19.837 11.3033 19.7757 11.2295 19.7019 11.1671C19.6275 11.1047 19.5445 11.0569 19.4533 11.0238C19.3622 10.9907 19.2678 10.9744 19.1712 10.975C19.0789 10.975 18.9894 10.9902 18.9026 11.0211C18.068 11.3136 17.2763 11.6945 16.5264 12.1634C16.4504 12.21 16.3836 12.267 16.3267 12.3354C16.2691 12.4038 16.2246 12.4792 16.1921 12.5622C16.1595 12.6452 16.1411 12.7315 16.1367 12.8205C16.1324 12.9095 16.1422 12.9969 16.1666 13.0826C16.191 13.1683 16.2279 13.2481 16.2784 13.3214C16.3288 13.3952 16.3896 13.4586 16.4607 13.5124C16.5318 13.5661 16.6099 13.6068 16.694 13.635C16.7787 13.6632 16.8655 13.6773 16.955 13.6768V13.6714Z" fill="url(#paint3_linear_1238_1632)"/>
<path d="M11.5684 21.6049C11.6091 21.6076 11.6504 21.6076 11.6911 21.6049C11.7887 21.6049 11.8832 21.5875 11.9749 21.5539C12.0666 21.5197 12.149 21.4709 12.2234 21.4074C12.2972 21.3433 12.358 21.269 12.4057 21.1838C12.4529 21.0986 12.4844 21.0074 12.499 20.9109C12.6076 20.156 12.798 19.4219 13.0704 18.7094C13.0894 18.6589 13.1035 18.6074 13.1128 18.5547C13.122 18.5021 13.1258 18.4489 13.1242 18.3952C13.1231 18.3415 13.116 18.2883 13.1046 18.2362C13.0927 18.1841 13.0759 18.1331 13.0542 18.0843C13.0325 18.0354 13.0064 17.9887 12.9755 17.9448C12.9446 17.9008 12.9098 17.8607 12.8708 17.8238C12.8322 17.7863 12.7899 17.7538 12.7449 17.725C12.6998 17.6963 12.6521 17.6718 12.6021 17.6523C12.5104 17.6165 12.4149 17.5975 12.3167 17.5953C12.2326 17.5953 12.1512 17.6073 12.0709 17.6322C11.9911 17.6572 11.9168 17.6936 11.8484 17.7413C11.7795 17.7891 11.7198 17.846 11.6683 17.9122C11.6173 17.9784 11.5771 18.0512 11.5483 18.1293C11.2304 18.953 11.0057 19.8012 10.8744 20.6737C10.8663 20.7274 10.8635 20.7812 10.8663 20.8349C10.8684 20.8891 10.8766 20.9418 10.8896 20.9944C10.9026 21.0471 10.9205 21.0975 10.9438 21.1464C10.9672 21.1952 10.9949 21.2408 11.0269 21.2842C11.0594 21.3276 11.0952 21.3672 11.1354 21.4036C11.1756 21.4394 11.219 21.4714 11.2656 21.4991C11.3118 21.5262 11.3606 21.549 11.4116 21.5669C11.4626 21.5848 11.5147 21.5973 11.5684 21.6049Z" fill="url(#paint4_linear_1238_1632)"/>
<path d="M13.6674 27.5396C13.6322 27.475 13.5887 27.4164 13.5372 27.3638C13.4862 27.3106 13.4287 27.2656 13.3657 27.2281C13.3022 27.1907 13.2355 27.1625 13.1644 27.1429C13.0933 27.1234 13.0211 27.1142 12.9479 27.1136C12.809 27.1158 12.6787 27.1489 12.5567 27.214C12.5094 27.2395 12.4649 27.2699 12.4242 27.3041C12.383 27.3388 12.3456 27.3768 12.3119 27.4192C12.2783 27.4609 12.249 27.5054 12.224 27.5532C12.1991 27.6009 12.179 27.6503 12.1638 27.7019C12.1491 27.7534 12.1388 27.8061 12.1339 27.8598C12.1296 27.913 12.1296 27.9667 12.1356 28.0199C12.1415 28.0736 12.1524 28.1257 12.1681 28.1772C12.1844 28.2282 12.205 28.2776 12.2311 28.3248C12.6554 29.0981 13.1579 29.8171 13.7385 30.4807C13.7727 30.5241 13.8112 30.5632 13.853 30.599C13.8953 30.6343 13.9404 30.6652 13.9887 30.6918C14.0375 30.7178 14.088 30.739 14.1406 30.7553C14.1932 30.771 14.247 30.7819 14.3018 30.7873C14.3566 30.7922 14.4114 30.7922 14.4662 30.7862C14.521 30.7802 14.5742 30.7689 14.6268 30.7526C14.6794 30.7358 14.7294 30.714 14.7777 30.6869C14.826 30.6603 14.8705 30.6289 14.9122 30.593C14.954 30.5567 14.9915 30.5171 15.0257 30.4737C15.0593 30.4302 15.0881 30.3836 15.1125 30.3342C15.1363 30.2848 15.1559 30.2333 15.1694 30.1801C15.1836 30.1269 15.1917 30.0726 15.195 30.0178C15.1977 29.9625 15.195 29.9082 15.1868 29.8534C15.1792 29.7992 15.1657 29.746 15.1467 29.6944C15.1277 29.6423 15.1038 29.5935 15.075 29.5463C15.0463 29.4996 15.0132 29.4557 14.9752 29.4155C14.4711 28.8381 14.0348 28.2125 13.6674 27.5396Z" fill="url(#paint5_linear_1238_1632)"/>
<path d="M22.8863 10.3585C22.418 10.3591 21.9519 10.3857 21.4868 10.4383C21.4337 10.4421 21.3821 10.4513 21.3311 10.4654C21.2801 10.4795 21.2307 10.4985 21.183 10.5219C21.1358 10.5457 21.0913 10.5739 21.0489 10.606C21.0072 10.6385 20.9686 10.6743 20.9339 10.7145C20.8992 10.7541 20.8682 10.797 20.8416 10.8426C20.8151 10.8887 20.7934 10.9364 20.776 10.9869C20.7586 11.0368 20.7461 11.0878 20.7391 11.1405C20.7315 11.1931 20.7293 11.2457 20.7326 11.2984C20.7353 11.3515 20.7434 11.4036 20.7565 11.4546C20.7695 11.5062 20.7874 11.5556 20.8102 11.6033C20.833 11.6516 20.8601 11.6967 20.8921 11.739C20.9236 11.7819 20.9589 11.8209 20.9979 11.8567C21.037 11.892 21.0793 11.924 21.1244 11.9512C21.1699 11.9788 21.2172 12.0016 21.2671 12.0195C21.317 12.038 21.368 12.051 21.4201 12.0597C21.4727 12.0678 21.5254 12.0711 21.578 12.0689H21.6724C22.0756 12.0212 22.4799 11.9962 22.8863 11.9946C23.093 11.9946 23.2998 12.0005 23.5065 12.0125C23.7133 12.0244 23.9195 12.0423 24.1251 12.0667C24.3303 12.0906 24.5354 12.121 24.7389 12.1568C24.9429 12.1932 25.1453 12.2355 25.3466 12.2838C25.5479 12.3321 25.7476 12.3858 25.9457 12.446C26.1438 12.5063 26.3402 12.5719 26.5345 12.6436C26.7282 12.7152 26.9203 12.7922 27.1102 12.8753C27.2996 12.9583 27.4868 13.0467 27.6713 13.1406C27.8558 13.2345 28.037 13.3338 28.2155 13.4385C28.3941 13.5433 28.5693 13.6534 28.7414 13.7685C28.9134 13.8835 29.0821 14.0034 29.2471 14.1282C29.4121 14.2536 29.5732 14.3833 29.7306 14.5178C29.888 14.6524 30.041 14.7913 30.1902 14.9351C30.3389 15.0784 30.4838 15.2265 30.6243 15.3785C30.7643 15.5309 30.9 15.6867 31.0313 15.8473C31.1626 16.0074 31.2885 16.1713 31.4101 16.3389C31.5316 16.5066 31.6477 16.6775 31.7595 16.8517C31.8708 17.0264 31.9766 17.2039 32.0775 17.3851C32.1784 17.5658 32.2739 17.7492 32.364 17.9359C32.4535 18.122 32.5382 18.3109 32.6169 18.5024C32.6956 18.694 32.7688 18.8872 32.8361 19.083C32.9034 19.2789 32.9653 19.4765 33.0211 19.6756C33.0765 19.8748 33.1264 20.0761 33.1704 20.2779C33.2143 20.4803 33.2518 20.6838 33.2838 20.8884C33.3158 21.093 33.3413 21.2981 33.3608 21.5043C33.3809 21.7105 33.3945 21.9167 33.4021 22.1234C33.4091 22.3302 33.4108 22.5375 33.4059 22.7442C33.4015 22.951 33.3907 23.1577 33.3733 23.3639C33.3565 23.5707 33.3337 23.7763 33.3044 23.9809C33.2756 24.186 33.2404 24.39 33.1991 24.5924C33.1579 24.7954 33.1112 24.9973 33.058 25.1969C33.0049 25.3972 32.9463 25.5958 32.8811 25.7922C32.8166 25.9887 32.746 26.1835 32.6695 26.3756C32.5935 26.5682 32.5116 26.7581 32.4242 26.9459C32.3369 27.1331 32.2435 27.3181 32.1453 27.5004C32.0471 27.6822 31.9435 27.8613 31.8344 28.0376C31.7253 28.2135 31.6114 28.386 31.492 28.5553C31.3732 28.7246 31.2489 28.8901 31.1197 29.0518C30.9911 29.2141 30.8571 29.372 30.7187 29.5261C30.5809 29.6797 30.4382 29.8294 30.2906 29.9754C30.1435 30.1208 29.9921 30.2619 29.8369 30.3987C29.6812 30.5354 29.5222 30.6673 29.3589 30.7942C29.1955 30.9218 29.0284 31.0439 28.858 31.1611C28.6876 31.2788 28.514 31.3911 28.3366 31.498C28.1597 31.6049 27.9795 31.707 27.7961 31.8036C27.6132 31.8996 27.4271 31.9908 27.2388 32.076C27.05 32.1617 26.8595 32.2415 26.6663 32.3158C26.4726 32.3896 26.2778 32.4585 26.0803 32.5209C25.8833 32.5839 25.6841 32.6403 25.4834 32.6913C25.2826 32.7423 25.0807 32.7874 24.8778 32.8259C24.6743 32.865 24.4703 32.8981 24.2646 32.9246C24.0595 32.9518 23.8538 32.9724 23.6471 32.987C23.4409 33.0022 23.2341 33.0109 23.0268 33.0131C22.8201 33.0158 22.6134 33.012 22.4066 33.0022C22.1999 32.9925 21.9931 32.9767 21.7875 32.955C21.5818 32.9333 21.3767 32.9051 21.1727 32.8709C20.9681 32.8373 20.7651 32.7971 20.5633 32.751C20.362 32.7054 20.1612 32.6533 19.9626 32.5953C19.764 32.5377 19.567 32.4737 19.3722 32.4043C19.1774 32.3348 18.9842 32.2599 18.7937 32.1791C18.6033 32.0982 18.4155 32.0119 18.2299 31.9197C18.0443 31.828 17.862 31.7303 17.6819 31.6277C17.5023 31.5252 17.3259 31.4172 17.1528 31.3038C16.9792 31.1904 16.8093 31.0726 16.6433 30.9494C16.5 30.842 16.3394 30.7888 16.1603 30.7894C16.074 30.7888 15.9888 30.8013 15.9064 30.8279C15.8239 30.8539 15.7474 30.8925 15.6768 30.9429C15.6063 30.9934 15.5455 31.0542 15.494 31.1236C15.4424 31.1936 15.4033 31.2701 15.3762 31.3526C15.3491 31.4346 15.3355 31.5192 15.335 31.606C15.335 31.6929 15.348 31.7775 15.3746 31.86C15.4012 31.9425 15.4397 32.019 15.4907 32.0895C15.5417 32.1595 15.6019 32.2203 15.6719 32.2713C16.0491 32.5497 16.4403 32.8053 16.8462 33.0397C17.047 33.1547 17.251 33.2638 17.4583 33.3674C17.6656 33.4705 17.8756 33.5682 18.0883 33.6594C18.301 33.7511 18.5164 33.8363 18.734 33.9155C18.9516 33.9942 19.1714 34.0669 19.3933 34.1336C19.6153 34.1998 19.8389 34.2601 20.064 34.3138C20.2898 34.3675 20.5161 34.4147 20.744 34.4554C20.9724 34.4961 21.2014 34.5303 21.431 34.558C21.661 34.5857 21.8916 34.6068 22.1228 34.6209C22.354 34.6356 22.5851 34.6432 22.8168 34.6443C23.0486 34.6459 23.2797 34.6405 23.5114 34.628C23.7426 34.616 23.9732 34.5976 24.2038 34.5721C24.4339 34.5471 24.6629 34.5151 24.8913 34.4766C25.1198 34.4386 25.3472 34.3936 25.5729 34.342C25.7986 34.291 26.0227 34.2329 26.2452 34.1689C26.4677 34.1049 26.6886 34.0343 26.9067 33.9573C27.1254 33.8808 27.3414 33.7977 27.5552 33.7082C27.769 33.6192 27.98 33.5237 28.1884 33.4228C28.3968 33.3213 28.6019 33.2144 28.8043 33.1015C29.0062 32.9881 29.2053 32.8698 29.4007 32.745C29.596 32.6208 29.7876 32.4911 29.9753 32.3554C30.1636 32.2203 30.3476 32.0798 30.5272 31.9338C30.7073 31.7878 30.8826 31.637 31.0541 31.4812C31.225 31.3255 31.3921 31.1643 31.5539 30.9994C31.7161 30.8339 31.8735 30.6635 32.0254 30.4893C32.1779 30.3151 32.3255 30.136 32.4671 29.9532C32.6093 29.7703 32.746 29.5836 32.8779 29.3932C33.0092 29.2022 33.1351 29.0079 33.2556 28.8098C33.3755 28.6123 33.49 28.411 33.5991 28.2064C33.7081 28.0018 33.8107 27.7945 33.9078 27.5845C34.0044 27.374 34.0956 27.1613 34.1802 26.9453C34.2649 26.7299 34.3436 26.5123 34.4157 26.292C34.4879 26.0722 34.5541 25.8503 34.6138 25.6262C34.6735 25.4026 34.7267 25.1774 34.7733 24.9506C34.82 24.7238 34.8601 24.4953 34.8938 24.2663C34.9274 24.0373 34.9546 23.8072 34.9752 23.5766C34.9953 23.346 35.0094 23.1148 35.0164 22.8831C35.024 22.652 35.0246 22.4203 35.0186 22.1886C35.0126 21.9574 35.0001 21.7262 34.9812 21.4951C34.9616 21.2644 34.9361 21.0344 34.9036 20.8048C34.871 20.5758 34.8325 20.3474 34.7869 20.1206C34.7413 19.8932 34.6898 19.6675 34.6311 19.4434C34.5731 19.2192 34.5085 18.9973 34.4374 18.7765C34.3663 18.5561 34.2887 18.338 34.2052 18.122C34.1216 17.9061 34.0321 17.6923 33.9366 17.4817C33.8405 17.2706 33.7391 17.0628 33.6316 16.8577C33.5236 16.6526 33.4102 16.4507 33.2914 16.2521C33.172 16.0535 33.0472 15.8587 32.917 15.6671C32.7867 15.4756 32.6505 15.2884 32.5094 15.1044C32.3684 14.921 32.2224 14.7414 32.071 14.5661C31.9196 14.3909 31.7633 14.2199 31.6021 14.0533C31.441 13.8873 31.2755 13.7256 31.1051 13.5688C30.9347 13.4119 30.76 13.26 30.5809 13.1129C30.4018 12.9659 30.2184 12.8243 30.0312 12.6881C29.8445 12.5513 29.6535 12.4205 29.4587 12.2952C29.2639 12.1698 29.0659 12.0499 28.8645 11.9354C28.6627 11.8215 28.4581 11.7135 28.2508 11.6109C28.043 11.5084 27.8324 11.4118 27.6192 11.3217C27.4059 11.2311 27.1905 11.147 26.9724 11.0688C26.7542 10.9907 26.5339 10.9191 26.312 10.8534C26.0895 10.7883 25.8659 10.7291 25.6402 10.6765C25.415 10.6239 25.1876 10.5777 24.9597 10.5381C24.7313 10.498 24.5023 10.4649 24.2722 10.4383C24.0421 10.4117 23.8115 10.3922 23.5803 10.3786C23.3492 10.365 23.1175 10.3585 22.8863 10.3585Z" fill="url(#paint6_linear_1238_1632)"/>
<path d="M12.7967 25.4375C12.5857 24.7044 12.4554 23.9572 12.4055 23.1958C12.4017 23.1448 12.3941 23.0944 12.3811 23.045C12.3681 22.9956 12.3512 22.9473 12.3295 22.9012C12.3073 22.8551 12.2818 22.8111 12.2519 22.7699C12.2216 22.7281 12.1885 22.6901 12.151 22.6548C12.1141 22.6196 12.074 22.5881 12.0311 22.5604C11.9877 22.5327 11.9426 22.5094 11.8954 22.4904C11.8477 22.4709 11.7994 22.4562 11.7489 22.4465C11.699 22.4361 11.648 22.4307 11.597 22.4302H11.5487C11.4955 22.434 11.4434 22.4421 11.3919 22.4557C11.3409 22.4698 11.2909 22.4882 11.2432 22.5116C11.1954 22.5349 11.1504 22.5626 11.1081 22.5946C11.0657 22.6266 11.0272 22.6624 10.9914 22.702C10.9561 22.7422 10.9252 22.7845 10.8981 22.8306C10.8709 22.8762 10.8487 22.9245 10.8313 22.9744C10.8134 23.0244 10.8009 23.0759 10.7933 23.1286C10.7857 23.1812 10.7836 23.2338 10.7863 23.287C10.8438 24.1666 10.9952 25.0305 11.2399 25.8776C11.2649 25.9622 11.3023 26.0414 11.3528 26.1141C11.4033 26.1874 11.4635 26.2503 11.5346 26.3035C11.6051 26.3572 11.6827 26.3979 11.7668 26.4262C11.8504 26.4538 11.9367 26.4685 12.0257 26.4685C12.1033 26.4685 12.1798 26.4571 12.2541 26.4343C12.304 26.4186 12.3523 26.3979 12.3979 26.373C12.444 26.348 12.4874 26.3193 12.5281 26.2856C12.5688 26.2525 12.6057 26.2156 12.6388 26.1749C12.6725 26.1348 12.7018 26.0914 12.7267 26.0452C12.7517 25.9996 12.7723 25.9514 12.7881 25.9014C12.8038 25.8515 12.8147 25.8005 12.8206 25.7484C12.8266 25.6963 12.8277 25.6442 12.8239 25.5916C12.8195 25.5395 12.8103 25.4879 12.7967 25.4375Z" fill="url(#paint7_linear_1238_1632)"/>
<path d="M12.9934 16.9239C13.1296 17.0162 13.2799 17.0618 13.4443 17.0612C13.5805 17.0601 13.7081 17.027 13.8269 16.9625C13.9463 16.8979 14.0434 16.8089 14.1183 16.6955C14.541 16.0601 15.0261 15.4778 15.5753 14.9477C15.6339 14.8912 15.6833 14.8272 15.7229 14.7556C15.7625 14.6845 15.7907 14.6091 15.8075 14.5287C15.8243 14.449 15.8292 14.3687 15.8222 14.2873C15.8146 14.2059 15.7956 14.1277 15.7652 14.0518C15.7343 13.9763 15.693 13.9069 15.6415 13.8434C15.5899 13.7804 15.5302 13.7262 15.4624 13.6806C15.3946 13.635 15.3219 13.6008 15.2437 13.5775C15.1656 13.5536 15.0853 13.5422 15.0039 13.5428C14.8975 13.5417 14.7944 13.5607 14.6957 13.6003C14.5969 13.6399 14.509 13.6969 14.4325 13.7712C13.797 14.3833 13.2354 15.0573 12.7476 15.7931C12.7183 15.8381 12.6939 15.8859 12.6743 15.9358C12.6548 15.9857 12.6396 16.0373 12.6304 16.0905C12.6206 16.1431 12.6163 16.1963 12.6174 16.25C12.6179 16.3037 12.6244 16.3569 12.6358 16.4095C12.6472 16.4622 12.6635 16.5132 12.6852 16.5625C12.7063 16.6114 12.7324 16.6586 12.7633 16.7025C12.7937 16.7465 12.8284 16.7872 12.8675 16.8246C12.906 16.8621 12.9478 16.8952 12.9934 16.9239Z" fill="url(#paint8_linear_1238_1632)"/>
<defs>
<linearGradient id="paint0_linear_1238_1632" x1="22.9084" y1="6.90845" x2="22.9084" y2="38.0944" gradientUnits="userSpaceOnUse">
<stop stop-color="#81B4C0"/>
<stop offset="1" stop-color="#CCF5FF"/>
</linearGradient>
<linearGradient id="paint1_linear_1238_1632" x1="22.9017" y1="0" x2="22.9017" y2="45" gradientUnits="userSpaceOnUse">
<stop stop-color="#81B4C0"/>
<stop offset="1" stop-color="#CCF5FF"/>
</linearGradient>
<linearGradient id="paint2_linear_1238_1632" x1="22.6541" y1="17.5354" x2="22.6541" y2="28.2838" gradientUnits="userSpaceOnUse">
<stop stop-color="#81B4C0"/>
<stop offset="1" stop-color="#CCF5FF"/>
</linearGradient>
<linearGradient id="paint3_linear_1238_1632" x1="18.0641" y1="10.975" x2="18.0641" y2="13.6768" gradientUnits="userSpaceOnUse">
<stop stop-color="#81B4C0"/>
<stop offset="1" stop-color="#CCF5FF"/>
</linearGradient>
<linearGradient id="paint4_linear_1238_1632" x1="11.9949" y1="17.5953" x2="11.9949" y2="21.6069" gradientUnits="userSpaceOnUse">
<stop stop-color="#81B4C0"/>
<stop offset="1" stop-color="#CCF5FF"/>
</linearGradient>
<linearGradient id="paint5_linear_1238_1632" x1="13.6634" y1="27.1136" x2="13.6634" y2="30.7908" gradientUnits="userSpaceOnUse">
<stop stop-color="#81B4C0"/>
<stop offset="1" stop-color="#CCF5FF"/>
</linearGradient>
<linearGradient id="paint6_linear_1238_1632" x1="25.1788" y1="10.3585" x2="25.1788" y2="34.6445" gradientUnits="userSpaceOnUse">
<stop stop-color="#81B4C0"/>
<stop offset="1" stop-color="#CCF5FF"/>
</linearGradient>
<linearGradient id="paint7_linear_1238_1632" x1="11.8056" y1="22.4302" x2="11.8056" y2="26.4685" gradientUnits="userSpaceOnUse">
<stop stop-color="#81B4C0"/>
<stop offset="1" stop-color="#CCF5FF"/>
</linearGradient>
<linearGradient id="paint8_linear_1238_1632" x1="14.2212" y1="13.5427" x2="14.2212" y2="17.0612" gradientUnits="userSpaceOnUse">
<stop stop-color="#81B4C0"/>
<stop offset="1" stop-color="#CCF5FF"/>
</linearGradient>
</defs>
</svg>
