<svg width="60" height="40" viewBox="0 0 60 40" fill="none" xmlns="http://www.w3.org/2000/svg">
<path d="M34.5243 5.60852H17.729C17.2156 5.60852 16.7959 6.02898 16.7959 6.54303C16.7959 7.05709 17.2156 7.47755 17.729 7.47755H34.5243C35.0369 7.47755 35.4574 7.05709 35.4574 6.54303C35.4574 6.02898 35.0369 5.60852 34.5243 5.60852Z" fill="url(#paint0_linear_1238_1610)"/>
<path d="M34.5243 9.34729H17.729C17.2156 9.34729 16.7959 9.76775 16.7959 10.2818C16.7959 10.7959 17.2156 11.2163 17.729 11.2163H34.5243C35.0369 11.2163 35.4574 10.7959 35.4574 10.2818C35.4574 9.76775 35.0369 9.34729 34.5243 9.34729Z" fill="url(#paint1_linear_1238_1610)"/>
<path d="M14.9295 6.54303C14.9295 6.02898 14.509 5.60852 13.9964 5.60852H10.2641C9.75079 5.60852 9.33105 6.02898 9.33105 6.54303V10.2818C9.33105 10.7959 9.75079 11.2163 10.2641 11.2163H13.9964C14.509 11.2163 14.9295 10.7959 14.9295 10.2818V6.54303ZM13.0633 9.34729H11.1972V7.47755H13.0633V9.34729Z" fill="url(#paint2_linear_1238_1610)"/>
<path d="M34.5243 13.0859H17.729C17.2156 13.0859 16.7959 13.5064 16.7959 14.0205C16.7959 14.5345 17.2156 14.9557 17.729 14.9557H34.5243C35.0369 14.9557 35.4574 14.5345 35.4574 14.0205C35.4574 13.5064 35.0369 13.0859 34.5243 13.0859Z" fill="url(#paint3_linear_1238_1610)"/>
<path d="M34.5243 16.8247H17.729C17.2156 16.8247 16.7959 17.2452 16.7959 17.7592C16.7959 18.2733 17.2156 18.6945 17.729 18.6945H34.5243C35.0369 18.6945 35.4574 18.2733 35.4574 17.7592C35.4574 17.2452 35.0369 16.8247 34.5243 16.8247Z" fill="url(#paint4_linear_1238_1610)"/>
<path d="M14.9295 14.0205C14.9295 13.5064 14.509 13.0859 13.9964 13.0859H10.2641C9.75079 13.0859 9.33105 13.5064 9.33105 14.0205V17.7592C9.33105 18.2733 9.75079 18.6945 10.2641 18.6945H13.9964C14.509 18.6945 14.9295 18.2733 14.9295 17.7592V14.0205ZM13.0633 16.8247H11.1972V14.9557H13.0633V16.8247Z" fill="url(#paint5_linear_1238_1610)"/>
<path d="M34.5243 20.5635H17.729C17.2156 20.5635 16.7959 20.9847 16.7959 21.4987C16.7959 22.0128 17.2156 22.4332 17.729 22.4332H34.5243C35.0369 22.4332 35.4574 22.0128 35.4574 21.4987C35.4574 20.9847 35.0369 20.5635 34.5243 20.5635Z" fill="url(#paint6_linear_1238_1610)"/>
<path d="M34.5243 24.3022H17.729C17.2156 24.3022 16.7959 24.7234 16.7959 25.2375C16.7959 25.7515 17.2156 26.172 17.729 26.172H34.5243C35.0369 26.172 35.4574 25.7515 35.4574 25.2375C35.4574 24.7234 35.0369 24.3022 34.5243 24.3022Z" fill="url(#paint7_linear_1238_1610)"/>
<path d="M13.9964 20.5635H10.2641C9.75079 20.5635 9.33105 20.9847 9.33105 21.4987V25.2375C9.33105 25.7515 9.75079 26.172 10.2641 26.172H13.9964C14.509 26.172 14.9295 25.7515 14.9295 25.2375V21.4987C14.9295 20.9847 14.509 20.5635 13.9964 20.5635ZM13.0633 24.3023H11.1972V22.4332H13.0633V24.3023Z" fill="url(#paint8_linear_1238_1610)"/>
<mask id="mask0_1238_1610" style="mask-type:luminance" maskUnits="userSpaceOnUse" x="0" y="0" width="57" height="40">
<path d="M0 0H56.1169V39.2582H0V0Z" fill="white"/>
</mask>
<g mask="url(#mask0_1238_1610)">
<path d="M41.8479 33.6497H2.79922C2.28589 33.6497 1.86615 33.2292 1.86615 32.7152V31.7807H40.2618C39.8421 31.173 39.5152 30.5654 39.2352 29.9109H1.86615V2.80426C1.86615 2.29021 2.28589 1.86975 2.79922 1.86975H53.1852C53.6978 1.86975 54.1183 2.29021 54.1183 2.80426V14.3482C54.7713 14.5814 55.3775 14.909 55.9844 15.2827V2.80426C55.9844 1.2621 54.7245 0 53.1852 0H2.79922C1.25922 0 0 1.2621 0 2.80426V32.7152C0 34.2573 1.25922 35.5194 2.79922 35.5194H23.28C22.7199 36.0335 22.2534 36.6411 21.8336 37.3424V37.3885H16.7953C16.282 37.3885 15.8622 37.8096 15.8622 38.3237C15.8622 38.8377 16.282 39.2582 16.7953 39.2582H39.1891C39.7017 39.2582 40.1222 38.8377 40.1222 38.3237C40.1222 37.8096 39.7017 37.3885 39.1891 37.3885H34.1501V37.3424C33.7771 36.6411 33.2638 36.0335 32.7036 35.5194H44.3671C43.434 35.0054 42.5945 34.3977 41.8479 33.6497ZM31.8642 37.3885H24.1195C25.0994 36.2207 26.499 35.5194 27.9922 35.5194C29.5315 35.5194 30.9311 36.2207 31.8642 37.3885Z" fill="url(#paint9_linear_1238_1610)"/>
</g>
<mask id="mask1_1238_1610" style="mask-type:luminance" maskUnits="userSpaceOnUse" x="40" y="15" width="20" height="21">
<path d="M40.082 15.2976H59.7169V35.2032H40.082V15.2976Z" fill="white"/>
</mask>
<g mask="url(#mask1_1238_1610)">
<path d="M49.9193 15.4233C44.5074 15.4233 40.1221 19.8166 40.1221 25.2379C40.1221 30.6592 44.5074 35.0524 49.9193 35.0524C55.3306 35.0524 59.7166 30.6592 59.7166 25.2379C59.7166 19.8166 55.3306 15.4233 49.9193 15.4233ZM49.9193 33.1827C45.5333 33.1827 41.9882 29.6311 41.9882 25.2379C41.9882 20.8447 45.5333 17.2924 49.9193 17.2924C54.3046 17.2924 57.8505 20.8447 57.8505 25.2379C57.8505 29.6311 54.3046 33.1827 49.9193 33.1827Z" fill="url(#paint10_linear_1238_1610)"/>
</g>
<path d="M49.9192 19.1616C48.2395 19.1616 46.8867 20.4237 46.8867 22.0127C46.8867 22.5267 47.3065 22.9472 47.8198 22.9472C48.3324 22.9472 48.7529 22.5267 48.7529 22.0127C48.7529 21.4518 49.2655 21.0306 49.9192 21.0306C50.5722 21.0306 51.0855 21.4518 51.0855 22.0127C51.0855 22.2927 50.9452 22.5735 50.6651 22.76C49.5455 23.6016 48.9861 24.5362 48.9861 25.7515V26.6392C48.9861 27.1532 49.4059 27.5737 49.9192 27.5737C50.4318 27.5737 50.8523 27.1532 50.8523 26.6392V25.7515C50.8523 25.331 50.9452 24.863 51.7854 24.2561C52.5312 23.6952 52.9517 22.9004 52.9517 22.0127C52.9517 20.4237 51.5982 19.1616 49.9192 19.1616Z" fill="url(#paint11_linear_1238_1610)"/>
<path d="M50.8525 30.3781C50.8525 30.44 50.846 30.5005 50.8345 30.561C50.8222 30.6207 50.8042 30.6791 50.7812 30.7359C50.7574 30.7928 50.7286 30.8468 50.6948 30.8979C50.661 30.9483 50.6221 30.9958 50.5789 31.039C50.5357 31.083 50.4882 31.1211 50.4378 31.1557C50.3867 31.1895 50.3327 31.2183 50.2758 31.2421C50.2196 31.2651 50.1613 31.2831 50.1008 31.2954C50.0411 31.3069 49.9806 31.3134 49.9194 31.3134C49.8575 31.3134 49.797 31.3069 49.7373 31.2954C49.6768 31.2831 49.6185 31.2651 49.5623 31.2421C49.5054 31.2183 49.4514 31.1895 49.401 31.1557C49.3499 31.1211 49.3024 31.083 49.2592 31.039C49.216 30.9958 49.1771 30.9483 49.1433 30.8979C49.1094 30.8468 49.0806 30.7928 49.0569 30.7359C49.0338 30.6791 49.0158 30.6207 49.0036 30.561C48.9921 30.5005 48.9863 30.44 48.9863 30.3781C48.9863 30.3169 48.9921 30.2564 49.0036 30.196C49.0158 30.1355 49.0338 30.0772 49.0569 30.0203C49.0806 29.9641 49.1094 29.9101 49.1433 29.859C49.1771 29.8079 49.216 29.7611 49.2592 29.7172C49.3024 29.674 49.3499 29.6351 49.401 29.6013C49.4514 29.5667 49.5054 29.5379 49.5623 29.5149C49.6185 29.4911 49.6768 29.4738 49.7373 29.4616C49.797 29.4494 49.8575 29.4436 49.9194 29.4436C49.9806 29.4436 50.0411 29.4494 50.1008 29.4616C50.1613 29.4738 50.2196 29.4911 50.2758 29.5149C50.3327 29.5379 50.3867 29.5667 50.4378 29.6013C50.4882 29.6351 50.5357 29.674 50.5789 29.7172C50.6221 29.7611 50.661 29.8079 50.6948 29.859C50.7286 29.9101 50.7574 29.9641 50.7812 30.0203C50.8042 30.0772 50.8222 30.1355 50.8345 30.196C50.846 30.2564 50.8525 30.3169 50.8525 30.3781Z" fill="url(#paint12_linear_1238_1610)"/>
<defs>
<linearGradient id="paint0_linear_1238_1610" x1="26.1266" y1="5.60852" x2="26.1266" y2="7.47755" gradientUnits="userSpaceOnUse">
<stop stop-color="#81B4C0"/>
<stop offset="1" stop-color="#CCF5FF"/>
</linearGradient>
<linearGradient id="paint1_linear_1238_1610" x1="26.1266" y1="9.34729" x2="26.1266" y2="11.2163" gradientUnits="userSpaceOnUse">
<stop stop-color="#81B4C0"/>
<stop offset="1" stop-color="#CCF5FF"/>
</linearGradient>
<linearGradient id="paint2_linear_1238_1610" x1="12.1303" y1="5.60852" x2="12.1303" y2="11.2163" gradientUnits="userSpaceOnUse">
<stop stop-color="#81B4C0"/>
<stop offset="1" stop-color="#CCF5FF"/>
</linearGradient>
<linearGradient id="paint3_linear_1238_1610" x1="26.1266" y1="13.0859" x2="26.1266" y2="14.9557" gradientUnits="userSpaceOnUse">
<stop stop-color="#81B4C0"/>
<stop offset="1" stop-color="#CCF5FF"/>
</linearGradient>
<linearGradient id="paint4_linear_1238_1610" x1="26.1266" y1="16.8247" x2="26.1266" y2="18.6945" gradientUnits="userSpaceOnUse">
<stop stop-color="#81B4C0"/>
<stop offset="1" stop-color="#CCF5FF"/>
</linearGradient>
<linearGradient id="paint5_linear_1238_1610" x1="12.1303" y1="13.0859" x2="12.1303" y2="18.6945" gradientUnits="userSpaceOnUse">
<stop stop-color="#81B4C0"/>
<stop offset="1" stop-color="#CCF5FF"/>
</linearGradient>
<linearGradient id="paint6_linear_1238_1610" x1="26.1266" y1="20.5635" x2="26.1266" y2="22.4332" gradientUnits="userSpaceOnUse">
<stop stop-color="#81B4C0"/>
<stop offset="1" stop-color="#CCF5FF"/>
</linearGradient>
<linearGradient id="paint7_linear_1238_1610" x1="26.1266" y1="24.3022" x2="26.1266" y2="26.172" gradientUnits="userSpaceOnUse">
<stop stop-color="#81B4C0"/>
<stop offset="1" stop-color="#CCF5FF"/>
</linearGradient>
<linearGradient id="paint8_linear_1238_1610" x1="12.1303" y1="20.5635" x2="12.1303" y2="26.172" gradientUnits="userSpaceOnUse">
<stop stop-color="#81B4C0"/>
<stop offset="1" stop-color="#CCF5FF"/>
</linearGradient>
<linearGradient id="paint9_linear_1238_1610" x1="27.9922" y1="0" x2="27.9922" y2="39.2582" gradientUnits="userSpaceOnUse">
<stop stop-color="#81B4C0"/>
<stop offset="1" stop-color="#CCF5FF"/>
</linearGradient>
<linearGradient id="paint10_linear_1238_1610" x1="49.9193" y1="15.4233" x2="49.9193" y2="35.0524" gradientUnits="userSpaceOnUse">
<stop stop-color="#81B4C0"/>
<stop offset="1" stop-color="#CCF5FF"/>
</linearGradient>
<linearGradient id="paint11_linear_1238_1610" x1="49.9192" y1="19.1616" x2="49.9192" y2="27.5737" gradientUnits="userSpaceOnUse">
<stop stop-color="#81B4C0"/>
<stop offset="1" stop-color="#CCF5FF"/>
</linearGradient>
<linearGradient id="paint12_linear_1238_1610" x1="49.9194" y1="29.4436" x2="49.9194" y2="31.3134" gradientUnits="userSpaceOnUse">
<stop stop-color="#81B4C0"/>
<stop offset="1" stop-color="#CCF5FF"/>
</linearGradient>
</defs>
</svg>
