<svg width="157" height="129" viewBox="0 0 157 129" fill="none" xmlns="http://www.w3.org/2000/svg">
<g id="Group 218">
<g id="Clip path group">
<mask id="mask0_1238_1867" style="mask-type:luminance" maskUnits="userSpaceOnUse" x="0" y="0" width="157" height="100">
<g id="c9ea397be7">
<path id="Vector" d="M0.936523 0H156.063V99.7437H0.936523V0Z" fill="white"/>
</g>
</mask>
<g mask="url(#mask0_1238_1867)">
<g id="Group">
<path id="Vector_2" d="M139.228 31.1981C140.395 28.5999 141.028 25.7026 141.028 22.6721C141.028 11.0163 131.525 1.52503 119.857 1.52503C113.889 1.52503 108.489 4.02259 104.621 8.01982C95.9204 2.82483 86.018 0.060791 75.7825 0.060791C50.6454 0.060791 28.6748 16.7117 21.8072 40.6894C9.43844 44.7178 0.936523 56.341 0.936523 69.4283C0.936523 84.8815 12.4392 97.6358 27.5408 99.4345V99.667H63.9808V94.8051H30.7414L30.0752 94.7725C16.4733 94.2055 5.80407 83.0827 5.80407 69.4624C5.80407 58.0731 13.4725 48.0488 24.4408 45.0183L25.8072 44.6512L26.1744 43.2862C32.0086 20.6749 52.4129 4.92267 75.7825 4.92267C84.9507 4.92267 93.8197 7.35361 101.654 11.949C99.7872 15.1128 98.6872 18.7755 98.6872 22.6721C98.6872 34.3278 108.188 43.8191 119.857 43.8191C126.759 43.8191 132.859 40.4895 136.726 35.3938C145.694 41.3882 151.196 51.5117 151.196 62.368C151.196 80.2521 136.627 94.7725 118.757 94.7725H93.0188V99.6344H118.757C139.327 99.6344 156.063 82.9169 156.063 62.368C156.063 49.781 149.662 38.0586 139.228 31.1981ZM119.857 38.9573C110.889 38.9573 103.555 31.6644 103.555 22.6721C103.555 13.6811 110.856 6.38691 119.857 6.38691C128.825 6.38691 136.161 13.6811 136.161 22.6721C136.161 31.6644 128.859 38.9573 119.857 38.9573Z" fill="url(#paint0_linear_1238_1867)"/>
</g>
</g>
</g>
<g id="Clip path group_2">
<mask id="mask1_1238_1867" style="mask-type:luminance" maskUnits="userSpaceOnUse" x="58" y="69" width="41" height="60">
<g id="485dc6a8b1">
<path id="Vector_3" d="M58.5107 69.2627H98.7892V129H58.5107V69.2627Z" fill="white"/>
</g>
</mask>
<g mask="url(#mask1_1238_1867)">
<g id="Group_2">
<path id="Vector_4" d="M80.9512 115.054V69.5957H76.0837V115.054C71.983 109.891 65.6483 106.562 58.5469 106.562V111.423C68.2154 111.423 76.0837 119.282 76.0837 128.94H80.9512C80.9512 119.282 88.8195 111.423 98.488 111.423V106.562C91.3525 106.562 85.0519 109.891 80.9512 115.054Z" fill="url(#paint1_linear_1238_1867)"/>
</g>
</g>
</g>
<path id="Vector_5" d="M125.858 12.2476L119.856 18.242L113.889 12.2476L110.422 15.7118L116.423 21.6722L110.422 27.6667L113.889 31.0969L119.856 25.1365L125.858 31.0969L129.291 27.6667L123.324 21.6722L129.291 15.7118L125.858 12.2476Z" fill="url(#paint2_linear_1238_1867)"/>
</g>
<defs>
<linearGradient id="paint0_linear_1238_1867" x1="78.4998" y1="0.060791" x2="78.4998" y2="99.667" gradientUnits="userSpaceOnUse">
<stop stop-color="#81B4C0"/>
<stop offset="1" stop-color="#CCF5FF"/>
</linearGradient>
<linearGradient id="paint1_linear_1238_1867" x1="78.5174" y1="69.5957" x2="78.5174" y2="128.94" gradientUnits="userSpaceOnUse">
<stop stop-color="#81B4C0"/>
<stop offset="1" stop-color="#CCF5FF"/>
</linearGradient>
<linearGradient id="paint2_linear_1238_1867" x1="119.856" y1="12.2476" x2="119.856" y2="31.0969" gradientUnits="userSpaceOnUse">
<stop stop-color="#81B4C0"/>
<stop offset="1" stop-color="#CCF5FF"/>
</linearGradient>
</defs>
</svg>
