<svg width="44" height="44" viewBox="0 0 44 44" fill="none" xmlns="http://www.w3.org/2000/svg">
<circle cx="21.8119" cy="21.914" r="21.8119" fill="#D9D9D9"/>
<path d="M33.9998 16.0649C33.8007 17.0712 33.5979 18.0763 33.4033 19.084C32.6785 22.8362 31.9574 26.5898 31.2319 30.342C31.1299 30.8711 30.8658 31.1153 30.4414 31.0984C30.2511 31.0912 30.0952 31.0081 29.9619 30.8744C29.1783 30.092 28.2325 29.7057 27.1565 29.6459C26.5938 29.6148 26.0555 29.7505 25.5272 29.9316C24.4825 30.2894 23.4372 30.6478 22.3957 31.0153C22.1315 31.1081 21.8849 31.1094 21.6195 31.0179C20.4572 30.6166 19.308 30.1699 18.1275 29.8277C16.6177 29.3901 15.272 29.7453 14.1053 30.8231C13.8712 31.0393 13.6258 31.1627 13.3191 31.0698C12.9992 30.9737 12.8515 30.7224 12.7883 30.3946C12.2813 27.752 11.7699 25.1107 11.2604 22.4687C10.8504 20.3359 10.4398 18.2017 10.0292 16.0675C9.90152 15.4058 10.1963 15.0306 10.8379 15.0267C11.4 15.0228 11.9621 15.0318 12.5223 15.0857C12.757 15.1085 12.8158 15.0169 12.8108 14.7871C12.7983 14.1638 12.8046 13.5398 12.8071 12.9158C12.809 12.41 13.0913 12.1101 13.5757 12.1127C14.581 12.1185 15.5887 12.0555 16.5821 12.3023C18.8811 12.873 20.6368 14.2047 21.8524 16.3057C21.8993 16.3863 21.9256 16.4843 22.0114 16.5382C22.094 16.4986 22.1078 16.4116 22.1472 16.3454C23.5681 13.9177 25.6393 12.525 28.3527 12.1594C29.0756 12.062 29.8029 12.1198 30.5284 12.1172C30.9096 12.1159 31.1981 12.438 31.2025 12.8425C31.2094 13.482 31.2044 14.1222 31.205 14.7624C31.205 15.0903 31.2063 15.1 31.5111 15.0799C32.0569 15.0435 32.6027 15.039 33.1485 15.0228C33.5472 15.0111 33.827 15.1617 33.9992 15.5311V16.0655L33.9998 16.0649ZM22.7249 24.2303C22.7249 25.834 22.7281 27.4377 22.7212 29.0415C22.7199 29.2603 22.7644 29.3031 22.9697 29.2284C23.7139 28.9596 24.4625 28.7032 25.2124 28.4519C26.8029 27.9175 28.337 28.0636 29.8061 28.8915C30.0032 29.0025 30.0233 28.9051 30.0539 28.7447C30.2448 27.7364 30.4408 26.7294 30.6348 25.7217C31.2063 22.7544 31.7759 19.7872 32.3549 16.8213C32.3974 16.6025 32.3448 16.5505 32.1439 16.5603C31.2157 16.6044 30.2937 16.7096 29.3786 16.8745C27.1421 17.2771 25.0071 18.0069 22.9672 19.0405C22.7875 19.1314 22.7193 19.234 22.7205 19.4437C22.7293 21.039 22.7249 22.635 22.7249 24.2303ZM21.2865 24.2329C21.2865 22.6291 21.2834 21.0254 21.2909 19.4217C21.2916 19.2314 21.234 19.134 21.0687 19.0509C19.9502 18.4867 18.801 18.0069 17.6142 17.6212C15.7734 17.0239 13.8899 16.6739 11.9646 16.5661C11.6072 16.546 11.6066 16.5577 11.6754 16.9128C12.4353 20.8475 13.1958 24.7821 13.9557 28.7175C14.0101 28.9992 14.0076 28.9947 14.2624 28.8538C15.4485 28.1993 16.7079 27.9799 18.0255 28.2474C19.062 28.4577 20.0416 28.8759 21.0393 29.2245C21.2346 29.2927 21.2922 29.2719 21.2909 29.0427C21.2828 27.439 21.2865 25.8353 21.2865 24.2316V24.2329ZM20.6062 17.1583C20.5861 17.0115 20.5135 16.9245 20.4547 16.833C19.0232 14.6072 16.9945 13.5781 14.4389 13.6015C14.2786 13.6028 14.2405 13.6748 14.2423 13.8229C14.248 14.2196 14.2542 14.617 14.2398 15.013C14.2323 15.2221 14.3124 15.2935 14.5008 15.3234C16.2979 15.6052 18.0399 16.0986 19.7292 16.7921C20.0159 16.9096 20.3013 17.031 20.6055 17.1583H20.6062ZM23.3746 17.1797C24.3236 16.7563 25.2199 16.4051 26.1381 16.1175C27.251 15.7688 28.3796 15.4909 29.5313 15.3195C29.6972 15.2948 29.776 15.2292 29.7704 15.0396C29.7585 14.6273 29.7629 14.2144 29.7685 13.8021C29.7704 13.6567 29.7172 13.5995 29.5764 13.6015C29.3191 13.606 29.0631 13.6158 28.8058 13.6352C26.7972 13.7891 25.1692 14.6884 23.9117 16.3142C23.7183 16.5648 23.538 16.8258 23.3753 17.179L23.3746 17.1797Z" fill="#316F7D"/>
</svg>
