<svg width="24" height="24" viewBox="0 0 24 24" fill="none" xmlns="http://www.w3.org/2000/svg">
<g id="Layer_1" clip-path="url(#clip0_386_183)">
<path id="Vector" d="M23.9974 4.4522C23.9955 3.36397 23.5739 2.33915 22.88 1.54748C22.1854 0.755805 21.2211 0.202402 20.1401 0.051241C19.9056 0.0185749 19.6653 0.0102482 19.4161 0.0102482H19.3001C16.4782 0.0102482 13.6551 0.0172938 10.8319 0.0172938C8.74626 0.0172938 6.66061 0.0134508 4.57497 0H4.54613C3.51196 0 2.48484 0.367014 1.66852 1.02034C0.851559 1.6743 0.245408 2.60881 0.0378044 3.75212C0.0256301 3.81874 0.0121743 3.88086 0 3.93979V12.8038C0.072405 13.2304 0.184537 13.6352 0.347928 14.0138C0.513242 14.3987 0.730457 14.7574 1.01175 15.0866C1.47053 15.6227 1.98249 16.0301 2.55211 16.3062C3.12238 16.5816 3.75224 16.727 4.45771 16.7283C6.95088 16.7315 9.44404 16.7327 11.9372 16.7327C14.4304 16.7327 17.003 16.7315 19.5359 16.7295C20.6361 16.7283 21.6651 16.31 22.4584 15.6163C23.2516 14.9227 23.8052 13.9574 23.9571 12.8685C23.9846 12.6738 23.9987 12.4823 23.9987 12.2882V12.0801C23.9987 10.5653 24 9.05108 24 7.53691C24 6.50825 23.9994 5.48022 23.9974 4.4522ZM22.616 12.1544C22.6121 13.0613 22.2629 13.8658 21.6805 14.4378C21.0987 15.0104 20.2856 15.3492 19.3731 15.3505C18.3819 15.3531 17.3913 15.3537 16.4007 15.3537C14.9295 15.3537 13.459 15.3524 11.9885 15.3524H7.90303C6.81952 15.3524 5.73601 15.3524 4.65186 15.3524C4.28727 15.3518 3.93037 15.3063 3.58757 15.2013C3.24541 15.0969 2.91798 14.9329 2.61619 14.701C2.20675 14.3878 1.89214 14.0112 1.68261 13.584C1.47245 13.1568 1.36865 12.6809 1.36608 12.1749C1.35839 10.8624 1.35455 9.55004 1.35455 8.23763C1.35455 7.01681 1.35775 5.79536 1.3648 4.57454C1.36929 3.68231 1.71337 2.88359 2.28492 2.31225C2.85583 1.74027 3.65421 1.39504 4.54806 1.39375C7.0393 1.38799 9.53054 1.38479 12.0218 1.38479C14.513 1.38479 16.9652 1.38799 19.4372 1.3944C20.3311 1.39568 21.1281 1.74091 21.6978 2.31417C22.2687 2.88615 22.6115 3.68551 22.616 4.57902C22.6224 5.8293 22.6262 7.08022 22.6262 8.3305C22.6262 9.58078 22.6224 10.8804 22.616 12.155V12.1544Z" fill="#CCF5FF"/>
<path id="Vector_2" d="M16.3148 21.0761C16.2373 20.4958 15.9791 19.9847 15.5927 19.5908C15.2057 19.1975 14.6899 18.9221 14.0933 18.8209C13.9639 18.7985 13.8325 18.7882 13.7018 18.7882C13.227 18.7876 12.7529 18.9298 12.3434 19.1866C11.9346 19.4428 11.5918 19.8124 11.3759 20.264C11.3362 20.3472 11.29 20.4234 11.2298 20.4913C11.1702 20.5592 11.0946 20.6162 11.0126 20.654C10.9581 20.6796 10.9024 20.6969 10.8466 20.7078C10.773 20.7226 10.7006 20.727 10.6269 20.727H10.6237C7.36544 20.72 4.10658 20.729 0.846433 20.7162H0.838744C0.661897 20.7162 0.519009 20.7405 0.405596 20.7853C0.292183 20.8308 0.2044 20.8929 0.123665 20.989C0.0794532 21.0428 0.0378044 21.1075 0 21.1869V21.6366C0.0615122 21.7634 0.130713 21.8531 0.207604 21.9197C0.295387 21.994 0.395985 22.0446 0.529902 22.076C0.618325 22.0965 0.722127 22.1073 0.840025 22.1073H0.847714C4.11555 22.0945 7.38146 22.1029 10.6474 22.0958H10.6551C10.7364 22.0958 10.8159 22.1022 10.8973 22.1234C10.9774 22.1439 11.0587 22.1804 11.1286 22.2335C11.1747 22.2688 11.2157 22.3097 11.2503 22.3533C11.2971 22.4116 11.3343 22.475 11.3663 22.5423C11.5643 22.9522 11.8244 23.2648 12.1454 23.5037C12.4601 23.7375 12.8349 23.9014 13.2712 24.0001H14.1574C14.2548 23.9744 14.349 23.9495 14.44 23.9238C15.0019 23.7631 15.4761 23.421 15.8099 22.9746C16.1444 22.5282 16.3372 21.9792 16.3366 21.4098C16.3366 21.2997 16.3296 21.1882 16.3148 21.0761ZM14.9385 21.4598C14.9244 21.7032 14.8372 21.9274 14.7046 22.1131C14.5713 22.2982 14.3926 22.4468 14.1837 22.5391C14.044 22.5999 13.8909 22.6351 13.7319 22.6351C13.7108 22.6351 13.689 22.6345 13.6679 22.6332C13.4244 22.6185 13.2001 22.5314 13.0143 22.3988C12.8291 22.2662 12.6805 22.0868 12.5888 21.878C12.5273 21.7391 12.4927 21.586 12.4927 21.4271C12.4927 21.4053 12.4934 21.3842 12.4947 21.3624C12.5088 21.1197 12.5959 20.8949 12.7285 20.7097C12.8618 20.524 13.0406 20.3754 13.2495 20.2838C13.3891 20.2223 13.5423 20.1871 13.7012 20.1871C13.7223 20.1871 13.7441 20.1877 13.7653 20.189C14.0088 20.2037 14.233 20.2909 14.4188 20.4234C14.604 20.5567 14.7527 20.7354 14.8443 20.9448C14.9058 21.0838 14.9404 21.2369 14.9404 21.3964C14.9404 21.4175 14.9404 21.4387 14.9385 21.4598Z" fill="#CCF5FF"/>
<path id="Vector_3" d="M23.9976 21.4156V21.4214C23.9951 21.6276 23.9214 21.7884 23.8009 21.9062C23.6792 22.0228 23.5062 22.0984 23.2832 22.0997C22.6508 22.1009 22.0177 22.1016 21.3853 22.1016C20.7529 22.1016 20.1269 22.1009 19.4976 22.0997C19.2702 22.0984 19.0978 22.0222 18.9774 21.9049C18.8582 21.7858 18.7845 21.6218 18.7832 21.4073V21.4015C18.7838 21.2977 18.8037 21.2068 18.837 21.1261C18.8876 21.0063 18.9697 20.9096 19.0805 20.8391C19.1907 20.7687 19.331 20.7245 19.5002 20.7226H21.3898V20.4343L21.3904 20.7226H21.4186C21.7915 20.7226 22.1645 20.7219 22.5367 20.7219C22.7853 20.7219 23.0339 20.7219 23.2819 20.7232C23.396 20.7238 23.4966 20.7443 23.5831 20.7783C23.7131 20.8295 23.8131 20.9109 23.8842 21.0166C23.9547 21.1222 23.997 21.2548 23.9976 21.4156Z" fill="#CCF5FF"/>
<path id="Vector_4" d="M20.1425 6.07401C20.0419 5.47961 19.7721 4.9704 19.3838 4.58674C18.9955 4.20307 18.4887 3.94366 17.905 3.85783C17.7826 3.83926 17.6609 3.83093 17.5398 3.83093C16.5562 3.83093 15.6278 4.41316 15.1754 5.37457C15.1453 5.43862 15.1094 5.49947 15.062 5.55583C15.0146 5.6122 14.9537 5.66216 14.8864 5.69675C14.8409 5.72044 14.7941 5.7371 14.7474 5.74799C14.6852 5.76208 14.625 5.7672 14.566 5.7672H14.5404C14.3552 5.76272 14.1739 5.75631 13.9977 5.75631C13.8349 5.75631 13.6773 5.76144 13.5254 5.77873C12.4291 5.90171 11.4731 6.22645 10.6453 6.75039C9.81741 7.27497 9.11515 8.00131 8.53527 8.94094C8.51028 8.98193 8.48849 9.0178 8.46479 9.05239C8.44108 9.08762 8.41737 9.12285 8.37316 9.16448C8.34368 9.19202 8.30139 9.22405 8.24116 9.24454C8.2072 9.25671 8.16812 9.26312 8.13095 9.26312C8.09699 9.26312 8.06432 9.25799 8.03676 9.24967C8.00921 9.24198 7.9855 9.23173 7.96564 9.22148C7.92591 9.20099 7.89836 9.17985 7.87401 9.16C7.82596 9.12028 7.78815 9.08121 7.73946 9.03317C7.28965 8.58738 6.80204 8.25175 6.27213 8.02565C5.74223 7.80019 5.16812 7.68297 4.53826 7.68297C4.51904 7.68297 4.49981 7.68297 4.48059 7.68297C4.29221 7.68554 4.13202 7.75855 4.01348 7.87705C3.89559 7.99618 3.82254 8.15887 3.81934 8.3459V8.35871C3.81934 8.5592 3.88918 8.72445 4.00195 8.84678C4.11472 8.96848 4.27107 9.04727 4.46393 9.06072C4.67922 9.07481 4.91054 9.09018 5.14761 9.14206C5.87679 9.30219 6.49063 9.67561 6.92506 10.2066C7.36077 10.7363 7.61579 11.4191 7.65424 12.1839C7.66321 12.3613 7.7119 12.5028 7.78303 12.6111C7.85479 12.7187 7.94834 12.7955 8.06816 12.8436C8.14825 12.8756 8.24052 12.8935 8.34689 12.8935H8.35137C8.50836 12.8929 8.63459 12.8519 8.73711 12.7827C8.83899 12.7136 8.91972 12.6156 8.9729 12.4836C9.00814 12.3952 9.03057 12.2921 9.03506 12.1749C9.05876 11.5241 9.1773 10.9048 9.40669 10.327C9.63544 9.74927 9.97568 9.2138 10.4338 8.73341C10.9676 8.17233 11.5737 7.7688 12.2343 7.51004C12.8943 7.25063 13.6068 7.1347 14.3571 7.1347C14.3873 7.1347 14.4174 7.1347 14.4475 7.13534C14.5314 7.13662 14.6134 7.14238 14.6974 7.16096C14.7813 7.18017 14.8678 7.21412 14.9453 7.26792C14.9966 7.30379 15.0427 7.3467 15.0831 7.3941C15.1363 7.45815 15.1792 7.52861 15.2164 7.60611C15.4362 8.0628 15.7758 8.42789 16.1826 8.67961C16.5895 8.93133 17.0637 9.06904 17.55 9.06904C17.7435 9.06904 17.9396 9.04727 18.1337 9.00243C18.7309 8.86408 19.2365 8.53293 19.5953 8.08329C19.9528 7.63429 20.1636 7.06936 20.1688 6.45895C20.1598 6.30523 20.1604 6.17457 20.1425 6.07337V6.07401ZM18.5637 7.12701C18.4317 7.31788 18.2491 7.47289 18.0344 7.57024C17.8915 7.63494 17.7333 7.67337 17.5679 7.67657H17.5481C17.3014 7.67657 17.0701 7.59458 16.8785 7.46264C16.6876 7.33069 16.5325 7.14815 16.4357 6.93357C16.371 6.7901 16.3326 6.63189 16.3294 6.46664V6.44743C16.3294 6.20083 16.4114 5.9696 16.5427 5.77809C16.6747 5.58722 16.8567 5.43221 17.072 5.33486C17.2155 5.27016 17.3738 5.23173 17.5391 5.22853H17.559C17.8057 5.22853 18.037 5.31052 18.2279 5.44182C18.4195 5.57377 18.5739 5.75631 18.6713 5.97152C18.736 6.11436 18.7745 6.27257 18.777 6.43846C18.7777 6.44486 18.7777 6.45127 18.7777 6.45831C18.777 6.70491 18.695 6.9355 18.5637 7.12701Z" fill="#CCF5FF"/>
</g>
<defs>
<clipPath id="clip0_386_183">
<rect width="24" height="24" fill="white"/>
</clipPath>
</defs>
</svg>
