<svg width="38" height="38" viewBox="0 0 38 38" fill="none" xmlns="http://www.w3.org/2000/svg">
<path
        d="M12.25 37V1M12.25 37H29.807C32.3223 37 33.58 37 34.5416 36.51C35.3884 36.0786 36.0786 35.3884 36.51 34.5416C37 33.58 37 32.3222 37 29.8069V8.19304C37 5.67774 37 4.4182 36.51 3.45654C36.0786 2.60981 35.3884 1.9219 34.5416 1.49047C33.579 1 32.3207 1 29.8004 1H12.25M12.25 37H8.19308C5.67777 37 4.4182 37 3.45654 36.51C2.60981 36.0786 1.9219 35.3884 1.49047 34.5416C1 33.579 1 32.3207 1 29.8004V8.20044C1 5.6802 1 4.41915 1.49047 3.45654C1.9219 2.60981 2.60981 1.9219 3.45654 1.49047C4.41915 1 5.6802 1 8.20044 1H12.25"
        stroke="var(--primary-ic-color)" stroke-width="2" stroke-linecap="round"
        stroke-linejoin="round" />
</svg>
