<svg width="39" height="36" viewBox="0 0 39 36" fill="none" xmlns="http://www.w3.org/2000/svg">
<g id="Layer_1" clip-path="url(#clip0_377_190)">
<path id="Vector" d="M21.8857 0.000523629C25.0686 0.000523629 28.2526 -0.000654536 31.4355 0.000523629C33.7833 0.00170179 35.4118 1.66291 35.4153 4.05577C35.4176 5.87839 35.4246 7.70101 35.4107 9.52245C35.4084 9.86883 35.5162 10.0385 35.8433 10.1693C37.2666 10.7419 38.1934 12.1521 38.1957 13.7167C38.2015 17.5081 38.2062 21.3006 38.198 25.0919C38.1934 27.2232 36.5115 28.9327 34.4131 28.9363C30.0865 28.9445 25.7611 28.9445 21.4345 28.9256C20.9821 28.9233 20.7803 29.0894 20.5958 29.4912C18.9081 33.1494 16.0859 35.3313 12.1514 35.8862C8.57063 36.3905 5.48864 35.2076 2.97503 32.6015C1.29427 30.8602 0.323388 28.7324 0.0693592 26.2924C-0.301825 22.7273 0.823326 19.6983 3.28822 17.1664C3.80788 16.6339 4.38437 16.1543 5.03626 15.7997C5.44224 15.5782 5.55708 15.2943 5.55244 14.8478C5.5304 13.1135 5.5304 11.3792 5.5478 9.64498C5.5652 7.90483 6.33888 6.63948 7.92917 5.93965C8.23308 5.80652 8.34212 5.62862 8.3282 5.3058C8.30732 4.85103 8.3224 4.39508 8.32356 3.93913C8.32936 1.70768 10.0032 0.00759262 12.2059 0.00405812C15.4329 0.000523629 18.6587 0.00405812 21.8857 0.00405812V0.000523629ZM28.1146 26.8061V26.8026C30.0819 26.8026 32.0492 26.8038 34.0164 26.8026C35.4234 26.8026 36.0939 26.1216 36.0951 24.6937C36.0974 21.1827 36.0985 17.6706 36.0985 14.1597C36.0985 12.6752 35.4408 12.0048 33.9816 12.0048C29.8012 12.0025 25.6207 11.999 21.4403 12.0037C20.568 12.0037 19.7827 11.748 19.0902 11.2261C17.8479 10.2894 16.6172 9.3363 15.3865 8.38435C14.9295 8.0309 14.4574 7.7552 13.8507 7.76227C12.3903 7.77759 10.9288 7.75992 9.46843 7.76934C8.35952 7.77641 7.64035 8.49863 7.63223 9.61788C7.62179 11.1012 7.63687 12.5857 7.62527 14.069C7.62179 14.4448 7.71226 14.5579 8.10433 14.4519C9.56354 14.056 11.046 13.9983 12.5319 14.2622C15.2044 14.7358 17.4234 16.0306 19.1227 18.1772C20.9832 20.53 21.7685 23.2304 21.4681 26.2418C21.4182 26.746 21.4507 26.8061 21.9553 26.8061C24.0096 26.8085 26.0638 26.8061 28.1169 26.8061H28.1146ZM2.07143 24.9411C2.06215 29.8694 5.92478 33.8457 10.7339 33.8622C15.4851 33.8775 19.4162 29.8976 19.4289 25.0589C19.4417 20.2626 15.5384 16.2462 10.8534 16.2333C6.0373 16.2203 2.08071 20.1436 2.07143 24.9411ZM21.8764 2.12358V2.12122C18.6784 2.12122 15.4816 2.11769 12.2836 2.12358C11.1225 2.12593 10.4173 2.84697 10.4057 4.02042C10.4022 4.40215 10.4207 4.78505 10.401 5.16678C10.3825 5.53319 10.5298 5.65807 10.8836 5.65336C11.8962 5.63804 12.9088 5.651 13.9215 5.64747C14.8355 5.64393 15.6556 5.91962 16.3864 6.47925C17.6681 7.46066 18.958 8.43383 20.2351 9.42113C20.6318 9.72745 21.0621 9.88179 21.5609 9.88179C25.3087 9.87708 29.0553 9.87354 32.8031 9.88415C33.1998 9.88415 33.3309 9.75455 33.3274 9.35162C33.3112 7.63268 33.3228 5.91255 33.3216 4.19361C33.3216 2.83165 32.6291 2.12593 31.2952 2.12593C28.1552 2.12593 25.0164 2.12593 21.8764 2.12593V2.12358Z" fill="white"/>
<path id="Vector_2" d="M29.4834 23.1072C28.8466 23.1072 28.211 23.1143 27.5741 23.1049C26.8909 23.0943 26.4177 22.6772 26.3829 22.0752C26.3481 21.4708 26.7668 20.9618 27.457 20.9406C28.8292 20.8982 30.2049 20.8982 31.5771 20.9418C32.265 20.9642 32.6663 21.4684 32.6385 22.0893C32.6118 22.676 32.1246 23.0955 31.4356 23.1061C30.7849 23.1155 30.1341 23.1084 29.4834 23.1072Z" fill="white"/>
<path id="Vector_3" d="M9.86581 28.3124C9.52131 28.3266 9.2348 28.1239 8.98889 27.8694C8.17809 27.0329 7.3696 26.1941 6.5762 25.3399C6.1737 24.9075 6.19457 24.256 6.58548 23.8684C6.99842 23.4584 7.58767 23.4289 8.03309 23.8448C8.54347 24.322 9.01905 24.8357 9.51087 25.3328C9.88785 25.7134 9.93541 25.7216 10.3472 25.3105C11.3262 24.3326 12.2947 23.3441 13.2679 22.3603C13.3805 22.2461 13.4907 22.1271 13.6159 22.0305C14.0509 21.6935 14.5706 21.71 14.9673 22.0646C15.306 22.3674 15.3872 22.9105 15.1424 23.3582C15.0601 23.509 14.9441 23.6469 14.8223 23.7706C13.5069 25.1125 12.188 26.4521 10.868 27.7893C10.5989 28.0615 10.3136 28.3112 9.86465 28.3124H9.86581Z" fill="white"/>
</g>
<defs>
<clipPath id="clip0_377_190">
<rect width="38.2041" height="36" fill="white"/>
</clipPath>
</defs>
</svg>
