<svg width="22" height="17" viewBox="0 0 22 17" fill="none" xmlns="http://www.w3.org/2000/svg">
<path d="M11.0068 0.00396133C12.4469 0.00396133 13.887 -0.00692684 15.3271 0.0073997C16.6444 0.0205801 17.8798 0.307684 18.9429 1.08017C20.1209 1.93633 20.7349 3.09047 20.9402 4.45665C21.0117 4.93344 20.9824 5.41252 20.9854 5.89045C20.9861 6.01767 21.0233 6.10191 21.1437 6.17125C21.6465 6.46179 21.9331 6.8956 21.963 7.44001C22.0033 8.18098 22.0259 8.92596 21.9471 9.66636C21.8946 10.1552 21.6258 10.5414 21.1828 10.8056C21.0343 10.8939 20.9799 10.9918 20.9861 11.1535C21.0166 11.9706 20.9854 12.7844 20.6958 13.5672C19.9798 15.5013 18.5061 16.5849 16.3774 16.9185C15.9564 16.9844 15.53 16.9998 15.1029 16.9998C12.2911 16.9987 9.47937 17.0021 6.66762 16.9975C5.56052 16.9958 4.49985 16.7981 3.53694 16.2606C2.07668 15.4445 1.28607 14.2102 1.02273 12.6577C0.947581 12.2199 0.93414 11.7769 0.934751 11.3334C0.937805 9.33226 0.930474 7.33113 0.938416 5.33C0.942693 4.30651 1.15898 3.32657 1.72475 2.43661C2.60641 1.05095 3.94324 0.319145 5.61734 0.0830439C6.10796 0.0137034 6.60225 0.00109602 7.09776 0.00281521C8.40099 0.00682664 9.70361 0.00396133 11.0068 0.00396133ZM10.98 15.5666V15.5677C12.3516 15.5677 13.7239 15.5677 15.0955 15.5677C15.423 15.5677 15.7499 15.5689 16.0756 15.5248C17.2242 15.37 18.1767 14.9093 18.8256 13.9775C19.4115 13.1368 19.5105 12.1913 19.4916 11.2211C19.4891 11.0979 19.4036 11.0893 19.3046 11.0893C18.9466 11.0893 18.5879 11.0979 18.2299 11.087C16.7764 11.0434 15.5214 9.97352 15.4579 8.64C15.3955 7.34775 16.3743 6.16094 17.7283 5.95406C18.2366 5.87612 18.7468 5.92426 19.2564 5.91681C19.4311 5.91395 19.4983 5.87211 19.4971 5.6979C19.4959 5.38272 19.4849 5.06868 19.4482 4.75636C19.3211 3.67786 18.8659 2.7644 17.8975 2.12142C17.1961 1.65553 16.3976 1.44578 15.5532 1.44177C12.6803 1.42687 9.80686 1.43547 6.9334 1.4349C6.59064 1.4349 6.2491 1.4349 5.90756 1.47788C4.6862 1.63146 3.69029 2.12601 3.03959 3.13976C2.64429 3.75522 2.46954 4.43487 2.46588 5.1449C2.45549 7.24632 2.4616 9.34831 2.46099 11.4497C2.46099 11.7569 2.46038 12.0635 2.5062 12.3695C2.67606 13.499 3.21067 14.4142 4.27012 15.0193C4.91776 15.3889 5.63445 15.5557 6.38351 15.5626C7.91525 15.5769 9.44699 15.5666 10.9793 15.5666H10.98ZM19.1672 9.64974C19.1672 9.64974 19.1672 9.65031 19.1672 9.65088C19.502 9.65088 19.8368 9.64974 20.1716 9.65088C20.3574 9.65146 20.4563 9.57237 20.4563 9.39358C20.4563 8.80103 20.4557 8.20906 20.4563 7.61651C20.4563 7.44116 20.369 7.35119 20.1796 7.35176C19.472 7.35348 18.7639 7.33973 18.057 7.36036C17.4961 7.37697 16.9199 7.92196 16.9762 8.55977C17.0318 9.18899 17.5768 9.63426 18.2537 9.64859C18.558 9.65489 18.8623 9.64974 19.1665 9.64974H19.1672Z" fill="#C14B93"/>
<path d="M10.8983 5.0628C10.1168 5.0628 9.33524 5.06517 8.55372 5.06103C8.25483 5.05926 8.01768 4.80755 7.96476 4.45481C7.91527 4.12807 8.08137 3.78656 8.34743 3.66011C8.42338 3.62407 8.50129 3.61757 8.58116 3.61757C10.132 3.61757 11.6828 3.61639 13.2335 3.61816C13.5952 3.61816 13.8656 3.92836 13.8691 4.33487C13.873 4.74669 13.5966 5.06162 13.2242 5.0628C12.4491 5.06517 11.6734 5.06339 10.8983 5.0628Z" fill="#C14B93"/>
</svg>
