<svg width="228" height="228" viewBox="0 0 228 228" fill="none" xmlns="http://www.w3.org/2000/svg">
<path d="M114 0C132.747 2.23561e-07 151.205 4.62351 167.739 13.461C184.273 22.2984 198.372 35.0771 208.788 50.665C219.203 66.2529 225.613 84.1689 227.451 102.826C229.289 121.483 226.497 140.306 219.322 157.626C212.148 174.946 200.813 190.23 186.321 202.123C171.829 214.016 154.628 222.152 136.24 225.81C117.853 229.467 98.8477 228.533 80.9076 223.091C62.9674 217.649 46.6463 207.867 33.3899 194.61L49.5119 178.488C60.117 189.093 73.1739 196.919 87.5261 201.273C101.878 205.627 117.083 206.374 131.792 203.448C146.502 200.522 160.263 194.013 171.857 184.499C183.45 174.984 192.518 162.757 198.258 148.901C203.997 135.044 206.231 119.987 204.761 105.061C203.291 90.1351 198.162 75.8023 189.83 63.332C181.498 50.8617 170.218 40.6387 156.991 33.5688C143.764 26.4988 128.998 22.8 114 22.8V0Z" fill="#1EE0BB"/>
<path d="M33.3898 194.61C17.4466 178.667 6.58919 158.354 2.19048 136.24C-2.20824 114.126 0.0493433 91.2049 8.67773 70.3741C17.3061 49.5433 31.9178 31.7389 50.665 19.2125C69.4122 6.68598 91.4529 -2.68871e-07 114 0V22.8C95.9623 22.8 78.3298 28.1488 63.332 38.17C48.3342 48.1912 36.6449 62.4346 29.7422 79.0993C22.8395 95.7639 21.0334 114.101 24.5524 131.792C28.0714 149.483 36.7573 165.734 49.5119 178.488L33.3898 194.61Z" fill="#F6F7F8"/>
</svg>
