<?xml version="1.0" standalone="no"?>
<!DOCTYPE svg PUBLIC "-//W3C//DTD SVG 20010904//EN" "http://www.w3.org/TR/2001/REC-SVG-20010904/DTD/svg10.dtd">
<svg version="1.0" xmlns="http://www.w3.org/2000/svg"
    width="134.000000pt" height="150.000000pt" viewBox="0 0 134.000000 150.000000"
    preserveAspectRatio="xMidYMid meet">

    <g transform="translate(0.000000,150.000000) scale(0.100000,-0.100000)"
        fill="currentColor" stroke="none">
        <path
            d="M595 1478 c-16 -12 -51 -42 -77 -67 l-48 -45 0 -313 0 -312 -37 -10
c-21 -5 -99 -22 -173 -37 -74 -15 -138 -33 -142 -38 -11 -16 -38 -111 -38
-135 0 -27 2 -27 210 17 l175 38 3 -99 c1 -55 1 -101 0 -102 -2 -2 -95 -22
-208 -45 -121 -25 -210 -48 -217 -57 -12 -15 -48 -152 -42 -157 5 -3 387 78
444 94 50 15 84 46 138 129 41 64 42 67 47 170 l5 105 60 13 c104 21 95 34 95
-142 0 -136 2 -155 16 -155 15 0 487 99 490 103 12 17 49 167 41 167 -3 0 -88
-18 -191 -40 -102 -22 -189 -40 -193 -40 -5 0 -8 34 -7 76 1 55 5 79 15 84 8
4 85 22 172 40 109 23 161 39 167 50 13 24 42 142 36 147 -3 3 -81 -11 -173
-31 -92 -19 -178 -37 -190 -38 l-23 -3 -1 283 c0 195 -4 282 -11 282 -12 0
-110 -73 -130 -97 -10 -12 -14 -80 -18 -262 l-5 -246 -77 -16 -78 -17 -2 363
-3 363 -30 -20z" />
        <path
            d="M1150 239 c-96 -21 -207 -46 -247 -55 l-72 -16 -15 -46 c-8 -26 -18
-64 -22 -86 -6 -34 -5 -38 12 -33 11 3 118 27 239 52 121 26 227 48 236 51 21
6 73 176 52 173 -4 -1 -87 -19 -183 -40z" />
    </g>
</svg>