<svg width="22" height="20" viewBox="0 0 22 20" fill="none" xmlns="http://www.w3.org/2000/svg">
<g id="Layer_1" clip-path="url(#clip0_928_429)">
<path id="Vector" d="M21.6743 15.015C21.6743 15.4487 21.6731 15.8834 21.6708 16.3176C21.6685 16.7917 21.5234 17.2207 21.2639 17.5584C21.005 17.8966 20.6333 18.14 20.1906 18.2493C20.0374 18.2869 19.8929 18.2875 19.7635 18.288H19.7629C19.2751 18.2886 18.7873 18.2892 18.2995 18.2892C17.9648 18.2892 17.6307 18.2892 17.2967 18.2886H17.2961C17.1499 18.288 17.0175 18.2632 16.9031 18.2059H16.9025C16.788 18.1481 16.6956 18.0539 16.6441 17.9359C16.6106 17.8579 16.5944 17.7735 16.5927 17.685V17.6717C16.5927 17.5821 16.6089 17.4948 16.643 17.4162C16.6776 17.337 16.7297 17.267 16.795 17.2115C16.9268 17.1005 17.1036 17.0508 17.3001 17.0502C17.5654 17.049 17.8296 17.049 18.0943 17.049C18.3873 17.049 18.6798 17.0496 18.9722 17.0496C19.208 17.0496 19.4438 17.049 19.6797 17.0485C19.871 17.0479 20.0178 17.0074 20.1253 16.9409C20.2339 16.8727 20.3079 16.7813 20.3565 16.6472C20.3883 16.5587 20.4062 16.4506 20.4062 16.324C20.4079 12.6093 20.4062 8.89512 20.4108 5.18039V5.17923C20.4108 5.13182 20.4062 5.09829 20.4027 5.08846C20.3969 5.08615 20.3686 5.08094 20.3281 5.08152H20.3183C19.9085 5.08673 19.4988 5.08788 19.0895 5.08788C18.626 5.08788 18.163 5.08615 17.7001 5.08499C17.5348 5.08499 17.3839 5.04568 17.2626 4.96068C17.14 4.87512 17.0585 4.74387 17.0296 4.59413C17.0204 4.54961 17.0158 4.50451 17.0158 4.45999V4.45768C17.0158 4.29059 17.0834 4.13448 17.2001 4.02347C17.2585 3.96797 17.329 3.92461 17.4065 3.89454C17.4845 3.86506 17.5706 3.84887 17.6602 3.84829C17.9671 3.8454 18.2746 3.84482 18.5815 3.84482C18.9294 3.84482 19.2768 3.84598 19.6248 3.84598C19.6467 3.84598 19.6704 3.8454 19.6947 3.8454C19.8328 3.8454 19.9721 3.84366 20.1126 3.84366C20.2045 3.84366 20.2969 3.84482 20.3894 3.84713H20.4079C20.4079 3.84366 20.4079 3.84019 20.4079 3.83673V3.83441C20.4068 3.68929 20.4062 3.54359 20.4062 3.39847C20.4062 3.17357 20.4073 2.94924 20.4073 2.72606C20.4073 2.43235 20.4056 2.13864 20.3998 1.84609C20.3963 1.6871 20.3328 1.55065 20.2276 1.44716C20.1224 1.34424 19.9762 1.27717 19.8114 1.26908C19.7178 1.26445 19.623 1.2633 19.5265 1.2633C19.4803 1.2633 19.4346 1.2633 19.3878 1.26388V1.14824H19.3011V1.09043H19.3005V1.14709H19.2144V1.14824V1.17542L19.2138 1.17715L19.2121 1.26388H7.49707C5.95214 1.26388 4.40779 1.26388 2.86286 1.26156H2.85882C2.72472 1.26156 2.60508 1.27139 2.50509 1.30204C2.40395 1.33268 2.32303 1.37893 2.24385 1.46566C2.1901 1.52579 2.14906 1.58707 2.12132 1.65241C2.09357 1.71716 2.07913 1.78249 2.07855 1.85823C2.07739 2.51445 2.07913 3.17125 2.07508 3.82863V3.83094C2.07508 3.83673 2.07508 3.84193 2.07566 3.84655C2.07624 3.85927 2.07739 3.86795 2.07797 3.87199V3.87373L2.07392 3.87546L2.07855 3.87431L2.07624 3.84713H2.07797C2.10687 3.84424 2.13461 3.84366 2.16004 3.84366C2.20223 3.84366 2.2398 3.8454 2.27159 3.8454H2.28488C6.6041 3.8454 10.9227 3.8454 15.242 3.84598C15.2847 3.84598 15.331 3.84482 15.3789 3.84482C15.4211 3.84482 15.4656 3.8454 15.5119 3.84829C15.6789 3.85812 15.8303 3.92634 15.9413 4.03446C15.9968 4.08881 16.0419 4.15298 16.0731 4.22468C16.1043 4.29579 16.1228 4.37442 16.1239 4.4571V4.46693C16.1239 4.63344 16.0552 4.7855 15.9425 4.89535L15.9402 4.89766C15.8269 5.00752 15.672 5.07516 15.5009 5.08383C15.457 5.08615 15.4142 5.08673 15.3732 5.08673C15.3246 5.08673 15.2778 5.08615 15.2321 5.08615H2.23229C2.16351 5.08615 2.11091 5.08615 2.07855 5.08904C2.07681 5.12257 2.07624 5.17576 2.07624 5.24399V5.27232C2.07624 5.42842 2.07739 5.58511 2.07739 5.74352C2.07739 5.85916 2.07681 5.97479 2.0745 6.091C2.07103 6.28238 2.01497 6.45525 1.904 6.58418C1.79303 6.71485 1.6283 6.78827 1.44971 6.78943H1.44046C1.26533 6.78943 1.10061 6.72063 0.987328 6.59285C0.874045 6.46508 0.816247 6.29047 0.815669 6.09621C0.812201 5.28388 0.804688 4.47098 0.804688 3.65749C0.804688 3.0695 0.808155 2.48208 0.820871 1.89408C0.831852 1.33904 1.04744 0.860315 1.40463 0.525555C1.76124 0.190217 2.25541 0.00115634 2.81027 0.00115634C5.64813 0 8.48599 0 11.3239 0C14.1617 0 16.8817 0 19.6606 0.00115634H19.6629C20.249 0.000578168 20.7564 0.205828 21.113 0.567761C21.4708 0.929695 21.6714 1.44369 21.6714 2.03573C21.6725 3.71415 21.6731 5.39258 21.6731 7.071C21.6731 9.08592 21.6725 11.1003 21.6725 13.1146C21.6725 13.7477 21.6743 14.3814 21.6743 15.015Z" fill="currentColor"/>
<path id="Vector_2" d="M19.3888 1.14766V1.17657H19.3021V1.14766L19.3015 1.17657H19.2148V1.17483L19.2154 1.14766V1.14593L19.3015 1.1465V1.08984H19.3021V1.14708L19.3888 1.14766Z" fill="currentColor"/>
<path id="Vector_3" d="M2.08057 3.87305V3.87385L2.07422 3.87545L2.08057 3.87305Z" fill="currentColor"/>
<path id="Vector_4" d="M2.07906 3.87288V3.87114C2.07791 3.8671 2.07675 3.85842 2.07617 3.8457H2.07848L2.07675 3.84628L2.07906 3.87288Z" fill="currentColor"/>
<path id="Vector_5" d="M19.3886 1.14822V1.26385H19.2129L19.2146 1.17713V1.17539L19.2152 1.14822V1.14648L19.3013 1.14706L19.3019 1.14764L19.3886 1.14822Z" fill="currentColor"/>
<path id="Vector_6" d="M19.3886 1.14766V1.26329H19.2129L19.2146 1.17657V1.17483L19.2152 1.14766V1.14593L19.3013 1.1465V1.08984H19.3019V1.14708L19.3886 1.14766Z" fill="currentColor"/>
<path id="Vector_7" d="M15.7205 15.3281L15.717 15.3316L15.7182 15.3333L15.7211 15.3287H15.7205V15.3281ZM11.4325 17.4477V17.446L11.4238 17.4494V17.4529H11.425L11.4342 17.4512L11.4325 17.4477ZM11.4325 17.4477V17.446L11.4238 17.4494V17.4529H11.425L11.4342 17.4512L11.4325 17.4477ZM15.7205 15.3281L15.717 15.3316L15.7182 15.3333L15.7211 15.3287H15.7205V15.3281ZM15.7205 15.3281L15.717 15.3316L15.7182 15.3333L15.7211 15.3287H15.7205V15.3281ZM11.4325 17.4477V17.446L11.4238 17.4494V17.4529H11.425L11.4342 17.4512L11.4325 17.4477ZM15.7205 15.3281L15.717 15.3316L15.7182 15.3333L15.7211 15.3287H15.7205V15.3281ZM11.4325 17.4477V17.446L11.4238 17.4494V17.4529H11.425L11.4342 17.4512L11.4325 17.4477ZM11.4325 17.4477V17.446L11.4238 17.4494V17.4529H11.425L11.4342 17.4512L11.4325 17.4477ZM15.7205 15.3281L15.717 15.3316L15.7182 15.3333L15.7211 15.3287H15.7205V15.3281ZM15.7205 15.3281L15.717 15.3316L15.7182 15.3333L15.7211 15.3287H15.7205V15.3281ZM11.4325 17.4477V17.446L11.4238 17.4494V17.4529H11.425L11.4342 17.4512L11.4325 17.4477Z" fill="currentColor"/>
<path id="Vector_8" d="M15.7205 15.3281L15.717 15.3316L15.7182 15.3333L15.7211 15.3287H15.7205V15.3281ZM11.4325 17.4477V17.446L11.4238 17.4494V17.4529H11.425L11.4342 17.4512L11.4325 17.4477ZM15.7205 15.3281L15.717 15.3316L15.7182 15.3333L15.7211 15.3287H15.7205V15.3281ZM11.4325 17.4477V17.446L11.4238 17.4494V17.4529H11.425L11.4342 17.4512L11.4325 17.4477ZM15.7205 15.3281L15.717 15.3316L15.7182 15.3333L15.7211 15.3287H15.7205V15.3281ZM11.4325 17.4477V17.446L11.4238 17.4494V17.4529H11.425L11.4342 17.4512L11.4325 17.4477ZM15.7205 15.3281L15.717 15.3316L15.7182 15.3333L15.7211 15.3287H15.7205V15.3281ZM11.4325 17.4477V17.446L11.4238 17.4494V17.4529H11.425L11.4342 17.4512L11.4325 17.4477Z" fill="currentColor"/>
<path id="Vector_9" d="M15.7205 15.3281L15.717 15.3316L15.7182 15.3333L15.7211 15.3287H15.7205V15.3281ZM11.4325 17.4477V17.446L11.4238 17.4494V17.4529H11.425L11.4342 17.4512L11.4325 17.4477ZM15.7205 15.3281L15.717 15.3316L15.7182 15.3333L15.7211 15.3287H15.7205V15.3281ZM11.4325 17.4477V17.446L11.4238 17.4494V17.4529H11.425L11.4342 17.4512L11.4325 17.4477ZM15.7205 15.3281L15.717 15.3316L15.7182 15.3333L15.7211 15.3287H15.7205V15.3281ZM11.4325 17.4477V17.446L11.4238 17.4494V17.4529H11.425L11.4342 17.4512L11.4325 17.4477ZM15.7205 15.3281L15.717 15.3316L15.7182 15.3333L15.7211 15.3287H15.7205V15.3281ZM11.4325 17.4477V17.446L11.4238 17.4494V17.4529H11.425L11.4342 17.4512L11.4325 17.4477Z" fill="currentColor"/>
<path id="Vector_10" d="M17.2877 15.0444C17.2119 14.942 17.1073 14.8501 16.9773 14.764C16.1537 14.2182 15.3283 13.6747 14.5041 13.1306C13.5476 12.4999 12.5928 11.865 11.631 11.2383C11.4877 11.1446 11.3374 11.0938 11.1912 11.0938H11.186C11.0236 11.0938 10.8715 11.1614 10.7652 11.2817C10.6577 11.4025 10.5987 11.5655 10.586 11.7511C10.5675 12.0269 10.5542 12.3004 10.5386 12.5727C10.493 13.3723 10.4496 14.1708 10.4005 14.9681C10.3346 16.0458 10.2647 17.124 10.1959 18.2023V18.2116C10.1953 18.2243 10.1953 18.2359 10.1953 18.2463C10.1953 18.4481 10.2392 18.625 10.3421 18.7603H10.3415C10.393 18.8279 10.4594 18.8823 10.5363 18.9187H10.5369C10.6115 18.9534 10.6935 18.9707 10.7796 18.9707H10.7843C10.923 18.9707 11.0675 18.9297 11.2172 18.8551C11.6616 18.6348 12.1107 18.4168 12.554 18.1833H12.5546C12.5673 18.1757 12.5783 18.1705 12.587 18.1676C12.5928 18.1775 12.6003 18.1913 12.6078 18.2075H12.6084C12.8268 18.6666 13.0569 19.117 13.2852 19.5674C13.3493 19.694 13.421 19.7992 13.5164 19.8773C13.6117 19.9576 13.7308 19.9999 13.8556 19.9999H13.8585C13.9811 19.9999 14.1019 19.9646 14.2313 19.9073C14.8006 19.6587 15.3659 19.4026 15.9317 19.1511H15.9323C16.0704 19.0887 16.1855 19.0152 16.2722 18.9152C16.2722 18.9152 16.2723 18.9148 16.2727 18.9141C16.3606 18.8135 16.4068 18.6874 16.4068 18.555V18.5521C16.4062 18.4157 16.3629 18.2792 16.2924 18.1353C16.0623 17.6704 15.8346 17.2015 15.5901 16.7396H15.5896C15.5774 16.7164 15.5699 16.6979 15.5659 16.6858C15.5659 16.6846 15.5659 16.6835 15.5647 16.6823C15.5768 16.6742 15.5977 16.6621 15.6254 16.6488C16.0537 16.4476 16.4698 16.229 16.8871 16.0215C17.0414 15.944 17.1669 15.8573 17.2588 15.7532C17.3495 15.6503 17.4079 15.5243 17.4079 15.3884V15.3867C17.4079 15.2635 17.3611 15.1467 17.2859 15.0444H17.2877ZM15.7208 15.3288H15.7213L15.7185 15.334L15.7173 15.3323L15.7208 15.3288ZM11.4252 17.4536H11.4247V17.4501L11.4322 17.4467V17.4484L11.4345 17.4519L11.4252 17.4536ZM14.2417 16.8089C14.4718 17.2726 14.7001 17.7404 14.9417 18.2029H14.9422C14.9469 18.2116 14.9503 18.2191 14.9532 18.226C14.9463 18.2295 14.9382 18.233 14.9295 18.2364C14.6862 18.3342 14.4429 18.4394 14.2059 18.5591H14.2053C14.1932 18.566 14.1822 18.5706 14.1741 18.5735C14.1695 18.566 14.1637 18.5556 14.1579 18.5429H14.1573C13.9418 18.0907 13.714 17.6479 13.4909 17.2044C13.4187 17.061 13.3464 16.9448 13.2505 16.8564C13.2037 16.813 13.1493 16.7766 13.0881 16.7517C13.0875 16.7517 13.0875 16.7511 13.0869 16.7511C13.0262 16.7268 12.9615 16.7153 12.8968 16.7153H12.8962C12.8211 16.7159 12.7459 16.7297 12.6691 16.754C12.5922 16.7789 12.513 16.813 12.428 16.8552C12.1211 17.0073 11.8154 17.1622 11.5102 17.3143C11.5108 17.2952 11.5108 17.2773 11.5108 17.2605C11.5108 17.2304 11.5102 17.2015 11.5102 17.1749V17.1703C11.5796 16.0729 11.6501 14.975 11.7177 13.8771C11.7391 13.5249 11.7576 13.1728 11.7703 12.8196C13.0245 13.651 14.2804 14.4795 15.5381 15.3051C15.2214 15.4589 14.9052 15.6156 14.5902 15.7746C14.4515 15.8451 14.3371 15.9203 14.2521 16.0186C14.2099 16.0677 14.1758 16.1232 14.1533 16.1839H14.1527C14.129 16.2452 14.118 16.31 14.118 16.3753C14.1192 16.5181 14.1672 16.6575 14.2423 16.8089H14.2417Z" fill="currentColor"/>
<path id="Vector_11" d="M9.64643 17.6851L9.73313 17.6892C9.72908 17.8528 9.66319 18.0037 9.55164 18.1112C9.43951 18.2193 9.28519 18.2812 9.11527 18.2858C9.00083 18.2893 8.88812 18.2899 8.77542 18.2899C8.64075 18.2899 8.50724 18.2887 8.37488 18.2887H8.36274C7.28193 18.2887 6.20227 18.2806 5.12377 18.2806C4.35564 18.2806 3.58693 18.2847 2.81995 18.2991H2.78354C2.28532 18.2991 1.79347 18.1106 1.42298 17.7637C1.05308 17.4174 0.808017 16.9075 0.808595 16.2888V16.2831C0.811485 15.1718 0.812063 14.0606 0.812063 12.9488C0.812063 11.6733 0.811485 10.3985 0.811485 9.12301V8.49512C0.811485 8.41418 0.812641 8.32341 0.829402 8.22743C0.857145 8.07075 0.927658 7.93372 1.03574 7.83486C1.14382 7.73599 1.28658 7.68164 1.43801 7.68164H1.44032C1.44552 7.68164 1.45362 7.68164 1.46286 7.68164H1.46749C1.54436 7.68453 1.61834 7.7013 1.68596 7.72963C1.75532 7.75912 1.81832 7.80074 1.87207 7.85336C1.97842 7.95858 2.04662 8.10139 2.06685 8.2627C2.07436 8.32283 2.07552 8.37949 2.07552 8.43153C2.07552 8.46275 2.07494 8.49166 2.07494 8.51883V8.52403C2.07552 9.82144 2.07552 11.1189 2.07552 12.4163V12.514C2.07552 13.2297 2.07494 13.9449 2.07494 14.6607C2.07494 15.2036 2.07552 15.7459 2.0761 16.2883C2.0761 16.3935 2.0865 16.4848 2.10442 16.564C2.12291 16.6433 2.15008 16.7103 2.18302 16.7647C2.21712 16.8207 2.257 16.8664 2.30555 16.9046C2.35468 16.9422 2.41248 16.9734 2.48357 16.9977H2.48415C2.5772 17.0295 2.69395 17.0474 2.83267 17.0474C3.83719 17.0474 4.84114 17.0474 5.84508 17.0474H7.4744C7.94545 17.0474 8.41707 17.0474 8.88812 17.048C8.92396 17.048 8.96211 17.0468 9.00314 17.0468C9.05458 17.0468 9.11007 17.048 9.16902 17.0555C9.24878 17.0659 9.32334 17.0902 9.39096 17.1254C9.45801 17.1607 9.51812 17.2075 9.5684 17.2619C9.66897 17.3706 9.7337 17.5145 9.7337 17.6712H9.64701V17.684L9.64643 17.6851Z" fill="currentColor"/>
<path id="Vector_12" d="M9.73376 17.6738V17.6779L9.73318 17.6883V17.6906L9.64648 17.6865L9.64706 17.6738H9.73376Z" fill="currentColor"/>
<path id="Vector_13" d="M11.8611 7.45125C11.8611 7.60273 11.8068 7.74554 11.7126 7.85481H11.712C11.6172 7.96408 11.4825 8.04098 11.327 8.06295H11.3276C11.2664 8.07162 11.2091 8.07278 11.1583 8.07278C11.1253 8.07278 11.0941 8.0722 11.0652 8.0722C9.78212 8.0722 8.49901 8.07278 7.2159 8.07278C6.34489 8.07278 5.4733 8.0722 4.60229 8.0722C4.43699 8.0722 4.28903 8.0485 4.16245 7.99299C4.03588 7.93865 3.92953 7.84787 3.86769 7.72588H3.86826C3.82665 7.64551 3.80642 7.55532 3.80469 7.46223V7.44605C3.80469 7.35296 3.8226 7.26219 3.86249 7.18009C3.90294 7.09799 3.96421 7.02861 4.03877 6.97657H4.03935C4.1139 6.92512 4.19945 6.88869 4.29366 6.86557C4.38844 6.84244 4.49306 6.83261 4.60518 6.83203H9.61335C10.1347 6.83203 10.6554 6.83203 11.1768 6.83319C11.3473 6.83319 11.5033 6.87424 11.6259 6.96443C11.7501 7.05578 11.8287 7.19396 11.853 7.35007C11.8582 7.3836 11.8611 7.41772 11.8611 7.45125Z" fill="currentColor"/>
<path id="Vector_14" d="M8.44584 10.416V10.4345C8.44584 10.5224 8.43081 10.6073 8.39902 10.686C8.36665 10.764 8.31753 10.834 8.25453 10.8901C8.19153 10.9461 8.11639 10.9878 8.03374 11.0144C7.95109 11.0415 7.86092 11.0543 7.76556 11.0543C7.22515 11.056 6.68532 11.0572 6.14549 11.0572C5.60566 11.0572 5.03289 11.056 4.4763 11.0543C4.29308 11.0537 4.12546 10.9907 4.00293 10.8797C3.87982 10.7692 3.80469 10.6102 3.80469 10.4362V10.42V10.4183C3.80931 10.2466 3.87982 10.0887 4.00293 9.98118C4.12546 9.87307 4.29019 9.81872 4.47052 9.81814C4.70113 9.81698 4.9329 9.81641 5.16351 9.81641C5.47851 9.81641 5.7935 9.81756 6.10792 9.81756H6.1374C6.45933 9.81698 6.78127 9.81698 7.10378 9.81698C7.32225 9.81698 7.5413 9.81698 7.76036 9.81756C7.90138 9.81814 8.03027 9.84416 8.14124 9.90255C8.25395 9.96095 8.34296 10.054 8.39324 10.1697C8.42619 10.246 8.44295 10.3292 8.44584 10.416Z" fill="currentColor"/>
</g>
<defs>
<clipPath id="clip0_928_429">
<rect width="20.8696" height="20" fill="currentColor" transform="translate(0.804688)"/>
</clipPath>
</defs>
</svg>
