<svg width="24" height="20" viewBox="0 0 24 20" fill="none" xmlns="http://www.w3.org/2000/svg">
<g id="Layer_1" clip-path="url(#clip0_928_455)">
<path id="Vector" d="M23.6755 2.83794V2.8416C23.6748 3.47968 23.6748 4.11849 23.6748 4.75657V7.5511C23.6748 7.85331 23.6031 8.10137 23.4825 8.27333C23.4226 8.35894 23.3502 8.42626 23.2676 8.47163C23.1857 8.51627 23.0928 8.54041 22.9919 8.54115H22.989C22.8874 8.54115 22.7953 8.517 22.7134 8.47236C22.5899 8.40504 22.4882 8.28869 22.4166 8.13283C22.3457 7.97551 22.3055 7.78013 22.3055 7.55476C22.3047 7.03815 22.3047 6.52153 22.3047 6.00566V2.84453C22.304 2.63305 22.2806 2.445 22.2331 2.28255C22.1622 2.03888 22.0357 1.85155 21.8559 1.72642C21.6767 1.6013 21.4457 1.5391 21.1672 1.5391H3.32961C3.14392 1.5391 2.97869 1.5669 2.83613 1.62178C2.62339 1.70374 2.45817 1.85228 2.35143 2.05644C2.24323 2.26206 2.19059 2.52402 2.19059 2.84233C2.18986 4.96 2.18986 7.07693 2.18986 9.19459C2.18986 11.3123 2.18986 13.4848 2.19059 15.6303C2.19059 15.8403 2.21472 16.0261 2.2637 16.1871C2.33535 16.4293 2.46475 16.6167 2.64532 16.7403H2.64605C2.82736 16.8655 3.06057 16.9277 3.34058 16.9277C5.16535 16.9284 6.98939 16.9284 8.81416 16.9284H13.746C13.7935 16.9284 13.8403 16.9277 13.8871 16.9277C13.9339 16.9277 13.9836 16.9284 14.0304 16.932C14.2102 16.9459 14.3689 17.0359 14.4829 17.1735C14.5963 17.3111 14.6657 17.4955 14.6657 17.7004V17.7084C14.665 17.8116 14.6467 17.9097 14.6138 17.9982C14.5809 18.0875 14.5334 18.1672 14.4756 18.2353H14.4749C14.4164 18.3033 14.347 18.3589 14.2695 18.3985C14.1927 18.438 14.1064 18.4614 14.0158 18.4658C13.9507 18.4687 13.8864 18.4694 13.8213 18.4694C13.7358 18.4694 13.6495 18.468 13.5618 18.468H13.5486C11.6142 18.468 9.67902 18.4592 7.74313 18.4592C6.27001 18.4592 4.79762 18.4643 3.32449 18.4826H3.29744C2.67895 18.4826 2.05973 18.2177 1.59476 17.7282C1.12907 17.2386 0.818359 16.5252 0.818359 15.6259V15.6208C0.820553 14.0087 0.821284 12.396 0.821284 10.7832C0.821284 8.99483 0.820553 7.20645 0.820553 5.41733C0.820553 4.55607 0.820553 3.69481 0.821284 2.83282C0.821284 2.11425 1.01356 1.48495 1.35205 0.999803C1.52166 0.757596 1.72709 0.551244 1.96469 0.387334C2.20302 0.224887 2.47206 0.104881 2.76814 0.034634C2.89974 0.00316907 3.03352 -0.00195312 3.16877 -0.00195312C3.23823 -0.00195312 3.30768 -0.000489639 3.37859 -0.000489639H3.38079C5.18728 -0.00195312 6.99304 -0.00195312 8.79953 -0.00195312H12.2144V-0.000489639H12.251C13.9712 -0.000489639 15.6907 -0.00195312 17.4102 -0.00195312C18.7115 -0.00195312 20.0128 -0.00122138 21.3134 0.00170559C21.8756 0.00243733 22.3852 0.21757 22.788 0.589295C23.1893 0.959557 23.4818 1.48861 23.6046 2.11571C23.6514 2.3528 23.6755 2.59354 23.6755 2.83794Z" fill="currentColor"/>
<path id="Vector_2" d="M21.4508 9.23805C20.6481 8.43533 19.542 7.94141 18.3291 7.94141C18.0871 7.94141 17.8408 7.96116 17.5922 8.00214C16.6835 8.15142 15.9253 8.49753 15.328 9.02585C14.73 9.55417 14.2928 10.2647 14.0304 11.1442C13.8922 11.6089 13.8242 12.0567 13.8242 12.487C13.8242 13.0929 13.958 13.6644 14.2139 14.2015C14.4705 14.7386 14.8507 15.2405 15.3441 15.7052C15.4304 15.7857 15.494 15.8662 15.5357 15.9555H15.5364C15.5773 16.044 15.5971 16.1413 15.5978 16.254V16.2686L15.5971 16.2716C15.5927 16.6462 15.5905 17.0223 15.5905 17.3977C15.5905 17.7731 15.5927 18.18 15.5956 18.5707C15.5993 19.0302 15.7608 19.3859 16.0079 19.6273C16.2551 19.8695 16.5877 19.9976 16.9342 19.9976C16.9693 19.9976 17.0044 19.9961 17.0388 19.9939H17.0395C17.1989 19.9815 17.3575 19.9778 17.5176 19.9778C17.7421 19.9778 17.9658 19.9852 18.1895 19.9874H18.2633V19.9866H18.2999C18.5791 19.9866 18.8584 19.9859 19.1384 19.9859C19.3329 19.9859 19.5281 19.9866 19.7233 19.9874H19.7299C19.9835 19.9881 20.2095 19.9091 20.4171 19.762C20.6196 19.6178 20.7614 19.4451 20.8535 19.2476C20.9456 19.0507 20.9888 18.829 20.9902 18.5875C20.9939 18.2143 20.9954 17.8404 20.9954 17.468C20.9954 17.0472 20.9932 16.6265 20.9902 16.2057V16.1999C20.9902 16.1084 21.0041 16.0286 21.0378 15.9562C21.0707 15.8823 21.1226 15.8179 21.1942 15.755C21.6511 15.3554 22.0145 14.9047 22.2747 14.4027C22.5343 13.9007 22.6922 13.3468 22.739 12.7424C22.7478 12.6231 22.7521 12.5053 22.7521 12.3875C22.7521 11.1523 22.2535 10.0408 21.4508 9.23805ZM17.1623 16.9528V16.9462C17.1623 16.9111 17.166 16.8804 17.1747 16.8526C17.1821 16.8262 17.1952 16.8013 17.2142 16.7838C17.2274 16.7713 17.2427 16.7611 17.2574 16.7552H17.2581C17.28 16.7457 17.3034 16.7421 17.3275 16.7421C17.3546 16.7421 17.3816 16.7457 17.4123 16.7531C17.7048 16.8233 17.9979 16.8577 18.2911 16.8577C18.5843 16.8577 18.8862 16.8218 19.1837 16.7523C19.2108 16.7465 19.2364 16.7428 19.2598 16.7428C19.2905 16.7428 19.3197 16.7494 19.3439 16.7626C19.3658 16.7743 19.3877 16.7984 19.3987 16.8196C19.4067 16.8372 19.4133 16.854 19.417 16.8731C19.4228 16.9001 19.425 16.9272 19.425 16.9565V16.9616C19.4228 17.1899 19.4221 17.4182 19.4221 17.6465C19.4221 17.828 19.4221 18.0102 19.4235 18.1924V18.1968C19.4235 18.2458 19.417 18.2868 19.4023 18.3234H19.4016C19.3885 18.3578 19.3629 18.39 19.3344 18.409C19.3139 18.4229 19.2905 18.4331 19.2664 18.4405C19.2327 18.45 19.1969 18.4536 19.1567 18.4536H19.1479C19.028 18.4522 18.9081 18.4514 18.7882 18.4514C18.6172 18.4514 18.4461 18.4522 18.2743 18.4522H18.2304C18.0849 18.4522 17.9395 18.4514 17.7947 18.4514C17.6821 18.4514 17.5681 18.4522 17.4555 18.4544H17.4394C17.3933 18.4544 17.3517 18.45 17.3129 18.4375C17.2764 18.4266 17.2435 18.4068 17.2186 18.3783C17.2025 18.3585 17.1894 18.3358 17.1799 18.3102H17.1806C17.1682 18.2751 17.1623 18.2363 17.1623 18.1902V18.1821C17.1652 17.9904 17.166 17.798 17.166 17.6077C17.166 17.3889 17.1645 17.1709 17.1623 16.9528ZM15.4099 12.787C15.396 12.6641 15.3895 12.5419 15.3895 12.4211C15.3895 11.6345 15.6826 10.9189 16.1783 10.3906C16.6732 9.86223 17.3685 9.52197 18.1719 9.48319C18.218 9.48099 18.2641 9.48026 18.3108 9.48026C19.0324 9.48026 19.7321 9.74735 20.2628 10.2296C20.7936 10.7111 21.1555 11.4077 21.203 12.2638C21.2059 12.3194 21.2074 12.3736 21.2074 12.4277C21.2074 13.2334 20.8769 13.9468 20.3652 14.459C19.8556 14.9698 19.1655 15.2837 18.441 15.2947H18.4366C18.3657 15.3005 18.2955 15.3042 18.2253 15.3042C17.5396 15.3035 16.875 15.0144 16.3633 14.5556C15.85 14.0976 15.4882 13.469 15.4099 12.787Z" fill="currentColor"/>
<path id="Vector_3" d="M17.1618 4.94532C17.1618 4.96654 17.1611 4.98703 17.1596 5.00825C17.145 5.19704 17.0638 5.36534 16.9351 5.48828C16.8079 5.61048 16.6354 5.69097 16.438 5.70268C16.3817 5.70633 16.3247 5.70707 16.2677 5.70707H8.77778C7.72064 5.70707 6.66351 5.70707 5.60637 5.7056H5.5296C5.41848 5.7056 5.30955 5.70194 5.20793 5.6778C5.04856 5.64048 4.91111 5.54828 4.81022 5.42388C4.70934 5.29949 4.64719 5.14289 4.63623 4.97679C4.6355 4.96581 4.63477 4.95337 4.63477 4.93947C4.63477 4.79824 4.68521 4.6497 4.77148 4.52164C4.85848 4.39432 4.97837 4.28895 5.11581 4.23187C5.22986 4.18358 5.34903 4.16602 5.4755 4.16602C9.0958 4.16675 12.7161 4.16675 16.3364 4.16748C16.4161 4.16748 16.4958 4.1726 16.5711 4.19089C16.9249 4.27578 17.1618 4.58604 17.1618 4.94532Z" fill="currentColor"/>
<path id="Vector_4" d="M11.7245 9.21291V9.21437C11.7238 9.27291 11.7165 9.33438 11.6997 9.39951C11.6587 9.55317 11.5915 9.67903 11.4957 9.77562C11.4014 9.87221 11.2771 9.94173 11.1221 9.97758C11.0022 10.0061 10.8757 10.0186 10.7515 10.0186C9.89828 10.02 9.04585 10.0208 8.19268 10.0208C7.33951 10.0208 6.47026 10.02 5.60832 10.0186C5.48477 10.0186 5.35829 10.0047 5.2384 9.97685C5.06732 9.93807 4.91891 9.83855 4.81145 9.7083H4.81072C4.70398 9.57586 4.63964 9.41268 4.63672 9.24291V9.22828C4.63672 9.07095 4.69521 8.91363 4.7939 8.78338C4.8926 8.65093 5.0315 8.54629 5.19088 8.49434C5.32905 8.44897 5.47161 8.44531 5.62002 8.44531H5.69386C6.10911 8.44604 6.52363 8.44604 6.93815 8.44604H10.8209C10.9423 8.44604 11.057 8.45848 11.1638 8.49068C11.2734 8.52434 11.3743 8.57995 11.4643 8.66703C11.5454 8.74825 11.6105 8.8324 11.6558 8.92314C11.6997 9.01388 11.7238 9.10973 11.7245 9.21291Z" fill="currentColor"/>
</g>
<defs>
<clipPath id="clip0_928_455">
<rect width="22.8571" height="20" fill="currentColor" transform="translate(0.818359 -0.00195312)"/>
</clipPath>
</defs>
</svg>
