<svg width="24" height="24" viewBox="0 0 24 24" fill="none" xmlns="http://www.w3.org/2000/svg">
<rect width="24" height="24" fill="#1E1E1E"/>
<g id="&#216;&#167;&#217;&#132;&#216;&#177;&#216;&#166;&#217;&#138;&#216;&#179;&#217;&#138;&#216;&#169;">
<rect width="1920" height="1080" transform="translate(-1805 -452)" fill="#0E0E0E"/>
<g id="Frame 34431" clip-path="url(#clip0_0_1)" filter="url(#filter0_d_0_1)">
<g id="Frame 72">
<g id="Frame 5">
<g id="classes icon">
<path id="Vector" d="M24.0016 2.54636C24.0016 1.87534 23.7444 1.24068 23.322 0.773763C22.9003 0.30615 22.3056 0 21.6345 0H21.628C18.4272 0.0104846 15.2264 0.0146784 12.0249 0.0146784C8.82342 0.0146784 5.62973 0.0104846 2.43214 0.00139795H2.42567C1.74547 0.00139795 1.14754 0.309645 0.72776 0.779355C0.307333 1.24906 0.0553353 1.88094 0.0546875 2.54496V2.56174C0.0689393 4.76979 0.0754174 6.97645 0.0754174 9.18451C0.0754174 11.3926 0.0689393 13.5538 0.0546875 15.7381V15.7556C0.0559831 16.4503 0.328063 17.0857 0.755616 17.547C0.969393 17.777 1.22333 17.9657 1.50383 18.0964C1.78369 18.2271 2.09075 18.3012 2.41077 18.3012C2.41465 18.3012 2.42307 18.3012 2.43279 18.3005H2.44575C3.834 18.2858 5.2229 18.2816 6.61115 18.2816C8.4166 18.2816 10.2227 18.2886 12.0281 18.2886C13.8336 18.2886 15.6513 18.2816 17.4613 18.2816C18.8502 18.2816 20.2372 18.2858 21.6241 18.3005H21.6468C22.3011 18.3005 22.8912 18.0021 23.3142 17.5379C23.5254 17.3059 23.6977 17.0312 23.8163 16.7292C23.9348 16.428 24.0009 16.098 24.0009 15.7569V15.7402C23.9873 13.5447 23.9802 11.3499 23.9802 9.15375C23.9802 6.95758 23.9873 4.76071 24.0016 2.56383V2.54636ZM22.566 15.4983C22.566 15.6801 22.5518 15.8576 22.5226 16.0351V16.0365C22.4987 16.191 22.4125 16.356 22.2888 16.4804C22.167 16.6062 22.0096 16.6894 21.8657 16.7055H21.8644C21.7576 16.7194 21.639 16.7222 21.5133 16.7215C18.0022 16.7222 14.4911 16.7222 10.98 16.7222C8.16395 16.7222 5.34793 16.7222 2.53126 16.7215H2.53061C2.47555 16.7215 2.42567 16.7229 2.38097 16.7229C2.26371 16.7229 2.17043 16.7145 2.105 16.6887C1.91908 16.6174 1.78952 16.5223 1.69882 16.4063C1.65348 16.3476 1.6172 16.2826 1.5887 16.2064C1.56084 16.1323 1.54011 16.047 1.5291 15.9478L1.52845 15.9373C1.50837 15.7311 1.49541 15.5242 1.49541 15.3215C1.49412 13.2861 1.49347 11.2507 1.49347 9.21456C1.49347 7.17845 1.49412 5.0382 1.49541 2.94967C1.49541 2.73928 1.50966 2.52469 1.53299 2.31011C1.54335 2.21714 1.56926 2.12837 1.60943 2.04589H1.61008C1.64959 1.96202 1.70401 1.88513 1.76879 1.81873C1.83292 1.75302 1.90677 1.6992 1.9871 1.66006C2.06743 1.62092 2.15294 1.59645 2.24104 1.59016H2.24169C2.34987 1.58178 2.46648 1.58038 2.58827 1.58038H12.0372C13.5343 1.58038 15.032 1.58108 16.5291 1.58108C18.2076 1.58108 19.8867 1.58038 21.5652 1.57758H21.569C21.744 1.57758 21.8936 1.59645 22.0154 1.64189C22.1391 1.68872 22.2382 1.75372 22.3393 1.87465C22.4287 1.98508 22.4812 2.10041 22.5161 2.23741C22.5505 2.37371 22.5641 2.53098 22.5634 2.70433C22.5647 3.44873 22.5647 4.19174 22.5647 4.93545V10.6279C22.5647 12.2502 22.5647 13.8732 22.566 15.4955V15.4983Z" fill="white"/>
<path id="Vector_2" d="M23.7921 21.1035C23.7428 21.0028 23.6709 20.9189 23.5861 20.856L23.5848 20.8546C23.5789 20.8504 23.5737 20.847 23.5679 20.8428C23.4779 20.7799 23.3775 20.7386 23.2719 20.7134C23.1663 20.6883 23.0548 20.6785 22.9363 20.6778H22.7024C21.7741 20.6778 20.8458 20.6771 19.9162 20.6771C18.022 20.6771 16.1278 20.6785 14.2336 20.6834H14.2311C14.2038 20.6841 14.1831 20.682 14.1715 20.6799C14.1663 20.6694 14.1572 20.6484 14.1488 20.6198C13.9888 20.1109 13.6869 19.686 13.304 19.3861H13.3034C12.9199 19.0862 12.4554 18.9108 11.9676 18.9038H11.9385C10.9518 18.9045 10.0585 19.5755 9.71907 20.596C9.71324 20.6135 9.70805 20.6261 9.70417 20.6345C9.69316 20.6359 9.67631 20.6373 9.65493 20.6366H9.65429C7.4323 20.6449 5.21032 20.6624 2.98964 20.6757C2.67869 20.6778 2.36644 20.6778 2.0542 20.6778H0.880371C0.855755 20.6778 0.820125 20.6764 0.779313 20.6764C0.733967 20.6764 0.67696 20.6778 0.611531 20.6904C0.533794 20.7051 0.458 20.7302 0.387389 20.768C0.318074 20.805 0.252645 20.8546 0.196934 20.9169C0.196286 20.9169 0.19499 20.9189 0.194342 20.9203C0.0965234 21.0294 0.0375729 21.1664 0.0142518 21.3111L0.00583027 21.3202L0.00323904 21.4019C0.00259123 21.4096 0.000647808 21.4355 0 21.4704C0 21.6319 0.044051 21.792 0.13604 21.9227C0.227381 22.0534 0.354351 22.1421 0.492334 22.1939C0.636796 22.2491 0.770892 22.254 0.876485 22.254C0.900453 22.254 0.927014 22.254 0.955517 22.254H0.9607C2.07882 22.2372 3.20082 22.2407 4.32736 22.2218C5.07752 22.2086 5.82833 22.2058 6.57979 22.2058C7.33125 22.2058 8.07882 22.2086 8.82768 22.2086C9.10365 22.2086 9.38026 22.2086 9.65688 22.2072H9.65882C9.66724 22.2072 9.67502 22.2072 9.68149 22.2079C9.68344 22.2134 9.68538 22.2204 9.68797 22.2281V22.2302L9.70222 22.2764L9.70417 22.2785C9.86482 22.7712 10.1525 23.1836 10.5126 23.4807C10.8838 23.7875 11.3321 23.9735 11.7992 23.9972H11.8089C11.8419 23.9986 11.8776 24 11.9164 24C12.4619 24.0007 12.9497 23.8085 13.3338 23.4996C13.7173 23.1913 14.0011 22.7684 14.1494 22.298C14.1553 22.2798 14.1604 22.2673 14.165 22.2582C14.1779 22.2568 14.1974 22.2547 14.2226 22.2547H14.2265C14.9877 22.2589 15.7476 22.2596 16.5075 22.2596C17.2025 22.2596 17.897 22.2596 18.5908 22.2596H18.8985V22.2554H20.9786C21.629 22.2554 22.2794 22.2554 22.9305 22.2554C23.0516 22.2554 23.1656 22.2442 23.2732 22.2169C23.3606 22.1953 23.4435 22.1624 23.52 22.1156H23.5258L23.5757 22.0792C23.6683 22.0107 23.7448 21.9192 23.7959 21.8101H23.7966C23.8471 21.7004 23.8698 21.5809 23.8698 21.4607V21.4467C23.8685 21.3292 23.8439 21.2125 23.7921 21.1056V21.1035ZM10.9402 21.4572C10.9402 21.3055 10.9687 21.1636 11.0186 21.0336C11.0691 20.9036 11.1397 20.7896 11.2291 20.6925C11.4079 20.4996 11.6521 20.3814 11.9307 20.3807H11.9352C12.2125 20.3828 12.4548 20.5003 12.6323 20.6918C12.8091 20.884 12.9173 21.1454 12.9186 21.4439V21.4474C12.9186 21.7696 12.8124 22.0303 12.6413 22.2169C12.4697 22.4036 12.2319 22.5182 11.9365 22.5196H11.9326C11.6398 22.5189 11.3975 22.4036 11.2226 22.2169C11.0477 22.0289 10.9415 21.7703 10.9402 21.4593V21.4572Z" fill="white"/>
<path id="Vector_3" d="M16.0228 4.84942C15.0012 3.74294 13.5903 3.05236 12.042 3.04956H12.0349C10.4808 3.05026 9.06535 3.73875 8.03987 4.84452C7.01439 5.9503 6.37565 7.47686 6.375 9.15299V9.15789C6.3763 10.8291 7.01568 12.3522 8.04116 13.4566C9.066 14.5609 10.4795 15.2494 12.0297 15.2494C13.5799 15.2494 14.9947 14.5623 16.0183 13.458C17.0425 12.3543 17.6812 10.8305 17.6825 9.15789V9.15299C17.6818 7.48035 17.045 5.95519 16.0228 4.84942ZM16.2178 9.16068V9.16418C16.2171 9.47871 16.1886 9.78486 16.1329 10.0791C16.0772 10.3741 15.9956 10.6572 15.89 10.9277C15.6788 11.4673 15.3737 11.951 14.996 12.3578C14.2394 13.1707 13.1938 13.6698 12.0252 13.6698H12.0226C10.8539 13.6698 9.81097 13.1672 9.05628 12.3494C8.30288 11.5309 7.83969 10.3993 7.83905 9.13063V9.12364C7.84164 7.87387 8.30806 6.75272 9.06729 5.94121C9.82652 5.1297 10.8747 4.62994 12.0433 4.62924H12.0485C12.6289 4.63064 13.1789 4.75645 13.6784 4.98432C14.1778 5.21218 14.6261 5.5421 15.0025 5.951C15.7546 6.7688 16.2178 7.89904 16.2178 9.15998V9.16068Z" fill="white"/>
<path id="Vector_4" d="M14.8867 8.65225C14.8167 8.55051 14.7247 8.46613 14.616 8.3892H14.6154C14.5614 8.35074 14.5107 8.31909 14.4681 8.29056H14.4674L14.4667 8.28931C13.4162 7.59632 12.3643 6.9058 11.3172 6.21032H11.3158C11.2452 6.16317 11.1652 6.11416 11.0719 6.07321C10.9779 6.03288 10.8652 6 10.7379 6C10.6299 6 10.5193 6.0242 10.4146 6.07135H10.4133C10.3213 6.11416 10.2426 6.17061 10.1806 6.23886C10.1333 6.29035 10.0987 6.34557 10.0733 6.40079C10.048 6.456 10.032 6.5106 10.022 6.56209C10.0013 6.66508 10.0007 6.75938 10 6.84004V9.04622C10 9.4197 10.0007 9.79257 10.0007 10.1648C10.0007 10.4794 10 10.7939 10 11.1085V11.1314C10.0007 11.24 9.99933 11.3752 10.048 11.5223C10.0727 11.598 10.1133 11.6755 10.174 11.7456L10.1753 11.7469C10.236 11.817 10.3153 11.8765 10.4073 11.9218H10.4079C10.5146 11.9739 10.6272 12.0006 10.7372 12C10.8885 12 11.0152 11.9528 11.1132 11.9026H11.1138C11.2105 11.8517 11.2898 11.7965 11.3551 11.7531H11.3558C11.6184 11.5781 11.8824 11.4044 12.1477 11.2301C12.9609 10.694 13.7748 10.1586 14.588 9.62134C14.7047 9.54441 14.804 9.45755 14.878 9.35456C14.9527 9.25095 15.0007 9.12811 15 8.9972C15 8.8725 14.9567 8.754 14.8867 8.65225ZM11.4725 10.0079V8.5654C11.4725 8.37121 11.4725 8.17702 11.4725 7.98283C11.9844 8.31971 12.4957 8.65846 13.0083 8.99596C12.5037 9.32726 11.9984 9.66042 11.4718 10.0079H11.4725Z" fill="white"/>
</g>
</g>
</g>
</g>
</g>
<defs>
<filter id="filter0_d_0_1" x="-154" y="-258" width="182" height="560.998" filterUnits="userSpaceOnUse" color-interpolation-filters="sRGB">
<feFlood flood-opacity="0" result="BackgroundImageFix"/>
<feColorMatrix in="SourceAlpha" type="matrix" values="0 0 0 0 0 0 0 0 0 0 0 0 0 0 0 0 0 0 127 0" result="hardAlpha"/>
<feOffset dy="4"/>
<feGaussianBlur stdDeviation="2"/>
<feComposite in2="hardAlpha" operator="out"/>
<feColorMatrix type="matrix" values="0 0 0 0 0 0 0 0 0 0 0 0 0 0 0 0 0 0 0.25 0"/>
<feBlend mode="normal" in2="BackgroundImageFix" result="effect1_dropShadow_0_1"/>
<feBlend mode="normal" in="SourceGraphic" in2="effect1_dropShadow_0_1" result="shape"/>
</filter>
<clipPath id="clip0_0_1">
<rect width="174" height="552.998" fill="white" transform="translate(-150 -258)"/>
</clipPath>
</defs>
</svg>
