<svg width="24" height="24" viewBox="0 0 24 24" fill="none" xmlns="http://www.w3.org/2000/svg">
<path d="M24.0013 12.6464C23.8582 13.0485 23.6628 13.4166 23.3016 13.6711C22.9859 13.8937 22.6384 14.0164 22.2522 14.0164C19.7558 14.0164 17.2617 14.021 14.7653 14.0164C13.7704 14.0164 12.9822 13.2258 12.9822 12.2283C12.9799 8.74068 12.9799 5.25531 12.9822 1.76768C12.9822 0.979265 13.4365 0.345356 14.1815 0.0681623C14.2406 0.0499857 14.2974 0.0227208 14.3542 0C17.1163 0 19.8807 0 22.6429 0C23.3403 0.206759 23.7923 0.661174 24.0013 1.3587V12.6464ZM14.5495 6.998C14.5495 8.68388 14.5495 10.3698 14.5495 12.0556C14.5495 12.4283 14.5722 12.4533 14.9493 12.4533C17.3208 12.4533 19.6922 12.4533 22.0637 12.4533C22.4294 12.4533 22.4839 12.3987 22.4839 12.0329C22.4839 8.67706 22.4839 5.3212 22.4839 1.96762C22.4839 1.59045 22.4112 1.51775 22.0319 1.51775C19.6763 1.51775 17.3208 1.51775 14.9629 1.51775C14.6018 1.51775 14.5472 1.57455 14.5472 1.94263C14.5472 3.62851 14.5472 5.31439 14.5472 7.00027L14.5495 6.998Z" fill="#CCF5FF"/>
<path d="M23.9988 22.6233C23.783 23.314 23.356 23.7911 22.6336 23.9638C22.5223 23.9911 22.4019 23.9956 22.2861 23.9956C19.7647 23.9956 17.2456 23.9979 14.7242 23.9956C13.777 23.9956 12.9888 23.2254 12.9843 22.2734C12.9752 20.7443 12.9729 19.2129 12.9843 17.6838C12.9911 16.7568 13.7838 15.9638 14.7129 15.9616C17.2411 15.9525 19.7692 15.9547 22.2974 15.9616C23.0039 15.9616 23.6444 16.4251 23.9057 17.0908C23.9375 17.1703 23.9693 17.2498 23.9988 17.3294V22.6233ZM18.5086 17.5247C17.316 17.5247 16.1212 17.5247 14.9287 17.5247C14.5811 17.5247 14.5493 17.5543 14.5493 17.8951C14.5493 19.2833 14.5493 20.6716 14.5493 22.0621C14.5493 22.4052 14.6107 22.4642 14.9627 22.4665C17.3251 22.4665 19.6897 22.4665 22.0521 22.4665C22.4019 22.4665 22.4837 22.387 22.4837 22.0439C22.4837 20.6716 22.4837 19.297 22.4837 17.9246C22.4837 17.5906 22.4201 17.527 22.0885 17.527C20.8959 17.527 19.7011 17.527 18.5086 17.527V17.5247Z" fill="#CCF5FF"/>
<path d="M9.67134 0C10.3006 0.209031 10.7685 0.583924 10.9638 1.24283C11.0161 1.4155 11.0456 1.59045 11.0456 1.77222C11.0456 3.25589 11.0456 4.73728 11.0456 6.22095C11.0433 7.23656 10.2619 8.02043 9.25111 8.0227C6.77063 8.02725 4.28787 8.02725 1.80738 8.0227C0.780657 8.0227 0.0151589 7.25247 0.0128874 6.23231C0.0128874 4.81226 0.0446885 3.38994 0.00152985 1.97216C-0.0348143 0.881566 0.580765 0.234024 1.38261 0H9.67134ZM5.52811 6.45497C6.71384 6.45497 7.89957 6.45497 9.08529 6.45497C9.44873 6.45497 9.47599 6.4277 9.47599 6.07326C9.47599 4.69184 9.47599 3.31042 9.47599 1.93127C9.47599 1.57228 9.41921 1.51548 9.05122 1.51548C6.69567 1.51548 4.34011 1.51548 1.98456 1.51548C1.61884 1.51548 1.54161 1.59045 1.54161 1.94944C1.54161 3.31496 1.54161 4.68048 1.54161 6.046C1.54161 6.3959 1.60067 6.45497 1.94821 6.45497C3.14075 6.45497 4.33557 6.45497 5.52811 6.45497Z" fill="#CCF5FF"/>
<path d="M0.0078125 16.9815C0.0078125 15.2343 0.0078125 13.4848 0.0078125 11.7375C0.0078125 10.7469 0.777854 9.96759 1.7705 9.96532C4.26689 9.96078 6.76328 9.96078 9.26194 9.96532C10.2455 9.96532 11.0383 10.7537 11.0405 11.7353C11.0451 15.232 11.0451 18.7287 11.0405 22.2254C11.0405 23.232 10.2614 23.9977 9.25512 23.9999C6.75874 23.9999 4.26235 23.9999 1.76369 23.9999C0.780125 23.9999 0.010084 23.232 0.0078125 22.2527C0.0078125 20.4964 0.0078125 18.7401 0.0078125 16.9838V16.9815ZM9.47546 16.9747C9.47546 15.2979 9.47546 13.6188 9.47546 11.942C9.47546 11.549 9.45729 11.5308 9.06659 11.5308C6.70195 11.5308 4.33958 11.5308 1.97494 11.5308C1.59105 11.5308 1.53881 11.5808 1.53881 11.9602C1.53881 15.307 1.53881 18.656 1.53881 22.0028C1.53881 22.3981 1.60695 22.4663 1.99993 22.4663C4.34867 22.4663 6.69741 22.4663 9.04387 22.4663C9.42322 22.4663 9.47546 22.414 9.47546 22.0323C9.47546 20.3464 9.47546 18.6606 9.47546 16.9747Z" fill="#CCF5FF"/>
</svg>
