<svg width="21" height="23" viewBox="0 0 21 23" fill="none" xmlns="http://www.w3.org/2000/svg">
<g id="Layer_1" clip-path="url(#clip0_928_462)">
<path id="Vector" d="M11.1075 -0.0013636C11.7045 0.146606 12.2237 0.428986 12.6023 0.935974C13.0069 1.47774 13.2028 2.08613 13.1089 2.77233C13.0858 2.94211 13.1648 2.99988 13.2996 3.06002C15.6278 4.10347 17.0661 5.90681 17.6608 8.42583C17.7997 9.01535 17.8297 9.61843 17.8331 10.2209C17.8418 11.5226 17.8354 12.8242 17.836 14.1259C17.836 14.489 17.8804 14.5356 18.225 14.5521C19.5544 14.6164 20.6736 15.75 20.6764 17.0971C20.6793 18.6469 19.4761 19.6827 18.2365 19.6922C16.8708 19.7022 15.505 19.6986 14.1392 19.691C13.952 19.6898 13.877 19.7487 13.8402 19.9362C13.5319 21.5238 12.2266 22.6115 10.6476 22.6079C9.11994 22.6044 7.81181 21.4973 7.51446 19.9427C7.47585 19.7417 7.39229 19.6892 7.19924 19.6904C5.8767 19.6992 4.55359 19.6963 3.23105 19.6945C1.81227 19.6922 0.687972 18.5962 0.67587 17.1478C0.664921 15.7895 1.6636 14.7991 2.82132 14.5934C2.9481 14.571 3.07776 14.5598 3.20627 14.5504C3.4362 14.5338 3.51227 14.4631 3.51457 14.2202C3.51918 13.6684 3.51227 13.1172 3.51803 12.5654C3.5284 11.5438 3.49671 10.5216 3.54166 9.49994C3.61657 7.79681 4.20898 6.30945 5.2964 5.02607C6.05938 4.12587 6.9889 3.46266 8.07517 3.0329C8.20022 2.98338 8.2613 2.91735 8.24228 2.77174C8.07286 1.47303 8.97645 0.308135 10.1019 0.044619C10.1503 0.0334181 10.1976 0.0139639 10.2448 -0.00195312C10.5324 -0.00195312 10.8199 -0.00195312 11.1075 -0.00195312V-0.0013636ZM10.6718 18.206C13.0651 18.206 15.4589 18.2066 17.8521 18.2042C18.0239 18.2042 18.1973 18.1912 18.3668 18.1641C18.9038 18.0775 19.2992 17.4738 19.1833 16.9303C19.0756 16.4244 18.6705 16.0872 18.123 16.069C16.9555 16.0295 16.3227 15.0774 16.3469 14.1737C16.3815 12.8584 16.3539 11.5414 16.3573 10.2256C16.3585 9.84245 16.332 9.4628 16.2778 9.08373C15.8554 6.11668 13.1919 3.74916 10.1641 4.05925C8.8076 4.19779 7.64469 4.74133 6.68232 5.71934C5.56782 6.85181 5.01806 8.24131 5.00077 9.84186C4.98464 11.3269 4.99904 12.8125 4.99616 14.2975C4.99443 15.0939 4.49769 15.7601 3.75027 15.9841C3.54915 16.0442 3.34169 16.0589 3.13308 16.0731C2.7199 16.1014 2.33207 16.4062 2.21048 16.7953C2.07044 17.2421 2.1857 17.6188 2.51993 17.9324C2.78559 18.1818 3.11637 18.2036 3.44945 18.2036C5.85711 18.2054 8.26476 18.2048 10.673 18.2048L10.6718 18.206ZM10.6822 21.1105C11.425 21.1029 12.1027 20.6047 12.3326 19.9085C12.388 19.7405 12.3563 19.6904 12.1788 19.6916C11.1726 19.698 10.1659 19.6975 9.15913 19.6916C8.98855 19.6904 8.96665 19.747 9.01564 19.8997C9.23865 20.5994 9.94631 21.1176 10.6816 21.1099L10.6822 21.1105ZM10.6713 1.48069C10.1987 1.48482 9.77862 1.85209 9.70428 2.32665C9.6674 2.56069 9.71177 2.60255 9.93882 2.5772C10.4396 2.52178 10.9427 2.5153 11.4429 2.57897C11.6336 2.60314 11.6705 2.52709 11.6526 2.36084C11.6008 1.87862 11.1553 1.47715 10.6713 1.48128V1.48069Z" fill="currentColor"/>
<path id="Vector_2" d="M4.64436 3.40789C4.63975 3.71621 4.49453 3.91311 4.31819 4.09409C3.89578 4.52916 3.53043 5.01021 3.21636 5.53193C2.73748 6.32719 2.39518 7.18023 2.18887 8.09104C2.09955 8.48484 1.88403 8.70414 1.55671 8.75189C1.03576 8.82794 0.618541 8.38285 0.73149 7.857C1.06976 6.27649 1.74803 4.86459 2.75304 3.6154C2.96338 3.35365 3.18352 3.10016 3.43016 2.87437C3.66067 2.66332 3.93151 2.62206 4.21216 2.75942C4.48877 2.89501 4.62822 3.13199 4.64436 3.4073V3.40789Z" fill="currentColor"/>
<path id="Vector_3" d="M16.7057 3.44639C16.7022 3.14986 16.8814 2.86512 17.1517 2.74957C17.4565 2.6187 17.7308 2.67883 17.9642 2.91346C18.8304 3.78477 19.504 4.79344 19.9979 5.92709C20.2705 6.55316 20.4866 7.19927 20.6174 7.87251C20.694 8.26572 20.4583 8.64655 20.0941 8.73969C19.7069 8.83873 19.3242 8.63063 19.2032 8.24037C19.1029 7.91849 19.0326 7.58659 18.9266 7.26707C18.5319 6.07152 17.9089 5.01628 17.048 4.1096C16.7921 3.84019 16.7074 3.67335 16.7051 3.44639H16.7057Z" fill="currentColor"/>
</g>
<defs>
<clipPath id="clip0_928_462">
<rect width="20" height="22.6087" fill="currentColor" transform="translate(0.675781 -0.00195312)"/>
</clipPath>
</defs>
</svg>
