<svg width="55" height="45" viewBox="0 0 55 45" fill="none" xmlns="http://www.w3.org/2000/svg">
<g clip-path="url(#clip0_226_63)">
<path d="M54.9872 17.3593C54.9856 16.7335 54.8943 16.135 54.6988 15.6253C54.5018 15.1156 54.2118 14.6978 53.7905 14.3768C53.3211 14.0236 52.9846 13.6042 52.7715 13.1606C52.5585 12.7187 52.4672 12.2686 52.4191 11.8444C52.3871 11.5589 52.3742 11.2831 52.3614 11.0137C52.355 10.8427 52.3502 10.7008 52.3358 10.5943C51.9337 7.56022 50.4582 4.91971 48.3194 3.03086C46.1791 1.14202 43.3835 0.00967811 40.3364 0.00322604C38.5325 0 36.727 0 34.9215 0C32.0795 0 29.2374 0.00161302 26.3954 0.00161302H12.2781C11.6149 0.00161302 10.9724 0.0258083 10.3428 0.111298C7.51522 0.493584 4.94233 1.97917 3.07273 4.10029C1.20154 6.22141 0.0464595 8.96354 0.0192246 11.8363C0.00480615 13.3106 0 14.7882 0 16.2641C0 18.2852 0.00801025 20.3079 0.0128164 22.3322C0.0128164 22.8016 0.139378 23.213 0.346043 23.5436C0.552707 23.8759 0.841077 24.1259 1.17751 24.2743C1.4034 24.3743 1.65171 24.4292 1.92406 24.4292H1.94649C2.22204 24.4259 2.46716 24.3695 2.68664 24.2711C2.90452 24.1727 3.09516 24.0324 3.25857 23.8533C3.58219 23.4936 3.79526 22.9726 3.79686 22.3177V21.3677C3.79686 19.5917 3.79205 17.8158 3.79205 16.0399C3.79205 14.8107 3.79526 13.5816 3.80167 12.3525C3.81448 9.93297 4.73086 7.78604 6.26081 6.2569C7.78917 4.72615 9.92791 3.8164 12.3278 3.81802C16.4819 3.81479 20.636 3.81479 24.7901 3.81479H40.0897C40.0897 3.81479 40.0929 3.81479 40.0929 3.81318C40.6504 3.81318 41.2015 3.85673 41.7526 3.94544C43.0759 4.15675 44.3095 4.73582 45.3557 5.55362C46.4018 6.37304 47.2637 7.43118 47.8372 8.62965C48.2201 9.42809 48.4748 10.2894 48.5614 11.1798C48.5774 11.346 48.5902 11.4911 48.5918 11.6444C48.5902 11.7379 48.587 11.8347 48.5662 11.946C48.5453 12.0557 48.5069 12.1815 48.4316 12.3089C48.3819 12.3928 48.3162 12.4735 48.2409 12.5396C48.14 12.6283 48.0295 12.688 47.9286 12.7267C47.794 12.7783 47.677 12.7977 47.5649 12.8106C47.4159 12.8267 47.2733 12.8283 47.1131 12.8283H47.0522C46.7687 12.8283 46.4867 12.8251 46.2079 12.8251C45.463 12.8251 44.7437 12.8445 44.0516 12.9477C41.9337 13.2655 40.0336 14.2639 38.595 15.7221C37.158 17.1803 36.1839 19.0917 35.9148 21.2435C35.8603 21.6741 35.8347 22.0984 35.8347 22.5177C35.8347 24.363 36.3425 26.089 37.2541 27.5649C38.1673 29.0424 39.4825 30.2699 41.1038 31.1119C41.9193 31.5345 42.7619 31.8007 43.6399 31.9636C44.5162 32.1249 45.4261 32.183 46.3633 32.183C46.5732 32.183 46.7831 32.1797 46.9946 32.1749C47.0634 32.1749 47.1291 32.1717 47.1932 32.1717C47.3214 32.1717 47.4399 32.1749 47.5617 32.1894C47.685 32.2039 47.8148 32.2281 47.9606 32.2894C48.0567 32.3297 48.1608 32.391 48.2522 32.4749C48.3771 32.5862 48.47 32.7362 48.5197 32.8749C48.587 33.0604 48.5966 33.2185 48.5982 33.3621C48.5966 33.5443 48.5774 33.7169 48.5517 33.9169C48.5389 34.0186 48.5229 34.0912 48.5149 34.1347C48.1352 36.2268 47.1083 38.0011 45.6344 39.2399C44.1621 40.4819 42.2477 41.1836 40.133 41.1836C38.3899 41.1852 36.6469 41.1852 34.9039 41.1852H29.2038C26.9721 41.1852 24.7389 41.1852 22.5056 41.1884C21.876 41.1917 21.3906 41.4046 21.0509 41.7352C20.7145 42.0691 20.5095 42.5305 20.5062 43.1208V43.1273C20.5079 43.4144 20.5607 43.6693 20.652 43.8919C20.745 44.1144 20.8763 44.3064 21.0445 44.4677C21.3794 44.7871 21.8632 44.9952 22.4928 44.9968C25.4245 44.9968 28.3547 45 31.2864 45C34.4104 45 37.5344 44.9984 40.66 44.9952C42.5985 44.9903 44.4104 44.4951 46.0846 43.5289C48.1673 42.3256 49.7004 40.832 50.7466 39.048C51.7927 37.264 52.3582 35.1783 52.4447 32.7669C52.4527 32.5572 52.4768 32.341 52.5457 32.1184C52.6129 31.8974 52.7299 31.6765 52.8885 31.491C52.9942 31.3668 53.1144 31.2555 53.2458 31.1555C53.8305 30.7119 54.2534 30.2038 54.5402 29.6295C54.8254 29.0553 54.976 28.4085 54.9824 27.6746C54.9952 26.089 55 24.5034 55 22.9162C55 21.0644 54.9936 19.2127 54.9872 17.3593ZM51.2047 22.5387C51.2047 23.363 51.1999 24.1856 51.1999 25.005C51.1999 25.647 51.2015 26.289 51.2128 26.9277V26.9713C51.2128 27.1019 51.2031 27.2342 51.1727 27.3762C51.1407 27.5149 51.083 27.6681 50.9837 27.8084C50.918 27.902 50.8331 27.9875 50.7418 28.0552C50.6184 28.1456 50.4854 28.202 50.3621 28.2359C50.1954 28.2811 50.0449 28.2923 49.8943 28.2923H49.8574C49.4313 28.2859 49.0035 28.2843 48.5742 28.2843C48.0247 28.2843 47.472 28.2875 46.9193 28.2875C46.3217 28.2875 45.7225 28.2843 45.1218 28.2698C43.5966 28.2375 42.222 27.5617 41.2384 26.5164C40.2531 25.4712 39.6459 24.0469 39.6459 22.4952V22.4903C39.6475 20.9402 40.2579 19.5175 41.2464 18.4755C42.2349 17.4335 43.6126 16.7609 45.1394 16.7302C45.7161 16.7173 46.2913 16.7141 46.8632 16.7141C47.4351 16.7141 47.9782 16.7173 48.5325 16.7173C48.9811 16.7173 49.4281 16.7157 49.8734 16.7093C49.8879 16.7076 49.8991 16.7076 49.9103 16.7076C50.0465 16.7093 50.1826 16.7189 50.3268 16.7544C50.471 16.7899 50.6264 16.8544 50.7642 16.9625C50.8555 17.0335 50.9372 17.1222 50.9997 17.2157C51.083 17.3416 51.1326 17.4738 51.1631 17.5948C51.2031 17.7561 51.2112 17.9029 51.2128 18.0465V18.0884C51.2031 18.7433 51.1999 19.3998 51.1999 20.0579C51.1999 20.8821 51.2047 21.7096 51.2047 22.5387Z" fill="white"/>
<path d="M2 34L8.33378 40L21 28" stroke="white" stroke-width="4" stroke-linecap="round" stroke-linejoin="round"/>
</g>
<defs>
<clipPath id="clip0_226_63">
<rect width="55" height="45" fill="white"/>
</clipPath>
</defs>
</svg>
