<svg width="25" height="21" viewBox="0 0 25 21" fill="none" xmlns="http://www.w3.org/2000/svg">
<g id="&#216;&#165;&#216;&#172;&#217;&#133;&#216;&#167;&#217;&#132;&#217;&#138; &#216;&#167;&#217;&#132;&#217;&#133;&#216;&#173;&#217;&#129;&#216;&#184;&#216;&#169;">
<path id="Vector" d="M12.0665 0.50466C13.7607 0.50466 15.455 0.491851 17.1492 0.508706C18.6989 0.524212 20.1524 0.861981 21.4031 1.77079C22.7889 2.77803 23.5113 4.13585 23.7529 5.74312C23.837 6.30404 23.8025 6.86767 23.8061 7.42994C23.8068 7.57961 23.8506 7.67872 23.9922 7.7603C24.5838 8.10211 24.9209 8.61247 24.9561 9.25295C25.0036 10.1247 25.0302 11.0011 24.9375 11.8722C24.8756 12.4473 24.5594 12.9017 24.0382 13.2125C23.8636 13.3163 23.7996 13.4316 23.8068 13.6217C23.8427 14.5831 23.8061 15.5405 23.4653 16.4614C22.6229 18.7368 20.8891 20.0117 18.3848 20.4041C17.8896 20.4816 17.3878 20.4998 16.8854 20.4998C13.5775 20.4984 10.2695 20.5025 6.96156 20.4971C5.65909 20.4951 4.41124 20.2625 3.2784 19.6301C1.56046 18.67 0.630322 17.2178 0.320517 15.3915C0.232104 14.8764 0.21629 14.3552 0.217009 13.8334C0.220603 11.4791 0.211977 9.12486 0.221322 6.77059C0.226353 5.56648 0.480811 4.41362 1.14642 3.3666C2.18366 1.73641 3.75641 0.875465 5.72594 0.597699C6.30314 0.516122 6.88465 0.501289 7.4676 0.503312C9.00082 0.508031 10.5333 0.50466 12.0665 0.50466ZM12.0349 18.8136V18.815C13.6486 18.815 15.2631 18.815 16.8768 18.815C17.262 18.815 17.6466 18.8163 18.0297 18.7644C19.3811 18.5824 20.5017 18.0403 21.2651 16.9441C21.9544 15.9551 22.0709 14.8427 22.0486 13.7013C22.0457 13.5563 21.9451 13.5462 21.8286 13.5462C21.4074 13.5462 20.9855 13.5563 20.5642 13.5435C18.8542 13.4923 17.3778 12.2336 17.303 10.6647C17.2297 9.14441 18.3812 7.74816 19.9741 7.50478C20.5721 7.41309 21.1724 7.46972 21.7718 7.46096C21.9774 7.45758 22.0565 7.40837 22.055 7.20341C22.0536 6.83261 22.0407 6.46315 21.9975 6.09572C21.848 4.82689 21.3125 3.75224 20.1732 2.99579C19.348 2.44768 18.4085 2.20092 17.4152 2.1962C14.0353 2.17867 10.6548 2.18879 7.27424 2.18811C6.87099 2.18811 6.46918 2.18811 6.06737 2.23868C4.63048 2.41936 3.45882 3.00119 2.69329 4.19383C2.22823 4.91791 2.02265 5.7175 2.01834 6.55282C2.00612 9.02508 2.0133 11.498 2.01259 13.9703C2.01259 14.3316 2.01187 14.6923 2.06578 15.0523C2.26561 16.3812 2.89456 17.4578 4.14097 18.1698C4.9029 18.6046 5.74606 18.8008 6.62732 18.8089C8.42936 18.8258 10.2314 18.8136 12.0342 18.8136H12.0349ZM21.6669 11.8526C21.6669 11.8526 21.6669 11.8533 21.6669 11.854C22.0608 11.854 22.4547 11.8526 22.8486 11.854C23.0671 11.8547 23.1836 11.7616 23.1836 11.5513C23.1836 10.8542 23.1829 10.1577 23.1836 9.4606C23.1836 9.2543 23.0808 9.14845 22.858 9.14913C22.0256 9.15115 21.1925 9.13497 20.3608 9.15924C19.701 9.17879 19.0231 9.81995 19.0893 10.5703C19.1547 11.3106 19.7958 11.8344 20.5923 11.8513C20.9502 11.8587 21.3082 11.8526 21.6662 11.8526H21.6669Z" fill="#CCF5FF"/>
<path id="Vector_2" d="M11.94 6.45609C11.0205 6.45609 10.1011 6.45887 9.18165 6.45401C8.83001 6.45192 8.55101 6.1558 8.48875 5.74081C8.43053 5.35641 8.62595 4.95463 8.93896 4.80587C9.02831 4.76347 9.11997 4.75582 9.21393 4.75582C11.0384 4.75582 12.8629 4.75443 14.6873 4.75652C15.1128 4.75652 15.431 5.12146 15.435 5.5997C15.4396 6.0842 15.1145 6.4547 14.6764 6.45609C13.7644 6.45887 12.8519 6.45679 11.94 6.45609Z" fill="#CCF5FF"/>
</g>
</svg>
