<svg width="25" height="21" viewBox="0 0 25 21" fill="none" xmlns="http://www.w3.org/2000/svg">
<g id="&#216;&#165;&#216;&#172;&#217;&#133;&#216;&#167;&#217;&#132;&#217;&#138; &#216;&#167;&#217;&#132;&#217;&#133;&#216;&#173;&#217;&#129;&#216;&#184;&#216;&#169;">
<path id="Vector" d="M12.067 0.50466C13.7612 0.50466 15.4555 0.491851 17.1497 0.508706C18.6994 0.524212 20.1529 0.861981 21.4036 1.77079C22.7894 2.77803 23.5118 4.13585 23.7534 5.74312C23.8375 6.30404 23.803 6.86767 23.8065 7.42994C23.8073 7.57961 23.8511 7.67872 23.9927 7.7603C24.5843 8.10211 24.9214 8.61247 24.9566 9.25295C25.0041 10.1247 25.0307 11.0011 24.9379 11.8722C24.8761 12.4473 24.5599 12.9017 24.0387 13.2125C23.864 13.3163 23.8001 13.4316 23.8073 13.6217C23.8432 14.5831 23.8065 15.5405 23.4658 16.4614C22.6234 18.7368 20.8896 20.0117 18.3853 20.4041C17.8901 20.4816 17.3883 20.4998 16.8859 20.4998C13.5779 20.4984 10.27 20.5025 6.96205 20.4971C5.65958 20.4951 4.41173 20.2625 3.27889 19.6301C1.56095 18.67 0.63081 17.2178 0.321005 15.3915C0.232592 14.8764 0.216778 14.3552 0.217497 13.8334C0.221091 11.4791 0.212466 9.12486 0.22181 6.77059C0.226842 5.56648 0.481299 4.41362 1.14691 3.3666C2.18415 1.73641 3.7569 0.875465 5.72642 0.597699C6.30363 0.516122 6.88514 0.501289 7.46809 0.503312C9.0013 0.508031 10.5338 0.50466 12.067 0.50466ZM12.0354 18.8136V18.815C13.6491 18.815 15.2635 18.815 16.8773 18.815C17.2625 18.815 17.6471 18.8163 18.0302 18.7644C19.3816 18.5824 20.5022 18.0403 21.2656 16.9441C21.9549 15.9551 22.0713 14.8427 22.0491 13.7013C22.0462 13.5563 21.9456 13.5462 21.8291 13.5462C21.4079 13.5462 20.986 13.5563 20.5647 13.5435C18.8547 13.4923 17.3783 12.2336 17.3035 10.6647C17.2302 9.14441 18.3817 7.74816 19.9746 7.50478C20.5726 7.41309 21.1728 7.46972 21.7723 7.46096C21.9779 7.45758 22.057 7.40837 22.0555 7.20341C22.0541 6.83261 22.0412 6.46315 21.998 6.09572C21.8485 4.82689 21.313 3.75224 20.1737 2.99579C19.3485 2.44768 18.409 2.20092 17.4156 2.1962C14.0358 2.17867 10.6553 2.18879 7.27473 2.18811C6.87148 2.18811 6.46967 2.18811 6.06786 2.23868C4.63096 2.41936 3.45931 3.00119 2.69378 4.19383C2.22872 4.91791 2.02314 5.7175 2.01882 6.55282C2.0066 9.02508 2.01379 11.498 2.01307 13.9703C2.01307 14.3316 2.01236 14.6923 2.06627 15.0523C2.26609 16.3812 2.89505 17.4578 4.14146 18.1698C4.90339 18.6046 5.74655 18.8008 6.62781 18.8089C8.42985 18.8258 10.2319 18.8136 12.0347 18.8136H12.0354ZM21.6674 11.8526C21.6674 11.8526 21.6674 11.8533 21.6674 11.854C22.0613 11.854 22.4552 11.8526 22.8491 11.854C23.0676 11.8547 23.1841 11.7616 23.1841 11.5513C23.1841 10.8542 23.1833 10.1577 23.1841 9.4606C23.1841 9.2543 23.0813 9.14845 22.8584 9.14913C22.0261 9.15115 21.193 9.13497 20.3613 9.15924C19.7014 9.17879 19.0236 9.81995 19.0897 10.5703C19.1552 11.3106 19.7963 11.8344 20.5928 11.8513C20.9507 11.8587 21.3087 11.8526 21.6667 11.8526H21.6674Z" fill="white"/>
<path id="Vector_2" d="M11.94 6.45609C11.0205 6.45609 10.1011 6.45887 9.18165 6.45401C8.83001 6.45192 8.55101 6.1558 8.48875 5.74081C8.43053 5.35641 8.62595 4.95463 8.93896 4.80587C9.02831 4.76347 9.11997 4.75582 9.21393 4.75582C11.0384 4.75582 12.8629 4.75443 14.6873 4.75652C15.1128 4.75652 15.431 5.12146 15.435 5.5997C15.4396 6.0842 15.1145 6.4547 14.6764 6.45609C13.7644 6.45887 12.8519 6.45679 11.94 6.45609Z" fill="white"/>
</g>
</svg>
