<svg width="23" height="24" viewBox="0 0 23 24" fill="none" xmlns="http://www.w3.org/2000/svg">
<g id="schedule">
<path id="Vector" d="M2.41972 7.13486H0.675781V6.37229C0.677173 4.23963 1.94948 2.56692 3.88749 2.15716C4.34939 2.05903 4.81964 2.06503 5.28779 2.08151C5.50135 2.089 5.58691 2.01259 5.57231 1.77737C5.55909 1.56463 5.55213 1.3489 5.64117 1.14439C5.80812 0.76086 6.13298 0.568344 6.55871 0.614038C6.89887 0.650743 7.1966 0.946634 7.26616 1.33391C7.2919 1.47924 7.30929 1.6313 7.30164 1.77887C7.28912 2.01633 7.38511 2.0845 7.5945 2.08151C8.2623 2.07102 8.9308 2.07776 9.5986 2.07776C10.736 2.07776 11.8726 2.06952 13.0093 2.08375C13.2757 2.08675 13.3508 1.99461 13.3494 1.7152C13.3453 1.00506 13.6743 0.608045 14.2259 0.611042C14.701 0.613289 15.0635 0.993827 15.0788 1.50695C15.0961 2.07776 15.0968 2.086 15.6297 2.07551C16.5312 2.05828 17.3973 2.19387 18.1666 2.74295C19.3193 3.5647 19.9495 4.72654 19.9648 6.21423C19.9676 6.52136 19.9704 6.82774 19.9718 7.13486H18.2279C18.2272 6.83373 18.2258 6.53185 18.2244 6.23071C18.2202 5.2921 17.7847 4.62242 17.0237 4.19019C16.6015 3.95048 16.141 3.94674 15.6791 3.95273C15.1024 3.96022 15.1024 3.95423 15.0788 4.5535C15.0593 5.03891 14.7212 5.4157 14.2697 5.45541C13.8607 5.49136 13.4572 5.14453 13.3793 4.68234C13.3557 4.54526 13.3369 4.40219 13.3466 4.2651C13.3647 4.01191 13.2632 3.94299 13.0413 3.95048C12.5821 3.96472 12.1216 3.95423 11.6618 3.95423C10.3081 3.95423 8.95445 3.95947 7.60076 3.94973C7.37259 3.94824 7.28633 4.02614 7.30164 4.27109C7.31068 4.41792 7.2912 4.57073 7.26407 4.71605C7.1806 5.16326 6.77574 5.49361 6.37367 5.45466C5.93334 5.41196 5.59387 5.04191 5.57091 4.57597C5.56465 4.44563 5.56326 4.31454 5.56952 4.1842C5.57857 4.01491 5.51039 3.94824 5.35527 3.95348C5.13823 3.96022 4.9205 3.96322 4.70416 3.95348C3.35743 3.89205 2.37798 5.06962 2.4072 6.4045C2.41276 6.64796 2.41694 6.89141 2.41972 7.13486Z" fill="currentColor"/>
<path id="Vector_2" d="M20.2132 12.0957C20.0281 11.9489 19.9676 11.8006 19.9683 11.5631C19.9718 10.1061 19.9788 8.64913 19.9788 7.19141H18.2299C18.2299 8.3922 18.2299 9.59299 18.2334 10.7938C18.2341 11.0417 18.1722 11.0867 17.9482 11.0395C14.6162 10.3368 11.4775 12.7534 10.9975 16.385C10.905 17.0846 10.9293 17.782 11.0796 18.4704C11.1283 18.6952 11.1012 18.7791 10.8591 18.7776C8.8195 18.7678 6.78061 18.7761 4.74103 18.7708C3.55081 18.7678 2.69241 18.0607 2.45241 16.9078C2.40998 16.7041 2.41972 16.4988 2.41972 16.2936C2.41833 14.2658 2.41902 12.238 2.41902 10.211C2.41902 9.20421 2.42668 8.19743 2.42876 7.19141H0.675781V16.2913C0.675781 16.5438 0.688303 16.7932 0.720301 17.0449C0.978379 19.0562 2.60754 20.6016 4.4913 20.6039C6.86061 20.6069 9.22992 20.6061 11.5985 20.6016C11.778 20.6016 11.8963 20.651 12.0103 20.8173C13.4155 22.8624 15.2944 23.7733 17.6456 23.4616C20.3614 23.1013 22.563 20.5304 22.6701 17.582C22.7529 15.2996 21.9237 13.4575 20.2132 12.0957ZM16.797 21.6691C14.2906 21.6481 12.6621 19.4465 12.6809 17.1873C12.6997 14.904 14.3532 12.7819 16.806 12.7714C19.3214 12.7616 20.9839 15.0029 20.9366 17.2255C20.977 19.5034 19.2532 21.6893 16.797 21.6691Z" fill="currentColor"/>
<path id="Vector_3" d="M17.7518 18.1373C17.4569 18.1373 17.1619 18.1388 16.867 18.1373C16.3313 18.1343 15.9647 17.792 15.9466 17.2212C15.9244 16.5305 15.9237 15.8376 15.9466 15.147C15.9654 14.5919 16.3626 14.2144 16.8489 14.2331C17.3289 14.2518 17.6732 14.6601 17.6801 15.2226C17.6836 15.5028 17.6878 15.7837 17.6795 16.0639C17.6739 16.2481 17.7441 16.3118 17.9104 16.3066C18.1963 16.2976 18.4829 16.2998 18.7695 16.3066C19.221 16.3171 19.5896 16.7208 19.5994 17.2085C19.6091 17.6991 19.23 18.1261 18.7674 18.1358C18.4293 18.1426 18.0906 18.1373 17.7525 18.1373H17.7518Z" fill="currentColor"/>
</g>
</svg>
