<svg width="50" height="50" viewBox="0 0 50 50" fill="none" xmlns="http://www.w3.org/2000/svg">

    <circle cx="25" cy="25" r="25" fill="var(--svg-sec-col)" />
    <g transform="translate(12,12) scale(1.1) ">

<g id="settings">
<path id="Vector" d="M9.41704 22.5665C8.71132 22.3516 8.22529 21.9262 8.05816 21.2048C8.00974 20.9956 7.98257 20.7817 7.94477 20.5702C7.90462 20.3449 7.87568 20.1167 7.82017 19.8942C7.63178 19.1355 6.86641 18.7302 6.10754 18.9866C5.74612 19.109 5.3912 19.2499 5.03036 19.3752C4.07071 19.7091 3.22503 19.3999 2.71715 18.5394C2.14489 17.5697 1.56969 16.6017 0.992713 15.6343C0.450579 14.7243 0.612983 13.8454 1.44744 13.1873C1.71083 12.9798 1.97245 12.7705 2.2323 12.559C2.91675 12.002 2.91794 11.1024 2.23407 10.5454C1.963 10.3247 1.68898 10.1074 1.41437 9.89012C0.631881 9.2699 0.456485 8.37951 0.95846 7.52648C1.55847 6.50618 2.16202 5.48761 2.77089 4.47248C3.22266 3.7189 4.09492 3.40965 4.94355 3.69763C5.30498 3.82007 5.66108 3.95745 6.02014 4.08678C6.90952 4.40753 7.71387 3.9402 7.85855 3.02222C7.91407 2.66871 7.97489 2.31577 8.03985 1.96341C8.19871 1.10866 8.91979 0.522921 9.81507 0.522347C11.0529 0.521197 12.2907 0.521197 13.5279 0.522347C14.4315 0.523496 15.1573 1.1213 15.3055 1.98525C15.3687 2.35256 15.4277 2.71987 15.4903 3.08718C15.6339 3.93273 16.4453 4.38913 17.2803 4.10288C17.7587 3.93905 18.2146 3.70338 18.7189 3.62175C19.4784 3.49874 20.1091 3.75914 20.5054 4.38569C21.1881 5.46576 21.8312 6.57114 22.4619 7.68111C22.8517 8.36686 22.6946 9.19345 22.1058 9.7309C21.8005 10.0097 21.4656 10.2592 21.1414 10.5184C20.4109 11.1018 20.4115 12.0031 21.1438 12.586C21.4172 12.8039 21.6912 13.0211 21.9635 13.2413C22.6969 13.8351 22.88 14.714 22.4123 15.521C21.8011 16.5764 21.178 17.6254 20.5449 18.6681C20.1038 19.3941 19.225 19.6856 18.3953 19.4039C18.041 19.2838 17.6914 19.1498 17.3394 19.0222C16.4323 18.6929 15.6297 19.1521 15.4833 20.0828C15.4272 20.4363 15.3746 20.7909 15.3002 21.1416C15.1602 21.802 14.7734 22.2653 14.1114 22.4964C14.0494 22.5183 13.9886 22.543 13.9271 22.5665H9.41822H9.41704ZM11.6736 20.8306C12.2116 20.8306 12.7496 20.8237 13.287 20.8346C13.4576 20.8381 13.5232 20.7754 13.5456 20.6219C13.5893 20.3248 13.6472 20.0287 13.6927 19.7315C13.9791 17.8582 15.9209 16.6908 17.7675 17.2886C18.1237 17.4041 18.4733 17.5375 18.8229 17.6703C18.9457 17.7168 19.0178 17.7082 19.0898 17.5852C19.6331 16.6574 20.1817 15.732 20.7345 14.8094C20.8148 14.6755 20.7936 14.595 20.6725 14.5024C20.3944 14.2903 20.1221 14.0702 19.8528 13.8477C18.416 12.6636 18.4213 10.4218 19.8628 9.24518C20.128 9.02847 20.3926 8.81119 20.666 8.60483C20.7959 8.50654 20.8136 8.42147 20.7292 8.28064C20.1788 7.36496 19.6337 6.4464 19.0945 5.5244C19.0166 5.39161 18.9404 5.38644 18.8105 5.43645C18.4615 5.57038 18.1112 5.70374 17.7551 5.81813C16.0402 6.36708 14.2136 5.39679 13.7695 3.69246C13.6685 3.30503 13.6242 2.90438 13.5498 2.51006C13.5261 2.38475 13.5155 2.26634 13.3171 2.26806C12.2192 2.27726 11.122 2.27439 10.0241 2.26979C9.88417 2.26921 9.82689 2.32037 9.80681 2.44855C9.76133 2.73826 9.70287 3.02682 9.65621 3.31653C9.32845 5.3485 7.33591 6.47169 5.35753 5.7388C5.07525 5.63419 4.79178 5.53417 4.51067 5.42725C4.39847 5.38472 4.32642 5.39334 4.2591 5.5083C3.71165 6.44238 3.15947 7.37358 2.60317 8.30248C2.52758 8.42837 2.55002 8.50597 2.66222 8.59219C2.92797 8.79625 3.18723 9.00893 3.44826 9.21989C4.93706 10.4224 4.94001 12.6745 3.45416 13.8782C3.19963 14.0846 2.94805 14.2961 2.68466 14.491C2.54352 14.5956 2.53289 14.6864 2.62029 14.8318C3.16656 15.7418 3.7081 16.654 4.24433 17.5697C4.31756 17.6944 4.38725 17.7254 4.52485 17.6714C4.83843 17.5472 5.15674 17.434 5.47447 17.3208C7.23315 16.6948 9.13888 17.6743 9.58476 19.4418C9.67747 19.8091 9.72826 20.1874 9.78555 20.5622C9.81448 20.7524 9.8759 20.8455 10.105 20.8369C10.6271 20.8168 11.1509 20.8306 11.6742 20.8306H11.6736Z" fill="var(--svg-pri-col)"/>
<path id="Vector_2" d="M7.28125 11.5502C7.28125 9.20033 9.25313 7.27987 11.6662 7.2793C14.0922 7.27872 16.0617 9.19861 16.0599 11.5628C16.0581 13.9075 14.0804 15.8245 11.6644 15.8239C9.25372 15.8228 7.28125 13.9 7.28184 11.5502H7.28125ZM11.6591 14.0391C13.0859 14.042 14.2203 12.9522 14.2256 11.5732C14.2309 10.1718 13.1107 9.06697 11.6809 9.0641C10.2535 9.06123 9.11966 10.1511 9.11435 11.5301C9.10903 12.9315 10.2299 14.0368 11.6591 14.0391Z" fill="var(--svg-pri-col)"/>
</g>

</g>
</svg>