<svg width="30" height="26" viewBox="0 0 30 26" fill="none" xmlns="http://www.w3.org/2000/svg">
<g id="Layer_1" clip-path="url(#clip0_1_1512)">
<path id="Vector" d="M30 3.69186V3.69662C29.999 4.52612 29.999 5.35658 29.999 6.18608V9.81897C29.999 10.2118 29.905 10.5343 29.7467 10.7579C29.668 10.8692 29.573 10.9567 29.4646 11.0157C29.3571 11.0737 29.2352 11.1051 29.1028 11.106H29.099C28.9656 11.106 28.8447 11.0746 28.7372 11.0166C28.5751 10.9291 28.4417 10.7778 28.3477 10.5752C28.2546 10.3707 28.2018 10.1167 28.2018 9.82372C28.2009 9.15213 28.2009 8.48053 28.2009 7.80989V3.70042C28.1999 3.42551 28.1692 3.18103 28.1068 2.96985C28.0138 2.65308 27.8478 2.40956 27.6117 2.24689C27.3766 2.08422 27.0734 2.00337 26.7078 2.00337H3.29602C3.05229 2.00337 2.83544 2.03951 2.64833 2.11086C2.3691 2.2174 2.15225 2.41051 2.01215 2.67591C1.87014 2.94322 1.80106 3.28377 1.80106 3.69757C1.8001 6.45053 1.8001 9.20255 1.8001 11.9555C1.8001 14.7085 1.8001 17.5328 1.80106 20.3219C1.80106 20.5949 1.83272 20.8365 1.89701 21.0458C1.99104 21.3607 2.16088 21.6042 2.39789 21.765H2.39885C2.63681 21.9276 2.94291 22.0085 3.31041 22.0085C5.70542 22.0094 8.09947 22.0094 10.4945 22.0094H16.9675C17.0299 22.0094 17.0913 22.0085 17.1527 22.0085C17.2141 22.0085 17.2794 22.0094 17.3408 22.0142C17.5768 22.0323 17.7851 22.1493 17.9348 22.3281C18.0835 22.507 18.1746 22.7467 18.1746 23.013V23.0235C18.1737 23.1576 18.1497 23.2851 18.1065 23.4002C18.0633 23.5162 18.001 23.6199 17.9252 23.7084H17.9242C17.8474 23.7969 17.7563 23.8692 17.6546 23.9205C17.5538 23.9719 17.4406 24.0023 17.3216 24.008C17.2362 24.0119 17.1518 24.0128 17.0664 24.0128C16.9541 24.0128 16.8409 24.0109 16.7257 24.0109H16.7085C14.1695 24.0109 11.6296 23.9995 9.08876 23.9995C7.15529 23.9995 5.22277 24.0061 3.2893 24.0299H3.2538C2.44203 24.0299 1.6293 23.6856 1.01903 23.0492C0.407804 22.4128 0 21.4853 0 20.3162V20.3095C0.00287862 18.2139 0.00383816 16.1173 0.00383816 14.0207C0.00383816 11.6958 0.00287862 9.37092 0.00287862 7.04507C0.00287862 5.92543 0.00287862 4.8058 0.00383816 3.6852C0.00383816 2.75106 0.256197 1.93297 0.700464 1.30228C0.923077 0.987414 1.19271 0.719157 1.50456 0.506073C1.81737 0.294892 2.17048 0.138885 2.55909 0.0475633C2.73181 0.00665886 2.9074 0 3.08492 0C3.17608 0 3.26723 0.00190253 3.36031 0.00190253H3.36319C5.73421 0 8.10427 0 10.4753 0H14.9573V0.00190253H15.0053C17.2631 0.00190253 19.5199 0 21.7767 0C23.4847 0 25.1927 0.000951266 26.8997 0.00475633C27.6376 0.0057076 28.3064 0.28538 28.8351 0.768623C29.3619 1.24996 29.7457 1.93773 29.9069 2.75296C29.9683 3.06117 30 3.37414 30 3.69186Z" fill="currentColor"/>
<path id="Vector_2"
            d="M27.0783 12.0125C26.0247 10.969 24.5729 10.3269 22.981 10.3269C22.6634 10.3269 22.3401 10.3526 22.0138 10.4059C20.8211 10.5999 19.8261 11.0499 19.0421 11.7367C18.2572 12.4235 17.6834 13.3472 17.339 14.4906C17.1576 15.0946 17.0684 15.6768 17.0684 16.2362C17.0684 17.0238 17.244 17.7668 17.5798 18.465C17.9166 19.1632 18.4156 19.8158 19.0632 20.4198C19.1765 20.5245 19.2599 20.6291 19.3146 20.7452H19.3156C19.3693 20.8603 19.3952 20.9868 19.3962 21.1333V21.1523L19.3952 21.1561C19.3895 21.6432 19.3866 22.1321 19.3866 22.6201C19.3866 23.1081 19.3895 23.637 19.3933 24.145C19.3981 24.7424 19.6102 25.2047 19.9345 25.5186C20.2588 25.8335 20.6954 26 21.1502 26C21.1963 26 21.2424 25.9981 21.2875 25.9952H21.2884C21.4976 25.979 21.7058 25.9743 21.916 25.9743C22.2105 25.9743 22.5042 25.9838 22.7978 25.9866H22.8947V25.9857H22.9427C23.3092 25.9857 23.6757 25.9847 24.0433 25.9847C24.2985 25.9847 24.5547 25.9857 24.8109 25.9866H24.8195C25.1525 25.9876 25.449 25.8849 25.7215 25.6937C25.9873 25.5063 26.1734 25.2818 26.2943 25.0249C26.4152 24.769 26.4718 24.4808 26.4738 24.1669C26.4786 23.6817 26.4805 23.1956 26.4805 22.7114C26.4805 22.1645 26.4776 21.6175 26.4738 21.0705V21.0629C26.4738 20.944 26.492 20.8403 26.5361 20.7461C26.5793 20.65 26.6474 20.5663 26.7415 20.4845C27.3412 19.9651 27.8181 19.3792 28.1597 18.7266C28.5003 18.074 28.7076 17.3539 28.769 16.5682C28.7805 16.4131 28.7863 16.26 28.7863 16.1068C28.7863 14.5011 28.1318 13.0561 27.0783 12.0125ZM21.4496 22.0417V22.0332C21.4496 21.9875 21.4544 21.9476 21.4659 21.9114C21.4755 21.8772 21.4928 21.8448 21.5177 21.822C21.535 21.8058 21.5552 21.7925 21.5744 21.7849H21.5753C21.6041 21.7725 21.6348 21.7678 21.6665 21.7678C21.702 21.7678 21.7375 21.7725 21.7778 21.782C22.1616 21.8734 22.5464 21.9181 22.9311 21.9181C23.3159 21.9181 23.7122 21.8715 24.1027 21.7811C24.1382 21.7735 24.1718 21.7687 24.2025 21.7687C24.2428 21.7687 24.2812 21.7773 24.3129 21.7944C24.3417 21.8096 24.3705 21.841 24.3848 21.8686C24.3954 21.8914 24.404 21.9133 24.4088 21.9381C24.4165 21.9733 24.4194 22.0084 24.4194 22.0465V22.0532C24.4165 22.35 24.4156 22.6467 24.4156 22.9435C24.4156 23.1795 24.4156 23.4163 24.4175 23.6532V23.6589C24.4175 23.7226 24.4088 23.7759 24.3896 23.8235H24.3887C24.3714 23.8682 24.3378 23.91 24.3004 23.9348C24.2735 23.9528 24.2428 23.9662 24.2112 23.9757C24.167 23.988 24.12 23.9928 24.0672 23.9928H24.0557C23.8984 23.9909 23.741 23.9899 23.5836 23.9899C23.3591 23.9899 23.1346 23.9909 22.9091 23.9909H22.8515C22.6606 23.9909 22.4696 23.9899 22.2796 23.9899C22.1318 23.9899 21.9822 23.9909 21.8344 23.9937H21.8133C21.7528 23.9937 21.6981 23.988 21.6473 23.9719C21.5993 23.9576 21.5561 23.9319 21.5235 23.8948C21.5024 23.8691 21.4851 23.8396 21.4726 23.8063H21.4736C21.4573 23.7607 21.4496 23.7103 21.4496 23.6503V23.6399C21.4535 23.3906 21.4544 23.1405 21.4544 22.8931C21.4544 22.6087 21.4525 22.3252 21.4496 22.0417ZM19.1496 16.6262C19.1314 16.4664 19.1227 16.3075 19.1227 16.1506C19.1227 15.1279 19.5075 14.1976 20.1581 13.5108C20.8077 12.824 21.7202 12.3816 22.7747 12.3312C22.8352 12.3284 22.8956 12.3274 22.9571 12.3274C23.9041 12.3274 24.8224 12.6746 25.519 13.3015C26.2156 13.9274 26.6906 14.8331 26.753 15.946C26.7568 16.0183 26.7587 16.0887 26.7587 16.1591C26.7587 17.2065 26.325 18.1339 25.6534 18.7998C24.9846 19.4638 24.0788 19.8719 23.1279 19.8862H23.1221C23.029 19.8938 22.9369 19.8985 22.8448 19.8985C21.9447 19.8976 21.0725 19.5218 20.4008 18.9254C19.7272 18.3299 19.2523 17.5128 19.1496 16.6262Z"
            fill="currentColor" />
<path id="Vector_3" d="M21.4515 6.43253C21.4515 6.46012 21.4505 6.48675 21.4486 6.51434C21.4294 6.75977 21.3229 6.97856 21.154 7.13837C20.9871 7.29723 20.7606 7.40187 20.5015 7.41709C20.4276 7.42185 20.3528 7.4228 20.278 7.4228H10.4475C9.05998 7.4228 7.67249 7.4228 6.28499 7.4209H6.18424C6.03839 7.4209 5.89542 7.41614 5.76204 7.38475C5.55286 7.33623 5.37247 7.21638 5.24005 7.05466C5.10764 6.89294 5.02608 6.68937 5.01168 6.47344C5.01073 6.45917 5.00977 6.443 5.00977 6.42492C5.00977 6.24133 5.07597 6.04822 5.1892 5.88175C5.30338 5.71623 5.46075 5.57925 5.64114 5.50505C5.79083 5.44226 5.94724 5.41943 6.11324 5.41943C10.8649 5.42038 15.6165 5.42038 20.3682 5.42134C20.4727 5.42134 20.5773 5.428 20.6762 5.45178C21.1406 5.56212 21.4515 5.96546 21.4515 6.43253Z" fill="currentColor"/>
<path id="Vector_4" d="M14.3145 11.9783V11.9802C14.3135 12.0564 14.3039 12.1363 14.2818 12.2209C14.2281 12.4207 14.1398 12.5843 14.0141 12.7099C13.8903 12.8354 13.7272 12.9258 13.5238 12.9724C13.3664 13.0095 13.2004 13.0257 13.0373 13.0257C11.9175 13.0276 10.7987 13.0285 9.67892 13.0285C8.55914 13.0285 7.41824 13.0276 6.28695 13.0257C6.12478 13.0257 5.95878 13.0076 5.80142 12.9715C5.57689 12.9211 5.3821 12.7917 5.24105 12.6224H5.24009C5.1 12.4502 5.01556 12.238 5.01172 12.0173V11.9983C5.01172 11.7938 5.08848 11.5893 5.21802 11.42C5.34756 11.2478 5.52987 11.1117 5.73905 11.0442C5.9204 10.9852 6.10751 10.9805 6.3023 10.9805H6.39921C6.94423 10.9814 7.48829 10.9814 8.03235 10.9814H13.1285C13.2877 10.9814 13.4384 10.9976 13.5785 11.0394C13.7224 11.0832 13.8548 11.1555 13.9729 11.2687C14.0794 11.3743 14.1648 11.4837 14.2243 11.6016C14.2818 11.7196 14.3135 11.8442 14.3145 11.9783Z" fill="currentColor"/>
</g>
<defs>
<clipPath id="clip0_1_1512">
<rect width="30" height="26" fill="currentColor"/>
</clipPath>
</defs>
</svg>
