<svg width="25" height="20" viewBox="0 0 25 20" fill="none" xmlns="http://www.w3.org/2000/svg">
<rect width="25" height="20" fill="#1E1E1E"/>
<g id="&#216;&#170;&#217;&#130;&#216;&#175;&#217;&#133; &#216;&#167;&#217;&#132;&#217;&#133;&#217;&#136;&#216;&#184;&#217;&#129;&#217;&#138;&#217;&#134;">
<rect width="1920" height="1137" transform="translate(-1817 -892)" fill="#F8F9FA"/>
<g id="&#216;&#165;&#216;&#172;&#217;&#133;&#216;&#167;&#217;&#132;&#217;&#138; &#216;&#167;&#217;&#132;&#217;&#133;&#216;&#173;&#217;&#129;&#216;&#184;&#216;&#169;">
<path id="Vector" d="M11.8497 0.00466039C13.5439 0.00466039 15.2382 -0.00814923 16.9324 0.00870553C18.4821 0.0242119 19.9356 0.361981 21.1863 1.27079C22.5721 2.27803 23.2945 3.63585 23.5361 5.24312C23.6202 5.80404 23.5857 6.36767 23.5893 6.92994C23.59 7.07961 23.6338 7.17872 23.7754 7.2603C24.367 7.60211 24.7041 8.11247 24.7394 8.75295C24.7868 9.62468 24.8134 10.5011 24.7207 11.3722C24.6588 11.9473 24.3426 12.4017 23.8214 12.7125C23.6468 12.8163 23.5828 12.9316 23.59 13.1217C23.6259 14.0831 23.5893 15.0405 23.2485 15.9614C22.4061 18.2368 20.6723 19.5117 18.168 19.9041C17.6728 19.9816 17.171 19.9998 16.6686 19.9998C13.3607 19.9984 10.0527 20.0025 6.74477 19.9971C5.44229 19.9951 4.19444 19.7625 3.06161 19.1301C1.34366 18.17 0.413525 16.7178 0.10372 14.8915C0.0153069 14.3764 -0.000506777 13.8552 0.000212029 13.3334C0.00380606 10.9791 -0.00481961 8.62486 0.00452486 6.27058C0.0095565 5.06648 0.264014 3.91362 0.929628 2.8666C1.96686 1.23641 3.53961 0.375465 5.50914 0.0976987C6.08634 0.0161216 6.66785 0.00128944 7.25081 0.00331201C8.78402 0.00803134 10.3165 0.00466039 11.8497 0.00466039ZM11.8181 18.3136V18.315C13.4318 18.315 15.0463 18.315 16.66 18.315C17.0453 18.315 17.4298 18.3163 17.8129 18.2644C19.1643 18.0824 20.2849 17.5404 21.0483 16.4441C21.7376 15.4551 21.8541 14.3427 21.8318 13.2013C21.8289 13.0563 21.7283 13.0462 21.6118 13.0462C21.1906 13.0462 20.7687 13.0563 20.3474 13.0435C18.6374 12.9923 17.161 11.7335 17.0862 10.1647C17.0129 8.64441 18.1644 7.24816 19.7573 7.00478C20.3554 6.91309 20.9556 6.96972 21.555 6.96096C21.7606 6.95758 21.8397 6.90837 21.8382 6.70341C21.8368 6.33261 21.8239 5.96315 21.7807 5.59572C21.6312 4.32689 21.0957 3.25224 19.9564 2.49579C19.1312 1.94768 18.1917 1.70092 17.1984 1.6962C13.8185 1.67867 10.438 1.68879 7.05745 1.68811C6.6542 1.68811 6.25238 1.68811 5.85057 1.73868C4.41368 1.91936 3.24203 2.50119 2.4765 3.69383C2.01143 4.41791 1.80585 5.2175 1.80154 6.05282C1.78932 8.52508 1.79651 10.998 1.79579 13.4703C1.79579 13.8316 1.79507 14.1923 1.84898 14.5523C2.04881 15.8812 2.67776 16.9578 3.92417 17.6698C4.68611 18.1046 5.52927 18.3008 6.41052 18.3089C8.21257 18.3258 10.0146 18.3136 11.8174 18.3136H11.8181ZM21.4501 11.3526C21.4501 11.3526 21.4501 11.3533 21.4501 11.354C21.844 11.354 22.2379 11.3526 22.6318 11.354C22.8503 11.3547 22.9668 11.2616 22.9668 11.0513C22.9668 10.3542 22.9661 9.65772 22.9668 8.9606C22.9668 8.7543 22.864 8.64845 22.6412 8.64913C21.8088 8.65115 20.9757 8.63497 20.144 8.65924C19.4842 8.67879 18.8063 9.31995 18.8725 10.0703C18.9379 10.8106 19.579 11.3344 20.3755 11.3513C20.7334 11.3587 21.0914 11.3526 21.4494 11.3526H21.4501Z" fill="#1024DD"/>
<path id="Vector_2" d="M11.7226 5.95609C10.8031 5.95609 9.88368 5.95887 8.96424 5.95401C8.61261 5.95192 8.3336 5.6558 8.27135 5.24081C8.21313 4.85641 8.40854 4.45463 8.72156 4.30587C8.81091 4.26347 8.90256 4.25582 8.99652 4.25582C10.821 4.25582 12.6455 4.25443 14.4699 4.25652C14.8953 4.25652 15.2135 4.62146 15.2176 5.0997C15.2222 5.5842 14.8971 5.9547 14.459 5.95609C13.547 5.95887 12.6345 5.95679 11.7226 5.95609Z" fill="#1024DD"/>
</g>
</g>
</svg>
