<svg width="25" height="17" viewBox="0 0 25 17" fill="none" xmlns="http://www.w3.org/2000/svg">
<path id="Vector" d="M5.16667 15.9999C5.24447 16 5.32465 16 5.40733 16H12.5M5.16667 15.9999C3.95878 15.999 3.32519 15.9835 2.83442 15.7278C2.37447 15.4881 2.00079 15.1046 1.76643 14.6342C1.5 14.0995 1.5 13.4004 1.5 12.0002V5.00024C1.5 3.60011 1.5 2.89953 1.76643 2.36475C2.00079 1.89434 2.37447 1.51217 2.83442 1.27248C3.35731 1 4.04233 1 5.41135 1H19.5891C20.9581 1 21.6417 1 22.1646 1.27248C22.6245 1.51217 22.9995 1.89434 23.2338 2.36475C23.5 2.899 23.5 3.59874 23.5 4.99614V12.0039C23.5 13.4013 23.5 14.1 23.2338 14.6342C22.9995 15.1046 22.6245 15.4881 22.1646 15.7278C21.6422 16 20.959 16 19.5927 16H12.5M5.16667 15.9999C5.16671 14.6193 6.80832 13.5 8.83333 13.5C10.8584 13.5 12.5 14.6193 12.5 16M5.16667 15.9999C5.16667 16 5.16667 15.9999 5.16667 15.9999ZM19.8333 11H14.9444M19.8333 7.25H16.1667M8.83333 9.75C7.4833 9.75 6.38889 8.63071 6.38889 7.25C6.38889 5.86929 7.4833 4.75 8.83333 4.75C10.1834 4.75 11.2778 5.86929 11.2778 7.25C11.2778 8.63071 10.1834 9.75 8.83333 9.75Z" stroke="white" stroke-width="1.4" stroke-linecap="round" stroke-linejoin="round"/>
</svg>
