<svg width="30" height="29" viewBox="0 0 27 17" fill="none" xmlns="http://www.w3.org/2000/svg">
<g clip-path="url(#clip0_34_68)" filter="url(#filter0_d_34_68)">
<path d="M26.5 3.33989V3.34355C26.4993 3.98163 26.4993 4.62044 26.4993 5.25852V8.05305C26.4993 8.35526 26.4303 8.60332 26.3142 8.77528C26.2565 8.86089 26.1869 8.92822 26.1074 8.97358C26.0285 9.01822 25.9392 9.04237 25.8421 9.0431H25.8393C25.7415 9.0431 25.6528 9.01895 25.574 8.97431C25.4551 8.90699 25.3573 8.79065 25.2883 8.63479C25.22 8.47746 25.1813 8.28209 25.1813 8.05671C25.1806 7.5401 25.1806 7.02349 25.1806 6.50761V3.34648C25.1799 3.13501 25.1574 2.94695 25.1117 2.7845C25.0434 2.54083 24.9217 2.3535 24.7486 2.22838C24.5762 2.10325 24.3538 2.04105 24.0857 2.04105H6.91708C6.73835 2.04105 6.57932 2.06886 6.44211 2.12374C6.23734 2.20569 6.07831 2.35424 5.97558 2.55839C5.87144 2.76401 5.82077 3.02598 5.82077 3.34428C5.82007 5.46195 5.82007 7.57888 5.82007 9.69654C5.82007 11.8142 5.82007 13.9868 5.82077 16.1322C5.82077 16.3422 5.84399 16.5281 5.89114 16.6891C5.9601 16.9313 6.08465 17.1186 6.25845 17.2423H6.25916C6.43366 17.3674 6.65813 17.4296 6.92763 17.4296C8.68398 17.4303 10.4396 17.4303 12.196 17.4303H16.9429C16.9886 17.4303 17.0336 17.4296 17.0787 17.4296C17.1237 17.4296 17.1715 17.4303 17.2166 17.434C17.3897 17.4479 17.5424 17.5379 17.6522 17.6755C17.7612 17.813 17.8281 17.9974 17.8281 18.2023V18.2104C17.8274 18.3135 17.8098 18.4116 17.7781 18.5001C17.7464 18.5894 17.7007 18.6692 17.6451 18.7372H17.6444C17.5881 18.8053 17.5213 18.8609 17.4467 18.9004C17.3728 18.9399 17.2898 18.9633 17.2025 18.9677C17.1399 18.9707 17.078 18.9714 17.0153 18.9714C16.933 18.9714 16.85 18.9699 16.7655 18.9699H16.7529C14.891 18.9699 13.0284 18.9611 11.1651 18.9611C9.74721 18.9611 8.33003 18.9663 6.91215 18.9846H6.88612C6.29082 18.9846 5.69482 18.7197 5.24729 18.2301C4.79906 17.7406 4.5 17.0271 4.5 16.1278V16.1227C4.50211 14.5107 4.50281 12.8979 4.50281 11.2852C4.50281 9.49678 4.50211 7.7084 4.50211 5.91929C4.50211 5.05803 4.50211 4.19677 4.50281 3.33477C4.50281 2.6162 4.68788 1.9869 5.01367 1.50176C5.17692 1.25955 5.37465 1.0532 5.60334 0.889287C5.83274 0.72684 6.09168 0.606834 6.37667 0.536587C6.50333 0.505122 6.6321 0.5 6.76227 0.5C6.82912 0.5 6.89597 0.501463 6.96423 0.501463H6.96634C8.70509 0.5 10.4431 0.5 12.1819 0.5H15.4687V0.501463H15.5039C17.1596 0.501463 18.8146 0.5 20.4696 0.5C21.7221 0.5 22.9747 0.500732 24.2265 0.503659C24.7676 0.50439 25.258 0.719523 25.6458 1.09125C26.0321 1.46151 26.3135 1.99056 26.4317 2.61766C26.4768 2.85475 26.5 3.09549 26.5 3.33989Z" fill="var(--svg-pri-col)"/>
<path d="M24.3582 9.7405C23.5856 8.93777 22.5209 8.44385 21.3535 8.44385C21.1206 8.44385 20.8835 8.4636 20.6443 8.50458C19.7696 8.65386 19.0399 8.99997 18.465 9.52829C17.8894 10.0566 17.4686 10.7671 17.216 11.6467C17.083 12.1113 17.0176 12.5592 17.0176 12.9894C17.0176 13.5953 17.1463 14.1668 17.3926 14.7039C17.6396 15.241 18.0055 15.743 18.4805 16.2076C18.5635 16.2881 18.6247 16.3686 18.6649 16.4579H18.6656C18.705 16.5464 18.724 16.6438 18.7247 16.7564V16.7711L18.724 16.774C18.7197 17.1487 18.7176 17.5248 18.7176 17.9002C18.7176 18.2755 18.7197 18.6824 18.7226 19.0731C18.7261 19.5327 18.8816 19.8883 19.1194 20.1298C19.3573 20.372 19.6774 20.5 20.011 20.5C20.0447 20.5 20.0785 20.4986 20.1116 20.4964H20.1123C20.2657 20.4839 20.4184 20.4803 20.5725 20.4803C20.7885 20.4803 21.0038 20.4876 21.2191 20.4898H21.2902V20.4891H21.3254C21.5942 20.4891 21.863 20.4883 22.1325 20.4883C22.3197 20.4883 22.5076 20.4891 22.6954 20.4898H22.7018C22.9459 20.4905 23.1634 20.4115 23.3632 20.2644C23.5581 20.1203 23.6946 19.9476 23.7833 19.75C23.872 19.5532 23.9135 19.3315 23.9149 19.09C23.9184 18.7168 23.9198 18.3429 23.9198 17.9704C23.9198 17.5497 23.9177 17.1289 23.9149 16.7082V16.7023C23.9149 16.6108 23.9282 16.5311 23.9606 16.4586C23.9923 16.3847 24.0422 16.3203 24.1112 16.2574C24.551 15.8579 24.9007 15.4071 25.1512 14.9051C25.401 14.4032 25.553 13.8492 25.598 13.2448C25.6065 13.1255 25.6107 13.0077 25.6107 12.8899C25.6107 11.6547 25.1308 10.5432 24.3582 9.7405ZM20.2305 17.4553V17.4487C20.2305 17.4136 20.234 17.3828 20.2425 17.355C20.2495 17.3287 20.2622 17.3038 20.2805 17.2862C20.2931 17.2738 20.3079 17.2635 20.322 17.2577H20.3227C20.3438 17.2482 20.3663 17.2445 20.3895 17.2445C20.4156 17.2445 20.4416 17.2482 20.4712 17.2555C20.7526 17.3257 21.0348 17.3601 21.317 17.3601C21.5991 17.3601 21.8897 17.3243 22.1761 17.2548C22.2022 17.2489 22.2268 17.2453 22.2493 17.2453C22.2789 17.2453 22.307 17.2518 22.3302 17.265C22.3513 17.2767 22.3724 17.3009 22.383 17.3221C22.3907 17.3396 22.3971 17.3565 22.4006 17.3755C22.4062 17.4026 22.4083 17.4297 22.4083 17.4589V17.464C22.4062 17.6923 22.4055 17.9207 22.4055 18.149C22.4055 18.3304 22.4055 18.5126 22.4069 18.6948V18.6992C22.4069 18.7483 22.4006 18.7892 22.3865 18.8258H22.3858C22.3732 18.8602 22.3485 18.8924 22.3211 18.9114C22.3014 18.9253 22.2789 18.9356 22.2556 18.9429C22.2233 18.9524 22.1888 18.9561 22.1501 18.9561H22.1416C22.0262 18.9546 21.9108 18.9539 21.7954 18.9539C21.6308 18.9539 21.4661 18.9546 21.3008 18.9546H21.2586C21.1185 18.9546 20.9785 18.9539 20.8392 18.9539C20.7308 18.9539 20.621 18.9546 20.5127 18.9568H20.4972C20.4529 18.9568 20.4127 18.9524 20.3755 18.94C20.3403 18.929 20.3086 18.9092 20.2847 18.8807C20.2692 18.8609 20.2565 18.8383 20.2474 18.8126H20.2481C20.2361 18.7775 20.2305 18.7387 20.2305 18.6926V18.6846C20.2333 18.4929 20.234 18.3004 20.234 18.1102C20.234 17.8914 20.2326 17.6733 20.2305 17.4553ZM18.5438 13.2894C18.5305 13.1665 18.5241 13.0443 18.5241 12.9236C18.5241 12.137 18.8063 11.4213 19.2834 10.893C19.7597 10.3647 20.4289 10.0244 21.2023 9.98563C21.2466 9.98344 21.2909 9.9827 21.336 9.9827C22.0305 9.9827 22.7039 10.2498 23.2147 10.732C23.7256 11.2135 24.0739 11.9101 24.1196 12.7663C24.1225 12.8219 24.1239 12.876 24.1239 12.9302C24.1239 13.7358 23.8058 14.4493 23.3132 14.9615C22.8228 15.4722 22.1585 15.7862 21.4612 15.7971H21.457C21.3887 15.803 21.3212 15.8066 21.2536 15.8066C20.5936 15.8059 19.954 15.5169 19.4614 15.0581C18.9674 14.6 18.6191 13.9714 18.5438 13.2894Z" fill="var(--svg-pri-col)"/>
<path d="M20.2311 5.44801C20.2311 5.46923 20.2304 5.48972 20.229 5.51094C20.2149 5.69973 20.1368 5.86803 20.0129 5.99096C19.8905 6.11316 19.7244 6.19365 19.5345 6.20536C19.4803 6.20902 19.4254 6.20975 19.3705 6.20975H12.1615C11.144 6.20975 10.1265 6.20975 9.109 6.20829H9.03511C8.92815 6.20829 8.82331 6.20463 8.7255 6.18048C8.5721 6.14316 8.43981 6.05096 8.34271 5.92657C8.2456 5.80217 8.18579 5.64558 8.17524 5.47947C8.17453 5.4685 8.17383 5.45606 8.17383 5.44215C8.17383 5.30093 8.22238 5.15238 8.30541 5.02433C8.38915 4.89701 8.50455 4.79163 8.63684 4.73456C8.74661 4.68626 8.86131 4.6687 8.98304 4.6687C12.4676 4.66943 15.9521 4.66943 19.4366 4.67016C19.5133 4.67016 19.59 4.67529 19.6625 4.69358C20.0031 4.77846 20.2311 5.08872 20.2311 5.44801Z" fill="var(--svg-pri-col)"/>
<path d="M14.9978 9.71413V9.7156C14.9971 9.77413 14.99 9.8356 14.9739 9.90073C14.9345 10.0544 14.8697 10.1803 14.7775 10.2768C14.6868 10.3734 14.5671 10.4429 14.418 10.4788C14.3026 10.5073 14.1808 10.5198 14.0612 10.5198C13.24 10.5212 12.4196 10.522 11.5984 10.522C10.7772 10.522 9.94057 10.5212 9.11095 10.5198C8.99203 10.5198 8.8703 10.5059 8.7549 10.4781C8.59024 10.4393 8.44739 10.3398 8.34396 10.2095H8.34325C8.24052 10.0771 8.1786 9.9139 8.17578 9.74413V9.7295C8.17578 9.57217 8.23207 9.41485 8.32707 9.2846C8.42206 9.15215 8.55576 9.04751 8.70916 8.99556C8.84215 8.95019 8.97936 8.94653 9.12221 8.94653H9.19328C9.59296 8.94726 9.99193 8.94727 10.3909 8.94727H14.1281C14.2449 8.94727 14.3553 8.9597 14.4581 8.9919C14.5636 9.02556 14.6607 9.08117 14.7473 9.16825C14.8254 9.24947 14.888 9.33363 14.9316 9.42436C14.9739 9.5151 14.9971 9.61096 14.9978 9.71413Z" fill="var(--svg-pri-col)"/>
</g>

</svg>
