<svg width="148" height="29" viewBox="0 0 148 29" fill="none" xmlns="http://www.w3.org/2000/svg">
<path d="M10.49 17.336C8.59133 17.336 7.15667 17.0907 6.186 16.6C5.21533 16.0987 4.73 15.2613 4.73 14.088C4.73 13.6933 4.778 13.2773 4.874 12.84C4.97 12.392 5.07133 11.9707 5.178 11.576L6.378 11.88C6.314 12.1147 6.23933 12.4133 6.154 12.776C6.07933 13.1387 6.042 13.4533 6.042 13.72C6.042 14.2747 6.18067 14.7227 6.458 15.064C6.746 15.3947 7.242 15.64 7.946 15.8C8.65 15.9493 9.63667 16.024 10.906 16.024C13.3913 16.024 15.2047 15.8907 16.346 15.624C17.498 15.3467 18.074 14.84 18.074 14.104C18.074 13.7093 17.9993 13.2453 17.85 12.712C17.7007 12.168 17.5087 11.592 17.274 10.984L18.506 10.552C18.7087 11.0747 18.8953 11.6347 19.066 12.232C19.2473 12.8293 19.338 13.368 19.338 13.848C19.338 14.4773 19.194 15.016 18.906 15.464C18.618 15.9013 18.138 16.2587 17.466 16.536C16.794 16.8133 15.8873 17.016 14.746 17.144C13.6153 17.272 12.1967 17.336 10.49 17.336ZM13.162 10.584C12.938 10.584 12.746 10.5093 12.586 10.36C12.4367 10.2 12.362 10.0133 12.362 9.8C12.362 9.58667 12.4367 9.4 12.586 9.24C12.746 9.08 12.938 9 13.162 9C13.3753 9 13.5567 9.08 13.706 9.24C13.866 9.4 13.946 9.58667 13.946 9.8C13.946 10.0133 13.866 10.2 13.706 10.36C13.5567 10.5093 13.3753 10.584 13.162 10.584ZM10.97 10.584C10.746 10.584 10.554 10.5093 10.394 10.36C10.2447 10.2 10.17 10.0133 10.17 9.8C10.17 9.58667 10.2447 9.4 10.394 9.24C10.554 9.08 10.746 9 10.97 9C11.1833 9 11.3647 9.08 11.514 9.24C11.674 9.4 11.754 9.58667 11.754 9.8C11.754 10.0133 11.674 10.2 11.514 10.36C11.3647 10.5093 11.1833 10.584 10.97 10.584ZM21.6126 17L21.2926 5.576H22.5886L22.9086 17H21.6126ZM23.6109 20.712L23.1469 19.496C24.1815 19.1547 24.9869 18.7493 25.5629 18.28C26.1495 17.8107 26.5602 17.32 26.7949 16.808C27.0402 16.2853 27.1629 15.7787 27.1629 15.288C27.1629 14.7653 27.0455 14.2373 26.8109 13.704C26.5869 13.16 26.3362 12.648 26.0589 12.168L27.2269 11.576C27.5255 12.1413 27.7762 12.6853 27.9789 13.208C28.1922 13.7307 28.3575 14.1893 28.4749 14.584C28.6242 15.0427 28.8162 15.3573 29.0509 15.528C29.2962 15.688 29.6269 15.768 30.0429 15.768C30.2669 15.768 30.4269 15.832 30.5229 15.96C30.6295 16.0773 30.6829 16.2213 30.6829 16.392C30.6829 16.5627 30.6082 16.7227 30.4589 16.872C30.3095 17.0107 30.1175 17.08 29.8829 17.08C29.4775 17.08 29.1362 17.016 28.8589 16.888C28.5922 16.76 28.3735 16.5893 28.2029 16.376C28.0962 16.9733 27.8722 17.5173 27.5309 18.008C27.1895 18.4987 26.7895 18.9253 26.3309 19.288C25.8722 19.6613 25.4029 19.9653 24.9229 20.2C24.4429 20.4347 24.0055 20.6053 23.6109 20.712ZM29.8906 17.08L30.0506 15.768C30.4986 15.768 30.8506 15.7307 31.1066 15.656C31.3626 15.5707 31.5546 15.416 31.6826 15.192C31.8213 14.9573 31.9386 14.6213 32.0346 14.184C32.1306 13.7467 32.248 13.176 32.3866 12.472L33.6346 12.712C33.5706 13 33.496 13.3307 33.4106 13.704C33.336 14.0773 33.2986 14.392 33.2986 14.648C33.2986 14.8613 33.3466 15.0533 33.4426 15.224C33.5386 15.3947 33.7413 15.528 34.0506 15.624C34.3706 15.72 34.8666 15.768 35.5386 15.768C35.7626 15.768 35.9226 15.832 36.0186 15.96C36.1253 16.0773 36.1786 16.2213 36.1786 16.392C36.1786 16.5627 36.104 16.7227 35.9546 16.872C35.8053 17.0107 35.6133 17.08 35.3786 17.08C34.536 17.08 33.912 16.9893 33.5066 16.808C33.1013 16.6267 32.824 16.3547 32.6746 15.992C32.3546 16.44 31.9866 16.7333 31.5706 16.872C31.1546 17.0107 30.5946 17.08 29.8906 17.08ZM32.6106 20.056C32.3866 20.056 32.1946 19.976 32.0346 19.816C31.8853 19.6667 31.8106 19.4853 31.8106 19.272C31.8106 19.0587 31.8853 18.872 32.0346 18.712C32.1946 18.552 32.3866 18.472 32.6106 18.472C32.824 18.472 33.0053 18.552 33.1546 18.712C33.3146 18.872 33.3946 19.0587 33.3946 19.272C33.3946 19.4853 33.3146 19.6667 33.1546 19.816C33.0053 19.976 32.824 20.056 32.6106 20.056ZM35.375 17.08L35.519 15.768C36.6177 15.768 37.6843 15.608 38.719 15.288C39.7537 14.9573 40.6977 14.4933 41.551 13.896C41.135 13.5333 40.623 13.24 40.015 13.016C39.4177 12.792 38.7563 12.68 38.031 12.68C37.7643 12.68 37.5297 12.696 37.327 12.728C37.1243 12.7493 36.879 12.792 36.591 12.856L36.335 11.64C36.9323 11.4587 37.4977 11.368 38.031 11.368C38.5857 11.368 39.087 11.4373 39.535 11.576C39.983 11.704 40.3883 11.864 40.751 12.056C41.1243 12.248 41.471 12.44 41.791 12.632C42.1217 12.824 42.4417 12.9893 42.751 13.128C43.0603 13.256 43.3803 13.32 43.711 13.32H44.047L44.159 14.472C43.8283 14.472 43.5083 14.5093 43.199 14.584C43.4017 15.064 43.6897 15.384 44.063 15.544C44.4363 15.6933 44.991 15.768 45.727 15.768C45.951 15.768 46.111 15.832 46.207 15.96C46.3137 16.0773 46.367 16.2213 46.367 16.392C46.367 16.5627 46.2923 16.7227 46.143 16.872C45.9937 17.0107 45.8017 17.08 45.567 17.08C44.991 17.08 44.4737 17.032 44.015 16.936C43.567 16.8293 43.183 16.6267 42.863 16.328C42.543 16.0187 42.3083 15.56 42.159 14.952C41.7537 15.144 41.3377 15.3627 40.911 15.608C40.495 15.8427 40.031 16.072 39.519 16.296C39.007 16.52 38.415 16.7067 37.743 16.856C37.071 17.0053 36.2817 17.08 35.375 17.08ZM37.887 9.72C37.663 9.72 37.471 9.64533 37.311 9.496C37.1617 9.336 37.087 9.14933 37.087 8.936C37.087 8.72267 37.1617 8.536 37.311 8.376C37.471 8.216 37.663 8.136 37.887 8.136C38.1003 8.136 38.2817 8.216 38.431 8.376C38.591 8.536 38.671 8.72267 38.671 8.936C38.671 9.14933 38.591 9.336 38.431 9.496C38.2817 9.64533 38.1003 9.72 37.887 9.72ZM45.5625 17.08L45.7065 15.768C46.3145 15.768 46.7412 15.7093 46.9865 15.592C47.2318 15.4747 47.3705 15.272 47.4025 14.984C47.4452 14.6853 47.4558 14.264 47.4345 13.72L47.1305 5.576H48.4265L48.7465 13.576C48.7785 14.3333 48.7252 14.9733 48.5865 15.496C48.4585 16.0187 48.1598 16.4133 47.6905 16.68C47.2318 16.9467 46.5225 17.08 45.5625 17.08ZM51.1908 17L50.8708 5.576H52.1668L52.4868 17H51.1908ZM54.4593 20.68L54.1713 19.368C54.8539 19.2827 55.4726 19.1547 56.0273 18.984C56.5819 18.8133 57.0566 18.568 57.4513 18.248C57.8459 17.928 58.1393 17.5013 58.3313 16.968C58.1393 17.0213 57.9366 17.0587 57.7233 17.08C57.5099 17.112 57.3019 17.128 57.0993 17.128C56.2779 17.128 55.6486 16.9627 55.2113 16.632C54.7739 16.3013 54.5553 15.7893 54.5553 15.096C54.5553 14.6907 54.6193 14.2853 54.7473 13.88C54.8753 13.464 55.0566 13.0853 55.2913 12.744C55.5259 12.4027 55.8086 12.1307 56.1393 11.928C56.4699 11.7147 56.8379 11.608 57.2433 11.608C57.8193 11.608 58.2939 11.8 58.6673 12.184C59.0513 12.5573 59.3339 13.0427 59.5153 13.64C59.7073 14.2373 59.8033 14.872 59.8033 15.544C59.8033 17.0373 59.3499 18.216 58.4433 19.08C57.5473 19.944 56.2193 20.4773 54.4593 20.68ZM55.8193 14.776C55.8193 15.1067 55.9259 15.3733 56.1393 15.576C56.3526 15.768 56.7206 15.864 57.2433 15.864C57.7019 15.864 58.1393 15.8 58.5553 15.672C58.5553 15.608 58.5553 15.5333 58.5553 15.448C58.5553 15.0107 58.4966 14.6 58.3793 14.216C58.2619 13.8213 58.0966 13.5067 57.8833 13.272C57.6699 13.0373 57.4139 12.92 57.1153 12.92C56.8593 12.92 56.6353 13.016 56.4433 13.208C56.2513 13.3893 56.0966 13.624 55.9793 13.912C55.8726 14.2 55.8193 14.488 55.8193 14.776ZM65.7008 23.288C65.4768 22.4667 65.2848 21.6613 65.1248 20.872C64.9648 20.0933 64.8421 19.3947 64.7568 18.776C64.6714 18.168 64.6288 17.7093 64.6288 17.4C64.6288 16.6107 64.7568 15.8907 65.0128 15.24C65.2688 14.5893 65.5994 14.0187 66.0048 13.528C66.4101 13.0267 66.8474 12.6053 67.3168 12.264C67.7861 11.912 68.2394 11.6507 68.6768 11.48C69.1248 11.2987 69.5034 11.208 69.8128 11.208C70.0688 11.208 70.2981 11.2667 70.5008 11.384C70.7141 11.5013 70.9114 11.7307 71.0928 12.072C71.2848 12.4133 71.4928 12.9147 71.7168 13.576C71.9194 14.1947 72.1114 14.6587 72.2928 14.968C72.4741 15.2773 72.6714 15.4907 72.8848 15.608C73.0981 15.7147 73.3434 15.768 73.6208 15.768C73.8448 15.768 74.0048 15.832 74.1008 15.96C74.2074 16.0773 74.2608 16.2213 74.2608 16.392C74.2608 16.5627 74.1861 16.7227 74.0368 16.872C73.8874 17.0107 73.6954 17.08 73.4608 17.08C73.0874 17.08 72.7621 17.0213 72.4848 16.904C72.2181 16.776 71.9781 16.6053 71.7648 16.392C71.5621 16.7013 71.3168 16.9253 71.0288 17.064C70.7408 17.2133 70.4314 17.288 70.1008 17.288C69.7061 17.288 69.2901 17.192 68.8528 17C68.4261 16.8187 68.0154 16.5467 67.6208 16.184C67.2261 15.8213 66.8848 15.384 66.5968 14.872C66.3301 15.2773 66.1541 15.7147 66.0688 16.184C65.9834 16.6427 65.9408 17.048 65.9408 17.4C65.9408 17.7093 65.9728 18.0933 66.0368 18.552C66.1008 19.0107 66.1808 19.5013 66.2768 20.024C66.3834 20.5467 66.4954 21.064 66.6128 21.576C66.7408 22.0987 66.8581 22.568 66.9648 22.984L65.7008 23.288ZM70.2288 15.976C70.5061 15.976 70.7141 15.8907 70.8528 15.72C70.9914 15.5493 71.0074 15.2987 70.9008 14.968C70.6554 14.1893 70.4314 13.608 70.2288 13.224C70.0368 12.8293 69.8234 12.632 69.5888 12.632C69.3541 12.632 69.0234 12.7387 68.5968 12.952C68.1808 13.1547 67.8021 13.4533 67.4608 13.848C67.6954 14.328 67.9781 14.728 68.3088 15.048C68.6501 15.368 68.9861 15.6027 69.3168 15.752C69.6581 15.9013 69.9621 15.976 70.2288 15.976ZM73.4531 17.08L73.6131 15.768C74.1465 15.768 74.5625 15.7307 74.8611 15.656C75.1598 15.5707 75.3838 15.416 75.5331 15.192C75.6931 14.9573 75.8211 14.6213 75.9171 14.184C76.0131 13.7467 76.1305 13.176 76.2691 12.472L77.5171 12.712C77.4531 13 77.3785 13.3307 77.2931 13.704C77.2185 14.0773 77.1811 14.392 77.1811 14.648C77.1811 14.808 77.1918 14.9573 77.2131 15.096C77.2345 15.2347 77.3145 15.352 77.4531 15.448C77.5918 15.544 77.8265 15.624 78.1571 15.688C78.4878 15.7413 78.9625 15.768 79.5811 15.768C79.8051 15.768 79.9651 15.832 80.0611 15.96C80.1678 16.0773 80.2211 16.2213 80.2211 16.392C80.2211 16.5627 80.1465 16.7227 79.9971 16.872C79.8478 17.0107 79.6558 17.08 79.4211 17.08C78.7278 17.08 78.1838 17.0427 77.7891 16.968C77.4051 16.8827 77.1171 16.7653 76.9251 16.616C76.7438 16.456 76.6105 16.2587 76.5251 16.024C76.2158 16.4613 75.8318 16.7493 75.3731 16.888C74.9251 17.016 74.2851 17.08 73.4531 17.08ZM77.4851 20.104C77.2611 20.104 77.0691 20.024 76.9091 19.864C76.7598 19.7147 76.6851 19.5333 76.6851 19.32C76.6851 19.1067 76.7598 18.92 76.9091 18.76C77.0691 18.6 77.2611 18.52 77.4851 18.52C77.6985 18.52 77.8798 18.6 78.0291 18.76C78.1891 18.92 78.2691 19.1067 78.2691 19.32C78.2691 19.5333 78.1891 19.7147 78.0291 19.864C77.8798 20.024 77.6985 20.104 77.4851 20.104ZM75.2931 20.104C75.0691 20.104 74.8771 20.024 74.7171 19.864C74.5678 19.7147 74.4931 19.5333 74.4931 19.32C74.4931 19.1067 74.5678 18.92 74.7171 18.76C74.8771 18.6 75.0691 18.52 75.2931 18.52C75.5065 18.52 75.6878 18.6 75.8371 18.76C75.9971 18.92 76.0771 19.1067 76.0771 19.32C76.0771 19.5333 75.9971 19.7147 75.8371 19.864C75.6878 20.024 75.5065 20.104 75.2931 20.104ZM79.4219 17.08L79.5659 15.768C80.1739 15.768 80.6005 15.7093 80.8459 15.592C81.0912 15.4747 81.2299 15.272 81.2619 14.984C81.3045 14.6853 81.3152 14.264 81.2939 13.72L81.0219 5.576H82.3499L82.6059 13.688C82.6165 14.232 82.7019 14.6587 82.8619 14.968C83.0219 15.2667 83.2352 15.4747 83.5019 15.592C83.7685 15.7093 84.0619 15.768 84.3819 15.768C84.6059 15.768 84.7659 15.832 84.8619 15.96C84.9685 16.0773 85.0219 16.2213 85.0219 16.392C85.0219 16.5627 84.9472 16.7227 84.7979 16.872C84.6485 17.0107 84.4565 17.08 84.2219 17.08C83.6779 17.08 83.2459 16.9787 82.9259 16.776C82.6059 16.5627 82.3765 16.3067 82.2379 16.008C82.0245 16.36 81.6939 16.6267 81.2459 16.808C80.8085 16.9893 80.2005 17.08 79.4219 17.08ZM84.2188 17.08L84.3788 15.768C84.9441 15.768 85.4828 15.72 85.9948 15.624C86.5068 15.528 86.9814 15.3947 87.4188 15.224C87.1628 14.9253 86.8748 14.6213 86.5548 14.312C86.2348 14.0027 85.8828 13.7093 85.4988 13.432C85.4348 13.3787 85.3708 13.2827 85.3068 13.144C85.2428 13.0053 85.1894 12.8613 85.1468 12.712C85.1041 12.5627 85.0828 12.4507 85.0828 12.376C85.0828 12.216 85.1841 12.024 85.3868 11.8C85.5894 11.576 85.8614 11.3627 86.2028 11.16C86.5441 10.9467 86.9334 10.7707 87.3708 10.632C87.8081 10.4933 88.2614 10.424 88.7308 10.424C89.3388 10.424 89.8294 10.5147 90.2028 10.696C90.5868 10.8773 90.8641 11.112 91.0348 11.4C91.2161 11.6773 91.3068 11.976 91.3068 12.296C91.3068 12.8187 91.1574 13.3413 90.8588 13.864C90.5601 14.376 90.1494 14.8453 89.6268 15.272C90.0854 15.4427 90.5814 15.5707 91.1148 15.656C91.6481 15.7307 92.1814 15.768 92.7148 15.768C92.9388 15.768 93.0988 15.832 93.1948 15.96C93.3014 16.0773 93.3548 16.2213 93.3548 16.392C93.3548 16.5627 93.2801 16.7227 93.1308 16.872C92.9814 17.0107 92.7894 17.08 92.5548 17.08C91.8508 17.08 91.1254 17 90.3788 16.84C89.6428 16.6693 88.9868 16.4133 88.4108 16.072C87.8241 16.3813 87.1734 16.6267 86.4588 16.808C85.7548 16.9893 85.0081 17.08 84.2188 17.08ZM86.2348 12.456C86.6401 12.7973 87.0188 13.1333 87.3708 13.464C87.7334 13.784 88.1334 14.1787 88.5708 14.648C89.0294 14.3493 89.3868 14.0293 89.6428 13.688C89.9094 13.336 90.0428 12.9893 90.0428 12.648C90.0428 12.4347 89.9254 12.2267 89.6908 12.024C89.4668 11.8213 89.0668 11.72 88.4908 11.72C88.1281 11.72 87.7228 11.7893 87.2748 11.928C86.8374 12.0667 86.4908 12.2427 86.2348 12.456ZM92.5625 17.08L92.7225 15.768C93.2558 15.768 93.6718 15.7307 93.9705 15.656C94.2692 15.5707 94.4932 15.416 94.6425 15.192C94.8025 14.9573 94.9305 14.6213 95.0265 14.184C95.1225 13.7467 95.2398 13.176 95.3785 12.472L96.6265 12.712C96.5625 13 96.4878 13.3307 96.4025 13.704C96.3278 14.0773 96.2905 14.392 96.2905 14.648C96.2905 14.808 96.3012 14.9573 96.3225 15.096C96.3438 15.2347 96.4238 15.352 96.5625 15.448C96.7012 15.544 96.9358 15.624 97.2665 15.688C97.5972 15.7413 98.0718 15.768 98.6905 15.768C98.9145 15.768 99.0745 15.832 99.1705 15.96C99.2772 16.0773 99.3305 16.2213 99.3305 16.392C99.3305 16.5627 99.2558 16.7227 99.1065 16.872C98.9572 17.0107 98.7652 17.08 98.5305 17.08C97.8372 17.08 97.2932 17.0427 96.8985 16.968C96.5145 16.8827 96.2265 16.7653 96.0345 16.616C95.8532 16.456 95.7198 16.2587 95.6345 16.024C95.3252 16.4613 94.9412 16.7493 94.4825 16.888C94.0345 17.016 93.3945 17.08 92.5625 17.08ZM96.8345 10.824C96.6105 10.824 96.4185 10.7493 96.2585 10.6C96.1092 10.44 96.0345 10.2533 96.0345 10.04C96.0345 9.82667 96.1092 9.64 96.2585 9.48C96.4185 9.32 96.6105 9.24 96.8345 9.24C97.0478 9.24 97.2292 9.32 97.3785 9.48C97.5385 9.64 97.6185 9.82667 97.6185 10.04C97.6185 10.2533 97.5385 10.44 97.3785 10.6C97.2292 10.7493 97.0478 10.824 96.8345 10.824ZM94.6425 10.824C94.4185 10.824 94.2265 10.7493 94.0665 10.6C93.9172 10.44 93.8425 10.2533 93.8425 10.04C93.8425 9.82667 93.9172 9.64 94.0665 9.48C94.2265 9.32 94.4185 9.24 94.6425 9.24C94.8558 9.24 95.0372 9.32 95.1865 9.48C95.3465 9.64 95.4265 9.82667 95.4265 10.04C95.4265 10.2533 95.3465 10.44 95.1865 10.6C95.0372 10.7493 94.8558 10.824 94.6425 10.824ZM98.5312 17.08L98.6753 15.768C99.2832 15.768 99.7099 15.7093 99.9553 15.592C100.201 15.4747 100.339 15.272 100.371 14.984C100.414 14.6853 100.425 14.264 100.403 13.72L100.099 5.576H101.395L101.715 13.576C101.747 14.3333 101.694 14.9733 101.555 15.496C101.427 16.0187 101.129 16.4133 100.659 16.68C100.201 16.9467 99.4913 17.08 98.5312 17.08ZM104.16 17L103.84 5.576H105.136L105.456 17H104.16Z" fill="white"/>
<g clip-path="url(#clip0_36_107)" filter="url(#filter0_d_36_107)">
<path d="M143.5 3.33989V3.34355C143.499 3.98163 143.499 4.62044 143.499 5.25852V8.05305C143.499 8.35526 143.43 8.60332 143.314 8.77528C143.257 8.86089 143.187 8.92822 143.107 8.97358C143.029 9.01822 142.939 9.04237 142.842 9.0431H142.839C142.741 9.0431 142.653 9.01895 142.574 8.97431C142.455 8.90699 142.357 8.79065 142.288 8.63479C142.22 8.47746 142.181 8.28209 142.181 8.05671C142.181 7.5401 142.181 7.02349 142.181 6.50761V3.34648C142.18 3.13501 142.157 2.94695 142.112 2.7845C142.043 2.54083 141.922 2.3535 141.749 2.22838C141.576 2.10325 141.354 2.04105 141.086 2.04105H123.917C123.738 2.04105 123.579 2.06886 123.442 2.12374C123.237 2.20569 123.078 2.35424 122.976 2.55839C122.871 2.76401 122.821 3.02598 122.821 3.34428C122.82 5.46195 122.82 7.57888 122.82 9.69654C122.82 11.8142 122.82 13.9868 122.821 16.1322C122.821 16.3422 122.844 16.5281 122.891 16.6891C122.96 16.9313 123.085 17.1186 123.258 17.2423H123.259C123.434 17.3674 123.658 17.4296 123.928 17.4296C125.684 17.4303 127.44 17.4303 129.196 17.4303H133.943C133.989 17.4303 134.034 17.4296 134.079 17.4296C134.124 17.4296 134.172 17.4303 134.217 17.434C134.39 17.4479 134.542 17.5379 134.652 17.6755C134.761 17.813 134.828 17.9974 134.828 18.2023V18.2104C134.827 18.3135 134.81 18.4116 134.778 18.5001C134.746 18.5894 134.701 18.6692 134.645 18.7372H134.644C134.588 18.8053 134.521 18.8609 134.447 18.9004C134.373 18.9399 134.29 18.9633 134.203 18.9677C134.14 18.9707 134.078 18.9714 134.015 18.9714C133.933 18.9714 133.85 18.9699 133.766 18.9699H133.753C131.891 18.9699 130.028 18.9611 128.165 18.9611C126.747 18.9611 125.33 18.9663 123.912 18.9846H123.886C123.291 18.9846 122.695 18.7197 122.247 18.2301C121.799 17.7406 121.5 17.0271 121.5 16.1278V16.1227C121.502 14.5107 121.503 12.8979 121.503 11.2852C121.503 9.49678 121.502 7.7084 121.502 5.91929C121.502 5.05803 121.502 4.19677 121.503 3.33477C121.503 2.6162 121.688 1.9869 122.014 1.50176C122.177 1.25955 122.375 1.0532 122.603 0.889287C122.833 0.72684 123.092 0.606834 123.377 0.536587C123.503 0.505122 123.632 0.5 123.762 0.5C123.829 0.5 123.896 0.501463 123.964 0.501463H123.966C125.705 0.5 127.443 0.5 129.182 0.5H132.469V0.501463H132.504C134.16 0.501463 135.815 0.5 137.47 0.5C138.722 0.5 139.975 0.500732 141.226 0.503659C141.768 0.50439 142.258 0.719523 142.646 1.09125C143.032 1.46151 143.314 1.99056 143.432 2.61766C143.477 2.85475 143.5 3.09549 143.5 3.33989Z" fill="white"/>
<path d="M141.358 9.7405C140.586 8.93777 139.521 8.44385 138.354 8.44385C138.121 8.44385 137.883 8.4636 137.644 8.50458C136.77 8.65386 136.04 8.99997 135.465 9.52829C134.889 10.0566 134.469 10.7671 134.216 11.6467C134.083 12.1113 134.018 12.5592 134.018 12.9894C134.018 13.5953 134.146 14.1668 134.393 14.7039C134.64 15.241 135.006 15.743 135.48 16.2076C135.564 16.2881 135.625 16.3686 135.665 16.4579H135.666C135.705 16.5464 135.724 16.6438 135.725 16.7564V16.7711L135.724 16.774C135.72 17.1487 135.718 17.5248 135.718 17.9002C135.718 18.2755 135.72 18.6824 135.723 19.0731C135.726 19.5327 135.882 19.8883 136.119 20.1298C136.357 20.372 136.677 20.5 137.011 20.5C137.045 20.5 137.079 20.4986 137.112 20.4964H137.112C137.266 20.4839 137.418 20.4803 137.572 20.4803C137.789 20.4803 138.004 20.4876 138.219 20.4898H138.29V20.4891H138.325C138.594 20.4891 138.863 20.4883 139.132 20.4883C139.32 20.4883 139.508 20.4891 139.695 20.4898H139.702C139.946 20.4905 140.163 20.4115 140.363 20.2644C140.558 20.1203 140.695 19.9476 140.783 19.75C140.872 19.5532 140.913 19.3315 140.915 19.09C140.918 18.7168 140.92 18.3429 140.92 17.9704C140.92 17.5497 140.918 17.1289 140.915 16.7082V16.7023C140.915 16.6108 140.928 16.5311 140.961 16.4586C140.992 16.3847 141.042 16.3203 141.111 16.2574C141.551 15.8579 141.901 15.4071 142.151 14.9051C142.401 14.4032 142.553 13.8492 142.598 13.2448C142.606 13.1255 142.611 13.0077 142.611 12.8899C142.611 11.6547 142.131 10.5432 141.358 9.7405ZM137.231 17.4553V17.4487C137.231 17.4136 137.234 17.3828 137.242 17.355C137.249 17.3287 137.262 17.3038 137.28 17.2862C137.293 17.2738 137.308 17.2635 137.322 17.2577H137.323C137.344 17.2482 137.366 17.2445 137.39 17.2445C137.416 17.2445 137.442 17.2482 137.471 17.2555C137.753 17.3257 138.035 17.3601 138.317 17.3601C138.599 17.3601 138.89 17.3243 139.176 17.2548C139.202 17.2489 139.227 17.2453 139.249 17.2453C139.279 17.2453 139.307 17.2518 139.33 17.265C139.351 17.2767 139.372 17.3009 139.383 17.3221C139.391 17.3396 139.397 17.3565 139.401 17.3755C139.406 17.4026 139.408 17.4297 139.408 17.4589V17.464C139.406 17.6923 139.406 17.9207 139.406 18.149C139.406 18.3304 139.406 18.5126 139.407 18.6948V18.6992C139.407 18.7483 139.401 18.7892 139.387 18.8258H139.386C139.373 18.8602 139.349 18.8924 139.321 18.9114C139.301 18.9253 139.279 18.9356 139.256 18.9429C139.223 18.9524 139.189 18.9561 139.15 18.9561H139.142C139.026 18.9546 138.911 18.9539 138.795 18.9539C138.631 18.9539 138.466 18.9546 138.301 18.9546H138.259C138.119 18.9546 137.978 18.9539 137.839 18.9539C137.731 18.9539 137.621 18.9546 137.513 18.9568H137.497C137.453 18.9568 137.413 18.9524 137.375 18.94C137.34 18.929 137.309 18.9092 137.285 18.8807C137.269 18.8609 137.257 18.8383 137.247 18.8126H137.248C137.236 18.7775 137.231 18.7387 137.231 18.6926V18.6846C137.233 18.4929 137.234 18.3004 137.234 18.1102C137.234 17.8914 137.233 17.6733 137.231 17.4553ZM135.544 13.2894C135.53 13.1665 135.524 13.0443 135.524 12.9236C135.524 12.137 135.806 11.4213 136.283 10.893C136.76 10.3647 137.429 10.0244 138.202 9.98563C138.247 9.98344 138.291 9.9827 138.336 9.9827C139.03 9.9827 139.704 10.2498 140.215 10.732C140.726 11.2135 141.074 11.9101 141.12 12.7663C141.122 12.8219 141.124 12.876 141.124 12.9302C141.124 13.7358 140.806 14.4493 140.313 14.9615C139.823 15.4722 139.159 15.7862 138.461 15.7971H138.457C138.389 15.803 138.321 15.8066 138.254 15.8066C137.594 15.8059 136.954 15.5169 136.461 15.0581C135.967 14.6 135.619 13.9714 135.544 13.2894Z" fill="white"/>
<path d="M137.231 5.44801C137.231 5.46923 137.23 5.48972 137.229 5.51094C137.215 5.69973 137.137 5.86803 137.013 5.99096C136.891 6.11316 136.724 6.19365 136.534 6.20536C136.48 6.20902 136.425 6.20975 136.371 6.20975H129.161C128.144 6.20975 127.126 6.20975 126.109 6.20829H126.035C125.928 6.20829 125.823 6.20463 125.725 6.18048C125.572 6.14316 125.44 6.05096 125.343 5.92657C125.246 5.80217 125.186 5.64558 125.175 5.47947C125.175 5.4685 125.174 5.45606 125.174 5.44215C125.174 5.30093 125.222 5.15238 125.305 5.02433C125.389 4.89701 125.505 4.79163 125.637 4.73456C125.747 4.68626 125.861 4.6687 125.983 4.6687C129.468 4.66943 132.952 4.66943 136.437 4.67016C136.513 4.67016 136.59 4.67529 136.663 4.69358C137.003 4.77846 137.231 5.08872 137.231 5.44801Z" fill="white"/>
<path d="M131.998 9.71413V9.7156C131.997 9.77413 131.99 9.8356 131.974 9.90073C131.934 10.0544 131.87 10.1803 131.778 10.2768C131.687 10.3734 131.567 10.4429 131.418 10.4788C131.303 10.5073 131.181 10.5198 131.061 10.5198C130.24 10.5212 129.42 10.522 128.598 10.522C127.777 10.522 126.941 10.5212 126.111 10.5198C125.992 10.5198 125.87 10.5059 125.755 10.4781C125.59 10.4393 125.447 10.3398 125.344 10.2095H125.343C125.241 10.0771 125.179 9.9139 125.176 9.74413V9.7295C125.176 9.57217 125.232 9.41485 125.327 9.2846C125.422 9.15215 125.556 9.04751 125.709 8.99556C125.842 8.95019 125.979 8.94653 126.122 8.94653H126.193C126.593 8.94726 126.992 8.94727 127.391 8.94727H131.128C131.245 8.94727 131.355 8.9597 131.458 8.9919C131.564 9.02556 131.661 9.08117 131.747 9.16825C131.825 9.24947 131.888 9.33363 131.932 9.42436C131.974 9.5151 131.997 9.61096 131.998 9.71413Z" fill="white"/>
</g>
<defs>
<filter id="filter0_d_36_107" x="117.5" y="0.5" width="30" height="28" filterUnits="userSpaceOnUse" color-interpolation-filters="sRGB">
<feFlood flood-opacity="0" result="BackgroundImageFix"/>
<feColorMatrix in="SourceAlpha" type="matrix" values="0 0 0 0 0 0 0 0 0 0 0 0 0 0 0 0 0 0 127 0" result="hardAlpha"/>
<feOffset dy="4"/>
<feGaussianBlur stdDeviation="2"/>
<feComposite in2="hardAlpha" operator="out"/>
<feColorMatrix type="matrix" values="0 0 0 0 0 0 0 0 0 0 0 0 0 0 0 0 0 0 0.25 0"/>
<feBlend mode="normal" in2="BackgroundImageFix" result="effect1_dropShadow_36_107"/>
<feBlend mode="normal" in="SourceGraphic" in2="effect1_dropShadow_36_107" result="shape"/>
</filter>
<clipPath id="clip0_36_107">
<rect width="22" height="20" fill="white" transform="translate(121.5 0.5)"/>
</clipPath>
</defs>
</svg>
