<svg width="10" height="10" viewBox="0 0 10 10" fill="none" xmlns="http://www.w3.org/2000/svg">
<g id="SVG" clip-path="url(#clip0_47_195)">
<path id="Vector" d="M8.75 0.625H1.24805C0.904297 0.625 0.625 0.908203 0.625 1.25586V8.74414C0.625 9.0918 0.904297 9.375 1.24805 9.375H8.75C9.09375 9.375 9.375 9.0918 9.375 8.74414V1.25586C9.375 0.908203 9.09375 0.625 8.75 0.625ZM3.26953 8.125H1.97266V3.94922H3.27148V8.125H3.26953ZM2.62109 3.37891C2.20508 3.37891 1.86914 3.04102 1.86914 2.62695C1.86914 2.21289 2.20508 1.875 2.62109 1.875C3.03516 1.875 3.37305 2.21289 3.37305 2.62695C3.37305 3.04297 3.03711 3.37891 2.62109 3.37891ZM8.13086 8.125H6.83398V6.09375C6.83398 5.60938 6.82422 4.98633 6.16016 4.98633C5.48438 4.98633 5.38086 5.51367 5.38086 6.05859V8.125H4.08398V3.94922H5.32812V4.51953H5.3457C5.51953 4.19141 5.94336 3.8457 6.57422 3.8457C7.88672 3.8457 8.13086 4.71094 8.13086 5.83594V8.125Z" fill="#0E0E0E"/>
</g>
<defs>
<clipPath id="clip0_47_195">
<rect width="10" height="10" fill="white"/>
</clipPath>
</defs>
</svg>
