<svg width="10" height="10" viewBox="0 0 10 10" fill="none" xmlns="http://www.w3.org/2000/svg">
<g id="SVG" clip-path="url(#clip0_47_192)">
<path id="Vector" d="M5.00146 2.75391C3.75928 2.75391 2.75732 3.75586 2.75732 4.99805C2.75732 6.24023 3.75928 7.24219 5.00146 7.24219C6.24365 7.24219 7.24561 6.24023 7.24561 4.99805C7.24561 3.75586 6.24365 2.75391 5.00146 2.75391ZM5.00146 6.45703C4.19873 6.45703 3.54248 5.80273 3.54248 4.99805C3.54248 4.19336 4.19678 3.53906 5.00146 3.53906C5.80615 3.53906 6.46045 4.19336 6.46045 4.99805C6.46045 5.80273 5.8042 6.45703 5.00146 6.45703ZM7.86084 2.66211C7.86084 2.95312 7.62647 3.18555 7.3374 3.18555C7.04639 3.18555 6.81396 2.95117 6.81396 2.66211C6.81396 2.37305 7.04834 2.13867 7.3374 2.13867C7.62647 2.13867 7.86084 2.37305 7.86084 2.66211ZM9.34717 3.19336C9.31396 2.49219 9.15381 1.87109 8.64014 1.35937C8.12842 0.847656 7.50732 0.6875 6.80615 0.652344C6.0835 0.611328 3.91748 0.611328 3.19482 0.652344C2.49561 0.685547 1.87451 0.845703 1.36084 1.35742C0.847168 1.86914 0.688965 2.49023 0.653809 3.19141C0.612793 3.91406 0.612793 6.08008 0.653809 6.80273C0.687012 7.50391 0.847168 8.125 1.36084 8.63672C1.87451 9.14844 2.49365 9.30859 3.19482 9.34375C3.91748 9.38477 6.0835 9.38477 6.80615 9.34375C7.50732 9.31055 8.12842 9.15039 8.64014 8.63672C9.15186 8.125 9.31201 7.50391 9.34717 6.80273C9.38818 6.08008 9.38818 3.91602 9.34717 3.19336ZM8.41357 7.57812C8.26123 7.96094 7.96631 8.25586 7.58154 8.41016C7.00537 8.63867 5.63818 8.58594 5.00146 8.58594C4.36475 8.58594 2.99561 8.63672 2.42139 8.41016C2.03857 8.25781 1.74365 7.96289 1.58936 7.57812C1.36084 7.00195 1.41357 5.63477 1.41357 4.99805C1.41357 4.36133 1.36279 2.99219 1.58936 2.41797C1.7417 2.03516 2.03662 1.74023 2.42139 1.58594C2.99756 1.35742 4.36475 1.41016 5.00146 1.41016C5.63818 1.41016 7.00732 1.35937 7.58154 1.58594C7.96436 1.73828 8.25928 2.0332 8.41357 2.41797C8.64209 2.99414 8.58936 4.36133 8.58936 4.99805C8.58936 5.63477 8.64209 7.00391 8.41357 7.57812Z" fill="#0E0E0E"/>
</g>
<defs>
<clipPath id="clip0_47_192">
<rect width="10" height="10" fill="white"/>
</clipPath>
</defs>
</svg>
