<svg width="22" height="21" viewBox="0 0 22 21" fill="none" xmlns="http://www.w3.org/2000/svg">
<path d="M11.94 7.18803C12.5899 7.49828 13.1557 7.95996 13.5901 8.53427C14.0245 9.10857 14.3148 9.77874 14.4365 10.4885C14.5581 11.1982 14.5077 11.9268 14.2894 12.613C14.0712 13.2992 13.6914 13.923 13.182 14.432L8.68203 18.932C7.83811 19.7759 6.69351 20.2501 5.50003 20.2501C4.30655 20.2501 3.16195 19.7759 2.31803 18.932C1.47411 18.0881 1 16.9435 1 15.75C1 14.5565 1.47411 13.4119 2.31803 12.568L4.07503 10.811M17.425 10.189L19.182 8.43203C20.0259 7.58811 20.5001 6.44351 20.5001 5.25003C20.5001 4.05655 20.0259 2.91195 19.182 2.06803C18.3381 1.22411 17.1935 0.75 16 0.75C14.8065 0.75 13.6619 1.22411 12.818 2.06803L8.31803 6.56803C7.80866 7.07703 7.42889 7.70084 7.21061 8.38705C6.99233 9.07326 6.94191 9.80184 7.0636 10.5116C7.18528 11.2213 7.47552 11.8915 7.90992 12.4658C8.34432 13.0401 8.9102 13.5018 9.56003 13.812" stroke="white" stroke-width="1.5" stroke-linecap="round" stroke-linejoin="round"/>
</svg>
