<svg width="23" height="26" viewBox="0 0 23 26" fill="none" xmlns="http://www.w3.org/2000/svg">
<g id="OBJECTS" clip-path="url(#clip0_34_75)">
<path id="Vector" d="M19.75 8.47149C19.75 9.53977 19.7475 10.6081 19.7461 11.6768C19.7456 11.8943 19.6744 12.0618 19.5703 12.1762C19.5177 12.2341 19.4573 12.2784 19.3881 12.3111C19.3183 12.3423 19.2412 12.3624 19.1518 12.3666C19.1351 12.3675 19.1184 12.368 19.1032 12.368C18.9996 12.368 18.9127 12.3521 18.837 12.3255C18.7246 12.2845 18.6425 12.2238 18.5733 12.1318C18.505 12.0399 18.4535 11.9139 18.4348 11.7463C18.4196 11.6152 18.4137 11.4785 18.4132 11.3394C18.4117 10.8801 18.4117 10.42 18.4117 9.96027V9.4287C18.4117 8.30348 18.4107 7.17732 18.395 6.05023C18.3916 5.79215 18.3307 5.54479 18.2266 5.31938C18.0699 4.98055 17.8175 4.69026 17.5081 4.47278C17.1977 4.25529 16.8274 4.10968 16.4311 4.06814C16.1354 4.03781 15.8462 4.03081 15.5633 4.03081H4.5104C4.28498 4.03081 4.04875 4.03454 3.80516 4.06674C3.56157 4.09988 3.30963 4.16335 3.06457 4.2861C2.85045 4.39344 2.66284 4.51991 2.50274 4.66739C2.2621 4.88768 2.08776 5.1495 1.97726 5.43465C1.92176 5.57746 1.881 5.72587 1.85399 5.87849C1.82649 6.0311 1.81273 6.18838 1.81077 6.34892C1.80733 6.59394 1.80635 6.8385 1.80635 7.08305C1.80635 7.46201 1.80881 7.84004 1.80881 8.2162V22.3741C1.80881 22.551 1.82157 22.726 1.85055 22.8978C1.87953 23.07 1.92569 23.2384 1.99297 23.4018C2.06025 23.5656 2.14914 23.7229 2.26161 23.8704C2.37456 24.0178 2.5106 24.1555 2.67168 24.2797C2.90889 24.464 3.17114 24.5872 3.43929 24.6633C3.70792 24.7389 3.98196 24.7683 4.25453 24.7716C4.51285 24.7748 4.77019 24.7758 5.02753 24.7758C5.37327 24.7758 5.71852 24.7739 6.06181 24.7739C6.13007 24.7739 6.19834 24.7744 6.26709 24.7744C6.48367 24.7753 6.64476 24.8276 6.75968 24.9064C6.81763 24.9466 6.86428 24.9928 6.90357 25.0493H6.90406C6.94237 25.1053 6.97282 25.1706 6.99295 25.2499C7.00621 25.3027 7.0121 25.3521 7.0121 25.3997C7.01112 25.516 6.9792 25.6154 6.90897 25.7152C6.83874 25.8142 6.72874 25.9099 6.56863 25.9906C6.56814 25.9906 6.56814 25.9911 6.56765 25.9911C6.56127 25.9943 6.55537 25.9971 6.54997 25.9999H3.5876C3.17212 25.929 2.78906 25.8104 2.4389 25.6396C2.08088 25.4642 1.75822 25.2345 1.46896 24.9363C1.15072 24.6078 0.910567 24.2563 0.748992 23.8778C0.667959 23.6883 0.606571 23.4919 0.565317 23.2875C0.524064 23.083 0.502947 22.8702 0.502456 22.6481C0.501473 19.5856 0.5 16.5231 0.5 13.4605C0.5 11.0276 0.500982 8.5947 0.503929 6.16178C0.504911 5.2349 0.902218 4.3953 1.54508 3.78299C2.18843 3.17161 3.07096 2.79311 4.04433 2.79124C6.0677 2.78751 8.09058 2.78564 10.1139 2.78564C12.1373 2.78564 14.1695 2.78751 16.1973 2.79124C17.1707 2.79311 18.0527 3.17067 18.6966 3.78159C19.0182 4.08728 19.2785 4.45037 19.4593 4.85267C19.64 5.25497 19.7412 5.69647 19.7441 6.15991C19.7485 6.93044 19.75 7.7005 19.75 8.47149Z" fill="white"/>
<path id="Vector_2" d="M22.4451 23.7937C22.2023 22.7478 21.8009 21.8435 21.2399 21.0693C20.6795 20.2952 19.9575 19.6507 19.0615 19.1311H19.061C19.0125 19.1024 18.9694 19.0778 18.9263 19.0506L18.9253 19.0496C18.8861 19.024 18.8346 18.99 18.7835 18.9336C18.7469 18.8923 18.7067 18.8348 18.6839 18.7564C18.6706 18.7125 18.6646 18.6685 18.6646 18.6246V18.6231C18.6651 18.5551 18.68 18.4981 18.6943 18.4563V18.4553L18.6953 18.4537C18.7107 18.4129 18.7275 18.3784 18.7444 18.3486C18.7756 18.2917 18.8088 18.2415 18.847 18.1824C18.9654 17.9984 19.069 17.815 19.1572 17.6315C19.2454 17.448 19.3187 17.2646 19.3772 17.0816C19.4946 16.7157 19.5531 16.3514 19.5531 15.9855C19.5526 15.3839 19.396 14.7744 19.0576 14.1466C18.8851 13.8272 18.6924 13.5512 18.4803 13.316C18.2687 13.0813 18.0377 12.8874 17.789 12.7316C17.2905 12.4217 16.7171 12.2622 16.0596 12.2617C15.9183 12.2617 15.7726 12.2696 15.623 12.2847C14.9381 12.3553 14.3648 12.5837 13.8896 12.9527C13.4149 13.3233 13.0358 13.8382 12.7607 14.5057C12.5472 15.0253 12.4461 15.5271 12.4461 16.0148C12.4461 16.388 12.505 16.7539 12.6235 17.1172C12.7424 17.4799 12.9213 17.839 13.1616 18.1944C13.1899 18.2352 13.2152 18.2765 13.2375 18.3199C13.2602 18.3633 13.2825 18.4145 13.2974 18.4736H13.2979C13.3078 18.5143 13.3148 18.5598 13.3148 18.6084V18.6137C13.3148 18.6665 13.3063 18.7198 13.2885 18.771C13.288 18.772 13.288 18.7726 13.2875 18.7736C13.2702 18.8254 13.2454 18.8693 13.2191 18.9064L13.2181 18.9079C13.1661 18.979 13.1076 19.0256 13.0576 19.0606H13.0566C13.0229 19.0841 12.9892 19.105 12.953 19.1254C12.0387 19.6491 11.3029 20.3025 10.736 21.0892C10.1691 21.8764 9.76966 22.7979 9.54072 23.8679C9.50901 24.0158 9.49414 24.1565 9.49414 24.2924C9.49414 24.5161 9.53428 24.7225 9.61456 24.9238C9.69533 25.124 9.81674 25.3184 9.98473 25.5056C10.0937 25.6263 10.2206 25.7194 10.3703 25.8009C10.5026 25.8741 10.6532 25.9368 10.8153 26H21.1696C21.2166 25.9791 21.2692 25.9561 21.3291 25.9331H21.3296C21.6998 25.7957 21.9902 25.5615 22.1894 25.2709C22.289 25.125 22.3663 24.9656 22.4183 24.7947C22.4708 24.6243 22.4986 24.4424 22.4986 24.2532C22.4986 24.1047 22.4813 23.951 22.4446 23.7937H22.4451ZM14.1815 14.6887C14.3009 14.5067 14.4436 14.3431 14.6056 14.2025C14.7677 14.0614 14.949 13.9443 15.1443 13.8549C15.2746 13.7948 15.4114 13.7483 15.5526 13.7164C15.6943 13.684 15.841 13.6662 15.9902 13.6652H16.0055C16.4525 13.6652 16.8727 13.8163 17.2201 14.0666C17.568 14.3175 17.8475 14.6688 18.0169 15.0802C18.1299 15.3546 18.1938 15.6562 18.1938 15.9698C18.1938 15.9834 18.1933 15.9912 18.1933 15.9944V15.9959C18.1864 16.6289 17.9381 17.2039 17.5427 17.6189C17.1483 18.0345 16.6032 18.2953 16.0036 18.299H15.9892C15.6924 18.299 15.4089 18.2347 15.1497 18.1187C14.8911 18.0026 14.6572 17.8343 14.4604 17.6278C14.066 17.2149 13.8153 16.6425 13.8004 16.0095C13.7999 15.9907 13.7999 15.9724 13.7999 15.9567C13.7999 15.49 13.9436 15.0514 14.1815 14.6887ZM21.1071 24.2662L20.9882 24.2302L21.1071 24.2667C21.0918 24.3216 21.0665 24.3776 21.0268 24.4283C21.0268 24.4288 21.0259 24.4298 21.0254 24.4304C20.9996 24.4638 20.9713 24.4905 20.9426 24.5129C20.9025 24.5433 20.8628 24.5626 20.8286 24.5767H20.8266C20.7806 24.595 20.7374 24.6049 20.6983 24.6107C20.6463 24.6191 20.5962 24.6227 20.5452 24.6248H20.5432C20.4748 24.6269 20.4005 24.6269 20.3148 24.6269H13.6775C12.949 24.6269 12.2211 24.6269 11.4927 24.6264C11.4401 24.6264 11.3916 24.6264 11.3425 24.6238H11.341C11.2954 24.6201 11.2389 24.6149 11.174 24.594H11.1735C11.1735 24.594 11.173 24.5934 11.1725 24.5934H11.1715C11.1264 24.5778 11.0695 24.5511 11.0154 24.5025C10.9832 24.4727 10.956 24.4392 10.9342 24.4016H10.9337L10.9332 24.4C10.9094 24.3582 10.8935 24.3154 10.8841 24.2741C10.8836 24.273 10.8831 24.272 10.8831 24.2709H10.8836C10.8727 24.2255 10.8703 24.1852 10.8703 24.1517C10.8703 24.088 10.8792 24.0352 10.8881 23.9892C10.897 23.9416 10.9079 23.8941 10.9208 23.8418C11.172 22.7875 11.7578 21.8518 12.5328 21.1415C13.3078 20.4316 14.2751 19.944 15.3058 19.7992C15.5348 19.7673 15.7632 19.7516 15.9897 19.7516C17.1195 19.7526 18.1968 20.1405 19.0809 20.8164C19.9649 21.4922 20.6552 22.4556 21.0105 23.606C21.0328 23.6792 21.0526 23.7435 21.07 23.8047C21.0873 23.8653 21.1027 23.9228 21.1136 23.9834C21.1205 24.0242 21.1264 24.0692 21.1264 24.1193C21.1264 24.1627 21.122 24.2129 21.1071 24.2662Z" fill="white"/>
<path id="Vector_3" d="M15.9655 8.80751C15.9655 8.88644 15.9531 8.96746 15.9248 9.05162C15.8782 9.1917 15.796 9.30618 15.6939 9.38458C15.5898 9.46403 15.4694 9.50846 15.3317 9.50899C13.5279 9.51055 11.7241 9.5116 9.92036 9.5116C8.31233 9.5116 6.70431 9.51108 5.09578 9.50899C4.99717 9.50899 4.91045 9.48912 4.83364 9.45567C4.72016 9.40497 4.62898 9.32395 4.56308 9.21575C4.49717 9.10702 4.45703 8.97217 4.45703 8.81222V8.80647C4.45852 8.60261 4.52839 8.43796 4.63889 8.31774C4.69489 8.25762 4.7608 8.21006 4.83662 8.1766C4.91243 8.14315 4.99816 8.12433 5.09529 8.12381C5.84752 8.1212 6.60024 8.12015 7.35346 8.12015C8.2826 8.12015 9.21223 8.1212 10.1419 8.1212H10.2122C11.1924 8.1212 12.1721 8.11963 13.1518 8.11963C13.8698 8.11963 14.5869 8.12067 15.3039 8.12329C15.4045 8.12381 15.4937 8.14472 15.5735 8.18026C15.6919 8.23358 15.79 8.32192 15.8584 8.43116C15.9268 8.53989 15.9655 8.67056 15.9655 8.80751Z" fill="white"/>
<path id="Vector_4" d="M11.8233 11.6277L11.8223 11.6288V11.6277H11.8233Z" fill="#21CCC7"/>
<path id="Vector_5" d="M9.88121 12.5213V12.5228C9.88121 12.631 9.86189 12.7246 9.83017 12.8067C9.78062 12.9295 9.70332 13.0257 9.59529 13.0983C9.48825 13.1689 9.3495 13.2144 9.17705 13.2154C8.50113 13.2165 7.82472 13.2175 7.14831 13.2175C6.4719 13.2175 5.81778 13.2165 5.15327 13.2149H5.15277C5.03681 13.2149 4.93721 13.1945 4.85247 13.1605C4.72462 13.1083 4.63196 13.0293 4.56456 12.9243C4.49816 12.8187 4.45753 12.687 4.45703 12.5197V12.5181C4.45703 12.4068 4.47586 12.3111 4.50758 12.2296C4.55614 12.1062 4.63047 12.0137 4.73751 11.9426C4.84355 11.8726 4.9828 11.8271 5.15921 11.8255C5.42383 11.8245 5.68746 11.824 5.95257 11.824C6.36238 11.824 6.77219 11.825 7.1825 11.825H7.19142C7.5938 11.825 7.99568 11.824 8.39707 11.824C8.65872 11.824 8.91987 11.8245 9.18102 11.8261C9.40996 11.8282 9.57794 11.9071 9.6939 12.0247C9.75237 12.0843 9.79796 12.1538 9.83017 12.2359C9.86238 12.319 9.88121 12.4131 9.88121 12.5213Z" fill="white"/>
</g>
<defs>
<clipPath id="clip0_34_75">
<rect width="22" height="26" fill="white" transform="translate(0.5)"/>
</clipPath>
</defs>
</svg>
