<svg width="17" height="16" viewBox="0 0 17 16" fill="none" xmlns="http://www.w3.org/2000/svg">
<path id="Vector" d="M1.5 14.8185H15.5M1.5 14.8185V11.3185L8.5 4.31846M1.5 14.8185L5 14.8184L12 7.81845M8.5 4.31846L11.01 1.80839L11.0116 1.8069C11.3571 1.46138 11.5302 1.28831 11.7297 1.22349C11.9054 1.16639 12.0947 1.16639 12.2704 1.22349C12.4698 1.28827 12.6427 1.46114 12.9877 1.80617L14.51 3.32849C14.8565 3.675 15.0299 3.84834 15.0948 4.04813C15.1519 4.22387 15.1519 4.41317 15.0948 4.58891C15.0299 4.78855 14.8568 4.96163 14.5108 5.30765L14.5101 5.30839L12 7.81845M8.5 4.31846L12 7.81845" stroke="#141F25" stroke-width="1.3" stroke-linecap="round" stroke-linejoin="round"/>
</svg>
