<svg width="16" height="16" viewBox="0 0 16 16" fill="none" xmlns="http://www.w3.org/2000/svg">
<path id="Vector" d="M1.22266 14.8189H15.2227M1.22266 14.8189V11.3189L8.22266 4.31895M1.22266 14.8189L4.72266 14.8189L11.7226 7.81894M8.22266 4.31895L10.7327 1.80888L10.7342 1.80739C11.0797 1.46187 11.2528 1.2888 11.4523 1.22398C11.628 1.16688 11.8174 1.16688 11.9931 1.22398C12.1925 1.28875 12.3653 1.46162 12.7104 1.80666L14.2327 3.32898C14.5792 3.67549 14.7525 3.84883 14.8175 4.04862C14.8746 4.22436 14.8745 4.41366 14.8174 4.5894C14.7526 4.78904 14.5795 4.96212 14.2335 5.30813L14.2327 5.30888L11.7226 7.81894M8.22266 4.31895L11.7226 7.81894" stroke="white" stroke-width="1.3" stroke-linecap="round" stroke-linejoin="round"/>
</svg>
